<svg id="Layer_1" data-name="Layer 1" xmlns="http://www.w3.org/2000/svg" width="139.7" height="54.8" viewBox="0 0 139.7 54.8"><defs><style>.cls-1{fill:#936037;}.cls-2{fill:#fff;}</style></defs><path class="cls-1" d="M139.7,27.4c0,6.06-3.08,7.18-15.72,11.24A133.39,133.39,0,0,1,98.36,44.3c-8.39,1-17,10.5-26.57,10.5S53.06,50,44.68,49c-10.13-1.22-19.44-2.53-26.81-4.9C5.23,40,0,33.46,0,27.4s4.77-14,17.41-18.07C24.78,7,34.71,8.41,44.83,7.19c8.39-1,17.41-3.36,27-3.36S91.22-.87,99.6.14c10.13,1.22,16.47,15.33,23.84,17.7,12.64,4.07,16.26,3.51,16.26,9.56"/><path class="cls-2" d="M51.28,18.79a3.72,3.72,0,0,1,2,3.58A10.74,10.74,0,0,1,51.79,27c-1.09,2.09-2.19,3.14-3.32,3.14a1.22,1.22,0,0,1-.73-.31L47,29.24v3.48a2.09,2.09,0,0,0,.1.61c.1.33.16.55.19.68a1.48,1.48,0,0,1-.16.66c-.13.32-.32.5-.57.52a4.22,4.22,0,0,1-1.6-.51,4,4,0,0,1-1.61-1,1,1,0,0,1,0-.86,2.49,2.49,0,0,0,.14-.67V19.49A1.57,1.57,0,0,0,43.3,19a1,1,0,0,1-.13-.47c.09-.65.33-1,.75-1a6.5,6.5,0,0,1,.83.23,4.6,4.6,0,0,0,1.16.26,4.54,4.54,0,0,0,1.58-.33,4.76,4.76,0,0,1,1.39-.34,1.71,1.71,0,0,1,.5.06,2.36,2.36,0,0,1,1,.61A4.26,4.26,0,0,0,51.28,18.79Zm-1.72,1.58a2.92,2.92,0,0,0-1.32.51A4.53,4.53,0,0,0,47,22v4.93c.74-.23,1.44-1.07,2.1-2.51A8.36,8.36,0,0,0,50,21.08C50,20.61,49.83,20.37,49.56,20.37Z"/><path class="cls-2" d="M64.12,34a.75.75,0,0,1-.25.49.62.62,0,0,1-.52.16c-1.7-.23-2.65-.55-2.84-1a.32.32,0,0,1,0-.16.4.4,0,0,1,.09-.23.53.53,0,0,0,.11-.21.76.76,0,0,1,.09-.18,4.18,4.18,0,0,0,0-.71,4,4,0,0,0-.74,1,5.62,5.62,0,0,1-.91,1.23,2.19,2.19,0,0,1-1.51.61,1.48,1.48,0,0,1-1-.39,9.11,9.11,0,0,1-.81-.8c-.66-.73-1-1.13-1.07-1.2a1.83,1.83,0,0,1-.43-1.09,1.17,1.17,0,0,1,0-.32,6.2,6.2,0,0,1,2.43-3.42A22.94,22.94,0,0,1,61,25.3c0-.44-.12-.72-.33-.84s-.62.07-1.45.46a9.22,9.22,0,0,0-1.73,1,6.78,6.78,0,0,1-.53.45.78.78,0,0,1-.64.12,3.46,3.46,0,0,1-1-.73,3.12,3.12,0,0,1-.81-.9.69.69,0,0,1,.35-.86s.29-.1.83-.25l1.52-.82A7.76,7.76,0,0,1,60,22.11a1.62,1.62,0,0,1,1.08.49l1.08.93c.36.3.74.6,1.12.89a1.55,1.55,0,0,1,.66,1.1v7.73A2,2,0,0,1,64.12,34Zm-3.3-6a4.38,4.38,0,0,0-1.73,1.18L58,30.47a5.33,5.33,0,0,0-.82,1.11,2.53,2.53,0,0,0-.38,1c0,.11,0,.16.12.16.29,0,.94-.62,1.94-1.85A13.12,13.12,0,0,0,60.82,28Z"/><path class="cls-2" d="M75.1,22.74a.69.69,0,0,1,.15.41.82.82,0,0,1-.24.49c-.16.19-.24.31-.24.37v9.51a1.42,1.42,0,0,0,.14.43,1.21,1.21,0,0,1,.13.45c0,.24-.21.42-.64.53a4.37,4.37,0,0,1-1.54-.23c-.88-.22-1.36-.43-1.45-.65a1.12,1.12,0,0,1,.07-.72,2.68,2.68,0,0,0,.2-.73,3,3,0,0,0-.06-.53,6.2,6.2,0,0,1-.87,1.81c-.45.63-.9.95-1.36.95a5,5,0,0,1-1.81-.47c-.74-.32-1.17-.61-1.28-.86q-.57-1.32-.57-9.67a2,2,0,0,1-.17-.78.87.87,0,0,1,.47-.86,1.55,1.55,0,0,1,.52-.06,8.07,8.07,0,0,1,1.67.21,2.64,2.64,0,0,1,1.17.44.4.4,0,0,1,.11.27,1.74,1.74,0,0,1-.31.72,1.68,1.68,0,0,0-.31.73A76.24,76.24,0,0,0,69,32.62c.2.07.68-.56,1.46-1.89a7,7,0,0,0,1.16-3V23.87a.9.9,0,0,1-.27-.66,1.07,1.07,0,0,1,.7-1.08.57.57,0,0,1,.25,0,7.68,7.68,0,0,1,1.63.25A3.25,3.25,0,0,1,75.1,22.74Z"/><path class="cls-2" d="M84.17,32.39a2.3,2.3,0,0,1-.75,1.8,3.15,3.15,0,0,1-2.11.7,2.8,2.8,0,0,1-.72-.11l-.74-.2-.76-.17a1.72,1.72,0,0,1-.65-.32A5,5,0,0,1,77.56,33c-.24-.38-.46-.77-.68-1.16a2.6,2.6,0,0,1-.33-.72c0-.19.14-.33.41-.43a1.39,1.39,0,0,1,.37,0,11.56,11.56,0,0,1,1.56.14,3.13,3.13,0,0,1,1,.22,4.78,4.78,0,0,1,.22,1.18c.09.62.23.94.44.94s.47-.42.47-1.27c0-1.08-.29-1.75-.86-2a8.29,8.29,0,0,1-2.6-1.64,4,4,0,0,1-.76-2.66,4.22,4.22,0,0,1,.61-2.2,2.44,2.44,0,0,1,1.47-1.23,7,7,0,0,1,2.39.77c.12,0,.49.12,1.09.23a1.52,1.52,0,0,1,.91.43A2.55,2.55,0,0,1,83.74,25c0,.51,0,1,0,1.51a7.15,7.15,0,0,1,.15.82.6.6,0,0,1-.56.66,3.41,3.41,0,0,1-1.13-.23A2.62,2.62,0,0,1,81,27.12a9.09,9.09,0,0,1-.12-1.54c0-.91-.14-1.37-.29-1.37s-.4.27-.58.8a5.11,5.11,0,0,0-.27,1.66c0,.72.16,1.18.48,1.37l2,1.11a4,4,0,0,1,1.39,1.16A3.75,3.75,0,0,1,84.17,32.39Z"/><path class="cls-2" d="M94.07,30.84c.12.2-.14.81-.8,1.82a6.72,6.72,0,0,1-2.11,2.19.86.86,0,0,1-.37.06,6.53,6.53,0,0,1-2.1-.49,3.85,3.85,0,0,1-1.81-1.07,6.73,6.73,0,0,1-1.2-4.25,9.48,9.48,0,0,1,1-4.54c.76-1.43,1.72-2.16,2.89-2.19a4.19,4.19,0,0,1,1.54.33A5.1,5.1,0,0,1,93,23.87a2.59,2.59,0,0,1,.35,1.1,9.08,9.08,0,0,1,.2,1.92,3,3,0,0,1-.45,1.92,16,16,0,0,1-4.33.76A7.19,7.19,0,0,0,89,31.68c.19.73.39,1.11.6,1.12s.6-.21,1-.67a3.2,3.2,0,0,0,.64-1,8.59,8.59,0,0,1,.39-1.26,3.51,3.51,0,0,1,1.3.32A2.49,2.49,0,0,1,94.07,30.84ZM90.4,24.58c-.23,0-.56.34-1,1.11a5.73,5.73,0,0,0-.73,2.18,2.53,2.53,0,0,0,1.48-.45q.33-.24.33-2C90.5,24.88,90.47,24.61,90.4,24.58Z"/></svg>