<svg xmlns="http://www.w3.org/2000/svg" xmlns:xlink="http://www.w3.org/1999/xlink" width="677.01mm" height="381.11mm" viewBox="0 0 1919.08 1080.33"><defs><style>.cls-1{isolation:isolate;}.cls-2{fill:url(#linear-gradient);}.cls-3{fill:#96a65d;}.cls-4{fill:#6f8c30;}.cls-5{fill:#387404;mix-blend-mode:darken;}.cls-6{fill:#f2e641;}.cls-7{fill:#fff;}.cls-8{opacity:0.92;}.cls-9{opacity:0.77;}.cls-10{fill:#10735a;}.cls-11{fill:#e1ab85;}.cls-12{fill:#a67c52;}.cls-13{fill:#b9121b;}.cls-14{fill:#4c1b1b;}.cls-15{fill:#8c6239;}.cls-16{fill:#ff836a;}.cls-17{fill:#be393a;}.cls-18{fill:#4d4d4d;}.cls-19{fill:#b88d1e;}.cls-20{fill:#8c8c80;}.cls-21{fill:#104639;}.cls-22{fill:#754c24;}.cls-23{fill:url(#linear-gradient-2);}.cls-24,.cls-25,.cls-29,.cls-30,.cls-31,.cls-32,.cls-33,.cls-34,.cls-35{fill:#0d0d0d;}.cls-25,.cls-29,.cls-30,.cls-31,.cls-32,.cls-33,.cls-34,.cls-35{stroke:#000;stroke-miterlimit:10;}.cls-25{stroke-width:2.33px;}.cls-26{fill:#736258;}.cls-27{fill:#f2d0e3;}.cls-28{fill:#333;}.cls-29{stroke-width:2.34px;}.cls-30{stroke-width:2.24px;}.cls-31{stroke-width:2.61px;}.cls-32{stroke-width:2.57px;}.cls-33{stroke-width:2.3px;}.cls-34{stroke-width:2.51px;}.cls-35{stroke-width:2.44px;}</style><linearGradient id="linear-gradient" x1="105.93" y1="1174.15" x2="2294.9" y2="-453.06" gradientUnits="userSpaceOnUse"><stop offset="0" stop-color="#4cacf7"/><stop offset="1" stop-color="#fff"/></linearGradient><linearGradient id="linear-gradient-2" x1="-14.4" y1="974.63" x2="1943.21" y2="974.63" gradientTransform="matrix(1.01, 0.04, -0.03, 1.15, 29.84, -253.54)" gradientUnits="userSpaceOnUse"><stop offset="0" stop-color="#8c6239"/><stop offset="0.49" stop-color="#724922"/><stop offset="0.55" stop-color="#6f4721"/><stop offset="1" stop-color="#42210b"/></linearGradient></defs><g class="cls-1"><g id="Layer_1" data-name="Layer 1"><g id="BG7"><rect class="cls-2" x="-0.5" width="1919" height="1080"/><ellipse class="cls-3" cx="1511.05" cy="802.29" rx="474.96" ry="184.79"/><ellipse class="cls-4" cx="535.5" cy="841.15" rx="575.5" ry="223.91"/><ellipse class="cls-5" cx="989.54" cy="1039.04" rx="1105.54" ry="236.29"/><path class="cls-6" d="M1887.72,162c0,1.48-84,.9-84.08,2.36s83.59,9.09,83.45,10.54-83.69-7.31-83.91-5.86,82.3,17.22,82,18.66-82.58-15.45-82.94-14,80.25,25.11,79.82,26.52-80.71-23.32-81.2-21.93,77.49,32.62,76.94,34-78.18-30.77-78.79-29.43,74.16,39.61,73.48,40.92-75.08-37.71-75.81-36.43,70.37,46,69.58,47.26-71.54-44.07-72.38-42.86,66.22,51.81,65.33,53-67.65-49.84-68.59-48.71,61.82,57,60.84,58.1-63.5-55-64.53-54,57.24,61.59,56.18,62.61-59.18-59.65-60.28-58.67,52.55,65.64,51.42,66.58-54.74-63.76-55.91-62.86,47.8,69.17,46.61,70-50.21-67.38-51.44-66.56,43,72.25,41.76,73-45.62-70.57-46.9-69.83,38.2,74.9,36.9,75.59-41-73.35-42.32-72.7,33.4,77.17,32,77.78-36.35-75.77-37.71-75.2,28.6,79.07,27.22,79.6-31.71-77.83-33.1-77.34,23.83,80.64,22.42,81.08-27-79.56-28.47-79.16S1764.45,306,1763,306.35s-22.41-81-23.85-80.68,14.36,82.85,12.91,83.13-17.78-82.14-19.24-81.9,9.68,83.53,8.21,83.73-13.17-83-14.63-82.84,5,83.93,3.56,84-8.59-83.61-10.07-83.53.46,84.09-1,84.13-4.06-83.95-5.53-83.95-4.08,84-5.54,83.95.44-84.05-1-84.13-8.61,83.65-10.07,83.53,5-83.9,3.57-84-13.19,83-14.64,82.84,9.65-83.49,8.21-83.73-17.8,82.18-19.24,81.9S1689,226,1687.54,225.67s-22.43,81-23.85,80.68,19-81.86,17.64-82.26-27.08,79.61-28.47,79.16,23.8-80.6,22.42-81.08-31.74,77.86-33.1,77.34,28.57-79,27.22-79.6-36.38,75.8-37.72,75.2,33.37-77.13,32.06-77.78-41,73.39-42.32,72.7,38.17-74.86,36.9-75.6-45.66,70.61-46.9,69.84,43-72.21,41.76-73-50.25,67.42-51.44,66.57,47.76-69.14,46.6-70-54.78,63.79-55.91,62.85,52.52-65.6,51.43-66.57-59.24,59.68-60.29,58.66,57.2-61.55,56.18-62.6-63.56,55-64.53,53.95S1637,197.12,1636.06,196s-67.7,49.86-68.59,48.69,66.17-51.77,65.34-53-71.6,44.1-72.39,42.86,70.32-46,69.59-47.26-75.14,37.73-75.82,36.43,74.11-39.59,73.49-40.92-78.24,30.79-78.79,29.43,77.43-32.59,76.94-34-80.78,23.34-81.2,21.93,80.17-25.09,79.82-26.52-82.65,15.46-82.94,14,82.23-17.19,82-18.65-83.76,7.33-83.91,5.86,83.52-9.06,83.45-10.54S1539,163.48,1539,162s84-.9,84.08-2.36-83.59-9.09-83.45-10.54,83.69,7.31,83.91,5.86-82.3-17.22-82-18.66,82.58,15.45,82.94,14-80.25-25.11-79.82-26.52,80.71,23.32,81.2,21.93-77.49-32.62-76.94-34,78.18,30.77,78.79,29.43-74.16-39.61-73.48-40.92S1629.28,138,1630,136.69s-70.37-46-69.58-47.26,71.54,44.07,72.38,42.86-66.22-51.81-65.33-53,67.65,49.84,68.59,48.71-61.82-57-60.84-58.1,63.5,55,64.53,54-57.24-61.59-56.18-62.61,59.18,59.65,60.28,58.67-52.55-65.64-51.42-66.58,54.74,63.76,55.91,62.86-47.8-69.17-46.61-70,50.21,67.38,51.44,66.56-43-72.25-41.76-73,45.62,70.57,46.9,69.83-38.2-74.9-36.9-75.59,41,73.35,42.32,72.7-33.4-77.17-32-77.78,36.35,75.77,37.71,75.2-28.6-79.07-27.22-79.6,31.71,77.83,33.1,77.34-23.83-80.64-22.42-81.08,27.05,79.56,28.47,79.16S1662.26,18,1663.69,17.65s22.41,81,23.85,80.68-14.36-82.85-12.91-83.13,17.78,82.14,19.24,81.9-9.68-83.53-8.21-83.73,13.17,83,14.63,82.84-5-83.93-3.56-84,8.59,83.61,10.07,83.53-.46-84.09,1-84.13,4.06,84,5.54,84,4.07-84,5.53-83.95-.44,84.05,1,84.13S1728.52,12,1730,12.16s-5,83.9-3.57,84.05,13.19-83,14.64-82.84-9.65,83.49-8.21,83.73,17.8-82.18,19.24-81.9S1737.74,98,1739.17,98.33s22.43-81,23.85-80.68-19,81.86-17.64,82.26,27.08-79.61,28.47-79.16-23.8,80.6-22.42,81.08,31.74-77.86,33.1-77.34-28.57,79-27.22,79.6,36.38-75.8,37.72-75.2S1761.66,106,1763,106.67s41-73.39,42.32-72.7-38.17,74.86-36.9,75.6,45.66-70.61,46.9-69.84-43,72.21-41.76,73,50.25-67.42,51.44-66.57-47.76,69.14-46.6,70,54.78-63.79,55.91-62.85-52.52,65.6-51.43,66.57,59.24-59.68,60.29-58.66-57.2,61.55-56.18,62.6,63.56-55,64.53-53.95-61.77,56.95-60.84,58.08,67.7-49.86,68.59-48.69-66.17,51.77-65.34,53,71.6-44.1,72.39-42.86-70.32,46-69.59,47.26,75.14-37.73,75.82-36.43-74.11,39.59-73.49,40.92,78.24-30.79,78.79-29.43-77.43,32.59-76.94,34,80.78-23.34,81.2-21.93-80.17,25.09-79.82,26.52,82.65-15.46,82.94-14-82.23,17.19-82,18.65,83.76-7.33,83.91-5.86-83.52,9.06-83.45,10.54S1887.72,160.52,1887.72,162Z"/><circle class="cls-7" cx="1666.59" cy="130.67" r="5.14"/><circle class="cls-7" cx="1729.26" cy="134.41" r="5.14"/><ellipse class="cls-7" cx="1694.14" cy="182.6" rx="17.5" ry="13.92"/><g id="cloud1" class="cls-8"><ellipse class="cls-7" cx="154.5" cy="155.5" rx="88.5" ry="70"/><ellipse class="cls-7" cx="243.5" cy="127" rx="66.5" ry="58.5"/><ellipse class="cls-7" cx="215.5" cy="234.5" rx="85.5" ry="67"/><ellipse class="cls-7" cx="108" cy="257.5" rx="55" ry="105" transform="translate(-165.04 199.03) rotate(-55.16)"/></g><g id="cloud2"><ellipse class="cls-7" cx="722.5" cy="162.61" rx="96.5" ry="79.11"/><ellipse class="cls-7" cx="806" cy="185.5" rx="83" ry="56"/><ellipse class="cls-7" cx="693.5" cy="256" rx="96.5" ry="43.5"/><ellipse class="cls-7" cx="887.5" cy="250" rx="121.5" ry="49.5"/><ellipse class="cls-7" cx="842" cy="163" rx="67" ry="49.5"/></g><g id="cloud3" class="cls-9"><ellipse class="cls-7" cx="1257.5" cy="135.5" rx="108.5" ry="64"/><ellipse class="cls-7" cx="1396.5" cy="185.5" rx="74.5" ry="60"/><ellipse class="cls-7" cx="1282.5" cy="208.5" rx="73.5" ry="46"/></g><g id="thinking"><path class="cls-10" d="M1160.09,782.9,1179,918.52c20.89-21.21,34.79-75.42,34.79-135.62,0-79.5-24.25-144.91-53.72-144.91s-53.72,65.41-53.72,144.91c0,57.93,12.88,110.52,32.62,133.27Z"/><path d="M1091.43,531c4,8.5-14.51,24-6.84,29.44s24.94-19,32.61-13.64-9.6,29.88-1.92,35.3,15.15-16.72,24.53-16.37S1155,588.64,1163,583.81s-7.56-30.44.41-35.27,23.49,20.78,31.46,16-9.43-21.49-5-29.66c4.93-9,28.39-2.61,28.69-12.85s-29.64-11.12-29.34-21.36,30.23-9.38,30.53-19.62-23.55-5.27-27.92-14.55c-4-8.49,14.51-24,6.84-29.44s-24.94,19.06-32.61,13.64,9.6-29.88,1.93-35.29-15.16,16.71-24.54,16.36-15.17-22.93-23.14-18.11,7.56,30.44-.41,35.27-23.49-20.78-31.46-15.95,9.43,21.5,5,29.67c-4.92,9-28.39,2.61-28.69,12.85s29.64,11.11,29.34,21.36-32.92,14.78-29.84,24.56C1067.12,530.63,1087.07,521.7,1091.43,531Z"/><path d="M1129.69,530.89c4,8.49-14.51,24-6.84,29.44s24.94-19.05,32.61-13.64-9.6,29.88-1.92,35.3,15.15-16.72,24.53-16.37,15.17,22.94,23.14,18.11-7.56-30.44.41-35.27,23.49,20.78,31.46,15.95-9.43-21.5-4.95-29.67c4.93-9,28.39-2.61,28.69-12.85s-29.64-11.11-29.34-21.35,30.23-9.38,30.53-19.63-23.55-5.27-27.92-14.54c-4-8.5,14.51-24,6.84-29.44S1212,456,1204.32,450.57s9.6-29.88,1.93-35.3-15.16,16.72-24.54,16.37-15.17-22.94-23.14-18.11,7.56,30.44-.41,35.27-23.49-20.78-31.46-15.95,9.43,21.49,5,29.67c-4.92,9-28.39,2.6-28.69,12.85s29.64,11.11,29.34,21.35-32.92,14.79-29.84,24.56C1105.38,530.54,1125.33,521.62,1129.69,530.89Z"/><ellipse class="cls-11" cx="1092.31" cy="618.71" rx="8.45" ry="35.04" transform="translate(-159.98 706.58) rotate(-33.54)"/><ellipse class="cls-11" cx="1160.16" cy="534.84" rx="70" ry="78.8"/><ellipse class="cls-12" cx="1183.97" cy="914.32" rx="7.6" ry="24.9"/><ellipse class="cls-12" cx="1134.9" cy="912.04" rx="6.48" ry="20.99"/><rect class="cls-13" x="1129.86" y="923.1" width="10.12" height="17.91" rx="2.75"/><rect class="cls-14" x="1119.24" y="931.4" width="20.87" height="11.33" rx="2.75"/><rect class="cls-13" x="1178.34" y="925.87" width="11.75" height="22.79" rx="2.75"/><rect class="cls-14" x="1177.48" y="936.92" width="23.89" height="13.2" rx="2.75"/><ellipse class="cls-15" cx="1171.78" cy="530.25" rx="6.17" ry="9.76"/><ellipse class="cls-15" cx="1136.21" cy="530.58" rx="6.74" ry="11.07"/><ellipse class="cls-16" cx="1156.63" cy="585.75" rx="10.73" ry="15.46" transform="translate(201.32 1462.27) rotate(-69.4)"/><ellipse class="cls-17" cx="1157.15" cy="643.19" rx="41.66" ry="29.62"/><path class="cls-18" d="M1174.23,664.27a4.44,4.44,0,0,0,8.87,0V622.44a4.44,4.44,0,0,0-8.87,0Z"/><ellipse class="cls-17" cx="1110.32" cy="638.91" rx="11.5" ry="20.52" transform="translate(-60.3 1159.16) rotate(-53.88)"/><path class="cls-18" d="M1134.07,666a4,4,0,1,0,8,0V621a4,4,0,1,0-8,0Z"/><ellipse cx="1160.02" cy="474.6" rx="61.39" ry="29.78"/><ellipse cx="1208.8" cy="492.79" rx="13.16" ry="33.25" transform="translate(-74.76 730.5) rotate(-32.67)"/><ellipse cx="1108.71" cy="496.32" rx="33.23" ry="9.02" transform="matrix(0.55, -0.83, 0.83, 0.55, 83.84, 1148.41)"/><ellipse class="cls-19" cx="1137.93" cy="663.86" rx="3.73" ry="4.23"/><ellipse class="cls-20" cx="1137.93" cy="664.19" rx="0.86" ry="0.98"/><ellipse class="cls-19" cx="1178.67" cy="662.4" rx="3.44" ry="3.74"/><ellipse class="cls-20" cx="1178.67" cy="663.05" rx="0.57" ry="0.81"/><path class="cls-21" d="M1189.4,715.65l-15.1.66c.12,23.12,6.9,41.94,15.1,41.94s15.11-19.23,15.11-42.6Z"/><ellipse class="cls-11" cx="1079.4" cy="578.25" rx="21.96" ry="5.12" transform="matrix(0.27, -0.96, 0.96, 0.27, 231.67, 1461.89)"/><ellipse class="cls-11" cx="1087.2" cy="551.26" rx="8.6" ry="9.75"/><ellipse class="cls-11" cx="1221.67" cy="617.33" rx="35.5" ry="8.87" transform="translate(-3.36 1227.97) rotate(-53.3)"/><ellipse class="cls-11" cx="1235.69" cy="577.72" rx="5.51" ry="21.68" transform="translate(-116.4 397.34) rotate(-17.46)"/><ellipse class="cls-17" cx="1202.1" cy="637.1" rx="21.59" ry="11.62" transform="translate(-156.41 710.48) rotate(-31.02)"/></g><g id="bridge"><path class="cls-22" d="M222.13,1079.63c-1.31,1.33-2-2.06-3.87-2.06s-1.88-.12-3.75-.12-1.87,2.7-3.75,2.7-1.87-3.5-3.74-3.5-1.88.89-3.75.89-1.88,4.8-3.75,4.8-1.88-2.15-3.75-2.15-1.88-.14-3.75-.14-1.88.79-3.75.79-1.88-1.74-3.75-1.74-1.88,3-3.76,3-2.73-1-4-2.31,1.76-2.19,1.76-4.08-3.71-1.9-3.71-3.8,2.06-1.89,2.06-3.79,1-1.9,1-3.79,1.2-1.9,1.2-3.79-.07-1.9-.07-3.79-4.89-1.9-4.89-3.79,4.94-1.9,4.94-3.8-3.34-1.89-3.34-3.79,2.1-1.9,2.1-3.8-.22-1.89-.22-3.79-2.45-1.9-2.45-3.79,2.48-1.9,2.48-3.79-1.42-1.9-1.42-3.8-1-1.89-1-3.79,1.58-1.9,1.58-3.8-.6-1.89-.6-3.79.35-1.9.35-3.79,1.17-1.9,1.17-3.8-.63-1.9-.63-3.8.95-1.89.95-3.79,1.77-1.9,1.77-3.8-.79-1.89-.79-3.79-2.52-1.9-2.52-3.8,3.43-1.9,3.43-3.79-.71-1.9-.71-3.8-.33-1.9-.33-3.8-3.54-1.89-3.54-3.79,3.75-1.9,3.75-3.8-4.93-1.9-4.93-3.79.12-1.9.12-3.8,4.6-1.9,4.6-3.8-1.23-1.9-1.23-3.8-1.53-1.9-1.53-3.79,2.36-1.9,2.36-3.8.18-1.9.18-3.79-.13-1.9-.13-3.8-4-1.9-4-3.8,5.24-1.9,5.24-3.79-.49-1.9-.49-3.8.4-1.9.4-3.8-1.35-1.9-1.35-3.8-1.18-1.9-1.18-3.8,2.7-1.9,2.7-3.8-4-1.9-4-3.8-.76-1.9-.76-3.8-.26-1.9-.26-3.8,4.65-1.9,4.65-3.8-5.32-4-4-5.41,3.5,1.89,5.37,1.89,1.87-.78,3.75-.78,1.87-.38,3.74-.38,1.88,1.19,3.75,1.19,1.88-2.93,3.75-2.93,1.88,1.94,3.75,1.94,1.88-1.74,3.75-1.74,1.88,1.11,3.75,1.11,1.88.86,3.75.86,1.88,3.13,3.75,3.13,1.88-2.32,3.76-2.32.39.31,1.72,1.65,2.5-.12,2.5,1.77,2.24,1.9,2.24,3.8-1.61,1.89-1.61,3.79-.58,1.9-.58,3.79-2.82,1.9-2.82,3.79,4.35,1.9,4.35,3.79-1.16,1.9-1.16,3.79-3.86,1.9-3.86,3.8,1.54,1.89,1.54,3.79,1.81,1.9,1.81,3.8-1,1.89-1,3.79-.54,1.9-.54,3.79,1.65,1.9,1.65,3.79-.3,1.9-.3,3.8-1.59,1.89-1.59,3.79,4.33,1.9,4.33,3.8-1.49,1.89-1.49,3.79-3.74,1.9-3.74,3.79,1.23,1.9,1.23,3.8,3.25,1.9,3.25,3.8-.7,1.89-.7,3.79-3,1.9-3,3.8-.36,1.89-.36,3.79.4,1.9.4,3.8.3,1.9.3,3.79,4.07,1.9,4.07,3.8-1.72,1.9-1.72,3.8-2.19,1.89-2.19,3.79,3.61,1.9,3.61,3.8-5,1.9-5,3.79,1.77,1.9,1.77,3.8-2.24,1.9-2.24,3.8.65,1.9.65,3.8,2.19,1.9,2.19,3.79.17,1.9.17,3.8-.24,1.9-.24,3.79,0,1.9,0,3.8-.82,1.9-.82,3.8,0,1.9,0,3.79.16,1.9.16,3.8,2.66,1.9,2.66,3.8.7,1.9.7,3.8-2.56,1.9-2.56,3.8-3,1.9-3,3.8,2,1.9,2,3.8-1.52,1.9-1.52,3.8,1.9,1.9,1.9,3.8,1.45,1.64,1.88,3.5A3.71,3.71,0,0,1,222.13,1079.63Z"/><path class="cls-22" d="M1929.11,1102.61c-1.54,1.54-4.29-1-6.47-1s-2.18-.06-4.36-.06-2.18-3-4.36-3-2.18,4.34-4.36,4.34-2.18.14-4.36.14-2.19-2.62-4.37-2.62-2.18,2.17-4.36,2.17-2.18-5.15-4.36-5.15-2.18,1.38-4.37,1.38-2.18,4.84-4.37,4.84-.58-3.84-2.13-5.38.83.08.83-2.1-3.81-2.17-3.81-4.34-1.89-2.17-1.89-4.34,1.77-2.18,1.77-4.35-.66-2.17-.66-4.34,1.47-2.18,1.47-4.35-1.55-2.17-1.55-4.34,1.57-2.17,1.57-4.34-2.07-2.17-2.07-4.34,3.34-2.17,3.34-4.34-4.62-2.17-4.62-4.35.89-2.17.89-4.34-.21-2.17-.21-4.35.12-2.17.12-4.34,3.87-2.17,3.87-4.34-1.87-2.17-1.87-4.34-.31-2.17-.31-4.34-1.78-2.18-1.78-4.35,2.94-2.17,2.94-4.35.25-2.17.25-4.34,0-2.17,0-4.34-2.29-2.17-2.29-4.35.8-2.17.8-4.34-1.63-2.18-1.63-4.35,2.55-2.17,2.55-4.34,3.47-2.18,3.47-4.35-1.28-2.17-1.28-4.35,0-2.17,0-4.34-2.08-2.17-2.08-4.35-2.38-2.17-2.38-4.34,4.93-2.18,4.93-4.35-.77-2.17-.77-4.35-.9-2.17-.9-4.34.78-2.18.78-4.35-3.12-2.18-3.12-4.35-1.54-2.17-1.54-4.35,5.85-2.17,5.85-4.34-6.24-2.18-6.24-4.35,3.68-2.18,3.68-4.35-3-2.18-3-4.35,2.1-2.17,2.1-4.34-1.86-2.18-1.86-4.35,1.72-2.18,1.72-4.35-1.31-2.17-1.31-4.35,1.42-2.17,1.42-4.35-1.52-2.17-1.52-4.35.7-2.17.7-4.35,2.22-2.17,2.22-4.35-2.45-2.17-2.45-4.34,4.67-2.18,4.67-4.36-.78-2.18-.78-4.35-3.65-2.78-2.11-4.32,2.13-1.13,4.32-1.13,2.17-1.39,4.35-1.39,2.18,2.4,4.37,2.4,2.18-3,4.36-3,2.18,3.76,4.36,3.76,2.18,2.16,4.36,2.16,2.19-.07,4.37-.07,2.18-6,4.36-6,2.18.28,4.37.28,2.18,3.9,4.36,3.9,1.61-1.18,3.16.36,2.09.95,2.09,3.13-4,2.17-4,4.34,4.88,2.17,4.88,4.34-3.17,2.18-3.17,4.35,4.7,2.17,4.7,4.34-5.29,2.18-5.29,4.35,3.73,2.17,3.73,4.34-1.34,2.17-1.34,4.34,2.68,2.17,2.68,4.34-5.34,2.17-5.34,4.34,4,2.17,4,4.35,1.21,2.17,1.21,4.34-.15,2.17-.15,4.35-3.33,2.17-3.33,4.34,1.31,2.17,1.31,4.34,1.55,2.17,1.55,4.34-3.58,2.17-3.58,4.34,1,2.18,1,4.35,0,2.17,0,4.35.14,2.17.14,4.34.44,2.17.44,4.34-3.7,2.17-3.7,4.35,2.88,2.17,2.88,4.34,3.23,2.18,3.23,4.35.1,2.17.1,4.34-5.56,2.18-5.56,4.35,2.43,2.17,2.43,4.35,3.48,2.17,3.48,4.34-4.51,2.17-4.51,4.35-.65,2.17-.65,4.34,4.3,2.18,4.3,4.35-.69,2.17-.69,4.35-3,2.17-3,4.34-.4,2.18-.4,4.35,2.68,2.18,2.68,4.35-2.31,2.17-2.31,4.35-1,2.17-1,4.34,3.43,2.18,3.43,4.35-.25,2.18-.25,4.35-.85,2.18-.85,4.35.9,2.17.9,4.34-.64,2.18-.64,4.35,2.73,2.18,2.73,4.35-1.24,2.17-1.24,4.35-4.81,2.17-4.81,4.35,5.65,2.17,5.65,4.35-5.08,2.17-5.08,4.35,1.83,2.17,1.83,4.35.27,2.17.27,4.34,2.59,2.18,2.59,4.36-1.83,1.92-1,3.94C1929.36,1099.08,1930.65,1101.07,1929.11,1102.61Z"/><path class="cls-22" d="M563.15,1084.64c-1.53,1.51-1.3,1.44-3.45,1.44s-2.15-2.81-4.3-2.81-2.16-.34-4.31-.34-2.15,3.29-4.3,3.29-2.16-3-4.31-3-2.15,2-4.31,2-2.15,1-4.31,1-2.15-4.08-4.3-4.08-2.16.39-4.31.39-2.15,3.8-4.31,3.8-2.15.21-4.31.21-2.16.21-4.31.21-1.47-1.09-3-2.6-1.19-.78-1.19-2.89,2.6-2.11,2.6-4.22-.71-2.11-.71-4.22-4.63-2.12-4.63-4.23,4.94-2.11,4.94-4.23-1.28-2.11-1.28-4.22,1.31-2.11,1.31-4.22-.13-2.11-.13-4.22.65-2.12.65-4.23.45-2.11.45-4.23S509,1041.15,509,1039s-2-2.11-2-4.23,1.11-2.11,1.11-4.22-1.08-2.11-1.08-4.22-1.43-2.12-1.43-4.23,5-2.12,5-4.23-2-2.11-2-4.22,2.36-2.12,2.36-4.23-5.88-2.11-5.88-4.23,3-2.11,3-4.22,2.45-2.12,2.45-4.23-2.08-2.11-2.08-4.23-.28-2.11-.28-4.23,1.18-2.11,1.18-4.22,1-2.12,1-4.23-4.61-2.12-4.61-4.23-.86-2.11-.86-4.23,2.2-2.11,2.2-4.23-2.07-2.11-2.07-4.22,3-2.12,3-4.23.33-2.12.33-4.23-3.1-2.11-3.1-4.22,5.91-2.12,5.91-4.23-.48-2.12-.48-4.23-3.15-2.11-3.15-4.23.25-2.11.25-4.23-2.78-2.11-2.78-4.23,1.31-2.11,1.31-4.23,3.69-2.12,3.69-4.23-2.32-2.12-2.32-4.23-1.12-2.12-1.12-4.23-.44-2.12-.44-4.24.45-2.11.45-4.23-.58-3.52.93-5,2.91,2.92,5.06,2.92,2.15,1,4.3,1,2.15-2.63,4.31-2.63,2.15.76,4.3.76,2.15-3.13,4.31-3.13,2.15,1,4.31,1,2.15,3.77,4.3,3.77,2.16-4.65,4.31-4.65,2.15,1.24,4.31,1.24,2.15,1.18,4.3,1.18,2.16.31,4.32.31,2.15-.27,4.31-.27,3.33-2.75,4.87-1.24-1.56,2.68-1.56,4.79,3.59,2.11,3.59,4.22-5.11,2.11-5.11,4.22,1.57,2.12,1.57,4.23.55,2.11.55,4.23.78,2.11.78,4.22.62,2.11.62,4.22,1.53,2.11,1.53,4.22-1.73,2.12-1.73,4.23-2.42,2.11-2.42,4.23-1.59,2.11-1.59,4.22.28,2.11.28,4.23,4.44,2.11,4.44,4.22-2.29,2.11-2.29,4.22-.29,2.12-.29,4.23,1.73,2.12,1.73,4.23-.79,2.11-.79,4.22-1.63,2.12-1.63,4.23-1.14,2.11-1.14,4.23-.23,2.11-.23,4.22,1.21,2.12,1.21,4.23,4.22,2.11,4.22,4.23-.14,2.11-.14,4.23-.7,2.11-.7,4.22-1.68,2.12-1.68,4.23-1.79,2.12-1.79,4.23-.75,2.11-.75,4.23,5.3,2.11,5.3,4.23-4.93,2.11-4.93,4.22,2.34,2.12,2.34,4.23,1.5,2.12,1.5,4.23-.65,2.11-.65,4.22-1.8,2.12-1.8,4.23-.18,2.12-.18,4.23,2.17,2.11,2.17,4.23-3.54,2.11-3.54,4.23,3.19,2.11,3.19,4.23-.86,2.11-.86,4.23,1.9,2.12,1.9,4.23.55,2.12.55,4.23-2.24,2.12-2.24,4.23-2.09,2.12-2.09,4.24a28.87,28.87,0,0,0,0,4.46C562.12,1083.31,564.66,1083.15,563.15,1084.64Z"/><path class="cls-22" d="M1241.53,1081c-1.23,1.27-3.3,1.26-5.07,1.26s-1.77-4-3.54-4-1.77,1.09-3.55,1.09-1.77.16-3.54.16-1.77-2.2-3.55-2.2-1.77.2-3.54.2-1.77,4.19-3.54,4.19-1.77-4.73-3.55-4.73-1.77,1.59-3.54,1.59-1.78,3.55-3.55,3.55-4.06.35-5.3-.91,2.73-3.52,2.73-5.34-3.6-1.81-3.6-3.62,2.35-1.81,2.35-3.62,1.78-1.81,1.78-3.63-.87-1.81-.87-3.62-1-1.81-1-3.63,1.31-1.81,1.31-3.63.92-1.81.92-3.63-.2-1.81-.2-3.62-.08-1.81-.08-3.63-1.42-1.81-1.42-3.62,2.39-1.81,2.39-3.63-2.89-1.81-2.89-3.62,1.77-1.82,1.77-3.63-.81-1.82-.81-3.63-.6-1.82-.6-3.63.16-1.81.16-3.63,1.53-1.81,1.53-3.62-.59-1.82-.59-3.63-2.53-1.81-2.53-3.63,3.85-1.81,3.85-3.63-1.18-1.81-1.18-3.63-1.7-1.81-1.7-3.62.93-1.82.93-3.63,1.75-1.82,1.75-3.64-3.64-1.81-3.64-3.62.66-1.82.66-3.63.64-1.82.64-3.63-1.59-1.82-1.59-3.63,1.41-1.82,1.41-3.63,1.42-1.82,1.42-3.63.47-1.82.47-3.63-1.36-1.82-1.36-3.63-2.08-1.82-2.08-3.64,3.15-1.81,3.15-3.63.33-1.81.33-3.63-2.38-1.81-2.38-3.63,1.68-1.81,1.68-3.63-1.1-1.82-1.1-3.63,2.38-1.82,2.38-3.63-4.52-1.82-4.52-3.63,1.19-1.82,1.19-3.63,1.4-1.82,1.4-3.63-1.87-1.82-1.87-3.63,2.45-1.82,2.45-3.63.4-1.82.4-3.64S1201,910.77,1201,909s-2.74-1.82-2.74-3.63,1.18-1.82,1.18-3.64.25-1.82.25-3.63,3.74-1.82,3.74-3.64-1.36-1.81-1.36-3.63-1.31-1.82-1.31-3.64,1-.34,2.26-1.64-.28-2.42,1.49-2.42,1.77-1.09,3.54-1.09,1.77,2.37,3.54,2.37,1.78-2.58,3.55-2.58,1.77,3.73,3.54,3.73,1.77-3.84,3.54-3.84,1.78.94,3.55.94,1.77,1.73,3.54,1.73,1.78.72,3.55.72,1.78-1.78,3.55-1.78.32.9,1.56,2.17,1.3-.14,1.3,1.68-.36,1.81-.36,3.62,1.14,1.81,1.14,3.62-1.66,1.81-1.66,3.63.2,1.81.2,3.62-.82,1.81-.82,3.63-.15,1.81-.15,3.63,2.08,1.81,2.08,3.63-1.66,1.81-1.66,3.62,1.91,1.81,1.91,3.63,1.6,1.81,1.6,3.62S1238,925.19,1238,927s.38,1.81.38,3.62.58,1.82.58,3.63-.54,1.82-.54,3.63-.84,1.82-.84,3.63,1.92,1.81,1.92,3.63,1.63,1.81,1.63,3.62.24,1.82.24,3.63-3.31,1.81-3.31,3.63,1.4,1.81,1.4,3.63,1.56,1.81,1.56,3.63-.18,1.81-.18,3.62-.75,1.82-.75,3.63,1.93,1.82,1.93,3.64.3,1.81.3,3.62-2.32,1.82-2.32,3.63-.73,1.82-.73,3.63.34,1.82.34,3.63-.91,1.82-.91,3.63,1.22,1.82,1.22,3.63-1.45,1.82-1.45,3.63,0,1.82,0,3.63-.62,1.82-.62,3.64,4.68,1.81,4.68,3.63.22,1.81.22,3.63-1.73,1.81-1.73,3.63-3.77,1.81-3.77,3.63,2.38,1.82,2.38,3.63-.79,1.82-.79,3.63,1.33,1.82,1.33,3.63.2,1.82.2,3.63-2,1.82-2,3.63-.72,1.82-.72,3.63,1.32,1.82,1.32,3.63.51,1.82.51,3.64.8,1.81.8,3.63-1.62,1.82-1.62,3.63,2.44,1.82,2.44,3.64,1.08,1.82,1.08,3.63-.54,1.82-.54,3.64-.88,1.81-.88,3.63.77,1.11,1.41,2.81C1243.2,1077.69,1242.8,1079.68,1241.53,1081Z"/><path class="cls-22" d="M1574,1084.45c-1.33,1.29-1.8-1.74-3.65-1.74s-1.85,3.5-3.7,3.5-1.85.68-3.7.68-1.85.35-3.7.35-1.85-3.52-3.7-3.52-1.85.19-3.7.19-1.85,1.8-3.7,1.8h-3.69c-1.86,0-1.86.57-3.71.57s-3.3.45-4.63-.84-1-2.74-1-4.54,2.71-1.79,2.71-3.59-1.09-1.79-1.09-3.58-2.35-1.79-2.35-3.58,3.33-1.79,3.33-3.58-.61-1.79-.61-3.59-.46-1.79-.46-3.58-1-1.79-1-3.59,2.51-1.79,2.51-3.59-1.59-1.79-1.59-3.58-1.46-1.8-1.46-3.59,2.07-1.79,2.07-3.59-1.23-1.79-1.23-3.58.62-1.79.62-3.58-.63-1.8-.63-3.59-1.54-1.8-1.54-3.59,1.43-1.8,1.43-3.59,0-1.79,0-3.59-.42-1.79-.42-3.58,2.13-1.8,2.13-3.59-1.19-1.79-1.19-3.59-1.57-1.79-1.57-3.59,3.53-1.79,3.53-3.59,0-1.79,0-3.58-2.77-1.8-2.77-3.59,1.29-1.8,1.29-3.59.74-1.8.74-3.59,1.25-1.8,1.25-3.59.73-1.79.73-3.59-5-1.79-5-3.59,4.55-1.79,4.55-3.59-.3-1.79-.3-3.59-2.53-1.79-2.53-3.59,2.73-1.79,2.73-3.59-4.45-1.79-4.45-3.59,1.79-1.79,1.79-3.59,1.45-1.8,1.45-3.59-.8-1.8-.8-3.59.3-1.8.3-3.59-2.6-1.8-2.6-3.59.38-1.8.38-3.59,1.1-1.8,1.1-3.59,2.62-1.8,2.62-3.59-1.94-1.8-1.94-3.59.08-1.8.08-3.59.85-1.8.85-3.59-2.73-1.8-2.73-3.59,2.1-1.8,2.1-3.6-1.13-1.79-1.13-3.59-1.29-1.8-1.29-3.59,2.28-1.8,2.28-3.6.41-1.8.41-3.59-2.26-1.8-2.26-3.6,3.68-1.79,3.68-3.59-.29-1.8-.29-3.6-1-.5.32-1.76,0-.65,1.9-.65,1.85-1.49,3.7-1.49,1.85.81,3.7.81h3.7c1.85,0,1.85.06,3.7.06s1.84-.58,3.69-.58,1.85,1.49,3.7,1.49,1.85-.31,3.7-.31,1.86-.51,3.71-.51.46,0,1.8,1.31,3.71-.18,3.71,1.62-4.23,1.79-4.23,3.59.06,1.79.06,3.58,4.53,1.79,4.53,3.58-3.67,1.79-3.67,3.58,4.25,1.79,4.25,3.59-2.22,1.79-2.22,3.58.86,1.79.86,3.59,1.1,1.79,1.1,3.59-1.49,1.79-1.49,3.58-2.77,1.8-2.77,3.59-.11,1.79-.11,3.59-.66,1.79-.66,3.58,3.16,1.79,3.16,3.58-1.19,1.8-1.19,3.59.59,1.8.59,3.59,1.25,1.8,1.25,3.59-2.23,1.79-2.23,3.59,2.15,1.79,2.15,3.58.74,1.8.74,3.59-3.38,1.79-3.38,3.59-.44,1.79-.44,3.59,3.16,1.79,3.16,3.59.5,1.79.5,3.58-4.58,1.8-4.58,3.59,1.93,1.8,1.93,3.59-.59,1.8-.59,3.59,1.71,1.8,1.71,3.59-2.88,1.79-2.88,3.59.28,1.79.28,3.59.31,1.79.31,3.59,2.18,1.79,2.18,3.59-1.74,1.79-1.74,3.59,2.76,1.79,2.76,3.59-1.29,1.79-1.29,3.59,1.24,1.79,1.24,3.59.92,1.8.92,3.59-3.47,1.8-3.47,3.59,2.55,1.8,2.55,3.59-1.07,1.8-1.07,3.59,1.51,1.8,1.51,3.59-.58,1.8-.58,3.59-1.7,1.8-1.7,3.59-.66,1.8-.66,3.59,1.59,1.8,1.59,3.59-2.16,1.8-2.16,3.59,1.27,1.8,1.27,3.59.48,1.8.48,3.6-2.37,1.79-2.37,3.59,2.57,1.8,2.57,3.59,2.3,1.8,2.3,3.6-1.76,1.8-1.76,3.59-2.91,1.8-2.91,3.6.77,1.79.77,3.59-.43,2.19-.06,4S1575.25,1083.2,1574,1084.45Z"/><path class="cls-22" d="M903.66,1079.2c-1.36,1.41-.61,2-2.57,2s-2-2.24-3.91-2.24-2,3-3.92,3-2,.41-3.91.41-2-1.84-3.92-1.84-2,1.31-3.91,1.31-2-3.28-3.92-3.28-2-.69-3.92-.69-1.95,1.33-3.91,1.33-2-1-3.92-1-2,1.27-3.92,1.27-2.94,2.77-4.3,1.37,1.71-2.39,1.71-4.41,1-2,1-4,.33-2,.33-4-1.35-2-1.35-4-1.12-2-1.12-4,1.58-2,1.58-4-4.1-2-4.1-4,3.94-2,3.94-4,1.27-2,1.27-4-6-2-6-4,4.36-2,4.36-4,.37-2,.37-4-2.54-2-2.54-4,.9-2,.9-4-2.77-2-2.77-4,4.38-2,4.38-4-2.59-2-2.59-4,.07-2,.07-4-1.33-2-1.33-4,5.14-2,5.14-4,.29-2,.29-4-2.47-2-2.47-4-3-2-3-4,1.4-2,1.4-4-2-2-2-4,2.51-2,2.51-4-2-2-2-4,5.49-2,5.49-4-.58-2-.58-4,.1-2,.1-4,.23-2,.23-4-3.71-2-3.71-4.05,2.38-2,2.38-4-.25-2-.25-4-1.54-2-1.54-4,.91-2,.91-4,.81-2,.81-4,.1-2,.1-4,.13-2,.13-4-1-2-1-4-1.17-2-1.17-4-.85-2-.85-4,1.4-2,1.4-4,1.95-2,1.95-4-2.39-2-2.39-4-.8-2-.8-4,3.29-2,3.29-4-4.77-2-4.77-4,3.49-2,3.49-4.05-.82-1.3.59-2.76.62-4,2.58-4,2,5.5,3.91,5.5,2-2.17,3.91-2.17,2,1.35,3.92,1.35,2,.63,3.92.63,1.95.49,3.91.49l3.92,0c2,0,2-.84,3.91-.84s2-.76,3.92-.76,2-1.08,3.92-1.08,2-2.27,3.92-2.27a4.53,4.53,0,0,1,4,1.73c1.41,1.45,1,2.15,1,4.17s-1.46,2-1.46,4,2.26,2,2.26,4-2.44,2-2.44,4,.87,2,.87,4,.71,2,.71,4-3,2-3,4,2.21,2,2.21,4,1.19,2,1.19,4-3.46,2-3.46,4,3.13,2,3.13,4-3.86,2-3.86,4,2,2,2,4,0,2,0,4-2.17,2-2.17,4,2.12,2,2.12,4,.43,2,.43,4,2.29,2,2.29,4-1.93,2-1.93,4-2.5,2-2.5,4,2.16,2,2.16,4,2.9,2,2.9,4-.62,2-.62,4v4c0,2-3.29,2-3.29,4s4.17,2,4.17,4,.26,2,.26,4-3.82,2-3.82,4,2.66,2,2.66,4,0,2,0,4-.35,2-.35,4-.18,2-.18,4.05-1.17,2-1.17,4,2.85,2,2.85,4-4.76,2-4.76,4,2.71,2,2.71,4,0,2,0,4-.23,2-.23,4-2,2-2,4,2.63,2,2.63,4-2.11,2-2.11,4,2.41,2,2.41,4,1.19,2,1.19,4-1.29,2-1.29,4,.65,2,.65,4-1.12,2-1.12,4-3.91,2-3.91,4,5,2,5,4.05-.45,2-.43,4C906.74,1078,905.07,1077.75,903.66,1079.2Z"/><path class="cls-23" d="M1955.22,948.71c-11.94,13.3-19.39-7.16-37.26-7.16s-17.87,12.11-35.73,12.11-17.87-18.26-35.74-18.26-17.87,4.55-35.73,4.55-17.87-1.88-35.74-1.88-17.86,2-35.73,2-17.87,9.46-35.74,9.46-17.86,7.71-35.73,7.71S1650,936,1632.09,936s-17.87,21.68-35.74,21.68-17.87-.67-35.73-.67-17.87-2.17-35.74-2.17-17.87-9.93-35.74-9.93-17.86-8.41-35.73-8.41-17.87,3-35.74,3-17.86,2.76-35.73,2.76-17.87,9.81-35.74,9.81-17.87,3.94-35.73,3.94-17.87-5.44-35.74-5.44-17.87,4.26-35.74,4.26-17.86-13.18-35.73-13.18-17.87-1.58-35.74-1.58-17.86,7-35.73,7-17.87-9.3-35.74-9.3-17.87,7.24-35.74,7.24-17.86-6.94-35.73-6.94-17.87-.35-35.74-.35S971,955,953.1,955s-17.87-14.71-35.74-14.71-17.86,2.86-35.73,2.86-17.87-6.85-35.74-6.85-17.86,6.07-35.73,6.07-17.87,16.37-35.73,16.37-17.87-20.85-35.74-20.85-17.87.69-35.74.69-17.86,4.31-35.73,4.31-17.87,9-35.73,9-17.87,7-35.74,7-17.87-19-35.73-19-17.87,7.89-35.74,7.89-17.87-2.86-35.74-2.86S470.67,957.7,452.8,957.7s-17.87-10.16-35.74-10.16-17.87-3.08-35.74-3.08-17.86,13.18-35.73,13.18-17.87-10.88-35.74-10.88S292,958.11,274.1,958.11s-17.86-12.64-35.73-12.64-17.87,11.32-35.74,11.32-17.87-14-35.74-14-17.87,5.41-35.74,5.41-17.87-.06-35.74-.06S77.53,942,59.66,942s-17.87,14.75-35.74,14.75-22.63,2.82-34.57-10.48c-13.3-14.81,9-18.84,9-38.74s-25.92-27.23-12.63-42c11.94-13.3,20.36-1.4,38.23-1.4s17.86,8,35.73,8,17.87-9.33,35.73-9.33,17.87,11.09,35.74,11.09S149,875,166.84,875s17.87-16.45,35.74-16.45,17.86,9.48,35.73,9.48,17.87,9.78,35.74,9.78,17.86-3.66,35.73-3.66,17.87-8.57,35.73-8.57,17.87,6.26,35.74,6.26,17.87,4.53,35.74,4.53,17.86-8.69,35.73-8.69,17.87,3.83,35.74,3.83,17.86,2.05,35.73,2.05,17.87-15.32,35.73-15.32S577.79,867,595.66,867s17.87,7.3,35.74,7.3,17.86-8.19,35.73-8.19,17.87,5.29,35.74,5.29,17.87-2.36,35.73-2.36,17.87-12.82,35.74-12.82,17.87,14.27,35.74,14.27,17.86-4.72,35.73-4.72,17.87-1.86,35.74-1.86,17.87,7.43,35.74,7.43,17.87-7.61,35.73-7.61,17.87,10.81,35.74,10.81,17.87-11.47,35.74-11.47,17.87-7.18,35.74-7.18,17.86,19.81,35.73,19.81,17.87-11.81,35.73-11.81,17.87-6.57,35.74-6.57,17.87,20.83,35.74,20.83,17.86-8.53,35.73-8.53,17.87-3.88,35.73-3.88,17.87.25,35.74.25,17.86,9.57,35.73,9.57,17.87-1.5,35.74-1.5,17.87-6.46,35.74-6.46,17.87-1.36,35.74-1.36,17.86-6.41,35.73-6.41,17.87,1.29,35.74,1.29,17.87-3.33,35.74-3.33,17.87,2.37,35.74,2.37S1614.15,878,1632,878s17.87-15.37,35.74-15.37,17.87-2.17,35.74-2.17,17.86,8.19,35.73,8.19,17.87.82,35.74.82,17.87-2.71,35.74-2.71S1828.59,878,1846.46,878s17.87-9,35.74-9,17.87-8.81,35.75-8.81,23.92-5.87,35.86,7.43c13.3,14.81-1.19,19.75,3.16,39.17C1961.74,928.14,1968.51,933.9,1955.22,948.71Z"/></g><g id="DEVILCOWSBAD"><ellipse class="cls-11" cx="1227.21" cy="551.3" rx="9.34" ry="9.55"/><g id="devilcow"><polygon class="cls-24" points="1161.74 317.12 1163.36 315.71 1162.88 313.61 1160.79 312.93 1159.16 314.34 1159.64 316.43 1161.74 317.12"/><polygon class="cls-25" points="1154.85 326.14 1157.1 324.02 1156.64 320.96 1153.93 320.01 1151.67 322.13 1152.13 325.19 1154.85 326.14"/><polygon class="cls-24" points="1111.92 303.87 1114.36 301.63 1113.71 298.38 1110.62 297.37 1108.17 299.6 1108.82 302.85 1111.92 303.87"/><polygon class="cls-25" points="1104.54 314.11 1106.98 311.87 1106.33 308.62 1103.23 307.61 1100.79 309.85 1101.44 313.1 1104.54 314.11"/><polygon class="cls-7" points="1212.59 290.68 1206.53 292.03 1198.48 251.76 1204.54 250.41 1212.59 290.68"/><rect class="cls-7" x="1114.14" y="273.6" width="4.71" height="27.82" transform="translate(144.63 -332.73) rotate(18.11)"/><rect class="cls-7" x="1106.63" y="272.67" width="6.58" height="38.81" transform="translate(145.72 -330.46) rotate(18.11)"/><rect class="cls-7" x="1156.73" y="290.42" width="5.84" height="33.25" transform="translate(152.84 -345.18) rotate(18.11)"/><rect class="cls-7" x="1163.7" y="291.6" width="3.46" height="24.06" transform="translate(152.06 -347.14) rotate(18.11)"/><polygon class="cls-26" points="1089.49 187.27 1090.62 189.36 1098.18 185.04 1097.05 182.95 1089.49 187.27"/><polygon class="cls-26" points="1135.45 200.45 1133.57 201.93 1129.11 196 1130.98 194.52 1135.45 200.45"/><polygon class="cls-26" points="1096.06 211.38 1106.92 207.27 1104.16 218.72 1117.81 201.54 1131.3 192.84 1128.88 186.33 1139.97 169.5 1124.83 182.66 1118.19 180.96 1111.26 195.6 1096.06 211.38"/><polygon class="cls-26" points="1122.73 226.08 1113.28 214.85 1105.93 227.83 1105.31 202.02 1096.93 184.57 1105.99 179.85 1108.16 156.08 1114.39 178.97 1124.11 181.73 1118.89 200.6 1122.73 226.08"/><rect class="cls-7" x="1095.19" y="232.85" width="103.7" height="51.65" transform="translate(137.18 -343.65) rotate(18.11)"/><rect class="cls-7" x="1092.67" y="177.43" width="36.66" height="40.3" transform="translate(116.41 -335.48) rotate(18.11)"/><rect class="cls-27" x="1088.48" y="204.84" width="28.09" height="45.98" transform="translate(543.35 1204.96) rotate(-71.89)"/><ellipse class="cls-7" cx="1112.11" cy="229.43" rx="6.17" ry="2.04" transform="translate(548.43 1215.17) rotate(-71.89)"/><ellipse class="cls-7" cx="1095.88" cy="224.12" rx="6.17" ry="2.82" transform="translate(542.29 1196.09) rotate(-71.89)"/><ellipse cx="1106.58" cy="188.86" rx="3.97" ry="2.98" transform="translate(583.19 1181.96) rotate(-71.89)"/><ellipse cx="1119.42" cy="194.19" rx="5.05" ry="3.21" transform="translate(586.97 1197.84) rotate(-71.89)"/><polygon points="1111.3 187.16 1105.74 180.84 1106.45 180.19 1112 186.51 1111.3 187.16"/><polygon points="1124.82 186.71 1114.85 188.19 1114.7 187.03 1124.67 185.55 1124.82 186.71"/><polygon class="cls-26" points="1213.89 293.76 1206.59 295.37 1205.44 289.62 1212.74 288 1213.89 293.76"/><path class="cls-28" d="M1140.33,252.78c0,1.12-4.3-4.73-4.3-6.39,0,2.26-7.77.47-7.77,3,0-.37,4.84-9.55,4.84-8,0-.68-2.27-6.74-2.27-6,0-.77,7.28.37,7.28-.37,0,1.65,6.37-1.34,6.37-1.91,0,0-.34,7.89-.34,7.08,0,1.28,6.21,3.7,6.21,3.21,0,1.68-7.49,3.65-7.49,4.27C1142.86,247.08,1140.33,254.18,1140.33,252.78Z"/><path class="cls-28" d="M1156.71,285.8c0-2.68-4.36-6.91-4.36-7.69,0-1.08-6.92,2.16-6.92-.16,0-.17,3.79-3.3,3.79-6.42,0,2.28-2.64-3.48-2.64-4.89,0-.82,6.7,1.37,6.7,2.6,0-.1,5.29-5.49,5.29-5.86,0-.78.35,7.18.35,6.23,0,2,5.91,5.82,5.91,6.74,0-.41-6.48-.45-6.48,1.85C1158.35,277,1156.71,282.44,1156.71,285.8Z"/><path class="cls-28" d="M1175.16,260.41c.4,0,3.72-5.29,2.49-5.29,2.07,0-1.88-5.18-2.52-5.18.89,0,6,.89,7,.89-1.28,0,4.73-4.31,4.52-4.31-.42,0,.2,5.84-.74,5.84.78,0,6.59,2.52,6.6,2.52-1.48,0-6.61,2.72-6.58,2.72,2.09,0,1.17,5.87.41,5.87-1.07,0-3.49-4.17-5.5-4.17C1181.09,259.3,1175.63,260.41,1175.16,260.41Z"/></g><g id="devilcow-2" data-name="devilcow"><polygon class="cls-24" points="1387.83 449.4 1387.81 447.24 1385.9 446.23 1384 447.38 1384.01 449.54 1385.92 450.55 1387.83 449.4"/><polygon class="cls-29" points="1390.19 460.58 1390.05 457.47 1387.41 455.81 1384.91 457.26 1385.05 460.37 1387.69 462.04 1390.19 460.58"/><polygon class="cls-24" points="1345.02 478.74 1344.92 475.41 1342.01 473.77 1339.21 475.47 1339.31 478.81 1342.22 480.44 1345.02 478.74"/><polygon class="cls-29" points="1348 491.1 1347.89 487.76 1344.98 486.13 1342.18 487.83 1342.29 491.16 1345.19 492.8 1348 491.1"/><polygon class="cls-7" points="1401.01 393.23 1398.06 398.74 1362.03 378.47 1364.98 372.96 1401.01 393.23"/><rect class="cls-7" x="1333.16" y="450.51" width="4.75" height="28" transform="translate(-47.35 759.55) rotate(-31.22)"/><rect class="cls-7" x="1331.4" y="453" width="6.62" height="39.07" transform="translate(-51.63 760.28) rotate(-31.22)"/><rect class="cls-7" x="1375.82" y="427.66" width="5.87" height="33.47" transform="translate(-30.66 779.04) rotate(-31.22)"/><rect class="cls-7" x="1378.21" y="425.62" width="3.48" height="24.22" transform="translate(-27.04 778.69) rotate(-31.22)"/><polygon class="cls-26" points="1241.3 419.37 1243.63 419.88 1245.29 411.27 1242.95 410.77 1241.3 419.37"/><polygon class="cls-26" points="1281.51 392.93 1281.4 395.33 1273.95 394.85 1274.05 392.45 1281.51 392.93"/><polygon class="cls-26" points="1264.01 430.17 1268 419.19 1274.93 428.81 1270.77 407.11 1272.97 391.1 1266.41 388.68 1260.84 369.17 1260.95 389.37 1255.31 393.32 1261.93 408.22 1264.01 430.17"/><polygon class="cls-26" points="1292.73 419.45 1277.95 419.3 1283.05 433.43 1262.93 416.98 1244.11 411.92 1246.45 401.9 1229.73 384.65 1251.29 394.92 1259.77 389.31 1270.76 405.67 1292.73 419.45"/><rect class="cls-7" x="1281.37" y="396.28" width="104.38" height="51.99" transform="translate(-25.75 752.41) rotate(-31.22)"/><rect class="cls-7" x="1244.82" y="389.43" width="36.9" height="40.56" transform="translate(-29.42 714.15) rotate(-31.22)"/><rect class="cls-27" x="1266.67" y="412.88" width="28.28" height="46.29" transform="translate(1571.84 1757.35) rotate(-121.22)"/><ellipse class="cls-7" cx="1288.32" cy="429.76" rx="2.05" ry="6.22" transform="translate(-36.18 730.04) rotate(-31.22)"/><ellipse class="cls-7" cx="1273.62" cy="438.67" rx="2.84" ry="6.22" transform="matrix(0.86, -0.52, 0.52, 0.86, -42.93, 723.71)"/><ellipse cx="1253.72" cy="407.37" rx="3" ry="4" transform="matrix(0.86, -0.52, 0.52, 0.86, -29.58, 708.86)"/><ellipse cx="1266.21" cy="401.06" rx="3.23" ry="5.09" transform="translate(-24.5 714.42) rotate(-31.22)"/><polygon points="1255.51 402.65 1247.05 402.74 1247.02 401.78 1255.48 401.69 1255.51 402.65"/><polygon points="1264.04 392.04 1258.64 400.61 1257.65 399.97 1263.06 391.39 1264.04 392.04"/><polygon class="cls-26" points="1404.2 394.26 1400.65 400.89 1395.5 398 1399.06 391.36 1404.2 394.26"/><path class="cls-28" d="M1325.81,423.4c0,.74-7.81-1-7.81-1.53,0,1.83-5.12,6.79-5.12,8.84,0-.62-1.62-8.13-1.62-8.17,0-.73-7.25-2.54-7.25-2.42,0-.34,6.82-4.59,6.82-5.42,0,.33.64-6.28.64-8.73a55.58,55.58,0,0,1,5.82,6.3c0,1.39,7.65-3.08,7.65-.66,0-1.14-3.21,6.17-3.21,6C1321.73,418.76,1325.81,423.21,1325.81,423.4Z"/><path class="cls-28" d="M1359.24,430.36c0,.8-7,2.88-7,2.06,0,.53-4,3.31-4,4.7,0-.42-2.09-7.2-2.09-7.16,0-1.23-6.69-.46-6.69-1.15,0-1.2,5.73-4.89,5.73-6.33,0,2.57-.09-6.77-.09-4.11,0-.46,5.62.91,5.62,3.77,0-.9,6.64-3.67,6.64-3.14,0-.89-2.25,7.56-2.25,6.2C1355.05,426.26,1359.24,432.24,1359.24,430.36Z"/><path class="cls-28" d="M1354,401.14c-.58,0-3-5.51-2.43-5.51a60.13,60.13,0,0,1-6-1.33c-.08,0,4.61-3.78,4-3.78,0,0-.45-5.91.38-5.91-.71,0,6.06,3.17,5.25,3.17-1.27,0,4.85-2.33,5.18-2.33-1.33,0-2.84,5.75-2,5.75s3.8,4.47,4.39,4.47-5,.38-5,.38C1358.26,396.05,1353.52,401.14,1354,401.14Z"/></g><g id="devilcow-3" data-name="devilcow"><polygon class="cls-24" points="1691.88 386.35 1690.82 384.58 1691.88 382.81 1694 382.81 1695.06 384.58 1694 386.35 1691.88 386.35"/><polygon class="cls-30" points="1695.48 396.64 1694.05 394.04 1695.38 391.38 1698.14 391.32 1699.57 393.93 1698.24 396.59 1695.48 396.64"/><polygon class="cls-24" points="1741.31 389.12 1739.75 386.35 1741.31 383.58 1744.44 383.58 1746 386.35 1744.44 389.12 1741.31 389.12"/><polygon class="cls-30" points="1744.99 400.68 1743.43 397.9 1744.99 395.13 1748.12 395.13 1749.68 397.9 1748.12 400.68 1744.99 400.68"/><polygon class="cls-7" points="1653.35 347.05 1658.48 350.08 1677.85 315.73 1672.72 312.69 1653.35 347.05"/><rect class="cls-7" x="1739.75" y="359.47" width="4.53" height="26.71" transform="translate(3484.03 745.65) rotate(180)"/><rect class="cls-7" x="1743.5" y="360.32" width="6.32" height="37.27" transform="translate(3493.32 757.92) rotate(180)"/><rect class="cls-7" x="1694" y="361.82" width="5.6" height="31.93" transform="translate(3393.6 755.56) rotate(180)"/><rect class="cls-7" x="1690.87" y="361.38" width="3.32" height="23.1" transform="translate(3385.07 745.87) rotate(180)"/><polygon class="cls-26" points="1796.58 289.39 1794.92 290.96 1789.32 284.76 1790.97 283.19 1796.58 289.39"/><polygon class="cls-26" points="1750.7 287.7 1751.97 289.61 1757.81 285.54 1756.54 283.63 1750.7 287.7"/><polygon class="cls-26" points="1783.39 309.44 1774.7 302.44 1773.8 313.72 1766.47 293.96 1756.76 281.99 1760.91 276.77 1755.8 258.1 1765.7 274.63 1772.26 275.06 1774.23 290.5 1783.39 309.44"/><polygon class="cls-26" points="1754.66 314.89 1766.64 307.46 1769.46 321.5 1777.74 298.13 1790.59 284.7 1783.73 277.69 1788.85 255.34 1776.33 274.38 1766.64 274 1765.76 292.78 1754.66 314.89"/><rect class="cls-7" x="1672.95" y="312.59" width="99.58" height="49.61" transform="translate(3445.48 674.78) rotate(180)"/><rect class="cls-7" x="1756.28" y="273.03" width="35.2" height="38.7" transform="translate(3547.75 584.75) rotate(180)"/><rect class="cls-27" x="1759.09" y="300.44" width="26.98" height="44.16" transform="translate(1450.06 2095.09) rotate(-90)"/><ellipse class="cls-7" cx="1763.36" cy="321.12" rx="1.96" ry="5.93"/><ellipse class="cls-7" cx="1779.75" cy="321.12" rx="2.71" ry="5.93"/><ellipse cx="1780.5" cy="285.74" rx="2.86" ry="3.82"/><ellipse cx="1767.2" cy="286.77" rx="3.08" ry="4.85"/><polygon points="1776.71 282.78 1783.66 278.67 1783.21 277.87 1776.26 281.98 1776.71 282.78"/><polygon points="1764.5 278.34 1773.15 282.66 1773.64 281.64 1764.98 277.32 1764.5 278.34"/><polygon class="cls-26" points="1651.25 349.46 1657.43 353.12 1660.2 348.21 1654.01 344.56 1651.25 349.46"/><path class="cls-28" d="M1730.18,335.46c0,1.58,5.87-3.51,5.87-4.53,0-.46,7.1,1.87,7.1,1.8,0,.88-2.54-6.14-2.54-5.86,0,.13,4.32-7.9,4.32-8.57,0,2.83-7.44,1.84-7.44,1.89,0-1.38-4.43-6.14-4.43-7.77,0,.59-2.06,9.38-2.06,9s-7.06,2.79-7.06,2.38c0,0,6.17,5,6.17,2.21C1730.11,327,1730.18,335.54,1730.18,335.46Z"/><path class="cls-28" d="M1706.35,358.62c0-1.71,5.61-6.33,5.61-3.69,0-.33,6.12,1.05,6.12,0,0,2.55-1.67-3.79-1.67-3.16,0-2.11,4.35-8.17,4.35-7.23s-6.64,1.08-6.64-.84c0-.93-3.43-4.59-3.43-6.42,0-.22-2.43,8-2.43,5.85,0,1.13-6.48,2.89-6.48,5.24,0-.89,5.14,2.33,5.14,1.49C1706.92,350.19,1706.35,357.17,1706.35,358.62Z"/><path class="cls-28" d="M1695.9,330.27c-.12,0-1.55-5.63-.53-5.63-1.68,0,2.32-3.92,4.09-3.92-1.83,0-5.82-.89-6.9-.89.46,0-2-5.14-1.7-5.14,0,0-3,5.07-3.66,5.07,1.74,0-4.51.74-4.79.74,1.57,0,5.18,4,4.71,4-.18,0-1.68,5.6-1.37,5.6,1.15,0,4.55-2.58,4.44-2.58C1689.48,327.55,1696.4,330.27,1695.9,330.27Z"/></g><g id="devilcow-4" data-name="devilcow"><polygon class="cls-24" points="162.87 350.73 162.45 353.1 164.34 354.59 166.65 353.71 167.07 351.35 165.18 349.86 162.87 350.73"/><polygon class="cls-31" points="162.53 338.03 162.06 341.46 164.61 343.81 167.64 342.73 168.11 339.29 165.56 336.95 162.53 338.03"/><polygon class="cls-24" points="215.56 327.25 215.01 330.91 217.86 333.29 221.26 331.99 221.82 328.32 218.97 325.95 215.56 327.25"/><polygon class="cls-31" points="214.79 313.14 214.23 316.81 217.08 319.18 220.49 317.89 221.04 314.22 218.19 311.85 214.79 313.14"/><polygon class="cls-7" points="137.18 409.49 141.51 404.06 176.83 433.46 172.5 438.89 137.18 409.49"/><rect class="cls-7" x="220.43" y="329.15" width="5.28" height="31.13" transform="translate(554.07 587.65) rotate(159.19)"/><rect class="cls-7" x="221.91" y="314.39" width="7.36" height="43.43" transform="translate(555.89 570.11) rotate(159.19)"/><rect class="cls-7" x="168.51" y="339.43" width="6.53" height="37.2" transform="matrix(-0.93, 0.36, -0.36, -0.93, 459.56, 631.66)"/><rect class="cls-7" x="167.21" y="351.61" width="3.87" height="26.92" transform="translate(456.97 646.22) rotate(159.19)"/><polygon class="cls-26" points="317.04 412.99 314.59 411.96 311.05 421.04 313.5 422.06 317.04 412.99"/><polygon class="cls-26" points="267.77 433.82 268.37 431.21 276.42 433.24 275.82 435.84 267.77 433.82"/><polygon class="cls-26" points="294.38 396.62 287.81 407.83 282.16 395.92 282.36 420.47 276.74 437.53 283.42 441.49 285.59 463.95 289.52 441.84 296.49 438.66 292.24 421.04 294.38 396.62"/><polygon class="cls-26" points="260.83 402.57 276.95 405.7 274.22 389.24 292.91 411.26 312.46 420.57 307.89 431.05 322.72 453.27 301.2 437.72 290.81 442.14 282.08 422.05 260.83 402.57"/><rect class="cls-7" x="158.74" y="362.38" width="116.03" height="57.8" transform="translate(558.39 680) rotate(159.19)"/><rect class="cls-7" x="270.57" y="396.59" width="41.02" height="45.09" transform="translate(712.1 707.48) rotate(159.19)"/><rect class="cls-27" x="261.47" y="361.12" width="31.43" height="51.45" transform="translate(540.29 -9.71) rotate(69.19)"/><ellipse class="cls-7" cx="267.72" cy="392.18" rx="2.28" ry="6.91" transform="translate(-121.89 120.73) rotate(-20.81)"/><ellipse class="cls-7" cx="285.58" cy="385.39" rx="3.15" ry="6.91" transform="translate(-118.31 126.63) rotate(-20.81)"/><ellipse cx="301.05" cy="423.62" rx="3.33" ry="4.45" transform="matrix(0.93, -0.36, 0.36, 0.93, -130.88, 134.62)"/><ellipse cx="286.12" cy="428" rx="3.59" ry="5.65" transform="translate(-133.41 129.6) rotate(-20.81)"/><polygon points="298.14 428.41 307.42 430.01 307.25 431.07 297.98 429.48 298.14 428.41"/><polygon points="286.68 438.31 294.32 430.01 295.26 430.92 287.63 439.21 286.68 438.31"/><polygon class="cls-26" points="133.89 407.73 139.11 401.19 144.16 405.39 138.94 411.93 133.89 407.73"/><path class="cls-28" d="M225.68,391.21c0-1.36,8.34,1.32,8.34,1.74,0-1,6.78-6.26,6.78-6.26,0-1.08.2,10.14.2,11.69,0-.16,7.28,4.21,7.28,3.21,0,.26-8.22.87-8.22,1,0,2.75-2.28,12.08-2.28,8.73,0,2.67-5.28-5.92-5.28-4.63,0-.86-8.69,0-8.69.36,0-1,4.95-6.37,4.95-9.66C228.76,399.26,225.68,389.79,225.68,391.21Z"/><path class="cls-28" d="M190.53,377.58c0,.68,7.62-1.9,7.62.19,0-2.1,5.57-4.66,5.57-7.18,0,1.53.91,9.43.91,7.74,0,2,6.87,5.76,6.87,5.88,0,2-7.06,2.85-7.06,3.79,0-1.36-1.33,8.37-1.33,6.6,0,2-5.27-4.05-5.27-6.62,0-1-7.69-.1-7.69.78,0,3,3.8-7.72,3.8-3.31C194,381.37,190.53,377.46,190.53,377.58Z"/><path class="cls-28" d="M189.43,410.28c-.47,0,.86,6.49,1.52,6.49,1.8,0,7.21,2.6,7.64,2.6-1.93,0-5.39,3.25-5.66,3.25-.5,0-1.15,6.59-2.53,6.59,1.94,0-3.25-4.48-5.17-4.48,2.47,0-4,1.47-4.49,1.47-1.87,0,1.85-6,2.4-6,1.16,0-2.33-5.68-3.58-5.68-.11,0,7.14.76,6.71.76S189.63,410.28,189.43,410.28Z"/></g><g id="devilcow-5" data-name="devilcow"><polygon class="cls-24" points="530.8 37.84 532.02 39.88 530.8 41.92 528.35 41.92 527.13 39.88 528.35 37.84 530.8 37.84"/><polygon class="cls-32" points="526.65 25.99 528.29 28.99 526.76 32.05 523.58 32.11 521.94 29.11 523.47 26.05 526.65 25.99"/><polygon class="cls-24" points="473.88 34.64 475.68 37.84 473.88 41.03 470.28 41.03 468.48 37.84 470.28 34.64 473.88 34.64"/><polygon class="cls-32" points="469.64 21.34 471.44 24.54 469.64 27.73 466.04 27.73 464.24 24.54 466.04 21.34 469.64 21.34"/><polygon class="cls-7" points="575.16 83.09 569.25 79.6 546.95 119.16 552.86 122.65 575.16 83.09"/><rect class="cls-7" x="470.47" y="38.03" width="5.21" height="30.76"/><rect class="cls-7" x="464.09" y="24.89" width="7.27" height="42.92"/><rect class="cls-7" x="521.91" y="29.32" width="6.45" height="36.76"/><rect class="cls-7" x="528.13" y="39.98" width="3.82" height="26.6"/><polygon class="cls-26" points="410.25 149.48 412.15 147.67 418.61 154.81 416.7 156.62 410.25 149.48"/><polygon class="cls-26" points="463.07 151.42 461.61 149.22 454.88 153.91 456.35 156.11 463.07 151.42"/><polygon class="cls-26" points="425.44 126.39 435.44 134.45 436.47 121.47 444.91 144.21 456.1 158 451.32 164 457.19 185.5 445.8 166.47 438.24 165.97 435.99 148.2 425.44 126.39"/><polygon class="cls-26" points="458.51 120.12 444.72 128.67 441.47 112.5 431.94 139.41 417.14 154.87 425.04 162.95 419.15 188.68 433.56 166.76 444.72 167.2 445.73 145.57 458.51 120.12"/><rect class="cls-7" x="437.94" y="65.65" width="114.66" height="57.11"/><rect class="cls-7" x="416.12" y="123.76" width="40.53" height="44.56"/><rect class="cls-27" x="422.35" y="85.91" width="31.06" height="50.84" transform="translate(549.22 -326.55) rotate(90)"/><ellipse class="cls-7" cx="448.5" cy="112.94" rx="2.25" ry="6.83"/><ellipse class="cls-7" cx="429.62" cy="112.94" rx="3.12" ry="6.83"/><ellipse cx="428.76" cy="153.68" rx="3.29" ry="4.4"/><ellipse cx="444.08" cy="152.49" rx="3.55" ry="5.59"/><polygon points="433.12 157.09 425.12 161.82 425.64 162.75 433.64 158.01 433.12 157.09"/><polygon points="447.18 162.2 437.22 157.23 436.66 158.39 446.63 163.37 447.18 162.2"/><polygon class="cls-26" points="577.58 80.31 570.46 76.1 567.28 81.75 574.39 85.96 577.58 80.31"/><path class="cls-28" d="M486.7,95.52c0-.91-6.76,5.3-6.76,5.54,0,1.74-8.18-3.57-8.18-3.69,0,2.31,2.93,9,2.93,12,0-3.17-5,6.16-5,6.86,0-3.49,8.57-2.71,8.57-.77,0-.72,5.11,4.45,5.11,5.63,0-1.48,2.36-9.47,2.36-9.38,0,1.75,8.13-2.22,8.13-1.28,0,.32-7.1-7-7.1-5.19C486.78,103.78,486.7,96.8,486.7,95.52Z"/><path class="cls-28" d="M514.13,72.81c0-2.18-6.45.8-6.45,1.13,0,1.42-7.05-2.29-7.05-2.33s1.92,6.14,1.92,9.63c0-1.8-5,3-5,3.32,0,2.22,7.65,2,7.65,1,0,1.36,3.95,5.19,3.95,5.13,0,2.35,2.8-4.94,2.8-6.84,0,.9,7.46-1,7.46.09,0-2.33-5.92-4.27-5.92-6.14C513.48,78.76,514.13,71.07,514.13,72.81Z"/><path class="cls-28" d="M527.62,102.41c-1.19,0-.77,6.48.28,6.48-1.25,0-6.29,4.51-5,4.51,1.48,0,5.21,1,6.71,1-1.07,0,3.11,5.92,2.81,5.92-1.07,0,1.26-5.84,2.32-5.84s8-.86,6-.86c.11,0-3.23-4.64-3.8-4.64s2.19-6.45.8-6.45c1.58,0-4.53,3-4.57,3S526.24,102.41,527.62,102.41Z"/></g><g id="devilcow-6" data-name="devilcow"><polygon class="cls-24" points="457.11 351.87 457.54 349.79 459.57 349.19 461.18 350.66 460.75 352.74 458.71 353.34 457.11 351.87"/><polygon class="cls-33" points="452.68 362.15 453.41 359.19 456.27 358.1 458.39 359.98 457.66 362.95 454.8 364.03 452.68 362.15"/><polygon class="cls-24" points="492.58 388.34 493.32 385.15 496.43 384.14 498.8 386.32 498.05 389.5 494.94 390.51 492.58 388.34"/><polygon class="cls-33" points="487.33 399.64 488.07 396.45 491.18 395.44 493.55 397.62 492.8 400.8 489.69 401.81 487.33 399.64"/><polygon class="cls-7" points="455.3 295.34 457.07 301.2 495.61 288.69 493.84 282.82 455.3 295.34"/><rect class="cls-7" x="502.11" y="362.77" width="4.65" height="27.45" transform="translate(620.99 995.06) rotate(-137.41)"/><rect class="cls-7" x="500.44" y="365.22" width="6.49" height="38.3" transform="translate(614.36 1008.22) rotate(-137.41)"/><rect class="cls-7" x="463.91" y="332.4" width="5.76" height="32.81" transform="translate(574.37 921.5) rotate(-137.41)"/><rect class="cls-7" x="465.23" y="330.3" width="3.41" height="23.74" transform="translate(579.11 910.09) rotate(-137.41)"/><polygon class="cls-26" points="603.74 351.33 601.39 351.37 601.47 342.77 603.81 342.74 603.74 351.33"/><polygon class="cls-26" points="570.21 318.15 569.84 320.47 577.09 321.45 577.46 319.13 570.21 318.15"/><polygon class="cls-26" points="579.82 357.32 578.11 345.99 569.59 353.89 577.78 333.85 578.76 318.04 585.53 316.98 594.65 299.3 590.64 318.69 595.31 323.58 586.06 336.62 579.82 357.32"/><polygon class="cls-26" points="554.29 341.47 568.52 344.18 560.89 356.77 583.41 344.84 602.47 343.62 602.16 333.54 621.57 320.2 598.86 325.89 591.79 318.87 578.07 332.46 554.29 341.47"/><rect class="cls-7" x="463.34" y="310.81" width="102.32" height="50.97" transform="translate(665.67 932.07) rotate(-137.41)"/><rect class="cls-7" x="566.4" y="317.92" width="36.17" height="39.76" transform="translate(786.16 982.05) rotate(-137.41)"/><rect class="cls-27" x="548.68" y="337.01" width="27.72" height="45.37" transform="translate(-82.98 530.39) rotate(-47.41)"/><ellipse class="cls-7" cx="556.54" cy="352.23" rx="6.09" ry="2.01" transform="translate(-79.42 523.56) rotate(-47.41)"/><ellipse class="cls-7" cx="568.94" cy="363.63" rx="6.09" ry="2.78" transform="translate(-83.81 536.38) rotate(-47.41)"/><ellipse cx="594.12" cy="337.39" rx="3.92" ry="2.94" transform="translate(-56.35 546.43) rotate(-47.41)"/><ellipse cx="583.33" cy="328.91" rx="4.99" ry="3.16" transform="translate(-53.6 535.75) rotate(-47.41)"/><polygon points="593.31 332.51 601.42 334.24 601.64 333.31 593.52 331.59 593.31 332.51"/><polygon points="587.16 320.66 590.7 329.95 591.77 329.52 588.23 320.23 587.16 320.66"/><polygon class="cls-26" points="452.03 295.7 454.16 302.77 459.67 300.98 457.53 293.92 452.03 295.7"/><path class="cls-28" d="M521.52,339.22c0,2.1,7.7-.21,7.7,3,0-3.25,3.78,3.37,3.78,4.4,0,.52,3.06-7,3.06-5.63,0-.12,7.59-3.29,7.59-1.06,0-1.27-5.81-6.49-5.81-6.36,0-1,.91-7.32.91-7.9,0-.77-6.65,2.57-6.65,5.39,0-2.36-7-4.38-7-3.8a39.8,39.8,0,0,1,1.7,8.35C526.77,334.7,521.52,339.27,521.52,339.22Z"/><path class="cls-28" d="M488,339.85c0-.64,6.79.12,6.79,2.12,0-1.31,2.79,6,2.79,7.43,0-2,3.32-9.1,3.32-6.71,0-.35,6.87-1.77,6.87-1,0-2-4.74-6.79-4.74-7.82,0,.69,1.45-3.26,1.45-3.86,0-3-6.24,3-6.24,2.21,0,1.34-6-3.45-6-5.54,0,1.29.87,9.94.87,8.09C493.18,335.24,488,340.54,488,339.85Z"/><path class="cls-28" d="M499.41,312c-1.13,0,3.42-4.86,2.89-4.86-1.21,0,5.26-.16,5.18-.16s-2.64-4.5-3.68-4.5c-.53,0,3.57-5.56,1.48-5.56,2,0-4.16,2.09-5,2.09,1.54,0-3.37-3.28-3.71-3.28-1.2,0,.65,5.79-1.41,5.79,1.07,0-4.12,3.53-3.56,3.53.05,0,4.54,1.49,6.13,1.49C498,306.56,500.13,312,499.41,312Z"/></g><g id="devilcow-7" data-name="devilcow"><polygon class="cls-24" points="1640.13 476.21 1640.12 474.09 1638.25 473.1 1636.38 474.23 1636.4 476.35 1638.27 477.34 1640.13 476.21"/><polygon class="cls-33" points="1642.45 487.18 1642.32 484.12 1639.73 482.49 1637.28 483.92 1637.41 486.97 1640 488.6 1642.45 487.18"/><polygon class="cls-24" points="1598.17 504.98 1598.07 501.71 1595.22 500.11 1592.47 501.77 1592.58 505.04 1595.43 506.64 1598.17 504.98"/><polygon class="cls-33" points="1601.09 517.09 1600.99 513.82 1598.14 512.22 1595.39 513.88 1595.49 517.15 1598.35 518.76 1601.09 517.09"/><polygon class="cls-7" points="1653.06 421.15 1650.16 426.55 1614.85 406.68 1617.74 401.28 1653.06 421.15"/><rect class="cls-7" x="1586.55" y="477.3" width="4.65" height="27.45" transform="translate(-24.41 894.7) rotate(-31.22)"/><rect class="cls-7" x="1584.82" y="479.74" width="6.49" height="38.3" transform="translate(-28.6 895.42) rotate(-31.22)"/><rect class="cls-7" x="1628.37" y="454.9" width="5.76" height="32.81" transform="translate(-8.05 913.81) rotate(-31.22)"/><rect class="cls-7" x="1630.71" y="452.9" width="3.41" height="23.74" transform="translate(-4.49 913.47) rotate(-31.22)"/><polygon class="cls-26" points="1496.49 446.78 1498.78 447.27 1500.41 438.84 1498.12 438.34 1496.49 446.78"/><polygon class="cls-26" points="1535.91 420.86 1535.81 423.21 1528.5 422.74 1528.6 420.39 1535.91 420.86"/><polygon class="cls-26" points="1518.76 457.37 1522.67 446.59 1529.46 456.02 1525.38 434.76 1527.54 419.06 1521.11 416.69 1515.65 397.56 1515.76 417.36 1510.23 421.24 1516.72 435.84 1518.76 457.37"/><polygon class="cls-26" points="1546.91 446.86 1532.43 446.71 1537.42 460.56 1517.7 444.43 1499.26 439.47 1501.55 429.65 1485.15 412.74 1506.29 422.8 1514.61 417.31 1525.38 433.34 1546.91 446.86"/><rect class="cls-7" x="1535.78" y="424.14" width="102.32" height="50.97" transform="translate(-3.23 887.7) rotate(-31.22)"/><rect class="cls-7" x="1499.95" y="417.43" width="36.17" height="39.76" transform="translate(-6.82 850.2) rotate(-31.22)"/><rect class="cls-27" x="1521.37" y="440.41" width="27.72" height="45.37" transform="matrix(-0.52, -0.86, 0.86, -0.52, 1934.98, 2016.03)"/><ellipse class="cls-7" cx="1542.59" cy="456.96" rx="2.01" ry="6.09" transform="translate(-13.45 865.78) rotate(-31.22)"/><ellipse class="cls-7" cx="1528.18" cy="465.7" rx="2.78" ry="6.09" transform="translate(-20.07 859.57) rotate(-31.22)"/><ellipse cx="1508.67" cy="435.01" rx="2.94" ry="3.92" transform="translate(-6.98 845.02) rotate(-31.22)"/><ellipse cx="1520.92" cy="428.83" rx="3.16" ry="4.99" transform="translate(-2.01 850.47) rotate(-31.22)"/><polygon points="1510.43 430.38 1502.13 430.48 1502.1 429.53 1510.4 429.44 1510.43 430.38"/><polygon points="1518.79 419.98 1513.49 428.39 1512.53 427.75 1517.83 419.35 1518.79 419.98"/><polygon class="cls-26" points="1656.19 422.16 1652.7 428.66 1647.66 425.82 1651.15 419.32 1656.19 422.16"/><path class="cls-28" d="M1579.34,453.12c0-.13-7.66-2.33-7.66-1.21,0-.34-5,3.7-5,6,0-.27-1.58-8.77-1.58-9.57,0,2-7.11-1-7.11-2.49,0,1.2,6.68-5.24,6.68-5.2,0,.22.63-7.88.63-6,0,.27,5.71,4.57,5.71,4,0,1.65,7.5.89,7.5.55,0-2.94-3.15,7-3.15,6.8C1575.34,444.2,1579.34,452.77,1579.34,453.12Z"/><path class="cls-28" d="M1612.12,459.48c0,.84-6.88-2.52-6.88-.13,0-2.82-4,5.42-4,5.62,0-.35-2-5.79-2-6.24,0-1.33-6.57-4-6.57-4.31,0,.8,5.62-2.64,5.62-4,0,.53-.09-5.72-.09-7.54,0,1.14,5.51,4.08,5.51,6.58,0-1.19,6.51-3.7,6.51-3.42,0,.07-2.21,5.37-2.21,7.93C1608,452.61,1612.12,458.52,1612.12,459.48Z"/><path class="cls-28" d="M1605.76,428.9c.81,0-2.27-5.4-.86-5.4.3,0-6.1-1.3-6.4-1.3-.52,0,4-3.71,4-3.71,1.8,0,.12-5.79.13-5.79.32,0,5.35,3.11,5.4,3.11-.45,0,4.35-2.28,5.87-2.28.29,0-1.58,5.63-2.65,5.63,1.6,0,4.94,4.38,4.32,4.38,1.08,0-6.3.37-6.91.37C1610.68,423.91,1608.25,428.9,1605.76,428.9Z"/></g><g id="devilcow-8" data-name="devilcow"><polygon class="cls-24" points="1548.91 194.44 1550.11 196.43 1548.91 198.42 1546.53 198.42 1545.34 196.43 1546.53 194.44 1548.91 194.44"/><polygon class="cls-34" points="1544.87 182.88 1546.47 185.81 1544.98 188.8 1541.87 188.86 1540.27 185.93 1541.77 182.94 1544.87 182.88"/><polygon class="cls-24" points="1493.36 191.33 1495.12 194.44 1493.36 197.56 1489.84 197.56 1488.09 194.44 1489.84 191.33 1493.36 191.33"/><polygon class="cls-34" points="1489.22 178.34 1490.98 181.46 1489.22 184.57 1485.71 184.57 1483.95 181.46 1485.71 178.34 1489.22 178.34"/><polygon class="cls-7" points="1592.22 238.62 1586.45 235.21 1564.68 273.82 1570.45 277.23 1592.22 238.62"/><rect class="cls-7" x="1490.03" y="194.63" width="5.09" height="30.02"/><rect class="cls-7" x="1483.8" y="181.81" width="7.1" height="41.89"/><rect class="cls-7" x="1540.24" y="186.13" width="6.3" height="35.88"/><rect class="cls-7" x="1546.31" y="196.54" width="3.73" height="25.97"/><polygon class="cls-26" points="1431.25 303.41 1433.11 301.65 1439.41 308.62 1437.55 310.38 1431.25 303.41"/><polygon class="cls-26" points="1482.81 305.31 1481.38 303.16 1474.82 307.75 1476.24 309.89 1482.81 305.31"/><polygon class="cls-26" points="1446.07 280.88 1455.84 288.75 1456.85 276.07 1465.08 298.28 1476 311.73 1471.33 317.59 1477.07 338.58 1465.95 320 1458.58 319.52 1456.37 302.17 1446.07 280.88"/><polygon class="cls-26" points="1478.36 274.75 1464.9 283.1 1461.72 267.32 1452.42 293.59 1437.97 308.68 1445.69 316.56 1439.94 341.68 1454.01 320.28 1464.9 320.71 1465.88 299.6 1478.36 274.75"/><rect class="cls-7" x="1458.27" y="221.59" width="111.92" height="55.75"/><rect class="cls-7" x="1436.98" y="278.31" width="39.56" height="43.49"/><rect class="cls-27" x="1443.06" y="241.37" width="30.32" height="49.63" transform="translate(1724.41 -1192.04) rotate(90)"/><ellipse class="cls-7" cx="1468.59" cy="267.75" rx="2.2" ry="6.66"/><ellipse class="cls-7" cx="1450.16" cy="267.75" rx="3.04" ry="6.66"/><ellipse cx="1449.31" cy="307.52" rx="3.21" ry="4.29"/><ellipse cx="1464.27" cy="306.36" rx="3.46" ry="5.45"/><polygon points="1453.58 310.85 1445.76 315.46 1446.27 316.37 1454.09 311.75 1453.58 310.85"/><polygon points="1467.3 315.84 1457.57 310.98 1457.03 312.12 1466.76 316.98 1467.3 315.84"/><polygon class="cls-26" points="1594.58 235.9 1587.63 231.79 1584.52 237.31 1591.47 241.41 1594.58 235.9"/><path class="cls-28" d="M1505.87,251.41c0,1.85-6.59,6.71-6.59,5.5,0-1.78-8-3.14-8-2.36,0,.22,2.86,9.66,2.86,6.34,0,2.84-4.86,7.76-4.86,7.09,0,3,8.37.76,8.37-.38,0,1.1,5,6.77,5,8.95,0-1.26,2.31-7.41,2.31-8.56,0-1.48,7.94-2.91,7.94-3.09,0-.54-6.94-4.45-6.94-3.67C1506,259,1505.87,251,1505.87,251.41Z"/><path class="cls-28" d="M1532.65,227.44c0,1.08-6.3,1.44-6.3,3.31,0-1.71-6.88-3.91-6.88-1.31,0-.52,1.88,6.35,1.88,4.33,0,.57-4.89,7.51-4.89,6.66,0,2.34,7.46,1,7.46,2.18,0-2.39,3.86,4.07,3.86,5.1,0,1.68,2.73-6.06,2.73-5.21,0-2,7.28-2.89,7.28-2.48,0-1.47-5.78-6.2-5.78-6.41C1532,235.27,1532.65,226.83,1532.65,227.44Z"/><path class="cls-28" d="M1544.74,257.47c1.25,0,.8,6.33-.11,6.33.5,0-2.72,4.4-3,4.4a49.31,49.31,0,0,1,6.28,1c-1.61,0,1.48,5.77,1.52,5.77,1.25,0,4-5.7,3.19-5.7a53.25,53.25,0,0,0,6.23-.83c.58,0-4.43-4.53-3.41-4.53-.43,0-.8-6.3.59-6.3.51,0-6.79,2.91-5.38,2.91C1550.13,260.53,1545.69,257.47,1544.74,257.47Z"/></g><g id="devilcow-9" data-name="devilcow"><polygon class="cls-24" points="932.49 141.08 931.99 138.88 933.69 137.41 935.88 138.13 936.38 140.32 934.69 141.8 932.49 141.08"/><polygon class="cls-35" points="932.73 152.95 932.14 149.77 934.42 147.47 937.29 148.35 937.89 151.53 935.61 153.83 932.73 152.95"/><polygon class="cls-24" points="982.74 160.69 982.06 157.28 984.62 154.94 987.86 156 988.53 159.4 985.98 161.74 982.74 160.69"/><polygon class="cls-35" points="982.64 173.89 981.96 170.49 984.52 168.15 987.75 169.21 988.43 172.61 985.88 174.95 982.64 173.89"/><polygon class="cls-7" points="905.9 87.33 910.18 92.21 941.88 63.19 937.59 58.31 905.9 87.33"/><rect class="cls-7" x="986.52" y="129.49" width="4.93" height="29.1" transform="translate(1884.23 588.3) rotate(-161.89)"/><rect class="cls-7" x="988.27" y="131.66" width="6.88" height="40.61" transform="translate(1887.1 604.6) rotate(-161.89)"/><rect class="cls-7" x="937.43" y="116.48" width="6.11" height="34.78" transform="translate(1792.8 553.38) rotate(-161.89)"/><rect class="cls-7" x="935.9" y="114.82" width="3.62" height="25.17" transform="translate(1789.4 539.92) rotate(-161.89)"/><polygon class="cls-26" points="1073.73 76.12 1071.49 77.19 1067.78 68.86 1070.03 67.8 1073.73 76.12"/><polygon class="cls-26" points="1026.8 58.84 1027.46 61.25 1034.89 59 1034.23 56.6 1026.8 58.84"/><polygon class="cls-26" points="1053.29 92.41 1046.66 82.23 1041.91 93.6 1041.01 70.66 1035 54.98 1041.07 50.98 1042.11 29.91 1046.76 50.38 1053.41 53.05 1050.21 69.7 1053.29 92.41"/><polygon class="cls-26" points="1021.69 88.33 1036.61 84.7 1034.78 100.2 1051.27 78.8 1069.12 69.24 1064.39 59.65 1077.26 38.25 1057.85 53.72 1047.94 50.05 1040.68 69.2 1021.69 88.33"/><rect class="cls-7" x="926.78" y="73.81" width="108.49" height="54.04" transform="translate(1882.14 501.53) rotate(-161.89)"/><rect class="cls-7" x="1030.04" y="50.45" width="38.35" height="42.16" transform="translate(2024.25 465.57) rotate(-161.89)"/><rect class="cls-27" x="1022.97" y="78.24" width="29.39" height="48.11" transform="translate(617.96 1056.79) rotate(-71.89)"/><ellipse class="cls-7" cx="1028.59" cy="97.73" rx="6.46" ry="2.13" transform="translate(616.05 1045.02) rotate(-71.89)"/><ellipse class="cls-7" cx="1045.57" cy="103.28" rx="6.46" ry="2.95" transform="translate(622.47 1064.98) rotate(-71.89)"/><ellipse cx="1058.33" cy="66.9" rx="4.16" ry="3.11" transform="translate(665.85 1052.03) rotate(-71.89)"/><ellipse cx="1044.19" cy="63.46" rx="5.29" ry="3.36" transform="translate(659.37 1036.23) rotate(-71.89)"/><polygon points="1055.4 62.55 1063.99 60.64 1063.79 59.66 1055.2 61.56 1055.4 62.55"/><polygon points="1044.26 53.81 1051.76 61.22 1052.6 60.33 1045.1 52.93 1044.26 53.81"/><polygon class="cls-26" points="902.9 89.12 908.07 95 912.6 90.86 907.43 84.98 902.9 89.12"/><path class="cls-28" d="M989.4,102.43c0-3,7.67-3.6,7.67-2.89,0,0,6.58,5.39,6.58,5.43,0-.44-.21-10.79-.21-8.82,0-2.83,6.58-5.86,6.58-5.35,0-1.91-7.8-2.08-7.8-1.75,0-1.5-2.51-10.33-2.51-8.75,0-1.48-4.61,5.43-4.61,7.21,0,1-8.13,0-8.13.86,0-2.22,4.94,6.11,4.94,5.58C991.91,93.88,989.4,100.9,989.4,102.43Z"/><path class="cls-28" d="M957.2,117.31c0-1.07,7-4.1,7-2,0,.13,5.44,5,5.44,2.88,0-.67.5-5.74.5-5.49,0-1.08,6.25-5.42,6.25-6.53,0,.35-6.73-2.24-6.73-.3,0,1.45-1.59-6.37-1.59-9.71,0,3.25-4.66,6.6-4.66,7,0,.68-7.23-1.88-7.23.24,0,1.77,3.86,5.73,3.86,7.64C960.09,110.29,957.2,116.63,957.2,117.31Z"/><path class="cls-28" d="M955.44,84.26c1.1,0,1.88-6.12,1.95-6.12-1.45,0,5.46-2.7,3.29-2.7.77,0-3.14-2.78-3.15-2.78-.85,0-1-6.14-1.68-6.14s-3.85,4.4-5.26,4.4c-.55,0-6.26-1.1-4.79-1.1-.66,0,2.17,5.51,2.18,5.51-.37,0-1.51,5.45-2.45,5.45-.32,0,5.31-1,4.34-1C950.43,79.79,954,84.26,955.44,84.26Z"/></g><g id="devilcow-10" data-name="devilcow"><polygon class="cls-24" points="883.46 292.98 885.09 294.4 884.61 296.51 882.49 297.2 880.86 295.77 881.35 293.66 883.46 292.98"/><polygon class="cls-29" points="876.54 283.88 878.81 286.02 878.34 289.1 875.61 290.05 873.34 287.91 873.8 284.83 876.54 283.88"/><polygon class="cls-24" points="833.28 306.22 835.74 308.48 835.08 311.75 831.96 312.76 829.5 310.5 830.16 307.23 833.28 306.22"/><polygon class="cls-29" points="825.87 295.89 828.33 298.15 827.67 301.42 824.55 302.43 822.1 300.17 822.76 296.9 825.87 295.89"/><polygon class="cls-7" points="934.6 319.69 928.5 318.33 920.31 358.85 926.41 360.21 934.6 319.69"/><rect class="cls-7" x="835.49" y="308.69" width="4.75" height="28" transform="translate(-58.7 274.56) rotate(-17.99)"/><rect class="cls-7" x="827.93" y="298.55" width="6.62" height="39.07" transform="translate(-57.6 272.29) rotate(-17.99)"/><rect class="cls-7" x="878.4" y="286.38" width="5.87" height="33.47" transform="translate(-50.53 287.03) rotate(-17.99)"/><rect class="cls-7" x="885.41" y="294.46" width="3.48" height="24.22" transform="translate(-51.31 288.99) rotate(-17.99)"/><polygon class="cls-26" points="810.47 423.54 811.62 421.43 819.22 425.8 818.07 427.9 810.47 423.54"/><polygon class="cls-26" points="856.76 410.37 854.88 408.87 850.37 414.83 852.25 416.32 856.76 410.37"/><polygon class="cls-26" points="817.14 399.28 828.06 403.44 825.3 391.91 839.01 409.23 852.57 418.02 850.12 424.57 861.25 441.53 846.03 428.25 839.35 429.95 832.4 415.2 817.14 399.28"/><polygon class="cls-26" points="844.01 384.54 834.47 395.83 827.11 382.74 826.42 408.72 817.96 426.27 827.07 431.04 829.2 454.97 835.52 431.94 845.3 429.19 840.1 410.18 844.01 384.54"/><rect class="cls-7" x="816.36" y="325.78" width="104.38" height="51.99" transform="translate(-66.18 285.46) rotate(-17.99)"/><rect class="cls-7" x="813.69" y="392.93" width="36.9" height="40.56" transform="translate(-86.94 277.22) rotate(-17.99)"/><rect class="cls-27" x="809.54" y="359.6" width="28.28" height="46.29" transform="translate(933.31 -518.88) rotate(72.01)"/><ellipse class="cls-7" cx="833.32" cy="381.15" rx="2.05" ry="6.22" transform="translate(-76.98 276.01) rotate(-17.99)"/><ellipse class="cls-7" cx="816.98" cy="386.45" rx="2.84" ry="6.22" transform="translate(-79.42 271.22) rotate(-17.99)"/><ellipse cx="827.68" cy="421.97" rx="3" ry="4" transform="translate(-89.86 276.27) rotate(-17.99)"/><ellipse cx="840.61" cy="416.63" rx="3.23" ry="5.09" transform="translate(-87.58 280) rotate(-17.99)"/><polygon points="832.42 423.7 826.82 430.04 827.53 430.7 833.13 424.35 832.42 423.7"/><polygon points="846.03 424.17 836 422.66 835.85 423.83 845.88 425.34 846.03 424.17"/><polygon class="cls-26" points="935.91 316.6 928.56 314.96 927.39 320.74 934.74 322.39 935.91 316.6"/><path class="cls-28" d="M861.78,356.69c0,1.27-4.33,7-4.33,7.66,0-1.23-7.83-2.6-7.83-2.64,0-.72,4.86,7.69,4.86,6.38,0,.46-2.3,7.83-2.3,8.75,0,1.2,7.33-4.13,7.33-3.24,0,1.58,6.41,3.89,6.41,4.16,0,2.62-.33-5.46-.33-6.41,0-1.33,6.26-4.25,6.26-6.67,0,1.76-7.54-.06-7.54,0C864.31,362.5,861.78,356.54,861.78,356.69Z"/><path class="cls-28" d="M878.34,326.35c0,1.52-4.4,4.48-4.4,6.52,0-2.89-7-2.34-7-.63,0-1.62,3.8,6.74,3.8,5.71,0-2.17-2.67,5.42-2.67,6.06,0-1,6.75-3.59,6.75-3.1,0,2.7,5.31,7.09,5.31,7.19,0-1.64.37-6.61.37-8.79,0,.63,6-3.38,6-3.45,0,1.11-6.52-2.33-6.52-2.36C880,335.17,878.34,326.23,878.34,326.35Z"/><path class="cls-28" d="M899.12,350.09c-.29,0,1.54,5.33,1.26,5.33s-3.22,5.21-2,5.21c.53,0,5.52-.89,5.55-.89-1.3,0,3.69,4.35,2.7,4.35,2.21,0,1.51-5.87,1.45-5.87-.75,0,5.57-2.53,6.06-2.53s-5.2-2.75-6.58-2.75c1.23,0,1.24-5.91.09-5.91.48,0-3.33,4.18-4.1,4.18C903.51,351.21,896.93,350.09,899.12,350.09Z"/></g></g></g></g></g></svg>