<?xml version="1.0" encoding="utf-8"?>
<!-- Generator: Adobe Illustrator 25.4.1, SVG Export Plug-In . SVG Version: 6.00 Build 0)  -->
<svg version="1.1" id="Layer_1" xmlns="http://www.w3.org/2000/svg" xmlns:xlink="http://www.w3.org/1999/xlink" x="0px" y="0px"
	 viewBox="0 0 1926.1 1081.3" style="enable-background:new 0 0 1926.1 1081.3;" xml:space="preserve">
<style type="text/css">
	.st0{fill:url(#SVGID_1_);}
	.st1{fill:#96A65D;}
	.st2{fill:#6F8C30;}
	.st3{fill:#387404;}
	.st4{fill:#F2E641;}
	.st5{fill:#FFFFFF;}
	.st6{opacity:0.92;}
	.st7{opacity:0.77;}
	.st8{fill:#E1AB85;}
	.st9{fill:#0D0D0D;}
	.st10{fill:#0D0D0D;stroke:#000000;stroke-width:2.33;stroke-miterlimit:10;}
	.st11{fill:#736258;}
	.st12{fill:#F2D0E3;}
	.st13{fill:#333333;}
	.st14{fill:#0D0D0D;stroke:#000000;stroke-width:2.34;stroke-miterlimit:10;}
	.st15{fill:#0D0D0D;stroke:#000000;stroke-width:2.24;stroke-miterlimit:10;}
	.st16{fill:#0D0D0D;stroke:#000000;stroke-width:2.61;stroke-miterlimit:10;}
	.st17{fill:#0D0D0D;stroke:#000000;stroke-width:2.57;stroke-miterlimit:10;}
	.st18{fill:#0D0D0D;stroke:#000000;stroke-width:2.3;stroke-miterlimit:10;}
	.st19{fill:#0D0D0D;stroke:#000000;stroke-width:2.51;stroke-miterlimit:10;}
	.st20{fill:#0D0D0D;stroke:#000000;stroke-width:2.44;stroke-miterlimit:10;}
	.st21{fill:#10735A;}
	.st22{fill:#A67C52;}
	.st23{fill:#B9121B;}
	.st24{fill:#4C1B1B;}
	.st25{fill:#8C6239;}
	.st26{fill:#BE393A;}
	.st27{fill:#4D4D4D;}
	.st28{fill:#B88D1E;}
	.st29{fill:#8C8C80;}
	.st30{fill:#104639;}
	.st31{fill:none;stroke:#000000;stroke-width:0.87;stroke-miterlimit:10;}
	.st32{fill:#754C24;}
	.st33{fill:url(#SVGID_00000083781224355513573070000002499130661613562517_);}
</style>
<g>
	<g id="Layer_1_00000088105615658869300820000006432619242761302158_">
		<g id="bg9">
			
				<linearGradient id="SVGID_1_" gradientUnits="userSpaceOnUse" x1="107.9275" y1="-90.1467" x2="2296.8975" y2="1537.0632" gradientTransform="matrix(1 0 0 -1 4.272461e-04 1084)">
				<stop  offset="0" style="stop-color:#4CACF7"/>
				<stop  offset="1" style="stop-color:#FFFFFF"/>
			</linearGradient>
			<rect x="1.5" class="st0" width="1919" height="1080"/>
			<ellipse class="st1" cx="1513.1" cy="802.3" rx="475" ry="184.8"/>
			<ellipse class="st2" cx="537.5" cy="841.2" rx="575.5" ry="223.9"/>
			<ellipse class="st3" cx="991.5" cy="1039" rx="1105.5" ry="236.3"/>
			<path class="st4" d="M1889.7,162c0,1.5-84,0.9-84.1,2.4c-0.1,1.5,83.6,9.1,83.4,10.5c-0.1,1.4-83.7-7.3-83.9-5.9
				s82.3,17.2,82,18.7s-82.6-15.4-82.9-14c-0.4,1.4,80.2,25.1,79.8,26.5c-0.4,1.4-80.7-23.3-81.2-21.9s77.5,32.6,76.9,34
				c-0.6,1.4-78.2-30.8-78.8-29.4c-0.6,1.3,74.2,39.6,73.5,40.9c-0.7,1.3-75.1-37.7-75.8-36.4c-0.7,1.3,70.4,46,69.6,47.3
				s-71.5-44.1-72.4-42.9c-0.8,1.2,66.2,51.8,65.3,53c-0.9,1.2-67.6-49.8-68.6-48.7s61.8,57,60.8,58.1s-63.5-55-64.5-54
				s57.2,61.6,56.2,62.6c-1.1,1-59.2-59.6-60.3-58.7c-1.1,1,52.6,65.6,51.4,66.6c-1.1,0.9-54.7-63.8-55.9-62.9
				c-1.2,0.9,47.8,69.2,46.6,70c-1.2,0.8-50.2-67.4-51.4-66.6s43,72.2,41.8,73s-45.6-70.6-46.9-69.8s38.2,74.9,36.9,75.6
				c-1.3,0.7-41-73.4-42.3-72.7c-1.3,0.7,33.4,77.2,32,77.8c-1.4,0.6-36.4-75.8-37.7-75.2c-1.4,0.6,28.6,79.1,27.2,79.6
				c-1.4,0.5-31.7-77.8-33.1-77.3c-1.4,0.5,23.8,80.6,22.4,81.1s-27-79.6-28.5-79.2s19.1,81.9,17.7,82.3s-22.4-81-23.9-80.7
				s14.4,82.9,12.9,83.1s-17.8-82.1-19.2-81.9s9.7,83.5,8.2,83.7c-1.5,0.2-13.2-83-14.6-82.8s5,83.9,3.6,84s-8.6-83.6-10.1-83.5
				s0.5,84.1-1,84.1s-4.1-83.9-5.5-83.9s-4.1,84-5.5,83.9c-1.5-0.1,0.4-84.1-1-84.1s-8.6,83.6-10.1,83.5s5-83.9,3.6-84
				c-1.4-0.1-13.2,83-14.6,82.8c-1.4-0.2,9.7-83.5,8.2-83.7c-1.4-0.2-17.8,82.2-19.2,81.9s14.4-82.8,12.9-83.1s-22.4,81-23.9,80.7
				s19-81.9,17.6-82.3c-1.4-0.4-27.1,79.6-28.5,79.2c-1.4-0.5,23.8-80.6,22.4-81.1c-1.4-0.5-31.7,77.9-33.1,77.3
				c-1.4-0.5,28.6-79,27.2-79.6c-1.4-0.6-36.4,75.8-37.7,75.2c-1.3-0.6,33.4-77.1,32.1-77.8c-1.3-0.6-41,73.4-42.3,72.7
				c-1.3-0.7,38.2-74.9,36.9-75.6s-45.7,70.6-46.9,69.8s43-72.2,41.8-73s-50.2,67.4-51.4,66.6s47.8-69.1,46.6-70
				c-1.2-0.9-54.8,63.8-55.9,62.9c-1.1-0.9,52.5-65.6,51.4-66.6c-1.1-1-59.2,59.7-60.3,58.7s57.2-61.6,56.2-62.6
				c-1-1.1-63.6,55-64.5,53.9s61.8-57,60.8-58.1s-67.7,49.9-68.6,48.7c-0.9-1.2,66.2-51.8,65.3-53s-71.6,44.1-72.4,42.9
				s70.3-46,69.6-47.3s-75.1,37.7-75.8,36.4s74.1-39.6,73.5-40.9c-0.6-1.3-78.2,30.8-78.8,29.4s77.4-32.6,76.9-34
				s-80.8,23.3-81.2,21.9s80.2-25.1,79.8-26.5s-82.6,15.5-82.9,14s82.2-17.2,82-18.6s-83.8,7.3-83.9,5.9
				c-0.1-1.5,83.5-9.1,83.4-10.5s-84-0.8-84-2.3s84-0.9,84.1-2.4c0.1-1.5-83.6-9.1-83.4-10.5c0.1-1.4,83.7,7.3,83.9,5.9
				s-82.3-17.2-82-18.7s82.6,15.4,82.9,14c0.4-1.4-80.2-25.1-79.8-26.5c0.4-1.4,80.7,23.3,81.2,21.9s-77.5-32.6-76.9-34
				c0.5-1.4,78.2,30.8,78.8,29.4c0.6-1.3-74.2-39.6-73.5-40.9c0.7-1.3,75.1,37.8,75.8,36.5s-70.4-46-69.6-47.3s71.5,44.1,72.4,42.9
				c0.8-1.2-66.2-51.8-65.3-53c0.9-1.2,67.7,49.8,68.6,48.7s-61.8-57-60.8-58.1s63.5,55,64.5,54s-57.2-61.6-56.2-62.6
				c1.1-1,59.2,59.7,60.3,58.7c1.1-1-52.6-65.6-51.4-66.6c1.1-0.9,54.7,63.8,55.9,62.9c1.2-0.9-47.8-69.2-46.6-70
				c1.2-0.8,50.2,67.4,51.4,66.6s-43-72.2-41.8-73s45.6,70.6,46.9,69.8s-38.2-74.9-36.9-75.6c1.3-0.7,41,73.3,42.3,72.7
				c1.3-0.7-33.4-77.2-32-77.8c1.4-0.6,36.3,75.8,37.7,75.2c1.4-0.6-28.6-79.1-27.2-79.6c1.4-0.5,31.7,77.8,33.1,77.3
				c1.4-0.5-23.8-80.6-22.4-81.1s27.1,79.6,28.5,79.2s-19.1-82-17.7-82.3s22.4,81,23.8,80.7s-14.4-82.8-12.9-83.1
				s17.8,82.1,19.2,81.9s-9.7-83.5-8.2-83.7c1.5-0.2,13.2,83,14.6,82.8s-5-83.9-3.6-84s8.6,83.6,10.1,83.5s-0.5-84.1,1-84.1
				s4.1,84,5.5,84s4.1-84,5.5-83.9c1.5,0.1-0.4,84.1,1,84.1s8.7-83.8,10.1-83.6s-5,83.9-3.6,84.1c1.4,0.2,13.2-83,14.6-82.8
				c1.4,0.2-9.7,83.5-8.2,83.7c1.4,0.2,17.8-82.2,19.2-81.9s-14.4,82.8-12.9,83.1c1.4,0.3,22.4-81,23.9-80.7s-19,81.9-17.6,82.3
				c1.4,0.4,27.1-79.6,28.5-79.2c1.4,0.4-23.8,80.6-22.4,81.1c1.4,0.5,31.7-77.9,33.1-77.3c1.4,0.5-28.6,79-27.2,79.6
				c1.4,0.6,36.4-75.8,37.7-75.2c1.3,0.6-33.4,77.1-32,77.8c1.3,0.7,41-73.4,42.3-72.7c1.3,0.7-38.2,74.9-36.9,75.6
				s45.7-70.6,46.9-69.8s-43,72.2-41.8,73s50.2-67.4,51.4-66.6s-47.8,69.1-46.6,70c1.2,0.9,54.8-63.8,55.9-62.8
				c1.1,0.9-52.5,65.6-51.4,66.6c1.1,1,59.2-59.7,60.3-58.7s-57.2,61.5-56.2,62.6c1,1.1,63.6-55,64.5-53.9s-61.8,56.9-60.8,58.1
				c0.9,1.1,67.7-49.9,68.6-48.7c0.9,1.2-66.2,51.8-65.3,53s71.6-44.1,72.4-42.9s-70.3,46-69.6,47.3s75.1-37.7,75.8-36.4
				s-74.1,39.6-73.5,40.9c0.6,1.3,78.2-30.8,78.8-29.4s-77.4,32.6-76.9,34s80.8-23.3,81.2-21.9s-80.2,25.1-79.8,26.5
				s82.7-15.5,82.9-14s-82.2,17.2-82,18.6s83.8-7.3,83.9-5.9c0.2,1.5-83.5,9.1-83.4,10.5S1889.7,160.5,1889.7,162z"/>
			<circle class="st5" cx="1668.6" cy="130.7" r="5.1"/>
			<circle class="st5" cx="1731.3" cy="134.4" r="5.1"/>
			<path class="st5" d="M1702.8,192.2l-11.3,3c0,0,0-0.1,0-0.1c-1.2-4.7,3-9.8,9.2-11.4s12.3,1,13.5,5.7c0.8,3.2-0.9,6.8-4.3,9.2
				L1702.8,192.2z"/>
			<g id="cloud1" class="st6">
				<ellipse class="st5" cx="156.5" cy="155.5" rx="88.5" ry="70"/>
				<ellipse class="st5" cx="245.5" cy="127" rx="66.5" ry="58.5"/>
				<ellipse class="st5" cx="217.5" cy="234.5" rx="85.5" ry="67"/>
				
					<ellipse transform="matrix(0.5713 -0.8208 0.8208 0.5713 -164.1774 200.6779)" class="st5" cx="110" cy="257.5" rx="55" ry="105"/>
			</g>
			<g id="cloud2">
				<ellipse class="st5" cx="724.5" cy="162.6" rx="96.5" ry="79.1"/>
				<ellipse class="st5" cx="808" cy="185.5" rx="83" ry="56"/>
				<ellipse class="st5" cx="695.5" cy="256" rx="96.5" ry="43.5"/>
				<ellipse class="st5" cx="889.5" cy="250" rx="121.5" ry="49.5"/>
				<ellipse class="st5" cx="844" cy="163" rx="67" ry="49.5"/>
			</g>
			<g id="cloud3" class="st7">
				<ellipse class="st5" cx="1259.5" cy="135.5" rx="108.5" ry="64"/>
				<ellipse class="st5" cx="1398.5" cy="185.5" rx="74.5" ry="60"/>
				<ellipse class="st5" cx="1284.5" cy="208.5" rx="73.5" ry="46"/>
			</g>
			<g id="DEVILCOWSBAD">
				<ellipse class="st8" cx="1229.2" cy="551.3" rx="9.3" ry="9.5"/>
				<g id="devilcow">
					<polygon class="st9" points="1163.7,317.1 1165.4,315.7 1164.9,313.6 1162.8,312.9 1161.2,314.3 1161.6,316.4 					"/>
					<polygon class="st10" points="1156.9,326.1 1159.1,324 1158.6,321 1155.9,320 1153.7,322.1 1154.1,325.2 					"/>
					<polygon class="st9" points="1113.9,303.9 1116.4,301.6 1115.7,298.4 1112.6,297.4 1110.2,299.6 1110.8,302.9 					"/>
					<polygon class="st10" points="1106.5,314.1 1109,311.9 1108.3,308.6 1105.2,307.6 1102.8,309.9 1103.4,313.1 					"/>
					<polygon class="st5" points="1214.6,290.7 1208.5,292 1200.5,251.8 1206.5,250.4 					"/>
					
						<rect x="1104.5" y="285.2" transform="matrix(0.3108 -0.9505 0.9505 0.3108 497.4496 1261.2303)" class="st5" width="27.8" height="4.7"/>
					
						<rect x="1092.5" y="288.9" transform="matrix(0.3108 -0.9505 0.9505 0.3108 488.5677 1258.1309)" class="st5" width="38.8" height="6.6"/>
					
						<rect x="1145" y="304.2" transform="matrix(0.3108 -0.9505 0.9505 0.3108 508.6165 1315.7146)" class="st5" width="33.2" height="5.8"/>
					
						<rect x="1155.3" y="302" transform="matrix(0.3108 -0.9505 0.9505 0.3108 515.8369 1318.8542)" class="st5" width="24.1" height="3.5"/>
					<polygon class="st11" points="1091.5,187.3 1092.6,189.4 1100.2,185 1099.1,182.9 					"/>
					<polygon class="st11" points="1137.5,200.4 1135.6,201.9 1131.1,196 1133,194.5 					"/>
					<polygon class="st11" points="1098.1,211.4 1108.9,207.3 1106.2,218.7 1119.8,201.5 1133.3,192.8 1130.9,186.3 1142,169.5 
						1126.8,182.7 1120.2,181 1113.3,195.6 					"/>
					<polygon class="st11" points="1124.7,226.1 1115.3,214.9 1107.9,227.8 1107.3,202 1098.9,184.6 1108,179.9 1110.2,156.1 
						1116.4,179 1126.1,181.7 1120.9,200.6 					"/>
					
						<rect x="1123.2" y="206.9" transform="matrix(0.3108 -0.9505 0.9505 0.3108 545.894 1270.3992)" class="st5" width="51.6" height="103.7"/>
					
						<rect x="1092.8" y="179.3" transform="matrix(0.3108 -0.9505 0.9505 0.3108 579.1356 1194.0424)" class="st5" width="40.3" height="36.7"/>
					
						<rect x="1090.6" y="204.9" transform="matrix(0.3108 -0.9505 0.9505 0.3108 544.6661 1206.9254)" class="st12" width="28.1" height="46"/>
					
						<ellipse transform="matrix(0.3108 -0.9505 0.9505 0.3108 549.7504 1217.1317)" class="st5" cx="1114.2" cy="229.5" rx="6.2" ry="2"/>
					
						<ellipse transform="matrix(0.3108 -0.9505 0.9505 0.3108 543.6058 1198.0482)" class="st5" cx="1098" cy="224.2" rx="6.2" ry="2.8"/>
					<ellipse transform="matrix(0.3108 -0.9505 0.9505 0.3108 584.4952 1183.9209)" cx="1108.7" cy="188.9" rx="4" ry="3"/>
					<ellipse transform="matrix(0.3108 -0.9505 0.9505 0.3108 588.2803 1199.8068)" cx="1121.5" cy="194.2" rx="5.1" ry="3.2"/>
					<polygon points="1113.3,187.2 1107.7,180.8 1108.5,180.2 1114,186.5 					"/>
					<polygon points="1126.8,186.7 1116.9,188.2 1116.7,187 1126.7,185.6 					"/>
					<polygon class="st11" points="1215.9,293.8 1208.6,295.4 1207.4,289.6 1214.7,288 					"/>
					<path class="st13" d="M1142.3,252.8c0,1.1-4.3-4.7-4.3-6.4c0,2.3-7.8,0.5-7.8,3c0-0.4,4.8-9.6,4.8-8c0-0.7-2.3-6.7-2.3-6
						c0-0.8,7.3,0.4,7.3-0.4c0,1.6,6.4-1.3,6.4-1.9c0,0-0.3,7.9-0.3,7.1c0,1.3,6.2,3.7,6.2,3.2c0,1.7-7.5,3.6-7.5,4.3
						C1144.9,247.1,1142.3,254.2,1142.3,252.8z"/>
					<path class="st13" d="M1158.7,285.8c0-2.7-4.4-6.9-4.4-7.7c0-1.1-6.9,2.2-6.9-0.2c0-0.2,3.8-3.3,3.8-6.4c0,2.3-2.6-3.5-2.6-4.9
						c0-0.8,6.7,1.4,6.7,2.6c0-0.1,5.3-5.5,5.3-5.9c0-0.8,0.4,7.2,0.4,6.2c0,2,5.9,5.8,5.9,6.7c0-0.4-6.5-0.5-6.5,1.9
						C1160.4,277,1158.7,282.4,1158.7,285.8z"/>
					<path class="st13" d="M1177.2,260.4c0.4,0,3.7-5.3,2.5-5.3c2.1,0-1.9-5.2-2.5-5.2c0.9,0,6,0.9,7,0.9c-1.3,0,4.7-4.3,4.5-4.3
						c-0.4,0,0.2,5.8-0.7,5.8c0.8,0,6.6,2.5,6.6,2.5c-1.5,0-6.6,2.7-6.6,2.7c2.1,0,1.2,5.9,0.4,5.9c-1.1,0-3.5-4.2-5.5-4.2
						C1183.1,259.3,1177.6,260.4,1177.2,260.4z"/>
				</g>
				<g id="devilcow-2">
					<polygon class="st9" points="1389.8,449.4 1389.8,447.2 1387.9,446.2 1386,447.4 1386,449.5 1387.9,450.5 					"/>
					<polygon class="st14" points="1392.2,460.6 1392.1,457.5 1389.4,455.8 1386.9,457.3 1387.1,460.4 1389.7,462 					"/>
					<polygon class="st9" points="1347,478.7 1346.9,475.4 1344,473.8 1341.2,475.5 1341.3,478.8 1344.2,480.4 					"/>
					<polygon class="st14" points="1350,491.1 1349.9,487.8 1347,486.1 1344.2,487.8 1344.3,491.2 1347.2,492.8 					"/>
					<polygon class="st5" points="1403,393.2 1400.1,398.7 1364,378.5 1367,373 					"/>
					
						<rect x="1335.2" y="450.5" transform="matrix(0.8552 -0.5183 0.5183 0.8552 -47.0855 760.5576)" class="st5" width="4.8" height="28"/>
					
						<rect x="1333.4" y="453" transform="matrix(0.8552 -0.5183 0.5183 0.8552 -51.3623 761.291)" class="st5" width="6.6" height="39.1"/>
					
						<rect x="1385.2" y="427.4" transform="matrix(0.8557 -0.5174 0.5174 0.8557 -29.5994 782.3555)" class="st5" width="5.9" height="33.6"/>
					
						<rect x="1380.2" y="425.6" transform="matrix(0.8552 -0.5183 0.5183 0.8552 -26.7714 779.6989)" class="st5" width="3.5" height="24.2"/>
					<polygon class="st11" points="1243.3,419.4 1245.6,419.9 1247.3,411.3 1245,410.8 					"/>
					<polygon class="st11" points="1283.5,392.9 1283.4,395.3 1276,394.9 1276.1,392.5 					"/>
					<polygon class="st11" points="1266,430.2 1270,419.2 1276.9,428.8 1272.8,407.1 1275,391.1 1268.4,388.7 1262.8,369.2 
						1263,389.4 1257.3,393.3 1263.9,408.2 					"/>
					<polygon class="st11" points="1294.7,419.5 1280,419.3 1285.1,433.4 1264.9,417 1246.1,411.9 1248.5,401.9 1231.7,384.6 
						1253.3,394.9 1261.8,389.3 1272.8,405.7 					"/>
					
						<rect x="1283.4" y="396.3" transform="matrix(0.8552 -0.5183 0.5183 0.8552 -25.4808 753.4147)" class="st5" width="104.4" height="52"/>
					
						<rect x="1246.8" y="389.5" transform="matrix(0.8552 -0.5183 0.5183 0.8552 -29.1492 715.1605)" class="st5" width="36.9" height="40.6"/>
					
						<rect x="1259.7" y="421.9" transform="matrix(0.8552 -0.5183 0.5183 0.8552 -40.2236 728.0709)" class="st12" width="46.3" height="28.3"/>
					
						<ellipse transform="matrix(0.8552 -0.5183 0.5183 0.8552 -35.9093 731.0495)" class="st5" cx="1290.3" cy="429.8" rx="2.1" ry="6.2"/>
					
						<ellipse transform="matrix(0.8552 -0.5183 0.5183 0.8552 -42.6615 724.7202)" class="st5" cx="1275.6" cy="438.7" rx="2.8" ry="6.2"/>
					<ellipse transform="matrix(0.8552 -0.5183 0.5183 0.8552 -29.3173 709.8767)" cx="1255.7" cy="407.4" rx="3" ry="4"/>
					<ellipse transform="matrix(0.8552 -0.5183 0.5183 0.8552 -24.2377 715.4371)" cx="1268.2" cy="401.1" rx="3.2" ry="5.1"/>
					<polygon points="1257.5,402.6 1249.1,402.7 1249,401.8 1257.5,401.7 					"/>
					<polygon points="1266,392 1260.6,400.6 1259.7,400 1265.1,391.4 					"/>
					<polygon class="st11" points="1406.2,394.3 1402.7,400.9 1397.5,398 1401.1,391.4 					"/>
					<path class="st13" d="M1327.8,423.4c0,0.7-7.8-1-7.8-1.5c0,1.8-5.1,6.8-5.1,8.8c0-0.6-1.6-8.1-1.6-8.2c0-0.7-7.2-2.5-7.2-2.4
						c0-0.3,6.8-4.6,6.8-5.4c0,0.3,0.6-6.3,0.6-8.7c2.1,1.9,4,4.1,5.8,6.3c0,1.4,7.7-3.1,7.7-0.7c0-1.1-3.2,6.2-3.2,6
						C1323.7,418.8,1327.8,423.2,1327.8,423.4z"/>
					<path class="st13" d="M1361.2,430.4c0,0.8-7,2.9-7,2.1c0,0.5-4,3.3-4,4.7c0-0.4-2.1-7.2-2.1-7.2c0-1.2-6.7-0.5-6.7-1.1
						c0-1.2,5.7-4.9,5.7-6.3c0,2.6-0.1-6.8-0.1-4.1c0-0.5,5.6,0.9,5.6,3.8c0-0.9,6.6-3.7,6.6-3.1c0-0.9-2.2,7.6-2.2,6.2
						C1357.1,426.3,1361.2,432.2,1361.2,430.4z"/>
					<path class="st13" d="M1356,401.1c-0.6,0-3-5.5-2.4-5.5c-2-0.3-4-0.8-6-1.3c-0.1,0,4.6-3.8,4-3.8c0,0-0.4-5.9,0.4-5.9
						c-0.7,0,6.1,3.2,5.2,3.2c-1.3,0,4.8-2.3,5.2-2.3c-1.3,0-2.8,5.8-2,5.8c0.8,0,3.8,4.5,4.4,4.5c0.6,0-5,0.4-5,0.4
						C1360.3,396,1355.5,401.1,1356,401.1z"/>
				</g>
				<g id="devilcow-3">
					<polygon class="st9" points="1693.9,386.4 1692.8,384.6 1693.9,382.8 1696,382.8 1697.1,384.6 1696,386.4 					"/>
					<polygon class="st15" points="1697.5,396.6 1696.1,394 1697.4,391.4 1700.1,391.3 1701.6,393.9 1700.2,396.6 					"/>
					<polygon class="st9" points="1743.3,389.1 1741.8,386.4 1743.3,383.6 1746.4,383.6 1748,386.4 1746.4,389.1 					"/>
					<polygon class="st15" points="1747,400.7 1745.4,397.9 1747,395.1 1750.1,395.1 1751.7,397.9 1750.1,400.7 					"/>
					<polygon class="st5" points="1655.4,347 1660.5,350.1 1679.9,315.7 1674.7,312.7 					"/>
					<rect x="1741.8" y="359.5" class="st5" width="4.5" height="26.7"/>
					<rect x="1745.5" y="360.3" class="st5" width="6.3" height="37.3"/>
					<rect x="1696" y="361.8" class="st5" width="5.6" height="31.9"/>
					<rect x="1692.9" y="361.4" class="st5" width="3.3" height="23.1"/>
					<polygon class="st11" points="1798.6,289.4 1796.9,291 1791.3,284.8 1793,283.2 					"/>
					<polygon class="st11" points="1752.7,287.7 1754,289.6 1759.8,285.5 1758.5,283.6 					"/>
					<polygon class="st11" points="1785.4,309.4 1776.7,302.4 1775.8,313.7 1768.5,294 1758.8,282 1762.9,276.8 1757.8,258.1 
						1767.7,274.6 1774.3,275.1 1776.2,290.5 					"/>
					<polygon class="st11" points="1756.7,314.9 1768.6,307.5 1771.5,321.5 1779.7,298.1 1792.6,284.7 1785.7,277.7 1790.9,255.3 
						1778.3,274.4 1768.6,274 1767.8,292.8 					"/>
					<rect x="1675" y="312.6" class="st5" width="99.6" height="49.6"/>
					<rect x="1758.3" y="273" class="st5" width="35.2" height="38.7"/>
					<rect x="1752.5" y="309" class="st12" width="44.2" height="27"/>
					<ellipse class="st5" cx="1765.4" cy="321.1" rx="2" ry="5.9"/>
					<ellipse class="st5" cx="1781.8" cy="321.1" rx="2.7" ry="5.9"/>
					<ellipse cx="1782.5" cy="285.7" rx="2.9" ry="3.8"/>
					<ellipse cx="1769.2" cy="286.8" rx="3.1" ry="4.9"/>
					<polygon points="1778.7,282.8 1785.7,278.7 1785.2,277.9 1778.3,282 					"/>
					<polygon points="1766.5,278.3 1775.2,282.7 1775.6,281.6 1767,277.3 					"/>
					<polygon class="st11" points="1653.3,349.5 1659.4,353.1 1662.2,348.2 1656,344.6 					"/>
					<path class="st13" d="M1732.2,335.5c0,1.6,5.9-3.5,5.9-4.5c0-0.5,7.1,1.9,7.1,1.8c0,0.9-2.5-6.1-2.5-5.9c0,0.1,4.3-7.9,4.3-8.6
						c0,2.8-7.4,1.8-7.4,1.9c0-1.4-4.4-6.1-4.4-7.8c0,0.6-2.1,9.4-2.1,9s-7.1,2.8-7.1,2.4c0,0,6.2,5,6.2,2.2
						C1732.1,327,1732.2,335.5,1732.2,335.5z"/>
					<path class="st13" d="M1708.4,358.6c0-1.7,5.6-6.3,5.6-3.7c0-0.3,6.1,1,6.1,0c0,2.5-1.7-3.8-1.7-3.2c0-2.1,4.3-8.2,4.3-7.2
						s-6.6,1.1-6.6-0.8c0-0.9-3.4-4.6-3.4-6.4c0-0.2-2.4,8-2.4,5.9c0,1.1-6.5,2.9-6.5,5.2c0-0.9,5.1,2.3,5.1,1.5
						C1708.9,350.2,1708.4,357.2,1708.4,358.6z"/>
					<path class="st13" d="M1697.9,330.3c-0.1,0-1.6-5.6-0.5-5.6c-1.7,0,2.3-3.9,4.1-3.9c-1.8,0-5.8-0.9-6.9-0.9
						c0.5,0-2-5.1-1.7-5.1c0,0-3,5.1-3.7,5.1c1.7,0-4.5,0.7-4.8,0.7c1.6,0,5.2,4,4.7,4c-0.2,0-1.7,5.6-1.4,5.6
						c1.2,0,4.6-2.6,4.4-2.6C1691.5,327.5,1698.4,330.3,1697.9,330.3z"/>
				</g>
				<g id="devilcow-4">
					<polygon class="st9" points="164.9,350.7 164.5,353.1 166.3,354.6 168.7,353.7 169.1,351.4 167.2,349.9 					"/>
					<polygon class="st16" points="164.5,338 164.1,341.5 166.6,343.8 169.6,342.7 170.1,339.3 167.6,337 					"/>
					<polygon class="st9" points="217.6,327.2 217,330.9 219.9,333.3 223.3,332 223.8,328.3 221,326 					"/>
					<polygon class="st16" points="216.8,313.1 216.2,316.8 219.1,319.2 222.5,317.9 223,314.2 220.2,311.9 					"/>
					<polygon class="st5" points="139.2,409.5 143.5,404.1 178.8,433.5 174.5,438.9 					"/>
					
						<rect x="222.4" y="329.1" transform="matrix(0.9348 -0.3553 0.3553 0.9348 -107.7684 102.4516)" class="st5" width="5.3" height="31.1"/>
					
						<rect x="223.9" y="314.4" transform="matrix(0.9348 -0.3553 0.3553 0.9348 -104.5498 102.7873)" class="st5" width="7.4" height="43.4"/>
					
						<rect x="170.5" y="339.4" transform="matrix(0.9348 -0.3553 0.3553 0.9348 -115.8538 85.0995)" class="st5" width="6.5" height="37.2"/>
					
						<rect x="169.2" y="351.6" transform="matrix(0.9348 -0.3553 0.3553 0.9348 -118.5284 84.6238)" class="st5" width="3.9" height="26.9"/>
					<polygon class="st11" points="319,413 316.6,412 313.1,421 315.5,422.1 					"/>
					<polygon class="st11" points="269.8,433.8 270.4,431.2 278.4,433.2 277.8,435.8 					"/>
					<polygon class="st11" points="296.4,396.6 289.8,407.8 284.2,395.9 284.4,420.5 278.7,437.5 285.4,441.5 287.6,464 
						291.5,441.8 298.5,438.7 294.2,421 					"/>
					<polygon class="st11" points="262.8,402.6 279,405.7 276.2,389.2 294.9,411.3 314.5,420.6 309.9,431 324.7,453.3 303.2,437.7 
						292.8,442.1 284.1,422 					"/>
					
						<rect x="160.8" y="362.4" transform="matrix(0.9348 -0.3553 0.3553 0.9348 -124.7289 103.2449)" class="st5" width="116" height="57.8"/>
					
						<rect x="272.6" y="396.6" transform="matrix(0.9348 -0.3553 0.3553 0.9348 -129.7728 131.4716)" class="st5" width="41" height="45.1"/>
					
						<rect x="253.4" y="371.1" transform="matrix(0.9348 -0.3553 0.3553 0.9348 -119.2166 124.4116)" class="st12" width="51.5" height="31.4"/>
					
						<ellipse transform="matrix(0.9348 -0.3553 0.3553 0.9348 -121.7474 121.401)" class="st5" cx="269.7" cy="392.2" rx="2.3" ry="6.9"/>
					
						<ellipse transform="matrix(0.9348 -0.3553 0.3553 0.9348 -118.169 127.3039)" class="st5" cx="287.6" cy="385.4" rx="3.1" ry="6.9"/>
					<ellipse transform="matrix(0.9348 -0.3553 0.3553 0.9348 -130.7416 135.2949)" cx="303" cy="423.6" rx="3.3" ry="4.5"/>
					<ellipse transform="matrix(0.9348 -0.3553 0.3553 0.9348 -133.2747 130.277)" cx="288.1" cy="428" rx="3.6" ry="5.6"/>
					<polygon points="300.1,428.4 309.4,430 309.3,431.1 300,429.5 					"/>
					<polygon points="288.7,438.3 296.3,430 297.3,430.9 289.6,439.2 					"/>
					<polygon class="st11" points="135.9,407.7 141.1,401.2 146.2,405.4 140.9,411.9 					"/>
					<path class="st13" d="M227.7,391.2c0-1.4,8.3,1.3,8.3,1.7c0-1,6.8-6.3,6.8-6.3c0-1.1,0.2,10.1,0.2,11.7c0-0.2,7.3,4.2,7.3,3.2
						c0,0.3-8.2,0.9-8.2,1c0,2.8-2.3,12.1-2.3,8.7c0,2.7-5.3-5.9-5.3-4.6c0-0.9-8.7,0-8.7,0.4c0-1,4.9-6.4,4.9-9.7
						C230.8,399.3,227.7,389.8,227.7,391.2z"/>
					<path class="st13" d="M192.5,377.6c0,0.7,7.6-1.9,7.6,0.2c0-2.1,5.6-4.7,5.6-7.2c0,1.5,0.9,9.4,0.9,7.7c0,2,6.9,5.8,6.9,5.9
						c0,2-7.1,2.9-7.1,3.8c0-1.4-1.3,8.4-1.3,6.6c0,2-5.3-4-5.3-6.6c0-1-7.7-0.1-7.7,0.8c0,3,3.8-7.7,3.8-3.3
						C196,381.4,192.5,377.5,192.5,377.6z"/>
					<path class="st13" d="M191.4,410.3c-0.5,0,0.9,6.5,1.5,6.5c1.8,0,7.2,2.6,7.6,2.6c-1.9,0-5.4,3.2-5.7,3.2
						c-0.5,0-1.1,6.6-2.5,6.6c1.9,0-3.2-4.5-5.2-4.5c2.5,0-4,1.5-4.5,1.5c-1.9,0,1.9-6,2.4-6c1.2,0-2.3-5.7-3.6-5.7
						c-0.1,0,7.1,0.8,6.7,0.8S191.6,410.3,191.4,410.3z"/>
				</g>
				<g id="devilcow-5">
					<polygon class="st9" points="532.8,37.8 534,39.9 532.8,41.9 530.4,41.9 529.1,39.9 530.4,37.8 					"/>
					<polygon class="st17" points="528.7,26 530.3,29 528.8,32 525.6,32.1 523.9,29.1 525.5,26 					"/>
					<polygon class="st9" points="475.9,34.6 477.7,37.8 475.9,41 472.3,41 470.5,37.8 472.3,34.6 					"/>
					<polygon class="st17" points="471.6,21.3 473.4,24.5 471.6,27.7 468,27.7 466.2,24.5 468,21.3 					"/>
					<polygon class="st5" points="577.2,83.1 571.3,79.6 549,119.2 554.9,122.7 					"/>
					<rect x="472.5" y="38" class="st5" width="5.2" height="30.8"/>
					<rect x="466.1" y="24.9" class="st5" width="7.3" height="42.9"/>
					<rect x="523.9" y="29.3" class="st5" width="6.5" height="36.8"/>
					<rect x="530.1" y="40" class="st5" width="3.8" height="26.6"/>
					<polygon class="st11" points="412.3,149.5 414.2,147.7 420.6,154.8 418.7,156.6 					"/>
					<polygon class="st11" points="465.1,151.4 463.6,149.2 456.9,153.9 458.4,156.1 					"/>
					<polygon class="st11" points="427.4,126.4 437.4,134.4 438.5,121.5 446.9,144.2 458.1,158 453.3,164 459.2,185.5 447.8,166.5 
						440.2,166 438,148.2 					"/>
					<polygon class="st11" points="460.5,120.1 446.7,128.7 443.5,112.5 433.9,139.4 419.1,154.9 427,162.9 421.2,188.7 
						435.6,166.8 446.7,167.2 447.7,145.6 					"/>
					<rect x="439.9" y="65.7" class="st5" width="114.7" height="57.1"/>
					<rect x="418.1" y="123.8" class="st5" width="40.5" height="44.6"/>
					<rect x="414.5" y="95.8" class="st12" width="50.8" height="31.1"/>
					<ellipse class="st5" cx="450.5" cy="112.9" rx="2.2" ry="6.8"/>
					<ellipse class="st5" cx="431.6" cy="112.9" rx="3.1" ry="6.8"/>
					<ellipse cx="430.8" cy="153.7" rx="3.3" ry="4.4"/>
					<ellipse cx="446.1" cy="152.5" rx="3.5" ry="5.6"/>
					<polygon points="435.1,157.1 427.1,161.8 427.6,162.8 435.6,158 					"/>
					<polygon points="449.2,162.2 439.2,157.2 438.7,158.4 448.6,163.4 					"/>
					<polygon class="st11" points="579.6,80.3 572.5,76.1 569.3,81.8 576.4,86 					"/>
					<path class="st13" d="M488.7,95.5c0-0.9-6.8,5.3-6.8,5.5c0,1.7-8.2-3.6-8.2-3.7c0,2.3,2.9,9,2.9,12c0-3.2-5,6.2-5,6.9
						c0-3.5,8.6-2.7,8.6-0.8c0-0.7,5.1,4.4,5.1,5.6c0-1.5,2.4-9.5,2.4-9.4c0,1.8,8.1-2.2,8.1-1.3c0,0.3-7.1-7-7.1-5.2
						C488.8,103.8,488.7,96.8,488.7,95.5z"/>
					<path class="st13" d="M516.1,72.8c0-2.2-6.5,0.8-6.5,1.1c0,1.4-7-2.3-7-2.3s1.9,6.1,1.9,9.6c0-1.8-5,3-5,3.3c0,2.2,7.6,2,7.6,1
						c0,1.4,4,5.2,4,5.1c0,2.3,2.8-4.9,2.8-6.8c0,0.9,7.5-1,7.5,0.1c0-2.3-5.9-4.3-5.9-6.1C515.5,78.8,516.1,71.1,516.1,72.8z"/>
					<path class="st13" d="M529.6,102.4c-1.2,0-0.8,6.5,0.3,6.5c-1.2,0-6.3,4.5-5,4.5c1.5,0,5.2,1,6.7,1c-1.1,0,3.1,5.9,2.8,5.9
						c-1.1,0,1.3-5.8,2.3-5.8s8-0.9,6-0.9c0.1,0-3.2-4.6-3.8-4.6s2.2-6.4,0.8-6.4c1.6,0-4.5,3-4.6,3S528.2,102.4,529.6,102.4z"/>
				</g>
				<g id="devilcow-6">
					<polygon class="st9" points="459.1,351.9 459.5,349.8 461.6,349.2 463.2,350.7 462.8,352.7 460.7,353.3 					"/>
					<polygon class="st18" points="454.7,362.1 455.4,359.2 458.3,358.1 460.4,360 459.7,363 456.8,364 					"/>
					<polygon class="st9" points="494.6,388.3 495.3,385.1 498.4,384.1 500.8,386.3 500.1,389.5 496.9,390.5 					"/>
					<polygon class="st18" points="489.3,399.6 490.1,396.5 493.2,395.4 495.6,397.6 494.8,400.8 491.7,401.8 					"/>
					<polygon class="st5" points="457.3,295.3 459.1,301.2 497.6,288.7 495.8,282.8 					"/>
					
						<rect x="492.7" y="374.2" transform="matrix(0.6767 -0.7362 0.7362 0.6767 -113.4918 494.5399)" class="st5" width="27.5" height="4.6"/>
					
						<rect x="486.5" y="381.1" transform="matrix(0.6767 -0.7362 0.7362 0.6767 -119.5235 496.5223)" class="st5" width="38.3" height="6.5"/>
					
						<rect x="452.4" y="345.9" transform="matrix(0.6767 -0.7362 0.7362 0.6767 -105.2645 457.8616)" class="st5" width="32.8" height="5.8"/>
					
						<rect x="457" y="340.5" transform="matrix(0.6767 -0.7362 0.7362 0.6767 -100.3421 455.8259)" class="st5" width="23.7" height="3.4"/>
					<polygon class="st11" points="605.7,351.3 603.4,351.4 603.5,342.8 605.8,342.7 					"/>
					<polygon class="st11" points="572.2,318.1 571.8,320.5 579.1,321.5 579.5,319.1 					"/>
					<polygon class="st11" points="581.8,357.3 580.1,346 571.6,353.9 579.8,333.9 580.8,318 587.5,317 596.7,299.3 592.6,318.7 
						597.3,323.6 588.1,336.6 					"/>
					<polygon class="st11" points="556.3,341.5 570.5,344.2 562.9,356.8 585.4,344.8 604.5,343.6 604.2,333.5 623.6,320.2 
						600.9,325.9 593.8,318.9 580.1,332.5 					"/>
					
						<rect x="491" y="285.1" transform="matrix(0.6767 -0.7362 0.7362 0.6767 -80.6342 488.9426)" class="st5" width="51" height="102.3"/>
					
						<rect x="566.6" y="319.7" transform="matrix(0.6767 -0.7362 0.7362 0.6767 -59.1304 540.9575)" class="st5" width="39.8" height="36.2"/>
					
						<rect x="550.7" y="337" transform="matrix(0.6767 -0.7362 0.7362 0.6767 -82.3072 531.8829)" class="st12" width="27.7" height="45.4"/>
					
						<ellipse transform="matrix(0.6767 -0.7362 0.7362 0.6767 -78.7426 525.0522)" class="st5" cx="558.5" cy="352.2" rx="6.1" ry="2"/>
					
						<ellipse transform="matrix(0.6767 -0.7362 0.7362 0.6767 -83.1331 537.8642)" class="st5" cx="570.9" cy="363.6" rx="6.1" ry="2.8"/>
					<ellipse transform="matrix(0.6767 -0.7362 0.7362 0.6767 -55.6705 547.9197)" cx="596.1" cy="337.4" rx="3.9" ry="2.9"/>
					<ellipse transform="matrix(0.6767 -0.7362 0.7362 0.6767 -52.9205 537.2325)" cx="585.3" cy="328.9" rx="5" ry="3.2"/>
					<polygon points="595.3,332.5 603.4,334.2 603.6,333.3 595.5,331.6 					"/>
					<polygon points="589.2,320.7 592.7,330 593.8,329.5 590.2,320.2 					"/>
					<polygon class="st11" points="454,295.7 456.2,302.8 461.7,301 459.5,293.9 					"/>
					<path class="st13" d="M523.5,339.2c0,2.1,7.7-0.2,7.7,3c0-3.2,3.8,3.4,3.8,4.4c0,0.5,3.1-7,3.1-5.6c0-0.1,7.6-3.3,7.6-1.1
						c0-1.3-5.8-6.5-5.8-6.4c0-1,0.9-7.3,0.9-7.9c0-0.8-6.7,2.6-6.7,5.4c0-2.4-7-4.4-7-3.8c0.9,2.7,1.4,5.5,1.7,8.4
						C528.8,334.7,523.5,339.3,523.5,339.2z"/>
					<path class="st13" d="M490,339.9c0-0.6,6.8,0.1,6.8,2.1c0-1.3,2.8,6,2.8,7.4c0-2,3.3-9.1,3.3-6.7c0-0.4,6.9-1.8,6.9-1
						c0-2-4.7-6.8-4.7-7.8c0,0.7,1.5-3.3,1.5-3.9c0-3-6.2,3-6.2,2.2c0,1.3-6-3.5-6-5.5c0,1.3,0.9,9.9,0.9,8.1
						C495.2,335.2,490,340.5,490,339.9z"/>
					<path class="st13" d="M501.4,312c-1.1,0,3.4-4.9,2.9-4.9c-1.2,0,5.3-0.2,5.2-0.2s-2.6-4.5-3.7-4.5c-0.5,0,3.6-5.6,1.5-5.6
						c2,0-4.2,2.1-5,2.1c1.5,0-3.4-3.3-3.7-3.3c-1.2,0,0.6,5.8-1.4,5.8c1.1,0-4.1,3.5-3.6,3.5c0,0,4.5,1.5,6.1,1.5
						C500,306.6,502.1,312,501.4,312z"/>
				</g>
				<g id="devilcow-7">
					<polygon class="st9" points="1642.1,476.2 1642.1,474.1 1640.3,473.1 1638.4,474.2 1638.4,476.4 1640.3,477.3 					"/>
					<polygon class="st18" points="1644.5,487.2 1644.3,484.1 1641.7,482.5 1639.3,483.9 1639.4,487 1642,488.6 					"/>
					<polygon class="st9" points="1600.2,505 1600.1,501.7 1597.2,500.1 1594.5,501.8 1594.6,505 1597.4,506.6 					"/>
					<polygon class="st18" points="1603.1,517.1 1603,513.8 1600.1,512.2 1597.4,513.9 1597.5,517.2 1600.4,518.8 					"/>
					<polygon class="st5" points="1655.1,421.1 1652.2,426.5 1616.9,406.7 1619.7,401.3 					"/>
					
						<rect x="1588.6" y="477.3" transform="matrix(0.8552 -0.5183 0.5183 0.8552 -24.1456 895.7088)" class="st5" width="4.7" height="27.5"/>
					
						<rect x="1586.8" y="479.8" transform="matrix(0.8552 -0.5183 0.5183 0.8552 -28.3395 896.4301)" class="st5" width="6.5" height="38.3"/>
					
						<rect x="1630.4" y="454.9" transform="matrix(0.8552 -0.5183 0.5183 0.8552 -7.7882 914.8183)" class="st5" width="5.8" height="32.8"/>
					
						<rect x="1632.7" y="452.9" transform="matrix(0.8552 -0.5183 0.5183 0.8552 -4.2278 914.4768)" class="st5" width="3.4" height="23.7"/>
					<polygon class="st11" points="1498.5,446.8 1500.8,447.3 1502.4,438.8 1500.1,438.3 					"/>
					<polygon class="st11" points="1537.9,420.9 1537.8,423.2 1530.5,422.7 1530.6,420.4 					"/>
					<polygon class="st11" points="1520.8,457.4 1524.7,446.6 1531.5,456 1527.4,434.8 1529.5,419.1 1523.1,416.7 1517.7,397.6 
						1517.8,417.4 1512.2,421.2 1518.7,435.8 					"/>
					<polygon class="st11" points="1548.9,446.9 1534.4,446.7 1539.4,460.6 1519.7,444.4 1501.3,439.5 1503.6,429.6 1487.2,412.7 
						1508.3,422.8 1516.6,417.3 1527.4,433.3 					"/>
					
						<rect x="1537.8" y="424.2" transform="matrix(0.8552 -0.5183 0.5183 0.8552 -2.9661 888.7109)" class="st5" width="102.3" height="51"/>
					
						<rect x="1502" y="417.5" transform="matrix(0.8552 -0.5183 0.5183 0.8552 -6.56 851.2149)" class="st5" width="36.2" height="39.8"/>
					
						<rect x="1514.6" y="449.2" transform="matrix(0.8552 -0.5183 0.5183 0.8552 -17.4125 863.8626)" class="st12" width="45.4" height="27.7"/>
					
						<ellipse transform="matrix(0.8552 -0.5183 0.5183 0.8552 -13.1877 866.7871)" class="st5" cx="1544.6" cy="457" rx="2" ry="6.1"/>
					
						<ellipse transform="matrix(0.8552 -0.5183 0.5183 0.8552 -19.8068 860.5827)" class="st5" cx="1530.2" cy="465.7" rx="2.8" ry="6.1"/>
					<ellipse transform="matrix(0.8552 -0.5183 0.5183 0.8552 -6.722 846.0294)" cx="1510.7" cy="435" rx="2.9" ry="3.9"/>
					<ellipse transform="matrix(0.8552 -0.5183 0.5183 0.8552 -1.7435 851.4796)" cx="1522.9" cy="428.9" rx="3.2" ry="5"/>
					<polygon points="1512.4,430.4 1504.1,430.5 1504.1,429.5 1512.4,429.4 					"/>
					<polygon points="1520.8,420 1515.5,428.4 1514.5,427.8 1519.8,419.4 					"/>
					<polygon class="st11" points="1658.2,422.2 1654.7,428.7 1649.7,425.8 1653.2,419.3 					"/>
					<path class="st13" d="M1581.3,453.1c0-0.1-7.7-2.3-7.7-1.2c0-0.3-5,3.7-5,6c0-0.3-1.6-8.8-1.6-9.6c0,2-7.1-1-7.1-2.5
						c0,1.2,6.7-5.2,6.7-5.2c0,0.2,0.6-7.9,0.6-6c0,0.3,5.7,4.6,5.7,4c0,1.6,7.5,0.9,7.5,0.5c0-2.9-3.2,7-3.2,6.8
						C1577.3,444.2,1581.3,452.8,1581.3,453.1z"/>
					<path class="st13" d="M1614.1,459.5c0,0.8-6.9-2.5-6.9-0.1c0-2.8-4,5.4-4,5.6c0-0.4-2-5.8-2-6.2c0-1.3-6.6-4-6.6-4.3
						c0,0.8,5.6-2.6,5.6-4c0,0.5-0.1-5.7-0.1-7.5c0,1.1,5.5,4.1,5.5,6.6c0-1.2,6.5-3.7,6.5-3.4c0,0.1-2.2,5.4-2.2,7.9
						C1610,452.6,1614.1,458.5,1614.1,459.5z"/>
					<path class="st13" d="M1607.8,428.9c0.8,0-2.3-5.4-0.9-5.4c0.3,0-6.1-1.3-6.4-1.3c-0.5,0,4-3.7,4-3.7c1.8,0,0.1-5.8,0.1-5.8
						c0.3,0,5.4,3.1,5.4,3.1c-0.4,0,4.3-2.3,5.9-2.3c0.3,0-1.6,5.6-2.6,5.6c1.6,0,4.9,4.4,4.3,4.4c1.1,0-6.3,0.4-6.9,0.4
						C1612.7,423.9,1610.3,428.9,1607.8,428.9z"/>
				</g>
				<g id="devilcow-8">
					<polygon class="st9" points="1550.9,194.4 1552.1,196.4 1550.9,198.4 1548.5,198.4 1547.3,196.4 1548.5,194.4 					"/>
					<polygon class="st19" points="1546.9,182.9 1548.5,185.8 1547,188.8 1543.9,188.9 1542.3,185.9 1543.8,182.9 					"/>
					<polygon class="st9" points="1495.4,191.3 1497.1,194.4 1495.4,197.6 1491.8,197.6 1490.1,194.4 1491.8,191.3 					"/>
					<polygon class="st19" points="1491.2,178.3 1493,181.5 1491.2,184.6 1487.7,184.6 1486,181.5 1487.7,178.3 					"/>
					<polygon class="st5" points="1594.2,238.6 1588.5,235.2 1566.7,273.8 1572.5,277.2 					"/>
					<rect x="1492" y="194.6" class="st5" width="5.1" height="30"/>
					<rect x="1485.8" y="181.8" class="st5" width="7.1" height="41.9"/>
					<rect x="1542.2" y="186.1" class="st5" width="6.3" height="35.9"/>
					<rect x="1548.3" y="196.5" class="st5" width="3.7" height="26"/>
					<polygon class="st11" points="1433.3,303.4 1435.1,301.6 1441.4,308.6 1439.6,310.4 					"/>
					<polygon class="st11" points="1484.8,305.3 1483.4,303.2 1476.8,307.8 1478.2,309.9 					"/>
					<polygon class="st11" points="1448.1,280.9 1457.8,288.8 1458.9,276.1 1467.1,298.3 1478,311.7 1473.3,317.6 1479.1,338.6 
						1468,320 1460.6,319.5 1458.4,302.2 					"/>
					<polygon class="st11" points="1480.4,274.8 1466.9,283.1 1463.7,267.3 1454.4,293.6 1440,308.7 1447.7,316.6 1441.9,341.7 
						1456,320.3 1466.9,320.7 1467.9,299.6 					"/>
					<rect x="1460.3" y="221.6" class="st5" width="111.9" height="55.8"/>
					<rect x="1439" y="278.3" class="st5" width="39.6" height="43.5"/>
					<rect x="1435.4" y="251" class="st12" width="49.6" height="30.3"/>
					<ellipse class="st5" cx="1470.6" cy="267.8" rx="2.2" ry="6.7"/>
					<ellipse class="st5" cx="1452.2" cy="267.8" rx="3" ry="6.7"/>
					<ellipse cx="1451.3" cy="307.5" rx="3.2" ry="4.3"/>
					<ellipse cx="1466.3" cy="306.4" rx="3.5" ry="5.5"/>
					<polygon points="1455.6,310.9 1447.8,315.5 1448.3,316.4 1456.1,311.8 					"/>
					<polygon points="1469.3,315.8 1459.6,311 1459,312.1 1468.8,317 					"/>
					<polygon class="st11" points="1596.6,235.9 1589.6,231.8 1586.5,237.3 1593.5,241.4 					"/>
					<path class="st13" d="M1507.9,251.4c0,1.9-6.6,6.7-6.6,5.5c0-1.8-8-3.1-8-2.4c0,0.2,2.9,9.7,2.9,6.3c0,2.8-4.9,7.8-4.9,7.1
						c0,3,8.4,0.8,8.4-0.4c0,1.1,5,6.8,5,9c0-1.3,2.3-7.4,2.3-8.6c0-1.5,7.9-2.9,7.9-3.1c0-0.5-6.9-4.5-6.9-3.7
						C1508,259,1507.9,251,1507.9,251.4z"/>
					<path class="st13" d="M1534.7,227.4c0,1.1-6.3,1.4-6.3,3.3c0-1.7-6.9-3.9-6.9-1.3c0-0.5,1.9,6.4,1.9,4.3c0,0.6-4.9,7.5-4.9,6.7
						c0,2.3,7.5,1,7.5,2.2c0-2.4,3.9,4.1,3.9,5.1c0,1.7,2.7-6.1,2.7-5.2c0-2,7.3-2.9,7.3-2.5c0-1.5-5.8-6.2-5.8-6.4
						C1534,235.3,1534.7,226.8,1534.7,227.4z"/>
					<path class="st13" d="M1546.7,257.5c1.2,0,0.8,6.3-0.1,6.3c0.5,0-2.7,4.4-3,4.4c2.1,0.2,4.2,0.5,6.3,1c-1.6,0,1.5,5.8,1.5,5.8
						c1.2,0,4-5.7,3.2-5.7c2.1-0.2,4.2-0.4,6.2-0.8c0.6,0-4.4-4.5-3.4-4.5c-0.4,0-0.8-6.3,0.6-6.3c0.5,0-6.8,2.9-5.4,2.9
						C1552.1,260.5,1547.7,257.5,1546.7,257.5z"/>
				</g>
				<g id="devilcow-9">
					<polygon class="st9" points="934.5,141.1 934,138.9 935.7,137.4 937.9,138.1 938.4,140.3 936.7,141.8 					"/>
					<polygon class="st20" points="934.7,152.9 934.1,149.8 936.4,147.5 939.3,148.4 939.9,151.5 937.6,153.8 					"/>
					<polygon class="st9" points="984.7,160.7 984.1,157.3 986.6,154.9 989.9,156 990.5,159.4 988,161.7 					"/>
					<polygon class="st20" points="984.6,173.9 984,170.5 986.5,168.1 989.8,169.2 990.4,172.6 987.9,174.9 					"/>
					<polygon class="st5" points="907.9,87.3 912.2,92.2 943.9,63.2 939.6,58.3 					"/>
					
						<rect x="976.5" y="141.5" transform="matrix(0.3108 -0.9505 0.9505 0.3108 546.1267 1041.1492)" class="st5" width="29.1" height="4.9"/>
					
						<rect x="973.4" y="148.5" transform="matrix(0.3108 -0.9505 0.9505 0.3108 540.4728 1049.2125)" class="st5" width="40.6" height="6.9"/>
					
						<rect x="925.1" y="130.7" transform="matrix(0.3108 -0.9505 0.9505 0.3108 522.3736 988.0338)" class="st5" width="34.8" height="6.1"/>
					
						<rect x="927.2" y="125.5" transform="matrix(0.3108 -0.9505 0.9505 0.3108 526.5963 980.9522)" class="st5" width="25.2" height="3.6"/>
					<polygon class="st11" points="1075.7,76.1 1073.5,77.2 1069.8,68.9 1072,67.8 					"/>
					<polygon class="st11" points="1028.8,58.8 1029.5,61.2 1036.9,59 1036.2,56.6 					"/>
					<polygon class="st11" points="1055.3,92.4 1048.7,82.2 1043.9,93.6 1043,70.7 1037,55 1043.1,51 1044.1,29.9 1048.8,50.4 
						1055.4,53 1052.2,69.7 					"/>
					<polygon class="st11" points="1023.7,88.3 1038.6,84.7 1036.8,100.2 1053.3,78.8 1071.1,69.2 1066.4,59.7 1079.3,38.2 
						1059.9,53.7 1049.9,50 1042.7,69.2 					"/>
					
						<rect x="956" y="46.5" transform="matrix(0.3108 -0.9505 0.9505 0.3108 581.7219 1003.7882)" class="st5" width="54" height="108.5"/>
					
						<rect x="1030.2" y="52.3" transform="matrix(0.3108 -0.9505 0.9505 0.3108 656.5717 1048.4028)" class="st5" width="42.2" height="38.3"/>
					
						<rect x="1025" y="78.3" transform="matrix(0.3108 -0.9505 0.9505 0.3108 619.2877 1058.7513)" class="st12" width="29.4" height="48.1"/>
					
						<ellipse transform="matrix(0.3108 -0.9505 0.9505 0.3108 617.3746 1046.986)" class="st5" cx="1030.7" cy="97.8" rx="6.5" ry="2.1"/>
					
						<ellipse transform="matrix(0.3108 -0.9505 0.9505 0.3108 623.8002 1066.9406)" class="st5" cx="1047.6" cy="103.3" rx="6.5" ry="2.9"/>
					<ellipse transform="matrix(0.3108 -0.9505 0.9505 0.3108 667.1835 1054.0007)" cx="1060.4" cy="66.9" rx="4.2" ry="3.1"/>
					<ellipse transform="matrix(0.3108 -0.9505 0.9505 0.3108 660.6954 1038.1929)" cx="1046.3" cy="63.5" rx="5.3" ry="3.4"/>
					<polygon points="1057.4,62.5 1066,60.6 1065.8,59.7 1057.2,61.6 					"/>
					<polygon points="1046.3,53.8 1053.8,61.2 1054.6,60.3 1047.1,52.9 					"/>
					<polygon class="st11" points="904.9,89.1 910.1,95 914.6,90.9 909.4,85 					"/>
					<path class="st13" d="M991.4,102.4c0-3,7.7-3.6,7.7-2.9c0,0,6.6,5.4,6.6,5.4c0-0.4-0.2-10.8-0.2-8.8c0-2.8,6.6-5.9,6.6-5.3
						c0-1.9-7.8-2.1-7.8-1.8c0-1.5-2.5-10.3-2.5-8.8c0-1.5-4.6,5.4-4.6,7.2c0,1-8.1,0-8.1,0.9c0-2.2,4.9,6.1,4.9,5.6
						C993.9,93.9,991.4,100.9,991.4,102.4z"/>
					<path class="st13" d="M959.2,117.3c0-1.1,7-4.1,7-2c0,0.1,5.4,5,5.4,2.9c0-0.7,0.5-5.7,0.5-5.5c0-1.1,6.2-5.4,6.2-6.5
						c0,0.3-6.7-2.2-6.7-0.3c0,1.4-1.6-6.4-1.6-9.7c0,3.2-4.7,6.6-4.7,7c0,0.7-7.2-1.9-7.2,0.2c0,1.8,3.9,5.7,3.9,7.6
						C962.1,110.3,959.2,116.6,959.2,117.3z"/>
					<path class="st13" d="M957.4,84.3c1.1,0,1.9-6.1,2-6.1c-1.5,0,5.5-2.7,3.3-2.7c0.8,0-3.1-2.8-3.2-2.8c-0.8,0-1-6.1-1.7-6.1
						s-3.8,4.4-5.3,4.4c-0.5,0-6.3-1.1-4.8-1.1c-0.7,0,2.2,5.5,2.2,5.5c-0.4,0-1.5,5.4-2.5,5.4c-0.3,0,5.3-1,4.3-1
						C952.4,79.8,956,84.3,957.4,84.3z"/>
				</g>
				<g id="devilcow-10">
					<polygon class="st9" points="885.5,293 887.1,294.4 886.6,296.5 884.5,297.2 882.9,295.8 883.4,293.7 					"/>
					<polygon class="st14" points="878.5,283.9 880.8,286 880.3,289.1 877.6,290 875.3,287.9 875.8,284.8 					"/>
					<polygon class="st9" points="835.3,306.2 837.7,308.5 837.1,311.8 834,312.8 831.5,310.5 832.2,307.2 					"/>
					<polygon class="st14" points="827.9,295.9 830.3,298.1 829.7,301.4 826.6,302.4 824.1,300.2 824.8,296.9 					"/>
					<polygon class="st5" points="936.6,319.7 930.5,318.3 922.3,358.9 928.4,360.2 					"/>
					
						<rect x="837.5" y="308.7" transform="matrix(0.9511 -0.3089 0.3089 0.9511 -58.6026 275.1703)" class="st5" width="4.8" height="28"/>
					
						<rect x="829.9" y="298.6" transform="matrix(0.9511 -0.3089 0.3089 0.9511 -57.5076 272.9)" class="st5" width="6.6" height="39.1"/>
					
						<rect x="880.4" y="286.4" transform="matrix(0.9511 -0.3089 0.3089 0.9511 -50.432 287.6388)" class="st5" width="5.9" height="33.5"/>
					
						<rect x="887.4" y="294.5" transform="matrix(0.9511 -0.3089 0.3089 0.9511 -51.2162 289.6047)" class="st5" width="3.5" height="24.2"/>
					<polygon class="st11" points="812.5,423.5 813.6,421.4 821.2,425.8 820.1,427.9 					"/>
					<polygon class="st11" points="858.8,410.4 856.9,408.9 852.4,414.8 854.3,416.3 					"/>
					<polygon class="st11" points="819.1,399.3 830.1,403.4 827.3,391.9 841,409.2 854.6,418 852.1,424.6 863.3,441.5 848,428.2 
						841.4,430 834.4,415.2 					"/>
					<polygon class="st11" points="846,384.5 836.5,395.8 829.1,382.7 828.4,408.7 820,426.3 829.1,431 831.2,455 837.5,431.9 
						847.3,429.2 842.1,410.2 					"/>
					
						<rect x="818.4" y="325.8" transform="matrix(0.9511 -0.3089 0.3089 0.9511 -66.086 286.0671)" class="st5" width="104.4" height="52"/>
					
						<rect x="815.7" y="392.9" transform="matrix(0.9511 -0.3089 0.3089 0.9511 -86.8406 277.8268)" class="st5" width="36.9" height="40.6"/>
					
						<rect x="802.5" y="368.6" transform="matrix(0.9511 -0.3089 0.3089 0.9511 -77.8442 273.7211)" class="st12" width="46.3" height="28.3"/>
					
						<ellipse transform="matrix(0.9511 -0.3089 0.3089 0.9511 -76.882 276.6242)" class="st5" cx="835.3" cy="381.2" rx="2" ry="6.2"/>
					
						<ellipse transform="matrix(0.9511 -0.3089 0.3089 0.9511 -79.3173 271.8352)" class="st5" cx="819" cy="386.5" rx="2.8" ry="6.2"/>
					<ellipse transform="matrix(0.9511 -0.3089 0.3089 0.9511 -89.7638 276.8787)" cx="829.7" cy="422" rx="3" ry="4"/>
					<ellipse transform="matrix(0.9511 -0.3089 0.3089 0.9511 -87.4848 280.611)" cx="842.6" cy="416.6" rx="3.2" ry="5.1"/>
					<polygon points="834.4,423.7 828.8,430 829.5,430.7 835.1,424.4 					"/>
					<polygon points="848,424.2 838,422.7 837.9,423.8 847.9,425.3 					"/>
					<polygon class="st11" points="937.9,316.6 930.6,315 929.4,320.7 936.7,322.4 					"/>
					<path class="st13" d="M863.8,356.7c0,1.3-4.3,7-4.3,7.7c0-1.2-7.8-2.6-7.8-2.6c0-0.7,4.9,7.7,4.9,6.4c0,0.5-2.3,7.8-2.3,8.8
						c0,1.2,7.3-4.1,7.3-3.2c0,1.6,6.4,3.9,6.4,4.2c0,2.6-0.3-5.5-0.3-6.4c0-1.3,6.3-4.2,6.3-6.7c0,1.8-7.5-0.1-7.5,0
						C866.3,362.5,863.8,356.5,863.8,356.7z"/>
					<path class="st13" d="M880.3,326.4c0,1.5-4.4,4.5-4.4,6.5c0-2.9-7-2.3-7-0.6c0-1.6,3.8,6.7,3.8,5.7c0-2.2-2.7,5.4-2.7,6.1
						c0-1,6.8-3.6,6.8-3.1c0,2.7,5.3,7.1,5.3,7.2c0-1.6,0.4-6.6,0.4-8.8c0,0.6,6-3.4,6-3.5c0,1.1-6.5-2.3-6.5-2.4
						C882,335.2,880.3,326.2,880.3,326.4z"/>
					<path class="st13" d="M901.1,350.1c-0.3,0,1.5,5.3,1.3,5.3s-3.2,5.2-2,5.2c0.5,0,5.5-0.9,5.5-0.9c-1.3,0,3.7,4.4,2.7,4.4
						c2.2,0,1.5-5.9,1.5-5.9c-0.8,0,5.6-2.5,6.1-2.5s-5.2-2.8-6.6-2.8c1.2,0,1.2-5.9,0.1-5.9c0.5,0-3.3,4.2-4.1,4.2
						C905.5,351.2,898.9,350.1,901.1,350.1z"/>
				</g>
			</g>
			<g id="sad">
				
					<ellipse transform="matrix(0.1361 -0.9907 0.9907 0.1361 243.0799 1753.848)" class="st8" cx="1127.1" cy="737.6" rx="40.9" ry="9.5"/>
				
					<ellipse transform="matrix(7.950298e-02 -0.9968 0.9968 7.950298e-02 262.1956 1830.5978)" class="st8" cx="1122.3" cy="773.3" rx="19.9" ry="5"/>
				<path class="st21" d="M1182.2,822.4l-18.8,121.7c-20.8-19-34.6-67.7-34.6-121.7c0-71.3,24.1-130,53.5-130s53.5,58.7,53.5,130
					c0,52-12.8,99.2-32.5,119.6L1182.2,822.4z"/>
				<path d="M1276.6,611.6c-4.2,8-27.8-13.6-35.4-8.8s7.6,28.7-0.1,33.6s-22.8-19-30.5-14.2s1.8,35.5-7.2,35.8s-1.6-30.9-9.6-35.2
					s-21.5,20.5-29.4,16.2s5.6-29.2-2.3-33.5s-30,18.8-34.7,11.1s25.9-17,25.6-26.2s-28.6-8.3-28.9-17.5s28-10.1,27.7-19.3
					s-31.5-16.3-27.3-24.5s27.8,13.6,35.4,8.8s-7.6-28.7,0.1-33.6s22.8,19,30.5,14.2s-1.8-35.5,7.2-35.8s1.6,30.9,9.6,35.2
					s21.5-20.5,29.4-16.2s-5.6,29.2,2.3,33.5s30-18.8,34.7-11.1s-25.9,17-25.6,26.2s28.6,8.3,28.9,17.5s-30.3,17.1-26.2,25.3
					C1257.6,606.3,1280.8,603.5,1276.6,611.6z"/>
				<path d="M1238.5,611.5c-4.2,8-27.8-13.6-35.4-8.8s7.6,28.7-0.1,33.6s-22.8-19-30.5-14.2s1.8,35.5-7.2,35.8s-1.6-30.9-9.6-35.2
					s-21.5,20.5-29.4,16.2s5.6-29.2-2.3-33.5s-30,18.8-34.7,11.1s25.9-17,25.6-26.2s-28.6-8.3-28.9-17.5s28-10.1,27.7-19.3
					s-31.5-16.3-27.3-24.5s27.8,13.6,35.4,8.8s-7.6-28.7,0.1-33.6s22.8,19,30.5,14.2s-1.8-35.5,7.2-35.8s1.6,30.9,9.6,35.2
					s21.5-20.5,29.4-16.2s-5.6,29.2,2.3,33.5s30-18.8,34.7-11.1s-25.9,17-25.6,26.2s28.6,8.3,28.9,17.5s-30.3,17.1-26.2,25.3
					C1219.5,606.2,1242.8,603.4,1238.5,611.5z"/>
				
					<ellipse transform="matrix(0.9907 -0.1361 0.1361 0.9907 -87.9343 174.9451)" class="st8" cx="1235.8" cy="730.8" rx="10.1" ry="41"/>
				<ellipse class="st8" cx="1182.4" cy="599.8" rx="69.7" ry="70.6"/>
				<ellipse class="st8" cx="1240.7" cy="770.4" rx="5" ry="19.9"/>
				<ellipse class="st8" cx="1241.6" cy="791.3" rx="8.6" ry="8.8"/>
				<ellipse class="st22" cx="1158.5" cy="940.3" rx="7.6" ry="22.3"/>
				<ellipse class="st22" cx="1207" cy="938.3" rx="5.8" ry="18.8"/>
				<path class="st23" d="M1204.9,948.1h4.8c1.4,0,2.6,1.2,2.6,2.6v11.1c0,1.4-1.2,2.6-2.6,2.6h-4.8c-1.4,0-2.6-1.2-2.6-2.6v-11.1
					C1202.3,949.3,1203.4,948.1,1204.9,948.1z"/>
				<path class="st24" d="M1204.7,955.6h15.5c1.4,0,2.6,1.2,2.6,2.6v5.2c0,1.4-1.2,2.6-2.6,2.6h-15.5c-1.4,0-2.6-1.2-2.6-2.6v-5.2
					C1202.1,956.7,1203.3,955.6,1204.7,955.6z"/>
				<path class="st23" d="M1155,950.6h6.4c1.4,0,2.6,1.2,2.6,2.6v15.5c0,1.4-1.2,2.6-2.6,2.6h-6.4c-1.4,0-2.6-1.2-2.6-2.6v-15.5
					C1152.4,951.8,1153.6,950.6,1155,950.6z"/>
				<path class="st24" d="M1143.8,960.5h18.5c1.4,0,2.6,1.2,2.6,2.6v6.9c0,1.4-1.2,2.6-2.6,2.6h-18.5c-1.4,0-2.6-1.2-2.6-2.6v-6.9
					C1141.2,961.7,1142.3,960.5,1143.8,960.5z"/>
				<ellipse class="st25" cx="1156" cy="598.7" rx="6.1" ry="8.8"/>
				<ellipse class="st25" cx="1188.9" cy="599" rx="6.7" ry="9.9"/>
				<ellipse class="st26" cx="1185.2" cy="697.1" rx="41.5" ry="26.6"/>
				<path class="st27" d="M1159.4,715.7c-0.1,2.4,1.7,4.4,4.1,4.5s4.4-1.7,4.5-4.1c0-0.1,0-0.3,0-0.4v-36.9
					c-0.1-2.4-2.1-4.2-4.5-4.1c-2.2,0.1-4,1.9-4.1,4.1V715.7z"/>
				
					<ellipse transform="matrix(0.6601 -0.7511 0.7511 0.6601 -109.7424 1160.7319)" class="st26" cx="1227.8" cy="701.6" rx="11.9" ry="19.9"/>
				<path class="st27" d="M1200.3,717.3c-0.1,2.1,1.5,4,3.7,4.1s4-1.5,4.1-3.7c0-0.1,0-0.3,0-0.4v-39.8c0.1-2.1-1.5-4-3.7-4.1
					s-4,1.5-4.1,3.7c0,0.1,0,0.3,0,0.4V717.3z"/>
				<ellipse cx="1182.3" cy="548.8" rx="61.1" ry="26.7"/>
				<ellipse transform="matrix(0.6 -0.8 0.8 0.6 -3.2125 1128.7373)" cx="1127.1" cy="567.6" rx="30.8" ry="12.7"/>
				<ellipse transform="matrix(0.8 -0.6 0.6 0.8 -90.6975 853.4145)" cx="1234.8" cy="562.8" rx="8.7" ry="30.8"/>
				<ellipse class="st28" cx="1204.3" cy="715.6" rx="3.7" ry="3.8"/>
				<ellipse class="st29" cx="1204.3" cy="715.9" rx="0.9" ry="0.9"/>
				<ellipse class="st28" cx="1163.7" cy="714.3" rx="3.4" ry="3.4"/>
				<ellipse class="st29" cx="1163.7" cy="714.9" rx="0.6" ry="0.7"/>
				<path class="st30" d="M1153.1,762.1l15,0.6c-0.1,20.7-6.9,37.6-15,37.6s-15-17.3-15-38.2L1153.1,762.1z"/>
				<path class="st31" d="M1165.1,655.5c0.5-0.9,5.9-10.5,15.8-10.7c9.7-0.1,15.2,9,15.8,9.9"/>
				
					<ellipse transform="matrix(0.4796 -0.8775 0.8775 0.4796 -23.3541 1363.5494)" class="st26" cx="1137.9" cy="701.5" rx="19.1" ry="12.3"/>
				<ellipse class="st8" cx="1120.7" cy="793" rx="8.6" ry="8.8"/>
			</g>
			<g id="bridge">
				<path class="st32" d="M224.1,1079.6c-1.3,1.3-2-2.1-3.9-2.1s-1.9-0.1-3.8-0.1s-1.9,2.7-3.8,2.7s-1.9-3.5-3.7-3.5
					s-1.9,0.9-3.8,0.9s-1.9,4.8-3.8,4.8s-1.9-2.2-3.8-2.2s-1.9-0.1-3.8-0.1s-1.9,0.8-3.8,0.8s-1.9-1.7-3.8-1.7s-1.9,3-3.8,3
					s-2.7-1-4-2.3s1.8-2.2,1.8-4.1s-3.7-1.9-3.7-3.8s2.1-1.9,2.1-3.8s1-1.9,1-3.8s1.2-1.9,1.2-3.8s-0.1-1.9-0.1-3.8
					s-4.9-1.9-4.9-3.8s4.9-1.9,4.9-3.8s-3.3-1.9-3.3-3.8s2.1-1.9,2.1-3.8s-0.2-1.9-0.2-3.8s-2.4-1.9-2.4-3.8s2.5-1.9,2.5-3.8
					s-1.4-1.9-1.4-3.8s-1-1.9-1-3.8s1.6-1.9,1.6-3.8s-0.6-1.9-0.6-3.8s0.4-1.9,0.4-3.8s1.2-1.9,1.2-3.8s-0.6-1.9-0.6-3.8
					s0.9-1.9,0.9-3.8s1.8-1.9,1.8-3.8s-0.8-1.9-0.8-3.8s-2.5-1.9-2.5-3.8s3.4-1.9,3.4-3.8s-0.7-1.9-0.7-3.8s-0.3-1.9-0.3-3.8
					s-3.5-1.9-3.5-3.8s3.8-1.9,3.8-3.8s-4.9-1.9-4.9-3.8s0.1-1.9,0.1-3.8s4.6-1.9,4.6-3.8s-1.2-1.9-1.2-3.8s-1.5-1.9-1.5-3.8
					s2.4-1.9,2.4-3.8s0.2-1.9,0.2-3.8s-0.1-1.9-0.1-3.8s-4-1.9-4-3.8s5.2-1.9,5.2-3.8s-0.5-1.9-0.5-3.8s0.4-1.9,0.4-3.8
					s-1.4-1.9-1.4-3.8s-1.2-1.9-1.2-3.8s2.7-1.9,2.7-3.8s-4-1.9-4-3.8s-0.8-1.9-0.8-3.8s-0.3-1.9-0.3-3.8s4.6-1.9,4.6-3.8
					s-5.3-4-4-5.4s3.5,1.9,5.4,1.9s1.9-0.8,3.8-0.8s1.9-0.4,3.7-0.4s1.9,1.2,3.8,1.2s1.9-2.9,3.8-2.9s1.9,1.9,3.8,1.9
					s1.9-1.7,3.8-1.7s1.9,1.1,3.8,1.1s1.9,0.9,3.8,0.9s1.9,3.1,3.8,3.1s1.9-2.3,3.8-2.3s0.4,0.3,1.7,1.7s2.5-0.1,2.5,1.8
					s2.2,1.9,2.2,3.8s-1.6,1.9-1.6,3.8s-0.6,1.9-0.6,3.8s-2.8,1.9-2.8,3.8s4.4,1.9,4.4,3.8s-1.2,1.9-1.2,3.8s-3.9,1.9-3.9,3.8
					s1.5,1.9,1.5,3.8s1.8,1.9,1.8,3.8s-1,1.9-1,3.8s-0.5,1.9-0.5,3.8s1.6,1.9,1.6,3.8s-0.3,1.9-0.3,3.8s-1.6,1.9-1.6,3.8
					s4.3,1.9,4.3,3.8s-1.5,1.9-1.5,3.8s-3.7,1.9-3.7,3.8s1.2,1.9,1.2,3.8s3.2,1.9,3.2,3.8s-0.7,1.9-0.7,3.8s-3,1.9-3,3.8
					s-0.4,1.9-0.4,3.8s0.4,1.9,0.4,3.8s0.3,1.9,0.3,3.8s4.1,1.9,4.1,3.8s-1.7,1.9-1.7,3.8s-2.2,1.9-2.2,3.8s3.6,1.9,3.6,3.8
					s-5,1.9-5,3.8s1.8,1.9,1.8,3.8s-2.2,1.9-2.2,3.8s0.6,1.9,0.6,3.8s2.2,1.9,2.2,3.8c0,1.9,0.2,1.9,0.2,3.8s-0.2,1.9-0.2,3.8
					s0,1.9,0,3.8s-0.8,1.9-0.8,3.8s0,1.9,0,3.8s0.2,1.9,0.2,3.8s2.7,1.9,2.7,3.8s0.7,1.9,0.7,3.8s-2.6,1.9-2.6,3.8s-3,1.9-3,3.8
					s2,1.9,2,3.8s-1.5,1.9-1.5,3.8s1.9,1.9,1.9,3.8s1.4,1.6,1.9,3.5C225.9,1076.9,225.4,1078.6,224.1,1079.6z"/>
				<path class="st32" d="M1931.1,1102.6c-1.5,1.5-4.3-1-6.5-1s-2.2-0.1-4.4-0.1s-2.2-3-4.4-3s-2.2,4.3-4.4,4.3s-2.2,0.1-4.4,0.1
					s-2.2-2.6-4.4-2.6c-2.2,0-2.2,2.2-4.4,2.2s-2.2-5.2-4.4-5.2s-2.2,1.4-4.4,1.4s-2.2,4.8-4.4,4.8s-0.6-3.8-2.1-5.4
					s0.8,0.1,0.8-2.1s-3.8-2.2-3.8-4.3s-1.9-2.2-1.9-4.3s1.8-2.2,1.8-4.3s-0.7-2.2-0.7-4.3s1.5-2.2,1.5-4.3s-1.6-2.2-1.6-4.3
					s1.6-2.2,1.6-4.3s-2.1-2.2-2.1-4.3s3.3-2.2,3.3-4.3s-4.6-2.2-4.6-4.3s0.9-2.2,0.9-4.3s-0.2-2.2-0.2-4.3s0.1-2.2,0.1-4.3
					s3.9-2.2,3.9-4.3s-1.9-2.2-1.9-4.3s-0.3-2.2-0.3-4.3s-1.8-2.2-1.8-4.3s2.9-2.2,2.9-4.3s0.2-2.2,0.2-4.3s0-2.2,0-4.3
					s-2.3-2.2-2.3-4.3s0.8-2.2,0.8-4.3s-1.6-2.2-1.6-4.3s2.6-2.2,2.6-4.3s3.5-2.2,3.5-4.3s-1.3-2.2-1.3-4.3s0-2.2,0-4.3
					s-2.1-2.2-2.1-4.3s-2.4-2.2-2.4-4.3s4.9-2.2,4.9-4.3s-0.8-2.2-0.8-4.3s-0.9-2.2-0.9-4.3s0.8-2.2,0.8-4.3s-3.1-2.2-3.1-4.3
					s-1.5-2.2-1.5-4.3s5.8-2.2,5.8-4.3s-6.2-2.2-6.2-4.3s3.7-2.2,3.7-4.3s-3-2.2-3-4.3s2.1-2.2,2.1-4.3s-1.9-2.2-1.9-4.3
					s1.7-2.2,1.7-4.3s-1.3-2.2-1.3-4.3s1.4-2.2,1.4-4.3s-1.5-2.2-1.5-4.3s0.7-2.2,0.7-4.3s2.2-2.2,2.2-4.3s-2.4-2.2-2.4-4.3
					s4.7-2.2,4.7-4.4s-0.8-2.2-0.8-4.3s-3.7-2.8-2.1-4.3s2.1-1.1,4.3-1.1s2.2-1.4,4.3-1.4s2.2,2.4,4.4,2.4s2.2-3,4.4-3
					s2.2,3.8,4.4,3.8s2.2,2.2,4.4,2.2s2.2-0.1,4.4-0.1c2.2,0,2.2-6,4.4-6s2.2,0.3,4.4,0.3s2.2,3.9,4.4,3.9s1.6-1.2,3.2,0.4
					s2.1,1,2.1,3.1s-4,2.2-4,4.3s4.9,2.2,4.9,4.3s-3.2,2.2-3.2,4.3s4.7,2.2,4.7,4.3s-5.3,2.2-5.3,4.3s3.7,2.2,3.7,4.3
					s-1.3,2.2-1.3,4.3s2.7,2.2,2.7,4.3s-5.3,2.2-5.3,4.3s4,2.2,4,4.3s1.2,2.2,1.2,4.3s-0.2,2.2-0.2,4.3s-3.3,2.2-3.3,4.3
					s1.3,2.2,1.3,4.3s1.6,2.2,1.6,4.3s-3.6,2.2-3.6,4.3s1,2.2,1,4.3s0,2.2,0,4.3s0.1,2.2,0.1,4.3s0.4,2.2,0.4,4.3s-3.7,2.2-3.7,4.3
					s2.9,2.2,2.9,4.3s3.2,2.2,3.2,4.3s0.1,2.2,0.1,4.3s-5.6,2.2-5.6,4.3s2.4,2.2,2.4,4.3s3.5,2.2,3.5,4.3s-4.5,2.2-4.5,4.3
					s-0.6,2.2-0.6,4.3s4.3,2.2,4.3,4.3s-0.7,2.2-0.7,4.3s-3,2.2-3,4.3s-0.4,2.2-0.4,4.3c0,2.2,2.7,2.2,2.7,4.3s-2.3,2.2-2.3,4.3
					s-1,2.2-1,4.3s3.4,2.2,3.4,4.3s-0.2,2.2-0.2,4.3s-0.8,2.2-0.8,4.3s0.9,2.2,0.9,4.3s-0.6,2.2-0.6,4.3s2.7,2.2,2.7,4.3
					s-1.2,2.2-1.2,4.3s-4.8,2.2-4.8,4.3s5.6,2.2,5.6,4.3s-5.1,2.2-5.1,4.3s1.8,2.2,1.8,4.3s0.3,2.2,0.3,4.3s2.6,2.2,2.6,4.4
					s-1.8,1.9-1,3.9C1931.4,1099.1,1932.7,1101.1,1931.1,1102.6z"/>
				<path class="st32" d="M565.2,1084.6c-1.5,1.5-1.3,1.4-3.5,1.4s-2.2-2.8-4.3-2.8s-2.2-0.3-4.3-0.3s-2.2,3.3-4.3,3.3s-2.2-3-4.3-3
					s-2.2,2-4.3,2s-2.2,1-4.3,1s-2.2-4.1-4.3-4.1s-2.2,0.4-4.3,0.4s-2.2,3.8-4.3,3.8s-2.2,0.2-4.3,0.2s-2.2,0.2-4.3,0.2
					s-1.5-1.1-3-2.6s-1.2-0.8-1.2-2.9s2.6-2.1,2.6-4.2s-0.7-2.1-0.7-4.2s-4.6-2.1-4.6-4.2s4.9-2.1,4.9-4.2s-1.3-2.1-1.3-4.2
					s1.3-2.1,1.3-4.2s-0.1-2.1-0.1-4.2s0.7-2.1,0.7-4.2s0.5-2.1,0.5-4.2s-2.3-2.1-2.3-4.2s-2-2.1-2-4.2s1.1-2.1,1.1-4.2
					s-1.1-2.1-1.1-4.2s-1.4-2.1-1.4-4.2s5-2.1,5-4.2s-2-2.1-2-4.2s2.4-2.1,2.4-4.2s-5.9-2.1-5.9-4.2s3-2.1,3-4.2s2.5-2.1,2.5-4.2
					s-2.1-2.1-2.1-4.2s-0.3-2.1-0.3-4.2s1.2-2.1,1.2-4.2s1-2.1,1-4.2s-4.6-2.1-4.6-4.2s-0.9-2.1-0.9-4.2s2.2-2.1,2.2-4.2
					s-2.1-2.1-2.1-4.2s3-2.1,3-4.2s0.3-2.1,0.3-4.2s-3.1-2.1-3.1-4.2s5.9-2.1,5.9-4.2s-0.5-2.1-0.5-4.2s-3.1-2.1-3.1-4.2
					s0.2-2.1,0.2-4.2s-2.8-2.1-2.8-4.2s1.3-2.1,1.3-4.2s3.7-2.1,3.7-4.2s-2.3-2.1-2.3-4.2s-1.1-2.1-1.1-4.2s-0.4-2.1-0.4-4.2
					s0.5-2.1,0.5-4.2s-0.6-3.5,0.9-5s2.9,2.9,5.1,2.9s2.2,1,4.3,1s2.2-2.6,4.3-2.6s2.2,0.8,4.3,0.8s2.2-3.1,4.3-3.1s2.2,1,4.3,1
					s2.2,3.8,4.3,3.8s2.2-4.7,4.3-4.7s2.2,1.2,4.3,1.2s2.2,1.2,4.3,1.2s2.2,0.3,4.3,0.3s2.2-0.3,4.3-0.3s3.3-2.8,4.9-1.2
					s-1.6,2.7-1.6,4.8s3.6,2.1,3.6,4.2s-5.1,2.1-5.1,4.2s1.6,2.1,1.6,4.2s0.5,2.1,0.5,4.2s0.8,2.1,0.8,4.2s0.6,2.1,0.6,4.2
					s1.5,2.1,1.5,4.2s-1.7,2.1-1.7,4.2s-2.4,2.1-2.4,4.2s-1.6,2.1-1.6,4.2s0.3,2.1,0.3,4.2s4.4,2.1,4.4,4.2s-2.3,2.1-2.3,4.2
					s-0.3,2.1-0.3,4.2s1.7,2.1,1.7,4.2s-0.8,2.1-0.8,4.2s-1.6,2.1-1.6,4.2s-1.1,2.1-1.1,4.2s-0.2,2.1-0.2,4.2s1.2,2.1,1.2,4.2
					s4.2,2.1,4.2,4.2s-0.1,2.1-0.1,4.2s-0.7,2.1-0.7,4.2s-1.7,2.1-1.7,4.2s-1.8,2.1-1.8,4.2s-0.8,2.1-0.8,4.2s5.3,2.1,5.3,4.2
					s-4.9,2.1-4.9,4.2s2.3,2.1,2.3,4.2s1.5,2.1,1.5,4.2s-0.7,2.1-0.7,4.2s-1.8,2.1-1.8,4.2s-0.2,2.1-0.2,4.2s2.2,2.1,2.2,4.2
					s-3.5,2.1-3.5,4.2s3.2,2.1,3.2,4.2s-0.9,2.1-0.9,4.2s1.9,2.1,1.9,4.2s0.5,2.1,0.5,4.2s-2.2,2.1-2.2,4.2s-2.1,2.1-2.1,4.2
					c-0.1,1.5-0.1,3,0,4.5C564.1,1083.3,566.7,1083.2,565.2,1084.6z"/>
				<path class="st32" d="M1243.5,1081c-1.2,1.3-3.3,1.3-5.1,1.3c-1.8,0-1.8-4-3.5-4s-1.8,1.1-3.6,1.1s-1.8,0.2-3.5,0.2
					s-1.8-2.2-3.6-2.2s-1.8,0.2-3.5,0.2s-1.8,4.2-3.5,4.2s-1.8-4.7-3.6-4.7s-1.8,1.6-3.5,1.6s-1.8,3.6-3.6,3.6s-4.1,0.3-5.3-0.9
					s2.7-3.5,2.7-5.3s-3.6-1.8-3.6-3.6s2.3-1.8,2.3-3.6s1.8-1.8,1.8-3.6s-0.9-1.8-0.9-3.6s-1-1.8-1-3.6s1.3-1.8,1.3-3.6
					s0.9-1.8,0.9-3.6s-0.2-1.8-0.2-3.6s-0.1-1.8-0.1-3.6s-1.4-1.8-1.4-3.6s2.4-1.8,2.4-3.6s-2.9-1.8-2.9-3.6s1.8-1.8,1.8-3.6
					s-0.8-1.8-0.8-3.6s-0.6-1.8-0.6-3.6s0.2-1.8,0.2-3.6s1.5-1.8,1.5-3.6s-0.6-1.8-0.6-3.6s-2.5-1.8-2.5-3.6s3.8-1.8,3.8-3.6
					s-1.2-1.8-1.2-3.6s-1.7-1.8-1.7-3.6s0.9-1.8,0.9-3.6s1.8-1.8,1.8-3.6s-3.6-1.8-3.6-3.6s0.7-1.8,0.7-3.6s0.6-1.8,0.6-3.6
					s-1.6-1.8-1.6-3.6s1.4-1.8,1.4-3.6s1.4-1.8,1.4-3.6s0.5-1.8,0.5-3.6s-1.4-1.8-1.4-3.6s-2.1-1.8-2.1-3.6s3.2-1.8,3.2-3.6
					s0.3-1.8,0.3-3.6s-2.4-1.8-2.4-3.6s1.7-1.8,1.7-3.6s-1.1-1.8-1.1-3.6s2.4-1.8,2.4-3.6s-4.5-1.8-4.5-3.6s1.2-1.8,1.2-3.6
					s1.4-1.8,1.4-3.6s-1.9-1.8-1.9-3.6s2.4-1.8,2.4-3.6s0.4-1.8,0.4-3.6s-1.3-1.8-1.3-3.6s-2.7-1.8-2.7-3.6s1.2-1.8,1.2-3.6
					s0.2-1.8,0.2-3.6s3.7-1.8,3.7-3.6s-1.4-1.8-1.4-3.6s-1.3-1.8-1.3-3.6s1-0.3,2.3-1.6s-0.3-2.4,1.5-2.4s1.8-1.1,3.5-1.1
					s1.8,2.4,3.5,2.4s1.8-2.6,3.6-2.6s1.8,3.7,3.5,3.7s1.8-3.8,3.5-3.8s1.8,0.9,3.6,0.9s1.8,1.7,3.5,1.7s1.8,0.7,3.6,0.7
					s1.8-1.8,3.6-1.8s0.3,0.9,1.6,2.2c1.2,1.3,1.3-0.1,1.3,1.7s-0.4,1.8-0.4,3.6s1.1,1.8,1.1,3.6s-1.7,1.8-1.7,3.6s0.2,1.8,0.2,3.6
					s-0.8,1.8-0.8,3.6s-0.2,1.8-0.2,3.6s2.1,1.8,2.1,3.6s-1.7,1.8-1.7,3.6s1.9,1.8,1.9,3.6s1.6,1.8,1.6,3.6s-3.6,1.8-3.6,3.6
					s0.4,1.8,0.4,3.6s0.6,1.8,0.6,3.6s-0.5,1.8-0.5,3.6s-0.8,1.8-0.8,3.6s1.9,1.8,1.9,3.6s1.6,1.8,1.6,3.6s0.2,1.8,0.2,3.6
					s-3.3,1.8-3.3,3.6s1.4,1.8,1.4,3.6s1.6,1.8,1.6,3.6s-0.2,1.8-0.2,3.6s-0.8,1.8-0.8,3.6s1.9,1.8,1.9,3.6s0.3,1.8,0.3,3.6
					s-2.3,1.8-2.3,3.6s-0.7,1.8-0.7,3.6s0.3,1.8,0.3,3.6s-0.9,1.8-0.9,3.6s1.2,1.8,1.2,3.6s-1.4,1.8-1.4,3.6s0,1.8,0,3.6
					s-0.6,1.8-0.6,3.6s4.7,1.8,4.7,3.6s0.2,1.8,0.2,3.6s-1.7,1.8-1.7,3.6s-3.8,1.8-3.8,3.6s2.4,1.8,2.4,3.6c0,1.8-0.8,1.8-0.8,3.6
					s1.3,1.8,1.3,3.6s0.2,1.8,0.2,3.6s-2,1.8-2,3.6s-0.7,1.8-0.7,3.6s1.3,1.8,1.3,3.6s0.5,1.8,0.5,3.6s0.8,1.8,0.8,3.6
					s-1.6,1.8-1.6,3.6s2.4,1.8,2.4,3.6s1.1,1.8,1.1,3.6s-0.5,1.8-0.5,3.6s-0.9,1.8-0.9,3.6s0.8,1.1,1.4,2.8
					C1245.2,1077.7,1244.8,1079.7,1243.5,1081z"/>
				<path class="st32" d="M1576,1084.4c-1.3,1.3-1.8-1.7-3.7-1.7c-1.8,0-1.8,3.5-3.7,3.5c-1.8,0-1.8,0.7-3.7,0.7
					c-1.8,0-1.8,0.3-3.7,0.3c-1.8,0-1.8-3.5-3.7-3.5c-1.8,0-1.8,0.2-3.7,0.2c-1.8,0-1.8,1.8-3.7,1.8h-3.7c-1.9,0-1.9,0.6-3.7,0.6
					c-1.8,0-3.3,0.4-4.6-0.8c-1.3-1.3-1-2.7-1-4.5s2.7-1.8,2.7-3.6s-1.1-1.8-1.1-3.6s-2.3-1.8-2.3-3.6s3.3-1.8,3.3-3.6
					s-0.6-1.8-0.6-3.6s-0.5-1.8-0.5-3.6s-1-1.8-1-3.6s2.5-1.8,2.5-3.6s-1.6-1.8-1.6-3.6s-1.5-1.8-1.5-3.6s2.1-1.8,2.1-3.6
					s-1.2-1.8-1.2-3.6s0.6-1.8,0.6-3.6s-0.6-1.8-0.6-3.6s-1.5-1.8-1.5-3.6s1.4-1.8,1.4-3.6s0-1.8,0-3.6s-0.4-1.8-0.4-3.6
					s2.1-1.8,2.1-3.6s-1.2-1.8-1.2-3.6s-1.6-1.8-1.6-3.6s3.5-1.8,3.5-3.6s0-1.8,0-3.6s-2.8-1.8-2.8-3.6s1.3-1.8,1.3-3.6
					s0.7-1.8,0.7-3.6s1.2-1.8,1.2-3.6s0.7-1.8,0.7-3.6s-5-1.8-5-3.6s4.6-1.8,4.6-3.6s-0.3-1.8-0.3-3.6s-2.5-1.8-2.5-3.6
					s2.7-1.8,2.7-3.6s-4.4-1.8-4.4-3.6s1.8-1.8,1.8-3.6s1.4-1.8,1.4-3.6s-0.8-1.8-0.8-3.6s0.3-1.8,0.3-3.6s-2.6-1.8-2.6-3.6
					s0.4-1.8,0.4-3.6s1.1-1.8,1.1-3.6s2.6-1.8,2.6-3.6s-1.9-1.8-1.9-3.6s0.1-1.8,0.1-3.6s0.9-1.8,0.9-3.6s-2.7-1.8-2.7-3.6
					s2.1-1.8,2.1-3.6s-1.1-1.8-1.1-3.6s-1.3-1.8-1.3-3.6s2.3-1.8,2.3-3.6s0.4-1.8,0.4-3.6s-2.3-1.8-2.3-3.6s3.7-1.8,3.7-3.6
					s-0.3-1.8-0.3-3.6s-1-0.5,0.3-1.8c1.3-1.3,0-0.7,1.9-0.7c1.9,0,1.8-1.5,3.7-1.5c1.8,0,1.8,0.8,3.7,0.8h3.7
					c1.8,0,1.8,0.1,3.7,0.1c1.8,0,1.8-0.6,3.7-0.6c1.8,0,1.8,1.5,3.7,1.5c1.8,0,1.8-0.3,3.7-0.3c1.8,0,1.9-0.5,3.7-0.5
					c1.8,0,0.5,0,1.8,1.3s3.7-0.2,3.7,1.6s-4.2,1.8-4.2,3.6s0.1,1.8,0.1,3.6s4.5,1.8,4.5,3.6s-3.7,1.8-3.7,3.6s4.2,1.8,4.2,3.6
					s-2.2,1.8-2.2,3.6s0.9,1.8,0.9,3.6s1.1,1.8,1.1,3.6s-1.5,1.8-1.5,3.6s-2.8,1.8-2.8,3.6s-0.1,1.8-0.1,3.6s-0.7,1.8-0.7,3.6
					s3.2,1.8,3.2,3.6s-1.2,1.8-1.2,3.6s0.6,1.8,0.6,3.6s1.2,1.8,1.2,3.6s-2.2,1.8-2.2,3.6s2.2,1.8,2.2,3.6s0.7,1.8,0.7,3.6
					s-3.4,1.8-3.4,3.6s-0.4,1.8-0.4,3.6s3.2,1.8,3.2,3.6s0.5,1.8,0.5,3.6s-4.6,1.8-4.6,3.6s1.9,1.8,1.9,3.6s-0.6,1.8-0.6,3.6
					s1.7,1.8,1.7,3.6s-2.9,1.8-2.9,3.6s0.3,1.8,0.3,3.6s0.3,1.8,0.3,3.6s2.2,1.8,2.2,3.6s-1.7,1.8-1.7,3.6s2.8,1.8,2.8,3.6
					s-1.3,1.8-1.3,3.6s1.2,1.8,1.2,3.6s0.9,1.8,0.9,3.6s-3.5,1.8-3.5,3.6s2.6,1.8,2.6,3.6s-1.1,1.8-1.1,3.6s1.5,1.8,1.5,3.6
					s-0.6,1.8-0.6,3.6s-1.7,1.8-1.7,3.6s-0.7,1.8-0.7,3.6s1.6,1.8,1.6,3.6s-2.2,1.8-2.2,3.6s1.3,1.8,1.3,3.6s0.5,1.8,0.5,3.6
					s-2.4,1.8-2.4,3.6s2.6,1.8,2.6,3.6s2.3,1.8,2.3,3.6s-1.8,1.8-1.8,3.6s-2.9,1.8-2.9,3.6s0.8,1.8,0.8,3.6s-0.4,2.2-0.1,4
					C1574.8,1083.1,1577.3,1083.2,1576,1084.4z"/>
				<path class="st32" d="M905.7,1079.2c-1.4,1.4-0.6,2-2.6,2s-2-2.2-3.9-2.2s-2,3-3.9,3s-2,0.4-3.9,0.4s-2-1.8-3.9-1.8
					s-2,1.3-3.9,1.3s-2-3.3-3.9-3.3s-2-0.7-3.9-0.7s-2,1.3-3.9,1.3s-2-1-3.9-1s-2,1.3-3.9,1.3s-2.9,2.8-4.3,1.4s1.7-2.4,1.7-4.4
					s1-2,1-4s0.3-2,0.3-4s-1.3-2-1.3-4s-1.1-2-1.1-4s1.6-2,1.6-4s-4.1-2-4.1-4s3.9-2,3.9-4s1.3-2,1.3-4s-6-2-6-4s4.4-2,4.4-4
					s0.4-2,0.4-4s-2.5-2-2.5-4s0.9-2,0.9-4s-2.8-2-2.8-4s4.4-2,4.4-4s-2.6-2-2.6-4s0.1-2,0.1-4s-1.3-2-1.3-4s5.1-2,5.1-4
					s0.3-2,0.3-4s-2.5-2-2.5-4s-3-2-3-4s1.4-2,1.4-4s-2-2-2-4s2.5-2,2.5-4s-2-2-2-4s5.5-2,5.5-4s-0.6-2-0.6-4s0.1-2,0.1-4
					s0.2-2,0.2-4s-3.7-2-3.7-4s2.4-2,2.4-4s-0.2-2-0.2-4s-1.5-2-1.5-4s0.9-2,0.9-4s0.8-2,0.8-4s0.1-2,0.1-4s0.1-2,0.1-4s-1-2-1-4
					s-1.2-2-1.2-4s-0.8-2-0.8-4s1.4-2,1.4-4s2-2,2-4s-2.4-2-2.4-4s-0.8-2-0.8-4s3.3-2,3.3-4s-4.8-2-4.8-4s3.5-2,3.5-4
					s-0.8-1.3,0.6-2.8s0.6-4,2.6-4s2,5.5,3.9,5.5s2-2.2,3.9-2.2s2,1.3,3.9,1.3s2,0.6,3.9,0.6s2,0.5,3.9,0.5h3.9c2,0,2-0.8,3.9-0.8
					s2-0.8,3.9-0.8s2-1.1,3.9-1.1s2-2.3,3.9-2.3c1.5-0.1,3,0.5,4,1.7c1.4,1.5,1,2.2,1,4.2s-1.5,2-1.5,4s2.3,2,2.3,4s-2.4,2-2.4,4
					s0.9,2,0.9,4s0.7,2,0.7,4s-3,2-3,4s2.2,2,2.2,4s1.2,2,1.2,4s-3.5,2-3.5,4s3.1,2,3.1,4s-3.9,2-3.9,4s2,2,2,4s0,2,0,4
					s-2.2,2-2.2,4s2.1,2,2.1,4s0.4,2,0.4,4s2.3,2,2.3,4s-1.9,2-1.9,4s-2.5,2-2.5,4s2.2,2,2.2,4s2.9,2,2.9,4s-0.6,2-0.6,4v4
					c0,2-3.3,2-3.3,4s4.2,2,4.2,4s0.3,2,0.3,4s-3.8,2-3.8,4s2.7,2,2.7,4s0,2,0,4s-0.3,2-0.3,4s-0.2,2-0.2,4s-1.2,2-1.2,4
					s2.8,2,2.8,4s-4.8,2-4.8,4s2.7,2,2.7,4c0,2,0,2,0,4s-0.2,2-0.2,4s-2,2-2,4s2.6,2,2.6,4s-2.1,2-2.1,4s2.4,2,2.4,4s1.2,2,1.2,4
					s-1.3,2-1.3,4s0.7,2,0.7,4s-1.1,2-1.1,4s-3.9,2-3.9,4s5,2,5,4.1s-0.5,2-0.4,4C908.7,1078,907.1,1077.8,905.7,1079.2z"/>
				
					<linearGradient id="SVGID_00000165913078610171811810000001933638239654574482_" gradientUnits="userSpaceOnUse" x1="-58.7211" y1="293.8146" x2="1898.8889" y2="293.8146" gradientTransform="matrix(1.01 4.000000e-02 3.000000e-02 -1.15 37.9704 1209.0499)">
					<stop  offset="0" style="stop-color:#8C6239"/>
					<stop  offset="0.49" style="stop-color:#724922"/>
					<stop  offset="0.55" style="stop-color:#6F4721"/>
					<stop  offset="1" style="stop-color:#42210B"/>
				</linearGradient>
				<path style="fill:url(#SVGID_00000165913078610171811810000001933638239654574482_);" d="M1957.2,948.7
					c-11.9,13.3-19.4-7.2-37.3-7.2c-17.9,0-17.9,12.1-35.7,12.1c-17.9,0-17.9-18.3-35.7-18.3c-17.9,0-17.9,4.5-35.7,4.5
					c-17.9,0-17.9-1.9-35.7-1.9c-17.9,0-17.9,2-35.7,2c-17.9,0-17.9,9.5-35.7,9.5c-17.9,0-17.9,7.7-35.7,7.7
					c-17.9,0-17.8-21.2-35.7-21.2c-17.9,0-17.9,21.7-35.7,21.7c-17.9,0-17.9-0.7-35.7-0.7c-17.9,0-17.9-2.2-35.7-2.2
					c-17.9,0-17.9-9.9-35.7-9.9c-17.9,0-17.9-8.4-35.7-8.4c-17.9,0-17.9,3-35.7,3c-17.9,0-17.9,2.8-35.7,2.8
					c-17.9,0-17.9,9.8-35.7,9.8c-17.9,0-17.9,3.9-35.7,3.9c-17.9,0-17.9-5.4-35.7-5.4c-17.9,0-17.9,4.3-35.7,4.3
					c-17.9,0-17.9-13.2-35.7-13.2c-17.9,0-17.9-1.6-35.7-1.6c-17.9,0-17.9,7-35.7,7c-17.9,0-17.9-9.3-35.7-9.3
					c-17.9,0-17.9,7.2-35.7,7.2c-17.9,0-17.9-6.9-35.7-6.9c-17.9,0-17.9-0.3-35.7-0.3S973,955,955.1,955s-17.9-14.7-35.7-14.7
					s-17.9,2.9-35.7,2.9s-17.9-6.8-35.7-6.8s-17.9,6.1-35.7,6.1s-17.9,16.4-35.7,16.4s-17.9-20.8-35.7-20.8s-17.9,0.7-35.7,0.7
					s-17.9,4.3-35.7,4.3s-17.9,9-35.7,9s-17.9,7-35.7,7s-17.9-19-35.7-19s-17.9,7.9-35.7,7.9s-17.9-2.9-35.7-2.9
					s-17.9,12.8-35.7,12.8s-17.9-10.2-35.7-10.2s-17.9-3.1-35.7-3.1s-17.9,13.2-35.7,13.2s-17.9-10.9-35.7-10.9
					s-17.9,11.3-35.8,11.3s-17.9-12.6-35.7-12.6s-17.9,11.3-35.7,11.3s-17.9-14-35.7-14s-17.9,5.4-35.7,5.4s-17.9-0.1-35.7-0.1
					S79.5,942,61.7,942s-17.9,14.8-35.7,14.8s-22.6,2.8-34.6-10.5c-13.3-14.8,9-18.8,9-38.7s-25.9-27.2-12.6-42
					c11.9-13.3,20.3-1.4,38.2-1.4s17.9,8,35.7,8s17.9-9.3,35.7-9.3s17.9,11.1,35.7,11.1s17.9,1.1,35.7,1.1s17.9-16.5,35.7-16.5
					s17.9,9.5,35.7,9.5s17.9,9.8,35.7,9.8s17.9-3.7,35.7-3.7s17.9-8.6,35.7-8.6s17.9,6.3,35.7,6.3s17.9,4.5,35.7,4.5
					s17.9-8.7,35.7-8.7s17.9,3.8,35.7,3.8s17.9,2,35.7,2s17.9-15.3,35.7-15.3s17.9,8.8,35.7,8.8s17.9,7.3,35.7,7.3
					s17.9-8.2,35.7-8.2s17.9,5.3,35.7,5.3s17.9-2.4,35.7-2.4s17.9-12.8,35.7-12.8s17.9,14.3,35.7,14.3s17.9-4.7,35.7-4.7
					s17.9-1.9,35.7-1.9s17.9,7.4,35.7,7.4s17.9-7.6,35.7-7.6s17.9,10.8,35.7,10.8s17.9-11.5,35.7-11.5c17.9,0,17.9-7.2,35.7-7.2
					c17.9,0,17.9,19.8,35.7,19.8c17.9,0,17.9-11.8,35.7-11.8c17.9,0,17.9-6.6,35.7-6.6c17.9,0,17.9,20.8,35.7,20.8
					c17.9,0,17.9-8.5,35.7-8.5c17.9,0,17.9-3.9,35.7-3.9c17.9,0,17.9,0.2,35.7,0.2c17.9,0,17.9,9.6,35.7,9.6
					c17.9,0,17.9-1.5,35.7-1.5c17.9,0,17.9-6.5,35.7-6.5c17.9,0,17.9-1.4,35.7-1.4c17.9,0,17.9-6.4,35.7-6.4
					c17.9,0,17.9,1.3,35.7,1.3c17.9,0,17.9-3.3,35.7-3.3c17.9,0,17.9,2.4,35.7,2.4c17.9,0,17.9,17.8,35.7,17.8
					c17.8,0,17.9-15.4,35.7-15.4c17.9,0,17.9-2.2,35.7-2.2c17.9,0,17.9,8.2,35.7,8.2c17.9,0,17.9,0.8,35.7,0.8
					c17.9,0,17.9-2.7,35.7-2.7c17.9,0,17.9,11.2,35.8,11.2c17.9,0,17.9-9,35.7-9c17.9,0,17.9-8.8,35.8-8.8c17.9,0,23.9-5.9,35.9,7.4
					c13.3,14.8-1.2,19.8,3.2,39.2C1963.7,928.1,1970.5,933.9,1957.2,948.7z"/>
			</g>
		</g>
	</g>
</g>
</svg>
