<svg xmlns="http://www.w3.org/2000/svg" xmlns:xlink="http://www.w3.org/1999/xlink" width="677.01mm" height="382.88mm" viewBox="0 0 1919.08 1085.33"><defs><style>.cls-1{isolation:isolate;}.cls-2{fill:url(#linear-gradient);}.cls-3{fill:#96a65d;}.cls-4{fill:#6f8c30;}.cls-5{fill:#387404;mix-blend-mode:darken;}.cls-6{fill:#f2e641;}.cls-7{fill:#fff;}.cls-8{opacity:0.92;}.cls-9{opacity:0.77;}.cls-10{fill:#754c24;}.cls-11{fill:url(#linear-gradient-2);}.cls-12{fill:#e1ab85;}.cls-13,.cls-14,.cls-18,.cls-19,.cls-20,.cls-21,.cls-22,.cls-23,.cls-24{fill:#0d0d0d;}.cls-14,.cls-18,.cls-19,.cls-20,.cls-21,.cls-22,.cls-23,.cls-24{stroke:#000;}.cls-14,.cls-18,.cls-19,.cls-20,.cls-21,.cls-22,.cls-23,.cls-24,.cls-36,.cls-37,.cls-38{stroke-miterlimit:10;}.cls-14{stroke-width:2.33px;}.cls-15{fill:#736258;}.cls-16{fill:#f2d0e3;}.cls-17{fill:#333;}.cls-18{stroke-width:2.34px;}.cls-19{stroke-width:2.24px;}.cls-20{stroke-width:2.61px;}.cls-21{stroke-width:2.57px;}.cls-22{stroke-width:2.3px;}.cls-23{stroke-width:2.51px;}.cls-24{stroke-width:2.44px;}.cls-25{fill:#10735a;}.cls-26{fill:#a67c52;}.cls-27{fill:#b9121b;}.cls-28{fill:#4c1b1b;}.cls-29{fill:#8c6239;}.cls-30{fill:#ff836a;}.cls-31{fill:#be393a;}.cls-32{fill:#4d4d4d;}.cls-33{fill:#b88d1e;}.cls-34{fill:#8c8c80;}.cls-35{fill:#104639;}.cls-36{fill:#999;stroke-linecap:round;stroke-width:5.44px;}.cls-36,.cls-37,.cls-38{stroke:gray;}.cls-37,.cls-38{fill:none;}.cls-37{stroke-width:2.02px;stroke-dasharray:3.35;}.cls-38{stroke-width:2.02px;}</style><linearGradient id="linear-gradient" x1="104.16" y1="1174.57" x2="2293.13" y2="-452.64" gradientUnits="userSpaceOnUse"><stop offset="0" stop-color="#4cacf7"/><stop offset="1" stop-color="#fff"/></linearGradient><linearGradient id="linear-gradient-2" x1="-47.51" y1="897.98" x2="1905.33" y2="897.98" gradientTransform="matrix(1.01, 0.04, -0.03, 1.15, 56.68, -164.87)" gradientUnits="userSpaceOnUse"><stop offset="0" stop-color="#8c6239"/><stop offset="0.49" stop-color="#724922"/><stop offset="0.55" stop-color="#6f4721"/><stop offset="1" stop-color="#42210b"/></linearGradient></defs><g class="cls-1"><g id="Layer_1" data-name="Layer 1"><g id="bg8"><rect class="cls-2" x="-2.26" y="0.43" width="1919" height="1080"/><ellipse class="cls-3" cx="1509.28" cy="802.71" rx="474.96" ry="184.79"/><ellipse class="cls-4" cx="533.74" cy="841.58" rx="575.5" ry="223.91"/><ellipse class="cls-5" cx="987.77" cy="1039.46" rx="1105.54" ry="236.29"/><path class="cls-6" d="M1886,162.43c0,1.47-84,.9-84.08,2.36s83.59,9.08,83.45,10.54-83.69-7.31-83.9-5.86,82.3,17.21,82,18.65-82.58-15.44-82.93-14,80.24,25.12,79.82,26.52-80.71-23.31-81.21-21.93,77.5,32.63,76.94,34-78.17-30.77-78.79-29.44,74.16,39.62,73.49,40.93-75.08-37.72-75.82-36.44,70.37,46,69.58,47.27-71.53-44.08-72.37-42.87,66.22,51.82,65.32,53-67.64-49.84-68.58-48.7,61.82,57,60.84,58.09-63.51-55-64.53-54,57.24,61.59,56.18,62.61-59.19-59.65-60.29-58.67,52.56,65.63,51.42,66.57-54.73-63.76-55.9-62.86,47.8,69.18,46.6,70-50.21-67.39-51.43-66.57,43,72.25,41.75,73-45.62-70.58-46.9-69.84,38.21,74.9,36.91,75.6-41-73.36-42.33-72.7,33.4,77.16,32.06,77.77-36.36-75.76-37.72-75.19,28.6,79.07,27.22,79.6-31.7-77.83-33.09-77.34,23.82,80.63,22.42,81.08-27.06-79.57-28.48-79.16,19.08,81.89,17.65,82.25-22.41-81-23.85-80.67,14.35,82.85,12.9,83.13-17.77-82.14-19.23-81.9,9.67,83.52,8.21,83.72-13.17-83-14.64-82.84,5,83.93,3.57,84-8.6-83.6-10.07-83.52.46,84.08-1,84.12-4.06-83.94-5.54-83.94-4.07,84-5.54,83.94.45-84-1-84.12-8.6,83.64-10.06,83.52,5-83.89,3.56-84-13.18,83-14.64,82.84,9.66-83.48,8.21-83.72-17.79,82.18-19.23,81.9,14.33-82.81,12.9-83.13-22.43,81-23.85,80.67,19-81.85,17.65-82.25-27.08,79.6-28.48,79.16,23.8-80.6,22.42-81.09-31.73,77.87-33.1,77.34,28.58-79,27.23-79.59-36.39,75.8-37.72,75.19,33.37-77.13,32-77.78-41,73.4-42.32,72.71,38.17-74.87,36.9-75.6-45.65,70.61-46.9,69.84,43-72.22,41.76-73-50.25,67.42-51.44,66.56,47.77-69.13,46.61-70-54.78,63.79-55.91,62.86,52.52-65.6,51.42-66.58-59.23,59.68-60.29,58.67S1639,201.6,1638,200.54s-63.56,55.05-64.54,54,61.78-57,60.85-58.09-67.71,49.87-68.59,48.7,66.17-51.78,65.33-53-71.59,44.09-72.38,42.85,70.32-46,69.58-47.26-75.14,37.73-75.81,36.43,74.1-39.58,73.49-40.91-78.25,30.79-78.8,29.43,77.43-32.6,76.94-34-80.78,23.33-81.2,21.92,80.18-25.09,79.82-26.51-82.65,15.46-82.93,14,82.23-17.19,82-18.64-83.76,7.32-83.9,5.86,83.52-9.07,83.45-10.54-84.08-.89-84.08-2.36,84-.91,84.08-2.37-83.59-9.08-83.45-10.54,83.69,7.31,83.9,5.86-82.3-17.21-82-18.65,82.58,15.44,82.93,14-80.24-25.12-79.82-26.52,80.71,23.31,81.2,21.93-77.49-32.63-76.93-34,78.17,30.77,78.79,29.44-74.16-39.62-73.49-40.93,75.08,37.72,75.82,36.44-70.37-46-69.58-47.27,71.53,44.08,72.37,42.87-66.22-51.82-65.32-53,67.64,49.84,68.58,48.7-61.82-57-60.84-58.09,63.51,55,64.53,54-57.24-61.59-56.18-62.61,59.19,59.65,60.29,58.67-52.56-65.63-51.42-66.57,54.73,63.76,55.9,62.86-47.8-69.18-46.6-70,50.21,67.39,51.43,66.57-43-72.25-41.75-73,45.62,70.58,46.9,69.84-38.21-74.9-36.91-75.6,41,73.36,42.33,72.7-33.4-77.16-32.06-77.77,36.36,75.76,37.72,75.19-28.6-79.07-27.22-79.6,31.7,77.83,33.09,77.34-23.82-80.63-22.42-81.08,27.06,79.57,28.48,79.16-19.08-81.89-17.65-82.25,22.41,81,23.85,80.67-14.35-82.85-12.9-83.13,17.77,82.14,19.23,81.9-9.67-83.52-8.21-83.72,13.17,83,14.64,82.84-5-83.93-3.57-84,8.6,83.6,10.07,83.52-.46-84.08,1-84.12,4.06,83.94,5.54,83.94,4.07-84,5.54-83.94-.45,84,1,84.12,8.6-83.64,10.06-83.52-5,83.89-3.56,84.05,13.18-83,14.64-82.84-9.66,83.48-8.21,83.72,17.79-82.18,19.23-81.9-14.33,82.81-12.9,83.13,22.43-81,23.85-80.67-19,81.85-17.65,82.25,27.08-79.6,28.48-79.16-23.8,80.6-22.42,81.09,31.73-77.87,33.1-77.34-28.58,79-27.23,79.59,36.39-75.8,37.72-75.19-33.37,77.13-32,77.78,41-73.4,42.32-72.71-38.17,74.87-36.9,75.6,45.65-70.61,46.9-69.84-43,72.22-41.76,73,50.25-67.42,51.44-66.56-47.77,69.13-46.61,70,54.78-63.79,55.91-62.86-52.52,65.6-51.42,66.58,59.23-59.68,60.29-58.67-57.21,61.55-56.19,62.61,63.56-55,64.54-54-61.78,57-60.85,58.09,67.71-49.87,68.59-48.7-66.17,51.78-65.33,53,71.59-44.09,72.38-42.85-70.32,46-69.58,47.26,75.14-37.73,75.81-36.43-74.1,39.58-73.49,40.91,78.25-30.79,78.8-29.43-77.43,32.6-76.94,34,80.78-23.33,81.2-21.92-80.18,25.09-79.82,26.51,82.65-15.46,82.93-14-82.23,17.19-82,18.64,83.76-7.32,83.9-5.86-83.52,9.07-83.45,10.54S1886,161,1886,162.43Z"/><circle class="cls-7" cx="1664.82" cy="131.09" r="5.14"/><circle class="cls-7" cx="1727.49" cy="134.83" r="5.14"/><ellipse class="cls-7" cx="1692.37" cy="183.02" rx="17.5" ry="13.92"/><g id="cloud1" class="cls-8"><ellipse class="cls-7" cx="152.74" cy="155.93" rx="88.5" ry="70"/><ellipse class="cls-7" cx="241.74" cy="127.43" rx="66.5" ry="58.5"/><ellipse class="cls-7" cx="213.74" cy="234.93" rx="85.5" ry="67"/><ellipse class="cls-7" cx="106.24" cy="257.93" rx="55" ry="105" transform="translate(-166.14 197.76) rotate(-55.16)"/></g><g id="cloud2"><ellipse class="cls-7" cx="720.74" cy="163.03" rx="96.5" ry="79.11"/><ellipse class="cls-7" cx="804.24" cy="185.93" rx="83" ry="56"/><ellipse class="cls-7" cx="691.74" cy="256.43" rx="96.5" ry="43.5"/><ellipse class="cls-7" cx="885.74" cy="250.43" rx="121.5" ry="49.5"/><ellipse class="cls-7" cx="840.24" cy="163.43" rx="67" ry="49.5"/></g><g id="cloud3" class="cls-9"><ellipse class="cls-7" cx="1255.74" cy="135.93" rx="108.5" ry="64"/><ellipse class="cls-7" cx="1394.74" cy="185.93" rx="74.5" ry="60"/><ellipse class="cls-7" cx="1280.74" cy="208.93" rx="73.5" ry="46"/></g><g id="bridge"><path class="cls-10" d="M220.09,1079.78c-1.31,1.33-1.72,0-3.6,0s-1.87-.55-3.75-.55-1.87-1.1-3.74-1.1-1.88,1.46-3.75,1.46-1.87-2.2-3.75-2.2-1.87.1-3.75.1-1.87,3.45-3.75,3.45-1.87,2-3.75,2-1.87-2.49-3.75-2.49-1.87-2.89-3.75-2.89-1.88,2.65-3.75,2.65-2.43,1.07-3.76-.26-.1-1.89-.1-3.79,1.73-1.9,1.73-3.79-.89-1.9-.89-3.8-2.25-1.89-2.25-3.79,1.78-1.89,1.78-3.79,1.47-1.89,1.47-3.79-3.79-1.89-3.79-3.79,1.41-1.9,1.41-3.79,2.9-1.9,2.9-3.8-4.43-1.89-4.43-3.79,2.35-1.9,2.35-3.79-.31-1.9-.31-3.8-2.74-1.89-2.74-3.79,1.31-1.89,1.31-3.79-.84-1.9-.84-3.8,3.06-1.9,3.06-3.79-3.35-1.9-3.35-3.8,5.48-1.89,5.48-3.79-3-1.9-3-3.79.62-1.9.62-3.8-.48-1.9-.48-3.8,1.26-1.89,1.26-3.79,1.46-1.9,1.46-3.8-2-1.89-2-3.79-2.08-1.9-2.08-3.8,3.19-1.9,3.19-3.79-2.88-1.9-2.88-3.8-1.18-1.9-1.18-3.8,2.4-1.89,2.4-3.79-1.48-1.9-1.48-3.8.94-1.9.94-3.8,3-1.9,3-3.79-1.67-1.9-1.67-3.8-1.73-1.9-1.73-3.8,2.25-1.9,2.25-3.8-2.11-1.89-2.11-3.79-.13-1.9-.13-3.8,2.28-1.89,2.28-3.79-2.3-1.9-2.3-3.8-1.89-1.9-1.89-3.8.77-1.89.77-3.79-.8-1.9-.8-3.8,4.69-1.9,4.69-3.8-4.47-1.9-4.47-3.8.12-1.9.12-3.8,2.3-1.9,2.3-3.8,2.83-1.9,2.83-3.8-4.78-1.91-4.78-3.81,2.74-.52,4.07-1.87-.09-3.75,1.78-3.75,1.88-.29,3.75-.29,1.88-.5,3.75-.5,1.87.39,3.75.39,1.87.5,3.75.5,1.87,2.09,3.75,2.09,1.87,1.16,3.75,1.16,1.87-4.52,3.75-4.52,1.87,2.52,3.75,2.52,1.87-1.21,3.75-1.21,1.87,4.34,3.75,4.34,4.09-5.64,5.41-4.3-2.92,3.53-2.92,5.43-.7,1.9-.7,3.79,3.91,1.9,3.91,3.8-.23,1.89-.23,3.79-2.19,1.89-2.19,3.79,2.2,1.89,2.2,3.79-1.23,1.89-1.23,3.79,1.58,1.9,1.58,3.79-.62,1.9-.62,3.8,1,1.89,1,3.79-5,1.9-5,3.79.2,1.9.2,3.8.55,1.89.55,3.79,3.77,1.89,3.77,3.79-2.94,1.9-2.94,3.8,1,1.9,1,3.79,2.43,1.9,2.43,3.8-1.16,1.89-1.16,3.79-3.88,1.9-3.88,3.79,2.42,1.9,2.42,3.8,1.33,1.9,1.33,3.8-1.43,1.89-1.43,3.79.43,1.9.43,3.8-.26,1.89-.26,3.79-1,1.9-1,3.8,3,1.9,3,3.79-3.13,1.9-3.13,3.8,4,1.9,4,3.8-.72,1.89-.72,3.79.23,1.9.23,3.8-1.42,1.9-1.42,3.8,1.52,1.9,1.52,3.79-4.52,1.9-4.52,3.8-.56,1.9-.56,3.8,4.09,1.9,4.09,3.8-.15,1.89-.15,3.79-3,1.9-3,3.8,3.07,1.89,3.07,3.79-.88,1.9-.88,3.8,0,1.9,0,3.8-2.59,1.89-2.59,3.79,4.07,1.9,4.07,3.8.47,1.9.47,3.8,0,1.9,0,3.8-2.5,1.9-2.5,3.8-1.11,1.9-1.11,3.8,2.84,1.9,2.84,3.8.59,1.45,1,3.32S221.42,1078.42,220.09,1079.78Z"/><path class="cls-10" d="M1926.46,1102.15c-1.54,1.54-3.4-1.82-5.58-1.82s-2.18-.73-4.36-.73-2.18-1.81-4.36-1.81-2.18,5.52-4.37,5.52-2.18-5.18-4.36-5.18-2.18,1.18-4.36,1.18-2.18,1.44-4.36,1.44-2.19,1.42-4.37,1.42-2.18-4.08-4.36-4.08-2.19,3.92-4.37,3.92-5.23,2.88-6.78,1.34.61-4.6.61-6.77-.81-2.17-.81-4.34,1.35-2.18,1.35-4.35,4.53-2.17,4.53-4.34-2.46-2.18-2.46-4.35-1.84-2.17-1.84-4.34-.72-2.18-.72-4.35,4.44-2.17,4.44-4.34-.46-2.17-.46-4.34-3.29-2.17-3.29-4.34,4.36-2.17,4.36-4.34-5-2.17-5-4.34,3.37-2.18,3.37-4.35.54-2.17.54-4.34.41-2.17.41-4.34-1.19-2.18-1.19-4.35-1-2.17-1-4.34-2.87-2.17-2.87-4.35,5.88-2.17,5.88-4.34-1.42-2.17-1.42-4.34-2.85-2.17-2.85-4.35-2.15-2.17-2.15-4.34,5.7-2.17,5.7-4.35-1.6-2.17-1.6-4.34-2.94-2.18-2.94-4.35,4.23-2.17,4.23-4.34-2.94-2.18-2.94-4.35,2.32-2.17,2.32-4.35-2.56-2.17-2.56-4.34-1.51-2.18-1.51-4.35-.84-2.17-.84-4.34,4.05-2.18,4.05-4.35-1.68-2.18-1.68-4.35,3.55-2.17,3.55-4.35-6.09-2.17-6.09-4.34,5.54-2.18,5.54-4.35.58-2.18.58-4.35-2-2.17-2-4.35-3.45-2.17-3.45-4.35.38-2.17.38-4.34,4.22-2.18,4.22-4.35-2-2.17-2-4.35-2.78-2.17-2.78-4.34,1.44-2.18,1.44-4.35-.47-2.18-.47-4.35,2.78-2.18,2.78-4.35.14-2.18.14-4.35.85-2.18.85-4.35-.32-2.17-.32-4.35-.9-2.18-.9-4.35-3.1-2.18-3.1-4.36,1.51-2.15,3.05-3.69,1.52-.28,3.7-.28,2.18,2.32,4.36,2.32,2.18-2,4.36-2,2.18.35,4.36.35,2.18-2.33,4.37-2.33,2.18.78,4.36.78,2.18.38,4.36.38,2.18-1.09,4.36-1.09,2.19,2.33,4.37,2.33,2.18-.27,4.37-.27,1.55-1.14,3.1.4-.21.9-.21,3.07,1.72,2.17,1.72,4.34,1.94,2.18,1.94,4.35-2.72,2.17-2.72,4.34,2.9,2.18,2.9,4.35-2.06,2.17-2.06,4.34,2.31,2.18,2.31,4.35-.47,2.17-.47,4.34.76,2.17.76,4.34-5.87,2.17-5.87,4.34,4.74,2.17,4.74,4.34-1.29,2.17-1.29,4.35-2.79,2.17-2.79,4.34,3.56,2.17,3.56,4.34-1.58,2.17-1.58,4.34.83,2.18.83,4.35-3.07,2.17-3.07,4.34,5,2.17,5,4.35-3.89,2.17-3.89,4.34-.13,2.17-.13,4.34,4.73,2.18,4.73,4.35-2.7,2.17-2.7,4.34,1.38,2.18,1.38,4.35-2.85,2.17-2.85,4.34,1.29,2.18,1.29,4.35-3,2.17-3,4.34,3.82,2.18,3.82,4.35-4.13,2.17-4.13,4.35,1.25,2.17,1.25,4.34-1.18,2.18-1.18,4.35,4.83,2.17,4.83,4.34-2.82,2.18-2.82,4.35-2.34,2.18-2.34,4.35.23,2.17.23,4.35,1.13,2.17,1.13,4.34,4,2.18,4,4.35.77,2.18.77,4.35-5.53,2.17-5.53,4.35,4.07,2.17,4.07,4.35-2.45,2.17-2.45,4.34,2.35,2.18,2.35,4.35-1.27,2.17-1.27,4.35,1.21,2.17,1.21,4.34,1.35,2.18,1.35,4.35-1.37,2.18-1.37,4.35.45,2.18.45,4.35-.13,2.18-.13,4.35.63,2.18.63,4.35-1.42,2.17-1.42,4.35-.76,2.18-.76,4.35-2.94,3-2.26,5.09C1924,1100.19,1928,1100.61,1926.46,1102.15Z"/><path class="cls-10" d="M563.89,1087.6c-1.54,1.51-3.8-3.3-6-3.3s-2.15,2.44-4.3,2.44-2.15-2-4.31-2-2.15,1.75-4.3,1.75-2.15-.42-4.3-.42-2.16-3.37-4.31-3.37-2.16,3.9-4.31,3.9-2.15.77-4.31.77-2.15-2.29-4.31-2.29-2.15-1.62-4.3-1.62-2.16,4.7-4.31,4.7-2.16-.53-4.32-.53-1.44-1.59-3-3.1-2-.75-2-2.86.31-2.11.31-4.22.14-2.11.14-4.22,2.67-2.11,2.67-4.22-3.78-2.12-3.78-4.23,3.73-2.11,3.73-4.22-.8-2.12-.8-4.23-.55-2.11-.55-4.22-3.26-2.11-3.26-4.22,2.29-2.12,2.29-4.23-1.9-2.11-1.9-4.23.2-2.11.2-4.22.73-2.11.73-4.22-.81-2.12-.81-4.23,4.52-2.11,4.52-4.23-1.14-2.11-1.14-4.22-.7-2.12-.7-4.23,1-2.11,1-4.22.34-2.12.34-4.23.24-2.12.24-4.23-2.32-2.11-2.32-4.23-.32-2.11-.32-4.22,2.53-2.12,2.53-4.23-4.61-2.11-4.61-4.23,5.23-2.11,5.23-4.23-2.56-2.11-2.56-4.22-2.49-2.12-2.49-4.23.46-2.12.46-4.23-1.85-2.12-1.85-4.23,5.34-2.11,5.34-4.23-2.06-2.11-2.06-4.22,2.35-2.12,2.35-4.23-3.2-2.11-3.2-4.23-.84-2.11-.84-4.23,1.5-2.11,1.5-4.22,3.14-2.12,3.14-4.23-3.34-2.12-3.34-4.23-1.94-2.12-1.94-4.23,0-2.12,0-4.24-.2-2.11-.2-4.23,2.16-2.11,2.16-4.23,1.72-2.11,1.72-4.23-.61-2.12-.61-4.24-3.62-4.22-2.11-5.71,3.6,2.48,5.75,2.48,2.15-1.77,4.31-1.77,2.15-1.84,4.3-1.84,2.15,5.46,4.31,5.46,2.15-5.06,4.3-5.06,2.16-.05,4.31-.05,2.15,4.74,4.31,4.74,2.15-2.42,4.31-2.42,2.15-2.49,4.3-2.49,2.16,4,4.31,4,2.16-4.91,4.31-4.91,2.16,1.46,4.31,1.46.62,2.54,2.16,4,2.95-.09,2.95,2,1.83,2.11,1.83,4.22.19,2.11.19,4.22-2.51,2.11-2.51,4.22-1.18,2.12-1.18,4.23-2.41,2.11-2.41,4.22,1.42,2.12,1.42,4.23,2.47,2.11,2.47,4.22,2.08,2.11,2.08,4.22-5.36,2.12-5.36,4.23.26,2.11.26,4.23,2.41,2.11,2.41,4.22-2.89,2.11-2.89,4.22.2,2.12.2,4.23,3.47,2.11,3.47,4.23,2.13,2.11,2.13,4.22.32,2.12.32,4.23-4.23,2.11-4.23,4.22-2,2.12-2,4.23,1.79,2.12,1.79,4.23.79,2.11.79,4.23,2,2.11,2,4.22-1.24,2.12-1.24,4.23,2.91,2.11,2.91,4.23-.5,2.11-.5,4.23-2.89,2.11-2.89,4.22,1.14,2.12,1.14,4.23-3.88,2.12-3.88,4.23,3,2.12,3,4.23,2.34,2.11,2.34,4.23-5.27,2.11-5.27,4.22,4,2.12,4,4.23,1.06,2.11,1.06,4.23-.4,2.11-.4,4.23.75,2.11.75,4.22-3.28,2.12-3.28,4.23-2.73,2.12-2.73,4.23,1,2.12,1,4.23,1.55,2.12,1.55,4.24,1.62,2.11,1.62,4.23,2.27,2.11,2.27,4.23-4.46,2.11-4.46,4.23-1.37,3-.64,5C561.38,1085.47,565.4,1086.12,563.89,1087.6Z"/><path class="cls-10" d="M1239.32,1081c-1.24,1.27-2.85-2.34-4.63-2.34s-1.77,4.09-3.54,4.09-1.77-4.49-3.54-4.49-1.77-1-3.55-1-1.77,4.33-3.54,4.33-1.77-1.16-3.54-1.16-1.77-2.37-3.55-2.37-1.77.53-3.54.53-1.77,4.14-3.55,4.14-1.77-.74-3.55-.74-2-1.1-3.26-2.37,2.47-1.53,2.47-3.34-1.67-1.81-1.67-3.63,0-1.81,0-3.62,1.6-1.81,1.6-3.62-4.78-1.81-4.78-3.63.49-1.81.49-3.62.17-1.82.17-3.63,2.43-1.82,2.43-3.63-1.68-1.81-1.68-3.63.25-1.81.25-3.62,1.39-1.81,1.39-3.63-1.18-1.81-1.18-3.62,1.73-1.81,1.73-3.63-.71-1.81-.71-3.63-1.84-1.81-1.84-3.63.92-1.81.92-3.62.81-1.82.81-3.63-2-1.81-2-3.63,1.83-1.81,1.83-3.62.73-1.82.73-3.63.4-1.82.4-3.63-3.09-1.82-3.09-3.63-.55-1.82-.55-3.63,2-1.81,2-3.63.15-1.81.15-3.63-2.64-1.81-2.64-3.63,4.41-1.81,4.41-3.63-2.39-1.81-2.39-3.63,1.69-1.81,1.69-3.63-1.78-1.81-1.78-3.63-1.14-1.81-1.14-3.63,1.6-1.81,1.6-3.63-1.73-1.81-1.73-3.63-1-1.81-1-3.63,3.81-1.82,3.81-3.63,1-1.82,1-3.63-.67-1.82-.67-3.63.92-1.82.92-3.64-3.54-1.81-3.54-3.63,4-1.81,4-3.63-1.33-1.81-1.33-3.63-2-1.81-2-3.63,2.81-1.81,2.81-3.63-1.75-1.81-1.75-3.63,2-1.81,2-3.63-3.37-1.82-3.37-3.63-1.6-1.82-1.6-3.64.64-1.81.64-3.63-.63-1.82-.63-3.63,3.62-1.82,3.62-3.64-2.56-1.81-2.56-3.63,1.81-1.82,1.81-3.63-1.2-1.82-1.2-3.64,1.65-.39,2.92-1.69-.23-1.61,1.54-1.61,1.77-2.23,3.54-2.23,1.78.15,3.55.15,1.77-1,3.54-1,1.77,5,3.55,5,1.77-2.06,3.54-2.06,1.77-3,3.54-3,1.78,5.2,3.55,5.2,1.77-2.63,3.54-2.63,1.78,1.24,3.56,1.24.67-.72,1.92.55,3.83.22,3.83,2-3,1.81-3,3.63-1.74,1.81-1.74,3.62,1.15,1.81,1.15,3.62,1.17,1.81,1.17,3.63,1.7,1.81,1.7,3.62-4,1.82-4,3.63.94,1.82.94,3.63,2.37,1.81,2.37,3.63-3.56,1.81-3.56,3.62,5.55,1.81,5.55,3.63-4.64,1.81-4.64,3.62,1.83,1.81,1.83,3.63,1.4,1.81,1.4,3.63.73,1.81.73,3.63-2.14,1.81-2.14,3.62-.25,1.82-.25,3.63,2.23,1.81,2.23,3.63-1.39,1.81-1.39,3.62-1.33,1.82-1.33,3.63,3.46,1.82,3.46,3.63-3.72,1.82-3.72,3.63,2.8,1.82,2.8,3.63-3.91,1.81-3.91,3.63.33,1.81.33,3.63,4.41,1.81,4.41,3.63-.51,1.81-.51,3.63,0,1.81,0,3.63-2.49,1.81-2.49,3.63,1.53,1.81,1.53,3.63-3.37,1.81-3.37,3.63,1.41,1.81,1.41,3.63-2,1.81-2,3.63.78,1.81.78,3.63-.47,1.82-.47,3.63,4.41,1.82,4.41,3.63-3.78,1.82-3.78,3.63,3.42,1.82,3.42,3.64-.77,1.81-.77,3.63,0,1.81,0,3.63.15,1.81.15,3.63-2.52,1.81-2.52,3.63-.73,1.81-.73,3.63,1.2,1.81,1.2,3.63,2.82,1.81,2.82,3.63-1.33,1.82-1.33,3.63,2.37,1.82,2.37,3.64-5.47,1.81-5.47,3.63,2,1.82,2,3.63,1,1.82,1,3.64-.75,1.81-.75,3.63-1.53,1.82-1.53,3.63,1.18,2,1.76,3.72C1238.82,1078.79,1240.59,1079.67,1239.32,1081Z"/><path class="cls-10" d="M1572.36,1085.05c-1.33,1.29-2,2.26-3.82,2.26s-1.85-2.58-3.69-2.58-1.85-1.13-3.7-1.13-1.85,3.86-3.7,3.86-1.85-2.47-3.7-2.47-1.85,1.81-3.7,1.81-1.85.49-3.7.49-1.85-1-3.7-1-1.85,1.27-3.71,1.27-1.38-2.4-2.71-3.68-3-.78-3-2.57.48-1.8.48-3.59,1.64-1.79,1.64-3.58-1.1-1.79-1.1-3.59,1.36-1.79,1.36-3.58-.41-1.79-.41-3.58,2.82-1.79,2.82-3.59-4.16-1.79-4.16-3.58,4.09-1.8,4.09-3.59-3.22-1.8-3.22-3.59-.64-1.79-.64-3.59,1.8-1.79,1.8-3.58-2.53-1.79-2.53-3.58,1.91-1.8,1.91-3.59,1.9-1.79,1.9-3.59-3.65-1.79-3.65-3.59.47-1.79.47-3.58-.73-1.8-.73-3.59,2.34-1.79,2.34-3.59-.6-1.79-.6-3.58,2.37-1.8,2.37-3.59-1.94-1.8-1.94-3.59,1.52-1.8,1.52-3.59-4.24-1.79-4.24-3.59,1-1.79,1-3.59,1.22-1.79,1.22-3.58-2.07-1.8-2.07-3.6.62-1.79.62-3.59,2.41-1.79,2.41-3.58.78-1.8.78-3.59-1.94-1.8-1.94-3.59.62-1.8.62-3.59-2.51-1.8-2.51-3.59.54-1.8.54-3.59.65-1.8.65-3.59,3.11-1.8,3.11-3.6-2.67-1.79-2.67-3.59-1.18-1.79-1.18-3.59,3.92-1.79,3.92-3.59-3.61-1.79-3.61-3.59,1.59-1.79,1.59-3.59-.15-1.79-.15-3.59-.51-1.79-.51-3.58,2.65-1.8,2.65-3.6-.77-1.79-.77-3.59-1.94-1.79-1.94-3.59,2-1.79,2-3.59-2.14-1.8-2.14-3.59-.5-1.8-.5-3.6,3.73-1.79,3.73-3.59-1.27-1.8-1.27-3.59-.41-1.8-.41-3.6.48-1.79.48-3.59-2.42-1.8-2.42-3.59-.94-1.8-.94-3.6-.34-3.77.95-5,3.23.22,5.07.22,1.85,1.84,3.7,1.84,1.85-.75,3.7-.75,1.85,2.44,3.7,2.44,1.85-4.61,3.7-4.61,1.85,2.42,3.7,2.42,1.85-2.54,3.7-2.54,1.85,1.71,3.7,1.71,1.85-.89,3.7-.89,3.36-.73,4.69.56.76,2.81.76,4.6-.41,1.8-.41,3.59,1,1.79,1,3.58.34,1.79.34,3.59-3.09,1.79-3.09,3.58,1.06,1.79,1.06,3.58,1.8,1.79,1.8,3.59-4,1.79-4,3.58-.39,1.8-.39,3.59,4.69,1.8,4.69,3.59-1,1.79-1,3.59.45,1.79.45,3.58-2.56,1.79-2.56,3.58,1.12,1.8,1.12,3.59-.88,1.79-.88,3.59,1.45,1.79,1.45,3.59,1,1.79,1,3.58-2.35,1.8-2.35,3.59-1.31,1.8-1.31,3.59-.17,1.79-.17,3.58.21,1.8.21,3.59,2.28,1.8,2.28,3.59-1.13,1.8-1.13,3.59.56,1.79.56,3.59.06,1.79.06,3.59-2.82,1.79-2.82,3.58,2.15,1.8,2.15,3.6-.32,1.79-.32,3.59,1.3,1.79,1.3,3.58-3.08,1.8-3.08,3.59,4.24,1.8,4.24,3.59.49,1.8.49,3.59-4.44,1.8-4.44,3.59,4.17,1.8,4.17,3.59.11,1.8.11,3.59-3.8,1.8-3.8,3.6-.11,1.79-.11,3.59,3.43,1.79,3.43,3.59.93,1.79.93,3.59-2.64,1.79-2.64,3.59,2.68,1.79,2.68,3.59-2,1.79-2,3.59,1.44,1.79,1.44,3.59-4,1.79-4,3.59,4.15,1.79,4.15,3.59-1.12,1.79-1.12,3.59-3.61,1.79-3.61,3.59,1.6,1.8,1.6,3.59.74,1.8.74,3.6-1.76,1.79-1.76,3.59,2.84,1.8,2.84,3.59.62,1.8.62,3.6.38,1.79.38,3.59-3.94,1.8-3.94,3.59-.8,2.39-.39,4.15C1570.36,1083.81,1573.65,1083.79,1572.36,1085.05Z"/><path class="cls-10" d="M901.25,1079c-1.36,1.4,0,.85-1.92.85s-2-1.43-3.92-1.43-1.95,2.09-3.91,2.09-2,2.64-3.92,2.64-2-.44-3.91-.44-2-4.7-3.92-4.7-2,2-3.92,2-2,.19-3.91.19-2,2.32-3.92,2.32-2-2.27-3.91-2.27-2,3.55-3.93,3.55-1.28-2.77-2.65-4.17-.45-.78-.45-2.8,2-2,2-4-2.83-2-2.83-4,2.21-2,2.21-4-2.3-2-2.3-4,2.07-2,2.07-4-3.32-2-3.32-4,1.66-2,1.66-4-2.46-2-2.46-4,4.22-2,4.22-4-3.36-2-3.36-4,1-2,1-4,.88-2,.88-4-1.26-2-1.26-4,3.13-2,3.13-4-2.58-2-2.58-4-.44-2-.44-4-.59-2-.59-4,4.14-2,4.14-4-4.66-2-4.66-4-.9-2-.9-4,.66-2,.66-4-.22-2-.22-4-.48-2-.48-4,3.15-2,3.15-4-1.07-2-1.07-4-.5-2-.5-4,.79-2,.79-4,.51-2,.51-4,2-2,2-4-3.16-2-3.16-4-.39-2-.39-4,3.68-2,3.68-4-4.91-2-4.91-4,2.31-2,2.31-4-1.72-2-1.72-4.05,2-2,2-4-.58-2-.58-4-2.22-2-2.22-4,.68-2,.68-4-.07-2-.07-4-1-2-1-4,2-2,2-4,1.33-2,1.33-4-3-2-3-4-.22-2-.22-4,1.28-2,1.28-4,2.84-2,2.84-4-3-2-3-4,2.29-.94,3.7-2.39.23.55,2.19.55,2-1.37,3.92-1.37,1.95-1,3.91-1,2-1.8,3.91-1.8,2,.29,3.92.29,2-1.47,3.92-1.47,1.95,6,3.91,6,2,.09,3.92.09,2-3.11,3.91-3.11,2,2,3.92,2,2-1.77,3.93-1.77,3.59-2.53,4.95-1.12-2.79,3-2.79,5,3.29,2,3.29,4-2.19,2-2.19,4,2.15,2,2.15,4-3.9,2-3.9,4,4.41,2,4.41,4-4.46,2-4.46,4,2.31,2,2.31,4-.8,2-.8,4,1.09,2,1.09,4-1.37,2-1.37,4,.28,2,.28,4,3,2,3,4-2.73,2-2.73,4,2.86,2,2.86,4-.31,2-.31,4-.38,2-.38,4-4.1,2-4.1,4,1.08,2,1.08,4-.56,2-.56,4,1.61,2,1.61,4,3.14,2,3.14,4-.26,2-.26,4-2.68,2-2.68,4,1,2,1,4,2.32,2,2.32,4-1.43,2-1.43,4-.13,2-.13,4,.25,2,.25,4-.55,2-.55,4-.51,2-.51,4-.55,2-.55,4,1.54,2,1.54,4-1.12,2-1.12,4,2.44,2,2.44,4-5.6,2-5.6,4,1.8,2,1.8,4,3.86,2,3.86,4-2.92,2-2.92,4,.45,2,.45,4,2.32,2,2.32,4-3.23,2-3.23,4-2.64,2-2.64,4,1.16,2,1.16,4.05,3.32,2,3.32,4,.59,2,.59,4-.2,2-.2,4-3.21,2-3.21,4-1.06,1.72-1.31,3.73C900.4,1078,902.66,1077.55,901.25,1079Z"/><path class="cls-11" d="M1947.14,943.47c-11.93,13.3-13.08,10.45-31,10.45s-17.86,3.62-35.73,3.62-17.87-12.73-35.73-12.73-17.87,12.32-35.74,12.32-17.86-21.33-35.73-21.33-17.87,14-35.74,14-17.86-1.8-35.73-1.8-17.87,9.87-35.74,9.87-17.86-15.72-35.73-15.72-17.87-2.35-35.74-2.35-17.86,18.31-35.73,18.31S1541,938,1523.11,938s-17.86-1.49-35.73-1.49-17.87,2.47-35.74,2.47-17.86,4.25-35.73,4.25-17.87,6.53-35.74,6.53-17.86-5.85-35.73-5.85-17.87-4.16-35.74-4.16S1290.83,956,1273,956s-17.87-7.82-35.74-7.82-17.87,8.4-35.74,8.4-17.86-7.89-35.73-7.89-17.87-5.54-35.74-5.54-17.87,14.9-35.73,14.9-17.87-8.75-35.74-8.75-17.87-7.56-35.74-7.56-17.87,5.52-35.74,5.52-17.86,11.63-35.73,11.63-17.87-21.64-35.74-21.64-17.87,22.08-35.74,22.08S862,943.41,844.13,943.41s-17.87,6.9-35.73,6.9-17.87-2.39-35.74-2.39-17.87-2.25-35.74-2.25-17.86,10.62-35.73,10.62-17.87-3.6-35.73-3.6-17.87,6-35.74,6S611.85,957.4,594,957.4s-17.87-18.28-35.74-18.28-17.87,10.32-35.74,10.32-17.87-13.66-35.74-13.66-17.87,1.7-35.74,1.7-17.86,3.3-35.73,3.3-17.87,17.48-35.74,17.48-17.87-3.52-35.74-3.52S326,944.16,308.08,944.16s-17.87,2.12-35.74,2.12-17.87,3.38-35.74,3.38-17.86-12.15-35.73-12.15S183,959,165.13,959s-17.88-18.25-35.75-18.25-17.87,3-35.74,3-17.87,2.87-35.74,2.87-17.87.14-35.75.14S2.41,957.42-9.53,944.12c-13.3-14.81-12.09-16.25-12.09-36.16s-5.13-24.87,8.16-39.68c11.94-13.3,17.73,6.93,35.6,6.93S40,861.6,57.87,861.6s17.87.73,35.74.73,17.86-2.08,35.73-2.08,17.87,19,35.73,19,17.87-4.85,35.74-4.85,17.87-11.72,35.73-11.72,17.87-5.37,35.74-5.37S290.15,870,308,870s17.87-3.15,35.74-3.15S361.62,880,379.48,880s17.87-19.07,35.74-19.07,17.87,12,35.73,12,17.87,1.48,35.74,1.48,17.87-11.58,35.73-11.58,17.87-3.34,35.74-3.34S576,878.64,593.9,878.64s17.86-22.42,35.73-22.42,17.87,2.19,35.74,2.19,17.87,1.08,35.73,1.08,17.87,3.45,35.74,3.45S754.71,859,772.58,859s17.86,12.5,35.73,12.5,17.87-10.21,35.74-10.21,17.87-.12,35.73-.12,17.87,17.7,35.74,17.7,17.87-3.68,35.74-3.68,17.87-3.1,35.74-3.1,17.87-15.2,35.73-15.2,17.87,11.68,35.74,11.68,17.87,2.42,35.74,2.42,17.86-2.32,35.73-2.32,17.86,10.87,35.73,10.87,17.87-11.78,35.74-11.78,17.87-8.63,35.73-8.63,17.87,14.62,35.74,14.62,17.87,4.85,35.73,4.85,17.87-16.06,35.74-16.06,17.87-6.13,35.73-6.13,17.87,10,35.74,10,17.87-.82,35.74-.82,17.87-8.84,35.74-8.84,17.87,14.17,35.74,14.17,17.87-12.13,35.73-12.13,17.87,8,35.74,8,17.87-9.68,35.74-9.68,17.87,17.7,35.74,17.7,17.87-15.63,35.74-15.63,17.87,7.24,35.74,7.24,17.87,4.19,35.74,4.19,17.87,5.88,35.74,5.88,17.87-14.36,35.74-14.36,17.87-3.18,35.74-3.18,17.88,21,35.75,21,23-24.44,35-11.15c13.3,14.81-7.11,20.12-4.34,39.83C1949.43,927.33,1960.44,928.66,1947.14,943.47Z"/></g><g id="DEVILCOWSBAD"><ellipse class="cls-12" cx="1225.44" cy="551.72" rx="9.34" ry="9.55"/><g id="devilcow"><polygon class="cls-13" points="1159.97 317.54 1161.6 316.13 1161.12 314.04 1159.02 313.35 1157.4 314.76 1157.87 316.86 1159.97 317.54"/><polygon class="cls-14" points="1153.08 326.56 1155.34 324.45 1154.88 321.38 1152.16 320.44 1149.91 322.55 1150.37 325.62 1153.08 326.56"/><polygon class="cls-13" points="1110.15 304.29 1112.6 302.05 1111.94 298.8 1108.85 297.79 1106.41 300.03 1107.06 303.28 1110.15 304.29"/><polygon class="cls-14" points="1102.77 314.53 1105.21 312.3 1104.56 309.05 1101.47 308.03 1099.03 310.27 1099.67 313.52 1102.77 314.53"/><polygon class="cls-7" points="1210.83 291.11 1204.77 292.45 1196.71 252.18 1202.77 250.84 1210.83 291.11"/><rect class="cls-7" x="1112.37" y="274.02" width="4.71" height="27.82" transform="translate(144.67 -332.16) rotate(18.11)"/><rect class="cls-7" x="1104.86" y="273.09" width="6.58" height="38.81" transform="translate(145.77 -329.89) rotate(18.11)"/><rect class="cls-7" x="1154.96" y="290.85" width="5.84" height="33.25" transform="translate(152.88 -344.61) rotate(18.11)"/><rect class="cls-7" x="1161.94" y="292.02" width="3.46" height="24.06" transform="translate(152.11 -346.57) rotate(18.11)"/><polygon class="cls-15" points="1087.72 187.7 1088.86 189.79 1096.41 185.46 1095.28 183.37 1087.72 187.7"/><polygon class="cls-15" points="1133.68 200.87 1131.81 202.35 1127.34 196.43 1129.22 194.95 1133.68 200.87"/><polygon class="cls-15" points="1094.3 211.81 1105.16 207.69 1102.4 219.15 1116.05 201.96 1129.54 193.26 1127.11 186.75 1138.21 169.92 1123.06 183.08 1116.43 181.38 1109.49 196.03 1094.3 211.81"/><polygon class="cls-15" points="1120.96 226.5 1111.51 215.27 1104.17 228.26 1103.54 202.45 1095.17 185 1104.23 180.27 1106.4 156.5 1112.63 179.4 1122.34 182.16 1117.13 201.03 1120.96 226.5"/><rect class="cls-7" x="1093.43" y="233.27" width="103.7" height="51.65" transform="translate(137.23 -343.08) rotate(18.11)"/><rect class="cls-7" x="1090.9" y="177.85" width="36.66" height="40.3" transform="translate(116.45 -334.91) rotate(18.11)"/><rect class="cls-16" x="1086.72" y="205.26" width="28.09" height="45.98" transform="translate(541.73 1203.58) rotate(-71.89)"/><ellipse class="cls-7" cx="1110.34" cy="229.85" rx="6.17" ry="2.04" transform="translate(546.81 1213.79) rotate(-71.89)"/><ellipse class="cls-7" cx="1094.11" cy="224.55" rx="6.17" ry="2.82" transform="translate(540.67 1194.7) rotate(-71.89)"/><ellipse cx="1104.82" cy="189.28" rx="3.97" ry="2.98" transform="translate(581.57 1180.58) rotate(-71.89)"/><ellipse cx="1117.66" cy="194.62" rx="5.05" ry="3.21" transform="translate(585.35 1196.45) rotate(-71.89)"/><polygon points="1109.53 187.58 1103.98 181.26 1104.69 180.62 1110.24 186.94 1109.53 187.58"/><polygon points="1123.05 187.14 1113.09 188.62 1112.94 187.46 1122.9 185.98 1123.05 187.14"/><polygon class="cls-15" points="1212.13 294.18 1204.82 295.8 1203.67 290.05 1210.98 288.43 1212.13 294.18"/><path class="cls-17" d="M1138.56,253.6c0,.73-4.29-6.54-4.29-7,0,1.8-7.77.82-7.77,2.84,0-.61,4.83-6.59,4.83-6.62a63.25,63.25,0,0,0-2.27-6.77c0-.33,7.28,1.9,7.28,1.09,0,.32,6.37-3,6.37-5.45,0-.26-.33,8.38-.33,8.75,0,1.36,6.2,3.29,6.2,5.68,0-1.13-7.49,1.22-7.49,1C1141.09,248.28,1138.56,253.42,1138.56,253.6Z"/><path class="cls-17" d="M1155,283.27c0,.8-4.36-2.31-4.36-3.13,0,.53-6.92-1.77-6.92-.37,0-.42,3.79-6.36,3.79-6.33,0-1.23-2.65-4.7-2.65-5.4,0-1.2,6.7.83,6.7-.62,0,2.58,5.29-4.34,5.29-1.66a64.17,64.17,0,0,1,.36,6.46c0-.9,5.91,2.09,5.91,2.62,0-.9-6.49,3.51-6.49,2.15C1156.58,278.05,1155,285.16,1155,283.27Z"/><path class="cls-17" d="M1174.44,260.84c-.54,0,2-5.29,2.54-5.29-.3,0-3.58-5.19-3-5.19-.08,0,5.89.9,5.28.9,0,0,4.22-4.32,5-4.32-.66,0,1.85,5.84,1.08,5.84-1.2,0,4.75,2.52,5.06,2.52-1.26,0-6.62,2.72-5.84,2.72s-.94,5.87-.39,5.87-3.3-4.16-3.27-4.16C1181.42,259.73,1174,260.84,1174.44,260.84Z"/></g><g id="devilcow-2" data-name="devilcow"><polygon class="cls-13" points="1386.06 449.83 1386.05 447.66 1384.13 446.65 1382.23 447.8 1382.25 449.97 1384.16 450.98 1386.06 449.83"/><polygon class="cls-18" points="1388.42 461.01 1388.29 457.89 1385.65 456.23 1383.14 457.69 1383.28 460.8 1385.92 462.46 1388.42 461.01"/><polygon class="cls-13" points="1343.26 479.17 1343.15 475.83 1340.24 474.2 1337.44 475.9 1337.55 479.23 1340.45 480.87 1343.26 479.17"/><polygon class="cls-18" points="1346.23 491.52 1346.13 488.19 1343.22 486.55 1340.42 488.25 1340.52 491.59 1343.43 493.22 1346.23 491.52"/><polygon class="cls-7" points="1399.24 393.66 1396.29 399.17 1360.26 378.9 1363.21 373.39 1399.24 393.66"/><rect class="cls-7" x="1331.4" y="450.94" width="4.75" height="28" transform="translate(-47.83 758.69) rotate(-31.22)"/><rect class="cls-7" x="1329.63" y="453.43" width="6.62" height="39.07" transform="translate(-52.11 759.42) rotate(-31.22)"/><rect class="cls-7" x="1374.06" y="428.08" width="5.87" height="33.47" transform="translate(-31.14 778.18) rotate(-31.22)"/><rect class="cls-7" x="1376.44" y="426.05" width="3.48" height="24.22" transform="translate(-27.52 777.83) rotate(-31.22)"/><polygon class="cls-15" points="1239.53 419.8 1241.87 420.31 1243.52 411.7 1241.19 411.19 1239.53 419.8"/><polygon class="cls-15" points="1279.74 393.36 1279.64 395.76 1272.19 395.28 1272.29 392.88 1279.74 393.36"/><polygon class="cls-15" points="1262.25 430.6 1266.23 419.61 1273.16 429.23 1269 407.54 1271.21 391.53 1264.65 389.11 1259.08 369.6 1259.19 389.79 1253.54 393.74 1260.17 408.64 1262.25 430.6"/><polygon class="cls-15" points="1290.96 419.88 1276.19 419.73 1281.28 433.85 1261.17 417.4 1242.35 412.35 1244.69 402.33 1227.96 385.08 1249.53 395.34 1258.01 389.74 1268.99 406.1 1290.96 419.88"/><rect class="cls-7" x="1279.61" y="396.71" width="104.38" height="51.99" transform="translate(-26.23 751.55) rotate(-31.22)"/><rect class="cls-7" x="1243.05" y="389.86" width="36.9" height="40.56" transform="translate(-29.89 713.3) rotate(-31.22)"/><rect class="cls-16" x="1264.91" y="413.31" width="28.28" height="46.29" transform="translate(1568.79 1756.49) rotate(-121.22)"/><ellipse class="cls-7" cx="1286.55" cy="430.19" rx="2.05" ry="6.22" transform="translate(-36.66 729.18) rotate(-31.22)"/><ellipse class="cls-7" cx="1271.85" cy="439.1" rx="2.84" ry="6.22" transform="matrix(0.86, -0.52, 0.52, 0.86, -43.4, 722.86)"/><ellipse cx="1251.96" cy="407.79" rx="3" ry="4" transform="translate(-30.06 708.01) rotate(-31.22)"/><ellipse cx="1264.45" cy="401.49" rx="3.23" ry="5.09" transform="translate(-24.98 713.57) rotate(-31.22)"/><polygon points="1253.75 403.07 1245.28 403.17 1245.25 402.2 1253.72 402.11 1253.75 403.07"/><polygon points="1262.28 392.46 1256.87 401.04 1255.89 400.39 1261.29 391.81 1262.28 392.46"/><polygon class="cls-15" points="1402.44 394.68 1398.88 401.32 1393.74 398.42 1397.29 391.79 1402.44 394.68"/><path class="cls-17" d="M1324,424.18c0,2.21-7.81-1.8-7.81,1.56,0-3.43-5.12,2.43-5.12,3.51,0,.56-1.61-7.6-1.61-6.15,0-.13-7.25-4.91-7.25-2.55,0-1.35,6.81-5.41,6.81-5.27,0-1.08.64-7.49.64-8.1,0-.81,5.83,3.82,5.83,6.8,0-2.49,7.64-3,7.64-2.43,0-.43-3.21,5.46-3.21,8.05C1320,418.68,1324,424.24,1324,424.18Z"/><path class="cls-17" d="M1357.48,431.57c0-.68-7-1.31-7,.82,0-1.39-4,5.44-4,6.94,0-2.14-2.08-9.95-2.08-7.42,0-.37-6.7-3.2-6.7-2.34,0-2.11,5.73-6,5.73-7.05,0,.73-.09-3.33-.09-4,0-3.15,5.62,4.21,5.62,3.42,0,1.42,6.65-2.25,6.65-4.47,0,1.37-2.26,9.94-2.26,8C1353.28,425.93,1357.48,432.3,1357.48,431.57Z"/><path class="cls-17" d="M1352.78,401.57c-1.16,0-2.11-5.52-2.65-5.52a59.48,59.48,0,0,1-6.37-1.32c.06,0,5.36-3.79,4.3-3.79-.55,0,1.2-5.91-.94-5.91,2,0,6.34,3.18,5.5,3.18,1.57,0,6.69-2.33,6.35-2.33-1.23,0-.85,5.75-3,5.75,1.09,0,4.51,4.47,5.08,4.47.05,0-6.88.37-5.26.37C1356.05,396.47,1353.52,401.57,1352.78,401.57Z"/></g><g id="devilcow-3" data-name="devilcow"><polygon class="cls-13" points="1690.12 386.78 1689.06 385.01 1690.12 383.23 1692.23 383.23 1693.3 385.01 1692.23 386.78 1690.12 386.78"/><polygon class="cls-19" points="1693.71 397.07 1692.29 394.46 1693.62 391.8 1696.38 391.75 1697.81 394.36 1696.47 397.02 1693.71 397.07"/><polygon class="cls-13" points="1739.55 389.55 1737.98 386.78 1739.55 384 1742.67 384 1744.24 386.78 1742.67 389.55 1739.55 389.55"/><polygon class="cls-19" points="1743.23 401.1 1741.67 398.33 1743.23 395.56 1746.36 395.56 1747.92 398.33 1746.36 401.1 1743.23 401.1"/><polygon class="cls-7" points="1651.58 347.47 1656.71 350.5 1676.09 316.15 1670.95 313.12 1651.58 347.47"/><rect class="cls-7" x="1737.98" y="359.89" width="4.53" height="26.71" transform="translate(3480.5 746.5) rotate(180)"/><rect class="cls-7" x="1741.73" y="360.75" width="6.32" height="37.27" transform="translate(3489.79 758.77) rotate(180)"/><rect class="cls-7" x="1692.23" y="362.24" width="5.6" height="31.93" transform="translate(3390.07 756.41) rotate(180)"/><rect class="cls-7" x="1689.11" y="361.81" width="3.32" height="23.1" transform="translate(3381.54 746.72) rotate(180)"/><polygon class="cls-15" points="1794.82 289.82 1793.16 291.38 1787.55 285.18 1789.21 283.61 1794.82 289.82"/><polygon class="cls-15" points="1748.93 288.13 1750.2 290.04 1756.05 285.96 1754.78 284.05 1748.93 288.13"/><polygon class="cls-15" points="1781.62 309.86 1772.94 302.87 1772.04 314.14 1764.71 294.39 1754.99 282.42 1759.14 277.2 1754.04 258.52 1763.94 275.06 1770.5 275.49 1772.46 290.92 1781.62 309.86"/><polygon class="cls-15" points="1752.89 315.31 1764.87 307.89 1767.7 321.93 1775.98 298.56 1788.83 285.13 1781.97 278.11 1787.08 255.77 1774.56 274.81 1764.87 274.43 1764 293.21 1752.89 315.31"/><rect class="cls-7" x="1671.18" y="313.01" width="99.58" height="49.61" transform="translate(3441.95 675.63) rotate(180)"/><rect class="cls-7" x="1754.51" y="273.45" width="35.2" height="38.7" transform="translate(3544.22 585.6) rotate(180)"/><rect class="cls-16" x="1757.32" y="300.86" width="26.98" height="44.16" transform="translate(1447.87 2093.75) rotate(-90)"/><ellipse class="cls-7" cx="1761.59" cy="321.55" rx="1.96" ry="5.93"/><ellipse class="cls-7" cx="1777.99" cy="321.55" rx="2.71" ry="5.93"/><ellipse cx="1778.74" cy="286.16" rx="2.86" ry="3.82"/><ellipse cx="1765.43" cy="287.2" rx="3.08" ry="4.85"/><polygon points="1774.94 283.2 1781.9 279.09 1781.44 278.29 1774.49 282.4 1774.94 283.2"/><polygon points="1762.74 278.76 1771.39 283.08 1771.87 282.07 1763.22 277.75 1762.74 278.76"/><polygon class="cls-15" points="1649.48 349.89 1655.66 353.54 1658.43 348.64 1652.25 344.98 1649.48 349.89"/><path class="cls-17" d="M1728.41,336.53c0-1.17,5.87-5.86,5.87-5.5,0-.88,7.11,1.58,7.11,1.58,0-.92-2.55-6.06-2.55-4.73,0-.13,4.33-6.86,4.33-7.72,0,.22-7.45-1.39-7.45-1.29,0,2.37-4.43-3.05-4.43-5.93,0,2.29-2,8.37-2,9.48,0-.75-7.07,2.19-7.07,2.48,0-.88,6.18,5,6.18,2.15C1728.35,328.67,1728.41,335.31,1728.41,336.53Z"/><path class="cls-17" d="M1704.59,359.34c0,.57,5.6-6.66,5.6-4.9,0-1.77,6.13,3.28,6.13,1.17,0,1.28-1.68-5.28-1.68-6.7,0,1.66,4.36-3.51,4.36-3.41,0,1.69-6.64-.69-6.64.1,0-1.14-3.44-5.33-3.44-6.81,0,1.64-2.43,7.88-2.43,5.73,0-.81-6.47.62-6.47,1.36,0,2.53,5.13,3.58,5.13,7.28C1705.15,349.74,1704.59,359.24,1704.59,359.34Z"/><path class="cls-17" d="M1693.21,330.69c-.42,0-1.33-5.62-.75-5.62,1.59,0,5.08-3.93,5.46-3.93a43.13,43.13,0,0,1-5.53-.89c-.44,0-3-5.14-4.21-5.14,1.71,0-1.11,5.07-2.8,5.07,2.18,0-3.45.75-3.91.75-1.64,0,3.26,4,3.74,4,1,0,0,5.6-1.15,5.6-.1,0,5.55-2.58,5.17-2.58S1693.38,330.69,1693.21,330.69Z"/></g><g id="devilcow-4" data-name="devilcow"><polygon class="cls-13" points="161.11 351.16 160.69 353.53 162.57 355.02 164.88 354.14 165.3 351.77 163.42 350.28 161.11 351.16"/><polygon class="cls-20" points="160.77 338.46 160.29 341.89 162.84 344.24 165.87 343.15 166.35 339.72 163.79 337.37 160.77 338.46"/><polygon class="cls-13" points="213.8 327.67 213.24 331.34 216.09 333.71 219.5 332.42 220.05 328.75 217.2 326.38 213.8 327.67"/><polygon class="cls-20" points="213.02 313.57 212.47 317.23 215.32 319.61 218.72 318.31 219.28 314.64 216.43 312.27 213.02 313.57"/><polygon class="cls-7" points="135.41 409.92 139.75 404.49 175.07 433.88 170.74 439.31 135.41 409.92"/><rect class="cls-7" x="218.67" y="329.57" width="5.28" height="31.13" transform="translate(550.81 589.1) rotate(159.19)"/><rect class="cls-7" x="220.14" y="314.82" width="7.36" height="43.43" transform="translate(552.63 571.56) rotate(159.19)"/><rect class="cls-7" x="166.75" y="339.86" width="6.53" height="37.2" transform="translate(456.3 633.11) rotate(159.19)"/><rect class="cls-7" x="165.44" y="352.04" width="3.87" height="26.92" transform="translate(453.7 647.67) rotate(159.19)"/><polygon class="cls-15" points="315.28 413.41 312.82 412.39 309.29 421.46 311.74 422.49 315.28 413.41"/><polygon class="cls-15" points="266.01 434.25 266.6 431.64 274.65 433.66 274.06 436.27 266.01 434.25"/><polygon class="cls-15" points="292.61 397.04 286.05 408.25 280.4 396.35 280.6 420.9 274.97 437.96 281.65 441.92 283.82 464.37 287.76 442.27 294.73 439.08 290.48 421.46 292.61 397.04"/><polygon class="cls-15" points="259.06 402.99 275.19 406.13 272.45 389.66 291.14 411.69 310.7 420.99 306.13 431.48 320.95 453.69 299.44 438.14 289.04 442.57 280.31 422.48 259.06 402.99"/><rect class="cls-7" x="156.97" y="362.8" width="116.03" height="57.8" transform="translate(555.13 681.45) rotate(159.19)"/><rect class="cls-7" x="268.81" y="397.01" width="41.02" height="45.09" transform="translate(708.84 708.93) rotate(159.19)"/><rect class="cls-16" x="259.7" y="361.54" width="31.43" height="51.45" transform="translate(539.55 -7.79) rotate(69.19)"/><ellipse class="cls-7" cx="265.96" cy="392.61" rx="2.28" ry="6.91" transform="translate(-122.15 120.13) rotate(-20.81)"/><ellipse class="cls-7" cx="283.81" cy="385.82" rx="3.15" ry="6.91" transform="translate(-118.57 126.03) rotate(-20.81)"/><ellipse cx="299.28" cy="424.04" rx="3.33" ry="4.45" transform="translate(-131.15 134.02) rotate(-20.81)"/><ellipse cx="284.36" cy="428.43" rx="3.59" ry="5.65" transform="translate(-133.68 129.01) rotate(-20.81)"/><polygon points="296.38 428.84 305.65 430.44 305.49 431.5 296.22 429.9 296.38 428.84"/><polygon points="284.92 438.73 292.55 430.44 293.5 431.34 285.87 439.63 284.92 438.73"/><polygon class="cls-15" points="132.13 408.16 137.35 401.62 142.39 405.81 137.17 412.36 132.13 408.16"/><path class="cls-17" d="M223.91,389.81c0-.92,8.34,2.57,8.34,2.81,0,1.76,6.79-6.38,6.79-6.49,0,2.33.19,9.63.19,12.69,0-3.21,7.28,4,7.28,4.67,0-3.52-8.21.38-8.21,2.33,0-.72-2.29,5.88-2.29,7.07,0-1.49-5.27-8.17-5.27-8.09,0,1.77-8.7.87-8.7,1.82,0,.32,5-9.31,5-7.48C227,397.61,223.91,391.1,223.91,389.81Z"/><path class="cls-17" d="M188.76,378.41c0-2.25,7.62-1.86,7.62-1.52,0,1.47,5.58-4.64,5.58-4.68a94,94,0,0,1,.9,10c0-1.87,6.88.71,6.88,1.1,0,2.3-7.06,4.73-7.06,3.76a40.8,40.8,0,0,1-1.33,6.14c0,2.43-5.27-3.46-5.27-5.43,0,.94-7.7,1.82-7.7,2.94,0-2.42,3.81-6.1,3.81-8C192.19,383.64,188.76,376.61,188.76,378.41Z"/><path class="cls-17" d="M189.43,410.71c-1.17,0-.36,6.48.68,6.48-1.24,0,4.39,2.6,5.63,2.6,1.46,0-6.72,3.25-5.24,3.25-1.06,0-.14,6.59-.43,6.59-1.06,0-6.48-4.48-5.44-4.48s-4.71,1.47-6.65,1.47c.1,0,3.88-6,3.33-6s-2.42-5.68-3.78-5.68c1.55,0,7.63.76,7.58.76S188.07,410.71,189.43,410.71Z"/></g><g id="devilcow-5" data-name="devilcow"><polygon class="cls-13" points="529.03 38.26 530.25 40.3 529.03 42.34 526.59 42.34 525.37 40.3 526.59 38.26 529.03 38.26"/><polygon class="cls-21" points="524.88 26.41 526.53 29.41 525 32.48 521.82 32.54 520.17 29.54 521.71 26.47 524.88 26.41"/><polygon class="cls-13" points="472.11 35.07 473.91 38.26 472.11 41.45 468.51 41.45 466.71 38.26 468.51 35.07 472.11 35.07"/><polygon class="cls-21" points="467.88 21.77 469.68 24.96 467.88 28.15 464.28 28.15 462.48 24.96 464.28 21.77 467.88 21.77"/><polygon class="cls-7" points="573.39 83.52 567.49 80.03 545.18 119.58 551.09 123.07 573.39 83.52"/><rect class="cls-7" x="468.7" y="38.46" width="5.21" height="30.76"/><rect class="cls-7" x="462.32" y="25.32" width="7.27" height="42.92"/><rect class="cls-7" x="520.14" y="29.75" width="6.45" height="36.76"/><rect class="cls-7" x="526.36" y="40.41" width="3.82" height="26.6"/><polygon class="cls-15" points="408.48 149.9 410.39 148.09 416.85 155.24 414.94 157.04 408.48 149.9"/><polygon class="cls-15" points="461.31 151.84 459.85 149.65 453.12 154.34 454.58 156.54 461.31 151.84"/><polygon class="cls-15" points="423.67 126.82 433.67 134.87 434.71 121.89 443.15 144.64 454.33 158.42 449.55 164.43 455.43 185.93 444.03 166.89 436.48 166.4 434.22 148.63 423.67 126.82"/><polygon class="cls-15" points="456.75 120.54 442.96 129.09 439.7 112.92 430.17 139.84 415.37 155.3 423.27 163.38 417.38 189.1 431.8 167.18 442.96 167.62 443.96 146 456.75 120.54"/><rect class="cls-7" x="436.17" y="66.08" width="114.66" height="57.11"/><rect class="cls-7" x="414.36" y="124.18" width="40.53" height="44.56"/><rect class="cls-16" x="420.59" y="86.34" width="31.06" height="50.84" transform="translate(547.88 -324.36) rotate(90)"/><ellipse class="cls-7" cx="446.74" cy="113.37" rx="2.25" ry="6.83"/><ellipse class="cls-7" cx="427.86" cy="113.37" rx="3.12" ry="6.83"/><ellipse cx="426.99" cy="154.11" rx="3.29" ry="4.4"/><ellipse cx="442.31" cy="152.92" rx="3.55" ry="5.59"/><polygon points="431.36 157.51 423.35 162.25 423.88 163.17 431.88 158.44 431.36 157.51"/><polygon points="445.42 162.63 435.45 157.65 434.9 158.82 444.86 163.8 445.42 162.63"/><polygon class="cls-15" points="575.82 80.73 568.7 76.53 565.51 82.18 572.63 86.38 575.82 80.73"/><path class="cls-17" d="M484.94,97.5c0,1.41-6.76,5.9-6.76,6.61,0-1.37-8.18-5.55-8.18-5.58,0-.81,2.93,9.76,2.93,8.31,0,.51-5,7.42-5,8.44,0,1.32,8.57-1.92,8.57-.94,0,1.75,5.1,6.19,5.1,6.49,0,2.9,2.37-5.66,2.37-6.71,0-1.47,8.13-2.29,8.13-5,0,1.95-7.11-2.48-7.11-2.38C485,104.32,484.94,97.34,484.94,97.5Z"/><path class="cls-17" d="M512.37,71.39c0,1.63-6.45,3.16-6.45,5.35,0-3.1-7.06-4.86-7.06-3,0-1.74,1.93,8.36,1.93,7.25,0-2.34-5,4.72-5,5.41,0-1.08,7.64-1.52,7.64-1,0,2.9,4,9.28,4,9.39,0-1.77,2.79-6.77,2.79-9.11,0,.67,7.46-1.51,7.46-1.58,0,1.19-5.91-4.63-5.91-4.67C511.72,81.21,512.37,71.26,512.37,71.39Z"/><path class="cls-17" d="M526.14,102.84c-.34,0-.32,6.47-.64,6.47-.48,0-5.19,4.52-3.83,4.52.61,0,6.05,1,6.08,1-1.49,0,2.34,5.92,1.21,5.92,2.53,0,3.63-5.85,3.56-5.85-.86,0,6.71-.85,7.27-.85.73,0-4.49-4.64-6.08-4.64,1.41,0,3.51-6.45,2.2-6.45.55,0-4.82,3-5.71,3C530.21,106,523.62,102.84,526.14,102.84Z"/></g><g id="devilcow-6" data-name="devilcow"><polygon class="cls-13" points="455.35 352.29 455.77 350.21 457.81 349.61 459.41 351.09 458.98 353.16 456.95 353.77 455.35 352.29"/><polygon class="cls-22" points="450.91 362.58 451.64 359.61 454.5 358.53 456.63 360.41 455.89 363.37 453.04 364.46 450.91 362.58"/><polygon class="cls-13" points="490.81 388.76 491.56 385.58 494.67 384.57 497.03 386.75 496.29 389.93 493.18 390.94 490.81 388.76"/><polygon class="cls-22" points="485.56 400.06 486.31 396.88 489.42 395.87 491.78 398.04 491.04 401.23 487.93 402.24 485.56 400.06"/><polygon class="cls-7" points="453.53 295.76 455.31 301.63 493.85 289.11 492.08 283.25 453.53 295.76"/><rect class="cls-7" x="500.35" y="363.2" width="4.65" height="27.45" transform="translate(617.64 994.61) rotate(-137.41)"/><rect class="cls-7" x="498.68" y="365.64" width="6.49" height="38.3" transform="translate(611.01 1007.76) rotate(-137.41)"/><rect class="cls-7" x="462.15" y="332.82" width="5.76" height="32.81" transform="translate(571.02 921.04) rotate(-137.41)"/><rect class="cls-7" x="463.46" y="330.73" width="3.41" height="23.74" transform="translate(575.76 909.63) rotate(-137.41)"/><polygon class="cls-15" points="601.97 351.75 599.63 351.79 599.7 343.2 602.04 343.16 601.97 351.75"/><polygon class="cls-15" points="568.44 318.57 568.07 320.9 575.33 321.88 575.69 319.55 568.44 318.57"/><polygon class="cls-15" points="578.05 357.74 576.35 346.41 567.83 354.32 576.02 334.27 576.99 318.46 583.76 317.4 592.89 299.73 588.88 319.12 593.54 324 584.29 337.05 578.05 357.74"/><polygon class="cls-15" points="552.53 341.89 566.76 344.6 559.13 357.19 581.64 345.27 600.7 344.05 600.39 333.97 619.8 320.62 597.09 326.32 590.03 319.29 576.3 332.89 552.53 341.89"/><rect class="cls-7" x="461.57" y="311.23" width="102.32" height="50.97" transform="translate(662.32 931.61) rotate(-137.41)"/><rect class="cls-7" x="564.64" y="318.34" width="36.17" height="39.76" transform="translate(782.81 981.6) rotate(-137.41)"/><rect class="cls-16" x="546.92" y="337.43" width="27.72" height="45.37" transform="translate(-83.86 529.23) rotate(-47.41)"/><ellipse class="cls-7" cx="554.77" cy="352.65" rx="6.09" ry="2.01" transform="translate(-80.3 522.4) rotate(-47.41)"/><ellipse class="cls-7" cx="567.18" cy="364.05" rx="6.09" ry="2.78" transform="translate(-84.69 535.21) rotate(-47.41)"/><ellipse cx="592.35" cy="337.81" rx="3.92" ry="2.94" transform="translate(-57.23 545.27) rotate(-47.41)"/><ellipse cx="581.57" cy="329.34" rx="4.99" ry="3.16" transform="translate(-54.48 534.59) rotate(-47.41)"/><polygon points="591.54 332.94 599.66 334.66 599.87 333.74 591.76 332.01 591.54 332.94"/><polygon points="585.39 321.08 588.93 330.37 590 329.94 586.47 320.65 585.39 321.08"/><polygon class="cls-15" points="450.26 296.13 452.4 303.19 457.9 301.41 455.77 294.34 450.26 296.13"/><path class="cls-17" d="M519.75,341.44c0-2.72,7.71-.14,7.71.52,0,0,3.78,7.24,3.78,7.28,0-.41,3.06-9.51,3.06-7.69,0-2.62,7.59-2.52,7.59-2.05,0-1.76-5.82-4.82-5.82-4.52,0-1.38.91-10,.91-8.55,0-1.36-6.65,2.77-6.65,4.41,0,1-7-3.18-7-2.39,0-2.05,1.71,7.15,1.71,6.66C525,335.05,519.75,340,519.75,341.44Z"/><path class="cls-17" d="M486.27,341.6c0-1,6.79-.86,6.79,1,0,.12,2.79,6.39,2.79,4.52,0-.6,3.32-4.66,3.32-4.43,0-1,6.87-2.27,6.87-3.27,0,.31-4.74-4.55-4.74-2.8,0,1.3,1.46-6.05,1.46-9.06,0,2.93-6.25,3.88-6.25,4.26,0,.62-6-4.49-6-2.59,0,1.59.88,6.41.88,8.13C491.42,336.69,486.27,341,486.27,341.6Z"/><path class="cls-17" d="M497.27,312.44c1.09,0,4.12-4.86,4.19-4.86-1.43,0,5.73-.16,3.6-.16.76,0-1.33-4.5-1.34-4.5-.83,0,1.47-5.55.84-5.55s-5,2.08-6.35,2.08c-.54,0-5-3.27-3.53-3.27-.66,0-.36,5.78-.36,5.78-.36,0-3.24,3.53-4.16,3.53-.32,0,4.86,1.5,3.9,1.5C494.61,307,495.89,312.44,497.27,312.44Z"/></g><g id="devilcow-7" data-name="devilcow"><polygon class="cls-13" points="1638.37 476.64 1638.36 474.52 1636.48 473.53 1634.62 474.66 1634.63 476.78 1636.51 477.77 1638.37 476.64"/><polygon class="cls-22" points="1640.69 487.6 1640.55 484.55 1637.97 482.92 1635.51 484.34 1635.65 487.39 1638.23 489.02 1640.69 487.6"/><polygon class="cls-13" points="1596.41 505.4 1596.31 502.13 1593.46 500.53 1590.71 502.2 1590.81 505.47 1593.66 507.07 1596.41 505.4"/><polygon class="cls-22" points="1599.33 517.51 1599.22 514.25 1596.37 512.64 1593.63 514.31 1593.73 517.58 1596.58 519.18 1599.33 517.51"/><polygon class="cls-7" points="1651.29 421.58 1648.4 426.98 1613.08 407.11 1615.97 401.71 1651.29 421.58"/><rect class="cls-7" x="1584.79" y="477.73" width="4.65" height="27.45" transform="translate(-24.88 893.85) rotate(-31.22)"/><rect class="cls-7" x="1583.05" y="480.17" width="6.49" height="38.3" transform="translate(-29.08 894.57) rotate(-31.22)"/><rect class="cls-7" x="1626.6" y="455.32" width="5.76" height="32.81" transform="translate(-8.52 912.96) rotate(-31.22)"/><rect class="cls-7" x="1628.94" y="453.33" width="3.41" height="23.74" transform="translate(-4.97 912.61) rotate(-31.22)"/><polygon class="cls-15" points="1494.73 447.2 1497.02 447.7 1498.64 439.26 1496.35 438.76 1494.73 447.2"/><polygon class="cls-15" points="1534.14 421.28 1534.04 423.64 1526.74 423.17 1526.84 420.81 1534.14 421.28"/><polygon class="cls-15" points="1517 457.79 1520.9 447.02 1527.7 456.45 1523.62 435.18 1525.78 419.49 1519.35 417.12 1513.89 397.99 1514 417.79 1508.46 421.66 1514.96 436.27 1517 457.79"/><polygon class="cls-15" points="1545.14 447.28 1530.66 447.13 1535.66 460.98 1515.94 444.85 1497.49 439.9 1499.78 430.08 1483.39 413.17 1504.53 423.23 1512.84 417.73 1523.61 433.77 1545.14 447.28"/><rect class="cls-7" x="1534.01" y="424.57" width="102.32" height="50.97" transform="translate(-3.7 886.85) rotate(-31.22)"/><rect class="cls-7" x="1498.18" y="417.85" width="36.17" height="39.76" transform="translate(-7.3 849.35) rotate(-31.22)"/><rect class="cls-16" x="1519.6" y="440.84" width="27.72" height="45.37" transform="translate(1931.93 2015.17) rotate(-121.22)"/><ellipse class="cls-7" cx="1540.82" cy="457.39" rx="2.01" ry="6.09" transform="translate(-13.93 864.92) rotate(-31.22)"/><ellipse class="cls-7" cx="1526.41" cy="466.12" rx="2.78" ry="6.09" transform="translate(-20.54 858.72) rotate(-31.22)"/><ellipse cx="1506.91" cy="435.43" rx="2.94" ry="3.92" transform="translate(-7.46 844.16) rotate(-31.22)"/><ellipse cx="1519.15" cy="429.25" rx="3.16" ry="4.99" transform="translate(-2.48 849.61) rotate(-31.22)"/><polygon points="1508.66 430.81 1500.37 430.9 1500.34 429.95 1508.63 429.86 1508.66 430.81"/><polygon points="1517.03 420.4 1511.72 428.81 1510.76 428.18 1516.06 419.77 1517.03 420.4"/><polygon class="cls-15" points="1654.43 422.58 1650.94 429.09 1645.9 426.25 1649.38 419.75 1654.43 422.58"/><path class="cls-17" d="M1577.58,450.75c0,1.12-7.66.81-7.66-.84,0,2.26-5,6.3-5,8.85,0-.37-1.59-10.92-1.59-9.39,0-.67-7.1-2.35-7.1-1.64,0-.77,6.68-6,6.68-6.77,0,1.65.63-4.46.63-5,0,0,5.71,5.31,5.71,4.51,0,1.27,7.49-2.62,7.49-3.11,0,1.67-3.15,8.45-3.15,9.07C1573.57,445.84,1577.58,452.15,1577.58,450.75Z"/><path class="cls-17" d="M1610.35,460.86c0-2.62-6.88-1.67-6.88-2.43,0-1.06-4,7.07-4,4.81,0-.17-2-4.07-2-7.12,0,2.23-6.56.75-6.56-.62,0-.81,5.61-4.26,5.61-3.06,0-.09-.08-7.76-.08-8.13,0-.76,5.51,4.4,5.51,3.47,0,2,6.51.05,6.51.94,0-.39-2.21,3.54-2.21,5.79C1606.24,453.34,1610.35,457.58,1610.35,460.86Z"/><path class="cls-17" d="M1604.14,429.33c.42,0-1.15-5.41-2.43-5.41,2.15,0-4.76-1.29-5.43-1.29.94,0,4.6-3.72,5.7-3.72-1.34,0,.08-5.79-.14-5.79-.43,0,4.25,3.11,3.26,3.11.82,0,6.67-2.28,6.69-2.28-1.54,0-2.79,5.64-2.75,5.64,2.16,0,5.92,4.38,5.14,4.38-1.12,0-5.13.37-7.22.37C1607.21,424.34,1604.63,429.33,1604.14,429.33Z"/></g><g id="devilcow-8" data-name="devilcow"><polygon class="cls-13" points="1547.15 194.87 1548.34 196.86 1547.15 198.85 1544.77 198.85 1543.57 196.86 1544.77 194.87 1547.15 194.87"/><polygon class="cls-23" points="1543.1 183.3 1544.71 186.23 1543.21 189.22 1540.11 189.28 1538.5 186.35 1540 183.36 1543.1 183.3"/><polygon class="cls-13" points="1491.59 191.75 1493.35 194.87 1491.59 197.98 1488.08 197.98 1486.32 194.87 1488.08 191.75 1491.59 191.75"/><polygon class="cls-23" points="1487.46 178.77 1489.21 181.88 1487.46 185 1483.94 185 1482.19 181.88 1483.94 178.77 1487.46 178.77"/><polygon class="cls-7" points="1590.45 239.04 1584.68 235.63 1562.92 274.24 1568.68 277.65 1590.45 239.04"/><rect class="cls-7" x="1488.26" y="195.06" width="5.09" height="30.02"/><rect class="cls-7" x="1482.04" y="182.23" width="7.1" height="41.89"/><rect class="cls-7" x="1538.47" y="186.56" width="6.3" height="35.88"/><rect class="cls-7" x="1544.55" y="196.96" width="3.73" height="25.97"/><polygon class="cls-15" points="1429.48 303.84 1431.34 302.07 1437.65 309.05 1435.79 310.81 1429.48 303.84"/><polygon class="cls-15" points="1481.05 305.74 1479.62 303.59 1473.05 308.17 1474.48 310.32 1481.05 305.74"/><polygon class="cls-15" points="1444.31 281.31 1454.07 289.17 1455.08 276.5 1463.32 298.7 1474.24 312.15 1469.57 318.02 1475.31 339 1464.18 320.42 1456.81 319.94 1454.6 302.6 1444.31 281.31"/><polygon class="cls-15" points="1476.6 275.18 1463.13 283.53 1459.95 267.75 1450.65 294.01 1436.21 309.11 1443.92 316.99 1438.17 342.1 1452.24 320.71 1463.13 321.13 1464.12 300.03 1476.6 275.18"/><rect class="cls-7" x="1456.51" y="222.02" width="111.92" height="55.75"/><rect class="cls-7" x="1435.22" y="278.74" width="39.56" height="43.49"/><rect class="cls-16" x="1441.3" y="241.79" width="30.32" height="49.63" transform="translate(1723.07 -1189.85) rotate(90)"/><ellipse class="cls-7" cx="1466.82" cy="268.18" rx="2.2" ry="6.66"/><ellipse class="cls-7" cx="1448.39" cy="268.18" rx="3.04" ry="6.66"/><ellipse cx="1447.55" cy="307.94" rx="3.21" ry="4.29"/><ellipse cx="1462.51" cy="306.78" rx="3.46" ry="5.45"/><polygon points="1451.81 311.27 1444 315.89 1444.51 316.79 1452.32 312.17 1451.81 311.27"/><polygon points="1465.53 316.26 1455.81 311.4 1455.27 312.54 1464.99 317.4 1465.53 316.26"/><polygon class="cls-15" points="1592.82 236.33 1585.87 232.22 1582.76 237.73 1589.7 241.84 1592.82 236.33"/><path class="cls-17" d="M1504.11,251.83c0,1.85-6.6,6.72-6.6,5.5,0-1.78-8-3.13-8-2.36,0,.23,2.86,9.66,2.86,6.34,0,2.85-4.86,7.77-4.86,7.09,0,3,8.36.76,8.36-.37,0,1.1,5,6.77,5,9,0-1.27,2.31-7.41,2.31-8.56,0-1.49,7.94-2.91,7.94-3.09,0-.55-6.94-4.45-6.94-3.68C1504.18,259.45,1504.11,251.39,1504.11,251.83Z"/><path class="cls-17" d="M1530.89,227.87c0,1.07-6.3,1.43-6.3,3.3,0-1.71-6.89-3.91-6.89-1.3,0-.52,1.88,6.34,1.88,4.33,0,.57-4.89,7.5-4.89,6.65,0,2.34,7.46,1,7.46,2.19,0-2.39,3.86,4.07,3.86,5.1,0,1.67,2.73-6.07,2.73-5.22,0-2,7.28-2.88,7.28-2.48,0-1.46-5.77-6.19-5.77-6.4C1530.25,235.7,1530.89,227.26,1530.89,227.87Z"/><path class="cls-17" d="M1543,257.9c1.25,0,.79,6.32-.12,6.32.51,0-2.71,4.41-3,4.41a50.08,50.08,0,0,1,6.28,1c-1.61,0,1.48,5.78,1.52,5.78,1.24,0,4-5.7,3.18-5.7a52.91,52.91,0,0,0,6.24-.84c.57,0-4.44-4.53-3.42-4.53-.42,0-.79-6.29.6-6.29.5,0-6.8,2.9-5.39,2.9C1548.36,261,1543.92,257.9,1543,257.9Z"/></g><g id="devilcow-9" data-name="devilcow"><polygon class="cls-13" points="930.73 141.5 930.23 139.31 931.92 137.84 934.12 138.55 934.62 140.75 932.92 142.22 930.73 141.5"/><polygon class="cls-24" points="930.97 153.38 930.37 150.19 932.65 147.89 935.53 148.77 936.13 151.96 933.85 154.26 930.97 153.38"/><polygon class="cls-13" points="980.98 161.11 980.29 157.71 982.85 155.37 986.09 156.43 986.77 159.83 984.21 162.17 980.98 161.11"/><polygon class="cls-24" points="980.88 174.32 980.2 170.92 982.75 168.58 985.99 169.63 986.67 173.04 984.11 175.38 980.88 174.32"/><polygon class="cls-7" points="904.13 87.76 908.42 92.63 940.11 63.62 935.82 58.74 904.13 87.76"/><rect class="cls-7" x="984.75" y="129.92" width="4.93" height="29.1" transform="translate(1880.66 588.58) rotate(-161.89)"/><rect class="cls-7" x="986.51" y="132.09" width="6.88" height="40.61" transform="translate(1883.53 604.88) rotate(-161.89)"/><rect class="cls-7" x="935.67" y="116.9" width="6.11" height="34.78" transform="translate(1789.23 553.66) rotate(-161.89)"/><rect class="cls-7" x="934.14" y="115.25" width="3.62" height="25.17" transform="translate(1785.83 540.2) rotate(-161.89)"/><polygon class="cls-15" points="1071.97 76.55 1069.72 77.61 1066.02 69.29 1068.26 68.22 1071.97 76.55"/><polygon class="cls-15" points="1025.03 59.26 1025.7 61.67 1033.13 59.43 1032.46 57.02 1025.03 59.26"/><polygon class="cls-15" points="1051.52 92.84 1044.9 82.65 1040.15 94.03 1039.25 71.09 1033.24 55.4 1039.31 51.41 1040.34 30.34 1044.99 50.81 1051.64 53.48 1048.45 70.12 1051.52 92.84"/><polygon class="cls-15" points="1019.93 88.76 1034.85 85.12 1033.02 100.62 1049.5 79.22 1067.36 69.67 1062.63 60.08 1075.49 38.67 1056.08 54.15 1046.18 50.47 1038.91 69.62 1019.93 88.76"/><rect class="cls-7" x="925.01" y="74.23" width="108.49" height="54.04" transform="translate(1878.56 501.81) rotate(-161.89)"/><rect class="cls-7" x="1028.27" y="50.87" width="38.35" height="42.16" transform="translate(2020.68 465.85) rotate(-161.89)"/><rect class="cls-16" x="1021.2" y="78.67" width="29.39" height="48.11" transform="translate(616.34 1055.41) rotate(-71.89)"/><ellipse class="cls-7" cx="1026.82" cy="98.15" rx="6.46" ry="2.13" transform="translate(614.43 1043.63) rotate(-71.89)"/><ellipse class="cls-7" cx="1043.8" cy="103.71" rx="6.46" ry="2.95" transform="translate(620.85 1063.6) rotate(-71.89)"/><ellipse cx="1056.56" cy="67.32" rx="4.16" ry="3.11" transform="translate(664.23 1050.65) rotate(-71.89)"/><ellipse cx="1042.43" cy="63.89" rx="5.29" ry="3.36" transform="translate(657.75 1034.85) rotate(-71.89)"/><polygon points="1053.63 62.97 1062.22 61.07 1062.03 60.09 1053.44 61.99 1053.63 62.97"/><polygon points="1042.49 54.24 1049.99 61.65 1050.84 60.76 1043.34 53.35 1042.49 54.24"/><polygon class="cls-15" points="901.14 89.55 906.3 95.42 910.83 91.28 905.66 85.4 901.14 89.55"/><path class="cls-17" d="M987.64,101.77c0,1.71,7.66-1.6,7.66-2.69,0-.5,6.58,4.32,6.58,4.25,0,.94-.21-7.18-.21-6.88,0,.14,6.58-6.79,6.58-7.51,0,3-7.79-.55-7.79-.5,0-1.48-2.51-7.86-2.51-9.61,0,.64-4.62,9.1-4.62,8.74s-8.13.51-8.13.07c0,0,4.95,7.29,4.95,4.28C990.15,92.9,987.64,101.86,987.64,101.77Z"/><path class="cls-17" d="M955.44,117.76c0-1.9,7-4.86,7-1.93,0-.36,5.45,3,5.45,1.91,0,2.84.5-4.28.5-3.57,0-2.35,6.25-7.23,6.25-6.17s-6.74-1-6.74-3.15c0-1-1.58-5.83-1.58-7.87,0-.24-4.66,7.59-4.66,5.21,0,1.25-7.23.89-7.23,3.52,0-1,3.85,4,3.85,3.06C958.32,109.1,955.44,116.15,955.44,117.76Z"/><path class="cls-17" d="M953.88,84.68c-.13,0,.29-6.12,1.36-6.12-1.76,0,3.71-2.69,5.56-2.69-1.91,0-5.72-2.79-6.85-2.79.48,0-.36-6.13,0-6.13,0,0-4.84,4.39-5.52,4.39,1.83,0-4.9-1.09-5.2-1.09,1.64,0,4,5.5,3.51,5.5-.18,0-3.64,5.46-3.31,5.46a42.48,42.48,0,0,0,5.47-1C948.13,80.21,954.4,84.68,953.88,84.68Z"/></g><g id="devilcow-10" data-name="devilcow"><polygon class="cls-13" points="881.7 293.4 883.33 294.82 882.84 296.93 880.73 297.62 879.1 296.2 879.58 294.09 881.7 293.4"/><polygon class="cls-18" points="874.77 284.31 877.04 286.44 876.58 289.53 873.84 290.48 871.57 288.34 872.04 285.25 874.77 284.31"/><polygon class="cls-13" points="831.52 306.64 833.97 308.9 833.31 312.17 830.2 313.18 827.74 310.92 828.4 307.65 831.52 306.64"/><polygon class="cls-18" points="824.11 296.32 826.56 298.57 825.9 301.85 822.79 302.86 820.33 300.6 820.99 297.33 824.11 296.32"/><polygon class="cls-7" points="932.83 320.11 926.74 318.75 918.55 359.27 924.64 360.63 932.83 320.11"/><rect class="cls-7" x="833.72" y="309.12" width="4.75" height="28" transform="translate(-58.92 274.03) rotate(-17.99)"/><rect class="cls-7" x="826.17" y="298.97" width="6.62" height="39.07" transform="translate(-57.82 271.76) rotate(-17.99)"/><rect class="cls-7" x="876.63" y="286.81" width="5.87" height="33.47" transform="translate(-50.75 286.5) rotate(-17.99)"/><rect class="cls-7" x="883.64" y="294.88" width="3.48" height="24.22" transform="translate(-51.53 288.47) rotate(-17.99)"/><polygon class="cls-15" points="808.71 423.96 809.85 421.86 817.45 426.23 816.31 428.33 808.71 423.96"/><polygon class="cls-15" points="855 410.79 853.11 409.3 848.61 415.25 850.49 416.75 855 410.79"/><polygon class="cls-15" points="815.37 399.7 826.29 403.87 823.54 392.33 837.24 409.66 850.81 418.44 848.35 424.99 859.49 441.95 844.27 428.68 837.59 430.37 830.63 415.62 815.37 399.7"/><polygon class="cls-15" points="842.25 384.97 832.71 396.25 825.34 383.17 824.66 409.15 816.19 426.69 825.31 431.47 827.44 455.4 833.76 432.37 843.54 429.61 838.33 410.6 842.25 384.97"/><rect class="cls-7" x="814.59" y="326.2" width="104.38" height="51.99" transform="translate(-66.4 284.93) rotate(-17.99)"/><rect class="cls-7" x="811.93" y="393.35" width="36.9" height="40.56" transform="translate(-87.16 276.69) rotate(-17.99)"/><rect class="cls-16" x="807.78" y="360.02" width="28.28" height="46.29" transform="translate(932.49 -516.91) rotate(72.01)"/><ellipse class="cls-7" cx="831.56" cy="381.57" rx="2.05" ry="6.22" transform="matrix(0.95, -0.31, 0.31, 0.95, -77.2, 275.49)"/><ellipse class="cls-7" cx="815.21" cy="386.88" rx="2.84" ry="6.22" transform="translate(-79.63 270.7) rotate(-17.99)"/><ellipse cx="825.92" cy="422.4" rx="3" ry="4" transform="translate(-90.08 275.74) rotate(-17.99)"/><ellipse cx="838.85" cy="417.06" rx="3.23" ry="5.09" transform="translate(-87.8 279.48) rotate(-17.99)"/><polygon points="830.66 424.12 825.06 430.47 825.77 431.12 831.37 424.77 830.66 424.12"/><polygon points="844.27 424.6 834.24 423.09 834.09 424.25 844.11 425.76 844.27 424.6"/><polygon class="cls-15" points="934.15 317.02 926.8 315.38 925.63 321.17 932.98 322.81 934.15 317.02"/><path class="cls-17" d="M860,357.91c0-.14-4.33,5.23-4.33,6.36,0-.34-7.82-2.1-7.82.24,0-.28,4.85,5.19,4.85,4.38,0,2.06-2.3,9.81-2.3,8.26,0,1.21,7.34-4.19,7.34-4.15,0,.23,6.4,4.54,6.4,6.47,0,.28-.32-8.74-.32-9.33,0,1.66,6.25-2.16,6.25-2.49,0-3-7.53-2.26-7.53-2.5C862.55,363.28,860,357.55,860,357.91Z"/><path class="cls-17" d="M876.57,327.56c0,.86-4.4,3.12-4.4,5.57,0-2.89-7-.82-7-.62,0-.35,3.8,6.95,3.8,6.49,0-1.38-2.68,4.69-2.68,4.37,0,.82,6.75-.46,6.75-1.82,0,.55,5.32,6,5.32,4.1,0,1.18.37-7.31.37-4.74,0-1.22,6-5.29,6-5,0,.07-6.52-3.85-6.52-1.21C878.2,333.26,876.57,326.57,876.57,327.56Z"/><path class="cls-17" d="M895,350.51c.78,0,2.65,5.33,4,5.33.29,0-3.21,5.22-3.5,5.22-.5,0,5.44-.89,5.47-.89,1.75,0,4.79,4.35,4.8,4.35.31,0,1.29-5.88,1.34-5.88-.44,0,4.39-2.53,5.87-2.53.27,0-5.49-2.74-6.53-2.74,1.55,0,.23-5.91-.37-5.91,1,0-4.66,4.18-5.25,4.18C902.71,351.64,897.36,350.51,895,350.51Z"/></g></g><g id="thinking"><path class="cls-25" d="M1201.78,702.65l17.42,112.46c19.21-17.59,32-62.54,32-112.46,0-65.93-22.31-120.18-49.42-120.18s-49.42,54.25-49.42,120.18c0,48,11.85,91.65,30,110.51Z"/><path d="M1137.75,493c3.87,7.41-11.56,21.57-4.5,26.06s21.09-17.58,28.15-13.09-7,26.56.07,31.05,13.22-15.4,21.58-15.12,13.16,20.54,20.49,16.54-5.21-27,2.11-31,19.88,18.94,27.21,14.94-7.12-19.15-2.78-26.29,24.52-1.28,24.79-9.77S1229,477,1229.28,468.5s26.41-7.66,26.69-16.15-20.18-3.82-24.12-11.36,11.56-21.58,4.5-26.07-21.09,17.58-28.15,13.1,7-26.56-.07-31-13.22,15.4-21.58,15.12-13.16-20.54-20.49-16.54,5.21,27-2.11,31-19.88-18.95-27.21-14.94,7.12,19.15,2.78,26.29-24.52,1.27-24.79,9.77,25.87,9.33,25.59,17.83-28.67,12.48-26.07,20.57C1116.67,493.54,1133.81,485.43,1137.75,493Z"/><path d="M1172.94,492.9c3.88,7.41-11.55,21.57-4.5,26.06s21.1-17.58,28.15-13.09-7,26.56.08,31,13.22-15.4,21.58-15.12,13.16,20.54,20.49,16.54-5.22-27,2.11-31,19.87,18.94,27.21,14.94-7.13-19.15-2.78-26.29,24.51-1.28,24.79-9.77-25.87-9.34-25.6-17.83,26.42-7.66,26.69-16.15-20.18-3.82-24.11-11.36,11.55-21.58,4.5-26.07-21.1,17.58-28.15,13.1,7-26.56-.08-31.05-13.22,15.4-21.58,15.12-13.16-20.54-20.49-16.54,5.22,27-2.11,31-19.87-18.95-27.2-14.94,7.12,19.15,2.77,26.29-24.51,1.27-24.79,9.77,25.87,9.33,25.6,17.83-28.67,12.48-26.07,20.57C1151.87,493.48,1169,485.36,1172.94,492.9Z"/><ellipse class="cls-12" cx="1139.42" cy="566.49" rx="7.51" ry="30.07" transform="translate(-112.7 793.17) rotate(-36.7)"/><ellipse class="cls-12" cx="1119.73" cy="532.55" rx="7.91" ry="8.09"/><ellipse class="cls-12" cx="1123.55" cy="544.93" rx="4.67" ry="18.36" transform="translate(-111.73 362.19) rotate(-17.46)"/><ellipse class="cls-12" cx="1201.85" cy="496.94" rx="64.39" ry="65.35"/><ellipse class="cls-26" cx="1223.75" cy="811.62" rx="6.99" ry="20.65"/><ellipse class="cls-26" cx="1178.6" cy="809.73" rx="5.96" ry="17.41"/><rect class="cls-27" x="1174" y="818.8" width="9.25" height="15.07" rx="2.4"/><rect class="cls-28" x="1164.23" y="825.68" width="19.15" height="9.61" rx="2.4"/><rect class="cls-27" x="1218.6" y="821.09" width="10.76" height="19.11" rx="2.4"/><rect class="cls-28" x="1217.81" y="830.26" width="21.92" height="11.16" rx="2.4"/><ellipse class="cls-29" cx="1212.53" cy="493.13" rx="5.67" ry="8.1"/><ellipse class="cls-29" cx="1179.81" cy="493.4" rx="6.2" ry="9.18"/><path class="cls-30" d="M1192.41,535.39l20.76,6.85c0-.8-9.1-4.47-20.33-8.19-9.91-3.28-18.66-5.67-20.73-5.67Z"/><ellipse class="cls-31" cx="1199.08" cy="586.79" rx="38.32" ry="24.56"/><path class="cls-32" d="M1214.89,604a4,4,0,0,0,8,0V569.86a4,4,0,1,0-8,0Z"/><path class="cls-32" d="M1177.94,605.47a3.59,3.59,0,0,0,7.17,0V568.65a3.59,3.59,0,0,0-7.17,0Z"/><ellipse cx="1201.71" cy="446.98" rx="56.48" ry="24.7"/><ellipse cx="1246.59" cy="462.07" rx="11.71" ry="28.51" transform="translate(-30.16 832.75) rotate(-36.53)"/><ellipse cx="1154.51" cy="464.99" rx="28.51" ry="8.02" transform="translate(92.03 1113.27) rotate(-53.33)"/><ellipse class="cls-33" cx="1181.39" cy="603.93" rx="3.43" ry="3.51"/><ellipse class="cls-34" cx="1181.39" cy="604.2" rx="0.79" ry="0.81"/><ellipse class="cls-33" cx="1218.87" cy="602.71" rx="3.17" ry="3.1"/><ellipse class="cls-34" cx="1218.87" cy="603.25" rx="0.53" ry="0.67"/><path class="cls-35" d="M1228.74,646.88l-13.89.54c.12,19.17,6.35,34.78,13.89,34.78s13.9-15.94,13.9-35.32Z"/><ellipse class="cls-12" cx="1178.24" cy="565.91" rx="8.47" ry="51.03" transform="translate(99.02 1303.34) rotate(-60)"/><ellipse class="cls-12" cx="1133.23" cy="537.05" rx="7.91" ry="8.09"/><ellipse class="cls-31" cx="1156" cy="583.24" rx="9.84" ry="18.29" transform="translate(60.5 1273.44) rotate(-58.98)"/><ellipse class="cls-31" cx="1220.16" cy="582.22" rx="11.33" ry="17.65" transform="translate(319.46 1590.44) rotate(-73.73)"/></g><path class="cls-36" d="M1124.69,394.62l-2.19,148.06h0"/><ellipse class="cls-37" cx="1130.47" cy="353.67" rx="35.22" ry="32.76" transform="translate(-34.31 568.93) rotate(-27.84)"/><ellipse class="cls-37" cx="1129.79" cy="354.05" rx="28.62" ry="24.57" transform="translate(433.46 1311.6) rotate(-71.37)"/><ellipse class="cls-37" cx="1129.48" cy="354.24" rx="21.92" ry="16.56" transform="translate(537.4 1379.25) rotate(-77.4)"/><ellipse class="cls-37" cx="1129.95" cy="355.33" rx="16.56" ry="7.54" transform="translate(612.26 1420.71) rotate(-81.54)"/><ellipse class="cls-38" cx="1130.64" cy="352.4" rx="42.45" ry="39.15" transform="translate(-49.3 453.82) rotate(-22.22)"/></g></g></g></svg>