<?xml version="1.0" encoding="utf-8"?>
<!-- Generator: Adobe Illustrator 25.4.1, SVG Export Plug-In . SVG Version: 6.00 Build 0)  -->
<svg version="1.1" id="Layer_1" xmlns="http://www.w3.org/2000/svg" xmlns:xlink="http://www.w3.org/1999/xlink" x="0px" y="0px"
	 viewBox="0 0 1928.1 1093.3" style="enable-background:new 0 0 1928.1 1093.3;" xml:space="preserve">
<style type="text/css">
	.st0{fill:url(#SVGID_1_);}
	.st1{fill:#96A65D;}
	.st2{fill:#6F8C30;}
	.st3{fill:#387404;}
	.st4{fill:#F2E641;}
	.st5{fill:#FFFFFF;}
	.st6{opacity:0.92;}
	.st7{opacity:0.77;}
	.st8{fill:#754C24;}
	.st9{fill:url(#SVGID_00000181770685910543496000000001638754372309746067_);}
	.st10{fill:#E1AB85;}
	.st11{fill:#0D0D0D;}
	.st12{fill:#0D0D0D;stroke:#000000;stroke-width:2.34;stroke-miterlimit:9.9999;}
	.st13{fill:#736258;}
	.st14{fill:#F2D0E3;}
	.st15{fill:#333333;}
	.st16{fill:#0D0D0D;stroke:#000000;stroke-width:2.24;stroke-miterlimit:9.9999;}
	.st17{fill:#0D0D0D;stroke:#000000;stroke-width:2.61;stroke-miterlimit:9.9999;}
	.st18{fill:#0D0D0D;stroke:#000000;stroke-width:2.57;stroke-miterlimit:9.9999;}
	.st19{fill:#0D0D0D;stroke:#000000;stroke-width:2.51;stroke-miterlimit:9.9999;}
	.st20{fill:#10735A;}
	.st21{fill:#A67C52;}
	.st22{fill:#B9121B;}
	.st23{fill:#4C1B1B;}
	.st24{fill:#8C6239;}
	.st25{fill:#BE393A;}
	.st26{fill:#4D4D4D;}
	.st27{fill:#B88D1E;}
	.st28{fill:#8C8C80;}
	.st29{fill:#104639;}
	.st30{fill:#F2DDE3;}
	.st31{fill:#ED1C24;}
	.st32{fill:none;stroke:#000000;stroke-width:0.67;stroke-miterlimit:9.9999;}
	.st33{fill:none;stroke:#000000;stroke-width:0.77;stroke-miterlimit:9.9999;}
	.st34{fill:none;stroke:#000000;stroke-width:0.64;stroke-miterlimit:9.9999;}
	.st35{fill:none;stroke:#000000;stroke-width:0.73;stroke-miterlimit:9.9999;}
	.st36{fill:#FF836A;stroke:#000000;stroke-width:0.87;stroke-miterlimit:9.9999;}
</style>
<g>
	<g id="Layer_1_00000169541331164490002750000009303220932682410166_">
		<g id="bg10">
			
				<linearGradient id="SVGID_1_" gradientUnits="userSpaceOnUse" x1="109.2543" y1="-78.077" x2="2298.2244" y2="1549.1328" gradientTransform="matrix(1 0 0 -1 3.029585e-03 1095.9908)">
				<stop  offset="0" style="stop-color:#4CACF7"/>
				<stop  offset="1" style="stop-color:#FFFFFF"/>
			</linearGradient>
			<rect x="2.8" y="-0.1" class="st0" width="1919" height="1080"/>
			<ellipse class="st1" cx="1514.4" cy="802.2" rx="475" ry="184.8"/>
			<ellipse class="st2" cx="538.8" cy="841.1" rx="575.5" ry="223.9"/>
			<ellipse class="st3" cx="992.9" cy="1039" rx="1105.5" ry="236.3"/>
			<path class="st4" d="M1891,161.9c0,1.5-84,0.9-84.1,2.4c-0.1,1.5,83.6,9.1,83.4,10.5c-0.1,1.4-83.7-7.3-83.9-5.9
				c-0.2,1.4,82.3,17.2,82,18.7c-0.3,1.4-82.6-15.4-82.9-14c-0.4,1.4,80.2,25.1,79.8,26.5s-80.7-23.3-81.2-21.9
				c-0.5,1.4,77.5,32.6,76.9,34c-0.5,1.4-78.2-30.8-78.8-29.4c-0.6,1.3,74.2,39.6,73.5,40.9s-75.1-37.7-75.8-36.4
				c-0.7,1.3,70.4,46,69.6,47.3c-0.8,1.3-71.5-44.1-72.4-42.9c-0.8,1.2,66.2,51.8,65.3,53c-0.9,1.2-67.6-49.8-68.6-48.7
				c-0.9,1.1,61.8,57,60.8,58.1c-1,1.1-63.5-55-64.5-54c-1,1,57.2,61.6,56.2,62.6s-59.2-59.6-60.3-58.7c-1.1,1,52.5,65.6,51.4,66.6
				c-1.1,0.9-54.7-63.8-55.9-62.9c-1.2,0.9,47.8,69.2,46.6,70s-50.2-67.4-51.4-66.6c-1.2,0.8,43,72.2,41.8,73
				c-1.2,0.7-45.6-70.6-46.9-69.8s38.2,74.9,36.9,75.6c-1.3,0.7-41-73.3-42.3-72.7s33.4,77.2,32,77.8s-36.3-75.8-37.7-75.2
				c-1.4,0.6,28.6,79.1,27.2,79.6c-1.4,0.5-31.7-77.8-33.1-77.3s23.8,80.6,22.4,81.1c-1.4,0.4-27-79.6-28.5-79.2
				s19.1,81.9,17.7,82.3s-22.4-81-23.8-80.7s14.4,82.8,12.9,83.1s-17.8-82.1-19.2-81.9s9.7,83.5,8.2,83.7s-13.2-83-14.6-82.8
				s5,83.9,3.6,84s-8.6-83.6-10.1-83.5s0.5,84.1-1,84.1s-4.1-83.9-5.5-83.9s-4.1,84-5.5,83.9s0.4-84-1-84.1s-8.6,83.6-10.1,83.5
				s5-83.9,3.6-84s-13.2,83-14.6,82.8s9.7-83.5,8.2-83.7s-17.8,82.2-19.2,81.9s14.3-82.8,12.9-83.1s-22.4,81-23.8,80.7
				s19-81.9,17.6-82.3s-27.1,79.6-28.5,79.2c-1.4-0.5,23.8-80.6,22.4-81.1s-31.7,77.9-33.1,77.3c-1.4-0.5,28.6-79,27.2-79.6
				c-1.3-0.6-36.4,75.8-37.7,75.2s33.4-77.1,32.1-77.8c-1.3-0.6-41,73.4-42.3,72.7c-1.3-0.7,38.2-74.9,36.9-75.6
				s-45.7,70.6-46.9,69.8c-1.2-0.8,43-72.2,41.8-73c-1.2-0.8-50.2,67.4-51.4,66.6s47.8-69.1,46.6-70c-1.2-0.9-54.8,63.8-55.9,62.8
				c-1.1-0.9,52.5-65.6,51.4-66.6c-1.1-1-59.2,59.7-60.3,58.7s57.2-61.5,56.2-62.6c-1-1-63.6,55-64.5,53.9c-1-1,61.8-57,60.8-58.1
				c-0.9-1.1-67.7,49.9-68.6,48.7c-0.9-1.2,66.2-51.8,65.3-53c-0.8-1.2-71.6,44.1-72.4,42.9c-0.8-1.2,70.3-46,69.6-47.3
				c-0.7-1.3-75.1,37.7-75.8,36.4s74.1-39.6,73.5-40.9c-0.6-1.3-78.2,30.8-78.8,29.4s77.4-32.6,76.9-34
				c-0.5-1.4-80.8,23.3-81.2,21.9s80.2-25.1,79.8-26.5c-0.4-1.4-82.6,15.5-82.9,14c-0.3-1.5,82.2-17.2,82-18.6
				c-0.2-1.5-83.8,7.3-83.9,5.9c-0.2-1.5,83.5-9.1,83.4-10.5c-0.1-1.5-84-0.8-84-2.3c0-1.5,84-0.9,84.1-2.4
				c0.1-1.5-83.6-9.1-83.4-10.5c0.1-1.4,83.7,7.3,83.9,5.9c0.2-1.4-82.3-17.2-82-18.7c0.3-1.4,82.6,15.4,82.9,14
				c0.4-1.4-80.2-25.1-79.8-26.5s80.7,23.3,81.2,21.9c0.5-1.4-77.5-32.6-76.9-34c0.5-1.4,78.2,30.8,78.8,29.4
				c0.6-1.3-74.2-39.6-73.5-40.9s75,37.8,75.8,36.5c0.7-1.3-70.4-46-69.6-47.3c0.8-1.3,71.5,44.1,72.4,42.9
				c0.8-1.2-66.2-51.8-65.3-53c0.9-1.2,67.6,49.8,68.6,48.7c0.9-1.1-61.8-57-60.8-58.1s63.5,55,64.5,54s-57.2-61.6-56.2-62.6
				s59.2,59.6,60.3,58.7c1.1-1-52.5-65.6-51.4-66.6c1.1-0.9,54.7,63.8,55.9,62.9c1.2-0.9-47.8-69.2-46.6-70
				c1.2-0.8,50.2,67.4,51.4,66.6c1.2-0.8-43-72.2-41.8-73c1.2-0.7,45.6,70.6,46.9,69.8c1.3-0.7-38.2-74.9-36.9-75.6
				s41,73.3,42.3,72.7c1.3-0.7-33.4-77.2-32-77.8s36.3,75.8,37.7,75.2c1.4-0.6-28.6-79.1-27.2-79.6c1.4-0.5,31.7,77.8,33.1,77.3
				c1.4-0.5-23.8-80.6-22.4-81.1c1.4-0.4,27,79.6,28.5,79.2c1.4-0.4-19.1-82-17.7-82.3s22.4,81,23.8,80.7s-14.4-82.8-12.9-83.1
				s17.8,82.1,19.2,81.9s-9.7-83.5-8.2-83.7c1.5-0.2,13.2,83,14.6,82.8s-5-83.9-3.6-84c1.4-0.1,8.6,83.6,10.1,83.5s-0.5-84.1,1-84.1
				c1.5,0,4.1,84,5.5,84s4.1-84,5.5-83.9c1.5,0.1-0.4,84,1,84.1s8.7-83.8,10.1-83.6s-5,83.9-3.6,84s13.2-83,14.6-82.8
				s-9.6,83.5-8.2,83.7s17.8-82.2,19.2-81.9s-14.4,82.8-12.9,83.1s22.4-81,23.8-80.7s-19,81.9-17.6,82.3
				c1.4,0.4,27.1-79.6,28.5-79.2c1.4,0.4-23.8,80.6-22.4,81.1c1.4,0.5,31.7-77.9,33.1-77.3s-28.6,79-27.2,79.6
				c1.3,0.6,36.4-75.8,37.7-75.2s-33.4,77.1-32,77.8c1.3,0.7,41-73.4,42.3-72.7c1.3,0.7-38.2,74.9-36.9,75.6
				c1.3,0.7,45.7-70.6,46.9-69.8c1.2,0.8-43,72.2-41.8,73c1.2,0.8,50.2-67.4,51.4-66.6c1.2,0.8-47.8,69.1-46.6,70
				c1.2,0.9,54.8-63.8,55.9-62.8c1.1,0.9-52.5,65.6-51.4,66.6c1.1,1,59.2-59.7,60.3-58.7s-57.2,61.5-56.2,62.6s63.6-55,64.5-53.9
				s-61.8,56.9-60.8,58.1c0.9,1.1,67.7-49.9,68.6-48.7s-66.2,51.8-65.3,53s71.6-44.1,72.4-42.9c0.8,1.2-70.3,46-69.6,47.3
				c0.7,1.3,75.1-37.7,75.8-36.4s-74.1,39.6-73.5,40.9c0.6,1.3,78.2-30.8,78.8-29.4c0.6,1.4-77.4,32.6-76.9,34
				c0.5,1.4,80.8-23.3,81.2-21.9s-80.2,25.1-79.8,26.5c0.4,1.4,82.6-15.5,82.9-14c0.3,1.5-82.2,17.2-82,18.6
				c0.2,1.5,83.8-7.3,83.9-5.9c0.2,1.5-83.5,9.1-83.4,10.5C1807.1,161,1891,160.4,1891,161.9z"/>
			<circle class="st5" cx="1669.9" cy="130.6" r="5.1"/>
			<circle class="st5" cx="1732.6" cy="134.3" r="5.1"/>
			<path class="st5" d="M1704.1,192.1l-11.3,3c0,0,0-0.1,0-0.1c-1.2-4.7,3-9.8,9.2-11.4c6.2-1.6,12.3,1,13.5,5.7
				c0.8,3.2-0.9,6.8-4.3,9.2L1704.1,192.1z"/>
			<g id="cloud1" class="st6">
				<ellipse class="st5" cx="157.8" cy="155.4" rx="88.5" ry="70"/>
				<ellipse class="st5" cx="246.8" cy="126.9" rx="66.5" ry="58.5"/>
				<ellipse class="st5" cx="218.8" cy="234.4" rx="85.5" ry="67"/>
				
					<ellipse transform="matrix(0.5708 -0.8211 0.8211 0.5708 -163.5263 201.5197)" class="st5" cx="111" cy="257.2" rx="54.9" ry="104.9"/>
			</g>
			<g id="cloud2">
				<ellipse class="st5" cx="725.8" cy="162.5" rx="96.5" ry="79.1"/>
				<ellipse class="st5" cx="809.3" cy="185.4" rx="83" ry="56"/>
				<ellipse class="st5" cx="696.8" cy="255.9" rx="96.5" ry="43.5"/>
				<ellipse class="st5" cx="890.8" cy="249.9" rx="121.5" ry="49.5"/>
				<ellipse class="st5" cx="845.3" cy="162.9" rx="67" ry="49.5"/>
			</g>
			<g id="cloud3" class="st7">
				<ellipse class="st5" cx="1260.8" cy="135.4" rx="108.5" ry="64"/>
				<ellipse class="st5" cx="1399.8" cy="185.4" rx="74.5" ry="60"/>
				<ellipse class="st5" cx="1285.8" cy="208.4" rx="73.5" ry="46"/>
			</g>
			<g id="bridge">
				<path class="st8" d="M225.5,1079.6c-1.3,1.3-2-2.1-3.9-2.1s-1.9-0.1-3.7-0.1s-1.9,2.7-3.7,2.7c-1.9,0-1.9-3.5-3.7-3.5
					s-1.9,0.9-3.7,0.9c-1.9,0-1.9,4.8-3.7,4.8s-1.9-2.2-3.7-2.2s-1.9-0.1-3.7-0.1c-1.9,0-1.9,0.8-3.7,0.8s-1.9-1.7-3.7-1.7
					c-1.9,0-1.9,3-3.8,3s-2.7-1-4-2.3c-1.3-1.3,1.8-2.2,1.8-4.1c0-1.9-3.7-1.9-3.7-3.8s2.1-1.9,2.1-3.8s1-1.9,1-3.8s1.2-1.9,1.2-3.8
					s-0.1-1.9-0.1-3.8c0-1.9-4.9-1.9-4.9-3.8s4.9-1.9,4.9-3.8s-3.3-1.9-3.3-3.8s2.1-1.9,2.1-3.8s-0.2-1.9-0.2-3.8
					c0-1.9-2.4-1.9-2.4-3.8s2.5-1.9,2.5-3.8s-1.4-1.9-1.4-3.8s-1-1.9-1-3.8c0-1.9,1.6-1.9,1.6-3.8s-0.6-1.9-0.6-3.8
					c0-1.9,0.4-1.9,0.4-3.8s1.2-1.9,1.2-3.8c0-1.9-0.6-1.9-0.6-3.8s0.9-1.9,0.9-3.8s1.8-1.9,1.8-3.8c0-1.9-0.8-1.9-0.8-3.8
					s-2.5-1.9-2.5-3.8c0-1.9,3.4-1.9,3.4-3.8s-0.7-1.9-0.7-3.8s-0.3-1.9-0.3-3.8c0-1.9-3.5-1.9-3.5-3.8s3.7-1.9,3.7-3.8
					c0-1.9-4.9-1.9-4.9-3.8s0.1-1.9,0.1-3.8s4.6-1.9,4.6-3.8c0-1.9-1.2-1.9-1.2-3.8s-1.5-1.9-1.5-3.8c0-1.9,2.4-1.9,2.4-3.8
					s0.2-1.9,0.2-3.8s-0.1-1.9-0.1-3.8c0-1.9-4-1.9-4-3.8s5.2-1.9,5.2-3.8c0-1.9-0.5-1.9-0.5-3.8s0.4-1.9,0.4-3.8s-1.4-1.9-1.4-3.8
					c0-1.9-1.2-1.9-1.2-3.8s2.7-1.9,2.7-3.8c0-1.9-4-1.9-4-3.8s-0.8-1.9-0.8-3.8s-0.3-1.9-0.3-3.8c0-1.9,4.6-1.9,4.6-3.8
					s-5.3-4-4-5.4c1.3-1.4,3.5,1.9,5.4,1.9s1.9-0.8,3.7-0.8c1.9,0,1.9-0.4,3.7-0.4s1.9,1.2,3.7,1.2c1.9,0,1.9-2.9,3.7-2.9
					s1.9,1.9,3.7,1.9s1.9-1.7,3.7-1.7c1.9,0,1.9,1.1,3.7,1.1s1.9,0.9,3.7,0.9c1.9,0,1.9,3.1,3.7,3.1s1.9-2.3,3.8-2.3
					s0.4,0.3,1.7,1.7c1.3,1.3,2.5-0.1,2.5,1.8s2.2,1.9,2.2,3.8c0,1.9-1.6,1.9-1.6,3.8s-0.6,1.9-0.6,3.8s-2.8,1.9-2.8,3.8
					c0,1.9,4.3,1.9,4.3,3.8s-1.2,1.9-1.2,3.8c0,1.9-3.9,1.9-3.9,3.8s1.5,1.9,1.5,3.8s1.8,1.9,1.8,3.8c0,1.9-1,1.9-1,3.8
					s-0.5,1.9-0.5,3.8c0,1.9,1.6,1.9,1.6,3.8s-0.3,1.9-0.3,3.8s-1.6,1.9-1.6,3.8c0,1.9,4.3,1.9,4.3,3.8s-1.5,1.9-1.5,3.8
					c0,1.9-3.7,1.9-3.7,3.8s1.2,1.9,1.2,3.8s3.2,1.9,3.2,3.8c0,1.9-0.7,1.9-0.7,3.8s-3,1.9-3,3.8c0,1.9-0.4,1.9-0.4,3.8
					s0.4,1.9,0.4,3.8s0.3,1.9,0.3,3.8c0,1.9,4.1,1.9,4.1,3.8s-1.7,1.9-1.7,3.8c0,1.9-2.2,1.9-2.2,3.8s3.6,1.9,3.6,3.8s-5,1.9-5,3.8
					c0,1.9,1.8,1.9,1.8,3.8s-2.2,1.9-2.2,3.8c0,1.9,0.6,1.9,0.6,3.8s2.2,1.9,2.2,3.8s0.2,1.9,0.2,3.8s-0.2,1.9-0.2,3.8s0,1.9,0,3.8
					s-0.8,1.9-0.8,3.8c0,1.9,0,1.9,0,3.8s0.2,1.9,0.2,3.8s2.7,1.9,2.7,3.8s0.7,1.9,0.7,3.8s-2.6,1.9-2.6,3.8c0,1.9-3,1.9-3,3.8
					s2,1.9,2,3.8s-1.5,1.9-1.5,3.8s1.9,1.9,1.9,3.8s1.4,1.6,1.9,3.5C227.3,1076.8,226.8,1078.6,225.5,1079.6z"/>
				<path class="st8" d="M1932.4,1102.5c-1.5,1.5-4.3-1-6.5-1c-2.2,0-2.2-0.1-4.4-0.1s-2.2-3-4.4-3s-2.2,4.3-4.4,4.3
					s-2.2,0.1-4.4,0.1c-2.2,0-2.2-2.6-4.4-2.6s-2.2,2.2-4.4,2.2s-2.2-5.2-4.4-5.2s-2.2,1.4-4.4,1.4c-2.2,0-2.2,4.8-4.4,4.8
					s-0.6-3.8-2.1-5.4s0.8,0.1,0.8-2.1c0-2.2-3.8-2.2-3.8-4.3s-1.9-2.2-1.9-4.3s1.8-2.2,1.8-4.3s-0.7-2.2-0.7-4.3s1.5-2.2,1.5-4.3
					c0-2.2-1.6-2.2-1.6-4.3s1.6-2.2,1.6-4.3s-2.1-2.2-2.1-4.3s3.3-2.2,3.3-4.3c0-2.2-4.6-2.2-4.6-4.3s0.9-2.2,0.9-4.3
					s-0.2-2.2-0.2-4.3s0.1-2.2,0.1-4.3c0-2.2,3.9-2.2,3.9-4.3s-1.9-2.2-1.9-4.3s-0.3-2.2-0.3-4.3s-1.8-2.2-1.8-4.3
					c0-2.2,2.9-2.2,2.9-4.3s0.2-2.2,0.2-4.3c0-2.2,0-2.2,0-4.3s-2.3-2.2-2.3-4.3c0-2.2,0.8-2.2,0.8-4.3s-1.6-2.2-1.6-4.3
					c0-2.2,2.6-2.2,2.6-4.3s3.5-2.2,3.5-4.3c0-2.2-1.3-2.2-1.3-4.3s0-2.2,0-4.3c0-2.2-2.1-2.2-2.1-4.3s-2.4-2.2-2.4-4.3
					c0-2.2,4.9-2.2,4.9-4.3s-0.8-2.2-0.8-4.3s-0.9-2.2-0.9-4.3c0-2.2,0.8-2.2,0.8-4.3s-3.1-2.2-3.1-4.3c0-2.2-1.5-2.2-1.5-4.3
					s5.8-2.2,5.8-4.3c0-2.2-6.2-2.2-6.2-4.3s3.7-2.2,3.7-4.3c0-2.2-3-2.2-3-4.3s2.1-2.2,2.1-4.3c0-2.2-1.9-2.2-1.9-4.3
					s1.7-2.2,1.7-4.3c0-2.2-1.3-2.2-1.3-4.3s1.4-2.2,1.4-4.3s-1.5-2.2-1.5-4.3c0-2.2,0.7-2.2,0.7-4.3s2.2-2.2,2.2-4.3
					c0-2.2-2.4-2.2-2.4-4.3s4.7-2.2,4.7-4.4c0-2.2-0.8-2.2-0.8-4.3s-3.7-2.8-2.1-4.3c1.5-1.5,2.1-1.1,4.3-1.1s2.2-1.4,4.3-1.4
					c2.2,0,2.2,2.4,4.4,2.4s2.2-3,4.4-3s2.2,3.8,4.4,3.8s2.2,2.2,4.4,2.2c2.2,0,2.2-0.1,4.4-0.1s2.2-6,4.4-6s2.2,0.3,4.4,0.3
					s2.2,3.9,4.4,3.9c2.2,0,1.6-1.2,3.2,0.4c1.6,1.5,2.1,1,2.1,3.1s-4,2.2-4,4.3c0,2.2,4.9,2.2,4.9,4.3s-3.2,2.2-3.2,4.3
					c0,2.2,4.7,2.2,4.7,4.3s-5.3,2.2-5.3,4.3c0,2.2,3.7,2.2,3.7,4.3s-1.3,2.2-1.3,4.3s2.7,2.2,2.7,4.3c0,2.2-5.3,2.2-5.3,4.3
					s4,2.2,4,4.3c0,2.2,1.2,2.2,1.2,4.3s-0.2,2.2-0.2,4.3c0,2.2-3.3,2.2-3.3,4.3s1.3,2.2,1.3,4.3c0,2.2,1.6,2.2,1.6,4.3
					s-3.6,2.2-3.6,4.3c0,2.2,1,2.2,1,4.3s0,2.2,0,4.3c0,2.2,0.1,2.2,0.1,4.3s0.4,2.2,0.4,4.3s-3.7,2.2-3.7,4.3
					c0,2.2,2.9,2.2,2.9,4.3s3.2,2.2,3.2,4.3c0,2.2,0.1,2.2,0.1,4.3s-5.6,2.2-5.6,4.3c0,2.2,2.4,2.2,2.4,4.3s3.5,2.2,3.5,4.3
					c0,2.2-4.5,2.2-4.5,4.3s-0.7,2.2-0.7,4.3c0,2.2,4.3,2.2,4.3,4.3s-0.7,2.2-0.7,4.3c0,2.2-3,2.2-3,4.3s-0.4,2.2-0.4,4.3
					s2.7,2.2,2.7,4.3s-2.3,2.2-2.3,4.3s-1,2.2-1,4.3s3.4,2.2,3.4,4.3c0,2.2-0.2,2.2-0.2,4.3s-0.8,2.2-0.8,4.3s0.9,2.2,0.9,4.3
					s-0.6,2.2-0.6,4.3c0,2.2,2.7,2.2,2.7,4.3s-1.2,2.2-1.2,4.3s-4.8,2.2-4.8,4.3s5.7,2.2,5.7,4.3c0,2.2-5.1,2.2-5.1,4.3
					s1.8,2.2,1.8,4.3s0.3,2.2,0.3,4.3s2.6,2.2,2.6,4.4s-1.8,1.9-1,3.9C1932.7,1099,1934,1101,1932.4,1102.5z"/>
				<path class="st8" d="M566.5,1084.6c-1.5,1.5-1.3,1.4-3.5,1.4s-2.2-2.8-4.3-2.8c-2.1,0-2.2-0.3-4.3-0.3s-2.2,3.3-4.3,3.3
					c-2.1,0-2.2-3-4.3-3s-2.2,2-4.3,2c-2.2,0-2.1,1-4.3,1s-2.2-4.1-4.3-4.1c-2.1,0-2.2,0.4-4.3,0.4s-2.2,3.8-4.3,3.8
					c-2.2,0-2.1,0.2-4.3,0.2s-2.2,0.2-4.3,0.2s-1.5-1.1-3-2.6c-1.5-1.5-1.2-0.8-1.2-2.9s2.6-2.1,2.6-4.2c0-2.1-0.7-2.1-0.7-4.2
					s-4.6-2.1-4.6-4.2s4.9-2.1,4.9-4.2s-1.3-2.1-1.3-4.2s1.3-2.1,1.3-4.2c0-2.1-0.1-2.1-0.1-4.2s0.7-2.1,0.7-4.2s0.5-2.1,0.5-4.2
					s-2.3-2.1-2.3-4.2c0-2.1-2-2.1-2-4.2s1.1-2.1,1.1-4.2s-1.1-2.1-1.1-4.2s-1.4-2.1-1.4-4.2c0-2.1,5-2.1,5-4.2s-2-2.1-2-4.2
					c0-2.1,2.4-2.1,2.4-4.2s-5.9-2.1-5.9-4.2c0-2.1,2.9-2.1,2.9-4.2s2.4-2.1,2.4-4.2c0-2.1-2.1-2.1-2.1-4.2s-0.3-2.1-0.3-4.2
					c0-2.1,1.2-2.1,1.2-4.2s1-2.1,1-4.2c0-2.1-4.6-2.1-4.6-4.2s-0.9-2.1-0.9-4.2s2.2-2.1,2.2-4.2c0-2.1-2.1-2.1-2.1-4.2s3-2.1,3-4.2
					c0-2.1,0.3-2.1,0.3-4.2s-3.1-2.1-3.1-4.2c0-2.1,5.9-2.1,5.9-4.2s-0.5-2.1-0.5-4.2c0-2.1-3.1-2.1-3.1-4.2s0.2-2.1,0.2-4.2
					s-2.8-2.1-2.8-4.2c0-2.1,1.3-2.1,1.3-4.2s3.7-2.1,3.7-4.2c0-2.1-2.3-2.1-2.3-4.2s-1.1-2.1-1.1-4.2c0-2.1-0.4-2.1-0.4-4.2
					s0.5-2.1,0.5-4.2c0-2.1-0.6-3.5,0.9-5c1.5-1.5,2.9,2.9,5.1,2.9s2.2,1,4.3,1s2.2-2.6,4.3-2.6c2.2,0,2.2,0.8,4.3,0.8
					s2.2-3.1,4.3-3.1c2.2,0,2.2,1,4.3,1s2.2,3.8,4.3,3.8c2.1,0,2.2-4.7,4.3-4.7s2.2,1.2,4.3,1.2c2.2,0,2.1,1.2,4.3,1.2
					s2.2,0.3,4.3,0.3c2.2,0,2.1-0.3,4.3-0.3s3.3-2.8,4.9-1.2s-1.6,2.7-1.6,4.8c0,2.1,3.6,2.1,3.6,4.2s-5.1,2.1-5.1,4.2
					c0,2.1,1.6,2.1,1.6,4.2s0.5,2.1,0.5,4.2c0,2.1,0.8,2.1,0.8,4.2s0.6,2.1,0.6,4.2c0,2.1,1.5,2.1,1.5,4.2s-1.7,2.1-1.7,4.2
					s-2.4,2.1-2.4,4.2c0,2.1-1.6,2.1-1.6,4.2s0.3,2.1,0.3,4.2c0,2.1,4.4,2.1,4.4,4.2s-2.3,2.1-2.3,4.2c0,2.1-0.3,2.1-0.3,4.2
					s1.7,2.1,1.7,4.2c0,2.1-0.8,2.1-0.8,4.2s-1.6,2.1-1.6,4.2s-1.1,2.1-1.1,4.2c0,2.1-0.2,2.1-0.2,4.2s1.2,2.1,1.2,4.2
					c0,2.1,4.2,2.1,4.2,4.2s-0.1,2.1-0.1,4.2c0,2.1-0.7,2.1-0.7,4.2s-1.7,2.1-1.7,4.2c0,2.1-1.8,2.1-1.8,4.2s-0.8,2.1-0.8,4.2
					c0,2.1,5.3,2.1,5.3,4.2s-4.9,2.1-4.9,4.2c0,2.1,2.3,2.1,2.3,4.2s1.5,2.1,1.5,4.2s-0.7,2.1-0.7,4.2s-1.8,2.1-1.8,4.2
					c0,2.1-0.2,2.1-0.2,4.2s2.2,2.1,2.2,4.2s-3.5,2.1-3.5,4.2s3.2,2.1,3.2,4.2c0,2.1-0.9,2.1-0.9,4.2s1.9,2.1,1.9,4.2
					s0.5,2.1,0.5,4.2s-2.2,2.1-2.2,4.2s-2.1,2.1-2.1,4.2c-0.1,1.5-0.1,3,0,4.5C565.4,1083.2,568,1083.1,566.5,1084.6z"/>
				<path class="st8" d="M1244.9,1080.9c-1.2,1.3-3.3,1.3-5.1,1.3s-1.8-4-3.5-4s-1.8,1.1-3.6,1.1c-1.8,0-1.8,0.2-3.5,0.2
					s-1.8-2.2-3.6-2.2s-1.8,0.2-3.5,0.2s-1.8,4.2-3.5,4.2s-1.8-4.7-3.6-4.7s-1.8,1.6-3.5,1.6c-1.8,0-1.8,3.6-3.6,3.6
					s-4.1,0.3-5.3-0.9s2.7-3.5,2.7-5.3c0-1.8-3.6-1.8-3.6-3.6s2.3-1.8,2.3-3.6s1.8-1.8,1.8-3.6s-0.9-1.8-0.9-3.6s-1-1.8-1-3.6
					c0-1.8,1.3-1.8,1.3-3.6s0.9-1.8,0.9-3.6s-0.2-1.8-0.2-3.6s-0.1-1.8-0.1-3.6s-1.4-1.8-1.4-3.6c0-1.8,2.4-1.8,2.4-3.6
					s-2.9-1.8-2.9-3.6s1.8-1.8,1.8-3.6s-0.8-1.8-0.8-3.6c0-1.8-0.6-1.8-0.6-3.6s0.2-1.8,0.2-3.6s1.5-1.8,1.5-3.6
					c0-1.8-0.6-1.8-0.6-3.6s-2.5-1.8-2.5-3.6c0-1.8,3.8-1.8,3.8-3.6s-1.2-1.8-1.2-3.6s-1.7-1.8-1.7-3.6c0-1.8,0.9-1.8,0.9-3.6
					s1.8-1.8,1.8-3.6c0-1.8-3.6-1.8-3.6-3.6s0.7-1.8,0.7-3.6s0.6-1.8,0.6-3.6c0-1.8-1.6-1.8-1.6-3.6s1.4-1.8,1.4-3.6
					s1.4-1.8,1.4-3.6c0-1.8,0.5-1.8,0.5-3.6s-1.4-1.8-1.4-3.6c0-1.8-2.1-1.8-2.1-3.6s3.2-1.8,3.2-3.6s0.3-1.8,0.3-3.6
					c0-1.8-2.4-1.8-2.4-3.6s1.7-1.8,1.7-3.6c0-1.8-1.1-1.8-1.1-3.6s2.4-1.8,2.4-3.6s-4.5-1.8-4.5-3.6c0-1.8,1.2-1.8,1.2-3.6
					s1.4-1.8,1.4-3.6s-1.9-1.8-1.9-3.6c0-1.8,2.4-1.8,2.4-3.6s0.4-1.8,0.4-3.6c0-1.8-1.3-1.8-1.3-3.6s-2.7-1.8-2.7-3.6
					s1.2-1.8,1.2-3.6c0-1.8,0.2-1.8,0.2-3.6s3.7-1.8,3.7-3.6c0-1.8-1.4-1.8-1.4-3.6s-1.3-1.8-1.3-3.6s1-0.3,2.3-1.6
					s-0.3-2.4,1.5-2.4s1.8-1.1,3.5-1.1c1.8,0,1.8,2.4,3.5,2.4s1.8-2.6,3.6-2.6s1.8,3.7,3.5,3.7s1.8-3.8,3.5-3.8s1.8,0.9,3.6,0.9
					s1.8,1.7,3.5,1.7c1.8,0,1.8,0.7,3.6,0.7s1.8-1.8,3.6-1.8s0.3,0.9,1.6,2.2s1.3-0.1,1.3,1.7s-0.4,1.8-0.4,3.6s1.1,1.8,1.1,3.6
					c0,1.8-1.7,1.8-1.7,3.6s0.2,1.8,0.2,3.6c0,1.8-0.8,1.8-0.8,3.6s-0.2,1.8-0.2,3.6s2.1,1.8,2.1,3.6c0,1.8-1.7,1.8-1.7,3.6
					s1.9,1.8,1.9,3.6c0,1.8,1.6,1.8,1.6,3.6s-3.6,1.8-3.6,3.6s0.4,1.8,0.4,3.6c0,1.8,0.6,1.8,0.6,3.6s-0.5,1.8-0.5,3.6
					s-0.8,1.8-0.8,3.6c0,1.8,1.9,1.8,1.9,3.6s1.6,1.8,1.6,3.6c0,1.8,0.2,1.8,0.2,3.6s-3.3,1.8-3.3,3.6s1.4,1.8,1.4,3.6
					c0,1.8,1.6,1.8,1.6,3.6s-0.2,1.8-0.2,3.6c0,1.8-0.8,1.8-0.8,3.6s1.9,1.8,1.9,3.6s0.3,1.8,0.3,3.6c0,1.8-2.3,1.8-2.3,3.6
					s-0.7,1.8-0.7,3.6s0.3,1.8,0.3,3.6c0,1.8-0.9,1.8-0.9,3.6s1.2,1.8,1.2,3.6c0,1.8-1.4,1.8-1.4,3.6s0,1.8,0,3.6s-0.6,1.8-0.6,3.6
					c0,1.8,4.7,1.8,4.7,3.6s0.2,1.8,0.2,3.6c0,1.8-1.7,1.8-1.7,3.6s-3.8,1.8-3.8,3.6s2.4,1.8,2.4,3.6s-0.8,1.8-0.8,3.6
					s1.3,1.8,1.3,3.6s0.2,1.8,0.2,3.6s-2,1.8-2,3.6c0,1.8-0.7,1.8-0.7,3.6s1.3,1.8,1.3,3.6s0.5,1.8,0.5,3.6s0.8,1.8,0.8,3.6
					s-1.6,1.8-1.6,3.6c0,1.8,2.4,1.8,2.4,3.6s1.1,1.8,1.1,3.6s-0.5,1.8-0.5,3.6s-0.9,1.8-0.9,3.6s0.8,1.1,1.4,2.8
					C1246.5,1077.6,1246.1,1079.6,1244.9,1080.9z"/>
				<path class="st8" d="M1577.3,1084.4c-1.3,1.3-1.8-1.7-3.7-1.7s-1.8,3.5-3.7,3.5c-1.8,0-1.8,0.7-3.7,0.7s-1.8,0.3-3.7,0.3
					s-1.8-3.5-3.7-3.5s-1.8,0.2-3.7,0.2s-1.8,1.8-3.7,1.8h-3.7c-1.9,0-1.9,0.6-3.7,0.6s-3.3,0.4-4.6-0.8s-1-2.7-1-4.5
					s2.7-1.8,2.7-3.6c0-1.8-1.1-1.8-1.1-3.6s-2.3-1.8-2.3-3.6s3.3-1.8,3.3-3.6s-0.6-1.8-0.6-3.6s-0.5-1.8-0.5-3.6s-1-1.8-1-3.6
					c0-1.8,2.5-1.8,2.5-3.6s-1.6-1.8-1.6-3.6s-1.5-1.8-1.5-3.6s2.1-1.8,2.1-3.6s-1.2-1.8-1.2-3.6c0-1.8,0.6-1.8,0.6-3.6
					s-0.6-1.8-0.6-3.6s-1.5-1.8-1.5-3.6s1.4-1.8,1.4-3.6c0-1.8,0-1.8,0-3.6s-0.4-1.8-0.4-3.6c0-1.8,2.1-1.8,2.1-3.6
					s-1.2-1.8-1.2-3.6s-1.6-1.8-1.6-3.6c0-1.8,3.5-1.8,3.5-3.6s0-1.8,0-3.6s-2.8-1.8-2.8-3.6c0-1.8,1.3-1.8,1.3-3.6s0.7-1.8,0.7-3.6
					c0-1.8,1.2-1.8,1.2-3.6s0.7-1.8,0.7-3.6s-5-1.8-5-3.6c0-1.8,4.6-1.8,4.6-3.6s-0.3-1.8-0.3-3.6c0-1.8-2.5-1.8-2.5-3.6
					s2.7-1.8,2.7-3.6s-4.4-1.8-4.4-3.6c0-1.8,1.8-1.8,1.8-3.6s1.4-1.8,1.4-3.6s-0.8-1.8-0.8-3.6c0-1.8,0.3-1.8,0.3-3.6
					s-2.6-1.8-2.6-3.6c0-1.8,0.4-1.8,0.4-3.6s1.1-1.8,1.1-3.6s2.6-1.8,2.6-3.6c0-1.8-1.9-1.8-1.9-3.6s0.1-1.8,0.1-3.6
					c0-1.8,0.8-1.8,0.8-3.6s-2.7-1.8-2.7-3.6s2.1-1.8,2.1-3.6c0-1.8-1.1-1.8-1.1-3.6s-1.3-1.8-1.3-3.6s2.3-1.8,2.3-3.6
					c0-1.8,0.4-1.8,0.4-3.6s-2.3-1.8-2.3-3.6c0-1.8,3.7-1.8,3.7-3.6s-0.3-1.8-0.3-3.6s-1-0.5,0.3-1.8s0-0.7,1.9-0.7s1.8-1.5,3.7-1.5
					s1.8,0.8,3.7,0.8h3.7c1.8,0,1.8,0.1,3.7,0.1s1.8-0.6,3.7-0.6s1.8,1.5,3.7,1.5s1.8-0.3,3.7-0.3c1.8,0,1.9-0.5,3.7-0.5
					s0.5,0,1.8,1.3s3.7-0.2,3.7,1.6s-4.2,1.8-4.2,3.6s0.1,1.8,0.1,3.6c0,1.8,4.5,1.8,4.5,3.6s-3.7,1.8-3.7,3.6
					c0,1.8,4.2,1.8,4.2,3.6s-2.2,1.8-2.2,3.6s0.9,1.8,0.9,3.6c0,1.8,1.1,1.8,1.1,3.6s-1.5,1.8-1.5,3.6s-2.8,1.8-2.8,3.6
					c0,1.8-0.1,1.8-0.1,3.6s-0.7,1.8-0.7,3.6c0,1.8,3.2,1.8,3.2,3.6s-1.2,1.8-1.2,3.6s0.6,1.8,0.6,3.6c0,1.8,1.2,1.8,1.2,3.6
					s-2.2,1.8-2.2,3.6c0,1.8,2.2,1.8,2.2,3.6s0.7,1.8,0.7,3.6s-3.4,1.8-3.4,3.6c0,1.8-0.4,1.8-0.4,3.6s3.2,1.8,3.2,3.6
					s0.5,1.8,0.5,3.6c0,1.8-4.6,1.8-4.6,3.6s1.9,1.8,1.9,3.6c0,1.8-0.6,1.8-0.6,3.6s1.7,1.8,1.7,3.6s-2.9,1.8-2.9,3.6
					c0,1.8,0.3,1.8,0.3,3.6s0.3,1.8,0.3,3.6s2.2,1.8,2.2,3.6c0,1.8-1.7,1.8-1.7,3.6s2.8,1.8,2.8,3.6c0,1.8-1.3,1.8-1.3,3.6
					s1.2,1.8,1.2,3.6s0.9,1.8,0.9,3.6c0,1.8-3.5,1.8-3.5,3.6s2.6,1.8,2.6,3.6c0,1.8-1.1,1.8-1.1,3.6s1.5,1.8,1.5,3.6
					s-0.6,1.8-0.6,3.6s-1.7,1.8-1.7,3.6c0,1.8-0.7,1.8-0.7,3.6s1.6,1.8,1.6,3.6s-2.2,1.8-2.2,3.6s1.3,1.8,1.3,3.6s0.5,1.8,0.5,3.6
					s-2.4,1.8-2.4,3.6c0,1.8,2.6,1.8,2.6,3.6s2.3,1.8,2.3,3.6s-1.8,1.8-1.8,3.6s-2.9,1.8-2.9,3.6s0.8,1.8,0.8,3.6
					c0,1.8-0.4,2.2-0.1,4S1578.6,1083.1,1577.3,1084.4z"/>
				<path class="st8" d="M907,1079.1c-1.4,1.4-0.6,2-2.6,2s-2-2.2-3.9-2.2s-2,3-3.9,3c-1.9,0-2,0.4-3.9,0.4s-2-1.8-3.9-1.8
					c-1.9,0-2,1.3-3.9,1.3s-2-3.3-3.9-3.3c-1.9,0-2-0.7-3.9-0.7s-2,1.3-3.9,1.3s-2-1-3.9-1c-1.9,0-2,1.3-3.9,1.3s-2.9,2.8-4.3,1.4
					c-1.4-1.4,1.7-2.4,1.7-4.4c0-2,1-2,1-4s0.3-2,0.3-4s-1.3-2-1.3-4s-1.1-2-1.1-4s1.6-2,1.6-4c0-2-4.1-2-4.1-4s3.9-2,3.9-4
					s1.3-2,1.3-4s-6-2-6-4c0-2,4.4-2,4.4-4s0.4-2,0.4-4s-2.5-2-2.5-4s0.9-2,0.9-4c0-2-2.8-2-2.8-4s4.4-2,4.4-4c0-2-2.6-2-2.6-4
					s0.1-2,0.1-4s-1.3-2-1.3-4c0-2,5.1-2,5.1-4s0.3-2,0.3-4c0-2-2.5-2-2.5-4s-3-2-3-4c0-2,1.4-2,1.4-4s-2-2-2-4s2.5-2,2.5-4
					c0-2-2-2-2-4s5.5-2,5.5-4c0-2-0.6-2-0.6-4s0.1-2,0.1-4c0-2,0.2-2,0.2-4s-3.7-2-3.7-4s2.4-2,2.4-4c0-2-0.2-2-0.2-4s-1.5-2-1.5-4
					c0-2,0.9-2,0.9-4s0.8-2,0.8-4c0-2,0.1-2,0.1-4s0.1-2,0.1-4s-1-2-1-4c0-2-1.2-2-1.2-4s-0.8-2-0.8-4c0-2,1.4-2,1.4-4s2-2,2-4
					c0-2-2.4-2-2.4-4s-0.8-2-0.8-4s3.3-2,3.3-4c0-2-4.8-2-4.8-4s3.5-2,3.5-4c0-2-0.8-1.3,0.6-2.8s0.6-4,2.6-4s2,5.5,3.9,5.5
					c1.9,0,2-2.2,3.9-2.2s2,1.3,3.9,1.3s2,0.6,3.9,0.6c1.9,0,2,0.5,3.9,0.5h3.9c2,0,2-0.8,3.9-0.8s2-0.8,3.9-0.8
					c1.9,0,2-1.1,3.9-1.1s2-2.3,3.9-2.3c1.5-0.1,3,0.5,4,1.7c1.4,1.5,1,2.2,1,4.2c0,2-1.5,2-1.5,4s2.3,2,2.3,4c0,2-2.4,2-2.4,4
					s0.9,2,0.9,4s0.7,2,0.7,4c0,2-3,2-3,4s2.2,2,2.2,4c0,2,1.2,2,1.2,4s-3.5,2-3.5,4c0,2,3.1,2,3.1,4s-3.9,2-3.9,4s2,2,2,4
					c0,2,0,2,0,4s-2.2,2-2.2,4c0,2,2.1,2,2.1,4s0.4,2,0.4,4c0,2,2.3,2,2.3,4s-1.9,2-1.9,4s-2.5,2-2.5,4c0,2,2.2,2,2.2,4s2.9,2,2.9,4
					c0,2-0.6,2-0.6,4v4c0,2-3.3,2-3.3,4s4.2,2,4.2,4s0.3,2,0.3,4c0,2-3.8,2-3.8,4s2.7,2,2.7,4c0,2,0,2,0,4s-0.3,2-0.3,4
					c0,2-0.2,2-0.2,4s-1.2,2-1.2,4s2.8,2,2.8,4c0,2-4.8,2-4.8,4s2.7,2,2.7,4c0,2,0,2,0,4s-0.2,2-0.2,4s-2,2-2,4s2.6,2,2.6,4
					c0,2-2.1,2-2.1,4s2.4,2,2.4,4s1.2,2,1.2,4s-1.3,2-1.3,4c0,2,0.7,2,0.7,4s-1.1,2-1.1,4s-3.9,2-3.9,4s5,2,5,4.1s-0.5,2-0.4,4
					C910.1,1077.9,908.4,1077.7,907,1079.1z"/>
				
					<linearGradient id="SVGID_00000139997069841517894160000012450521699658304172_" gradientUnits="userSpaceOnUse" x1="65.8093" y1="385.7822" x2="2023.4193" y2="385.7822" gradientTransform="matrix(1.01 3.999974e-02 2.999980e-02 -1.15 -89.7864 1309.7294)">
					<stop  offset="0" style="stop-color:#8C6239"/>
					<stop  offset="0.49" style="stop-color:#724922"/>
					<stop  offset="0.55" style="stop-color:#6F4721"/>
					<stop  offset="1" style="stop-color:#42210B"/>
				</linearGradient>
				<path style="fill:url(#SVGID_00000139997069841517894160000012450521699658304172_);" d="M1958.5,948.6
					c-11.9,13.3-19.4-7.2-37.3-7.2s-17.9,12.1-35.7,12.1s-17.9-18.3-35.7-18.3s-17.9,4.5-35.7,4.5c-17.9,0-17.9-1.9-35.7-1.9
					s-17.9,2-35.7,2s-17.9,9.5-35.7,9.5s-17.9,7.7-35.7,7.7s-17.8-21.2-35.7-21.2s-17.9,21.7-35.7,21.7s-17.9-0.7-35.7-0.7
					s-17.9-2.2-35.7-2.2s-17.9-9.9-35.7-9.9s-17.9-8.4-35.7-8.4c-17.9,0-17.9,3-35.7,3s-17.9,2.8-35.7,2.8s-17.9,9.8-35.7,9.8
					s-17.9,3.9-35.7,3.9s-17.9-5.4-35.7-5.4s-17.9,4.3-35.7,4.3s-17.9-13.2-35.7-13.2s-17.9-1.6-35.7-1.6s-17.9,7-35.7,7
					s-17.9-9.3-35.7-9.3s-17.9,7.2-35.7,7.2c-17.9,0-17.9-6.9-35.7-6.9c-17.9,0-17.9-0.3-35.7-0.3c-17.9,0-17.8,17.3-35.7,17.3
					s-17.9-14.7-35.7-14.7s-17.9,2.9-35.7,2.9s-17.9-6.8-35.7-6.8s-17.9,6.1-35.7,6.1c-17.9,0-17.9,16.4-35.7,16.4
					s-17.9-20.8-35.7-20.8s-17.9,0.7-35.7,0.7s-17.9,4.3-35.7,4.3s-17.9,9-35.7,9c-17.9,0-17.9,7-35.7,7s-17.9-19-35.7-19
					s-17.9,7.9-35.7,7.9s-17.9-2.9-35.7-2.9c-17.9,0-17.9,12.8-35.7,12.8s-17.9-10.2-35.7-10.2s-17.9-3.1-35.7-3.1
					c-17.9,0-17.9,13.2-35.7,13.2s-17.9-10.9-35.7-10.9c-17.9,0-17.8,11.3-35.7,11.3s-17.9-12.6-35.7-12.6s-17.9,11.3-35.7,11.3
					s-17.9-14-35.7-14s-17.9,5.4-35.7,5.4s-17.9-0.1-35.7-0.1s-17.9-6.1-35.7-6.1s-17.9,14.7-35.7,14.7s-22.6,2.8-34.6-10.5
					c-13.3-14.8,9-18.8,9-38.7s-25.9-27.2-12.6-42c11.9-13.3,20.4-1.4,38.2-1.4s17.9,8,35.7,8s17.9-9.3,35.7-9.3
					s17.9,11.1,35.7,11.1c17.9,0,17.8,1.1,35.7,1.1s17.9-16.4,35.7-16.4s17.9,9.5,35.7,9.5s17.9,9.8,35.7,9.8s17.9-3.7,35.7-3.7
					c17.9,0,17.9-8.6,35.7-8.6s17.9,6.3,35.7,6.3c17.9,0,17.9,4.5,35.7,4.5s17.9-8.7,35.7-8.7s17.9,3.8,35.7,3.8
					c17.9,0,17.9,2,35.7,2s17.9-15.3,35.7-15.3s17.9,8.8,35.7,8.8s17.9,7.3,35.7,7.3c17.9,0,17.9-8.2,35.7-8.2s17.9,5.3,35.7,5.3
					s17.9-2.4,35.7-2.4s17.9-12.8,35.7-12.8s17.9,14.3,35.7,14.3c17.9,0,17.9-4.7,35.7-4.7s17.9-1.9,35.7-1.9s17.9,7.4,35.7,7.4
					s17.9-7.6,35.7-7.6s17.9,10.8,35.7,10.8c17.9,0,17.9-11.5,35.7-11.5s17.9-7.2,35.7-7.2c17.9,0,17.9,19.8,35.7,19.8
					s17.9-11.8,35.7-11.8s17.9-6.6,35.7-6.6s17.9,20.8,35.7,20.8s17.9-8.5,35.7-8.5s17.9-3.9,35.7-3.9s17.9,0.2,35.7,0.2
					s17.9,9.6,35.7,9.6s17.9-1.5,35.7-1.5s17.9-6.5,35.7-6.5s17.9-1.4,35.7-1.4c17.9,0,17.9-6.4,35.7-6.4s17.9,1.3,35.7,1.3
					s17.9-3.3,35.7-3.3s17.9,2.4,35.7,2.4s17.9,17.8,35.7,17.8s17.9-15.4,35.7-15.4s17.9-2.2,35.7-2.2s17.9,8.2,35.7,8.2
					s17.9,0.8,35.7,0.8s17.9-2.7,35.7-2.7c17.9,0,17.9,11.2,35.8,11.2s17.9-9,35.7-9s17.9-8.8,35.7-8.8s23.9-5.9,35.9,7.4
					c13.3,14.8-1.2,19.7,3.2,39.2C1965.1,928.1,1971.8,933.8,1958.5,948.6z"/>
			</g>
			<ellipse class="st10" cx="1230.5" cy="551.2" rx="9.3" ry="9.5"/>
			<g id="devilcow">
				<polygon class="st11" points="1391.2,449.3 1391.1,447.2 1389.2,446.2 1387.3,447.3 1387.3,449.5 1389.2,450.5 				"/>
				<polygon class="st12" points="1393.5,460.5 1393.4,457.4 1390.7,455.7 1388.2,457.2 1388.4,460.3 1391,462 				"/>
				<polygon class="st11" points="1348.3,478.7 1348.2,475.3 1345.3,473.7 1342.5,475.4 1342.6,478.7 1345.5,480.4 				"/>
				<polygon class="st12" points="1351.3,491 1351.2,487.7 1348.3,486.1 1345.5,487.8 1345.6,491.1 1348.5,492.7 				"/>
				<polygon class="st5" points="1404.3,393.2 1401.4,398.7 1365.4,378.4 1368.3,372.9 				"/>
				
					<rect x="1336.5" y="450.5" transform="matrix(0.8552 -0.5183 0.5183 0.8552 -46.8603 761.2275)" class="st5" width="4.7" height="28"/>
				
					<rect x="1334.7" y="453" transform="matrix(0.8552 -0.5183 0.5183 0.8552 -51.1357 761.966)" class="st5" width="6.6" height="39.1"/>
				
					<rect x="1379.2" y="427.6" transform="matrix(0.8552 -0.5183 0.5183 0.8552 -30.1737 780.7242)" class="st5" width="5.9" height="33.5"/>
				
					<rect x="1381.5" y="425.6" transform="matrix(0.8552 -0.5183 0.5183 0.8552 -26.545 780.3738)" class="st5" width="3.5" height="24.2"/>
				<polygon class="st13" points="1244.6,419.3 1247,419.8 1248.6,411.2 1246.3,410.7 				"/>
				<polygon class="st13" points="1284.8,392.9 1284.7,395.3 1277.3,394.8 1277.4,392.4 				"/>
				<polygon class="st13" points="1267.3,430.1 1271.3,419.1 1278.3,428.7 1274.1,407 1276.3,391 1269.7,388.6 1264.2,369.1 
					1264.3,389.3 1258.6,393.2 1265.3,408.1 				"/>
				<polygon class="st13" points="1296.1,419.4 1281.3,419.2 1286.4,433.4 1266.3,416.9 1247.4,411.8 1249.8,401.8 1233.1,384.6 
					1254.6,394.8 1263.1,389.2 1274.1,405.6 				"/>
				
					<rect x="1284.7" y="396.2" transform="matrix(0.8552 -0.5183 0.5183 0.8552 -25.2544 754.0898)" class="st5" width="104.4" height="52"/>
				
					<rect x="1248.1" y="389.4" transform="matrix(0.8552 -0.5183 0.5183 0.8552 -28.9175 715.8344)" class="st5" width="36.9" height="40.6"/>
				
					<rect x="1261" y="421.8" transform="matrix(0.8552 -0.5183 0.5183 0.8552 -39.9923 728.7481)" class="st14" width="46.3" height="28.3"/>
				
					<ellipse transform="matrix(0.8552 -0.5183 0.5183 0.8552 -35.6828 731.7248)" class="st5" cx="1291.6" cy="429.7" rx="2.1" ry="6.2"/>
				
					<ellipse transform="matrix(0.8552 -0.5183 0.5183 0.8552 -42.4297 725.3941)" class="st5" cx="1276.9" cy="438.6" rx="2.8" ry="6.2"/>
				<ellipse transform="matrix(0.8552 -0.5183 0.5183 0.8552 -29.0856 710.5507)" cx="1257.1" cy="407.3" rx="3" ry="4"/>
				<ellipse transform="matrix(0.8557 -0.5174 0.5174 0.8557 -23.257 718.2247)" cx="1276.3" cy="400.8" rx="3.2" ry="5.1"/>
				<polygon points="1258.8,402.6 1250.4,402.7 1250.3,401.7 1258.8,401.6 				"/>
				<polygon points="1267.4,392 1262,400.5 1261,399.9 1266.4,391.3 				"/>
				<polygon class="st13" points="1407.5,394.2 1404,400.8 1398.8,397.9 1402.4,391.3 				"/>
				<path class="st15" d="M1329.1,423.3c0,0.7-7.8-1-7.8-1.5c0,1.8-5.1,6.8-5.1,8.8c0-0.6-1.6-8.1-1.6-8.2c0-0.7-7.2-2.5-7.2-2.4
					c0-0.3,6.8-4.6,6.8-5.4c0,0.3,0.6-6.3,0.6-8.7c2.1,1.9,4,4.1,5.8,6.3c0,1.4,7.6-3.1,7.6-0.7c0-1.1-3.2,6.2-3.2,6
					C1325.1,418.7,1329.1,423.1,1329.1,423.3z"/>
				<path class="st15" d="M1362.6,430.3c0,0.8-7,2.9-7,2.1c0,0.5-4,3.3-4,4.7c0-0.4-2.1-7.2-2.1-7.2c0-1.2-6.7-0.5-6.7-1.1
					c0-1.2,5.7-4.9,5.7-6.3c0,2.6-0.1-6.8-0.1-4.1c0-0.5,5.6,0.9,5.6,3.8c0-0.9,6.6-3.7,6.6-3.1c0-0.9-2.2,7.6-2.2,6.2
					C1358.4,426.2,1362.6,432.2,1362.6,430.3z"/>
				<path class="st15" d="M1357.3,401.1c-0.6,0-3-5.5-2.4-5.5c-2-0.3-4-0.8-6-1.3c-0.1,0,4.6-3.8,4-3.8c0,0-0.4-5.9,0.4-5.9
					c-0.7,0,6.1,3.2,5.2,3.2c-1.3,0,4.8-2.3,5.2-2.3c-1.3,0-2.8,5.7-2,5.7s3.8,4.5,4.4,4.5s-5,0.4-5,0.4
					C1361.6,396,1356.8,401.1,1357.3,401.1z"/>
			</g>
			<g id="devilcow-2">
				<polygon class="st11" points="1695.2,386.3 1694.1,384.5 1695.2,382.7 1697.3,382.7 1698.4,384.5 1697.3,386.3 				"/>
				<polygon class="st16" points="1698.8,396.6 1697.4,394 1698.7,391.3 1701.5,391.2 1702.9,393.9 1701.6,396.5 				"/>
				<polygon class="st11" points="1744.6,389 1743.1,386.3 1744.6,383.5 1747.8,383.5 1749.3,386.3 1747.8,389 				"/>
				<polygon class="st16" points="1748.3,400.6 1746.7,397.8 1748.3,395.1 1751.4,395.1 1753,397.8 1751.4,400.6 				"/>
				<polygon class="st5" points="1656.7,347 1661.8,350 1681.2,315.7 1676,312.6 				"/>
				<rect x="1743.1" y="359.4" class="st5" width="4.5" height="26.7"/>
				<rect x="1746.8" y="360.3" class="st5" width="6.3" height="37.3"/>
				<rect x="1697.3" y="361.7" class="st5" width="5.6" height="31.9"/>
				<rect x="1694.2" y="361.3" class="st5" width="3.3" height="23.1"/>
				<polygon class="st13" points="1799.9,289.3 1798.2,290.9 1792.6,284.7 1794.3,283.1 				"/>
				<polygon class="st13" points="1754,287.6 1755.3,289.5 1761.1,285.5 1759.9,283.6 				"/>
				<polygon class="st13" points="1786.7,309.4 1778,302.4 1777.1,313.6 1769.8,293.9 1760.1,281.9 1764.2,276.7 1759.1,258 
					1769,274.6 1775.6,275 1777.5,290.4 				"/>
				<polygon class="st13" points="1758,314.8 1770,307.4 1772.8,321.4 1781.1,298.1 1793.9,284.6 1787,277.6 1792.2,255.3 
					1779.6,274.3 1770,273.9 1769.1,292.7 				"/>
				<rect x="1676.3" y="312.5" class="st5" width="99.6" height="49.6"/>
				<rect x="1759.6" y="272.9" class="st5" width="35.2" height="38.7"/>
				<rect x="1753.8" y="308.9" class="st14" width="44.2" height="27"/>
				<ellipse class="st5" cx="1766.7" cy="321" rx="2" ry="5.9"/>
				<ellipse class="st5" cx="1783.1" cy="321" rx="2.7" ry="5.9"/>
				<ellipse cx="1783.8" cy="285.7" rx="2.9" ry="3.8"/>
				<ellipse cx="1770.5" cy="286.7" rx="3.1" ry="4.8"/>
				<polygon points="1780,282.7 1787,278.6 1786.5,277.8 1779.6,281.9 				"/>
				<polygon points="1767.8,278.3 1776.5,282.6 1777,281.6 1768.3,277.2 				"/>
				<polygon class="st13" points="1654.6,349.4 1660.7,353 1663.5,348.1 1657.3,344.5 				"/>
				<path class="st15" d="M1733.5,335.4c0,1.6,5.9-3.5,5.9-4.5c0-0.5,7.1,1.9,7.1,1.8c0,0.9-2.5-6.1-2.5-5.9c0,0.1,4.3-7.9,4.3-8.6
					c0,2.8-7.4,1.8-7.4,1.9c0-1.4-4.4-6.1-4.4-7.8c0,0.6-2.1,9.4-2.1,9s-7.1,2.8-7.1,2.4c0,0,6.2,5,6.2,2.2
					C1733.4,326.9,1733.5,335.5,1733.5,335.4z"/>
				<path class="st15" d="M1709.7,358.5c0-1.7,5.6-6.3,5.6-3.7c0-0.3,6.1,1,6.1,0c0,2.5-1.7-3.8-1.7-3.2c0-2.1,4.3-8.2,4.3-7.2
					s-6.6,1.1-6.6-0.8c0-0.9-3.4-4.6-3.4-6.4c0-0.2-2.4,8-2.4,5.8c0,1.1-6.5,2.9-6.5,5.2c0-0.9,5.1,2.3,5.1,1.5
					C1710.2,350.1,1709.7,357.1,1709.7,358.5z"/>
				<path class="st15" d="M1699.2,330.2c-0.1,0-1.6-5.6-0.5-5.6c-1.7,0,2.3-3.9,4.1-3.9c-1.8,0-5.8-0.9-6.9-0.9c0.5,0-2-5.1-1.7-5.1
					c0,0-3,5.1-3.7,5.1c1.7,0-4.5,0.7-4.8,0.7c1.6,0,5.2,4,4.7,4c-0.2,0-1.7,5.6-1.4,5.6c1.2,0,4.6-2.6,4.4-2.6
					C1692.8,327.5,1699.7,330.2,1699.2,330.2z"/>
			</g>
			<g id="devilcow-3">
				<polygon class="st11" points="166.2,350.7 165.8,353 167.7,354.5 170,353.6 170.4,351.3 168.5,349.8 				"/>
				<polygon class="st17" points="165.9,338 165.4,341.4 167.9,343.7 171,342.7 171.4,339.2 168.9,336.9 				"/>
				<polygon class="st11" points="218.9,327.2 218.3,330.8 221.2,333.2 224.6,331.9 225.1,328.2 222.3,325.9 				"/>
				<polygon class="st17" points="218.1,313.1 217.6,316.7 220.4,319.1 223.8,317.8 224.4,314.1 221.5,311.8 				"/>
				<polygon class="st5" points="140.5,409.4 144.8,404 180.2,433.4 175.8,438.8 				"/>
				
					<rect x="223.8" y="329" transform="matrix(0.9348 -0.3553 0.3553 0.9348 -107.6559 102.919)" class="st5" width="5.3" height="31.1"/>
				
					<rect x="225.3" y="314.3" transform="matrix(0.9348 -0.3553 0.3553 0.9348 -104.4372 103.2546)" class="st5" width="7.4" height="43.4"/>
				
					<rect x="171.9" y="339.3" transform="matrix(0.9348 -0.3553 0.3553 0.9348 -115.7376 85.5663)" class="st5" width="6.5" height="37.2"/>
				
					<rect x="170.6" y="351.5" transform="matrix(0.9348 -0.3553 0.3553 0.9348 -118.4158 85.0912)" class="st5" width="3.9" height="26.9"/>
				<polygon class="st13" points="320.4,412.9 317.9,411.9 314.4,421 316.8,422 				"/>
				<polygon class="st13" points="271.1,433.7 271.7,431.1 279.7,433.2 279.1,435.8 				"/>
				<polygon class="st13" points="297.7,396.5 291.1,407.8 285.5,395.8 285.7,420.4 280.1,437.5 286.7,441.4 288.9,463.9 
					292.8,441.8 299.8,438.6 295.6,421 				"/>
				<polygon class="st13" points="264.2,402.5 280.3,405.6 277.5,389.2 296.2,411.2 315.8,420.5 311.2,431 326,453.2 304.5,437.6 
					294.1,442.1 285.4,422 				"/>
				
					<rect x="162.1" y="362.3" transform="matrix(0.9348 -0.3553 0.3553 0.9348 -124.6162 103.7123)" class="st5" width="116" height="57.8"/>
				
					<rect x="273.9" y="396.5" transform="matrix(0.9348 -0.3553 0.3553 0.9348 -129.6601 131.9388)" class="st5" width="41" height="45.1"/>
				
					<rect x="254.8" y="371" transform="matrix(0.9348 -0.3553 0.3553 0.9348 -119.1033 124.8787)" class="st14" width="51.4" height="31.4"/>
				
					<ellipse transform="matrix(0.9348 -0.3553 0.3553 0.9348 -121.6334 121.8709)" class="st5" cx="271" cy="392.1" rx="2.3" ry="6.9"/>
				
					<ellipse transform="matrix(0.9348 -0.3553 0.3553 0.9348 -118.0557 127.7703)" class="st5" cx="288.9" cy="385.3" rx="3.1" ry="6.9"/>
				<ellipse transform="matrix(0.9348 -0.3553 0.3553 0.9348 -130.6283 135.7612)" cx="304.4" cy="423.6" rx="3.3" ry="4.4"/>
				<ellipse transform="matrix(0.9348 -0.3553 0.3553 0.9348 -133.1613 130.7434)" cx="289.4" cy="428" rx="3.6" ry="5.6"/>
				<polygon points="301.5,428.3 310.7,429.9 310.6,431 301.3,429.4 				"/>
				<polygon points="290,438.2 297.6,429.9 298.6,430.8 291,439.1 				"/>
				<polygon class="st13" points="137.2,407.7 142.4,401.1 147.5,405.3 142.3,411.9 				"/>
				<path class="st15" d="M229,391.1c0-1.4,8.3,1.3,8.3,1.7c0-1,6.8-6.3,6.8-6.3c0-1.1,0.2,10.1,0.2,11.7c0-0.2,7.3,4.2,7.3,3.2
					c0,0.3-8.2,0.9-8.2,1c0,2.8-2.3,12.1-2.3,8.7c0,2.7-5.3-5.9-5.3-4.6c0-0.9-8.7,0-8.7,0.4c0-1,4.9-6.4,4.9-9.7
					C232.1,399.2,229,389.7,229,391.1z"/>
				<path class="st15" d="M193.9,377.5c0,0.7,7.6-1.9,7.6,0.2c0-2.1,5.6-4.7,5.6-7.2c0,1.5,0.9,9.4,0.9,7.7c0,2,6.9,5.8,6.9,5.9
					c0,2-7.1,2.9-7.1,3.8c0-1.4-1.3,8.4-1.3,6.6c0,2-5.3-4-5.3-6.6c0-1-7.7-0.1-7.7,0.8c0,3,3.8-7.7,3.8-3.3
					C197.3,381.3,193.9,377.4,193.9,377.5z"/>
				<path class="st15" d="M192.8,410.2c-0.5,0,0.9,6.5,1.5,6.5c1.8,0,7.2,2.6,7.6,2.6c-1.9,0-5.4,3.2-5.7,3.2
					c-0.5,0-1.1,6.6-2.5,6.6c1.9,0-3.2-4.5-5.2-4.5c2.5,0-4,1.5-4.5,1.5c-1.9,0,1.8-6,2.4-6c1.2,0-2.3-5.7-3.6-5.7
					c-0.1,0,7.1,0.8,6.7,0.8S193,410.2,192.8,410.2z"/>
			</g>
			<g id="devilcow-4">
				<polygon class="st11" points="534.1,37.8 535.3,39.8 534.1,41.8 531.7,41.8 530.5,39.8 531.7,37.8 				"/>
				<polygon class="st18" points="530,25.9 531.6,28.9 530.1,32 526.9,32 525.3,29 526.8,26 				"/>
				<polygon class="st11" points="477.2,34.6 479,37.8 477.2,41 473.6,41 471.8,37.8 473.6,34.6 				"/>
				<polygon class="st18" points="473,21.3 474.8,24.5 473,27.7 469.4,27.7 467.6,24.5 469.4,21.3 				"/>
				<polygon class="st5" points="578.5,83 572.6,79.5 550.3,119.1 556.2,122.6 				"/>
				<rect x="473.8" y="38" class="st5" width="5.2" height="30.8"/>
				<rect x="467.4" y="24.8" class="st5" width="7.3" height="42.9"/>
				<rect x="525.2" y="29.2" class="st5" width="6.4" height="36.8"/>
				<rect x="531.5" y="39.9" class="st5" width="3.8" height="26.6"/>
				<polygon class="st13" points="413.6,149.4 415.5,147.6 421.9,154.7 420,156.5 				"/>
				<polygon class="st13" points="466.4,151.3 464.9,149.1 458.2,153.8 459.7,156 				"/>
				<polygon class="st13" points="428.8,126.3 438.8,134.4 439.8,121.4 448.2,144.1 459.4,157.9 454.6,163.9 460.5,185.4 
					449.1,166.4 441.6,165.9 439.3,148.1 				"/>
				<polygon class="st13" points="461.8,120 448,128.6 444.8,112.4 435.3,139.3 420.5,154.8 428.4,162.9 422.5,188.6 436.9,166.7 
					448,167.1 449.1,145.5 				"/>
				<rect x="441.3" y="65.6" class="st5" width="114.7" height="57.1"/>
				<rect x="419.4" y="123.7" class="st5" width="40.5" height="44.6"/>
				<rect x="415.8" y="95.7" class="st14" width="50.8" height="31.1"/>
				<ellipse class="st5" cx="451.8" cy="112.9" rx="2.2" ry="6.8"/>
				<ellipse class="st5" cx="432.9" cy="112.9" rx="3.1" ry="6.8"/>
				<ellipse cx="432.1" cy="153.6" rx="3.3" ry="4.4"/>
				<ellipse cx="447.4" cy="152.4" rx="3.5" ry="5.6"/>
				<polygon points="436.4,157 428.4,161.7 429,162.7 437,157.9 				"/>
				<polygon points="450.5,162.1 440.5,157.2 440,158.3 450,163.3 				"/>
				<polygon class="st13" points="580.9,80.2 573.8,76 570.6,81.7 577.7,85.9 				"/>
				<path class="st15" d="M490,95.4c0-0.9-6.8,5.3-6.8,5.5c0,1.7-8.2-3.6-8.2-3.7c0,2.3,2.9,9,2.9,12c0-3.2-5,6.2-5,6.9
					c0-3.5,8.6-2.7,8.6-0.8c0-0.7,5.1,4.4,5.1,5.6c0-1.5,2.4-9.5,2.4-9.4c0,1.7,8.1-2.2,8.1-1.3c0,0.3-7.1-7-7.1-5.2
					C490.1,103.7,490,96.7,490,95.4z"/>
				<path class="st15" d="M517.5,72.7c0-2.2-6.4,0.8-6.4,1.1c0,1.4-7-2.3-7-2.3s1.9,6.1,1.9,9.6c0-1.8-5,3-5,3.3c0,2.2,7.6,2,7.6,1
					c0,1.4,4,5.2,4,5.1c0,2.3,2.8-4.9,2.8-6.8c0,0.9,7.5-1,7.5,0.1c0-2.3-5.9-4.3-5.9-6.1C516.8,78.7,517.5,71,517.5,72.7z"/>
				<path class="st15" d="M530.9,102.3c-1.2,0-0.8,6.5,0.3,6.5c-1.2,0-6.3,4.5-5,4.5c1.5,0,5.2,1,6.7,1c-1.1,0,3.1,5.9,2.8,5.9
					c-1.1,0,1.3-5.8,2.3-5.8s8-0.9,6-0.9c0.1,0-3.2-4.6-3.8-4.6s2.2-6.4,0.8-6.4c1.6,0-4.5,3-4.6,3S529.6,102.3,530.9,102.3z"/>
			</g>
			<g id="devilcow-5">
				<polygon class="st11" points="1552.2,194.4 1553.4,196.4 1552.2,198.3 1549.8,198.3 1548.7,196.4 1549.8,194.4 				"/>
				<polygon class="st19" points="1548.2,182.8 1549.8,185.7 1548.3,188.7 1545.2,188.8 1543.6,185.9 1545.1,182.9 				"/>
				<polygon class="st11" points="1496.7,191.3 1498.4,194.4 1496.7,197.5 1493.2,197.5 1491.4,194.4 1493.2,191.3 				"/>
				<polygon class="st19" points="1492.5,178.3 1494.3,181.4 1492.5,184.5 1489,184.5 1487.3,181.4 1489,178.3 				"/>
				<polygon class="st5" points="1595.5,238.5 1589.8,235.1 1568,273.7 1573.8,277.2 				"/>
				<rect x="1493.4" y="194.6" class="st5" width="5.1" height="30"/>
				<rect x="1487.1" y="181.7" class="st5" width="7.1" height="41.9"/>
				<rect x="1543.6" y="186.1" class="st5" width="6.3" height="35.9"/>
				<rect x="1549.6" y="196.5" class="st5" width="3.7" height="26"/>
				<polygon class="st13" points="1434.6,303.3 1436.4,301.6 1442.7,308.5 1440.9,310.3 				"/>
				<polygon class="st13" points="1486.1,305.2 1484.7,303.1 1478.1,307.7 1479.6,309.8 				"/>
				<polygon class="st13" points="1449.4,280.8 1459.2,288.7 1460.2,276 1468.4,298.2 1479.3,311.7 1474.7,317.5 1480.4,338.5 
					1469.3,319.9 1461.9,319.4 1459.7,302.1 				"/>
				<polygon class="st13" points="1481.7,274.7 1468.2,283 1465,267.2 1455.7,293.5 1441.3,308.6 1449,316.5 1443.3,341.6 
					1457.3,320.2 1468.2,320.6 1469.2,299.5 				"/>
				<rect x="1461.6" y="221.5" class="st5" width="111.9" height="55.7"/>
				<rect x="1440.3" y="278.2" class="st5" width="39.6" height="43.5"/>
				<rect x="1436.7" y="250.9" class="st14" width="49.6" height="30.3"/>
				<ellipse class="st5" cx="1471.9" cy="267.7" rx="2.2" ry="6.7"/>
				<ellipse class="st5" cx="1453.5" cy="267.7" rx="3" ry="6.7"/>
				<ellipse cx="1452.6" cy="307.4" rx="3.2" ry="4.3"/>
				<ellipse cx="1467.6" cy="306.3" rx="3.5" ry="5.4"/>
				<polygon points="1456.9,310.8 1449.1,315.4 1449.6,316.3 1457.4,311.7 				"/>
				<polygon points="1470.6,315.8 1460.9,310.9 1460.4,312 1470.1,316.9 				"/>
				<polygon class="st13" points="1597.9,235.8 1590.9,231.7 1587.8,237.2 1594.8,241.3 				"/>
				<path class="st15" d="M1509.2,251.3c0,1.8-6.6,6.7-6.6,5.5c0-1.8-8-3.1-8-2.4c0,0.2,2.9,9.7,2.9,6.3c0,2.8-4.9,7.8-4.9,7.1
					c0,3,8.4,0.8,8.4-0.4c0,1.1,5,6.8,5,8.9c0-1.3,2.3-7.4,2.3-8.6c0-1.5,7.9-2.9,7.9-3.1c0-0.5-6.9-4.4-6.9-3.7
					C1509.3,258.9,1509.2,250.9,1509.2,251.3z"/>
				<path class="st15" d="M1536,227.4c0,1.1-6.3,1.4-6.3,3.3c0-1.7-6.9-3.9-6.9-1.3c0-0.5,1.9,6.3,1.9,4.3c0,0.6-4.9,7.5-4.9,6.7
					c0,2.3,7.5,1,7.5,2.2c0-2.4,3.9,4.1,3.9,5.1c0,1.7,2.7-6.1,2.7-5.2c0-2,7.3-2.9,7.3-2.5c0-1.5-5.8-6.2-5.8-6.4
					C1535.3,235.2,1536,226.8,1536,227.4z"/>
				<path class="st15" d="M1548.1,257.4c1.2,0,0.8,6.3-0.1,6.3c0.5,0-2.7,4.4-3,4.4c2.1,0.2,4.2,0.5,6.3,1c-1.6,0,1.5,5.8,1.5,5.8
					c1.2,0,4-5.7,3.2-5.7c2.1-0.2,4.2-0.4,6.2-0.8c0.6,0-4.4-4.5-3.4-4.5c-0.4,0-0.8-6.3,0.6-6.3c0.5,0-6.8,2.9-5.4,2.9
					C1553.4,260.5,1549,257.4,1548.1,257.4z"/>
			</g>
			<g id="sad">
				
					<ellipse transform="matrix(0.1361 -0.9907 0.9907 0.1361 327.6383 1758.4299)" class="st10" cx="1172" cy="691.4" rx="40.9" ry="9.5"/>
				
					<ellipse transform="matrix(7.950298e-02 -0.9968 0.9968 7.950298e-02 349.57 1832.8573)" class="st10" cx="1167.2" cy="727.1" rx="19.9" ry="5"/>
				<path class="st20" d="M1227.1,776.3l-18.8,121.7c-20.8-19-34.6-67.7-34.6-121.7c0-71.3,24.1-130,53.5-130
					c29.3,0,53.5,58.7,53.5,130c0,52-12.8,99.2-32.5,119.6L1227.1,776.3z"/>
				<path d="M1321.5,565.4c-4.2,8-27.8-13.6-35.4-8.8c-7.6,4.9,7.6,28.7-0.1,33.6c-7.6,4.9-22.8-19-30.5-14.2
					c-7.6,4.8,1.8,35.5-7.2,35.8c-9,0.3-1.6-30.9-9.6-35.2c-7.9-4.3-21.5,20.5-29.4,16.2c-7.9-4.3,5.6-29.2-2.3-33.5
					c-7.9-4.3-30,18.8-34.7,11.1c-4.7-7.7,25.9-17,25.6-26.2s-28.6-8.3-28.9-17.5c-0.3-9.2,28-10.1,27.7-19.3
					c-0.3-9.2-31.5-16.3-27.3-24.5c4.3-8.1,27.8,13.6,35.4,8.8s-7.6-28.7,0.1-33.6s22.8,19,30.5,14.2c7.6-4.8-1.8-35.5,7.2-35.8
					c9-0.3,1.6,30.9,9.6,35.2c7.9,4.3,21.5-20.5,29.4-16.2c7.9,4.3-5.6,29.2,2.3,33.5c7.9,4.3,30-18.8,34.7-11.1
					c4.7,7.7-25.9,17-25.6,26.2s28.6,8.3,28.9,17.5s-30.3,17.1-26.1,25.3C1302.5,560.1,1325.7,557.3,1321.5,565.4z"/>
				<path d="M1283.4,565.3c-4.2,8-27.8-13.6-35.4-8.8c-7.6,4.9,7.6,28.7-0.1,33.6c-7.6,4.9-22.8-19-30.5-14.2
					c-7.6,4.8,1.8,35.5-7.2,35.8c-9,0.3-1.6-30.9-9.6-35.2c-7.9-4.3-21.5,20.5-29.4,16.2c-7.9-4.3,5.6-29.2-2.3-33.5
					c-7.9-4.3-30,18.8-34.7,11.1c-4.7-7.7,25.9-17,25.6-26.2s-28.6-8.2-28.9-17.5c-0.3-9.2,28-10.1,27.7-19.3
					c-0.3-9.2-31.5-16.3-27.3-24.5c4.3-8.1,27.8,13.6,35.4,8.8s-7.6-28.7,0.1-33.6s22.8,19,30.5,14.2c7.6-4.8-1.8-35.5,7.2-35.8
					c9-0.3,1.6,30.9,9.6,35.2c7.9,4.3,21.5-20.5,29.4-16.2c7.9,4.3-5.6,29.2,2.3,33.5c7.9,4.3,30-18.8,34.7-11.1
					c4.7,7.7-25.9,17-25.6,26.2c0.3,9.2,28.6,8.3,28.9,17.5s-30.3,17.1-26.1,25.3C1264.4,560,1287.7,557.2,1283.4,565.3z"/>
				
					<ellipse transform="matrix(0.9907 -0.1361 0.1361 0.9907 -81.2315 180.6233)" class="st10" cx="1280.7" cy="684.6" rx="10.1" ry="40.9"/>
				<ellipse class="st10" cx="1227.3" cy="553.6" rx="69.7" ry="70.6"/>
				<ellipse class="st10" cx="1285.6" cy="724.2" rx="5" ry="19.9"/>
				<ellipse class="st10" cx="1286.5" cy="745.1" rx="8.6" ry="8.7"/>
				<ellipse class="st21" cx="1203.4" cy="894.2" rx="7.6" ry="22.3"/>
				<ellipse class="st21" cx="1251.9" cy="892.1" rx="5.8" ry="18.8"/>
				<path class="st22" d="M1249.8,901.9h4.8c1.4,0,2.6,1.2,2.6,2.6v11.1c0,1.4-1.2,2.6-2.6,2.6h-4.8c-1.4,0-2.6-1.2-2.6-2.6v-11.1
					C1247.2,903.1,1248.3,901.9,1249.8,901.9z"/>
				<path class="st23" d="M1249.6,909.4h15.5c1.4,0,2.6,1.2,2.6,2.6v5.2c0,1.4-1.2,2.6-2.6,2.6h-15.5c-1.4,0-2.6-1.2-2.6-2.6V912
					C1247,910.5,1248.2,909.4,1249.6,909.4z"/>
				<path class="st22" d="M1199.9,904.4h6.4c1.4,0,2.6,1.2,2.6,2.6v15.5c0,1.4-1.2,2.6-2.6,2.6h-6.4c-1.4,0-2.6-1.2-2.6-2.6V907
					C1197.3,905.6,1198.5,904.4,1199.9,904.4z"/>
				<path class="st23" d="M1188.7,914.3h18.5c1.4,0,2.6,1.2,2.6,2.6v6.9c0,1.4-1.2,2.6-2.6,2.6h-18.5c-1.4,0-2.6-1.2-2.6-2.6v-6.9
					C1186.1,915.5,1187.2,914.3,1188.7,914.3z"/>
				<ellipse class="st24" cx="1200.9" cy="552.5" rx="6.1" ry="8.8"/>
				<ellipse class="st24" cx="1233.8" cy="552.8" rx="6.7" ry="9.9"/>
				<ellipse class="st25" cx="1230.1" cy="650.9" rx="41.5" ry="26.6"/>
				<path class="st26" d="M1204.3,669.5c0.1,2.4,2.1,4.2,4.5,4.1c2.2-0.1,4-1.9,4.1-4.1v-36.9c0.1-2.4-1.7-4.4-4.1-4.5
					s-4.4,1.7-4.5,4.1c0,0.1,0,0.3,0,0.4V669.5z"/>
				
					<ellipse transform="matrix(0.6601 -0.7511 0.7511 0.6601 -59.7908 1178.7639)" class="st25" cx="1272.7" cy="655.5" rx="11.9" ry="19.9"/>
				<path class="st26" d="M1245.2,671.1c0,2.1,1.7,3.9,3.9,3.9c2.1,0,3.9-1.7,3.9-3.9l0,0v-39.8c0-2.1-1.7-3.9-3.9-3.9
					c-2.1,0-3.9,1.7-3.9,3.9V671.1z"/>
				<ellipse cx="1227.2" cy="502.6" rx="61.1" ry="26.7"/>
				<ellipse transform="matrix(0.6 -0.8 0.8 0.6 56.0828 1145.6608)" cx="1173.7" cy="516.7" rx="30.8" ry="12.7"/>
				<ellipse transform="matrix(0.8021 -0.5972 0.5972 0.8021 -57.84 867.9576)" cx="1280.6" cy="521.2" rx="8.7" ry="30.8"/>
				<ellipse class="st27" cx="1249.2" cy="669.5" rx="3.7" ry="3.8"/>
				<ellipse class="st28" cx="1249.2" cy="669.7" rx="0.9" ry="0.9"/>
				<ellipse class="st27" cx="1208.6" cy="668.1" rx="3.4" ry="3.4"/>
				<ellipse class="st28" cx="1208.6" cy="668.7" rx="0.6" ry="0.7"/>
				<path class="st29" d="M1198,715.9l15,0.6c-0.1,20.7-6.9,37.6-15,37.6c-8.1,0-15-17.2-15-38.2H1198z"/>
				
					<ellipse transform="matrix(0.4796 -0.8775 0.8775 0.4796 40.5358 1378.9188)" class="st25" cx="1182.8" cy="655.3" rx="19.1" ry="12.3"/>
				<ellipse class="st10" cx="1165.6" cy="746.8" rx="8.6" ry="8.7"/>
			</g>
			<g id="goodcow">
				
					<ellipse transform="matrix(0.221 -0.9753 0.9753 0.221 -84.316 1046.1714)" class="st13" cx="612.7" cy="575.9" rx="2.2" ry="5.9"/>
				
					<ellipse transform="matrix(0.9122 -0.4098 0.4098 0.9122 -185.2618 288.1659)" class="st13" cx="579.7" cy="576.4" rx="4.9" ry="2.2"/>
				<path class="st14" d="M637.2,648.7c0,0.5,0.4,0.9,0.9,0.9s0.9-0.4,0.9-0.9v-7.4c0-0.5-0.4-0.9-0.9-0.9s-0.9,0.4-0.9,0.9V648.7z"
					/>
				<path class="st14" d="M635.2,647.9c0,0.5,0.4,0.9,0.9,0.9s0.9-0.4,0.9-0.9v-7.4c0-0.5-0.4-0.9-0.9-0.9s-0.9,0.4-0.9,0.9V647.9z"
					/>
				<path class="st14" d="M632.4,648.2c0,0.6,0.5,1.1,1.1,1.1s1.1-0.5,1.1-1.1v-6.9c0-0.6-0.5-1.1-1.1-1.1s-1.1,0.5-1.1,1.1l0,0
					V648.2z"/>
				<ellipse class="st14" cx="636.5" cy="641.5" rx="5" ry="5.6"/>
				<path class="st5" d="M605.9,653.1c0.3,1.6,1.8,2.8,3.4,2.5c1.3-0.2,2.3-1.2,2.5-2.5v-15.3c0.3-1.6-0.9-3.2-2.5-3.4
					s-3.2,0.9-3.4,2.5c0,0.3,0,0.6,0,0.9V653.1z"/>
				<path class="st13" d="M606.8,654.3c0,1,0.8,1.9,1.9,1.9h2c1,0.1,1.9-0.7,2-1.7s-0.7-1.9-1.7-2c-0.1,0-0.2,0-0.3,0h-2
					C607.6,652.5,606.8,653.3,606.8,654.3z"/>
				<path class="st5" d="M602.5,657.9c0,2,1.7,3.7,3.7,3.7c2,0,3.7-1.7,3.7-3.7v-23.4c0-2-1.7-3.7-3.7-3.7c-2,0-3.7,1.7-3.7,3.7
					V657.9z"/>
				<path class="st13" d="M601.9,660c0,1.4,1.2,2.6,2.6,2.6c0,0,0,0,0,0h3.3c1.4-0.1,2.5-1.3,2.5-2.8c-0.1-1.3-1.1-2.4-2.5-2.5h-3.3
					C603.1,657.4,601.9,658.6,601.9,660z"/>
				<path class="st5" d="M644.1,653.6c0,1.4,1.1,2.5,2.5,2.5c1.4,0,2.4-1.1,2.5-2.5v-13c0-1.4-1.1-2.5-2.5-2.5
					c-1.4,0-2.5,1.1-2.5,2.5c0,0,0,0,0,0V653.6z"/>
				<path class="st13" d="M644.8,654.7c0,0.8,0.7,1.5,1.5,1.5h1.5c0.8-0.1,1.4-0.8,1.3-1.7c-0.1-0.7-0.6-1.2-1.3-1.3h-1.5
					C645.5,653.2,644.8,653.8,644.8,654.7L644.8,654.7z"/>
				<path class="st5" d="M639.6,660.7c-0.1,1.8,1.3,3.4,3.2,3.5c1.8,0.1,3.4-1.3,3.5-3.2c0-0.1,0-0.2,0-0.4v-19.2
					c0.1-1.8-1.3-3.4-3.2-3.5c-1.8-0.1-3.4,1.3-3.5,3.2c0,0.1,0,0.2,0,0.4V660.7z"/>
				
					<ellipse transform="matrix(0.8566 -0.5159 0.5159 0.8566 -222.1117 436.6953)" class="st5" cx="674.7" cy="618" rx="3.1" ry="19.4"/>
				<ellipse class="st5" cx="633.7" cy="616.9" rx="40.2" ry="26.5"/>
				<path class="st5" d="M582.4,588c0.2,7.4,6.3,13.2,13.7,13c7.1-0.2,12.8-5.9,13-13v-13.6c-0.2-7.4-6.3-13.2-13.7-13
					c-7.1,0.2-12.8,5.9-13,13V588z"/>
				<path class="st30" d="M577.3,599.2c0,6.6,5.3,11.9,11.9,11.9c0,0,0,0,0.1,0H603c6.6,0.2,12.1-5,12.3-11.6
					c0.2-6.6-5-12.1-11.6-12.3c-0.2,0-0.5,0-0.7,0h-13.7C582.7,587.2,577.4,592.5,577.3,599.2C577.3,599.2,577.3,599.2,577.3,599.2z
					"/>
				<ellipse class="st5" cx="600.6" cy="596.2" rx="1.7" ry="4.8"/>
				<ellipse class="st5" cx="592.6" cy="595.5" rx="2.3" ry="5.4"/>
				<path class="st13" d="M638.7,663.6c0,1.4,1.2,2.6,2.6,2.6h3.3c1.4,0,2.6-1.2,2.6-2.6s-1.2-2.6-2.6-2.6c0,0,0,0,0,0h-3.3
					C639.9,661,638.7,662.1,638.7,663.6L638.7,663.6z"/>
				<ellipse cx="590.7" cy="573.6" rx="2.4" ry="2.7"/>
				<ellipse cx="599.6" cy="573.6" rx="2.1" ry="2.3"/>
				
					<ellipse transform="matrix(0.7902 -0.6129 0.6129 0.7902 -244.5928 552.0617)" class="st5" cx="683.9" cy="633.2" rx="3.3" ry="4.9"/>
				
					<ellipse transform="matrix(0.8582 -0.5134 0.5134 0.8582 -226.0132 395.0638)" class="st31" cx="601.9" cy="606.5" rx="1.1" ry="1.9"/>
				<path class="st32" d="M603.3,603.1c-1.2,1.3-2.7,2.3-4.4,2.7c-3.6,0.9-7.4,0.1-10.3-2.1"/>
				
					<ellipse transform="matrix(0.6555 -0.7552 0.7552 0.6555 -239.7287 705.3611)" class="st15" cx="653.3" cy="615.5" rx="8.6" ry="4.8"/>
				
					<ellipse transform="matrix(0.6539 -0.7565 0.7565 0.6539 -235.0415 684.0301)" class="st15" cx="630.2" cy="598.9" rx="4.9" ry="8.4"/>
				
					<ellipse transform="matrix(0.1168 -0.9932 0.9932 0.1168 -69.9361 1171.5763)" class="st15" cx="623.8" cy="625.1" rx="4" ry="9.5"/>
			</g>
			<g id="goodcow-2">
				
					<ellipse transform="matrix(0.221 -0.9753 0.9753 0.221 -255.9015 921.2129)" class="st13" cx="448.7" cy="620.8" rx="2.5" ry="6.8"/>
				
					<ellipse transform="matrix(0.9117 -0.4108 0.4108 0.9117 -218.4905 222.9967)" class="st13" cx="409.7" cy="619.9" rx="5.6" ry="2.5"/>
				<path class="st14" d="M477.1,705.3c0,0.6,0.5,1,1,1c0.6,0,1-0.5,1-1v-8.6c0-0.6-0.5-1-1-1c-0.6,0-1,0.5-1,1V705.3z"/>
				<path class="st14" d="M474.8,704.3c0,0.6,0.5,1,1,1s1-0.5,1-1v-8.6c0-0.6-0.5-1-1-1s-1,0.5-1,1V704.3z"/>
				<path class="st14" d="M471.6,704.7c0.1,0.7,0.7,1.3,1.4,1.2c0.6-0.1,1.2-0.6,1.2-1.2v-8c-0.1-0.7-0.7-1.3-1.4-1.2
					c-0.6,0.1-1.2,0.6-1.2,1.2V704.7z"/>
				<ellipse class="st14" cx="476.3" cy="697" rx="5.8" ry="6.4"/>
				<path class="st5" d="M440.8,710.4c0,1.9,1.5,3.4,3.4,3.4c1.9,0,3.4-1.5,3.4-3.4v-17.7c0-1.9-1.5-3.4-3.4-3.4
					c-1.9,0-3.4,1.5-3.4,3.4l0,0V710.4z"/>
				<path class="st13" d="M441.8,711.8c0,1.2,1,2.2,2.2,2.2h2.3c1.2,0,2.2-1,2.2-2.2c0-1.2-1-2.2-2.2-2.2H444
					C442.8,709.7,441.9,710.6,441.8,711.8L441.8,711.8z"/>
				<path class="st5" d="M436.8,716c0,2.4,1.9,4.3,4.3,4.3c2.4,0,4.3-1.9,4.3-4.3v-27.2c0-2.4-1.9-4.3-4.3-4.3
					c-2.4,0-4.3,1.9-4.3,4.3V716z"/>
				<path class="st13" d="M436.2,718.4c0,1.7,1.3,3,3,3h3.8c1.7,0,3-1.4,3-3c0-1.7-1.4-3-3-3h-3.8
					C437.5,715.4,436.2,716.7,436.2,718.4L436.2,718.4z"/>
				<path class="st5" d="M485.1,710.9c0,1.6,1.3,2.8,2.8,2.8c1.6,0,2.9-1.3,2.9-2.8v-15.1c0-1.6-1.3-2.8-2.9-2.8
					c-1.6,0-2.8,1.3-2.8,2.8l0,0V710.9z"/>
				<path class="st13" d="M485.9,712.2c0,1,0.8,1.7,1.7,1.7h1.7c1,0,1.7-0.8,1.7-1.7c0-1-0.8-1.7-1.7-1.7h-1.7
					C486.7,710.5,485.9,711.3,485.9,712.2z"/>
				<path class="st5" d="M479.8,719.2c0,2.1,1.7,3.9,3.9,3.9c2.1,0,3.9-1.7,3.9-3.9v-22.3c0-2.1-1.7-3.9-3.9-3.9
					c-2.1,0-3.9,1.7-3.9,3.9V719.2z"/>
				
					<ellipse transform="matrix(0.8566 -0.5159 0.5159 0.8566 -270.8582 364.5923)" class="st5" cx="520.6" cy="669.6" rx="3.6" ry="22.5"/>
				<ellipse class="st5" cx="473" cy="668.4" rx="46.7" ry="30.7"/>
				<path class="st5" d="M413.5,634.9c0.2,8.5,7.3,15.3,15.9,15.1c8.2-0.2,14.9-6.8,15.1-15.1V619c-0.2-8.5-7.3-15.3-15.9-15.1
					c-8.2,0.2-14.9,6.8-15.1,15.1V634.9z"/>
				<path class="st30" d="M407.6,647.9c0,7.6,6.2,13.8,13.8,13.8c0,0,0,0,0,0h15.8c7.6,0,13.8-6.2,13.8-13.8
					c0-7.6-6.2-13.8-13.8-13.8h-15.8C413.8,634,407.7,640.2,407.6,647.9z"/>
				<ellipse class="st5" cx="434.6" cy="644.4" rx="2" ry="5.6"/>
				<ellipse class="st5" cx="425.3" cy="643.5" rx="2.6" ry="6.3"/>
				<path class="st13" d="M478.8,722.6c0,1.7,1.3,3,3,3h3.8c1.7,0,3-1.4,3-3s-1.4-3-3-3l0,0h-3.8
					C480.1,719.5,478.8,720.8,478.8,722.6L478.8,722.6z"/>
				<ellipse cx="423.1" cy="618.1" rx="2.8" ry="3.1"/>
				<ellipse cx="433.5" cy="618.2" rx="2.4" ry="2.7"/>
				
					<ellipse transform="matrix(0.7902 -0.6129 0.6129 0.7902 -309.7871 469.8743)" class="st5" cx="531.3" cy="687.3" rx="3.9" ry="5.7"/>
				
					<ellipse transform="matrix(0.8582 -0.5134 0.5134 0.8582 -275.1115 317.0289)" class="st31" cx="436.2" cy="656.4" rx="1.3" ry="2.2"/>
				<path class="st33" d="M437.8,652.4c-1.3,1.6-3.1,2.7-5.1,3.2c-4.2,1-8.5,0.1-12-2.4"/>
				
					<ellipse transform="matrix(0.6555 -0.7552 0.7552 0.6555 -332.7095 604.0625)" class="st15" cx="495.8" cy="666.7" rx="10" ry="5.6"/>
				<ellipse transform="matrix(0.65 -0.76 0.76 0.65 -324.6535 581.8765)" class="st15" cx="469.3" cy="643.4" rx="5.7" ry="9.7"/>
				
					<ellipse transform="matrix(0.1168 -0.9932 0.9932 0.1168 -265.7048 1057.0649)" class="st15" cx="461.5" cy="677.9" rx="4.6" ry="11"/>
			</g>
			<g id="goodcow-3">
				
					<ellipse transform="matrix(0.221 -0.9753 0.9753 0.221 10.2817 1235.8739)" class="st13" cx="778.8" cy="611.5" rx="2.1" ry="5.6"/>
				
					<ellipse transform="matrix(0.9122 -0.4098 0.4098 0.9122 -185.1504 359.8827)" class="st13" cx="747.1" cy="612" rx="4.7" ry="2.1"/>
				<path class="st14" d="M802.3,681.4c0,0.5,0.4,0.9,0.8,0.9c0.5,0,0.9-0.4,0.9-0.9l0,0v-7.1c0-0.5-0.4-0.8-0.9-0.8
					c-0.5,0-0.8,0.4-0.8,0.8V681.4z"/>
				<path class="st14" d="M800.3,680.6c0.1,0.5,0.5,0.8,0.9,0.8c0.4,0,0.7-0.4,0.8-0.8v-7.1c0.1-0.5-0.3-0.9-0.8-0.9
					s-0.9,0.3-0.9,0.8c0,0.1,0,0.1,0,0.2V680.6z"/>
				<path class="st14" d="M797.7,680.9c0.1,0.6,0.6,1,1.2,1c0.5-0.1,0.9-0.5,1-1v-6.6c0.1-0.6-0.4-1.1-1-1.2c-0.6-0.1-1.1,0.4-1.2,1
					c0,0.1,0,0.1,0,0.2V680.9z"/>
				<ellipse class="st14" cx="801.6" cy="674.5" rx="4.8" ry="5.3"/>
				<path class="st5" d="M772.3,685.6c0,1.6,1.3,2.8,2.8,2.8c1.6,0,2.8-1.3,2.8-2.8c0,0,0,0,0,0v-14.6c0-1.6-1.3-2.8-2.8-2.8
					c-1.6,0-2.8,1.3-2.8,2.8V685.6z"/>
				<path class="st13" d="M773.1,686.8c0,1,0.8,1.8,1.8,1.8c0,0,0,0,0,0h1.9c1,0.1,1.9-0.7,1.9-1.7c0.1-1-0.7-1.9-1.7-1.9
					c-0.1,0-0.2,0-0.3,0h-1.9C773.9,685,773.1,685.8,773.1,686.8L773.1,686.8z"/>
				<path class="st5" d="M769,690.3c0.1,2,1.8,3.5,3.8,3.4c1.8-0.1,3.3-1.6,3.4-3.4v-22.5c-0.1-2-1.8-3.5-3.8-3.4
					c-1.8,0.1-3.3,1.6-3.4,3.4V690.3z"/>
				<path class="st13" d="M768.5,692.2c0,1.4,1.1,2.5,2.5,2.5c0,0,0,0,0,0h3.2c1.4,0.1,2.6-0.9,2.7-2.3c0.1-1.4-0.9-2.6-2.3-2.7
					c-0.1,0-0.3,0-0.4,0H771C769.6,689.7,768.5,690.9,768.5,692.2L768.5,692.2z"/>
				<path class="st5" d="M808.9,686.1c0,1.3,1.1,2.4,2.4,2.4c1.3,0,2.3-1.1,2.4-2.4v-12.5c0-1.3-1-2.4-2.4-2.4s-2.4,1-2.4,2.4
					c0,0,0,0,0,0V686.1z"/>
				<path class="st13" d="M809.6,687.1c0,0.8,0.6,1.4,1.4,1.4h1.4c0.8-0.1,1.4-0.8,1.3-1.6c-0.1-0.7-0.6-1.3-1.3-1.3H811
					C810.2,685.7,809.6,686.3,809.6,687.1z"/>
				<path class="st5" d="M804.6,692.9c0,1.8,1.4,3.2,3.2,3.2s3.2-1.4,3.2-3.2v-18.5c0-1.8-1.4-3.2-3.2-3.2s-3.2,1.4-3.2,3.2l0,0
					V692.9z"/>
				
					<ellipse transform="matrix(0.8566 -0.5159 0.5159 0.8566 -216.1713 525.95)" class="st5" cx="838.2" cy="651.9" rx="3" ry="18.6"/>
				<ellipse class="st5" cx="798.9" cy="650.9" rx="38.6" ry="25.4"/>
				<path class="st5" d="M749.7,623.1c0,7.1,5.7,12.8,12.8,12.8c7.1,0,12.8-5.7,12.8-12.8v-13.1c0-7.1-5.7-12.8-12.8-12.8
					c-7.1,0-12.8,5.7-12.8,12.8V623.1z"/>
				<path class="st30" d="M744.9,633.9c0,6.3,5.2,11.4,11.5,11.4h13.1c6.3-0.2,11.3-5.5,11.1-11.8c-0.2-6.1-5-10.9-11.1-11.1h-13.1
					C750,622.4,744.9,627.5,744.9,633.9C744.9,633.9,744.9,633.9,744.9,633.9z"/>
				<ellipse class="st5" cx="767.1" cy="631" rx="1.7" ry="4.6"/>
				<ellipse class="st5" cx="759.5" cy="630.3" rx="2.2" ry="5.2"/>
				<path class="st13" d="M803.7,695.7c0,1.4,1.1,2.5,2.5,2.5h3.1c1.4-0.1,2.4-1.3,2.3-2.7c-0.1-1.2-1.1-2.2-2.3-2.3h-3.2
					C804.8,693.2,803.6,694.3,803.7,695.7L803.7,695.7z"/>
				<ellipse cx="757.7" cy="609.3" rx="2.3" ry="2.6"/>
				<ellipse cx="766.2" cy="609.4" rx="2" ry="2.2"/>
				
					<ellipse transform="matrix(0.7902 -0.6129 0.6129 0.7902 -230.7638 659.072)" class="st5" cx="847.1" cy="666.5" rx="3.2" ry="4.7"/>
				
					<ellipse transform="matrix(0.8582 -0.5134 0.5134 0.8582 -220.0603 485.4308)" class="st31" cx="768.4" cy="641" rx="1.1" ry="1.9"/>
				<path class="st34" d="M769.8,637.7c-1.1,1.3-2.6,2.2-4.2,2.6c-3.4,0.8-7.1,0.1-9.9-2"/>
				
					<ellipse transform="matrix(0.6555 -0.7552 0.7552 0.6555 -208.7839 841.2513)" class="st15" cx="817.7" cy="649.5" rx="8.3" ry="4.7"/>
				
					<ellipse transform="matrix(0.6539 -0.7565 0.7565 0.6539 -204.0757 821.1489)" class="st15" cx="795.6" cy="633.7" rx="4.7" ry="8"/>
				
					<ellipse transform="matrix(0.1168 -0.9932 0.9932 0.1168 42.9269 1365.7856)" class="st15" cx="789.4" cy="658.8" rx="3.8" ry="9.1"/>
			</g>
			<g id="goodcow-4">
				
					<ellipse transform="matrix(0.221 -0.9753 0.9753 0.221 -112.1117 1239.2272)" class="st13" cx="719.7" cy="689.8" rx="2.5" ry="6.8"/>
				
					<ellipse transform="matrix(0.9122 -0.4098 0.4098 0.9122 -223.0465 339.8361)" class="st13" cx="681.4" cy="690.3" rx="5.6" ry="2.5"/>
				<path class="st14" d="M748.1,774.3c0,0.6,0.5,1,1,1c0.6,0,1-0.5,1-1v-8.6c0-0.6-0.5-1-1-1c-0.6,0-1,0.5-1,1V774.3z"/>
				<path class="st14" d="M745.8,773.3c0,0.6,0.5,1,1,1c0.6,0,1-0.5,1-1v-8.6c0-0.6-0.5-1-1-1c-0.6,0-1,0.5-1,1V773.3z"/>
				<path class="st14" d="M742.6,773.7c0.1,0.7,0.7,1.3,1.4,1.2c0.6-0.1,1.2-0.6,1.2-1.2v-8c-0.1-0.7-0.7-1.3-1.4-1.2
					c-0.6,0.1-1.2,0.6-1.2,1.2V773.7z"/>
				<ellipse class="st14" cx="747.3" cy="766" rx="5.8" ry="6.4"/>
				<path class="st5" d="M711.8,779.4c0,1.9,1.5,3.4,3.4,3.4s3.4-1.5,3.4-3.4v-17.7c0-1.9-1.5-3.4-3.4-3.4s-3.4,1.5-3.4,3.4V779.4z"
					/>
				<path class="st13" d="M712.8,780.8c0,1.2,1,2.2,2.2,2.2h2.3c1.2,0,2.2-1,2.2-2.2c0-1.2-1-2.2-2.2-2.2H715
					C713.8,778.7,712.9,779.6,712.8,780.8L712.8,780.8z"/>
				<path class="st5" d="M707.8,785c0,2.4,1.9,4.3,4.3,4.3c2.4,0,4.3-1.9,4.3-4.3c0,0,0,0,0,0v-27.2c0-2.4-1.9-4.3-4.3-4.3
					c-2.4,0-4.3,1.9-4.3,4.3V785z"/>
				<path class="st13" d="M707.2,787.4c0,1.7,1.3,3,3,3h3.8c1.7,0,3-1.4,3-3c0-1.7-1.4-3-3-3h-3.8
					C708.5,784.4,707.2,785.7,707.2,787.4L707.2,787.4z"/>
				<path class="st5" d="M756.1,779.9c0,1.6,1.3,2.8,2.8,2.8c1.6,0,2.9-1.3,2.9-2.8v-15.1c0-1.6-1.3-2.9-2.9-2.9
					c-1.6,0-2.8,1.3-2.8,2.9V779.9z"/>
				<path class="st13" d="M756.9,781.2c0,1,0.8,1.7,1.7,1.7h1.7c1,0,1.7-0.8,1.7-1.7c0-1-0.8-1.7-1.7-1.7c0,0,0,0,0,0h-1.7
					C757.7,779.5,756.9,780.3,756.9,781.2z"/>
				<path class="st5" d="M750.8,788.2c0,2.1,1.7,3.9,3.9,3.9c2.1,0,3.9-1.7,3.9-3.9v-22.3c0-2.1-1.7-3.9-3.9-3.9
					c-2.1,0-3.9,1.7-3.9,3.9V788.2z"/>
				
					<ellipse transform="matrix(0.8557 -0.5174 0.5174 0.8557 -266.799 518.9774)" class="st5" cx="797.3" cy="737.9" rx="3.6" ry="22.6"/>
				<ellipse class="st5" cx="744" cy="737.4" rx="46.7" ry="30.7"/>
				<path class="st5" d="M684.5,703.9c0.2,8.5,7.3,15.3,15.9,15.1c8.2-0.2,14.9-6.8,15.1-15.1V688c-0.2-8.5-7.3-15.3-15.9-15.1
					c-8.2,0.2-14.9,6.8-15.1,15.1V703.9z"/>
				<path class="st30" d="M678.6,716.9c0,7.6,6.2,13.8,13.8,13.8c0,0,0,0,0,0h15.8c7.6,0,13.8-6.2,13.8-13.8S716,703,708.3,703
					h-15.8C684.8,703,678.7,709.2,678.6,716.9z"/>
				<ellipse class="st5" cx="705.6" cy="713.4" rx="2" ry="5.6"/>
				<ellipse class="st5" cx="696.3" cy="712.5" rx="2.6" ry="6.3"/>
				<path class="st13" d="M749.8,791.6c0,1.7,1.3,3,3,3h3.8c1.7,0,3-1.4,3-3c0-1.7-1.4-3-3-3h-3.8
					C751.1,788.5,749.8,789.8,749.8,791.6L749.8,791.6z"/>
				<ellipse cx="694.1" cy="687.1" rx="2.8" ry="3.1"/>
				<ellipse cx="704.5" cy="687.2" rx="2.4" ry="2.7"/>
				
					<ellipse transform="matrix(0.7902 -0.6129 0.6129 0.7902 -295.211 650.4525)" class="st5" cx="802.3" cy="756.3" rx="3.9" ry="5.7"/>
				
					<ellipse transform="matrix(0.8582 -0.5134 0.5134 0.8582 -272.1018 465.9482)" class="st31" cx="707.2" cy="725.4" rx="1.3" ry="2.2"/>
				<path class="st33" d="M708.8,721.4c-1.3,1.6-3.1,2.7-5.1,3.1c-4.2,1-8.5,0.1-12-2.4"/>
				
					<ellipse transform="matrix(0.6555 -0.7552 0.7552 0.6555 -291.4604 832.4735)" class="st15" cx="766.8" cy="735.7" rx="10" ry="5.6"/>
				
					<ellipse transform="matrix(0.6539 -0.7565 0.7565 0.6539 -286.0461 807.7816)" class="st15" cx="740" cy="716.6" rx="5.7" ry="9.7"/>
				
					<ellipse transform="matrix(0.1168 -0.9932 0.9932 0.1168 -94.8957 1387.1638)" class="st15" cx="732.5" cy="746.9" rx="4.6" ry="11"/>
			</g>
			<g id="goodcow-5">
				
					<ellipse transform="matrix(0.221 -0.9753 0.9753 0.221 -218.8383 1095.0958)" class="st13" cx="576.1" cy="684.5" rx="2.4" ry="6.5"/>
				
					<ellipse transform="matrix(0.9122 -0.4098 0.4098 0.9122 -233.3249 281.323)" class="st13" cx="539.7" cy="685.1" rx="5.3" ry="2.4"/>
				<path class="st14" d="M603.1,764.8c0,0.6,0.4,1,1,1s1-0.4,1-1v-8.1c0-0.6-0.4-1-1-1s-1,0.4-1,1V764.8z"/>
				<path class="st14" d="M600.9,763.9c0,0.6,0.4,1,1,1s1-0.4,1-1v-8.1c0-0.6-0.4-1-1-1s-1,0.4-1,1V763.9z"/>
				<path class="st14" d="M597.8,764.2c0,0.7,0.6,1.3,1.3,1.3s1.3-0.6,1.3-1.3v-7.6c0-0.7-0.6-1.3-1.3-1.3s-1.3,0.6-1.3,1.3V764.2z"
					/>
				<ellipse class="st14" cx="602.3" cy="756.9" rx="5.5" ry="6.1"/>
				<path class="st5" d="M568.6,769.6c-0.1,1.8,1.3,3.3,3.1,3.4c1.8,0.1,3.3-1.3,3.4-3.1c0-0.1,0-0.2,0-0.4v-16.8
					c0.1-1.8-1.3-3.3-3.1-3.4c-1.8-0.1-3.3,1.3-3.4,3.1c0,0.1,0,0.2,0,0.4V769.6z"/>
				<path class="st13" d="M569.6,771c0,1.1,0.9,2.1,2.1,2.1l0,0h2.2c1.1-0.1,2-1.1,1.9-2.2c-0.1-1-0.9-1.8-1.9-1.9h-2.2
					C570.5,768.9,569.6,769.8,569.6,771z"/>
				<path class="st5" d="M564.8,774.9c0,2.3,1.8,4.1,4.1,4.1c2.3,0,4.1-1.8,4.1-4.1c0,0,0,0,0,0v-25.8c0-2.3-1.8-4.1-4.1-4.1
					c-2.3,0-4.1,1.8-4.1,4.1c0,0,0,0,0,0V774.9z"/>
				<path class="st13" d="M564.2,777.2c0,1.6,1.3,2.9,2.9,2.9l0,0h3.6c1.6,0,2.9-1.3,2.9-2.9s-1.3-2.9-2.9-2.9h-3.6
					C565.5,774.4,564.2,775.6,564.2,777.2L564.2,777.2z"/>
				<path class="st5" d="M610.7,770.1c0,1.5,1.2,2.7,2.7,2.7c1.5,0,2.7-1.2,2.7-2.7v-14.3c0-1.5-1.2-2.7-2.7-2.7
					c-1.5,0-2.7,1.2-2.7,2.7V770.1z"/>
				<path class="st13" d="M611.4,771.4c0,0.9,0.7,1.7,1.7,1.7h1.7c0.9-0.1,1.6-0.9,1.5-1.8c-0.1-0.8-0.7-1.5-1.5-1.5h-1.7
					C612.2,769.7,611.5,770.4,611.4,771.4z"/>
				<path class="st5" d="M605.7,777.9c0,2,1.6,3.7,3.7,3.7c2,0,3.7-1.6,3.7-3.7v-21.2c0-2-1.6-3.7-3.7-3.7c-2,0-3.7,1.6-3.7,3.7
					V777.9z"/>
				
					<ellipse transform="matrix(0.8566 -0.5159 0.5159 0.8566 -284.7341 437.2418)" class="st5" cx="644.4" cy="730.9" rx="3.4" ry="21.3"/>
				<ellipse class="st5" cx="599.2" cy="729.8" rx="44.3" ry="29.2"/>
				<path class="st5" d="M542.7,697.9c-0.2,8.1,6.2,14.9,14.3,15.1c8.1,0.2,14.9-6.2,15.1-14.3c0-0.3,0-0.5,0-0.8v-15
					c-0.2-8.1-7-14.5-15.1-14.3c-7.8,0.2-14.1,6.5-14.3,14.3V697.9z"/>
				<path class="st30" d="M537.1,710.2c0,7.3,5.9,13.1,13.1,13.1l0,0h15.1c7.2-0.2,13-6.2,12.8-13.5c-0.2-7-5.8-12.6-12.8-12.8
					h-15.1C543,697.1,537.1,703,537.1,710.2C537.1,710.2,537.1,710.2,537.1,710.2z"/>
				<ellipse class="st5" cx="562.7" cy="707" rx="1.9" ry="5.3"/>
				<ellipse class="st5" cx="553.9" cy="706.1" rx="2.5" ry="6"/>
				<path class="st13" d="M604.7,781.2c0,1.6,1.3,2.9,2.9,2.9c0,0,0,0,0,0h3.7c1.6,0.1,3-1.1,3-2.7c0.1-1.6-1.1-3-2.7-3
					c-0.1,0-0.2,0-0.3,0h-3.7C606,778.3,604.7,779.6,604.7,781.2L604.7,781.2z"/>
				<ellipse cx="551.8" cy="682" rx="2.6" ry="2.9"/>
				<ellipse cx="561.6" cy="682.1" rx="2.3" ry="2.6"/>
				
					<ellipse transform="matrix(0.7902 -0.6129 0.6129 0.7902 -320.9405 558.0829)" class="st5" cx="654.5" cy="747.7" rx="3.7" ry="5.4"/>
				
					<ellipse transform="matrix(0.8582 -0.5134 0.5134 0.8582 -288.7592 391.5477)" class="st31" cx="564.2" cy="718.3" rx="1.2" ry="2.1"/>
				<path class="st35" d="M565.7,714.6c-1.3,1.5-3,2.5-4.9,3c-3.9,0.9-8.1,0.1-11.4-2.3"/>
				
					<ellipse transform="matrix(0.6555 -0.7552 0.7552 0.6555 -336.0232 719.6386)" class="st15" cx="620.8" cy="728.1" rx="9.5" ry="5.3"/>
				
					<ellipse transform="matrix(0.6539 -0.7565 0.7565 0.6539 -331.089 696.0828)" class="st15" cx="595.3" cy="710" rx="5.4" ry="9.2"/>
				
					<ellipse transform="matrix(0.1168 -0.9932 0.9932 0.1168 -214.2049 1236.717)" class="st15" cx="588.3" cy="738.8" rx="4.4" ry="10.4"/>
			</g>
			<ellipse class="st36" cx="1217.5" cy="597.6" rx="12" ry="9.5"/>
		</g>
	</g>
</g>
</svg>
