<svg xmlns="http://www.w3.org/2000/svg" xmlns:xlink="http://www.w3.org/1999/xlink" width="676.98mm" height="381mm" viewBox="0 0 1919 1080"><defs><style>.cls-1{isolation:isolate;}.cls-2{fill:url(#linear-gradient);}.cls-3{fill:#96a65d;}.cls-4{fill:#6f8c30;}.cls-5{opacity:0.4;}.cls-6{fill:#fff;}.cls-7{fill:#387404;mix-blend-mode:darken;}.cls-8{fill:#736258;}.cls-9{fill:#f2d0e3;}.cls-10{fill:#f2dde3;}.cls-11{fill:#ed1c24;}.cls-12,.cls-14,.cls-15,.cls-16,.cls-17,.cls-18,.cls-19,.cls-20,.cls-21,.cls-22,.cls-25{fill:none;stroke-miterlimit:10;}.cls-12,.cls-14,.cls-15,.cls-16,.cls-17,.cls-18,.cls-19,.cls-20,.cls-21,.cls-22{stroke:#000;}.cls-12{stroke-width:0.92px;}.cls-13{fill:#333;}.cls-14{stroke-width:0.59px;}.cls-15{stroke-width:0.54px;}.cls-16{stroke-width:1.13px;}.cls-17{stroke-width:0.53px;}.cls-18{stroke-width:0.39px;}.cls-19{stroke-width:0.84px;}.cls-20{stroke-width:0.57px;}.cls-21{stroke-width:1.08px;}.cls-22{stroke-width:0.72px;}.cls-23{fill:#754c24;}.cls-24{fill:url(#linear-gradient-2);}.cls-25{stroke-width:38.99px;stroke:url(#radial-gradient);}.cls-26{mix-blend-mode:lighten;}.cls-27{fill:#838bc5;}.cls-28{fill:url(#linear-gradient-3);}</style><linearGradient id="linear-gradient" x1="934.85" y1="864.71" x2="986.42" y2="-94.1" gradientTransform="matrix(1, 0, 0, -1, 0, 946.43)" gradientUnits="userSpaceOnUse"><stop offset="0" stop-color="#0e1158"/><stop offset="0.79" stop-color="#5b81c4"/><stop offset="1" stop-color="#7bb9e7"/></linearGradient><linearGradient id="linear-gradient-2" x1="-117.86" y1="1132.52" x2="1840.44" y2="1132.52" gradientTransform="matrix(1.01, 0.04, -0.03, 1.15, 143.81, -436.52)" gradientUnits="userSpaceOnUse"><stop offset="0" stop-color="#8c6239"/><stop offset="0.49" stop-color="#724922"/><stop offset="0.55" stop-color="#6f4721"/><stop offset="1" stop-color="#42210b"/></linearGradient><radialGradient id="radial-gradient" cx="521.03" cy="634.37" r="47.32" gradientTransform="translate(-440.33 279.14) scale(1.84 0.58)" gradientUnits="userSpaceOnUse"><stop offset="0"/><stop offset="0.32" stop-color="#180b22"/><stop offset="1" stop-color="#532576"/></radialGradient><linearGradient id="linear-gradient-3" x1="532.99" y1="578.44" x2="684.71" y2="583.81" gradientUnits="userSpaceOnUse"><stop offset="0" stop-color="#724098"/><stop offset="0.42" stop-color="#734299"/><stop offset="0.58" stop-color="#78499d"/><stop offset="0.68" stop-color="#8154a3"/><stop offset="0.77" stop-color="#8d65ac"/><stop offset="0.85" stop-color="#9e7bb8"/><stop offset="0.91" stop-color="#b197c7"/><stop offset="0.97" stop-color="#c9b6d8"/><stop offset="1" stop-color="#d5c7e1"/></linearGradient></defs><g class="cls-1"><g id="Layer_1" data-name="Layer 1"><g id="BG3"><rect class="cls-2" width="1919" height="1080"/><ellipse class="cls-3" cx="1515.29" cy="799.5" rx="474.96" ry="184.79"/><ellipse class="cls-4" cx="539.75" cy="838.37" rx="575.5" ry="223.91"/><g id="stars" class="cls-5"><circle class="cls-6" cx="894.39" cy="278.24" r="3.37"/><circle class="cls-6" cx="546.27" cy="527.54" r="3.39"/><circle class="cls-6" cx="412.25" cy="311.38" r="3.25"/><circle class="cls-6" cx="254.61" cy="281.96" r="3.33"/><circle class="cls-6" cx="443.72" cy="306.67" r="3.41"/><circle class="cls-6" cx="402.05" cy="35.95" r="3.45"/><circle class="cls-6" cx="1251.66" cy="119.49" r="3.48"/><circle class="cls-6" cx="1569.59" cy="53.97" r="3"/><circle class="cls-6" cx="1336.93" cy="41.95" r="3.26"/><circle class="cls-6" cx="1184.79" cy="60.54" r="3.16"/><circle class="cls-6" cx="959.66" cy="153.82" r="3.32"/><circle class="cls-6" cx="605.3" cy="215.9" r="3.44"/><circle class="cls-6" cx="359.58" cy="150.25" r="3.44"/><circle class="cls-6" cx="665.75" cy="382.82" r="3.49"/><circle class="cls-6" cx="1030.96" cy="230.67" r="3.09"/><circle class="cls-6" cx="1029.25" cy="41.47" r="3.18"/><circle class="cls-6" cx="1313.37" cy="276.29" r="3.48"/><circle class="cls-6" cx="1485.13" cy="176.69" r="3.49"/><circle class="cls-6" cx="1903.45" cy="64.28" r="3.07"/><circle class="cls-6" cx="1754.08" cy="402.84" r="3.27"/><circle class="cls-6" cx="1522.5" cy="89.28" r="3.11"/><circle class="cls-6" cx="1363.74" cy="212.82" r="2.97"/><circle class="cls-6" cx="950.58" cy="241.17" r="3.38"/><circle class="cls-6" cx="835.66" cy="92.18" r="2.92"/><circle class="cls-6" cx="498.86" cy="100.6" r="3.49"/><circle class="cls-6" cx="336.59" cy="177.87" r="3.09"/><circle class="cls-6" cx="910.87" cy="418.85" r="3.1"/><circle class="cls-6" cx="932.15" cy="255.33" r="3.15"/><circle class="cls-6" cx="1019.85" cy="133.15" r="3.26"/><circle class="cls-6" cx="772.33" cy="422.43" r="3.3"/><circle class="cls-6" cx="519.74" cy="345.5" r="3.11"/><circle class="cls-6" cx="10.75" cy="299.62" r="3.42"/><circle class="cls-6" cx="383.36" cy="413.19" r="3.19"/><circle class="cls-6" cx="1602.29" cy="80.02" r="3.11"/><circle class="cls-6" cx="1591.98" cy="285.97" r="3.12"/><circle class="cls-6" cx="990.28" cy="292.13" r="3.11"/><circle class="cls-6" cx="917.55" cy="377.59" r="3.06"/><circle class="cls-6" cx="439.22" cy="92.76" r="3.16"/><circle class="cls-6" cx="516.29" cy="199.91" r="2.91"/><circle class="cls-6" cx="691.81" cy="134.33" r="3.37"/><circle class="cls-6" cx="1052.18" cy="117.35" r="3.21"/><circle class="cls-6" cx="1524.55" cy="171.54" r="3.44"/><circle class="cls-6" cx="1201.73" cy="227.66" r="3.34"/><circle class="cls-6" cx="1028.48" cy="209.79" r="3.45"/><circle class="cls-6" cx="587.9" cy="261.57" r="3.07"/><circle class="cls-6" cx="225.62" cy="210.19" r="3.07"/><circle class="cls-6" cx="132.69" cy="-1.94" r="3.28"/></g><ellipse class="cls-7" cx="993.79" cy="1036.26" rx="1105.54" ry="236.29"/><g id="CLOSWCOWS"><g id="goodcow"><ellipse class="cls-8" cx="758.25" cy="773.19" rx="7.92" ry="3.11" transform="translate(-161.15 200.94) rotate(-13.66)"/><ellipse class="cls-8" cx="802.8" cy="773.87" rx="3.04" ry="6.61" transform="translate(-244.04 1157.93) rotate(-64.1)"/><path class="cls-9" d="M722.92,876.49a1.21,1.21,0,1,0,2.41,0V865.92a1.21,1.21,0,0,0-2.41,0Z"/><path class="cls-9" d="M725.64,875.3a1.2,1.2,0,1,0,2.4,0V864.72a1.2,1.2,0,1,0-2.4,0Z"/><path class="cls-9" d="M728.7,875.76a1.54,1.54,0,0,0,3.08,0v-9.9a1.54,1.54,0,1,0-3.08,0Z"/><ellipse class="cls-9" cx="726.25" cy="866.21" rx="6.71" ry="7.89"/><path class="cls-6" d="M759.49,882.84a4,4,0,1,0,8.06,0V860.68a4,4,0,1,0-8.06,0Z"/><path class="cls-8" d="M758.53,884.41a2.63,2.63,0,0,0,2.63,2.63h2.59a2.63,2.63,0,0,0,0-5.26h-2.59a2.63,2.63,0,0,0-2.63,2.63Z"/><path class="cls-6" d="M762.06,889.82a5,5,0,1,0,10.08,0V856a5,5,0,0,0-10.08,0Z"/><path class="cls-8" d="M761.28,892.45a3.67,3.67,0,0,0,3.67,3.68h4.29a3.68,3.68,0,0,0,0-7.36H765a3.67,3.67,0,0,0-3.67,3.68Z"/><path class="cls-6" d="M709.4,883.52a3.35,3.35,0,0,0,6.7,0V864.68a3.35,3.35,0,0,0-6.7,0Z"/><path class="cls-8" d="M709,884.89a2.1,2.1,0,0,0,2.11,2.1h2a2.11,2.11,0,1,0,0-4.21h-2a2.11,2.11,0,0,0-2.11,2.11Z"/><path class="cls-6" d="M713.14,893.66a4.53,4.53,0,0,0,9.06,0V865.83a4.53,4.53,0,1,0-9.06,0Z"/><ellipse class="cls-6" cx="674.84" cy="832.78" rx="27.11" ry="4.22" transform="translate(-382.91 1006.25) rotate(-60.29)"/><ellipse class="cls-6" cx="730.07" cy="831.37" rx="54.18" ry="37.54"/><path class="cls-6" d="M763.56,791.82a17.64,17.64,0,1,0,35.28,0V769.46a17.64,17.64,0,0,0-35.28,0Z"/><path class="cls-10" d="M755.75,806.2a17.14,17.14,0,0,0,17.14,17.14h15.63a17.14,17.14,0,1,0,0-34.27H772.89a17.13,17.13,0,0,0-17.14,17.13Z"/><ellipse class="cls-6" cx="774.7" cy="801.96" rx="2.34" ry="6.84"/><ellipse class="cls-6" cx="785.44" cy="800.91" rx="3.06" ry="7.69"/><path class="cls-8" d="M711.82,897.53a3.68,3.68,0,0,0,3.68,3.68h4.28a3.68,3.68,0,1,0,0-7.35H715.5a3.67,3.67,0,0,0-3.68,3.67Z"/><ellipse cx="787.99" cy="769.86" rx="3.23" ry="3.79"/><ellipse cx="776.01" cy="769.96" rx="2.8" ry="3.3"/><ellipse class="cls-6" cx="662.41" cy="854.46" rx="6.86" ry="4.59" transform="translate(-416.44 924.92) rotate(-55.95)"/><ellipse class="cls-11" cx="772.84" cy="816.54" rx="2.71" ry="1.55" transform="translate(-312.66 1109.31) rotate(-61.67)"/><path class="cls-12" d="M771,811.79a11.36,11.36,0,0,0,6,3.85,16.3,16.3,0,0,0,13.92-3"/><ellipse class="cls-13" cx="703.66" cy="829.27" rx="6.68" ry="11.96" transform="translate(-362.04 612.2) rotate(-38.17)"/><ellipse class="cls-13" cx="734.79" cy="805.77" rx="11.58" ry="6.77" transform="translate(-353.3 733.35) rotate(-43.83)"/><ellipse class="cls-13" cx="743.47" cy="842.92" rx="12.78" ry="5.65" transform="matrix(0.99, -0.13, 0.13, 0.99, -100.13, 100.22)"/></g><g id="goodcow-2" data-name="goodcow"><ellipse class="cls-8" cx="624.64" cy="747.25" rx="4.97" ry="2.06" transform="translate(-170.79 185.24) rotate(-14.86)"/><ellipse class="cls-8" cx="652.5" cy="747.71" rx="2" ry="4.19" transform="translate(-314.81 969.38) rotate(-61.8)"/><path class="cls-9" d="M602.54,816.12a.76.76,0,1,0,1.52,0V809a.76.76,0,0,0-1.52,0Z"/><path class="cls-9" d="M604.24,815.32a.76.76,0,1,0,1.52,0v-7.13a.76.76,0,0,0-1.52,0Z"/><path class="cls-9" d="M606.16,815.64a1,1,0,1,0,1.93,0v-6.71a1,1,0,1,0-1.93,0Z"/><ellipse class="cls-9" cx="604.63" cy="809.23" rx="4.2" ry="5.26"/><path class="cls-6" d="M625.39,820.48a2.55,2.55,0,1,0,5.09,0V805.36a2.55,2.55,0,1,0-5.09,0Z"/><path class="cls-8" d="M624.76,821.35a1.73,1.73,0,0,0,1.73,1.73h1.56a1.73,1.73,0,0,0,0-3.46h-1.56a1.72,1.72,0,0,0-1.73,1.73Z"/><path class="cls-6" d="M627,825.18a3.18,3.18,0,0,0,6.36,0v-23a3.18,3.18,0,0,0-6.36,0Z"/><path class="cls-8" d="M626.48,826.71a2.42,2.42,0,0,0,2.42,2.42h2.54a2.43,2.43,0,1,0,0-4.85H628.9a2.42,2.42,0,0,0-2.42,2.43Z"/><path class="cls-6" d="M594.07,820.91a2.12,2.12,0,0,0,4.24,0V808.05a2.12,2.12,0,1,0-4.24,0Z"/><path class="cls-8" d="M593.76,821.67a1.38,1.38,0,0,0,1.38,1.38h1.24a1.38,1.38,0,0,0,0-2.76h-1.24a1.38,1.38,0,0,0-1.38,1.38Z"/><path class="cls-6" d="M596.4,827.71a2.87,2.87,0,0,0,5.73,0V808.77a2.87,2.87,0,1,0-5.73,0Z"/><ellipse class="cls-6" cx="572.48" cy="786.95" rx="17.8" ry="2.68" transform="translate(-391.34 921.37) rotate(-61.9)"/><ellipse class="cls-6" cx="607.02" cy="786.01" rx="33.88" ry="25.01"/><path class="cls-6" d="M628.21,760.82a10.78,10.78,0,0,0,21.56,0V743.61a10.78,10.78,0,1,0-21.56,0Z"/><path class="cls-10" d="M623.32,769.25a11.61,11.61,0,0,0,11.61,11.6h7.5a11.61,11.61,0,1,0,0-23.21h-7.5a11.61,11.61,0,0,0-11.61,11.61Z"/><ellipse class="cls-6" cx="634.92" cy="766.42" rx="1.46" ry="4.56"/><ellipse class="cls-6" cx="641.64" cy="765.72" rx="1.91" ry="5.12"/><path class="cls-8" d="M595.55,830.09a2.43,2.43,0,0,0,2.43,2.43h2.53a2.43,2.43,0,1,0,0-4.85H598a2.42,2.42,0,0,0-2.43,2.42Z"/><ellipse cx="643.23" cy="745.03" rx="2.02" ry="2.53"/><ellipse cx="635.75" cy="745.1" rx="1.75" ry="2.2"/><ellipse class="cls-11" cx="633.76" cy="776.13" rx="1.78" ry="0.98" transform="translate(-339.65 1013.86) rotate(-64.49)"/><path class="cls-14" d="M632.61,773a7.15,7.15,0,0,0,3.73,2.56,9.67,9.67,0,0,0,8.7-2"/><ellipse class="cls-13" cx="590.5" cy="784.61" rx="4.27" ry="7.79" transform="translate(-342.71 478.97) rotate(-34.9)"/><ellipse class="cls-13" cx="609.97" cy="768.96" rx="7.48" ry="4.36" transform="translate(-369.09 699.66) rotate(-47.53)"/><ellipse class="cls-13" cx="615.4" cy="793.71" rx="8" ry="3.76" transform="translate(-103.88 92.76) rotate(-7.95)"/></g><g id="goodcow-3" data-name="goodcow"><ellipse class="cls-8" cx="1160.66" cy="775.91" rx="1.83" ry="4.62" transform="translate(129.07 1716.64) rotate(-76.13)"/><ellipse class="cls-8" cx="1134.67" cy="776.31" rx="3.86" ry="1.79" transform="translate(-226.57 583.51) rotate(-26.32)"/><path class="cls-9" d="M1179.87,836.9a.7.7,0,0,0,1.4,0v-6.26a.7.7,0,1,0-1.4,0Z"/><path class="cls-9" d="M1178.28,836.19a.71.71,0,0,0,1.41,0v-6.26a.71.71,0,0,0-1.41,0Z"/><path class="cls-9" d="M1176.1,836.46a.9.9,0,0,0,1.8,0V830.6a.9.9,0,1,0-1.8,0Z"/><ellipse class="cls-9" cx="1179.33" cy="830.82" rx="3.91" ry="4.66"/><path class="cls-6" d="M1155.23,840.67a2.36,2.36,0,0,0,4.71,0V827.53a2.36,2.36,0,1,0-4.71,0Z"/><path class="cls-8" d="M1155.91,841.56a1.55,1.55,0,0,0,1.55,1.55h1.5a1.55,1.55,0,0,0,0-3.1h-1.5a1.56,1.56,0,0,0-1.55,1.55Z"/><path class="cls-6" d="M1152.56,844.79a2.95,2.95,0,1,0,5.89,0v-20a2.95,2.95,0,1,0-5.89,0Z"/><path class="cls-8" d="M1152.1,846.31a2.17,2.17,0,0,0,2.16,2.17h2.48a2.17,2.17,0,1,0,0-4.34h-2.48a2.17,2.17,0,0,0-2.16,2.17Z"/><path class="cls-6" d="M1185.25,841.06a2,2,0,1,0,3.91,0V829.89a2,2,0,1,0-3.91,0Z"/><path class="cls-8" d="M1185.79,841.84a1.23,1.23,0,0,0,1.23,1.24h1.17a1.24,1.24,0,1,0,0-2.47H1187a1.23,1.23,0,0,0-1.23,1.23Z"/><path class="cls-6" d="M1181.69,847.05a2.65,2.65,0,1,0,5.29,0V830.56a2.65,2.65,0,1,0-5.29,0Z"/><ellipse class="cls-6" cx="1209.32" cy="811.08" rx="2.47" ry="15.96" transform="translate(-242.42 698.13) rotate(-29.4)"/><ellipse class="cls-6" cx="1177.1" cy="810.25" rx="31.61" ry="22.16"/><path class="cls-6" d="M1137,787.1a10.25,10.25,0,1,0,20.49,0V773.5a10.25,10.25,0,0,0-20.49,0Z"/><path class="cls-10" d="M1133.05,795.39a10.14,10.14,0,0,0,10.14,10.15h8.74a10.15,10.15,0,0,0,0-20.3h-8.74a10.15,10.15,0,0,0-10.14,10.15Z"/><ellipse class="cls-6" cx="1151.07" cy="792.89" rx="1.36" ry="4.04"/><ellipse class="cls-6" cx="1144.8" cy="792.27" rx="1.78" ry="4.54"/><path class="cls-8" d="M1181,849.31a2.17,2.17,0,0,0,2.17,2.17h2.47a2.17,2.17,0,1,0,0-4.34h-2.47a2.17,2.17,0,0,0-2.17,2.17Z"/><ellipse cx="1143.31" cy="773.94" rx="1.88" ry="2.24"/><ellipse cx="1150.3" cy="774" rx="1.63" ry="1.95"/><ellipse class="cls-6" cx="1216.58" cy="823.88" rx="2.69" ry="4.04" transform="translate(-252.55 801.46) rotate(-33.23)"/><ellipse class="cls-11" cx="1152.15" cy="801.5" rx="0.91" ry="1.6" transform="translate(-240.76 629.3) rotate(-27.78)"/><path class="cls-15" d="M1153.22,798.69a6.63,6.63,0,0,1-3.48,2.28,9.41,9.41,0,0,1-8.11-1.75"/><ellipse class="cls-13" cx="1192.51" cy="809.01" rx="7.03" ry="3.91" transform="matrix(0.61, -0.79, 0.79, 0.61, -175.64, 1261.5)"/><ellipse class="cls-13" cx="1174.35" cy="795.14" rx="3.97" ry="6.79" transform="translate(-216 1074.9) rotate(-45.48)"/><ellipse class="cls-13" cx="1169.28" cy="817.07" rx="3.34" ry="7.46" transform="translate(209.27 1872.15) rotate(-82.65)"/></g><g id="goodcow-4" data-name="goodcow"><ellipse class="cls-8" cx="1033.22" cy="782.89" rx="3.77" ry="9.9" transform="translate(36.73 1612.04) rotate(-76.91)"/><ellipse class="cls-8" cx="977.43" cy="783.72" rx="8.22" ry="3.7" transform="translate(-238.54 482.05) rotate(-24.79)"/><path class="cls-9" d="M1074.45,908a1.5,1.5,0,0,0,3,0V895.28a1.5,1.5,0,1,0-3,0Z"/><path class="cls-9" d="M1071,906.55a1.51,1.51,0,0,0,3,0V893.83a1.51,1.51,0,1,0-3,0Z"/><path class="cls-9" d="M1066.37,907.09a1.93,1.93,0,1,0,3.85,0V895.22a1.93,1.93,0,1,0-3.85,0Z"/><ellipse class="cls-9" cx="1073.29" cy="895.59" rx="8.4" ry="9.56"/><path class="cls-6" d="M1021.6,915.55a5,5,0,1,0,10,0V889.07a5,5,0,1,0-10,0Z"/><path class="cls-8" d="M1023.1,917.63a3.21,3.21,0,0,0,3.21,3.21h3.29a3.21,3.21,0,0,0,0-6.42h-3.29a3.21,3.21,0,0,0-3.21,3.21Z"/><path class="cls-6" d="M1015.86,924a6.28,6.28,0,0,0,12.56,0V883.42a6.28,6.28,0,0,0-12.56,0Z"/><path class="cls-8" d="M1014.91,927.38a4.48,4.48,0,0,0,4.48,4.47h5.5a4.48,4.48,0,1,0,0-9h-5.5a4.48,4.48,0,0,0-4.48,4.48Z"/><path class="cls-6" d="M1086,916.41a4.16,4.16,0,0,0,8.32,0V893.88a4.16,4.16,0,1,0-8.32,0Z"/><path class="cls-8" d="M1087.22,918.21a2.57,2.57,0,0,0,2.57,2.57h2.52a2.57,2.57,0,1,0,0-5.14h-2.52a2.57,2.57,0,0,0-2.57,2.57Z"/><path class="cls-6" d="M1078.39,928.63a5.64,5.64,0,1,0,11.28,0V895.32a5.64,5.64,0,1,0-11.28,0Z"/><ellipse class="cls-6" cx="1137.66" cy="855.08" rx="5.23" ry="33.12" transform="translate(-276.76 697.43) rotate(-30.57)"/><ellipse class="cls-6" cx="1068.51" cy="853.37" rx="67.85" ry="45.48"/><path class="cls-6" d="M982.14,804.31a22.34,22.34,0,1,0,44.68,0V779.52a22.34,22.34,0,1,0-44.68,0Z"/><path class="cls-10" d="M973.6,822.89a20.57,20.57,0,0,0,20.58,20.57H1016a20.58,20.58,0,1,0,0-41.15H994.18a20.57,20.57,0,0,0-20.58,20.58Z"/><ellipse class="cls-6" cx="1012.62" cy="817.74" rx="2.93" ry="8.29"/><ellipse class="cls-6" cx="999.17" cy="816.47" rx="3.83" ry="9.31"/><path class="cls-8" d="M1076.84,933.53a4.48,4.48,0,0,0,4.48,4.48h5.5a4.48,4.48,0,0,0,0-9h-5.5a4.48,4.48,0,0,0-4.48,4.48Z"/><ellipse cx="995.98" cy="778.85" rx="4.04" ry="4.6"/><ellipse cx="1010.98" cy="778.97" rx="3.51" ry="3.99"/><ellipse class="cls-6" cx="1153.23" cy="881.34" rx="5.68" ry="8.4" transform="translate(-298.01 856.62) rotate(-36.41)"/><ellipse class="cls-11" cx="1014.95" cy="835.41" rx="1.93" ry="3.31" transform="translate(-281.51 618.08) rotate(-29.94)"/><path class="cls-16" d="M1017.25,829.66a14.23,14.23,0,0,1-7.46,4.66,20.92,20.92,0,0,1-17.42-3.58"/><ellipse class="cls-13" cx="1101.58" cy="850.83" rx="14.68" ry="8.25" transform="translate(-257.99 1149.11) rotate(-50.06)"/><ellipse class="cls-13" cx="1062.59" cy="822.37" rx="8.32" ry="14.27" transform="translate(-259.18 1063.82) rotate(-48.09)"/><ellipse class="cls-13" cx="1051.72" cy="867.37" rx="6.85" ry="16" transform="translate(64.48 1807.48) rotate(-83.11)"/></g><g id="goodcow-5" data-name="goodcow"><ellipse class="cls-8" cx="1633.55" cy="781.7" rx="1.78" ry="4.5" transform="translate(482.93 2180.13) rotate(-76.13)"/><ellipse class="cls-8" cx="1608.27" cy="782.09" rx="3.76" ry="1.74" transform="translate(-180.04 794.08) rotate(-26.32)"/><path class="cls-9" d="M1652.23,841a.69.69,0,0,0,1.37,0v-6.09a.69.69,0,0,0-1.37,0Z"/><path class="cls-9" d="M1650.69,840.33a.68.68,0,1,0,1.36,0v-6.08a.68.68,0,1,0-1.36,0Z"/><path class="cls-9" d="M1648.57,840.6a.88.88,0,0,0,1.75,0v-5.7a.88.88,0,1,0-1.75,0Z"/><ellipse class="cls-9" cx="1651.71" cy="835.11" rx="3.81" ry="4.53"/><path class="cls-6" d="M1628.27,844.69a2.29,2.29,0,0,0,4.58,0V831.91a2.29,2.29,0,1,0-4.58,0Z"/><path class="cls-8" d="M1628.93,845.56a1.5,1.5,0,0,0,1.51,1.5h1.45a1.51,1.51,0,1,0,0-3h-1.45a1.51,1.51,0,0,0-1.51,1.51Z"/><path class="cls-6" d="M1625.66,848.7a2.87,2.87,0,1,0,5.73,0V829.2a2.87,2.87,0,0,0-5.73,0Z"/><path class="cls-8" d="M1625.22,850.18a2.1,2.1,0,0,0,2.11,2.1h2.4a2.11,2.11,0,1,0,0-4.21h-2.4a2.1,2.1,0,0,0-2.11,2.11Z"/><path class="cls-6" d="M1657.46,845.07a1.91,1.91,0,1,0,3.81,0V834.21a1.91,1.91,0,1,0-3.81,0Z"/><path class="cls-8" d="M1658,845.83a1.2,1.2,0,0,0,1.2,1.21h1.13a1.21,1.21,0,1,0,0-2.41h-1.13a1.2,1.2,0,0,0-1.2,1.2Z"/><path class="cls-6" d="M1654,850.9a2.58,2.58,0,1,0,5.15,0v-16a2.58,2.58,0,1,0-5.15,0Z"/><ellipse class="cls-6" cx="1680.88" cy="815.91" rx="2.4" ry="15.52" transform="translate(-184.06 930.25) rotate(-29.4)"/><ellipse class="cls-6" cx="1649.54" cy="815.1" rx="30.74" ry="21.56"/><path class="cls-6" d="M1610.56,792.59a10,10,0,0,0,19.93,0V779.36a10,10,0,0,0-19.93,0Z"/><path class="cls-10" d="M1606.69,800.65a9.87,9.87,0,0,0,9.87,9.87h8.5a9.87,9.87,0,1,0,0-19.74h-8.5a9.87,9.87,0,0,0-9.87,9.87Z"/><ellipse class="cls-6" cx="1624.21" cy="798.22" rx="1.33" ry="3.93"/><ellipse class="cls-6" cx="1618.12" cy="797.61" rx="1.73" ry="4.41"/><path class="cls-8" d="M1653.28,853.09a2.1,2.1,0,0,0,2.11,2.11h2.41a2.11,2.11,0,0,0,0-4.21h-2.41a2.1,2.1,0,0,0-2.11,2.1Z"/><ellipse cx="1616.67" cy="779.78" rx="1.83" ry="2.18"/><ellipse cx="1623.47" cy="779.84" rx="1.59" ry="1.89"/><ellipse class="cls-6" cx="1687.93" cy="828.36" rx="2.61" ry="3.92" transform="translate(-177.92 1060.51) rotate(-33.23)"/><ellipse class="cls-11" cx="1625.27" cy="806.59" rx="0.88" ry="1.55" transform="translate(-188.61 850.38) rotate(-27.78)"/><path class="cls-17" d="M1626.31,803.86a6.35,6.35,0,0,1-3.38,2.21,9.09,9.09,0,0,1-7.89-1.7"/><ellipse class="cls-13" cx="1664.53" cy="813.9" rx="6.84" ry="3.81" transform="matrix(0.61, -0.79, 0.79, 0.61, 4.86, 1637.65)"/><ellipse class="cls-13" cx="1646.86" cy="800.41" rx="3.86" ry="6.61" transform="translate(-78.56 1413.37) rotate(-45.48)"/><ellipse class="cls-13" cx="1641.93" cy="821.74" rx="3.24" ry="7.26" transform="translate(616.79 2344.98) rotate(-82.65)"/></g><g id="goodcow-6" data-name="goodcow"><ellipse class="cls-8" cx="1568.23" cy="761.39" rx="3.32" ry="1.32" transform="translate(-136.82 398.28) rotate(-13.87)"/><ellipse class="cls-8" cx="1586.89" cy="761.67" rx="1.28" ry="2.77" transform="translate(200.62 1846.4) rotate(-63.68)"/><path class="cls-9" d="M1553.43,805.17a.5.5,0,0,0,.51.5.5.5,0,0,0,.5-.5v-4.49a.5.5,0,0,0-.5-.51.51.51,0,0,0-.51.51Z"/><path class="cls-9" d="M1554.57,804.66a.51.51,0,1,0,1,0v-4.49a.51.51,0,0,0-1,0Z"/><path class="cls-9" d="M1555.85,804.86a.65.65,0,0,0,1.29,0v-4.21a.65.65,0,1,0-1.29,0Z"/><ellipse class="cls-9" cx="1554.83" cy="800.81" rx="2.81" ry="3.34"/><path class="cls-6" d="M1568.74,807.88a1.7,1.7,0,0,0,3.39,0v-9.44a1.7,1.7,0,0,0-3.39,0Z"/><path class="cls-8" d="M1568.34,808.52a1.11,1.11,0,0,0,1.11,1.11h1.08a1.11,1.11,0,1,0,0-2.22h-1.08a1.11,1.11,0,0,0-1.11,1.11Z"/><path class="cls-6" d="M1569.82,810.84a2.12,2.12,0,0,0,4.23,0V796.45a2.12,2.12,0,1,0-4.23,0Z"/><path class="cls-8" d="M1569.49,811.93a1.55,1.55,0,0,0,1.55,1.55h1.78a1.56,1.56,0,1,0,0-3.11H1571a1.56,1.56,0,0,0-1.55,1.56Z"/><path class="cls-6" d="M1547.77,808.16a1.41,1.41,0,1,0,2.81,0v-8a1.41,1.41,0,1,0-2.81,0Z"/><path class="cls-8" d="M1547.58,808.72a.89.89,0,0,0,.89.89h.83a.89.89,0,1,0,0-1.78h-.83a.89.89,0,0,0-.89.89Z"/><path class="cls-6" d="M1549.33,812.46a1.9,1.9,0,1,0,3.8,0V800.62a1.9,1.9,0,0,0-3.8,0Z"/><ellipse class="cls-6" cx="1533.3" cy="786.64" rx="11.46" ry="1.77" transform="translate(95.26 1736.29) rotate(-60.6)"/><ellipse class="cls-6" cx="1556.43" cy="786.04" rx="22.69" ry="15.91"/><path class="cls-6" d="M1570.48,769.42a7.36,7.36,0,0,0,14.72,0v-9.76a7.36,7.36,0,0,0-14.72,0Z"/><path class="cls-10" d="M1567.21,775.38a7.28,7.28,0,0,0,7.29,7.28h6.27a7.29,7.29,0,0,0,0-14.57h-6.27a7.29,7.29,0,0,0-7.29,7.29Z"/><ellipse class="cls-6" cx="1575.12" cy="773.58" rx="0.98" ry="2.9"/><ellipse class="cls-6" cx="1579.62" cy="773.13" rx="1.28" ry="3.26"/><path class="cls-8" d="M1548.78,814.08a1.55,1.55,0,0,0,1.55,1.56h1.78a1.56,1.56,0,0,0,0-3.12h-1.78a1.55,1.55,0,0,0-1.55,1.56Z"/><ellipse cx="1580.68" cy="759.97" rx="1.35" ry="1.61"/><ellipse cx="1575.67" cy="760.01" rx="1.17" ry="1.4"/><ellipse class="cls-6" cx="1528.09" cy="795.82" rx="2.9" ry="1.93" transform="translate(24.98 1637.87) rotate(-56.77)"/><ellipse class="cls-11" cx="1574.34" cy="779.76" rx="1.15" ry="0.65" transform="translate(150.74 1809.29) rotate(-62.22)"/><path class="cls-18" d="M1573.57,777.75a4.78,4.78,0,0,0,2.5,1.63,6.73,6.73,0,0,0,5.82-1.26"/><ellipse class="cls-13" cx="1545.36" cy="785.15" rx="2.81" ry="5.05" transform="translate(-158.37 1104.38) rotate(-37.55)"/><ellipse class="cls-13" cx="1558.4" cy="775.19" rx="4.88" ry="2.85" transform="translate(-96.27 1315.2) rotate(-44.52)"/><ellipse class="cls-13" cx="1562.04" cy="790.94" rx="5.36" ry="2.39" transform="matrix(0.99, -0.13, 0.13, 0.99, -88.39, 206.44)"/></g><g id="goodcow-7" data-name="goodcow"><ellipse class="cls-8" cx="1458.38" cy="793.74" rx="2.86" ry="7.22" transform="translate(338.07 2019.23) rotate(-76.13)"/><ellipse class="cls-8" cx="1417.79" cy="794.37" rx="6.03" ry="2.79" transform="translate(-205.23 710.91) rotate(-26.32)"/><path class="cls-9" d="M1488.37,889a1.1,1.1,0,1,0,2.19,0v-9.77a1.1,1.1,0,1,0-2.19,0Z"/><path class="cls-9" d="M1485.89,887.87a1.1,1.1,0,0,0,2.2,0V878.1a1.1,1.1,0,0,0-2.2,0Z"/><path class="cls-9" d="M1482.49,888.3a1.41,1.41,0,1,0,2.81,0v-9.15a1.41,1.41,0,1,0-2.81,0Z"/><ellipse class="cls-9" cx="1487.53" cy="879.49" rx="6.11" ry="7.27"/><path class="cls-6" d="M1449.9,894.86a3.68,3.68,0,0,0,7.36,0V874.35a3.68,3.68,0,1,0-7.36,0Z"/><path class="cls-8" d="M1451,896.26a2.42,2.42,0,0,0,2.42,2.42h2.34a2.42,2.42,0,1,0,0-4.83h-2.34a2.41,2.41,0,0,0-2.42,2.41Z"/><path class="cls-6" d="M1445.72,901.31a4.6,4.6,0,0,0,9.2,0V870a4.6,4.6,0,0,0-9.2,0Z"/><path class="cls-8" d="M1445,903.68a3.38,3.38,0,0,0,3.39,3.38h3.86a3.39,3.39,0,1,0,0-6.77h-3.86a3.39,3.39,0,0,0-3.39,3.39Z"/><path class="cls-6" d="M1496.77,895.49a3.06,3.06,0,0,0,6.11,0V878a3.06,3.06,0,1,0-6.11,0Z"/><path class="cls-8" d="M1497.61,896.7a1.93,1.93,0,0,0,1.93,1.94h1.82a1.94,1.94,0,0,0,0-3.87h-1.82a1.93,1.93,0,0,0-1.93,1.93Z"/><path class="cls-6" d="M1491.21,904.84a4.14,4.14,0,0,0,8.27,0V879.08a4.14,4.14,0,0,0-8.27,0Z"/><ellipse class="cls-6" cx="1534.36" cy="848.67" rx="3.85" ry="24.92" transform="translate(-219.01 862.54) rotate(-29.4)"/><ellipse class="cls-6" cx="1484.05" cy="847.37" rx="49.36" ry="34.61"/><path class="cls-6" d="M1421.47,811.22a16,16,0,0,0,32,0V790a16,16,0,0,0-32,0Z"/><path class="cls-10" d="M1415.26,824.17A15.85,15.85,0,0,0,1431.1,840h13.64a15.85,15.85,0,1,0,0-31.69H1431.1a15.84,15.84,0,0,0-15.84,15.84Z"/><ellipse class="cls-6" cx="1443.39" cy="820.26" rx="2.13" ry="6.31"/><ellipse class="cls-6" cx="1433.61" cy="819.29" rx="2.79" ry="7.09"/><path class="cls-8" d="M1490.06,908.36a3.38,3.38,0,0,0,3.38,3.38h3.86a3.38,3.38,0,1,0,0-6.76h-3.86a3.38,3.38,0,0,0-3.38,3.38Z"/><ellipse cx="1431.29" cy="790.67" rx="2.94" ry="3.5"/><ellipse cx="1442.2" cy="790.76" rx="2.55" ry="3.04"/><ellipse class="cls-6" cx="1545.69" cy="868.65" rx="4.2" ry="6.3" transform="matrix(0.84, -0.55, 0.55, 0.84, -223.26, 989.14)"/><ellipse class="cls-11" cx="1445.09" cy="833.7" rx="1.42" ry="2.49" transform="translate(-222.01 769.53) rotate(-27.78)"/><path class="cls-19" d="M1446.76,829.33a10.31,10.31,0,0,1-5.43,3.54,14.66,14.66,0,0,1-12.67-2.73"/><ellipse class="cls-13" cx="1508.11" cy="845.43" rx="10.98" ry="6.11" transform="translate(-81.25 1525.95) rotate(-52.45)"/><ellipse class="cls-13" cx="1479.75" cy="823.78" rx="6.2" ry="10.61" transform="translate(-145.16 1301.21) rotate(-45.48)"/><ellipse class="cls-13" cx="1471.84" cy="858.02" rx="5.21" ry="11.65" transform="translate(432.48 2207.93) rotate(-82.65)"/></g><g id="goodcow-8" data-name="goodcow"><ellipse class="cls-8" cx="946.21" cy="740.02" rx="1.94" ry="4.89" transform="translate(0.88 1481.16) rotate(-76.13)"/><ellipse class="cls-8" cx="918.74" cy="740.45" rx="4.08" ry="1.89" transform="translate(-233.05 484.06) rotate(-26.32)"/><path class="cls-9" d="M966.51,804.48a.74.74,0,0,0,1.48,0v-6.61a.74.74,0,1,0-1.48,0Z"/><path class="cls-9" d="M964.83,803.73a.76.76,0,0,0,.75.75.75.75,0,0,0,.74-.75v-6.61a.74.74,0,0,0-.74-.74.75.75,0,0,0-.75.74Z"/><path class="cls-9" d="M962.53,804a1,1,0,1,0,1.9,0v-6.19a.95.95,0,0,0-1.9,0Z"/><ellipse class="cls-9" cx="965.94" cy="798.06" rx="4.14" ry="4.92"/><path class="cls-6" d="M940.47,808.47a2.49,2.49,0,0,0,5,0V794.58a2.49,2.49,0,1,0-5,0Z"/><path class="cls-8" d="M941.19,809.41a1.63,1.63,0,0,0,1.64,1.64h1.58a1.64,1.64,0,1,0,0-3.27h-1.58a1.63,1.63,0,0,0-1.64,1.63Z"/><path class="cls-6" d="M937.64,812.83a3.12,3.12,0,0,0,6.23,0V791.64a3.12,3.12,0,0,0-6.23,0Z"/><path class="cls-8" d="M937.16,814.43a2.28,2.28,0,0,0,2.29,2.29h2.61a2.29,2.29,0,1,0,0-4.58h-2.61a2.29,2.29,0,0,0-2.29,2.29Z"/><path class="cls-6" d="M972.19,808.89a2.07,2.07,0,0,0,4.14,0V797.08a2.07,2.07,0,1,0-4.14,0Z"/><path class="cls-8" d="M972.76,809.71a1.31,1.31,0,0,0,1.31,1.31h1.23a1.31,1.31,0,1,0,0-2.62h-1.23a1.31,1.31,0,0,0-1.31,1.31Z"/><path class="cls-6" d="M968.43,815.22a2.8,2.8,0,1,0,5.6,0V797.78a2.8,2.8,0,1,0-5.6,0Z"/><ellipse class="cls-6" cx="997.64" cy="777.2" rx="2.61" ry="16.87" transform="translate(-253.05 589.85) rotate(-29.4)"/><ellipse class="cls-6" cx="963.59" cy="776.32" rx="33.41" ry="23.43"/><path class="cls-6" d="M921.23,751.85a10.83,10.83,0,0,0,21.66,0V737.48a10.83,10.83,0,0,0-21.66,0Z"/><path class="cls-10" d="M917,760.62a10.72,10.72,0,0,0,10.73,10.72H937a10.73,10.73,0,1,0,0-21.45h-9.23A10.72,10.72,0,0,0,917,760.62Z"/><ellipse class="cls-6" cx="936.07" cy="757.97" rx="1.44" ry="4.27"/><ellipse class="cls-6" cx="929.44" cy="757.31" rx="1.89" ry="4.8"/><path class="cls-8" d="M967.65,817.6a2.29,2.29,0,0,0,2.29,2.29h2.62a2.29,2.29,0,0,0,0-4.58h-2.62a2.3,2.3,0,0,0-2.29,2.29Z"/><ellipse cx="927.87" cy="737.94" rx="1.99" ry="2.37"/><ellipse cx="935.26" cy="738" rx="1.73" ry="2.06"/><ellipse class="cls-6" cx="1005.31" cy="790.72" rx="2.84" ry="4.27" transform="translate(-268.93 680.25) rotate(-33.23)"/><ellipse class="cls-11" cx="937.21" cy="767.07" rx="0.96" ry="1.69" transform="translate(-249.48 525.16) rotate(-27.78)"/><path class="cls-20" d="M938.35,764.11a7.12,7.12,0,0,1-3.68,2.4,10,10,0,0,1-8.58-1.85"/><ellipse class="cls-13" cx="979.87" cy="775.01" rx="7.43" ry="4.14" transform="translate(-231.74 1079.62) rotate(-52.45)"/><ellipse class="cls-13" cx="960.67" cy="760.35" rx="4.2" ry="7.18" transform="translate(-255.05 912.16) rotate(-45.48)"/><ellipse class="cls-13" cx="955.32" cy="783.53" rx="3.53" ry="7.88" transform="translate(55.96 1630.7) rotate(-82.65)"/></g><g id="goodcow-9" data-name="goodcow"><ellipse class="cls-8" cx="1306.91" cy="793.88" rx="9.12" ry="3.71" transform="translate(-156.35 349.89) rotate(-14.4)"/><ellipse class="cls-8" cx="1358.11" cy="794.69" rx="3.6" ry="7.65" transform="translate(28.77 1636.63) rotate(-62.68)"/><path class="cls-9" d="M1266.3,917.47a1.39,1.39,0,0,0,2.77,0V904.72a1.39,1.39,0,1,0-2.77,0Z"/><path class="cls-9" d="M1269.42,916a1.39,1.39,0,1,0,2.77,0V903.28a1.39,1.39,0,0,0-2.77,0Z"/><path class="cls-9" d="M1272.93,916.6a1.78,1.78,0,1,0,3.56,0v-12a1.78,1.78,0,0,0-3.56,0Z"/><ellipse class="cls-9" cx="1270.12" cy="905.12" rx="7.71" ry="9.43"/><path class="cls-6" d="M1308.3,925.21a4.67,4.67,0,1,0,9.33,0V898.3a4.67,4.67,0,0,0-9.33,0Z"/><path class="cls-8" d="M1307.17,926.88a3.12,3.12,0,0,0,3.11,3.12h2.91a3.12,3.12,0,0,0,0-6.24h-2.91a3.12,3.12,0,0,0-3.11,3.12Z"/><path class="cls-6" d="M1311.25,933.6a5.83,5.83,0,1,0,11.65,0v-41a5.83,5.83,0,1,0-11.65,0Z"/><path class="cls-8" d="M1310.32,936.5a4.37,4.37,0,0,0,4.37,4.37h4.76a4.37,4.37,0,1,0,0-8.74h-4.76a4.37,4.37,0,0,0-4.37,4.37Z"/><path class="cls-6" d="M1250.73,926a3.88,3.88,0,1,0,7.76,0V903.12a3.88,3.88,0,1,0-7.76,0Z"/><path class="cls-8" d="M1250.19,927.45a2.49,2.49,0,0,0,2.49,2.49H1255a2.49,2.49,0,0,0,0-5h-2.28a2.5,2.5,0,0,0-2.49,2.49Z"/><path class="cls-6" d="M1255,938.17a5.25,5.25,0,0,0,10.49,0V904.43a5.25,5.25,0,0,0-10.49,0Z"/><ellipse class="cls-6" cx="1211.04" cy="865.14" rx="32.12" ry="4.89" transform="translate(-129.28 1512.16) rotate(-61.31)"/><ellipse class="cls-6" cx="1274.52" cy="863.45" rx="62.27" ry="44.9"/><path class="cls-6" d="M1313.29,817.47a20,20,0,0,0,40,0V788.09a20,20,0,0,0-40,0Z"/><path class="cls-10" d="M1304.32,833.35a20.71,20.71,0,0,0,20.7,20.71h15.39a20.71,20.71,0,0,0,0-41.41H1325a20.7,20.7,0,0,0-20.7,20.7Z"/><ellipse class="cls-6" cx="1325.81" cy="828.28" rx="2.69" ry="8.18"/><ellipse class="cls-6" cx="1338.16" cy="827.02" rx="3.51" ry="9.19"/><path class="cls-8" d="M1253.48,942.58a4.37,4.37,0,0,0,4.37,4.37h4.76a4.38,4.38,0,0,0,0-8.75h-4.76a4.37,4.37,0,0,0-4.37,4.38Z"/><ellipse cx="1341.09" cy="789.89" rx="3.71" ry="4.54"/><ellipse cx="1327.32" cy="790.01" rx="3.22" ry="3.94"/><ellipse class="cls-6" cx="1196.75" cy="891.06" rx="8.11" ry="5.34" transform="translate(-187.21 1448.6) rotate(-58.61)"/><ellipse class="cls-11" cx="1323.67" cy="845.72" rx="3.21" ry="1.8" transform="translate(-24.14 1652.4) rotate(-63.48)"/><path class="cls-21" d="M1321.56,840a13.08,13.08,0,0,0,6.86,4.6,18.1,18.1,0,0,0,16-3.54"/><ellipse class="cls-13" cx="1244.16" cy="860.94" rx="7.79" ry="14.1" transform="translate(-268.37 898.38) rotate(-36.1)"/><ellipse class="cls-13" cx="1279.95" cy="832.84" rx="13.57" ry="7.93" transform="translate(-207.39 1178.85) rotate(-46.15)"/><ellipse class="cls-13" cx="1289.92" cy="877.27" rx="14.7" ry="6.75" transform="translate(-105.52 179.95) rotate(-7.67)"/></g><g id="goodcow-10" data-name="goodcow"><ellipse class="cls-8" cx="890.01" cy="784.94" rx="2.43" ry="6.13" transform="translate(-85.45 1460.76) rotate(-76.13)"/><ellipse class="cls-8" cx="855.55" cy="785.48" rx="5.12" ry="2.37" transform="translate(-259.56 460.72) rotate(-26.32)"/><path class="cls-9" d="M915.48,865.8a.93.93,0,1,0,1.86,0v-8.29a.93.93,0,1,0-1.86,0Z"/><path class="cls-9" d="M913.37,864.87a.94.94,0,0,0,1.87,0v-8.3a.94.94,0,0,0-1.87,0Z"/><path class="cls-9" d="M910.48,865.23a1.2,1.2,0,0,0,2.39,0v-7.77a1.2,1.2,0,1,0-2.39,0Z"/><ellipse class="cls-9" cx="914.77" cy="857.75" rx="5.19" ry="6.17"/><path class="cls-6" d="M882.81,870.8a3.13,3.13,0,1,0,6.25,0V853.38a3.13,3.13,0,0,0-6.25,0Z"/><path class="cls-8" d="M883.72,872a2.05,2.05,0,0,0,2,2h2a2,2,0,0,0,0-4.1h-2a2.05,2.05,0,0,0-2,2Z"/><path class="cls-6" d="M879.27,876.27a3.91,3.91,0,1,0,7.81,0V849.7a3.91,3.91,0,1,0-7.81,0Z"/><path class="cls-8" d="M878.66,878.28a2.87,2.87,0,0,0,2.87,2.88h3.28a2.88,2.88,0,1,0,0-5.75h-3.28a2.87,2.87,0,0,0-2.87,2.87Z"/><path class="cls-6" d="M922.61,871.33a2.6,2.6,0,1,0,5.19,0V856.52a2.6,2.6,0,1,0-5.19,0Z"/><path class="cls-8" d="M923.32,872.36A1.64,1.64,0,0,0,925,874h1.55a1.64,1.64,0,0,0,0-3.28H925a1.65,1.65,0,0,0-1.64,1.64Z"/><path class="cls-6" d="M917.89,879.27a3.51,3.51,0,0,0,7,0V857.4a3.51,3.51,0,0,0-7,0Z"/><ellipse class="cls-6" cx="954.52" cy="831.58" rx="3.27" ry="21.16" transform="translate(-285.3 575.69) rotate(-29.4)"/><ellipse class="cls-6" cx="911.81" cy="830.47" rx="41.91" ry="29.38"/><path class="cls-6" d="M858.68,799.78a13.59,13.59,0,1,0,27.17,0v-18a13.59,13.59,0,1,0-27.17,0Z"/><path class="cls-10" d="M853.4,810.78a13.45,13.45,0,0,0,13.46,13.45h11.58a13.45,13.45,0,1,0,0-26.9H866.86a13.45,13.45,0,0,0-13.46,13.45Z"/><ellipse class="cls-6" cx="877.29" cy="807.46" rx="1.81" ry="5.35"/><ellipse class="cls-6" cx="868.98" cy="806.64" rx="2.36" ry="6.02"/><path class="cls-8" d="M916.91,882.26a2.87,2.87,0,0,0,2.87,2.87h3.28a2.87,2.87,0,1,0,0-5.74h-3.28a2.87,2.87,0,0,0-2.87,2.87Z"/><ellipse cx="867.01" cy="782.33" rx="2.5" ry="2.97"/><ellipse cx="876.27" cy="782.41" rx="2.17" ry="2.58"/><ellipse class="cls-6" cx="964.14" cy="848.55" rx="3.56" ry="5.35" transform="translate(-307.35 667.15) rotate(-33.23)"/><ellipse class="cls-11" cx="878.73" cy="818.87" rx="1.2" ry="2.12" transform="translate(-280.36 503.88) rotate(-27.78)"/><path class="cls-22" d="M880.15,815.16a8.87,8.87,0,0,1-4.61,3,12.48,12.48,0,0,1-10.76-2.32"/><ellipse class="cls-13" cx="932.24" cy="828.83" rx="9.32" ry="5.19" transform="translate(-293.02 1062.88) rotate(-52.45)"/><ellipse class="cls-13" cx="908.16" cy="810.44" rx="5.26" ry="9" transform="translate(-306.46 889.69) rotate(-45.48)"/><ellipse class="cls-13" cx="901.44" cy="839.52" rx="4.42" ry="9.89" transform="translate(-46.55 1626.09) rotate(-82.65)"/></g></g><g id="bridge"><path class="cls-23" d="M225.91,1076.38c-1.31,1.34-1.53,1.07-3.4,1.07s-1.88-3.19-3.75-3.19-1.88-.34-3.75-.34-1.87,2.65-3.75,2.65-1.87.68-3.75.68-1.87-1-3.75-1-1.87,2.91-3.75,2.91-1.87-1-3.75-1-1.87-.86-3.75-.86-1.87-3.34-3.75-3.34-1.87,5.45-3.75,5.45-1.13-2.71-2.45-4-3.3-.6-3.3-2.5,4.7-1.89,4.7-3.79-3.75-1.9-3.75-3.79.55-1.9.55-3.8,3.34-1.89,3.34-3.79-.79-1.89-.79-3.79-1.33-1.89-1.33-3.79,1.27-1.89,1.27-3.79-4.69-1.9-4.69-3.79.33-1.9.33-3.8,1-1.9,1-3.79,4.09-1.9,4.09-3.79-3.13-1.9-3.13-3.8-1-1.89-1-3.79-.4-1.9-.4-3.8-1.15-1.89-1.15-3.79,4.12-1.9,4.12-3.79.05-1.9.05-3.8.08-1.89.08-3.79,1.23-1.9,1.23-3.8-5.22-1.9-5.22-3.79,4.33-1.9,4.33-3.8-1.88-1.9-1.88-3.79-1.9-1.9-1.9-3.8,2.92-1.9,2.92-3.8-1.39-1.89-1.39-3.79-2.42-1.9-2.42-3.8,4.12-1.9,4.12-3.79-2.54-1.9-2.54-3.8,1.16-1.9,1.16-3.8-1.92-1.9-1.92-3.8,2-1.89,2-3.79,1-1.9,1-3.8,1.87-1.9,1.87-3.8-1.94-1.9-1.94-3.79,1.58-1.9,1.58-3.8-4.11-1.9-4.11-3.79,2.08-1.9,2.08-3.8-1.41-1.9-1.41-3.8,1.67-1.9,1.67-3.79-.3-1.9-.3-3.8-1.61-1.9-1.61-3.8.05-1.9.05-3.8.57-1.9.57-3.8,2.07-1.9,2.07-3.8,1.36-1.9,1.36-3.8-4.75-1.9-4.75-3.8,1-1.9,1-3.81-1-3.1.34-4.45,2.53-.19,4.41-.19,1.87-1.2,3.75-1.2,1.87,4.5,3.74,4.5,1.88-1.51,3.75-1.51,1.88-1,3.75-1,1.87,2.42,3.75,2.42,1.87-3.4,3.75-3.4,1.87,2.17,3.75,2.17,1.87,1.82,3.75,1.82,1.87-2,3.75-2,1.88.51,3.75.51,2.34-2.71,3.66-1.37,2.21,1.79,2.21,3.69-.33,1.9-.33,3.8-2.84,1.89-2.84,3.79-.8,1.89-.8,3.79,2.11,1.9,2.11,3.79-.6,1.9-.6,3.79,2.08,1.9,2.08,3.79-2.55,1.9-2.55,3.79,2.57,1.9,2.57,3.8.57,1.9.57,3.79-1.34,1.9-1.34,3.8-2.63,1.89-2.63,3.79,4.23,1.89,4.23,3.79-2.3,1.9-2.3,3.79,2.49,1.9,2.49,3.8-3,1.9-3,3.79,2.21,1.9,2.21,3.8.48,1.89.48,3.79-2.08,1.9-2.08,3.8,1.94,1.89,1.94,3.79-2.61,1.9-2.61,3.8-.5,1.9-.5,3.79.14,1.9.14,3.8-1.12,1.9-1.12,3.79,1.23,1.9,1.23,3.8,0,1.9,0,3.8.9,1.89.9,3.79-2.28,1.9-2.28,3.8,3.21,1.9,3.21,3.8.08,1.89.08,3.79,1.28,1.9,1.28,3.8-1.14,1.9-1.14,3.8-3.45,1.89-3.45,3.79-1,1.9-1,3.8,4.57,1.9,4.57,3.8-3.13,1.89-3.13,3.79,1.31,1.9,1.31,3.8,2.71,1.9,2.71,3.79-1.35,1.9-1.35,3.8-1.39,1.9-1.39,3.8-.26,1.9-.26,3.8-1.84,1.9-1.84,3.8,5.1,1.9,5.1,3.8-2.16,1.9-2.16,3.8-.09,1.89-.09,3.79.86,1.9.86,3.8-3.85,1.9-3.85,3.8,4.58,1.51,4.9,3.39S227.24,1075,225.91,1076.38Z"/><path class="cls-23" d="M1933.1,1099.57c-1.54,1.54-4-1.85-6.21-1.85s-2.18.83-4.36.83-2.18.89-4.36.89-2.18-2-4.36-2-2.18-.43-4.37-.43-2.18,3.09-4.36,3.09-2.18-.64-4.36-.64-2.18.28-4.36.28-2.19-3.33-4.37-3.33-2.18-.16-4.37-.16-1.09,1.28-2.64-.26-3.19-.44-3.19-2.61,1.35-2.17,1.35-4.34-1.83-2.18-1.83-4.35-.59-2.17-.59-4.34,5.31-2.17,5.31-4.35-6.08-2.17-6.08-4.34.45-2.18.45-4.35,1.45-2.17,1.45-4.34,1.83-2.17,1.83-4.34-.66-2.17-.66-4.34,1.73-2.17,1.73-4.34-2.45-2.17-2.45-4.34,1.16-2.18,1.16-4.35-1.43-2.17-1.43-4.34,2.74-2.17,2.74-4.34-.3-2.17-.3-4.34-3.29-2.18-3.29-4.35,2.54-2.17,2.54-4.34-1.64-2.18-1.64-4.35,3.56-2.17,3.56-4.34-.32-2.17-.32-4.34.77-2.18.77-4.35-4.07-2.17-4.07-4.35,3.4-2.17,3.4-4.34-1.81-2.17-1.81-4.35,1-2.17,1-4.34-4.18-2.17-4.18-4.35,2.65-2.17,2.65-4.34.73-2.18.73-4.35-.5-2.17-.5-4.35-3-2.17-3-4.34,3.67-2.18,3.67-4.35.5-2.17.5-4.35-3.11-2.17-3.11-4.34,1-2.18,1-4.35,1.79-2.18,1.79-4.35-1.51-2.17-1.51-4.35.33-2.17.33-4.35,1-2.17,1-4.35,1.24-2.17,1.24-4.34-3-2.17-3-4.35-2.19-2.17-2.19-4.35,5.54-2.17,5.54-4.34-4-2.18-4-4.35-1.25-2.17-1.25-4.35,3.13-2.17,3.13-4.35,1.84-2.17,1.84-4.35-5-2.17-5-4.35,5.86-2.17,5.86-4.35-1.12-2.17-1.12-4.35-4.71-2.18-4.71-4.36-.83-5.1.72-6.64,4.46,4.34,6.64,4.34H1892c2.18,0,2.18-2.43,4.36-2.43s2.18,1.34,4.37,1.34,2.18-3.16,4.36-3.16,2.18,3.22,4.36,3.22,2.18-2.53,4.36-2.53,2.19-.5,4.37-.5,2.18,2.88,4.36,2.88,2.19-2.71,4.37-2.71,1,2.08,2.59,3.62,4.35.38,4.35,2.55-5.72,2.17-5.72,4.35,2.4,2.17,2.4,4.34-1.26,2.17-1.26,4.35,1.27,2.17,1.27,4.34,1.55,2.17,1.55,4.35.25,2.17.25,4.34.46,2.17.46,4.34-3.08,2.17-3.08,4.34.54,2.17.54,4.34,0,2.17,0,4.34,1.94,2.17,1.94,4.35,2,2.17,2,4.34-4.12,2.17-4.12,4.35,1.66,2.17,1.66,4.34,2.17,2.17,2.17,4.34-5.7,2.17-5.7,4.34,2.28,2.17,2.28,4.35-1.25,2.17-1.25,4.34,2.06,2.17,2.06,4.35,1.11,2.17,1.11,4.34-3,2.17-3,4.34,4.49,2.18,4.49,4.35-1,2.17-1,4.35-2.25,2.17-2.25,4.34.66,2.17.66,4.35,1.33,2.17,1.33,4.34-1.38,2.17-1.38,4.35,2.34,2.17,2.34,4.34-.83,2.18-.83,4.35.22,2.17.22,4.35,1.34,2.17,1.34,4.34-.44,2.18-.44,4.35-1.38,2.17-1.38,4.35.56,2.17.56,4.35-2.06,2.17-2.06,4.34-2.89,2.18-2.89,4.35,1.63,2.18,1.63,4.35,3.67,2.17,3.67,4.35-.32,2.17-.32,4.35-1.34,2.17-1.34,4.34-.84,2.17-.84,4.35.4,2.17.4,4.35.22,2.17.22,4.34-1.84,2.18-1.84,4.35,4.74,2.18,4.74,4.35-3.1,2.18-3.1,4.35-1.89,2.18-1.89,4.35,5.22,2.18,5.22,4.35.06,2.18.06,4.35-1.81,1.44-1,3.48C1934.81,1095.69,1934.64,1098,1933.1,1099.57Z"/><path class="cls-23" d="M569.59,1084.08c-1.53,1.51-3.49-2.59-5.64-2.59s-2.15-.31-4.31-.31-2.15.75-4.3.75S553.19,1080,551,1080s-2.15,2.16-4.3,2.16-2.16.93-4.31.93-2.15.06-4.31.06-2.15-.27-4.31-.27-2.15-3.09-4.3-3.09-2.16,2.15-4.31,2.15-2.16-.53-4.31-.53-2.16-.56-4.31-.56-4,4.58-5.51,3.07,1.43-3.32,1.43-5.43-.75-2.11-.75-4.22-1.24-2.12-1.24-4.23,4.33-2.11,4.33-4.22-4.65-2.12-4.65-4.23,3.89-2.11,3.89-4.22.43-2.11.43-4.22,1-2.12,1-4.23-.24-2.11-.24-4.22-4.92-2.11-4.92-4.23,0-2.11,0-4.22,4.29-2.12,4.29-4.23-5.31-2.11-5.31-4.22,3.05-2.11,3.05-4.23-2-2.11-2-4.23,3.76-2.11,3.76-4.22S509,1013,509,1010.9s.32-2.11.32-4.22,3.18-2.12,3.18-4.23-.1-2.11-.1-4.23-2.76-2.11-2.76-4.22,3.2-2.12,3.2-4.23.06-2.11.06-4.23-1.92-2.11-1.92-4.23.21-2.11.21-4.22-2.27-2.12-2.27-4.23,4.21-2.12,4.21-4.23,1.52-2.11,1.52-4.23.68-2.11.68-4.23-4.44-2.11-4.44-4.23,4.08-2.11,4.08-4.22.62-2.11.62-4.23-1.85-2.11-1.85-4.22-3.46-2.12-3.46-4.23,5.11-2.12,5.11-4.23-3.35-2.12-3.35-4.23-1-2.12-1-4.23,2.33-2.12,2.33-4.23-3.79-2.12-3.79-4.23,3.33-2.12,3.33-4.23,2-2.12,2-4.23-1.28-2.12-1.28-4.24-.17-2.12-.17-4.24-3.76-3.8-2.25-5.28,3.18-1,5.34-1,2.15,4.28,4.3,4.28,2.15-1,4.31-1,2.15-4.28,4.3-4.28,2.15,1.2,4.3,1.2,2.16,1.94,4.31,1.94,2.16-3,4.31-3,2.15,3.76,4.31,3.76S548.85,900,551,900s2.15-.87,4.3-.87,2.16-4.76,4.31-4.76,2.16,4,4.32,4,4.15-4.58,5.69-3.07,1.32,3.52,1.32,5.63-5.65,2.11-5.65,4.22,1.75,2.11,1.75,4.22,1.47,2.11,1.47,4.23-2.89,2.11-2.89,4.22,4.08,2.11,4.08,4.23.74,2.11.74,4.22-4.61,2.11-4.61,4.22,4.37,2.11,4.37,4.23-4.69,2.11-4.69,4.22,4.12,2.12,4.12,4.23S568,945.29,568,947.4s-1,2.11-1,4.23,2.33,2.11,2.33,4.22-3.85,2.12-3.85,4.23,5.81,2.11,5.81,4.23-.79,2.11-.79,4.22-2,2.11-2,4.23,1.82,2.11,1.82,4.22.76,2.12.76,4.23-3.06,2.11-3.06,4.23,3,2.11,3,4.23.51,2.11.51,4.22-3.64,2.12-3.64,4.23,1.14,2.11,1.14,4.23-4,2.11-4,4.23,3,2.11,3,4.22.74,2.12.74,4.23-1.15,2.12-1.15,4.23-1.56,2.12-1.56,4.23.05,2.11.05,4.22,4,2.12,4,4.23-1.64,2.11-1.64,4.23-1.2,2.11-1.2,4.23-1.67,2.11-1.67,4.22,0,2.12,0,4.23,2.55,2.12,2.55,4.24,2.88,2.11,2.88,4.23.4,2.11.4,4.23-4.89,2.11-4.89,4.23,2,2.11,2,4.23,2.35,2.12,2.35,4.23-3.76,2.38-3.08,4.39C568.8,1081.53,571.1,1082.59,569.59,1084.08Z"/><path class="cls-23" d="M1245.32,1077.76c-1.24,1.27-2.84-2.85-4.61-2.85s-1.77,2.23-3.54,2.23-1.78.51-3.55.51-1.77-3.54-3.54-3.54-1.77,4.06-3.55,4.06-1.77-1.78-3.54-1.78-1.77-1.76-3.54-1.76-1.78,1.31-3.55,1.31-1.77,2.15-3.54,2.15-1.78-2.75-3.56-2.75-2.87,3.2-4.12,1.93,1.54-2.37,1.54-4.18-.09-1.81-.09-3.62,1.68-1.81,1.68-3.63-.48-1.81-.48-3.62-4.29-1.81-4.29-3.62,4.32-1.82,4.32-3.63-1.12-1.82-1.12-3.63,1.14-1.82,1.14-3.63-1.63-1.81-1.63-3.63,1.61-1.81,1.61-3.62.56-1.81.56-3.62-5-1.82-5-3.63,2.26-1.81,2.26-3.63.95-1.81.95-3.63-.24-1.81-.24-3.62.16-1.82.16-3.63-3.27-1.82-3.27-3.63,2.61-1.81,2.61-3.62,1.12-1.82,1.12-3.63-.4-1.82-.4-3.63-1.67-1.82-1.67-3.63,2.15-1.82,2.15-3.63-1.82-1.81-1.82-3.63,1-1.81,1-3.63-1.64-1.81-1.64-3.63,1.38-1.81,1.38-3.63,1.85-1.81,1.85-3.63-4.38-1.81-4.38-3.63.5-1.81.5-3.63.81-1.81.81-3.63-.08-1.81-.08-3.63,2.63-1.81,2.63-3.63.1-1.81.1-3.63.23-1.81.23-3.63-2.22-1.81-2.22-3.63,1-1.81,1-3.63-2.57-1.82-2.57-3.63-.4-1.82-.4-3.63,3.1-1.82,3.1-3.64.22-1.81.22-3.63,0-1.81,0-3.62-2.13-1.82-2.13-3.63,1.37-1.82,1.37-3.63-.27-1.82-.27-3.64-2.7-1.81-2.7-3.63,5-1.81,5-3.63S1205,908,1205,906.17s2.77-1.82,2.77-3.64.31-1.81.31-3.63-3.76-1.82-3.76-3.63,3.19-1.82,3.19-3.64-4.92-1.82-4.92-3.63,3.54-1.82,3.54-3.64-.68-.89.59-2.19.28-4.08,2.06-4.08,1.77,2,3.54,2,1.77,1.71,3.54,1.71,1.77-1.07,3.55-1.07,1.77-1.54,3.54-1.54,1.77,3.18,3.54,3.18,1.77-.9,3.55-.9,1.77,1.32,3.54,1.32,1.77-3.44,3.55-3.44,1.77,1.53,3.55,1.53,1.75-.88,3,.39-1,1.26-1,3.07.53,1.82.53,3.63,2.68,1.81,2.68,3.62-2.51,1.81-2.51,3.62,1.34,1.82,1.34,3.63-2.39,1.81-2.39,3.63,2.8,1.81,2.8,3.63-.77,1.81-.77,3.62,2.43,1.82,2.43,3.63-4.7,1.81-4.7,3.62,1.14,1.82,1.14,3.63-.55,1.81-.55,3.62-.62,1.82-.62,3.63,2.67,1.81,2.67,3.63-.49,1.81-.49,3.63,1.1,1.81,1.1,3.63,1,1.81,1,3.62.33,1.82.33,3.63-4.51,1.81-4.51,3.63,1.47,1.81,1.47,3.63,3,1.81,3,3.63-3.26,1.81-3.26,3.62-1.66,1.82-1.66,3.63,3.64,1.82,3.64,3.63-3.55,1.82-3.55,3.63,4.91,1.82,4.91,3.63-2.49,1.82-2.49,3.63,1.13,1.81,1.13,3.63.28,1.81.28,3.63-4.09,1.82-4.09,3.63,1.09,1.81,1.09,3.63,3.68,1.82,3.68,3.63-.07,1.82-.07,3.63-4.66,1.82-4.66,3.63,2.52,1.82,2.52,3.63.23,1.82.23,3.63.17,1.82.17,3.64.24,1.81.24,3.63-1.65,1.81-1.65,3.63,1.89,1.81,1.89,3.63-.27,1.81-.27,3.63-2.85,1.81-2.85,3.63,1.94,1.81,1.94,3.63-2.43,1.81-2.43,3.63,4.37,1.82,4.37,3.63.25,1.82.25,3.63-2.35,1.82-2.35,3.64-.2,1.81-.2,3.63.24,1.82.24,3.64-.31,1.81-.31,3.63-1.43,1.82-1.43,3.63,1.7,1.82,1.7,3.64-1.64,2.43-1.07,4.16C1243.49,1076,1246.59,1076.45,1245.32,1077.76Z"/><path class="cls-23" d="M1578.27,1081.74c-1.32,1.29-1.87.63-3.71.63s-1.85-1-3.7-1-1.85-1.17-3.7-1.17-1.85.69-3.7.69-1.85,2.8-3.7,2.8-1.85-4.1-3.7-4.1-1.85.42-3.7.42-1.85,3.27-3.7,3.27-1.85-2.93-3.7-2.93-3.12,3.38-4.45,2.09a5.35,5.35,0,0,1-1.55-4.35c0-1.79-.35-1.79-.35-3.59s0-1.79,0-3.58,0-1.79,0-3.58,4.62-1.79,4.62-3.59-.07-1.79-.07-3.58-1.73-1.79-1.73-3.58,2.65-1.8,2.65-3.59-.11-1.8-.11-3.59-3.67-1.79-3.67-3.59.85-1.79.85-3.58,1-1.8,1-3.59-.78-1.79-.78-3.58.69-1.8.69-3.59-3.41-1.79-3.41-3.58,5.34-1.8,5.34-3.59-5-1.8-5-3.59-.21-1.8-.21-3.59.13-1.79.13-3.59,4-1.79,4-3.58-4.35-1.8-4.35-3.59,4.07-1.79,4.07-3.59.61-1.79.61-3.59-3-1.79-3-3.59,1.89-1.79,1.89-3.58-3.06-1.8-3.06-3.59,4-1.8,4-3.59-4.48-1.8-4.48-3.59,2.9-1.8,2.9-3.59.52-1.8.52-3.59-2.71-1.8-2.71-3.59,3-1.8,3-3.59-3.19-1.8-3.19-3.59,3.77-1.8,3.77-3.59-3.93-1.8-3.93-3.59,1.84-1.8,1.84-3.59-1.15-1.8-1.15-3.59,2.85-1.8,2.85-3.59-1.41-1.8-1.41-3.6-1.56-1.79-1.56-3.59,1.2-1.79,1.2-3.58,1.59-1.8,1.59-3.6-3.6-1.79-3.6-3.58.46-1.8.46-3.59,1.5-1.8,1.5-3.59.94-1.8.94-3.6.17-1.79.17-3.59-2.84-1.79-2.84-3.59,1.41-1.8,1.41-3.59.92-1.8.92-3.6-.85-1.79-.85-3.59-1.09-1.8-1.09-3.59,1.48-1.8,1.48-3.6-1.3-1.8-1.3-3.59-.5-1.8-.5-3.6.16-3.31,1.45-4.57S1543.1,881,1545,881s1.85.5,3.7.5,1.84-2.36,3.69-2.36,1.85,3,3.7,3,1.85-.75,3.7-.75,1.85-2.87,3.7-2.87,1.85-.13,3.7-.13,1.85,4,3.7,4,1.85.11,3.71.11,1.13-1.71,2.46-.42,4,.51,4,2.3-4.69,1.8-4.69,3.59.09,1.79.09,3.58,2.72,1.8,2.72,3.59-.22,1.79-.22,3.58,1.86,1.79,1.86,3.58-2.56,1.8-2.56,3.59.84,1.79.84,3.58-3.53,1.8-3.53,3.59,4,1.8,4,3.59.51,1.79.51,3.59-.28,1.79-.28,3.58.92,1.79.92,3.59-.44,1.79-.44,3.58-4,1.8-4,3.59,1.54,1.79,1.54,3.59.21,1.79.21,3.59-1.86,1.79-1.86,3.58,3.28,1.8,3.28,3.59,1,1.79,1,3.59S1579,954.23,1579,956s-2.22,1.8-2.22,3.59,3.77,1.8,3.77,3.59-4.22,1.8-4.22,3.59-.16,1.79-.16,3.59,2.1,1.79,2.1,3.59-1.94,1.79-1.94,3.59-.71,1.79-.71,3.59,0,1.79,0,3.59,4.41,1.79,4.41,3.58-1.19,1.8-1.19,3.6-1.43,1.79-1.43,3.58-1.42,1.8-1.42,3.59,0,1.8,0,3.6,2.08,1.79,2.08,3.59-1.8,1.79-1.8,3.59,1,1.79,1,3.59,3.17,1.79,3.17,3.59-4.44,1.79-4.44,3.59,2.15,1.8,2.15,3.59-.78,1.79-.78,3.59,1.06,1.79,1.06,3.59.23,1.79.23,3.59.93,1.79.93,3.59-1.36,1.79-1.36,3.59.86,1.79.86,3.59.27,1.8.27,3.59-2.76,1.8-2.76,3.59,4.33,1.8,4.33,3.6-4.64,1.79-4.64,3.59,1.25,1.8,1.25,3.6,1.6,1.79,1.6,3.59,1.71,1.8,1.71,3.59-1.63,1.8-1.63,3.6-2.5,2.08-2.11,3.84S1579.56,1080.48,1578.27,1081.74Z"/><path class="cls-23" d="M910.76,1079.17c-1.36,1.41-3.46-.51-5.42-.51s-2-1.29-3.92-1.29-1.95-1.31-3.91-1.31-2,3.81-3.91,3.81-2-4.76-3.92-4.76-2,3-3.92,3-2,1.3-3.91,1.3-2-1.9-3.92-1.9-2-1.8-3.91-1.8-2-.36-3.92-.36-2,1.76-3.93,1.76-3.71,3.1-5.08,1.69,2.1-3.14,2.1-5.16.3-2,.3-4-4.17-2-4.17-4,3.36-2,3.36-4,1.72-2,1.72-4-4.21-2-4.21-4,2.1-2,2.1-4,3-2,3-4-5.62-2-5.62-4,.24-2,.24-4,5.15-2,5.15-4-2.53-2-2.53-4,.2-2,.2-4-2.17-2-2.17-4-.35-2-.35-4,0-2,0-4,3.89-2,3.89-4-.24-2-.24-4-3.49-2-3.49-4,2.66-2,2.66-4,1.56-2,1.56-4-3.25-2-3.25-4-2-2-2-4,4.24-2,4.24-4-3.13-2-3.13-4.05.24-2,.24-4,0-2,0-4,4.48-2,4.48-4.05-4.19-2-4.19-4,.51-2,.51-4-.43-2-.43-4,3.17-2,3.17-4-2.19-2-2.19-4,2.43-2,2.43-4-.78-2-.78-4-1-2-1-4-.16-2-.16-4-1.14-2-1.14-4-.81-2-.81-4,1.77-2,1.77-4-1.66-2-1.66-4,4.14-2,4.14-4,.48-2,.48-4-5.53-2-5.53-4-.47-2-.47-4,1.11-2,1.11-4,4-2,4-4,0-2,0-4-3-2-3-4.05-.37-2.38,1-3.84,1.74-3.26,3.69-3.26,2,3.38,3.92,3.38,1.95-2.48,3.91-2.48,2,.09,3.92.09,2,5.14,3.91,5.14,2-.66,3.92-.66,2-2.85,3.92-2.85,2-2.39,3.91-2.39,2,4.36,3.92,4.36,2-.58,3.91-.58,2,.06,3.93.06,3.83-3.67,5.2-2.26-3.18,3.26-3.18,5.28.3,2,.3,4,4.17,2,4.17,4-.75,2-.75,4-2.13,2-2.13,4,.82,2,.82,4-.69,2-.69,4,1.59,2,1.59,4-1.69,2-1.69,4,.45,2,.45,4-.7,2-.7,4,.83,2,.83,4,.3,2,.3,4,.22,2,.22,4,.82,2,.82,4-.8,2-.8,4-2.69,2-2.69,4,.86,2,.86,4,.46,2,.46,4-2.22,2-2.22,4,4.73,2,4.73,4-3.07,2-3.07,4,2,2,2,4-1.46,2-1.46,4-2.51,2-2.51,4,5.72,2,5.72,4-3.07,2-3.07,4,.65,2,.65,4,0,2,0,4,2,2,2,4-2.11,2-2.11,4-3.19,2-3.19,4,3.78,2,3.78,4,1.19,2,1.19,4-1.48,2-1.48,4,.67,2,.67,4-1.9,2-1.9,4,2.24,2,2.24,4-2.47,2-2.47,4,2.24,2,2.24,4-1.06,2-1.06,4,.12,2,.12,4-.95,2-.95,4.05-2.37,2-2.37,4,3.66,2,3.66,4-2.71,2-2.71,4,4.87,2,4.87,4-3.67,2-3.67,4a8.73,8.73,0,0,0,.71,4.16C910,1076.61,912.17,1077.72,910.76,1079.17Z"/><path class="cls-24" d="M1952.56,939.73c-11.93,13.3-12.49,4.47-30.35,4.47s-17.87,7.12-35.74,7.12-17.86-7.13-35.73-7.13-17.87,5.68-35.74,5.68-17.86-6.75-35.73-6.75-17.87,7.93-35.73,7.93-17.87-15.36-35.74-15.36-17.87,4.26-35.73,4.26-17.87,2.81-35.74,2.81-17.87-6.25-35.73-6.25-17.87,15.1-35.74,15.1-17.87-6.74-35.73-6.74-17.87,3.5-35.74,3.5-17.87-5.45-35.73-5.45-17.87-3.32-35.74-3.32-17.87-2.84-35.73-2.84-17.87.33-35.74.33-17.87,11.75-35.73,11.75-17.87-4-35.74-4-17.87.76-35.74.76-17.87-9.53-35.73-9.53-17.87,15.4-35.74,15.4S1153.9,942,1136,942s-17.87-7.51-35.74-7.51-17.87,9.11-35.74,9.11-17.87-3.15-35.74-3.15-17.86,13.28-35.73,13.28-17.87-16.49-35.74-16.49S939.48,948,921.61,948s-17.87,1.62-35.73,1.62-17.87,1.24-35.74,1.24-17.87-.36-35.73-.36-17.87,3.19-35.74,3.19-17.86-4.43-35.73-4.43-17.87,1.33-35.74,1.33-17.86-4.91-35.73-4.91-17.87-13.1-35.74-13.1S617.87,950,600,950s-17.87,1.23-35.74,1.23-17.87-3-35.74-3-17.87-2.83-35.73-2.83-17.87-9.31-35.74-9.31-17.87,17-35.74,17-17.87-2.1-35.74-2.1-17.87-6.39-35.74-6.39-17.87,7.66-35.74,7.66-17.87-9-35.74-9-17.87.71-35.73.71-17.87-9.67-35.74-9.67-17.87,3-35.74,3-17.87,12.45-35.74,12.45-17.87-2.12-35.75-2.12-17.87,3.73-35.74,3.73S46,940.83,28.16,940.83,2.3,959.71-9.64,946.41c-13.3-14.81-1.83-21.75-1.83-41.66s-8.36-24,4.93-38.86c11.94-13.3,16.83-12.35,34.69-12.35S46,873.41,63.89,873.41s17.86,1,35.73,1,17.87-6.53,35.73-6.53,17.87,8.34,35.74,8.34S189,858,206.82,858s17.87,16.45,35.74,16.45,17.86-3.25,35.73-3.25,17.87-13.7,35.74-13.7,17.86,9.79,35.73,9.79,17.87,5.86,35.74,5.86,17.86-17.7,35.73-17.7S439.1,872.55,457,872.55s17.86-10,35.73-10,17.87-8.88,35.74-8.88,17.87,6.05,35.73,6.05,17.87-6.06,35.74-6.06,17.87.53,35.73.53,17.87,8.68,35.74,8.68,17.87-5.53,35.74-5.53,17.86-2.94,35.73-2.94,17.87,1.07,35.74,1.07,17.87,5.84,35.73,5.84,17.87,6.05,35.74,6.05,17.87-2.72,35.74-2.72,17.87-8.54,35.73-8.54,17.87,19.3,35.74,19.3S975.14,854.3,993,854.3s17.87,6,35.74,6,17.86,6.43,35.73,6.43,17.87-9.24,35.74-9.24,17.87,12.3,35.73,12.3,17.87,1.38,35.73,1.38,17.87-15,35.74-15,17.87,15,35.74,15S1261,867,1278.89,867s17.87-5.1,35.74-5.1,17.86,10.35,35.73,10.35,17.87-9.37,35.74-9.37,17.87-5.05,35.74-5.05,17.86-.38,35.73-.38,17.87-2.34,35.74-2.34,17.87,21.77,35.74,21.77,17.87-9.72,35.74-9.72,17.87,1,35.74,1,17.87-1,35.74-1,17.87-11.89,35.74-11.89,17.87,18.64,35.73,18.64,17.87-20,35.74-20,17.87,10.47,35.74,10.47,17.87-8.19,35.74-8.19,17.87,10.38,35.75,10.38,17.87-8.11,35.74-8.11,17.87,17.33,35.74,17.33,31.16-30.82,43.11-17.52c13.29,14.81-10.38,26.74-7.78,46.47C1960,923.22,1965.86,924.92,1952.56,939.73Z"/></g><g id="PFUETZE"><path class="cls-25" d="M566.2,647.25c0,1.83,2.58,2.52-.43,4.06-1.81.93-4.85-1.64-7.54-.86-2.12.61-4.11.89-6.69,1.38-2.25.42-3.26,9.33-5.79,9.66-2.31.29-5.49-6.8-8-6.6-2.35.19-4.57,1.75-7.06,1.85s-4.72-3.3-7.19-3.3-4.8,3-7.17,2.91-5.46,7.95-7.81,7.77c-2.51-.2-3.87-10.85-6.18-11.15-2.53-.32-4.71-.31-7-.74-2.58-.49-5.15,1.12-7.27.51-2.69-.77-6.64,2.56-8.45,1.63-3-1.54-9.42-5.29-9.42-7.12s9.18-.18,12.19-1.73c1.81-.92,2.32-5.32,5-6.09,2.12-.61,4.78.24,7.36-.25,2.24-.43,3.75-7.21,6.28-7.53,2.31-.3,5.37,4.51,7.88,4.31,2.35-.18,4.83,1.22,7.32,1.13s4.75-6.76,7.22-6.76,4.89,5.51,7.26,5.6,5.35-5.44,7.7-5.26,4.37,6.77,6.68,7.07c2.54.32,5.94-4.89,8.19-4.46,2.58.49,3.44,7.87,5.56,8.48,2.69.78,5.81-.94,7.62,0C569.52,643.29,566.2,645.42,566.2,647.25Z"/></g><g id="STARSNAKES"><g class="cls-26"><path class="cls-27" d="M535.27,635,682.73,523h0"/><path class="cls-28" d="M532.73,631.66,682.73,523,537.81,638.35a4.2,4.2,0,1,1-5.23-6.58Z"/></g></g></g></g></g></svg>