<svg xmlns="http://www.w3.org/2000/svg" width="49.28mm" height="19.33mm" viewBox="0 0 139.7 54.8"><defs><style>.cls-1{fill:#936037;}.cls-2{fill:#fff;}</style></defs><g id="Layer_2" data-name="Layer 2"><g id="Layer_1-2" data-name="Layer 1"><path class="cls-1" d="M139.7,27.4c0,6.06-3.08,7.18-15.72,11.24A133.39,133.39,0,0,1,98.36,44.3c-8.39,1-17,10.5-26.57,10.5S53.06,50,44.68,49c-10.13-1.22-19.44-2.53-26.81-4.9C5.23,40,0,33.46,0,27.4s4.77-14,17.41-18.07C24.78,7,34.71,8.41,44.83,7.19c8.39-1,17.41-3.36,27-3.36S91.22-.87,99.6.14c10.13,1.22,16.47,15.33,23.84,17.7,12.64,4.07,16.26,3.51,16.26,9.56"/><path class="cls-2" d="M51.27,18.8a3.69,3.69,0,0,1,2,3.57A10.74,10.74,0,0,1,51.79,27c-1.09,2.09-2.19,3.14-3.32,3.14a1.22,1.22,0,0,1-.73-.31L47,29.24v3.48a2.09,2.09,0,0,0,.1.61,6,6,0,0,1,.18.68,1.3,1.3,0,0,1-.15.66c-.13.32-.32.5-.57.52a4.22,4.22,0,0,1-1.6-.51,4,4,0,0,1-1.61-1,1,1,0,0,1,0-.86,2.49,2.49,0,0,0,.14-.67V19.49A1.57,1.57,0,0,0,43.3,19a1,1,0,0,1-.13-.47c.09-.65.33-1,.75-1a7,7,0,0,1,.83.23,4.57,4.57,0,0,0,1.17.26,4.54,4.54,0,0,0,1.57-.33,4.79,4.79,0,0,1,1.39-.35,2.15,2.15,0,0,1,.5.07,2.36,2.36,0,0,1,1,.61A5.19,5.19,0,0,0,51.27,18.8Zm-1.71,1.57a2.85,2.85,0,0,0-1.31.51A4.32,4.32,0,0,0,47,22v4.92c.74-.23,1.44-1.07,2.1-2.51A8.37,8.37,0,0,0,50,21.09C50,20.61,49.83,20.37,49.56,20.37Z"/><path class="cls-2" d="M63.85,31.88a1.58,1.58,0,0,1-.78,1.17,1.06,1.06,0,0,1-.45,0,.71.71,0,0,0-.4,0l-3,1.27a.69.69,0,0,0-.3.34q-.15.28-.3.33a3.69,3.69,0,0,1-1.91-.31,4,4,0,0,1-1.78-.88,1.46,1.46,0,0,1-.14-1c0-.22,0-.39,0-.51V18.57a.72.72,0,0,0-.17-.35.39.39,0,0,1-.12-.24c0-.26.27-.45.72-.58a5.19,5.19,0,0,1,1.88.31c1.08.32,1.63.68,1.65,1.11a1.06,1.06,0,0,1-.23.49,1,1,0,0,0-.23.49V31.1l2.15-.92a2.53,2.53,0,0,1,.7-.36c.19,0,.71.26,1.54.86S63.91,31.69,63.85,31.88Z"/><path class="cls-2" d="M77.33,33.43c0,.13,0,.42-.08.88a1,1,0,0,1-.17.56.73.73,0,0,1-.35.06A5.52,5.52,0,0,1,75,34.58a3.18,3.18,0,0,1-1.48-.78,3.23,3.23,0,0,1-.33-1.22,14.92,14.92,0,0,0-.52-2.27,15.44,15.44,0,0,0-2.29.56,8.42,8.42,0,0,0-2,.77c-.21.58-.48,1.3-.83,2.16,0,.19-.08.38-.13.54a.73.73,0,0,1-.36.42.34.34,0,0,1-.19,0,5,5,0,0,1-1.66-.51c-.77-.34-1.18-.56-1.2-.67a3,3,0,0,1,.39-1.41c.44-1.09.69-1.76.76-2a1.21,1.21,0,0,1-.43-.85,2,2,0,0,1,0-.23c0-.16.45-.46,1.26-.88l2.66-9a3.87,3.87,0,0,0,0-.9c0-.36,0-.6.12-.69s.23-.1.5-.1a11.28,11.28,0,0,1,2.76.49,5.33,5.33,0,0,1,2.14.88,61.17,61.17,0,0,0,.93,6.81A32.6,32.6,0,0,0,77.33,33.43ZM72,27.22c-.18-.86-.29-1.42-.33-1.7a28,28,0,0,1-.31-2.84c-.27.67-.6,1.59-1,2.78a16,16,0,0,0-.64,2.33A18.86,18.86,0,0,1,72,27.22Z"/><path class="cls-2" d="M89.33,19.18c.08.71-.08,1.16-.5,1.35l-.33.17a46.56,46.56,0,0,0-3.15,6.4,30.94,30.94,0,0,0-1.92,5.21,2.24,2.24,0,0,0,.08.57,2.35,2.35,0,0,1,.09.68c-.09.92-.32,1.42-.7,1.49a4.9,4.9,0,0,1-1.44-.31,7.45,7.45,0,0,1-1.53-.59c-.47-.33-.7-.65-.7-1a1.24,1.24,0,0,1,.14-.55c.19-.53.6-1.62,1.22-3.27-1.14-2.34-1.91-3.94-2.31-4.83a34.69,34.69,0,0,1-1.69-4.35,1.17,1.17,0,0,0-.24-.31.57.57,0,0,1-.19-.37c0-.2.26-.51.8-.92,1.14-.87,1.92-1.28,2.35-1.23a.89.89,0,0,1,.6.43,1.28,1.28,0,0,1,.26.55,10.7,10.7,0,0,0,.13,1.25,20.57,20.57,0,0,0,2,5.5c.77-1.86,1.2-2.89,1.3-3.09a24.07,24.07,0,0,1,1.77-3.25,7.77,7.77,0,0,1,.29-.83,1.16,1.16,0,0,1,1.11-.39,4.4,4.4,0,0,1,1.52.71C89,18.66,89.3,19,89.33,19.18Z"/></g></g></svg>