<svg xmlns="http://www.w3.org/2000/svg" xmlns:xlink="http://www.w3.org/1999/xlink" width="676.98mm" height="381mm" viewBox="0 0 1919 1080"><defs><style>.cls-1{isolation:isolate;}.cls-2{fill:url(#linear-gradient);}.cls-3{fill:#96a65d;}.cls-4{fill:#6f8c30;}.cls-5{opacity:0.4;}.cls-6{fill:#fff;}.cls-7{fill:#387404;mix-blend-mode:darken;}.cls-8{fill:#736258;}.cls-9{fill:#f2d0e3;}.cls-10{fill:#f2dde3;}.cls-11{fill:#ed1c24;}.cls-12,.cls-16,.cls-17,.cls-18,.cls-19,.cls-20,.cls-21,.cls-22,.cls-23,.cls-24,.cls-25{fill:none;stroke-miterlimit:10;}.cls-12,.cls-17,.cls-18,.cls-19,.cls-20,.cls-21,.cls-22,.cls-23,.cls-24,.cls-25{stroke:#000;}.cls-12{stroke-width:0.31px;}.cls-13{fill:#333;}.cls-14{fill:#754c24;}.cls-15{fill:url(#linear-gradient-2);}.cls-16{stroke-width:38.99px;stroke:url(#radial-gradient);}.cls-17{stroke-width:0.24px;}.cls-18{stroke-width:0.22px;}.cls-19{stroke-width:0.19px;}.cls-20{stroke-width:0.15px;}.cls-21{stroke-width:0.19px;}.cls-22{stroke-width:0.23px;}.cls-23{stroke-width:0.24px;}.cls-24{stroke-width:0.12px;}.cls-25{stroke-width:0.31px;}</style><linearGradient id="linear-gradient" x1="934.85" y1="1014.71" x2="986.42" y2="55.9" gradientTransform="matrix(1, 0, 0, -1, 0, 1096.43)" gradientUnits="userSpaceOnUse"><stop offset="0" stop-color="#0e1158"/><stop offset="0.79" stop-color="#5b81c4"/><stop offset="1" stop-color="#7bb9e7"/></linearGradient><linearGradient id="linear-gradient-2" x1="-154.92" y1="1051.33" x2="1803.38" y2="1051.33" gradientTransform="matrix(1.01, 0.04, -0.03, 1.15, 178.54, -341.46)" gradientUnits="userSpaceOnUse"><stop offset="0" stop-color="#8c6239"/><stop offset="0.49" stop-color="#724922"/><stop offset="0.55" stop-color="#6f4721"/><stop offset="1" stop-color="#42210b"/></linearGradient><radialGradient id="radial-gradient" cx="-730.38" cy="580.12" r="47.32" gradientTransform="translate(1863.8 310.62) scale(1.84 0.58)" gradientUnits="userSpaceOnUse"><stop offset="0"/><stop offset="0.32" stop-color="#180b22"/><stop offset="1" stop-color="#532576"/></radialGradient></defs><g class="cls-1"><g id="Layer_1" data-name="Layer 1"><g id="BG4"><rect class="cls-2" width="1919" height="1080"/><ellipse class="cls-3" cx="1515.29" cy="799.5" rx="474.96" ry="184.79"/><ellipse class="cls-4" cx="539.75" cy="838.37" rx="575.5" ry="223.91"/><g id="stars" class="cls-5"><circle class="cls-6" cx="894.39" cy="278.24" r="3.37"/><circle class="cls-6" cx="546.27" cy="527.54" r="3.39"/><circle class="cls-6" cx="412.25" cy="311.38" r="3.25"/><circle class="cls-6" cx="254.61" cy="281.96" r="3.33"/><circle class="cls-6" cx="443.72" cy="306.67" r="3.41"/><circle class="cls-6" cx="402.05" cy="35.95" r="3.45"/><circle class="cls-6" cx="1251.66" cy="119.49" r="3.48"/><circle class="cls-6" cx="1569.59" cy="53.97" r="3"/><circle class="cls-6" cx="1336.93" cy="41.95" r="3.26"/><circle class="cls-6" cx="1184.79" cy="60.54" r="3.16"/><circle class="cls-6" cx="959.66" cy="153.82" r="3.32"/><circle class="cls-6" cx="605.3" cy="215.9" r="3.44"/><circle class="cls-6" cx="359.58" cy="150.25" r="3.44"/><circle class="cls-6" cx="665.75" cy="382.82" r="3.49"/><circle class="cls-6" cx="1030.96" cy="230.67" r="3.09"/><circle class="cls-6" cx="1029.25" cy="41.47" r="3.18"/><circle class="cls-6" cx="1313.37" cy="276.29" r="3.48"/><circle class="cls-6" cx="1485.13" cy="176.69" r="3.49"/><circle class="cls-6" cx="1903.45" cy="64.28" r="3.07"/><circle class="cls-6" cx="1754.08" cy="402.84" r="3.27"/><circle class="cls-6" cx="1522.5" cy="89.28" r="3.11"/><circle class="cls-6" cx="1363.74" cy="212.82" r="2.97"/><circle class="cls-6" cx="950.58" cy="241.17" r="3.38"/><circle class="cls-6" cx="835.66" cy="92.18" r="2.92"/><circle class="cls-6" cx="498.86" cy="100.6" r="3.49"/><circle class="cls-6" cx="336.59" cy="177.87" r="3.09"/><circle class="cls-6" cx="910.87" cy="418.85" r="3.1"/><circle class="cls-6" cx="932.15" cy="255.33" r="3.15"/><circle class="cls-6" cx="1019.85" cy="133.15" r="3.26"/><circle class="cls-6" cx="772.33" cy="422.43" r="3.3"/><circle class="cls-6" cx="519.74" cy="345.5" r="3.11"/><circle class="cls-6" cx="10.75" cy="299.62" r="3.42"/><circle class="cls-6" cx="383.36" cy="413.19" r="3.19"/><circle class="cls-6" cx="1602.29" cy="80.02" r="3.11"/><circle class="cls-6" cx="1591.98" cy="285.97" r="3.12"/><circle class="cls-6" cx="990.28" cy="292.13" r="3.11"/><circle class="cls-6" cx="917.55" cy="377.59" r="3.06"/><circle class="cls-6" cx="439.22" cy="92.76" r="3.16"/><circle class="cls-6" cx="516.29" cy="199.91" r="2.91"/><circle class="cls-6" cx="691.81" cy="134.33" r="3.37"/><circle class="cls-6" cx="1052.18" cy="117.35" r="3.21"/><circle class="cls-6" cx="1524.55" cy="171.54" r="3.44"/><circle class="cls-6" cx="1201.73" cy="227.66" r="3.34"/><circle class="cls-6" cx="1028.48" cy="209.79" r="3.45"/><circle class="cls-6" cx="587.9" cy="261.57" r="3.07"/><circle class="cls-6" cx="225.62" cy="210.19" r="3.07"/><circle class="cls-6" cx="132.69" cy="-1.94" r="3.28"/></g><ellipse class="cls-7" cx="993.79" cy="1036.26" rx="1105.54" ry="236.29"/><g id="goodcow"><ellipse class="cls-8" cx="719.6" cy="713.83" rx="1.04" ry="2.61" transform="translate(-145.96 1241.25) rotate(-76.13)"/><ellipse class="cls-8" cx="704.9" cy="714.05" rx="2.18" ry="1.01" transform="translate(-243.51 386.53) rotate(-26.32)"/><path class="cls-9" d="M730.46,748.31a.4.4,0,0,0,.4.4.39.39,0,0,0,.39-.4v-3.53a.39.39,0,0,0-.39-.4.4.4,0,0,0-.4.4Z"/><path class="cls-9" d="M729.56,747.91a.4.4,0,1,0,.8,0v-3.53a.4.4,0,0,0-.8,0Z"/><path class="cls-9" d="M728.33,748.07a.51.51,0,0,0,1,0v-3.32a.51.51,0,0,0-1,0Z"/><ellipse class="cls-9" cx="730.16" cy="744.88" rx="2.21" ry="2.63"/><path class="cls-6" d="M716.53,750.45a1.33,1.33,0,1,0,2.66,0V743a1.33,1.33,0,0,0-2.66,0Z"/><path class="cls-8" d="M716.91,751a.88.88,0,0,0,.88.88h.85a.88.88,0,0,0,0-1.75h-.85a.88.88,0,0,0-.88.87Z"/><path class="cls-6" d="M715,752.78a1.67,1.67,0,0,0,3.33,0V741.44a1.67,1.67,0,0,0-3.33,0Z"/><path class="cls-8" d="M714.76,753.64a1.22,1.22,0,0,0,1.22,1.22h1.4a1.23,1.23,0,1,0,0-2.45H716a1.23,1.23,0,0,0-1.22,1.23Z"/><path class="cls-6" d="M733.5,750.67a1.11,1.11,0,0,0,2.22,0v-6.32a1.11,1.11,0,0,0-2.22,0Z"/><path class="cls-8" d="M733.81,751.11a.7.7,0,0,0,.7.7h.65a.7.7,0,0,0,0-1.4h-.65a.7.7,0,0,0-.7.7Z"/><path class="cls-6" d="M731.49,754.06a1.5,1.5,0,1,0,3,0v-9.33a1.5,1.5,0,1,0-3,0Z"/><ellipse class="cls-6" cx="747.11" cy="733.72" rx="1.39" ry="9.02" transform="translate(-263.97 461.26) rotate(-29.4)"/><ellipse class="cls-6" cx="728.9" cy="733.25" rx="17.87" ry="12.53"/><path class="cls-6" d="M706.24,720.16a5.79,5.79,0,0,0,11.58,0v-7.69a5.79,5.79,0,1,0-11.58,0Z"/><path class="cls-10" d="M704,724.85a5.72,5.72,0,0,0,5.73,5.73h4.94a5.74,5.74,0,1,0,0-11.47h-4.94a5.73,5.73,0,0,0-5.73,5.74Z"/><ellipse class="cls-6" cx="714.17" cy="723.43" rx="0.77" ry="2.28"/><ellipse class="cls-6" cx="710.63" cy="723.08" rx="1.01" ry="2.57"/><path class="cls-8" d="M731.07,755.33a1.23,1.23,0,0,0,1.23,1.23h1.4a1.23,1.23,0,0,0,0-2.45h-1.4a1.23,1.23,0,0,0-1.23,1.22Z"/><ellipse cx="709.79" cy="712.71" rx="1.06" ry="1.27"/><ellipse cx="713.74" cy="712.75" rx="0.92" ry="1.1"/><ellipse class="cls-6" cx="751.22" cy="740.95" rx="1.52" ry="2.28" transform="translate(-283.21 532.87) rotate(-33.23)"/><ellipse class="cls-11" cx="714.79" cy="728.3" rx="0.51" ry="0.9" transform="translate(-257.04 417.04) rotate(-27.78)"/><path class="cls-12" d="M715.39,726.71a3.72,3.72,0,0,1-2,1.29,5.31,5.31,0,0,1-4.59-1"/><ellipse class="cls-13" cx="737.61" cy="732.55" rx="3.97" ry="2.21" transform="translate(-292.7 870.96) rotate(-52.45)"/><ellipse class="cls-13" cx="727.34" cy="724.7" rx="2.25" ry="3.84" transform="translate(-299.36 735.14) rotate(-45.48)"/><ellipse class="cls-13" cx="724.48" cy="737.1" rx="1.89" ry="4.22" transform="matrix(0.13, -0.99, 0.99, 0.13, -99.3, 1361.27)"/></g><g id="bridge"><path class="cls-14" d="M225.91,1076.38c-1.31,1.34-1.53,1.07-3.4,1.07s-1.88-3.19-3.75-3.19-1.88-.34-3.75-.34-1.87,2.65-3.75,2.65-1.87.68-3.75.68-1.87-1-3.75-1-1.87,2.91-3.75,2.91-1.87-1-3.75-1-1.87-.86-3.75-.86-1.87-3.34-3.75-3.34-1.87,5.45-3.75,5.45-1.13-2.71-2.45-4-3.3-.6-3.3-2.5,4.7-1.89,4.7-3.79-3.75-1.9-3.75-3.79.55-1.9.55-3.8,3.34-1.89,3.34-3.79-.79-1.89-.79-3.79-1.33-1.89-1.33-3.79,1.27-1.89,1.27-3.79-4.69-1.9-4.69-3.79.33-1.9.33-3.8,1-1.9,1-3.79,4.09-1.9,4.09-3.79-3.13-1.9-3.13-3.8-1-1.89-1-3.79-.4-1.9-.4-3.8-1.15-1.89-1.15-3.79,4.12-1.9,4.12-3.79.05-1.9.05-3.8.08-1.89.08-3.79,1.23-1.9,1.23-3.8-5.22-1.9-5.22-3.79,4.33-1.9,4.33-3.8-1.88-1.9-1.88-3.79-1.9-1.9-1.9-3.8,2.92-1.9,2.92-3.8-1.39-1.89-1.39-3.79-2.42-1.9-2.42-3.8,4.12-1.9,4.12-3.79-2.54-1.9-2.54-3.8,1.16-1.9,1.16-3.8-1.92-1.9-1.92-3.8,2-1.89,2-3.79,1-1.9,1-3.8,1.87-1.9,1.87-3.8-1.94-1.9-1.94-3.79,1.58-1.9,1.58-3.8-4.11-1.9-4.11-3.79,2.08-1.9,2.08-3.8-1.41-1.9-1.41-3.8,1.67-1.9,1.67-3.79-.3-1.9-.3-3.8-1.61-1.9-1.61-3.8.05-1.9.05-3.8.57-1.9.57-3.8,2.07-1.9,2.07-3.8,1.36-1.9,1.36-3.8-4.75-1.9-4.75-3.8,1-1.9,1-3.81-1-3.1.34-4.45,2.53-.19,4.41-.19,1.87-1.2,3.75-1.2,1.87,4.5,3.74,4.5,1.88-1.51,3.75-1.51,1.88-1,3.75-1,1.87,2.42,3.75,2.42,1.87-3.4,3.75-3.4,1.87,2.17,3.75,2.17,1.87,1.82,3.75,1.82,1.87-2,3.75-2,1.88.51,3.75.51,2.34-2.71,3.66-1.37,2.21,1.79,2.21,3.69-.33,1.9-.33,3.8-2.84,1.89-2.84,3.79-.8,1.89-.8,3.79,2.11,1.9,2.11,3.79-.6,1.9-.6,3.79,2.08,1.9,2.08,3.79-2.55,1.9-2.55,3.79,2.57,1.9,2.57,3.8.57,1.9.57,3.79-1.34,1.9-1.34,3.8-2.63,1.89-2.63,3.79,4.23,1.89,4.23,3.79-2.3,1.9-2.3,3.79,2.49,1.9,2.49,3.8-3,1.9-3,3.79,2.21,1.9,2.21,3.8.48,1.89.48,3.79-2.08,1.9-2.08,3.8,1.94,1.89,1.94,3.79-2.61,1.9-2.61,3.8-.5,1.9-.5,3.79.14,1.9.14,3.8-1.12,1.9-1.12,3.79,1.23,1.9,1.23,3.8,0,1.9,0,3.8.9,1.89.9,3.79-2.28,1.9-2.28,3.8,3.21,1.9,3.21,3.8.08,1.89.08,3.79,1.28,1.9,1.28,3.8-1.14,1.9-1.14,3.8-3.45,1.89-3.45,3.79-1,1.9-1,3.8,4.57,1.9,4.57,3.8-3.13,1.89-3.13,3.79,1.31,1.9,1.31,3.8,2.71,1.9,2.71,3.79-1.35,1.9-1.35,3.8-1.39,1.9-1.39,3.8-.26,1.9-.26,3.8-1.84,1.9-1.84,3.8,5.1,1.9,5.1,3.8-2.16,1.9-2.16,3.8-.09,1.89-.09,3.79.86,1.9.86,3.8-3.85,1.9-3.85,3.8,4.58,1.51,4.9,3.39S227.24,1075,225.91,1076.38Z"/><path class="cls-14" d="M1933.1,1099.57c-1.54,1.54-4-1.85-6.21-1.85s-2.18.83-4.36.83-2.18.89-4.36.89-2.18-2-4.36-2-2.18-.43-4.37-.43-2.18,3.09-4.36,3.09-2.18-.64-4.36-.64-2.18.28-4.36.28-2.19-3.33-4.37-3.33-2.18-.16-4.37-.16-1.09,1.28-2.64-.26-3.19-.44-3.19-2.61,1.35-2.17,1.35-4.34-1.83-2.18-1.83-4.35-.59-2.17-.59-4.34,5.31-2.17,5.31-4.35-6.08-2.17-6.08-4.34.45-2.18.45-4.35,1.45-2.17,1.45-4.34,1.83-2.17,1.83-4.34-.66-2.17-.66-4.34,1.73-2.17,1.73-4.34-2.45-2.17-2.45-4.34,1.16-2.18,1.16-4.35-1.43-2.17-1.43-4.34,2.74-2.17,2.74-4.34-.3-2.17-.3-4.34-3.29-2.18-3.29-4.35,2.54-2.17,2.54-4.34-1.64-2.18-1.64-4.35,3.56-2.17,3.56-4.34-.32-2.17-.32-4.34.77-2.18.77-4.35-4.07-2.17-4.07-4.35,3.4-2.17,3.4-4.34-1.81-2.17-1.81-4.35,1-2.17,1-4.34-4.18-2.17-4.18-4.35,2.65-2.17,2.65-4.34.73-2.18.73-4.35-.5-2.17-.5-4.35-3-2.17-3-4.34,3.67-2.18,3.67-4.35.5-2.17.5-4.35-3.11-2.17-3.11-4.34,1-2.18,1-4.35,1.79-2.18,1.79-4.35-1.51-2.17-1.51-4.35.33-2.17.33-4.35,1-2.17,1-4.35,1.24-2.17,1.24-4.34-3-2.17-3-4.35-2.19-2.17-2.19-4.35,5.54-2.17,5.54-4.34-4-2.18-4-4.35-1.25-2.17-1.25-4.35,3.13-2.17,3.13-4.35,1.84-2.17,1.84-4.35-5-2.17-5-4.35,5.86-2.17,5.86-4.35-1.12-2.17-1.12-4.35-4.71-2.18-4.71-4.36-.83-5.1.72-6.64,4.46,4.34,6.64,4.34H1892c2.18,0,2.18-2.43,4.36-2.43s2.18,1.34,4.37,1.34,2.18-3.16,4.36-3.16,2.18,3.22,4.36,3.22,2.18-2.53,4.36-2.53,2.19-.5,4.37-.5,2.18,2.88,4.36,2.88,2.19-2.71,4.37-2.71,1,2.08,2.59,3.62,4.35.38,4.35,2.55-5.72,2.17-5.72,4.35,2.4,2.17,2.4,4.34-1.26,2.17-1.26,4.35,1.27,2.17,1.27,4.34,1.55,2.17,1.55,4.35.25,2.17.25,4.34.46,2.17.46,4.34-3.08,2.17-3.08,4.34.54,2.17.54,4.34,0,2.17,0,4.34,1.94,2.17,1.94,4.35,2,2.17,2,4.34-4.12,2.17-4.12,4.35,1.66,2.17,1.66,4.34,2.17,2.17,2.17,4.34-5.7,2.17-5.7,4.34,2.28,2.17,2.28,4.35-1.25,2.17-1.25,4.34,2.06,2.17,2.06,4.35,1.11,2.17,1.11,4.34-3,2.17-3,4.34,4.49,2.18,4.49,4.35-1,2.17-1,4.35-2.25,2.17-2.25,4.34.66,2.17.66,4.35,1.33,2.17,1.33,4.34-1.38,2.17-1.38,4.35,2.34,2.17,2.34,4.34-.83,2.18-.83,4.35.22,2.17.22,4.35,1.34,2.17,1.34,4.34-.44,2.18-.44,4.35-1.38,2.17-1.38,4.35.56,2.17.56,4.35-2.06,2.17-2.06,4.34-2.89,2.18-2.89,4.35,1.63,2.18,1.63,4.35,3.67,2.17,3.67,4.35-.32,2.17-.32,4.35-1.34,2.17-1.34,4.34-.84,2.17-.84,4.35.4,2.17.4,4.35.22,2.17.22,4.34-1.84,2.18-1.84,4.35,4.74,2.18,4.74,4.35-3.1,2.18-3.1,4.35-1.89,2.18-1.89,4.35,5.22,2.18,5.22,4.35.06,2.18.06,4.35-1.81,1.44-1,3.48C1934.81,1095.69,1934.64,1098,1933.1,1099.57Z"/><path class="cls-14" d="M569.59,1084.08c-1.53,1.51-3.49-2.59-5.64-2.59s-2.15-.31-4.31-.31-2.15.75-4.3.75S553.19,1080,551,1080s-2.15,2.16-4.3,2.16-2.16.93-4.31.93-2.15.06-4.31.06-2.15-.27-4.31-.27-2.15-3.09-4.3-3.09-2.16,2.15-4.31,2.15-2.16-.53-4.31-.53-2.16-.56-4.31-.56-4,4.58-5.51,3.07,1.43-3.32,1.43-5.43-.75-2.11-.75-4.22-1.24-2.12-1.24-4.23,4.33-2.11,4.33-4.22-4.65-2.12-4.65-4.23,3.89-2.11,3.89-4.22.43-2.11.43-4.22,1-2.12,1-4.23-.24-2.11-.24-4.22-4.92-2.11-4.92-4.23,0-2.11,0-4.22,4.29-2.12,4.29-4.23-5.31-2.11-5.31-4.22,3.05-2.11,3.05-4.23-2-2.11-2-4.23,3.76-2.11,3.76-4.22S509,1013,509,1010.9s.32-2.11.32-4.22,3.18-2.12,3.18-4.23-.1-2.11-.1-4.23-2.76-2.11-2.76-4.22,3.2-2.12,3.2-4.23.06-2.11.06-4.23-1.92-2.11-1.92-4.23.21-2.11.21-4.22-2.27-2.12-2.27-4.23,4.21-2.12,4.21-4.23,1.52-2.11,1.52-4.23.68-2.11.68-4.23-4.44-2.11-4.44-4.23,4.08-2.11,4.08-4.22.62-2.11.62-4.23-1.85-2.11-1.85-4.22-3.46-2.12-3.46-4.23,5.11-2.12,5.11-4.23-3.35-2.12-3.35-4.23-1-2.12-1-4.23,2.33-2.12,2.33-4.23-3.79-2.12-3.79-4.23,3.33-2.12,3.33-4.23,2-2.12,2-4.23-1.28-2.12-1.28-4.24-.17-2.12-.17-4.24-3.76-3.8-2.25-5.28,3.18-1,5.34-1,2.15,4.28,4.3,4.28,2.15-1,4.31-1,2.15-4.28,4.3-4.28,2.15,1.2,4.3,1.2,2.16,1.94,4.31,1.94,2.16-3,4.31-3,2.15,3.76,4.31,3.76S548.85,900,551,900s2.15-.87,4.3-.87,2.16-4.76,4.31-4.76,2.16,4,4.32,4,4.15-4.58,5.69-3.07,1.32,3.52,1.32,5.63-5.65,2.11-5.65,4.22,1.75,2.11,1.75,4.22,1.47,2.11,1.47,4.23-2.89,2.11-2.89,4.22,4.08,2.11,4.08,4.23.74,2.11.74,4.22-4.61,2.11-4.61,4.22,4.37,2.11,4.37,4.23-4.69,2.11-4.69,4.22,4.12,2.12,4.12,4.23S568,945.29,568,947.4s-1,2.11-1,4.23,2.33,2.11,2.33,4.22-3.85,2.12-3.85,4.23,5.81,2.11,5.81,4.23-.79,2.11-.79,4.22-2,2.11-2,4.23,1.82,2.11,1.82,4.22.76,2.12.76,4.23-3.06,2.11-3.06,4.23,3,2.11,3,4.23.51,2.11.51,4.22-3.64,2.12-3.64,4.23,1.14,2.11,1.14,4.23-4,2.11-4,4.23,3,2.11,3,4.22.74,2.12.74,4.23-1.15,2.12-1.15,4.23-1.56,2.12-1.56,4.23.05,2.11.05,4.22,4,2.12,4,4.23-1.64,2.11-1.64,4.23-1.2,2.11-1.2,4.23-1.67,2.11-1.67,4.22,0,2.12,0,4.23,2.55,2.12,2.55,4.24,2.88,2.11,2.88,4.23.4,2.11.4,4.23-4.89,2.11-4.89,4.23,2,2.11,2,4.23,2.35,2.12,2.35,4.23-3.76,2.38-3.08,4.39C568.8,1081.53,571.1,1082.59,569.59,1084.08Z"/><path class="cls-14" d="M1245.32,1077.76c-1.24,1.27-2.84-2.85-4.61-2.85s-1.77,2.23-3.54,2.23-1.78.51-3.55.51-1.77-3.54-3.54-3.54-1.77,4.06-3.55,4.06-1.77-1.78-3.54-1.78-1.77-1.76-3.54-1.76-1.78,1.31-3.55,1.31-1.77,2.15-3.54,2.15-1.78-2.75-3.56-2.75-2.87,3.2-4.12,1.93,1.54-2.37,1.54-4.18-.09-1.81-.09-3.62,1.68-1.81,1.68-3.63-.48-1.81-.48-3.62-4.29-1.81-4.29-3.62,4.32-1.82,4.32-3.63-1.12-1.82-1.12-3.63,1.14-1.82,1.14-3.63-1.63-1.81-1.63-3.63,1.61-1.81,1.61-3.62.56-1.81.56-3.62-5-1.82-5-3.63,2.26-1.81,2.26-3.63.95-1.81.95-3.63-.24-1.81-.24-3.62.16-1.82.16-3.63-3.27-1.82-3.27-3.63,2.61-1.81,2.61-3.62,1.12-1.82,1.12-3.63-.4-1.82-.4-3.63-1.67-1.82-1.67-3.63,2.15-1.82,2.15-3.63-1.82-1.81-1.82-3.63,1-1.81,1-3.63-1.64-1.81-1.64-3.63,1.38-1.81,1.38-3.63,1.85-1.81,1.85-3.63-4.38-1.81-4.38-3.63.5-1.81.5-3.63.81-1.81.81-3.63-.08-1.81-.08-3.63,2.63-1.81,2.63-3.63.1-1.81.1-3.63.23-1.81.23-3.63-2.22-1.81-2.22-3.63,1-1.81,1-3.63-2.57-1.82-2.57-3.63-.4-1.82-.4-3.63,3.1-1.82,3.1-3.64.22-1.81.22-3.63,0-1.81,0-3.62-2.13-1.82-2.13-3.63,1.37-1.82,1.37-3.63-.27-1.82-.27-3.64-2.7-1.81-2.7-3.63,5-1.81,5-3.63S1205,908,1205,906.17s2.77-1.82,2.77-3.64.31-1.81.31-3.63-3.76-1.82-3.76-3.63,3.19-1.82,3.19-3.64-4.92-1.82-4.92-3.63,3.54-1.82,3.54-3.64-.68-.89.59-2.19.28-4.08,2.06-4.08,1.77,2,3.54,2,1.77,1.71,3.54,1.71,1.77-1.07,3.55-1.07,1.77-1.54,3.54-1.54,1.77,3.18,3.54,3.18,1.77-.9,3.55-.9,1.77,1.32,3.54,1.32,1.77-3.44,3.55-3.44,1.77,1.53,3.55,1.53,1.75-.88,3,.39-1,1.26-1,3.07.53,1.82.53,3.63,2.68,1.81,2.68,3.62-2.51,1.81-2.51,3.62,1.34,1.82,1.34,3.63-2.39,1.81-2.39,3.63,2.8,1.81,2.8,3.63-.77,1.81-.77,3.62,2.43,1.82,2.43,3.63-4.7,1.81-4.7,3.62,1.14,1.82,1.14,3.63-.55,1.81-.55,3.62-.62,1.82-.62,3.63,2.67,1.81,2.67,3.63-.49,1.81-.49,3.63,1.1,1.81,1.1,3.63,1,1.81,1,3.62.33,1.82.33,3.63-4.51,1.81-4.51,3.63,1.47,1.81,1.47,3.63,3,1.81,3,3.63-3.26,1.81-3.26,3.62-1.66,1.82-1.66,3.63,3.64,1.82,3.64,3.63-3.55,1.82-3.55,3.63,4.91,1.82,4.91,3.63-2.49,1.82-2.49,3.63,1.13,1.81,1.13,3.63.28,1.81.28,3.63-4.09,1.82-4.09,3.63,1.09,1.81,1.09,3.63,3.68,1.82,3.68,3.63-.07,1.82-.07,3.63-4.66,1.82-4.66,3.63,2.52,1.82,2.52,3.63.23,1.82.23,3.63.17,1.82.17,3.64.24,1.81.24,3.63-1.65,1.81-1.65,3.63,1.89,1.81,1.89,3.63-.27,1.81-.27,3.63-2.85,1.81-2.85,3.63,1.94,1.81,1.94,3.63-2.43,1.81-2.43,3.63,4.37,1.82,4.37,3.63.25,1.82.25,3.63-2.35,1.82-2.35,3.64-.2,1.81-.2,3.63.24,1.82.24,3.64-.31,1.81-.31,3.63-1.43,1.82-1.43,3.63,1.7,1.82,1.7,3.64-1.64,2.43-1.07,4.16C1243.49,1076,1246.59,1076.45,1245.32,1077.76Z"/><path class="cls-14" d="M1578.27,1081.74c-1.32,1.29-1.87.63-3.71.63s-1.85-1-3.7-1-1.85-1.17-3.7-1.17-1.85.69-3.7.69-1.85,2.8-3.7,2.8-1.85-4.1-3.7-4.1-1.85.42-3.7.42-1.85,3.27-3.7,3.27-1.85-2.93-3.7-2.93-3.12,3.38-4.45,2.09a5.35,5.35,0,0,1-1.55-4.35c0-1.79-.35-1.79-.35-3.59s0-1.79,0-3.58,0-1.79,0-3.58,4.62-1.79,4.62-3.59-.07-1.79-.07-3.58-1.73-1.79-1.73-3.58,2.65-1.8,2.65-3.59-.11-1.8-.11-3.59-3.67-1.79-3.67-3.59.85-1.79.85-3.58,1-1.8,1-3.59-.78-1.79-.78-3.58.69-1.8.69-3.59-3.41-1.79-3.41-3.58,5.34-1.8,5.34-3.59-5-1.8-5-3.59-.21-1.8-.21-3.59.13-1.79.13-3.59,4-1.79,4-3.58-4.35-1.8-4.35-3.59,4.07-1.79,4.07-3.59.61-1.79.61-3.59-3-1.79-3-3.59,1.89-1.79,1.89-3.58-3.06-1.8-3.06-3.59,4-1.8,4-3.59-4.48-1.8-4.48-3.59,2.9-1.8,2.9-3.59.52-1.8.52-3.59-2.71-1.8-2.71-3.59,3-1.8,3-3.59-3.19-1.8-3.19-3.59,3.77-1.8,3.77-3.59-3.93-1.8-3.93-3.59,1.84-1.8,1.84-3.59-1.15-1.8-1.15-3.59,2.85-1.8,2.85-3.59-1.41-1.8-1.41-3.6-1.56-1.79-1.56-3.59,1.2-1.79,1.2-3.58,1.59-1.8,1.59-3.6-3.6-1.79-3.6-3.58.46-1.8.46-3.59,1.5-1.8,1.5-3.59.94-1.8.94-3.6.17-1.79.17-3.59-2.84-1.79-2.84-3.59,1.41-1.8,1.41-3.59.92-1.8.92-3.6-.85-1.79-.85-3.59-1.09-1.8-1.09-3.59,1.48-1.8,1.48-3.6-1.3-1.8-1.3-3.59-.5-1.8-.5-3.6.16-3.31,1.45-4.57S1543.1,881,1545,881s1.85.5,3.7.5,1.84-2.36,3.69-2.36,1.85,3,3.7,3,1.85-.75,3.7-.75,1.85-2.87,3.7-2.87,1.85-.13,3.7-.13,1.85,4,3.7,4,1.85.11,3.71.11,1.13-1.71,2.46-.42,4,.51,4,2.3-4.69,1.8-4.69,3.59.09,1.79.09,3.58,2.72,1.8,2.72,3.59-.22,1.79-.22,3.58,1.86,1.79,1.86,3.58-2.56,1.8-2.56,3.59.84,1.79.84,3.58-3.53,1.8-3.53,3.59,4,1.8,4,3.59.51,1.79.51,3.59-.28,1.79-.28,3.58.92,1.79.92,3.59-.44,1.79-.44,3.58-4,1.8-4,3.59,1.54,1.79,1.54,3.59.21,1.79.21,3.59-1.86,1.79-1.86,3.58,3.28,1.8,3.28,3.59,1,1.79,1,3.59S1579,954.23,1579,956s-2.22,1.8-2.22,3.59,3.77,1.8,3.77,3.59-4.22,1.8-4.22,3.59-.16,1.79-.16,3.59,2.1,1.79,2.1,3.59-1.94,1.79-1.94,3.59-.71,1.79-.71,3.59,0,1.79,0,3.59,4.41,1.79,4.41,3.58-1.19,1.8-1.19,3.6-1.43,1.79-1.43,3.58-1.42,1.8-1.42,3.59,0,1.8,0,3.6,2.08,1.79,2.08,3.59-1.8,1.79-1.8,3.59,1,1.79,1,3.59,3.17,1.79,3.17,3.59-4.44,1.79-4.44,3.59,2.15,1.8,2.15,3.59-.78,1.79-.78,3.59,1.06,1.79,1.06,3.59.23,1.79.23,3.59.93,1.79.93,3.59-1.36,1.79-1.36,3.59.86,1.79.86,3.59.27,1.8.27,3.59-2.76,1.8-2.76,3.59,4.33,1.8,4.33,3.6-4.64,1.79-4.64,3.59,1.25,1.8,1.25,3.6,1.6,1.79,1.6,3.59,1.71,1.8,1.71,3.59-1.63,1.8-1.63,3.6-2.5,2.08-2.11,3.84S1579.56,1080.48,1578.27,1081.74Z"/><path class="cls-14" d="M910.76,1079.17c-1.36,1.41-3.46-.51-5.42-.51s-2-1.29-3.92-1.29-1.95-1.31-3.91-1.31-2,3.81-3.91,3.81-2-4.76-3.92-4.76-2,3-3.92,3-2,1.3-3.91,1.3-2-1.9-3.92-1.9-2-1.8-3.91-1.8-2-.36-3.92-.36-2,1.76-3.93,1.76-3.71,3.1-5.08,1.69,2.1-3.14,2.1-5.16.3-2,.3-4-4.17-2-4.17-4,3.36-2,3.36-4,1.72-2,1.72-4-4.21-2-4.21-4,2.1-2,2.1-4,3-2,3-4-5.62-2-5.62-4,.24-2,.24-4,5.15-2,5.15-4-2.53-2-2.53-4,.2-2,.2-4-2.17-2-2.17-4-.35-2-.35-4,0-2,0-4,3.89-2,3.89-4-.24-2-.24-4-3.49-2-3.49-4,2.66-2,2.66-4,1.56-2,1.56-4-3.25-2-3.25-4-2-2-2-4,4.24-2,4.24-4-3.13-2-3.13-4.05.24-2,.24-4,0-2,0-4,4.48-2,4.48-4.05-4.19-2-4.19-4,.51-2,.51-4-.43-2-.43-4,3.17-2,3.17-4-2.19-2-2.19-4,2.43-2,2.43-4-.78-2-.78-4-1-2-1-4-.16-2-.16-4-1.14-2-1.14-4-.81-2-.81-4,1.77-2,1.77-4-1.66-2-1.66-4,4.14-2,4.14-4,.48-2,.48-4-5.53-2-5.53-4-.47-2-.47-4,1.11-2,1.11-4,4-2,4-4,0-2,0-4-3-2-3-4.05-.37-2.38,1-3.84,1.74-3.26,3.69-3.26,2,3.38,3.92,3.38,1.95-2.48,3.91-2.48,2,.09,3.92.09,2,5.14,3.91,5.14,2-.66,3.92-.66,2-2.85,3.92-2.85,2-2.39,3.91-2.39,2,4.36,3.92,4.36,2-.58,3.91-.58,2,.06,3.93.06,3.83-3.67,5.2-2.26-3.18,3.26-3.18,5.28.3,2,.3,4,4.17,2,4.17,4-.75,2-.75,4-2.13,2-2.13,4,.82,2,.82,4-.69,2-.69,4,1.59,2,1.59,4-1.69,2-1.69,4,.45,2,.45,4-.7,2-.7,4,.83,2,.83,4,.3,2,.3,4,.22,2,.22,4,.82,2,.82,4-.8,2-.8,4-2.69,2-2.69,4,.86,2,.86,4,.46,2,.46,4-2.22,2-2.22,4,4.73,2,4.73,4-3.07,2-3.07,4,2,2,2,4-1.46,2-1.46,4-2.51,2-2.51,4,5.72,2,5.72,4-3.07,2-3.07,4,.65,2,.65,4,0,2,0,4,2,2,2,4-2.11,2-2.11,4-3.19,2-3.19,4,3.78,2,3.78,4,1.19,2,1.19,4-1.48,2-1.48,4,.67,2,.67,4-1.9,2-1.9,4,2.24,2,2.24,4-2.47,2-2.47,4,2.24,2,2.24,4-1.06,2-1.06,4,.12,2,.12,4-.95,2-.95,4.05-2.37,2-2.37,4,3.66,2,3.66,4-2.71,2-2.71,4,4.87,2,4.87,4-3.67,2-3.67,4a8.73,8.73,0,0,0,.71,4.16C910,1076.61,912.17,1077.72,910.76,1079.17Z"/><path class="cls-15" d="M1952.56,939.73c-11.93,13.3-12.49,4.47-30.35,4.47s-17.87,7.12-35.74,7.12-17.86-7.13-35.73-7.13-17.87,5.68-35.74,5.68-17.86-6.75-35.73-6.75-17.87,7.93-35.73,7.93-17.87-15.36-35.74-15.36-17.87,4.26-35.73,4.26-17.87,2.81-35.74,2.81-17.87-6.25-35.73-6.25-17.87,15.1-35.74,15.1-17.87-6.74-35.73-6.74-17.87,3.5-35.74,3.5-17.87-5.45-35.73-5.45-17.87-3.32-35.74-3.32-17.87-2.84-35.73-2.84-17.87.33-35.74.33-17.87,11.75-35.73,11.75-17.87-4-35.74-4-17.87.76-35.74.76-17.87-9.53-35.73-9.53-17.87,15.4-35.74,15.4S1153.9,942,1136,942s-17.87-7.51-35.74-7.51-17.87,9.11-35.74,9.11-17.87-3.15-35.74-3.15-17.86,13.28-35.73,13.28-17.87-16.49-35.74-16.49S939.48,948,921.61,948s-17.87,1.62-35.73,1.62-17.87,1.24-35.74,1.24-17.87-.36-35.73-.36-17.87,3.19-35.74,3.19-17.86-4.43-35.73-4.43-17.87,1.33-35.74,1.33-17.86-4.91-35.73-4.91-17.87-13.1-35.74-13.1S617.87,950,600,950s-17.87,1.23-35.74,1.23-17.87-3-35.74-3-17.87-2.83-35.73-2.83-17.87-9.31-35.74-9.31-17.87,17-35.74,17-17.87-2.1-35.74-2.1-17.87-6.39-35.74-6.39-17.87,7.66-35.74,7.66-17.87-9-35.74-9-17.87.71-35.73.71-17.87-9.67-35.74-9.67-17.87,3-35.74,3-17.87,12.45-35.74,12.45-17.87-2.12-35.75-2.12-17.87,3.73-35.74,3.73S46,940.83,28.16,940.83,2.3,959.71-9.64,946.41c-13.3-14.81-1.83-21.75-1.83-41.66s-8.36-24,4.93-38.86c11.94-13.3,16.83-12.35,34.69-12.35S46,873.41,63.89,873.41s17.86,1,35.73,1,17.87-6.53,35.73-6.53,17.87,8.34,35.74,8.34S189,858,206.82,858s17.87,16.45,35.74,16.45,17.86-3.25,35.73-3.25,17.87-13.7,35.74-13.7,17.86,9.79,35.73,9.79,17.87,5.86,35.74,5.86,17.86-17.7,35.73-17.7S439.1,872.55,457,872.55s17.86-10,35.73-10,17.87-8.88,35.74-8.88,17.87,6.05,35.73,6.05,17.87-6.06,35.74-6.06,17.87.53,35.73.53,17.87,8.68,35.74,8.68,17.87-5.53,35.74-5.53,17.86-2.94,35.73-2.94,17.87,1.07,35.74,1.07,17.87,5.84,35.73,5.84,17.87,6.05,35.74,6.05,17.87-2.72,35.74-2.72,17.87-8.54,35.73-8.54,17.87,19.3,35.74,19.3S975.14,854.3,993,854.3s17.87,6,35.74,6,17.86,6.43,35.73,6.43,17.87-9.24,35.74-9.24,17.87,12.3,35.73,12.3,17.87,1.38,35.73,1.38,17.87-15,35.74-15,17.87,15,35.74,15S1261,867,1278.89,867s17.87-5.1,35.74-5.1,17.86,10.35,35.73,10.35,17.87-9.37,35.74-9.37,17.87-5.05,35.74-5.05,17.86-.38,35.73-.38,17.87-2.34,35.74-2.34,17.87,21.77,35.74,21.77,17.87-9.72,35.74-9.72,17.87,1,35.74,1,17.87-1,35.74-1,17.87-11.89,35.74-11.89,17.87,18.64,35.73,18.64,17.87-20,35.74-20,17.87,10.47,35.74,10.47,17.87-8.19,35.74-8.19,17.87,10.38,35.75,10.38,17.87-8.11,35.74-8.11,17.87,17.33,35.74,17.33,31.16-30.82,43.11-17.52c13.29,14.81-10.38,26.74-7.78,46.47C1960,923.22,1965.86,924.92,1952.56,939.73Z"/></g><g id="PFUETZE"><path class="cls-16" d="M566.2,647.25c0,1.83,2.58,2.52-.43,4.06-1.81.93-4.85-1.64-7.54-.86-2.12.61-4.11.89-6.69,1.38-2.25.42-3.26,9.33-5.79,9.66-2.31.29-5.49-6.8-8-6.6-2.35.19-4.57,1.75-7.06,1.85s-4.72-3.3-7.19-3.3-4.8,3-7.17,2.91-5.46,7.95-7.81,7.77c-2.51-.2-3.87-10.85-6.18-11.15-2.53-.32-4.71-.31-7-.74-2.58-.49-5.15,1.12-7.27.51-2.69-.77-6.64,2.56-8.45,1.63-3-1.54-9.42-5.29-9.42-7.12s9.18-.18,12.19-1.73c1.81-.92,2.32-5.32,5-6.09,2.12-.61,4.78.24,7.36-.25,2.24-.43,3.75-7.21,6.28-7.53,2.31-.3,5.37,4.51,7.88,4.31,2.35-.18,4.83,1.22,7.32,1.13s4.75-6.76,7.22-6.76,4.89,5.51,7.26,5.6,5.35-5.44,7.7-5.26,4.37,6.77,6.68,7.07c2.54.32,5.94-4.89,8.19-4.46,2.58.49,3.44,7.87,5.56,8.48,2.69.78,5.81-.94,7.62,0C569.52,643.29,566.2,645.42,566.2,647.25Z"/></g><g id="goodcow-2" data-name="goodcow"><ellipse class="cls-8" cx="475.17" cy="647.35" rx="2.12" ry="0.77" transform="translate(-126.51 115.53) rotate(-12.25)"/><ellipse class="cls-8" cx="487.13" cy="647.52" rx="0.76" ry="1.75" transform="translate(-299.78 840.81) rotate(-66.85)"/><path class="cls-9" d="M465.69,672.8a.33.33,0,0,0,.32.32.32.32,0,0,0,.32-.32v-2.56a.32.32,0,0,0-.32-.32.32.32,0,0,0-.32.32Z"/><path class="cls-9" d="M466.42,672.5a.32.32,0,1,0,.64,0v-2.56a.32.32,0,0,0-.64,0Z"/><path class="cls-9" d="M467.24,672.61a.42.42,0,0,0,.83,0v-2.38a.42.42,0,0,0-.83,0Z"/><ellipse class="cls-9" cx="466.58" cy="670.29" rx="1.8" ry="1.94"/><path class="cls-6" d="M475.52,674.29a1.07,1.07,0,1,0,2.13,0V669a1.07,1.07,0,1,0-2.13,0Z"/><path class="cls-8" d="M475.28,674.77a.65.65,0,0,0,.66.66h.72a.66.66,0,1,0,0-1.32h-.72a.66.66,0,0,0-.66.66Z"/><path class="cls-6" d="M476.21,676a1.34,1.34,0,0,0,2.67,0v-8.11a1.34,1.34,0,0,0-2.67,0Z"/><path class="cls-8" d="M476,676.75a.92.92,0,0,0,.92.92h1.23a.92.92,0,1,0,0-1.83h-1.23a.92.92,0,0,0-.92.91Z"/><path class="cls-6" d="M462.08,674.47a.88.88,0,1,0,1.76,0V670a.88.88,0,1,0-1.76,0Z"/><path class="cls-8" d="M462,674.89a.54.54,0,0,0,.54.53h.54a.53.53,0,1,0,0-1.06h-.54a.54.54,0,0,0-.54.53Z"/><path class="cls-6" d="M463.08,677a1.2,1.2,0,1,0,2.4,0V670.3a1.2,1.2,0,0,0-2.4,0Z"/><ellipse class="cls-6" cx="452.79" cy="662.04" rx="6.83" ry="1.11" transform="translate(-348.57 695.85) rotate(-58.05)"/><ellipse class="cls-6" cx="467.61" cy="661.69" rx="14.54" ry="9.26"/><path class="cls-6" d="M476.46,651.33a4.87,4.87,0,1,0,9.74,0v-4.28a4.87,4.87,0,0,0-9.74,0Z"/><path class="cls-10" d="M474.36,655.49a4.13,4.13,0,0,0,4.13,4.13h5.41a4.13,4.13,0,0,0,0-8.26h-5.41a4.13,4.13,0,0,0-4.13,4.13Z"/><ellipse class="cls-6" cx="479.58" cy="654.44" rx="0.63" ry="1.69"/><ellipse class="cls-6" cx="482.47" cy="654.19" rx="0.82" ry="1.9"/><path class="cls-8" d="M462.74,678a.92.92,0,0,0,.92.92h1.23a.92.92,0,0,0,0-1.84h-1.23a.92.92,0,0,0-.92.92Z"/><ellipse cx="483.15" cy="646.53" rx="0.87" ry="0.94"/><ellipse cx="479.94" cy="646.55" rx="0.75" ry="0.81"/><ellipse class="cls-6" cx="449.45" cy="667.39" rx="1.74" ry="1.19" transform="translate(-350.17 577.88) rotate(-49.66)"/><ellipse class="cls-11" cx="479.09" cy="658.04" rx="0.68" ry="0.41" transform="translate(-333.45 706.24) rotate(-57.34)"/><path class="cls-17" d="M478.59,656.87a3.18,3.18,0,0,0,1.6,1,4.7,4.7,0,0,0,3.74-.73"/><ellipse class="cls-13" cx="460.52" cy="661.18" rx="1.73" ry="3.06" transform="translate(-326.57 488.77) rotate(-42.79)"/><ellipse class="cls-13" cx="468.88" cy="655.39" rx="2.99" ry="1.73" transform="translate(-307.79 440.54) rotate(-38.96)"/><ellipse class="cls-13" cx="471.2" cy="664.54" rx="3.43" ry="1.4" transform="translate(-71.17 56.7) rotate(-6.4)"/></g><g id="goodcow-3" data-name="goodcow"><ellipse class="cls-8" cx="550.86" cy="659.36" rx="0.75" ry="1.89" transform="translate(-221.36 1036.03) rotate(-76.13)"/><ellipse class="cls-8" cx="540.26" cy="659.52" rx="1.58" ry="0.73" transform="translate(-236.4 307.88) rotate(-26.32)"/><path class="cls-9" d="M558.7,684.25a.29.29,0,0,0,.57,0v-2.56a.29.29,0,0,0-.57,0Z"/><path class="cls-9" d="M558.05,684a.29.29,0,0,0,.58,0V681.4a.29.29,0,0,0-.58,0Z"/><path class="cls-9" d="M557.16,684.07a.37.37,0,1,0,.74,0v-2.39a.37.37,0,1,0-.74,0Z"/><ellipse class="cls-9" cx="558.48" cy="681.77" rx="1.6" ry="1.9"/><path class="cls-6" d="M548.65,685.78a1,1,0,0,0,1.92,0v-5.36a1,1,0,1,0-1.92,0Z"/><path class="cls-8" d="M548.92,686.15a.64.64,0,0,0,.64.63h.61a.63.63,0,0,0,0-1.26h-.61a.64.64,0,0,0-.64.63Z"/><path class="cls-6" d="M547.55,687.47a1.21,1.21,0,0,0,2.41,0v-8.18a1.21,1.21,0,0,0-2.41,0Z"/><path class="cls-8" d="M547.37,688.09a.88.88,0,0,0,.88.88h1a.89.89,0,1,0,0-1.77h-1a.88.88,0,0,0-.88.89Z"/><path class="cls-6" d="M560.89,686a.8.8,0,0,0,1.6,0v-4.56a.8.8,0,0,0-1.6,0Z"/><path class="cls-8" d="M561.11,686.26a.51.51,0,0,0,.51.51h.47a.51.51,0,0,0,.51-.51.5.5,0,0,0-.51-.5h-.47a.5.5,0,0,0-.51.5Z"/><path class="cls-6" d="M559.44,688.39a1.08,1.08,0,0,0,2.16,0v-6.73a1.08,1.08,0,0,0-2.16,0Z"/><ellipse class="cls-6" cx="570.72" cy="673.71" rx="1.01" ry="6.51" transform="translate(-257.23 366.94) rotate(-29.4)"/><ellipse class="cls-6" cx="557.57" cy="673.37" rx="12.9" ry="9.04"/><path class="cls-6" d="M541.22,663.93a4.18,4.18,0,0,0,8.36,0v-5.55a4.18,4.18,0,0,0-8.36,0Z"/><path class="cls-10" d="M539.59,667.31a4.14,4.14,0,0,0,4.14,4.14h3.57a4.14,4.14,0,1,0,0-8.28h-3.57a4.14,4.14,0,0,0-4.14,4.14Z"/><ellipse class="cls-6" cx="546.95" cy="666.29" rx="0.56" ry="1.65"/><ellipse class="cls-6" cx="544.39" cy="666.04" rx="0.73" ry="1.85"/><path class="cls-8" d="M559.14,689.31a.88.88,0,0,0,.88.88h1a.88.88,0,1,0,0-1.76h-1a.88.88,0,0,0-.88.88Z"/><ellipse cx="543.78" cy="658.55" rx="0.77" ry="0.91"/><ellipse cx="546.63" cy="658.58" rx="0.67" ry="0.79"/><ellipse class="cls-6" cx="573.68" cy="678.93" rx="1.1" ry="1.65" transform="translate(-278.26 425.43) rotate(-33.23)"/><ellipse class="cls-11" cx="547.39" cy="669.8" rx="0.37" ry="0.65" transform="translate(-249.07 332.28) rotate(-27.78)"/><path class="cls-18" d="M547.83,668.66a2.8,2.8,0,0,1-1.42.92,3.79,3.79,0,0,1-3.31-.71"/><ellipse class="cls-13" cx="563.86" cy="672.87" rx="2.87" ry="1.6" transform="translate(-313.25 709.88) rotate(-52.45)"/><ellipse class="cls-13" cx="556.45" cy="667.21" rx="1.62" ry="2.77" transform="translate(-309.43 596.12) rotate(-45.48)"/><ellipse class="cls-13" cx="554.38" cy="676.16" rx="1.36" ry="3.04" transform="translate(-187.17 1139.43) rotate(-82.65)"/></g><g id="goodcow-4" data-name="goodcow"><ellipse class="cls-8" cx="519.02" cy="666.78" rx="1.57" ry="0.64" transform="translate(-149.49 149.99) rotate(-14.4)"/><ellipse class="cls-8" cx="527.82" cy="666.92" rx="0.62" ry="1.32" transform="translate(-306.95 829.81) rotate(-62.68)"/><path class="cls-9" d="M512,688a.24.24,0,0,0,.48,0v-2.19a.24.24,0,0,0-.48,0Z"/><path class="cls-9" d="M512.57,687.79a.24.24,0,0,0,.48,0v-2.2a.24.24,0,0,0-.48,0Z"/><path class="cls-9" d="M513.17,687.88a.31.31,0,0,0,.31.31.3.3,0,0,0,.3-.31v-2a.3.3,0,0,0-.3-.31.31.31,0,0,0-.31.31Z"/><ellipse class="cls-9" cx="512.69" cy="685.91" rx="1.33" ry="1.62"/><path class="cls-6" d="M519.26,689.37a.8.8,0,0,0,1.6,0v-4.63a.8.8,0,1,0-1.6,0Z"/><path class="cls-8" d="M519.06,689.65a.54.54,0,0,0,.54.54h.5a.54.54,0,0,0,0-1.07h-.5a.54.54,0,0,0-.54.53Z"/><path class="cls-6" d="M519.76,690.81a1,1,0,0,0,2,0v-7a1,1,0,0,0-2,0Z"/><path class="cls-8" d="M519.6,691.31a.76.76,0,0,0,.76.75h.81a.76.76,0,1,0,0-1.51h-.81a.76.76,0,0,0-.76.76Z"/><path class="cls-6" d="M509.35,689.5a.67.67,0,1,0,1.34,0v-3.93a.67.67,0,1,0-1.34,0Z"/><path class="cls-8" d="M509.26,689.75a.43.43,0,0,0,.43.43h.39a.43.43,0,0,0,0-.86h-.39a.43.43,0,0,0-.43.43Z"/><path class="cls-6" d="M510.09,691.59a.91.91,0,1,0,1.81,0v-5.8a.91.91,0,0,0-1.81,0Z"/><ellipse class="cls-6" cx="502.53" cy="679.03" rx="5.52" ry="0.84" transform="translate(-334.39 793.87) rotate(-61.31)"/><ellipse class="cls-6" cx="513.44" cy="678.74" rx="10.71" ry="7.72"/><path class="cls-6" d="M520.11,670.83a3.44,3.44,0,0,0,6.88,0v-5.05a3.44,3.44,0,0,0-6.88,0Z"/><path class="cls-10" d="M518.57,673.57a3.57,3.57,0,0,0,3.56,3.56h2.65a3.57,3.57,0,0,0,0-7.13h-2.65a3.57,3.57,0,0,0-3.56,3.57Z"/><ellipse class="cls-6" cx="522.27" cy="672.69" rx="0.46" ry="1.41"/><ellipse class="cls-6" cx="524.39" cy="672.48" rx="0.6" ry="1.58"/><path class="cls-8" d="M509.83,692.35a.74.74,0,0,0,.75.75h.82a.75.75,0,0,0,0-1.5h-.82a.75.75,0,0,0-.75.75Z"/><ellipse cx="524.89" cy="666.09" rx="0.64" ry="0.78"/><ellipse cx="522.53" cy="666.11" rx="0.55" ry="0.68"/><ellipse class="cls-6" cx="500.07" cy="683.49" rx="1.39" ry="0.92" transform="translate(-343.85 754.41) rotate(-58.61)"/><ellipse class="cls-11" cx="521.9" cy="675.69" rx="0.55" ry="0.31" transform="translate(-315.74 840.92) rotate(-63.48)"/><path class="cls-19" d="M521.54,674.72a2.3,2.3,0,0,0,1.18.79,3.12,3.12,0,0,0,2.75-.61"/><ellipse class="cls-13" cx="508.22" cy="678.31" rx="1.34" ry="2.42" transform="translate(-302.08 429.7) rotate(-36.1)"/><ellipse class="cls-13" cx="514.38" cy="673.48" rx="2.33" ry="1.36" transform="translate(-327.65 577.82) rotate(-46.15)"/><ellipse class="cls-13" cx="516.09" cy="681.12" rx="2.53" ry="1.16" transform="translate(-86.26 74.95) rotate(-7.67)"/></g><g id="goodcow-5" data-name="goodcow"><ellipse class="cls-8" cx="560.6" cy="601.21" rx="0.51" ry="1.28" transform="translate(-157.5 1001.28) rotate(-76.13)"/><ellipse class="cls-8" cx="553.4" cy="601.32" rx="1.07" ry="0.5" transform="translate(-209.23 307.67) rotate(-26.32)"/><path class="cls-9" d="M565.92,618.1a.19.19,0,0,0,.38,0v-1.74a.19.19,0,0,0-.38,0Z"/><path class="cls-9" d="M565.48,617.9a.18.18,0,0,0,.19.19.19.19,0,0,0,.2-.19v-1.73a.2.2,0,0,0-.2-.2.19.19,0,0,0-.19.2Z"/><path class="cls-9" d="M564.87,618a.25.25,0,0,0,.5,0v-1.63a.25.25,0,0,0-.5,0Z"/><ellipse class="cls-9" cx="565.77" cy="616.41" rx="1.08" ry="1.29"/><path class="cls-6" d="M559.09,619.14a.66.66,0,0,0,.66.65.65.65,0,0,0,.65-.65V615.5a.65.65,0,0,0-.65-.65.66.66,0,0,0-.66.65Z"/><path class="cls-8" d="M559.28,619.39a.44.44,0,0,0,.43.43h.42a.44.44,0,0,0,.43-.43.43.43,0,0,0-.43-.43h-.42a.43.43,0,0,0-.43.43Z"/><path class="cls-6" d="M558.35,620.28a.82.82,0,0,0,.82.82.82.82,0,0,0,.81-.82v-5.55a.81.81,0,0,0-.81-.81.82.82,0,0,0-.82.81Z"/><path class="cls-8" d="M558.23,620.7a.6.6,0,0,0,.6.6h.68a.6.6,0,0,0,0-1.2h-.68a.6.6,0,0,0-.6.6Z"/><path class="cls-6" d="M567.4,619.25a.55.55,0,0,0,.55.54.54.54,0,0,0,.54-.54v-3.09a.55.55,0,0,0-.54-.55.55.55,0,0,0-.55.55Z"/><path class="cls-8" d="M567.55,619.47a.35.35,0,0,0,.35.34h.32a.35.35,0,0,0,0-.69h-.32a.35.35,0,0,0-.35.35Z"/><path class="cls-6" d="M566.42,620.91a.74.74,0,0,0,1.47,0v-4.57a.74.74,0,0,0-1.47,0Z"/><ellipse class="cls-6" cx="574.07" cy="610.95" rx="0.68" ry="4.42" transform="translate(-225.99 360.5) rotate(-29.4)"/><ellipse class="cls-6" cx="565.15" cy="610.72" rx="8.75" ry="6.14"/><path class="cls-6" d="M554.05,604.31a2.84,2.84,0,1,0,5.68,0v-3.77a2.84,2.84,0,0,0-5.68,0Z"/><path class="cls-10" d="M553,606.6a2.81,2.81,0,0,0,2.81,2.81h2.42a2.81,2.81,0,1,0,0-5.61h-2.42a2.8,2.8,0,0,0-2.81,2.8Z"/><ellipse class="cls-6" cx="557.94" cy="605.91" rx="0.38" ry="1.12"/><ellipse class="cls-6" cx="556.21" cy="605.74" rx="0.49" ry="1.26"/><path class="cls-8" d="M566.21,621.53a.6.6,0,0,0,.6.6h.69a.6.6,0,0,0,0-1.2h-.69a.6.6,0,0,0-.6.6Z"/><ellipse cx="555.79" cy="600.66" rx="0.52" ry="0.62"/><ellipse cx="557.73" cy="600.68" rx="0.45" ry="0.54"/><ellipse class="cls-6" cx="576.08" cy="614.49" rx="0.74" ry="1.12" transform="translate(-242.55 416.2) rotate(-33.23)"/><ellipse class="cls-11" cx="558.24" cy="608.29" rx="0.25" ry="0.44" transform="translate(-219.16 330.25) rotate(-27.78)"/><path class="cls-20" d="M558.54,607.52a1.88,1.88,0,0,1-1,.63,2.62,2.62,0,0,1-2.25-.49"/><ellipse class="cls-13" cx="569.42" cy="610.37" rx="1.95" ry="1.08" transform="translate(-261.53 689.88) rotate(-52.45)"/><ellipse class="cls-13" cx="564.39" cy="606.53" rx="1.1" ry="1.88" transform="translate(-263.8 583.65) rotate(-45.48)"/><ellipse class="cls-13" cx="562.99" cy="612.61" rx="0.92" ry="2.07" transform="translate(-116.64 1092.55) rotate(-82.65)"/></g><g id="goodcow-6" data-name="goodcow"><ellipse class="cls-8" cx="603.34" cy="648.15" rx="0.63" ry="1.59" transform="translate(-170.58 1078.46) rotate(-76.13)"/><ellipse class="cls-8" cx="594.39" cy="648.29" rx="1.33" ry="0.62" transform="translate(-225.81 330.71) rotate(-26.32)"/><path class="cls-9" d="M610,669.15a.24.24,0,0,0,.48,0V667a.24.24,0,1,0-.48,0Z"/><path class="cls-9" d="M609.4,668.9a.24.24,0,0,0,.24.24.24.24,0,0,0,.25-.24v-2.15a.24.24,0,0,0-.25-.24.24.24,0,0,0-.24.24Z"/><path class="cls-9" d="M608.65,669a.31.31,0,0,0,.62,0v-2a.31.31,0,0,0-.62,0Z"/><ellipse class="cls-9" cx="609.76" cy="667.05" rx="1.35" ry="1.6"/><path class="cls-6" d="M601.47,670.44a.81.81,0,1,0,1.62,0v-4.52a.81.81,0,1,0-1.62,0Z"/><path class="cls-8" d="M601.7,670.75a.53.53,0,0,0,.54.53h.51a.52.52,0,0,0,.53-.53.53.53,0,0,0-.53-.53h-.51a.54.54,0,0,0-.54.53Z"/><path class="cls-6" d="M600.55,671.86a1,1,0,1,0,2,0V665a1,1,0,0,0-2,0Z"/><path class="cls-8" d="M600.39,672.39a.74.74,0,0,0,.75.74H602a.75.75,0,0,0,0-1.49h-.85a.74.74,0,0,0-.75.75Z"/><path class="cls-6" d="M611.8,670.58a.68.68,0,0,0,1.35,0v-3.85a.68.68,0,0,0-1.35,0Z"/><path class="cls-8" d="M612,670.85a.42.42,0,0,0,.42.42h.4a.43.43,0,1,0,0-.85h-.4a.42.42,0,0,0-.42.43Z"/><path class="cls-6" d="M610.57,672.64a.92.92,0,0,0,1.83,0V667a.92.92,0,0,0-1.83,0Z"/><ellipse class="cls-6" cx="620.09" cy="660.26" rx="0.85" ry="5.49" transform="translate(-244.27 389.44) rotate(-29.4)"/><ellipse class="cls-6" cx="609" cy="659.97" rx="10.88" ry="7.63"/><path class="cls-6" d="M595.2,652a3.53,3.53,0,0,0,7.06,0v-4.67a3.53,3.53,0,1,0-7.06,0Z"/><path class="cls-10" d="M593.83,654.86a3.49,3.49,0,0,0,3.49,3.49h3a3.49,3.49,0,0,0,0-7h-3a3.49,3.49,0,0,0-3.49,3.49Z"/><ellipse class="cls-6" cx="600.03" cy="654" rx="0.47" ry="1.39"/><ellipse class="cls-6" cx="597.88" cy="653.78" rx="0.61" ry="1.56"/><path class="cls-8" d="M610.32,673.42a.74.74,0,0,0,.75.74h.85a.74.74,0,0,0,.74-.74.75.75,0,0,0-.74-.75h-.85a.75.75,0,0,0-.75.75Z"/><ellipse cx="597.37" cy="647.47" rx="0.65" ry="0.77"/><ellipse cx="599.77" cy="647.49" rx="0.56" ry="0.67"/><ellipse class="cls-6" cx="622.58" cy="664.66" rx="0.92" ry="1.39" transform="translate(-262.44 449.89) rotate(-33.23)"/><ellipse class="cls-11" cx="600.41" cy="656.96" rx="0.31" ry="0.55" transform="translate(-236.98 355.51) rotate(-27.78)"/><path class="cls-21" d="M600.78,656a2.39,2.39,0,0,1-1.2.78,3.24,3.24,0,0,1-2.79-.6"/><ellipse class="cls-13" cx="614.3" cy="659.55" rx="2.42" ry="1.35" transform="translate(-282.98 744.68) rotate(-52.45)"/><ellipse class="cls-13" cx="608.05" cy="654.77" rx="1.37" ry="2.34" transform="translate(-285.15 629.19) rotate(-45.48)"/><ellipse class="cls-13" cx="606.3" cy="662.32" rx="1.15" ry="2.57" transform="translate(-128.17 1178.86) rotate(-82.65)"/></g><g id="goodcow-7" data-name="goodcow"><ellipse class="cls-8" cx="582.45" cy="614.82" rx="0.79" ry="2" transform="translate(-154.1 1032.83) rotate(-76.13)"/><ellipse class="cls-8" cx="571.2" cy="614.99" rx="1.67" ry="0.77" transform="translate(-213.45 316.98) rotate(-26.32)"/><path class="cls-9" d="M590.76,641.2a.3.3,0,0,0,.6,0v-2.71a.3.3,0,1,0-.6,0Z"/><path class="cls-9" d="M590.07,640.89a.31.31,0,1,0,.61,0v-2.7a.31.31,0,1,0-.61,0Z"/><path class="cls-9" d="M589.13,641a.38.38,0,0,0,.39.39.39.39,0,0,0,.39-.39v-2.53a.39.39,0,0,0-.39-.39.38.38,0,0,0-.39.39Z"/><ellipse class="cls-9" cx="590.52" cy="638.57" rx="1.69" ry="2.01"/><path class="cls-6" d="M580.1,642.83a1,1,0,0,0,2,0v-5.68a1,1,0,0,0-2,0Z"/><path class="cls-8" d="M580.39,643.22a.67.67,0,0,0,.67.67h.65a.67.67,0,1,0,0-1.34h-.65a.67.67,0,0,0-.67.67Z"/><path class="cls-6" d="M578.94,644.62a1.28,1.28,0,0,0,2.55,0v-8.68a1.28,1.28,0,0,0-2.55,0Z"/><path class="cls-8" d="M578.74,645.27a.94.94,0,0,0,.94.94h1.07a.94.94,0,1,0,0-1.87h-1.07a.93.93,0,0,0-.94.93Z"/><path class="cls-6" d="M593.08,643a.85.85,0,1,0,1.7,0v-4.83a.85.85,0,1,0-1.7,0Z"/><path class="cls-8" d="M593.32,643.34a.54.54,0,0,0,.53.54h.5a.54.54,0,0,0,.54-.54.53.53,0,0,0-.54-.53h-.5a.53.53,0,0,0-.53.53Z"/><path class="cls-6" d="M591.54,645.59a1.15,1.15,0,1,0,2.29,0v-7.13a1.15,1.15,0,1,0-2.29,0Z"/><ellipse class="cls-6" cx="603.5" cy="630.03" rx="1.07" ry="6.9" transform="translate(-231.57 377.41) rotate(-29.4)"/><ellipse class="cls-6" cx="589.56" cy="629.67" rx="13.67" ry="9.59"/><path class="cls-6" d="M572.22,619.66a4.44,4.44,0,0,0,8.87,0v-5.88a4.44,4.44,0,1,0-8.87,0Z"/><path class="cls-10" d="M570.5,623.25a4.4,4.4,0,0,0,4.39,4.39h3.78a4.39,4.39,0,1,0,0-8.78h-3.78a4.39,4.39,0,0,0-4.39,4.39Z"/><ellipse class="cls-6" cx="578.3" cy="622.16" rx="0.59" ry="1.75"/><ellipse class="cls-6" cx="575.58" cy="621.89" rx="0.77" ry="1.96"/><path class="cls-8" d="M591.22,646.57a.94.94,0,0,0,.94.94h1.07a.94.94,0,1,0,0-1.88h-1.07a.94.94,0,0,0-.94.94Z"/><ellipse cx="574.94" cy="613.96" rx="0.81" ry="0.97"/><ellipse cx="577.96" cy="613.99" rx="0.71" ry="0.84"/><ellipse class="cls-6" cx="606.64" cy="635.57" rx="1.16" ry="1.75" transform="translate(-249.1 436.4) rotate(-33.23)"/><ellipse class="cls-11" cx="578.77" cy="625.89" rx="0.39" ry="0.69" transform="translate(-224.99 341.85) rotate(-27.78)"/><path class="cls-22" d="M579.23,624.67a2.92,2.92,0,0,1-1.51,1,4.08,4.08,0,0,1-3.51-.76"/><ellipse class="cls-13" cx="596.22" cy="629.14" rx="3.04" ry="1.69" transform="translate(-265.93 718.47) rotate(-52.45)"/><ellipse class="cls-13" cx="588.37" cy="623.14" rx="1.72" ry="2.94" transform="translate(-268.47 605.71) rotate(-45.48)"/><ellipse class="cls-13" cx="586.18" cy="632.62" rx="1.44" ry="3.23" transform="translate(-116.27 1133) rotate(-82.65)"/></g><g id="goodcow-8" data-name="goodcow"><ellipse class="cls-8" cx="471.71" cy="612.1" rx="1.99" ry="0.82" transform="translate(-141.24 141.49) rotate(-14.86)"/><ellipse class="cls-8" cx="482.85" cy="612.28" rx="0.8" ry="1.67" transform="translate(-284.94 748.45) rotate(-61.8)"/><path class="cls-9" d="M462.87,639.65a.3.3,0,1,0,.6,0v-2.86a.3.3,0,1,0-.6,0Z"/><path class="cls-9" d="M463.55,639.33a.3.3,0,0,0,.6,0v-2.86a.3.3,0,0,0-.6,0Z"/><path class="cls-9" d="M464.31,639.46a.38.38,0,0,0,.39.38.39.39,0,0,0,.39-.38v-2.69a.39.39,0,0,0-.39-.38.38.38,0,0,0-.39.38Z"/><ellipse class="cls-9" cx="463.7" cy="636.89" rx="1.68" ry="2.1"/><path class="cls-6" d="M472,641.39a1,1,0,1,0,2,0v-6a1,1,0,0,0-2,0Z"/><path class="cls-8" d="M471.75,641.74a.69.69,0,0,0,.69.69h.63a.69.69,0,0,0,0-1.38h-.63a.69.69,0,0,0-.69.69Z"/><path class="cls-6" d="M472.64,643.27a1.28,1.28,0,0,0,2.55,0v-9.19a1.28,1.28,0,1,0-2.55,0Z"/><path class="cls-8" d="M472.44,643.88a1,1,0,0,0,1,1h1a1,1,0,1,0,0-1.94h-1a1,1,0,0,0-1,1Z"/><path class="cls-6" d="M459.48,641.56a.85.85,0,1,0,1.69,0v-5.14a.85.85,0,1,0-1.69,0Z"/><path class="cls-8" d="M459.35,641.87a.56.56,0,0,0,.56.55h.49a.55.55,0,0,0,.55-.55.55.55,0,0,0-.55-.55h-.49a.55.55,0,0,0-.56.55Z"/><path class="cls-6" d="M460.41,644.28a1.15,1.15,0,1,0,2.29,0v-7.57a1.15,1.15,0,1,0-2.29,0Z"/><ellipse class="cls-6" cx="450.84" cy="627.98" rx="7.12" ry="1.07" transform="translate(-315.46 729.96) rotate(-61.9)"/><ellipse class="cls-6" cx="464.66" cy="627.6" rx="13.55" ry="10.01"/><path class="cls-6" d="M473.13,617.53a4.32,4.32,0,0,0,8.63,0v-6.89a4.32,4.32,0,0,0-8.63,0Z"/><path class="cls-10" d="M471.18,620.9a4.64,4.64,0,0,0,4.64,4.64h3a4.64,4.64,0,0,0,0-9.28h-3a4.64,4.64,0,0,0-4.64,4.64Z"/><ellipse class="cls-6" cx="475.82" cy="619.77" rx="0.58" ry="1.82"/><ellipse class="cls-6" cx="478.51" cy="619.49" rx="0.76" ry="2.05"/><path class="cls-8" d="M460.07,645.24a1,1,0,0,0,1,1h1a1,1,0,0,0,0-1.94h-1a1,1,0,0,0-1,1Z"/><ellipse cx="479.14" cy="611.21" rx="0.81" ry="1.01"/><ellipse cx="476.15" cy="611.24" rx="0.7" ry="0.88"/><ellipse class="cls-11" cx="475.35" cy="623.65" rx="0.71" ry="0.39" transform="translate(-292.22 784.08) rotate(-64.49)"/><path class="cls-23" d="M474.89,622.39a2.81,2.81,0,0,0,1.5,1,3.82,3.82,0,0,0,3.47-.79"/><ellipse class="cls-13" cx="458.05" cy="627.04" rx="1.71" ry="3.12" transform="translate(-276.38 374.85) rotate(-34.9)"/><ellipse class="cls-13" cx="465.84" cy="620.78" rx="2.99" ry="1.75" transform="translate(-306.6 545.22) rotate(-47.53)"/><ellipse class="cls-13" cx="468.01" cy="630.68" rx="3.2" ry="1.5" transform="translate(-82.74 70.8) rotate(-7.95)"/></g><g id="goodcow-9" data-name="goodcow"><ellipse class="cls-8" cx="490.96" cy="604.26" rx="1.01" ry="0.38" transform="translate(-124.05 126.84) rotate(-13.09)"/><ellipse class="cls-8" cx="496.66" cy="604.34" rx="0.38" ry="0.84" transform="translate(-260.24 801.84) rotate(-65.21)"/><path class="cls-9" d="M486.44,617a.15.15,0,0,0,.15.15.16.16,0,0,0,.16-.15v-1.3a.16.16,0,0,0-.16-.16.16.16,0,0,0-.15.16Z"/><path class="cls-9" d="M486.79,616.89a.15.15,0,0,0,.15.15.15.15,0,0,0,.15-.15v-1.3a.14.14,0,0,0-.15-.15.15.15,0,0,0-.15.15Z"/><path class="cls-9" d="M487.18,616.94a.2.2,0,1,0,.39,0v-1.21a.2.2,0,1,0-.39,0Z"/><ellipse class="cls-9" cx="486.86" cy="615.77" rx="0.86" ry="0.98"/><path class="cls-6" d="M491.12,617.81a.51.51,0,1,0,1,0V615.1a.51.51,0,0,0-1,0Z"/><path class="cls-8" d="M491,618a.33.33,0,0,0,.33.33h.33a.33.33,0,0,0,0-.66h-.33a.33.33,0,0,0-.33.33Z"/><path class="cls-6" d="M491.45,618.67a.64.64,0,0,0,.64.64.64.64,0,0,0,.64-.64v-4.14a.64.64,0,0,0-1.28,0Z"/><path class="cls-8" d="M491.35,619a.46.46,0,0,0,.46.45h.56a.46.46,0,1,0,0-.91h-.56a.46.46,0,0,0-.46.46Z"/><path class="cls-6" d="M484.71,617.9a.43.43,0,0,0,.85,0v-2.3a.43.43,0,1,0-.85,0Z"/><path class="cls-8" d="M484.66,618.08a.26.26,0,0,0,.26.26h.26a.26.26,0,0,0,.26-.26.26.26,0,0,0-.26-.26h-.26a.26.26,0,0,0-.26.26Z"/><path class="cls-6" d="M485.19,619.15a.58.58,0,0,0,.58.57.57.57,0,0,0,.57-.57v-3.41a.56.56,0,0,0-.57-.57.57.57,0,0,0-.58.57Z"/><ellipse class="cls-6" cx="480.29" cy="611.63" rx="3.38" ry="0.53" transform="translate(-290.6 714.11) rotate(-59.43)"/><ellipse class="cls-6" cx="487.35" cy="611.46" rx="6.93" ry="4.65"/><path class="cls-6" d="M491.61,606.45a2.29,2.29,0,0,0,4.57,0v-2.54a2.29,2.29,0,0,0-4.57,0Z"/><path class="cls-10" d="M490.61,608.34a2.11,2.11,0,0,0,2.1,2.11H495a2.11,2.11,0,0,0,0-4.21h-2.24a2.1,2.1,0,0,0-2.1,2.1Z"/><ellipse class="cls-6" cx="493.06" cy="607.82" rx="0.3" ry="0.85"/><ellipse class="cls-6" cx="494.44" cy="607.69" rx="0.39" ry="0.95"/><path class="cls-8" d="M485,619.65a.46.46,0,0,0,.46.45H486a.46.46,0,1,0,0-.91h-.56a.46.46,0,0,0-.46.46Z"/><ellipse cx="494.76" cy="603.84" rx="0.41" ry="0.47"/><ellipse cx="493.23" cy="603.86" rx="0.36" ry="0.41"/><ellipse class="cls-6" cx="478.7" cy="614.31" rx="0.86" ry="0.58" transform="translate(-299.83 634.9) rotate(-53.59)"/><ellipse class="cls-11" cx="492.82" cy="609.62" rx="0.34" ry="0.2" transform="translate(-281.41 732.4) rotate(-60.06)"/><path class="cls-24" d="M492.59,609a1.45,1.45,0,0,0,.76.48,2.12,2.12,0,0,0,1.78-.37"/><ellipse class="cls-13" cx="483.97" cy="611.2" rx="0.84" ry="1.5" transform="translate(-279.49 453.34) rotate(-39.94)"/><ellipse class="cls-13" cx="487.96" cy="608.29" rx="1.46" ry="0.85" transform="translate(-281.49 481.55) rotate(-41.91)"/><ellipse class="cls-13" cx="489.07" cy="612.89" rx="1.63" ry="0.7" transform="translate(-69.97 63.08) rotate(-6.89)"/></g><g id="goodcow-10" data-name="goodcow"><ellipse class="cls-8" cx="680.97" cy="656.9" rx="1.06" ry="2.66" transform="translate(-120.06 1160.48) rotate(-76.13)"/><ellipse class="cls-8" cx="666" cy="657.14" rx="2.23" ry="1.03" transform="translate(-222.31 363.38) rotate(-26.32)"/><path class="cls-9" d="M692,692a.41.41,0,0,0,.81,0v-3.61a.41.41,0,0,0-.81,0Z"/><path class="cls-9" d="M691.13,691.63a.4.4,0,0,0,.8,0V688a.4.4,0,0,0-.8,0Z"/><path class="cls-9" d="M689.87,691.79a.52.52,0,0,0,1,0v-3.38a.52.52,0,0,0-1,0Z"/><ellipse class="cls-9" cx="691.73" cy="688.54" rx="2.25" ry="2.68"/><path class="cls-6" d="M677.85,694.21a1.36,1.36,0,0,0,2.71,0v-7.57a1.36,1.36,0,1,0-2.71,0Z"/><path class="cls-8" d="M678.24,694.72a.89.89,0,0,0,.89.89H680a.89.89,0,1,0,0-1.78h-.86a.89.89,0,0,0-.89.89Z"/><path class="cls-6" d="M676.31,696.58a1.7,1.7,0,1,0,3.39,0V685a1.7,1.7,0,1,0-3.39,0Z"/><path class="cls-8" d="M676,697.46a1.25,1.25,0,0,0,1.25,1.25h1.43a1.25,1.25,0,0,0,0-2.5h-1.43a1.25,1.25,0,0,0-1.25,1.25Z"/><path class="cls-6" d="M695.14,694.44a1.13,1.13,0,0,0,2.25,0V688a1.13,1.13,0,1,0-2.25,0Z"/><path class="cls-8" d="M695.45,694.89a.71.71,0,0,0,.71.71h.67a.72.72,0,0,0,0-1.43h-.67a.71.71,0,0,0-.71.72Z"/><path class="cls-6" d="M693.09,697.89a1.53,1.53,0,0,0,3,0v-9.51a1.53,1.53,0,0,0-3,0Z"/><ellipse class="cls-6" cx="709" cy="677.17" rx="1.42" ry="9.19" transform="translate(-241.12 435.27) rotate(-29.4)"/><ellipse class="cls-6" cx="690.45" cy="676.69" rx="18.21" ry="12.77"/><path class="cls-6" d="M667.36,663.35a5.91,5.91,0,0,0,11.81,0v-7.83a5.91,5.91,0,0,0-11.81,0Z"/><path class="cls-10" d="M665.07,668.13a5.84,5.84,0,0,0,5.84,5.84h5a5.85,5.85,0,0,0,0-11.69h-5a5.85,5.85,0,0,0-5.84,5.85Z"/><ellipse class="cls-6" cx="675.45" cy="666.69" rx="0.79" ry="2.33"/><ellipse class="cls-6" cx="671.84" cy="666.33" rx="1.03" ry="2.61"/><path class="cls-8" d="M692.66,699.19a1.24,1.24,0,0,0,1.25,1.24h1.43a1.25,1.25,0,0,0,0-2.49h-1.43a1.25,1.25,0,0,0-1.25,1.25Z"/><ellipse cx="670.98" cy="655.77" rx="1.08" ry="1.29"/><ellipse cx="675.01" cy="655.8" rx="0.94" ry="1.12"/><ellipse class="cls-6" cx="713.18" cy="684.54" rx="1.55" ry="2.32" transform="translate(-258.51 502.8) rotate(-33.23)"/><ellipse class="cls-11" cx="676.07" cy="671.64" rx="0.52" ry="0.92" transform="translate(-235.1 392.47) rotate(-27.78)"/><path class="cls-25" d="M676.69,670a3.9,3.9,0,0,1-2,1.31,5.41,5.41,0,0,1-4.68-1"/><ellipse class="cls-13" cx="699.32" cy="675.97" rx="4.05" ry="2.25" transform="translate(-262.8 818.5) rotate(-52.45)"/><ellipse class="cls-13" cx="688.86" cy="667.98" rx="2.29" ry="3.91" transform="translate(-270.42 690.76) rotate(-45.48)"/><ellipse class="cls-13" cx="685.94" cy="680.62" rx="1.92" ry="4.3" transform="translate(-76.87 1273.8) rotate(-82.65)"/></g></g></g></g></svg>