<svg xmlns="http://www.w3.org/2000/svg" xmlns:xlink="http://www.w3.org/1999/xlink" width="677.33mm" height="381mm" viewBox="0 0 1920 1080"><defs><style>.cls-1{isolation:isolate;}.cls-2{fill:url(#linear-gradient);}.cls-3{fill:#96a65d;}.cls-4{fill:#6f8c30;}.cls-5{opacity:0.4;}.cls-6{fill:#fff;}.cls-7{mix-blend-mode:lighten;}.cls-8{fill:#838bc5;}.cls-9{fill:url(#linear-gradient-2);}.cls-10{fill:url(#linear-gradient-3);}.cls-11{fill:url(#linear-gradient-4);}.cls-12{fill:url(#linear-gradient-5);}.cls-13{fill:url(#linear-gradient-6);}.cls-14{fill:url(#linear-gradient-7);}.cls-15{fill:#387404;mix-blend-mode:darken;}.cls-16{fill:#736258;}.cls-17{fill:#f2d0e3;}.cls-18{fill:#f2dde3;}.cls-19{fill:#ed1c24;}.cls-20,.cls-22,.cls-23,.cls-24,.cls-25,.cls-26,.cls-27,.cls-28,.cls-29,.cls-30{fill:none;stroke:#000;stroke-miterlimit:10;}.cls-20{stroke-width:0.92px;}.cls-21{fill:#333;}.cls-22{stroke-width:0.59px;}.cls-23{stroke-width:0.54px;}.cls-24{stroke-width:1.13px;}.cls-25{stroke-width:0.53px;}.cls-26{stroke-width:0.39px;}.cls-27{stroke-width:0.84px;}.cls-28{stroke-width:0.57px;}.cls-29{stroke-width:1.08px;}.cls-30{stroke-width:0.72px;}.cls-31{fill:#754c24;}.cls-32{fill:url(#linear-gradient-8);}</style><linearGradient id="linear-gradient" x1="936.85" y1="992.71" x2="988.42" y2="33.9" gradientTransform="matrix(1, 0, 0, -1, 0, 1074.43)" gradientUnits="userSpaceOnUse"><stop offset="0" stop-color="#0e1158"/><stop offset="0.79" stop-color="#5b81c4"/><stop offset="1" stop-color="#7bb9e7"/></linearGradient><linearGradient id="linear-gradient-2" x1="780.42" y1="452.38" x2="1025.42" y2="452.38" gradientUnits="userSpaceOnUse"><stop offset="0" stop-color="#724098"/><stop offset="0.14" stop-color="#77479c"/><stop offset="0.33" stop-color="#855aa6"/><stop offset="0.56" stop-color="#9c7ab7"/><stop offset="0.82" stop-color="#bca5cf"/><stop offset="1" stop-color="#d5c7e1"/></linearGradient><linearGradient id="linear-gradient-3" x1="365.78" y1="144.11" x2="481.95" y2="144.11" gradientUnits="userSpaceOnUse"><stop offset="0" stop-color="#fff"/><stop offset="0.48" stop-color="#c6c6c6"/><stop offset="0.99" stop-color="#868685"/></linearGradient><linearGradient id="linear-gradient-4" x1="925.49" y1="131.25" x2="1147.74" y2="168.52" xlink:href="#linear-gradient-3"/><linearGradient id="linear-gradient-5" x1="628.99" y1="258.01" x2="748.74" y2="258.01" xlink:href="#linear-gradient-3"/><linearGradient id="linear-gradient-6" x1="1525.22" y1="149.04" x2="1669.24" y2="149.04" xlink:href="#linear-gradient-3"/><linearGradient id="linear-gradient-7" x1="1205.63" y1="267.74" x2="1349.65" y2="267.74" xlink:href="#linear-gradient-3"/><linearGradient id="linear-gradient-8" x1="-71.4" y1="1262.28" x2="1886.9" y2="1262.28" gradientTransform="matrix(1.01, 0.04, -0.03, 1.15, 103.24, -587.97)" gradientUnits="userSpaceOnUse"><stop offset="0" stop-color="#8c6239"/><stop offset="0.49" stop-color="#724922"/><stop offset="0.55" stop-color="#6f4721"/><stop offset="1" stop-color="#42210b"/></linearGradient></defs><g class="cls-1"><g id="Layer_1" data-name="Layer 1"><g id="BG2"><rect class="cls-2" x="2" width="1919" height="1080"/><ellipse class="cls-3" cx="1517.29" cy="799.5" rx="474.96" ry="184.79"/><ellipse class="cls-4" cx="541.75" cy="838.37" rx="575.5" ry="223.91"/><g id="stars" class="cls-5"><circle class="cls-6" cx="896.39" cy="278.24" r="3.37"/><circle class="cls-6" cx="548.27" cy="527.54" r="3.39"/><circle class="cls-6" cx="414.25" cy="311.38" r="3.25"/><circle class="cls-6" cx="256.61" cy="281.96" r="3.33"/><circle class="cls-6" cx="445.72" cy="306.67" r="3.41"/><circle class="cls-6" cx="404.05" cy="35.95" r="3.45"/><circle class="cls-6" cx="1253.66" cy="119.49" r="3.48"/><circle class="cls-6" cx="1571.59" cy="53.97" r="3"/><circle class="cls-6" cx="1338.93" cy="41.95" r="3.26"/><circle class="cls-6" cx="1186.79" cy="60.54" r="3.16"/><circle class="cls-6" cx="961.66" cy="153.82" r="3.32"/><circle class="cls-6" cx="607.3" cy="215.9" r="3.44"/><circle class="cls-6" cx="361.58" cy="150.25" r="3.44"/><circle class="cls-6" cx="667.75" cy="382.82" r="3.49"/><circle class="cls-6" cx="1032.96" cy="230.67" r="3.09"/><circle class="cls-6" cx="1031.25" cy="41.47" r="3.18"/><circle class="cls-6" cx="1315.37" cy="276.29" r="3.48"/><circle class="cls-6" cx="1487.13" cy="176.69" r="3.49"/><circle class="cls-6" cx="1905.45" cy="64.28" r="3.07"/><circle class="cls-6" cx="1756.08" cy="402.84" r="3.27"/><circle class="cls-6" cx="1524.5" cy="89.28" r="3.11"/><circle class="cls-6" cx="1365.74" cy="212.82" r="2.97"/><circle class="cls-6" cx="952.58" cy="241.17" r="3.38"/><circle class="cls-6" cx="837.66" cy="92.18" r="2.92"/><circle class="cls-6" cx="500.86" cy="100.6" r="3.49"/><circle class="cls-6" cx="338.59" cy="177.87" r="3.09"/><circle class="cls-6" cx="912.87" cy="418.85" r="3.1"/><circle class="cls-6" cx="934.15" cy="255.33" r="3.15"/><circle class="cls-6" cx="1021.85" cy="133.15" r="3.26"/><circle class="cls-6" cx="774.33" cy="422.43" r="3.3"/><circle class="cls-6" cx="521.74" cy="345.5" r="3.11"/><circle class="cls-6" cx="12.75" cy="299.62" r="3.42"/><circle class="cls-6" cx="385.36" cy="413.19" r="3.19"/><circle class="cls-6" cx="1604.29" cy="80.02" r="3.11"/><circle class="cls-6" cx="1593.98" cy="285.97" r="3.12"/><circle class="cls-6" cx="992.28" cy="292.13" r="3.11"/><circle class="cls-6" cx="919.55" cy="377.59" r="3.06"/><circle class="cls-6" cx="441.22" cy="92.76" r="3.16"/><circle class="cls-6" cx="518.29" cy="199.91" r="2.91"/><circle class="cls-6" cx="693.81" cy="134.33" r="3.37"/><circle class="cls-6" cx="1054.18" cy="117.35" r="3.21"/><circle class="cls-6" cx="1526.55" cy="171.54" r="3.44"/><circle class="cls-6" cx="1203.73" cy="227.66" r="3.34"/><circle class="cls-6" cx="1030.48" cy="209.79" r="3.45"/><circle class="cls-6" cx="589.9" cy="261.57" r="3.07"/><circle class="cls-6" cx="227.62" cy="210.19" r="3.07"/><circle class="cls-6" cx="134.69" cy="-1.94" r="3.28"/></g><g id="STARSNAKES"><g class="cls-7"><path class="cls-8" d="M785,491l236-81.77h0"/><path class="cls-9" d="M783.53,486.75,1021,409.23l-234.53,86a4.5,4.5,0,0,1-3.1-8.45Z"/></g><path class="cls-6" d="M367,164l113.75-41h0"/><path class="cls-10" d="M366.59,162.86,480.75,123,367.41,165.14a1.21,1.21,0,1,1-.84-2.27Z"/><path class="cls-6" d="M919.17,186.05,1154.58,111h0"/><path class="cls-11" d="M918.32,183.38,1154.58,111,920,188.71a2.8,2.8,0,1,1-1.76-5.31Z"/><path class="cls-6" d="M630,271l117.75-27h0"/><path class="cls-12" d="M629.78,270l118-26L630.22,272a1,1,0,0,1-1.2-.75,1,1,0,0,1,.74-1.2Z"/><path class="cls-6" d="M1526.73,173.56l141-50.55h0"/><path class="cls-13" d="M1526.23,172.15,1667.75,123l-140.51,52a1.5,1.5,0,0,1-1-2.82Z"/><path class="cls-6" d="M1207.15,292.26l141-50.55h0"/><path class="cls-14" d="M1206.64,290.85l141.53-49.14-140.51,52a1.5,1.5,0,1,1-1.05-2.81Z"/></g><ellipse class="cls-15" cx="995.79" cy="1036.26" rx="1105.54" ry="236.29"/><g id="CLOSWCOWS"><g id="goodcow"><ellipse class="cls-16" cx="760.25" cy="773.19" rx="7.92" ry="3.11" transform="translate(-161.1 201.42) rotate(-13.66)"/><ellipse class="cls-16" cx="804.8" cy="773.87" rx="3.04" ry="6.61" transform="translate(-242.91 1159.73) rotate(-64.1)"/><path class="cls-17" d="M724.92,876.49a1.21,1.21,0,1,0,2.41,0V865.92a1.21,1.21,0,0,0-2.41,0Z"/><path class="cls-17" d="M727.64,875.3a1.2,1.2,0,1,0,2.4,0V864.72a1.2,1.2,0,1,0-2.4,0Z"/><path class="cls-17" d="M730.7,875.76a1.54,1.54,0,0,0,3.08,0v-9.9a1.54,1.54,0,1,0-3.08,0Z"/><ellipse class="cls-17" cx="728.25" cy="866.21" rx="6.71" ry="7.89"/><path class="cls-6" d="M761.49,882.84a4,4,0,1,0,8.06,0V860.68a4,4,0,1,0-8.06,0Z"/><path class="cls-16" d="M760.53,884.41a2.63,2.63,0,0,0,2.63,2.63h2.59a2.63,2.63,0,0,0,0-5.26h-2.59a2.63,2.63,0,0,0-2.63,2.63Z"/><path class="cls-6" d="M764.06,889.82a5,5,0,1,0,10.08,0V856a5,5,0,0,0-10.08,0Z"/><path class="cls-16" d="M763.28,892.45a3.67,3.67,0,0,0,3.67,3.68h4.29a3.68,3.68,0,0,0,0-7.36H767a3.67,3.67,0,0,0-3.67,3.68Z"/><path class="cls-6" d="M711.4,883.52a3.35,3.35,0,0,0,6.7,0V864.68a3.35,3.35,0,0,0-6.7,0Z"/><path class="cls-16" d="M711,884.89a2.1,2.1,0,0,0,2.11,2.1h2a2.11,2.11,0,1,0,0-4.21h-2a2.11,2.11,0,0,0-2.11,2.11Z"/><path class="cls-6" d="M715.14,893.66a4.53,4.53,0,0,0,9.06,0V865.83a4.53,4.53,0,1,0-9.06,0Z"/><ellipse class="cls-6" cx="676.84" cy="832.78" rx="27.11" ry="4.22" transform="translate(-381.9 1007.99) rotate(-60.29)"/><ellipse class="cls-6" cx="732.07" cy="831.37" rx="54.18" ry="37.54"/><path class="cls-6" d="M765.56,791.82a17.64,17.64,0,1,0,35.28,0V769.46a17.64,17.64,0,0,0-35.28,0Z"/><path class="cls-18" d="M757.75,806.2a17.14,17.14,0,0,0,17.14,17.14h15.63a17.14,17.14,0,1,0,0-34.27H774.89a17.13,17.13,0,0,0-17.14,17.13Z"/><ellipse class="cls-6" cx="776.7" cy="801.96" rx="2.34" ry="6.84"/><ellipse class="cls-6" cx="787.44" cy="800.91" rx="3.06" ry="7.69"/><path class="cls-16" d="M713.82,897.53a3.68,3.68,0,0,0,3.68,3.68h4.28a3.68,3.68,0,1,0,0-7.35H717.5a3.67,3.67,0,0,0-3.68,3.67Z"/><ellipse cx="789.99" cy="769.86" rx="3.23" ry="3.79"/><ellipse cx="778.01" cy="769.96" rx="2.8" ry="3.3"/><ellipse class="cls-6" cx="664.41" cy="854.46" rx="6.86" ry="4.59" transform="translate(-415.56 926.57) rotate(-55.95)"/><ellipse class="cls-19" cx="774.84" cy="816.54" rx="2.71" ry="1.55" transform="translate(-311.61 1111.07) rotate(-61.67)"/><path class="cls-20" d="M773,811.79a11.36,11.36,0,0,0,6,3.85,16.3,16.3,0,0,0,13.92-3"/><ellipse class="cls-21" cx="705.66" cy="829.27" rx="6.68" ry="11.96" transform="translate(-361.61 613.43) rotate(-38.17)"/><ellipse class="cls-21" cx="736.79" cy="805.77" rx="11.58" ry="6.77" transform="translate(-352.74 734.74) rotate(-43.83)"/><ellipse class="cls-21" cx="745.47" cy="842.92" rx="12.78" ry="5.65" transform="translate(-100.11 100.47) rotate(-7.23)"/></g><g id="goodcow-2" data-name="goodcow"><ellipse class="cls-16" cx="626.64" cy="747.25" rx="4.97" ry="2.06" transform="translate(-170.72 185.76) rotate(-14.86)"/><ellipse class="cls-16" cx="654.5" cy="747.71" rx="2" ry="4.19" transform="translate(-313.75 971.14) rotate(-61.8)"/><path class="cls-17" d="M604.54,816.12a.76.76,0,1,0,1.52,0V809a.76.76,0,0,0-1.52,0Z"/><path class="cls-17" d="M606.24,815.32a.76.76,0,1,0,1.52,0v-7.13a.76.76,0,0,0-1.52,0Z"/><path class="cls-17" d="M608.16,815.64a1,1,0,1,0,1.93,0v-6.71a1,1,0,1,0-1.93,0Z"/><ellipse class="cls-17" cx="606.63" cy="809.23" rx="4.2" ry="5.26"/><path class="cls-6" d="M627.39,820.48a2.55,2.55,0,1,0,5.09,0V805.36a2.55,2.55,0,1,0-5.09,0Z"/><path class="cls-16" d="M626.76,821.35a1.73,1.73,0,0,0,1.73,1.73h1.56a1.73,1.73,0,0,0,0-3.46h-1.56a1.72,1.72,0,0,0-1.73,1.73Z"/><path class="cls-6" d="M629,825.18a3.18,3.18,0,0,0,6.36,0v-23a3.18,3.18,0,0,0-6.36,0Z"/><path class="cls-16" d="M628.48,826.71a2.42,2.42,0,0,0,2.42,2.42h2.54a2.43,2.43,0,1,0,0-4.85H630.9a2.42,2.42,0,0,0-2.42,2.43Z"/><path class="cls-6" d="M596.07,820.91a2.12,2.12,0,0,0,4.24,0V808.05a2.12,2.12,0,1,0-4.24,0Z"/><path class="cls-16" d="M595.76,821.67a1.38,1.38,0,0,0,1.38,1.38h1.24a1.38,1.38,0,0,0,0-2.76h-1.24a1.38,1.38,0,0,0-1.38,1.38Z"/><path class="cls-6" d="M598.4,827.71a2.87,2.87,0,0,0,5.73,0V808.77a2.87,2.87,0,1,0-5.73,0Z"/><ellipse class="cls-6" cx="574.48" cy="786.95" rx="17.8" ry="2.68" transform="translate(-390.29 923.13) rotate(-61.9)"/><ellipse class="cls-6" cx="609.02" cy="786.01" rx="33.88" ry="25.01"/><path class="cls-6" d="M630.21,760.82a10.78,10.78,0,0,0,21.56,0V743.61a10.78,10.78,0,1,0-21.56,0Z"/><path class="cls-18" d="M625.32,769.25a11.61,11.61,0,0,0,11.61,11.6h7.5a11.61,11.61,0,1,0,0-23.21h-7.5a11.61,11.61,0,0,0-11.61,11.61Z"/><ellipse class="cls-6" cx="636.92" cy="766.42" rx="1.46" ry="4.56"/><ellipse class="cls-6" cx="643.64" cy="765.72" rx="1.91" ry="5.12"/><path class="cls-16" d="M597.55,830.09a2.43,2.43,0,0,0,2.43,2.43h2.53a2.43,2.43,0,1,0,0-4.85H600a2.42,2.42,0,0,0-2.43,2.42Z"/><ellipse cx="645.23" cy="745.03" rx="2.02" ry="2.53"/><ellipse cx="637.75" cy="745.1" rx="1.75" ry="2.2"/><ellipse class="cls-19" cx="635.76" cy="776.13" rx="1.78" ry="0.98" transform="translate(-338.51 1015.67) rotate(-64.49)"/><path class="cls-22" d="M634.61,773a7.15,7.15,0,0,0,3.73,2.56,9.67,9.67,0,0,0,8.7-2"/><ellipse class="cls-21" cx="592.5" cy="784.61" rx="4.27" ry="7.79" transform="translate(-342.35 480.11) rotate(-34.9)"/><ellipse class="cls-21" cx="611.97" cy="768.96" rx="7.48" ry="4.36" transform="translate(-368.44 701.13) rotate(-47.53)"/><ellipse class="cls-21" cx="617.4" cy="793.71" rx="8" ry="3.76" transform="translate(-103.86 93.04) rotate(-7.95)"/></g><g id="goodcow-3" data-name="goodcow"><ellipse class="cls-16" cx="1162.66" cy="775.91" rx="1.83" ry="4.62" transform="translate(130.59 1718.58) rotate(-76.13)"/><ellipse class="cls-16" cx="1136.67" cy="776.31" rx="3.86" ry="1.79" transform="translate(-226.36 584.4) rotate(-26.32)"/><path class="cls-17" d="M1181.87,836.9a.7.7,0,0,0,1.4,0v-6.26a.7.7,0,1,0-1.4,0Z"/><path class="cls-17" d="M1180.28,836.19a.71.71,0,0,0,1.41,0v-6.26a.71.71,0,0,0-1.41,0Z"/><path class="cls-17" d="M1178.1,836.46a.9.9,0,0,0,1.8,0V830.6a.9.9,0,1,0-1.8,0Z"/><ellipse class="cls-17" cx="1181.33" cy="830.82" rx="3.91" ry="4.66"/><path class="cls-6" d="M1157.23,840.67a2.36,2.36,0,0,0,4.71,0V827.53a2.36,2.36,0,1,0-4.71,0Z"/><path class="cls-16" d="M1157.91,841.56a1.55,1.55,0,0,0,1.55,1.55h1.5a1.55,1.55,0,0,0,0-3.1h-1.5a1.56,1.56,0,0,0-1.55,1.55Z"/><path class="cls-6" d="M1154.56,844.79a2.95,2.95,0,1,0,5.89,0v-20a2.95,2.95,0,1,0-5.89,0Z"/><path class="cls-16" d="M1154.1,846.31a2.17,2.17,0,0,0,2.16,2.17h2.48a2.17,2.17,0,1,0,0-4.34h-2.48a2.17,2.17,0,0,0-2.16,2.17Z"/><path class="cls-6" d="M1187.25,841.06a2,2,0,1,0,3.91,0V829.89a2,2,0,1,0-3.91,0Z"/><path class="cls-16" d="M1187.79,841.84a1.23,1.23,0,0,0,1.23,1.24h1.17a1.24,1.24,0,1,0,0-2.47H1189a1.23,1.23,0,0,0-1.23,1.23Z"/><path class="cls-6" d="M1183.69,847.05a2.65,2.65,0,1,0,5.29,0V830.56a2.65,2.65,0,1,0-5.29,0Z"/><ellipse class="cls-6" cx="1211.32" cy="811.08" rx="2.47" ry="15.96" transform="translate(-242.16 699.11) rotate(-29.4)"/><ellipse class="cls-6" cx="1179.1" cy="810.25" rx="31.61" ry="22.16"/><path class="cls-6" d="M1139,787.1a10.25,10.25,0,1,0,20.49,0V773.5a10.25,10.25,0,0,0-20.49,0Z"/><path class="cls-18" d="M1135.05,795.39a10.14,10.14,0,0,0,10.14,10.15h8.74a10.15,10.15,0,0,0,0-20.3h-8.74a10.15,10.15,0,0,0-10.14,10.15Z"/><ellipse class="cls-6" cx="1153.07" cy="792.89" rx="1.36" ry="4.04"/><ellipse class="cls-6" cx="1146.8" cy="792.27" rx="1.78" ry="4.54"/><path class="cls-16" d="M1183,849.31a2.17,2.17,0,0,0,2.17,2.17h2.47a2.17,2.17,0,1,0,0-4.34h-2.47a2.17,2.17,0,0,0-2.17,2.17Z"/><ellipse cx="1145.31" cy="773.94" rx="1.88" ry="2.24"/><ellipse cx="1152.3" cy="774" rx="1.63" ry="1.95"/><ellipse class="cls-6" cx="1218.58" cy="823.88" rx="2.69" ry="4.04" transform="translate(-252.22 802.56) rotate(-33.23)"/><ellipse class="cls-19" cx="1154.15" cy="801.5" rx="0.91" ry="1.6" transform="translate(-240.53 630.23) rotate(-27.78)"/><path class="cls-23" d="M1155.22,798.69a6.63,6.63,0,0,1-3.48,2.28,9.41,9.41,0,0,1-8.11-1.75"/><ellipse class="cls-21" cx="1194.51" cy="809.01" rx="7.03" ry="3.91" transform="translate(-174.86 1263.08) rotate(-52.45)"/><ellipse class="cls-21" cx="1176.35" cy="795.14" rx="3.97" ry="6.79" transform="translate(-215.4 1076.33) rotate(-45.48)"/><ellipse class="cls-21" cx="1171.28" cy="817.07" rx="3.34" ry="7.46" transform="matrix(0.13, -0.99, 0.99, 0.13, 211.01, 1874.14)"/></g><g id="goodcow-4" data-name="goodcow"><ellipse class="cls-16" cx="1035.22" cy="782.89" rx="3.77" ry="9.9" transform="translate(38.28 1613.98) rotate(-76.91)"/><ellipse class="cls-16" cx="979.43" cy="783.72" rx="8.22" ry="3.7" transform="matrix(0.91, -0.42, 0.42, 0.91, -238.36, 482.89)"/><path class="cls-17" d="M1076.45,908a1.5,1.5,0,0,0,3,0V895.28a1.5,1.5,0,1,0-3,0Z"/><path class="cls-17" d="M1073,906.55a1.51,1.51,0,0,0,3,0V893.83a1.51,1.51,0,1,0-3,0Z"/><path class="cls-17" d="M1068.37,907.09a1.93,1.93,0,1,0,3.85,0V895.22a1.93,1.93,0,1,0-3.85,0Z"/><ellipse class="cls-17" cx="1075.29" cy="895.59" rx="8.4" ry="9.56"/><path class="cls-6" d="M1023.6,915.55a5,5,0,1,0,10,0V889.07a5,5,0,1,0-10,0Z"/><path class="cls-16" d="M1025.1,917.63a3.21,3.21,0,0,0,3.21,3.21h3.29a3.21,3.21,0,0,0,0-6.42h-3.29a3.21,3.21,0,0,0-3.21,3.21Z"/><path class="cls-6" d="M1017.86,924a6.28,6.28,0,1,0,12.56,0V883.42a6.28,6.28,0,0,0-12.56,0Z"/><path class="cls-16" d="M1016.91,927.38a4.48,4.48,0,0,0,4.48,4.47h5.5a4.48,4.48,0,1,0,0-9h-5.5a4.48,4.48,0,0,0-4.48,4.48Z"/><path class="cls-6" d="M1088,916.41a4.16,4.16,0,0,0,8.32,0V893.88a4.16,4.16,0,1,0-8.32,0Z"/><path class="cls-16" d="M1089.22,918.21a2.57,2.57,0,0,0,2.57,2.57h2.52a2.57,2.57,0,1,0,0-5.14h-2.52a2.57,2.57,0,0,0-2.57,2.57Z"/><path class="cls-6" d="M1080.39,928.63a5.64,5.64,0,1,0,11.28,0V895.32a5.64,5.64,0,1,0-11.28,0Z"/><ellipse class="cls-6" cx="1139.66" cy="855.08" rx="5.23" ry="33.12" transform="matrix(0.86, -0.51, 0.51, 0.86, -276.48, 698.45)"/><ellipse class="cls-6" cx="1070.51" cy="853.37" rx="67.85" ry="45.48"/><path class="cls-6" d="M984.14,804.31a22.34,22.34,0,1,0,44.68,0V779.52a22.34,22.34,0,1,0-44.68,0Z"/><path class="cls-18" d="M975.6,822.89a20.57,20.57,0,0,0,20.58,20.57H1018a20.58,20.58,0,1,0,0-41.15H996.18a20.57,20.57,0,0,0-20.58,20.58Z"/><ellipse class="cls-6" cx="1014.62" cy="817.74" rx="2.93" ry="8.29"/><ellipse class="cls-6" cx="1001.17" cy="816.47" rx="3.83" ry="9.31"/><path class="cls-16" d="M1078.84,933.53a4.48,4.48,0,0,0,4.48,4.48h5.5a4.48,4.48,0,0,0,0-9h-5.5a4.48,4.48,0,0,0-4.48,4.48Z"/><ellipse cx="997.98" cy="778.85" rx="4.04" ry="4.6"/><ellipse cx="1012.98" cy="778.97" rx="3.51" ry="3.99"/><ellipse class="cls-6" cx="1155.23" cy="881.34" rx="5.68" ry="8.4" transform="translate(-297.62 857.81) rotate(-36.41)"/><ellipse class="cls-19" cx="1016.95" cy="835.41" rx="1.93" ry="3.31" transform="translate(-281.24 619.08) rotate(-29.94)"/><path class="cls-24" d="M1019.25,829.66a14.23,14.23,0,0,1-7.46,4.66,20.92,20.92,0,0,1-17.42-3.58"/><ellipse class="cls-21" cx="1103.58" cy="850.83" rx="14.68" ry="8.25" transform="translate(-257.27 1150.64) rotate(-50.06)"/><ellipse class="cls-21" cx="1064.59" cy="822.37" rx="8.32" ry="14.27" transform="translate(-258.52 1065.31) rotate(-48.09)"/><ellipse class="cls-21" cx="1053.72" cy="867.37" rx="6.85" ry="16" transform="translate(66.24 1809.47) rotate(-83.11)"/></g><g id="goodcow-5" data-name="goodcow"><ellipse class="cls-16" cx="1635.55" cy="781.7" rx="1.78" ry="4.5" transform="translate(484.45 2182.07) rotate(-76.13)"/><ellipse class="cls-16" cx="1610.27" cy="782.09" rx="3.76" ry="1.74" transform="translate(-179.83 794.97) rotate(-26.32)"/><path class="cls-17" d="M1654.23,841a.69.69,0,0,0,1.37,0v-6.09a.69.69,0,0,0-1.37,0Z"/><path class="cls-17" d="M1652.69,840.33a.68.68,0,1,0,1.36,0v-6.08a.68.68,0,1,0-1.36,0Z"/><path class="cls-17" d="M1650.57,840.6a.88.88,0,0,0,1.75,0v-5.7a.88.88,0,1,0-1.75,0Z"/><ellipse class="cls-17" cx="1653.71" cy="835.11" rx="3.81" ry="4.53"/><path class="cls-6" d="M1630.27,844.69a2.29,2.29,0,0,0,4.58,0V831.91a2.29,2.29,0,1,0-4.58,0Z"/><path class="cls-16" d="M1630.93,845.56a1.5,1.5,0,0,0,1.51,1.5h1.45a1.51,1.51,0,1,0,0-3h-1.45a1.51,1.51,0,0,0-1.51,1.51Z"/><path class="cls-6" d="M1627.66,848.7a2.87,2.87,0,1,0,5.73,0V829.2a2.87,2.87,0,0,0-5.73,0Z"/><path class="cls-16" d="M1627.22,850.18a2.1,2.1,0,0,0,2.11,2.1h2.4a2.11,2.11,0,1,0,0-4.21h-2.4a2.1,2.1,0,0,0-2.11,2.11Z"/><path class="cls-6" d="M1659.46,845.07a1.91,1.91,0,1,0,3.81,0V834.21a1.91,1.91,0,1,0-3.81,0Z"/><path class="cls-16" d="M1660,845.83a1.2,1.2,0,0,0,1.2,1.21h1.13a1.21,1.21,0,1,0,0-2.41h-1.13a1.2,1.2,0,0,0-1.2,1.2Z"/><path class="cls-6" d="M1656,850.9a2.58,2.58,0,1,0,5.15,0v-16a2.58,2.58,0,1,0-5.15,0Z"/><ellipse class="cls-6" cx="1682.88" cy="815.91" rx="2.4" ry="15.52" transform="translate(-183.8 931.23) rotate(-29.4)"/><ellipse class="cls-6" cx="1651.54" cy="815.1" rx="30.74" ry="21.56"/><path class="cls-6" d="M1612.56,792.59a10,10,0,0,0,19.93,0V779.36a10,10,0,0,0-19.93,0Z"/><path class="cls-18" d="M1608.69,800.65a9.87,9.87,0,0,0,9.87,9.87h8.5a9.87,9.87,0,1,0,0-19.74h-8.5a9.87,9.87,0,0,0-9.87,9.87Z"/><ellipse class="cls-6" cx="1626.21" cy="798.22" rx="1.33" ry="3.93"/><ellipse class="cls-6" cx="1620.12" cy="797.61" rx="1.73" ry="4.41"/><path class="cls-16" d="M1655.28,853.09a2.1,2.1,0,0,0,2.11,2.11h2.41a2.11,2.11,0,0,0,0-4.21h-2.41a2.1,2.1,0,0,0-2.11,2.1Z"/><ellipse cx="1618.67" cy="779.78" rx="1.83" ry="2.18"/><ellipse cx="1625.47" cy="779.84" rx="1.59" ry="1.89"/><ellipse class="cls-6" cx="1689.93" cy="828.36" rx="2.61" ry="3.92" transform="translate(-177.59 1061.61) rotate(-33.23)"/><ellipse class="cls-19" cx="1627.27" cy="806.59" rx="0.88" ry="1.55" transform="translate(-188.38 851.31) rotate(-27.78)"/><path class="cls-25" d="M1628.31,803.86a6.35,6.35,0,0,1-3.38,2.21,9.09,9.09,0,0,1-7.89-1.7"/><ellipse class="cls-21" cx="1666.53" cy="813.9" rx="6.84" ry="3.81" transform="translate(5.64 1639.24) rotate(-52.45)"/><ellipse class="cls-21" cx="1648.86" cy="800.41" rx="3.86" ry="6.61" transform="translate(-77.96 1414.8) rotate(-45.48)"/><ellipse class="cls-21" cx="1643.93" cy="821.74" rx="3.24" ry="7.26" transform="translate(618.54 2346.97) rotate(-82.65)"/></g><g id="goodcow-6" data-name="goodcow"><ellipse class="cls-16" cx="1570.23" cy="761.39" rx="3.32" ry="1.32" transform="translate(-136.77 398.76) rotate(-13.87)"/><ellipse class="cls-16" cx="1588.89" cy="761.67" rx="1.28" ry="2.77" transform="translate(201.73 1848.19) rotate(-63.68)"/><path class="cls-17" d="M1555.43,805.17a.5.5,0,0,0,.51.5.5.5,0,0,0,.5-.5v-4.49a.5.5,0,0,0-.5-.51.51.51,0,0,0-.51.51Z"/><path class="cls-17" d="M1556.57,804.66a.51.51,0,1,0,1,0v-4.49a.51.51,0,0,0-1,0Z"/><path class="cls-17" d="M1557.85,804.86a.65.65,0,0,0,1.29,0v-4.21a.65.65,0,1,0-1.29,0Z"/><ellipse class="cls-17" cx="1556.83" cy="800.81" rx="2.81" ry="3.34"/><path class="cls-6" d="M1570.74,807.88a1.7,1.7,0,0,0,3.39,0v-9.44a1.7,1.7,0,0,0-3.39,0Z"/><path class="cls-16" d="M1570.34,808.52a1.11,1.11,0,0,0,1.11,1.11h1.08a1.11,1.11,0,1,0,0-2.22h-1.08a1.11,1.11,0,0,0-1.11,1.11Z"/><path class="cls-6" d="M1571.82,810.84a2.12,2.12,0,0,0,4.23,0V796.45a2.12,2.12,0,1,0-4.23,0Z"/><path class="cls-16" d="M1571.49,811.93a1.55,1.55,0,0,0,1.55,1.55h1.78a1.56,1.56,0,1,0,0-3.11H1573a1.56,1.56,0,0,0-1.55,1.56Z"/><path class="cls-6" d="M1549.77,808.16a1.41,1.41,0,1,0,2.81,0v-8a1.41,1.41,0,1,0-2.81,0Z"/><path class="cls-16" d="M1549.58,808.72a.89.89,0,0,0,.89.89h.83a.89.89,0,1,0,0-1.78h-.83a.89.89,0,0,0-.89.89Z"/><path class="cls-6" d="M1551.33,812.46a1.9,1.9,0,1,0,3.8,0V800.62a1.9,1.9,0,0,0-3.8,0Z"/><ellipse class="cls-6" cx="1535.3" cy="786.64" rx="11.46" ry="1.77" transform="translate(96.27 1738.03) rotate(-60.6)"/><ellipse class="cls-6" cx="1558.43" cy="786.04" rx="22.69" ry="15.91"/><path class="cls-6" d="M1572.48,769.42a7.36,7.36,0,0,0,14.72,0v-9.76a7.36,7.36,0,0,0-14.72,0Z"/><path class="cls-18" d="M1569.21,775.38a7.28,7.28,0,0,0,7.29,7.28h6.27a7.29,7.29,0,0,0,0-14.57h-6.27a7.29,7.29,0,0,0-7.29,7.29Z"/><ellipse class="cls-6" cx="1577.12" cy="773.58" rx="0.98" ry="2.9"/><ellipse class="cls-6" cx="1581.62" cy="773.13" rx="1.28" ry="3.26"/><path class="cls-16" d="M1550.78,814.08a1.55,1.55,0,0,0,1.55,1.56h1.78a1.56,1.56,0,0,0,0-3.12h-1.78a1.55,1.55,0,0,0-1.55,1.56Z"/><ellipse cx="1582.68" cy="759.97" rx="1.35" ry="1.61"/><ellipse cx="1577.67" cy="760.01" rx="1.17" ry="1.4"/><ellipse class="cls-6" cx="1530.09" cy="795.82" rx="2.9" ry="1.93" transform="translate(25.88 1639.54) rotate(-56.77)"/><ellipse class="cls-19" cx="1576.34" cy="779.76" rx="1.15" ry="0.65" transform="translate(151.81 1811.06) rotate(-62.22)"/><path class="cls-26" d="M1575.57,777.75a4.78,4.78,0,0,0,2.5,1.63,6.73,6.73,0,0,0,5.82-1.26"/><ellipse class="cls-21" cx="1547.36" cy="785.15" rx="2.81" ry="5.05" transform="translate(-157.95 1105.6) rotate(-37.55)"/><ellipse class="cls-21" cx="1560.4" cy="775.19" rx="4.88" ry="2.85" transform="translate(-95.69 1316.61) rotate(-44.52)"/><ellipse class="cls-21" cx="1564.04" cy="790.94" rx="5.36" ry="2.39" transform="translate(-88.37 206.7) rotate(-7.35)"/></g><g id="goodcow-7" data-name="goodcow"><ellipse class="cls-16" cx="1460.38" cy="793.74" rx="2.86" ry="7.22" transform="translate(339.59 2021.17) rotate(-76.13)"/><ellipse class="cls-16" cx="1419.79" cy="794.37" rx="6.03" ry="2.79" transform="translate(-205.02 711.79) rotate(-26.32)"/><path class="cls-17" d="M1490.37,889a1.1,1.1,0,1,0,2.19,0v-9.77a1.1,1.1,0,1,0-2.19,0Z"/><path class="cls-17" d="M1487.89,887.87a1.1,1.1,0,0,0,2.2,0V878.1a1.1,1.1,0,0,0-2.2,0Z"/><path class="cls-17" d="M1484.49,888.3a1.41,1.41,0,1,0,2.81,0v-9.15a1.41,1.41,0,1,0-2.81,0Z"/><ellipse class="cls-17" cx="1489.53" cy="879.49" rx="6.11" ry="7.27"/><path class="cls-6" d="M1451.9,894.86a3.68,3.68,0,0,0,7.36,0V874.35a3.68,3.68,0,1,0-7.36,0Z"/><path class="cls-16" d="M1453,896.26a2.42,2.42,0,0,0,2.42,2.42h2.34a2.42,2.42,0,1,0,0-4.83h-2.34a2.41,2.41,0,0,0-2.42,2.41Z"/><path class="cls-6" d="M1447.72,901.31a4.6,4.6,0,0,0,9.2,0V870a4.6,4.6,0,0,0-9.2,0Z"/><path class="cls-16" d="M1447,903.68a3.38,3.38,0,0,0,3.39,3.38h3.86a3.39,3.39,0,1,0,0-6.77h-3.86a3.39,3.39,0,0,0-3.39,3.39Z"/><path class="cls-6" d="M1498.77,895.49a3.06,3.06,0,0,0,6.11,0V878a3.06,3.06,0,1,0-6.11,0Z"/><path class="cls-16" d="M1499.61,896.7a1.93,1.93,0,0,0,1.93,1.94h1.82a1.94,1.94,0,0,0,0-3.87h-1.82a1.93,1.93,0,0,0-1.93,1.93Z"/><path class="cls-6" d="M1493.21,904.84a4.14,4.14,0,0,0,8.27,0V879.08a4.14,4.14,0,0,0-8.27,0Z"/><ellipse class="cls-6" cx="1536.36" cy="848.67" rx="3.85" ry="24.92" transform="translate(-218.75 863.52) rotate(-29.4)"/><ellipse class="cls-6" cx="1486.05" cy="847.37" rx="49.36" ry="34.61"/><path class="cls-6" d="M1423.47,811.22a16,16,0,0,0,32,0V790a16,16,0,0,0-32,0Z"/><path class="cls-18" d="M1417.26,824.17A15.85,15.85,0,0,0,1433.1,840h13.64a15.85,15.85,0,1,0,0-31.69H1433.1a15.84,15.84,0,0,0-15.84,15.84Z"/><ellipse class="cls-6" cx="1445.39" cy="820.26" rx="2.13" ry="6.31"/><ellipse class="cls-6" cx="1435.61" cy="819.29" rx="2.79" ry="7.09"/><path class="cls-16" d="M1492.06,908.36a3.38,3.38,0,0,0,3.38,3.38h3.86a3.38,3.38,0,1,0,0-6.76h-3.86a3.38,3.38,0,0,0-3.38,3.38Z"/><ellipse cx="1433.29" cy="790.67" rx="2.94" ry="3.5"/><ellipse cx="1444.2" cy="790.76" rx="2.55" ry="3.04"/><ellipse class="cls-6" cx="1547.69" cy="868.65" rx="4.2" ry="6.3" transform="translate(-222.94 990.24) rotate(-33.23)"/><ellipse class="cls-19" cx="1447.09" cy="833.7" rx="1.42" ry="2.49" transform="translate(-221.78 770.46) rotate(-27.78)"/><path class="cls-27" d="M1448.76,829.33a10.31,10.31,0,0,1-5.43,3.54,14.66,14.66,0,0,1-12.67-2.73"/><ellipse class="cls-21" cx="1510.11" cy="845.43" rx="10.98" ry="6.11" transform="translate(-80.46 1527.54) rotate(-52.45)"/><ellipse class="cls-21" cx="1481.75" cy="823.78" rx="6.2" ry="10.61" transform="translate(-144.56 1302.63) rotate(-45.48)"/><ellipse class="cls-21" cx="1473.84" cy="858.02" rx="5.21" ry="11.65" transform="translate(434.23 2209.91) rotate(-82.65)"/></g><g id="goodcow-8" data-name="goodcow"><ellipse class="cls-16" cx="948.21" cy="740.02" rx="1.94" ry="4.89" transform="translate(2.4 1483.1) rotate(-76.13)"/><ellipse class="cls-16" cx="920.74" cy="740.45" rx="4.08" ry="1.89" transform="translate(-232.84 484.95) rotate(-26.32)"/><path class="cls-17" d="M968.51,804.48a.74.74,0,0,0,1.48,0v-6.61a.74.74,0,1,0-1.48,0Z"/><path class="cls-17" d="M966.83,803.73a.76.76,0,0,0,.75.75.75.75,0,0,0,.74-.75v-6.61a.74.74,0,0,0-.74-.74.75.75,0,0,0-.75.74Z"/><path class="cls-17" d="M964.53,804a1,1,0,1,0,1.9,0v-6.19a.95.95,0,0,0-1.9,0Z"/><ellipse class="cls-17" cx="967.94" cy="798.06" rx="4.14" ry="4.92"/><path class="cls-6" d="M942.47,808.47a2.49,2.49,0,0,0,5,0V794.58a2.49,2.49,0,1,0-5,0Z"/><path class="cls-16" d="M943.19,809.41a1.63,1.63,0,0,0,1.64,1.64h1.58a1.64,1.64,0,1,0,0-3.27h-1.58a1.63,1.63,0,0,0-1.64,1.63Z"/><path class="cls-6" d="M939.64,812.83a3.12,3.12,0,0,0,6.23,0V791.64a3.12,3.12,0,0,0-6.23,0Z"/><path class="cls-16" d="M939.16,814.43a2.28,2.28,0,0,0,2.29,2.29h2.61a2.29,2.29,0,1,0,0-4.58h-2.61a2.29,2.29,0,0,0-2.29,2.29Z"/><path class="cls-6" d="M974.19,808.89a2.07,2.07,0,0,0,4.14,0V797.08a2.07,2.07,0,1,0-4.14,0Z"/><path class="cls-16" d="M974.76,809.71a1.31,1.31,0,0,0,1.31,1.31h1.23a1.31,1.31,0,1,0,0-2.62h-1.23a1.31,1.31,0,0,0-1.31,1.31Z"/><path class="cls-6" d="M970.43,815.22a2.8,2.8,0,1,0,5.6,0V797.78a2.8,2.8,0,1,0-5.6,0Z"/><ellipse class="cls-6" cx="999.64" cy="777.2" rx="2.61" ry="16.87" transform="translate(-252.79 590.83) rotate(-29.4)"/><ellipse class="cls-6" cx="965.59" cy="776.32" rx="33.41" ry="23.43"/><path class="cls-6" d="M923.23,751.85a10.83,10.83,0,0,0,21.66,0V737.48a10.83,10.83,0,0,0-21.66,0Z"/><path class="cls-18" d="M919,760.62a10.72,10.72,0,0,0,10.73,10.72H939a10.73,10.73,0,1,0,0-21.45h-9.23A10.72,10.72,0,0,0,919,760.62Z"/><ellipse class="cls-6" cx="938.07" cy="757.97" rx="1.44" ry="4.27"/><ellipse class="cls-6" cx="931.44" cy="757.31" rx="1.89" ry="4.8"/><path class="cls-16" d="M969.65,817.6a2.29,2.29,0,0,0,2.29,2.29h2.62a2.29,2.29,0,0,0,0-4.58h-2.62a2.3,2.3,0,0,0-2.29,2.29Z"/><ellipse cx="929.87" cy="737.94" rx="1.99" ry="2.37"/><ellipse cx="937.26" cy="738" rx="1.73" ry="2.06"/><ellipse class="cls-6" cx="1007.31" cy="790.72" rx="2.84" ry="4.27" transform="translate(-268.6 681.35) rotate(-33.23)"/><ellipse class="cls-19" cx="939.21" cy="767.07" rx="0.96" ry="1.69" transform="translate(-249.25 526.1) rotate(-27.78)"/><path class="cls-28" d="M940.35,764.11a7.12,7.12,0,0,1-3.68,2.4,10,10,0,0,1-8.58-1.85"/><ellipse class="cls-21" cx="981.87" cy="775.01" rx="7.43" ry="4.14" transform="translate(-230.96 1081.21) rotate(-52.45)"/><ellipse class="cls-21" cx="962.67" cy="760.35" rx="4.2" ry="7.18" transform="translate(-254.45 913.59) rotate(-45.48)"/><ellipse class="cls-21" cx="957.32" cy="783.53" rx="3.53" ry="7.88" transform="translate(57.7 1632.68) rotate(-82.65)"/></g><g id="goodcow-9" data-name="goodcow"><ellipse class="cls-16" cx="1308.91" cy="793.88" rx="9.12" ry="3.71" transform="translate(-156.29 350.39) rotate(-14.4)"/><ellipse class="cls-16" cx="1360.11" cy="794.69" rx="3.6" ry="7.65" transform="translate(29.85 1638.41) rotate(-62.68)"/><path class="cls-17" d="M1268.3,917.47a1.39,1.39,0,0,0,2.77,0V904.72a1.39,1.39,0,1,0-2.77,0Z"/><path class="cls-17" d="M1271.42,916a1.39,1.39,0,1,0,2.77,0V903.28a1.39,1.39,0,0,0-2.77,0Z"/><path class="cls-17" d="M1274.93,916.6a1.78,1.78,0,1,0,3.56,0v-12a1.78,1.78,0,0,0-3.56,0Z"/><ellipse class="cls-17" cx="1272.12" cy="905.12" rx="7.71" ry="9.43"/><path class="cls-6" d="M1310.3,925.21a4.67,4.67,0,1,0,9.33,0V898.3a4.67,4.67,0,0,0-9.33,0Z"/><path class="cls-16" d="M1309.17,926.88a3.12,3.12,0,0,0,3.11,3.12h2.91a3.12,3.12,0,0,0,0-6.24h-2.91a3.12,3.12,0,0,0-3.11,3.12Z"/><path class="cls-6" d="M1313.25,933.6a5.83,5.83,0,1,0,11.65,0v-41a5.83,5.83,0,1,0-11.65,0Z"/><path class="cls-16" d="M1312.32,936.5a4.37,4.37,0,0,0,4.37,4.37h4.76a4.37,4.37,0,1,0,0-8.74h-4.76a4.37,4.37,0,0,0-4.37,4.37Z"/><path class="cls-6" d="M1252.73,926a3.88,3.88,0,1,0,7.76,0V903.12a3.88,3.88,0,1,0-7.76,0Z"/><path class="cls-16" d="M1252.19,927.45a2.49,2.49,0,0,0,2.49,2.49H1257a2.49,2.49,0,0,0,0-5h-2.28a2.5,2.5,0,0,0-2.49,2.49Z"/><path class="cls-6" d="M1257,938.17a5.25,5.25,0,0,0,10.49,0V904.43a5.25,5.25,0,0,0-10.49,0Z"/><ellipse class="cls-6" cx="1213.04" cy="865.14" rx="32.12" ry="4.89" transform="translate(-128.24 1513.91) rotate(-61.31)"/><ellipse class="cls-6" cx="1276.52" cy="863.45" rx="62.27" ry="44.9"/><path class="cls-6" d="M1315.29,817.47a20,20,0,0,0,40,0V788.09a20,20,0,0,0-40,0Z"/><path class="cls-18" d="M1306.32,833.35a20.71,20.71,0,0,0,20.7,20.71h15.39a20.71,20.71,0,0,0,0-41.41H1327a20.7,20.7,0,0,0-20.7,20.7Z"/><ellipse class="cls-6" cx="1327.81" cy="828.28" rx="2.69" ry="8.18"/><ellipse class="cls-6" cx="1340.16" cy="827.02" rx="3.51" ry="9.19"/><path class="cls-16" d="M1255.48,942.58a4.37,4.37,0,0,0,4.37,4.37h4.76a4.38,4.38,0,0,0,0-8.75h-4.76a4.37,4.37,0,0,0-4.37,4.38Z"/><ellipse cx="1343.09" cy="789.89" rx="3.71" ry="4.54"/><ellipse cx="1329.32" cy="790.01" rx="3.22" ry="3.94"/><ellipse class="cls-6" cx="1198.75" cy="891.06" rx="8.11" ry="5.34" transform="translate(-186.25 1450.31) rotate(-58.61)"/><ellipse class="cls-19" cx="1325.67" cy="845.72" rx="3.21" ry="1.8" transform="translate(-23.04 1654.19) rotate(-63.48)"/><path class="cls-29" d="M1323.56,840a13.08,13.08,0,0,0,6.86,4.6,18.1,18.1,0,0,0,16-3.54"/><ellipse class="cls-21" cx="1246.16" cy="860.94" rx="7.79" ry="14.1" transform="translate(-267.99 899.56) rotate(-36.1)"/><ellipse class="cls-21" cx="1281.95" cy="832.84" rx="13.57" ry="7.93" transform="translate(-206.77 1180.29) rotate(-46.15)"/><ellipse class="cls-21" cx="1291.92" cy="877.27" rx="14.7" ry="6.75" transform="matrix(0.99, -0.13, 0.13, 0.99, -105.5, 180.22)"/></g><g id="goodcow-10" data-name="goodcow"><ellipse class="cls-16" cx="892.01" cy="784.94" rx="2.43" ry="6.13" transform="translate(-83.93 1462.7) rotate(-76.13)"/><ellipse class="cls-16" cx="857.55" cy="785.48" rx="5.12" ry="2.37" transform="translate(-259.35 461.61) rotate(-26.32)"/><path class="cls-17" d="M917.48,865.8a.93.93,0,1,0,1.86,0v-8.29a.93.93,0,1,0-1.86,0Z"/><path class="cls-17" d="M915.37,864.87a.94.94,0,0,0,1.87,0v-8.3a.94.94,0,0,0-1.87,0Z"/><path class="cls-17" d="M912.48,865.23a1.2,1.2,0,0,0,2.39,0v-7.77a1.2,1.2,0,1,0-2.39,0Z"/><ellipse class="cls-17" cx="916.77" cy="857.75" rx="5.19" ry="6.17"/><path class="cls-6" d="M884.81,870.8a3.13,3.13,0,1,0,6.25,0V853.38a3.13,3.13,0,0,0-6.25,0Z"/><path class="cls-16" d="M885.72,872a2.05,2.05,0,0,0,2,2h2a2,2,0,0,0,0-4.1h-2a2.05,2.05,0,0,0-2,2Z"/><path class="cls-6" d="M881.27,876.27a3.91,3.91,0,1,0,7.81,0V849.7a3.91,3.91,0,1,0-7.81,0Z"/><path class="cls-16" d="M880.66,878.28a2.87,2.87,0,0,0,2.87,2.88h3.28a2.88,2.88,0,1,0,0-5.75h-3.28a2.87,2.87,0,0,0-2.87,2.87Z"/><path class="cls-6" d="M924.61,871.33a2.6,2.6,0,1,0,5.19,0V856.52a2.6,2.6,0,1,0-5.19,0Z"/><path class="cls-16" d="M925.32,872.36A1.64,1.64,0,0,0,927,874h1.55a1.64,1.64,0,0,0,0-3.28H927a1.65,1.65,0,0,0-1.64,1.64Z"/><path class="cls-6" d="M919.89,879.27a3.51,3.51,0,0,0,7,0V857.4a3.51,3.51,0,0,0-7,0Z"/><ellipse class="cls-6" cx="956.52" cy="831.58" rx="3.27" ry="21.16" transform="translate(-285.04 576.67) rotate(-29.4)"/><ellipse class="cls-6" cx="913.81" cy="830.47" rx="41.91" ry="29.38"/><path class="cls-6" d="M860.68,799.78a13.59,13.59,0,1,0,27.17,0v-18a13.59,13.59,0,1,0-27.17,0Z"/><path class="cls-18" d="M855.4,810.78a13.45,13.45,0,0,0,13.46,13.45h11.58a13.45,13.45,0,1,0,0-26.9H868.86a13.45,13.45,0,0,0-13.46,13.45Z"/><ellipse class="cls-6" cx="879.29" cy="807.46" rx="1.81" ry="5.35"/><ellipse class="cls-6" cx="870.98" cy="806.64" rx="2.36" ry="6.02"/><path class="cls-16" d="M918.91,882.26a2.87,2.87,0,0,0,2.87,2.87h3.28a2.87,2.87,0,1,0,0-5.74h-3.28a2.87,2.87,0,0,0-2.87,2.87Z"/><ellipse cx="869.01" cy="782.33" rx="2.5" ry="2.97"/><ellipse cx="878.27" cy="782.41" rx="2.17" ry="2.58"/><ellipse class="cls-6" cx="966.14" cy="848.55" rx="3.56" ry="5.35" transform="translate(-307.02 668.25) rotate(-33.23)"/><ellipse class="cls-19" cx="880.73" cy="818.87" rx="1.2" ry="2.12" transform="translate(-280.13 504.81) rotate(-27.78)"/><path class="cls-30" d="M882.15,815.16a8.87,8.87,0,0,1-4.61,3,12.48,12.48,0,0,1-10.76-2.32"/><ellipse class="cls-21" cx="934.24" cy="828.83" rx="9.32" ry="5.19" transform="translate(-292.24 1064.47) rotate(-52.45)"/><ellipse class="cls-21" cx="910.16" cy="810.44" rx="5.26" ry="9" transform="translate(-305.86 891.11) rotate(-45.48)"/><ellipse class="cls-21" cx="903.44" cy="839.52" rx="4.42" ry="9.89" transform="matrix(0.13, -0.99, 0.99, 0.13, -44.81, 1628.07)"/></g></g><g id="bridge"><path class="cls-31" d="M227.91,1076.38c-1.31,1.34-1.53,1.07-3.4,1.07s-1.88-3.19-3.75-3.19-1.88-.34-3.75-.34-1.87,2.65-3.75,2.65-1.87.68-3.75.68-1.87-1-3.75-1-1.87,2.91-3.75,2.91-1.87-1-3.75-1-1.87-.86-3.75-.86-1.87-3.34-3.75-3.34-1.87,5.45-3.75,5.45-1.13-2.71-2.45-4-3.3-.6-3.3-2.5,4.7-1.89,4.7-3.79-3.75-1.9-3.75-3.79.55-1.9.55-3.8,3.34-1.89,3.34-3.79-.79-1.89-.79-3.79-1.33-1.89-1.33-3.79,1.27-1.89,1.27-3.79-4.69-1.9-4.69-3.79.33-1.9.33-3.8,1-1.9,1-3.79,4.09-1.9,4.09-3.79-3.13-1.9-3.13-3.8-1-1.89-1-3.79-.4-1.9-.4-3.8-1.15-1.89-1.15-3.79,4.12-1.9,4.12-3.79.05-1.9.05-3.8.08-1.89.08-3.79,1.23-1.9,1.23-3.8-5.22-1.9-5.22-3.79,4.33-1.9,4.33-3.8-1.88-1.9-1.88-3.79-1.9-1.9-1.9-3.8,2.92-1.9,2.92-3.8-1.39-1.89-1.39-3.79-2.42-1.9-2.42-3.8,4.12-1.9,4.12-3.79-2.54-1.9-2.54-3.8,1.16-1.9,1.16-3.8-1.92-1.9-1.92-3.8,2-1.89,2-3.79,1-1.9,1-3.8,1.87-1.9,1.87-3.8-1.94-1.9-1.94-3.79,1.58-1.9,1.58-3.8-4.11-1.9-4.11-3.79,2.08-1.9,2.08-3.8-1.41-1.9-1.41-3.8,1.67-1.9,1.67-3.79-.3-1.9-.3-3.8-1.61-1.9-1.61-3.8.05-1.9.05-3.8.57-1.9.57-3.8,2.07-1.9,2.07-3.8,1.36-1.9,1.36-3.8-4.75-1.9-4.75-3.8,1-1.9,1-3.81-1-3.1.34-4.45,2.53-.19,4.41-.19,1.87-1.2,3.75-1.2,1.87,4.5,3.74,4.5,1.88-1.51,3.75-1.51,1.88-1,3.75-1,1.87,2.42,3.75,2.42,1.87-3.4,3.75-3.4,1.87,2.17,3.75,2.17,1.87,1.82,3.75,1.82,1.87-2,3.75-2,1.88.51,3.75.51,2.34-2.71,3.66-1.37,2.21,1.79,2.21,3.69-.33,1.9-.33,3.8-2.84,1.89-2.84,3.79-.8,1.89-.8,3.79,2.11,1.9,2.11,3.79-.6,1.9-.6,3.79,2.08,1.9,2.08,3.79-2.55,1.9-2.55,3.79,2.57,1.9,2.57,3.8.57,1.9.57,3.79-1.34,1.9-1.34,3.8-2.63,1.89-2.63,3.79,4.23,1.89,4.23,3.79-2.3,1.9-2.3,3.79,2.49,1.9,2.49,3.8-3,1.9-3,3.79,2.21,1.9,2.21,3.8.48,1.89.48,3.79-2.08,1.9-2.08,3.8,1.94,1.89,1.94,3.79-2.61,1.9-2.61,3.8-.5,1.9-.5,3.79.14,1.9.14,3.8-1.12,1.9-1.12,3.79,1.23,1.9,1.23,3.8,0,1.9,0,3.8.9,1.89.9,3.79-2.28,1.9-2.28,3.8,3.21,1.9,3.21,3.8.08,1.89.08,3.79,1.28,1.9,1.28,3.8-1.14,1.9-1.14,3.8-3.45,1.89-3.45,3.79-1,1.9-1,3.8,4.57,1.9,4.57,3.8-3.13,1.89-3.13,3.79,1.31,1.9,1.31,3.8,2.71,1.9,2.71,3.79-1.35,1.9-1.35,3.8-1.39,1.9-1.39,3.8-.26,1.9-.26,3.8-1.84,1.9-1.84,3.8,5.1,1.9,5.1,3.8-2.16,1.9-2.16,3.8-.09,1.89-.09,3.79.86,1.9.86,3.8-3.85,1.9-3.85,3.8,4.58,1.51,4.9,3.39S229.24,1075,227.91,1076.38Z"/><path class="cls-31" d="M1935.1,1099.57c-1.54,1.54-4-1.85-6.21-1.85s-2.18.83-4.36.83-2.18.89-4.36.89-2.18-2-4.36-2-2.18-.43-4.37-.43-2.18,3.09-4.36,3.09-2.18-.64-4.36-.64-2.18.28-4.36.28-2.19-3.33-4.37-3.33-2.18-.16-4.37-.16-1.09,1.28-2.64-.26-3.19-.44-3.19-2.61,1.35-2.17,1.35-4.34-1.83-2.18-1.83-4.35-.59-2.17-.59-4.34,5.31-2.17,5.31-4.35-6.08-2.17-6.08-4.34.45-2.18.45-4.35,1.45-2.17,1.45-4.34,1.83-2.17,1.83-4.34-.66-2.17-.66-4.34,1.73-2.17,1.73-4.34-2.45-2.17-2.45-4.34,1.16-2.18,1.16-4.35-1.43-2.17-1.43-4.34,2.74-2.17,2.74-4.34-.3-2.17-.3-4.34-3.29-2.18-3.29-4.35,2.54-2.17,2.54-4.34-1.64-2.18-1.64-4.35,3.56-2.17,3.56-4.34-.32-2.17-.32-4.34.77-2.18.77-4.35-4.07-2.17-4.07-4.35,3.4-2.17,3.4-4.34-1.81-2.17-1.81-4.35,1-2.17,1-4.34-4.18-2.17-4.18-4.35,2.65-2.17,2.65-4.34.73-2.18.73-4.35-.5-2.17-.5-4.35-3-2.17-3-4.34,3.67-2.18,3.67-4.35.5-2.17.5-4.35-3.11-2.17-3.11-4.34,1-2.18,1-4.35,1.79-2.18,1.79-4.35-1.51-2.17-1.51-4.35.33-2.17.33-4.35,1-2.17,1-4.35,1.24-2.17,1.24-4.34-3-2.17-3-4.35-2.19-2.17-2.19-4.35,5.54-2.17,5.54-4.34-4-2.18-4-4.35-1.25-2.17-1.25-4.35,3.13-2.17,3.13-4.35,1.84-2.17,1.84-4.35-5-2.17-5-4.35,5.86-2.17,5.86-4.35-1.12-2.17-1.12-4.35-4.71-2.18-4.71-4.36-.83-5.1.72-6.64,4.46,4.34,6.64,4.34H1894c2.18,0,2.18-2.43,4.36-2.43s2.18,1.34,4.37,1.34,2.18-3.16,4.36-3.16,2.18,3.22,4.36,3.22,2.18-2.53,4.36-2.53,2.19-.5,4.37-.5,2.18,2.88,4.36,2.88,2.19-2.71,4.37-2.71,1,2.08,2.59,3.62,4.35.38,4.35,2.55-5.72,2.17-5.72,4.35,2.4,2.17,2.4,4.34-1.26,2.17-1.26,4.35,1.27,2.17,1.27,4.34,1.55,2.17,1.55,4.35.25,2.17.25,4.34.46,2.17.46,4.34-3.08,2.17-3.08,4.34.54,2.17.54,4.34,0,2.17,0,4.34,1.94,2.17,1.94,4.35,2,2.17,2,4.34-4.12,2.17-4.12,4.35,1.66,2.17,1.66,4.34,2.17,2.17,2.17,4.34-5.7,2.17-5.7,4.34,2.28,2.17,2.28,4.35-1.25,2.17-1.25,4.34,2.06,2.17,2.06,4.35,1.11,2.17,1.11,4.34-3,2.17-3,4.34,4.49,2.18,4.49,4.35-1,2.17-1,4.35-2.25,2.17-2.25,4.34.66,2.17.66,4.35,1.33,2.17,1.33,4.34-1.38,2.17-1.38,4.35,2.34,2.17,2.34,4.34-.83,2.18-.83,4.35.22,2.17.22,4.35,1.34,2.17,1.34,4.34-.44,2.18-.44,4.35-1.38,2.17-1.38,4.35.56,2.17.56,4.35-2.06,2.17-2.06,4.34-2.89,2.18-2.89,4.35,1.63,2.18,1.63,4.35,3.67,2.17,3.67,4.35-.32,2.17-.32,4.35-1.34,2.17-1.34,4.34-.84,2.17-.84,4.35.4,2.17.4,4.35.22,2.17.22,4.34-1.84,2.18-1.84,4.35,4.74,2.18,4.74,4.35-3.1,2.18-3.1,4.35-1.89,2.18-1.89,4.35,5.22,2.18,5.22,4.35.06,2.18.06,4.35-1.81,1.44-1,3.48C1936.81,1095.69,1936.64,1098,1935.1,1099.57Z"/><path class="cls-31" d="M571.59,1084.08c-1.53,1.51-3.49-2.59-5.64-2.59s-2.15-.31-4.31-.31-2.15.75-4.3.75S555.19,1080,553,1080s-2.15,2.16-4.3,2.16-2.16.93-4.31.93-2.15.06-4.31.06-2.15-.27-4.31-.27-2.15-3.09-4.3-3.09-2.16,2.15-4.31,2.15-2.16-.53-4.31-.53-2.16-.56-4.31-.56-4,4.58-5.51,3.07,1.43-3.32,1.43-5.43-.75-2.11-.75-4.22-1.24-2.12-1.24-4.23,4.33-2.11,4.33-4.22-4.65-2.12-4.65-4.23,3.89-2.11,3.89-4.22.43-2.11.43-4.22,1-2.12,1-4.23-.24-2.11-.24-4.22-4.92-2.11-4.92-4.23,0-2.11,0-4.22,4.29-2.12,4.29-4.23-5.31-2.11-5.31-4.22,3.05-2.11,3.05-4.23-2-2.11-2-4.23,3.76-2.11,3.76-4.22S511,1013,511,1010.9s.32-2.11.32-4.22,3.18-2.12,3.18-4.23-.1-2.11-.1-4.23-2.76-2.11-2.76-4.22,3.2-2.12,3.2-4.23.06-2.11.06-4.23-1.92-2.11-1.92-4.23.21-2.11.21-4.22-2.27-2.12-2.27-4.23,4.21-2.12,4.21-4.23,1.52-2.11,1.52-4.23.68-2.11.68-4.23-4.44-2.11-4.44-4.23,4.08-2.11,4.08-4.22.62-2.11.62-4.23-1.85-2.11-1.85-4.22-3.46-2.12-3.46-4.23,5.11-2.12,5.11-4.23-3.35-2.12-3.35-4.23-1-2.12-1-4.23,2.33-2.12,2.33-4.23-3.79-2.12-3.79-4.23,3.33-2.12,3.33-4.23,2-2.12,2-4.23-1.28-2.12-1.28-4.24-.17-2.12-.17-4.24-3.76-3.8-2.25-5.28,3.18-1,5.34-1,2.15,4.28,4.3,4.28,2.15-1,4.31-1,2.15-4.28,4.3-4.28,2.15,1.2,4.3,1.2,2.16,1.94,4.31,1.94,2.16-3,4.31-3,2.15,3.76,4.31,3.76S550.85,900,553,900s2.15-.87,4.3-.87,2.16-4.76,4.31-4.76,2.16,4,4.32,4,4.15-4.58,5.69-3.07,1.32,3.52,1.32,5.63-5.65,2.11-5.65,4.22,1.75,2.11,1.75,4.22,1.47,2.11,1.47,4.23-2.89,2.11-2.89,4.22,4.08,2.11,4.08,4.23.74,2.11.74,4.22-4.61,2.11-4.61,4.22,4.37,2.11,4.37,4.23-4.69,2.11-4.69,4.22,4.12,2.12,4.12,4.23S570,945.29,570,947.4s-1,2.11-1,4.23,2.33,2.11,2.33,4.22-3.85,2.12-3.85,4.23,5.81,2.11,5.81,4.23-.79,2.11-.79,4.22-2,2.11-2,4.23,1.82,2.11,1.82,4.22.76,2.12.76,4.23-3.06,2.11-3.06,4.23,3,2.11,3,4.23.51,2.11.51,4.22-3.64,2.12-3.64,4.23,1.14,2.11,1.14,4.23-4,2.11-4,4.23,3,2.11,3,4.22.74,2.12.74,4.23-1.15,2.12-1.15,4.23-1.56,2.12-1.56,4.23.05,2.11.05,4.22,4,2.12,4,4.23-1.64,2.11-1.64,4.23-1.2,2.11-1.2,4.23-1.67,2.11-1.67,4.22,0,2.12,0,4.23,2.55,2.12,2.55,4.24,2.88,2.11,2.88,4.23.4,2.11.4,4.23-4.89,2.11-4.89,4.23,2,2.11,2,4.23,2.35,2.12,2.35,4.23-3.76,2.38-3.08,4.39C570.8,1081.53,573.1,1082.59,571.59,1084.08Z"/><path class="cls-31" d="M1247.32,1077.76c-1.24,1.27-2.84-2.85-4.61-2.85s-1.77,2.23-3.54,2.23-1.78.51-3.55.51-1.77-3.54-3.54-3.54-1.77,4.06-3.55,4.06-1.77-1.78-3.54-1.78-1.77-1.76-3.54-1.76-1.78,1.31-3.55,1.31-1.77,2.15-3.54,2.15-1.78-2.75-3.56-2.75-2.87,3.2-4.12,1.93,1.54-2.37,1.54-4.18-.09-1.81-.09-3.62,1.68-1.81,1.68-3.63-.48-1.81-.48-3.62-4.29-1.81-4.29-3.62,4.32-1.82,4.32-3.63-1.12-1.82-1.12-3.63,1.14-1.82,1.14-3.63-1.63-1.81-1.63-3.63,1.61-1.81,1.61-3.62.56-1.81.56-3.62-5-1.82-5-3.63,2.26-1.81,2.26-3.63.95-1.81.95-3.63-.24-1.81-.24-3.62.16-1.82.16-3.63-3.27-1.82-3.27-3.63,2.61-1.81,2.61-3.62,1.12-1.82,1.12-3.63-.4-1.82-.4-3.63-1.67-1.82-1.67-3.63,2.15-1.82,2.15-3.63-1.82-1.81-1.82-3.63,1-1.81,1-3.63-1.64-1.81-1.64-3.63,1.38-1.81,1.38-3.63,1.85-1.81,1.85-3.63-4.38-1.81-4.38-3.63.5-1.81.5-3.63.81-1.81.81-3.63-.08-1.81-.08-3.63,2.63-1.81,2.63-3.63.1-1.81.1-3.63.23-1.81.23-3.63-2.22-1.81-2.22-3.63,1-1.81,1-3.63-2.57-1.82-2.57-3.63-.4-1.82-.4-3.63,3.1-1.82,3.1-3.64.22-1.81.22-3.63,0-1.81,0-3.62-2.13-1.82-2.13-3.63,1.37-1.82,1.37-3.63-.27-1.82-.27-3.64-2.7-1.81-2.7-3.63,5-1.81,5-3.63S1207,908,1207,906.17s2.77-1.82,2.77-3.64.31-1.81.31-3.63-3.76-1.82-3.76-3.63,3.19-1.82,3.19-3.64-4.92-1.82-4.92-3.63,3.54-1.82,3.54-3.64-.68-.89.59-2.19.28-4.08,2.06-4.08,1.77,2,3.54,2,1.77,1.71,3.54,1.71,1.77-1.07,3.55-1.07,1.77-1.54,3.54-1.54,1.77,3.18,3.54,3.18,1.77-.9,3.55-.9,1.77,1.32,3.54,1.32,1.77-3.44,3.55-3.44,1.77,1.53,3.55,1.53,1.75-.88,3,.39-1,1.26-1,3.07.53,1.82.53,3.63,2.68,1.81,2.68,3.62-2.51,1.81-2.51,3.62,1.34,1.82,1.34,3.63-2.39,1.81-2.39,3.63,2.8,1.81,2.8,3.63-.77,1.81-.77,3.62,2.43,1.82,2.43,3.63-4.7,1.81-4.7,3.62,1.14,1.82,1.14,3.63-.55,1.81-.55,3.62-.62,1.82-.62,3.63,2.67,1.81,2.67,3.63-.49,1.81-.49,3.63,1.1,1.81,1.1,3.63,1,1.81,1,3.62.33,1.82.33,3.63-4.51,1.81-4.51,3.63,1.47,1.81,1.47,3.63,3,1.81,3,3.63-3.26,1.81-3.26,3.62-1.66,1.82-1.66,3.63,3.64,1.82,3.64,3.63-3.55,1.82-3.55,3.63,4.91,1.82,4.91,3.63-2.49,1.82-2.49,3.63,1.13,1.81,1.13,3.63.28,1.81.28,3.63-4.09,1.82-4.09,3.63,1.09,1.81,1.09,3.63,3.68,1.82,3.68,3.63-.07,1.82-.07,3.63-4.66,1.82-4.66,3.63,2.52,1.82,2.52,3.63.23,1.82.23,3.63.17,1.82.17,3.64.24,1.81.24,3.63-1.65,1.81-1.65,3.63,1.89,1.81,1.89,3.63-.27,1.81-.27,3.63-2.85,1.81-2.85,3.63,1.94,1.81,1.94,3.63-2.43,1.81-2.43,3.63,4.37,1.82,4.37,3.63.25,1.82.25,3.63-2.35,1.82-2.35,3.64-.2,1.81-.2,3.63.24,1.82.24,3.64-.31,1.81-.31,3.63-1.43,1.82-1.43,3.63,1.7,1.82,1.7,3.64-1.64,2.43-1.07,4.16C1245.49,1076,1248.59,1076.45,1247.32,1077.76Z"/><path class="cls-31" d="M1580.27,1081.74c-1.32,1.29-1.87.63-3.71.63s-1.85-1-3.7-1-1.85-1.17-3.7-1.17-1.85.69-3.7.69-1.85,2.8-3.7,2.8-1.85-4.1-3.7-4.1-1.85.42-3.7.42-1.85,3.27-3.7,3.27-1.85-2.93-3.7-2.93-3.12,3.38-4.45,2.09a5.35,5.35,0,0,1-1.55-4.35c0-1.79-.35-1.79-.35-3.59s0-1.79,0-3.58,0-1.79,0-3.58,4.62-1.79,4.62-3.59-.07-1.79-.07-3.58-1.73-1.79-1.73-3.58,2.65-1.8,2.65-3.59-.11-1.8-.11-3.59-3.67-1.79-3.67-3.59.85-1.79.85-3.58,1-1.8,1-3.59-.78-1.79-.78-3.58.69-1.8.69-3.59-3.41-1.79-3.41-3.58,5.34-1.8,5.34-3.59-5-1.8-5-3.59-.21-1.8-.21-3.59.13-1.79.13-3.59,4-1.79,4-3.58-4.35-1.8-4.35-3.59,4.07-1.79,4.07-3.59.61-1.79.61-3.59-3-1.79-3-3.59,1.89-1.79,1.89-3.58-3.06-1.8-3.06-3.59,4-1.8,4-3.59-4.48-1.8-4.48-3.59,2.9-1.8,2.9-3.59.52-1.8.52-3.59-2.71-1.8-2.71-3.59,3-1.8,3-3.59-3.19-1.8-3.19-3.59,3.77-1.8,3.77-3.59-3.93-1.8-3.93-3.59,1.84-1.8,1.84-3.59-1.15-1.8-1.15-3.59,2.85-1.8,2.85-3.59-1.41-1.8-1.41-3.6-1.56-1.79-1.56-3.59,1.2-1.79,1.2-3.58,1.59-1.8,1.59-3.6-3.6-1.79-3.6-3.58.46-1.8.46-3.59,1.5-1.8,1.5-3.59.94-1.8.94-3.6.17-1.79.17-3.59-2.84-1.79-2.84-3.59,1.41-1.8,1.41-3.59.92-1.8.92-3.6-.85-1.79-.85-3.59-1.09-1.8-1.09-3.59,1.48-1.8,1.48-3.6-1.3-1.8-1.3-3.59-.5-1.8-.5-3.6.16-3.31,1.45-4.57S1545.1,881,1547,881s1.85.5,3.7.5,1.84-2.36,3.69-2.36,1.85,3,3.7,3,1.85-.75,3.7-.75,1.85-2.87,3.7-2.87,1.85-.13,3.7-.13,1.85,4,3.7,4,1.85.11,3.71.11,1.13-1.71,2.46-.42,4,.51,4,2.3-4.69,1.8-4.69,3.59.09,1.79.09,3.58,2.72,1.8,2.72,3.59-.22,1.79-.22,3.58,1.86,1.79,1.86,3.58-2.56,1.8-2.56,3.59.84,1.79.84,3.58-3.53,1.8-3.53,3.59,4,1.8,4,3.59.51,1.79.51,3.59-.28,1.79-.28,3.58.92,1.79.92,3.59-.44,1.79-.44,3.58-4,1.8-4,3.59,1.54,1.79,1.54,3.59.21,1.79.21,3.59-1.86,1.79-1.86,3.58,3.28,1.8,3.28,3.59,1,1.79,1,3.59S1581,954.23,1581,956s-2.22,1.8-2.22,3.59,3.77,1.8,3.77,3.59-4.22,1.8-4.22,3.59-.16,1.79-.16,3.59,2.1,1.79,2.1,3.59-1.94,1.79-1.94,3.59-.71,1.79-.71,3.59,0,1.79,0,3.59,4.41,1.79,4.41,3.58-1.19,1.8-1.19,3.6-1.43,1.79-1.43,3.58-1.42,1.8-1.42,3.59,0,1.8,0,3.6,2.08,1.79,2.08,3.59-1.8,1.79-1.8,3.59,1,1.79,1,3.59,3.17,1.79,3.17,3.59-4.44,1.79-4.44,3.59,2.15,1.8,2.15,3.59-.78,1.79-.78,3.59,1.06,1.79,1.06,3.59.23,1.79.23,3.59.93,1.79.93,3.59-1.36,1.79-1.36,3.59.86,1.79.86,3.59.27,1.8.27,3.59-2.76,1.8-2.76,3.59,4.33,1.8,4.33,3.6-4.64,1.79-4.64,3.59,1.25,1.8,1.25,3.6,1.6,1.79,1.6,3.59,1.71,1.8,1.71,3.59-1.63,1.8-1.63,3.6-2.5,2.08-2.11,3.84S1581.56,1080.48,1580.27,1081.74Z"/><path class="cls-31" d="M912.76,1079.17c-1.36,1.41-3.46-.51-5.42-.51s-2-1.29-3.92-1.29-1.95-1.31-3.91-1.31-2,3.81-3.91,3.81-2-4.76-3.92-4.76-2,3-3.92,3-2,1.3-3.91,1.3-2-1.9-3.92-1.9-2-1.8-3.91-1.8-2-.36-3.92-.36-2,1.76-3.93,1.76-3.71,3.1-5.08,1.69,2.1-3.14,2.1-5.16.3-2,.3-4-4.17-2-4.17-4,3.36-2,3.36-4,1.72-2,1.72-4-4.21-2-4.21-4,2.1-2,2.1-4,3-2,3-4-5.62-2-5.62-4,.24-2,.24-4,5.15-2,5.15-4-2.53-2-2.53-4,.2-2,.2-4-2.17-2-2.17-4-.35-2-.35-4,0-2,0-4,3.89-2,3.89-4-.24-2-.24-4-3.49-2-3.49-4,2.66-2,2.66-4,1.56-2,1.56-4-3.25-2-3.25-4-2-2-2-4,4.24-2,4.24-4-3.13-2-3.13-4.05.24-2,.24-4,0-2,0-4,4.48-2,4.48-4.05-4.19-2-4.19-4,.51-2,.51-4-.43-2-.43-4,3.17-2,3.17-4-2.19-2-2.19-4,2.43-2,2.43-4-.78-2-.78-4-1-2-1-4-.16-2-.16-4-1.14-2-1.14-4-.81-2-.81-4,1.77-2,1.77-4-1.66-2-1.66-4,4.14-2,4.14-4,.48-2,.48-4-5.53-2-5.53-4-.47-2-.47-4,1.11-2,1.11-4,4-2,4-4,0-2,0-4-3-2-3-4.05-.37-2.38,1-3.84,1.74-3.26,3.69-3.26,2,3.38,3.92,3.38,1.95-2.48,3.91-2.48,2,.09,3.92.09,2,5.14,3.91,5.14,2-.66,3.92-.66,2-2.85,3.92-2.85,2-2.39,3.91-2.39,2,4.36,3.92,4.36,2-.58,3.91-.58,2,.06,3.93.06,3.83-3.67,5.2-2.26-3.18,3.26-3.18,5.28.3,2,.3,4,4.17,2,4.17,4-.75,2-.75,4-2.13,2-2.13,4,.82,2,.82,4-.69,2-.69,4,1.59,2,1.59,4-1.69,2-1.69,4,.45,2,.45,4-.7,2-.7,4,.83,2,.83,4,.3,2,.3,4,.22,2,.22,4,.82,2,.82,4-.8,2-.8,4-2.69,2-2.69,4,.86,2,.86,4,.46,2,.46,4-2.22,2-2.22,4,4.73,2,4.73,4-3.07,2-3.07,4,2,2,2,4-1.46,2-1.46,4-2.51,2-2.51,4,5.72,2,5.72,4-3.07,2-3.07,4,.65,2,.65,4,0,2,0,4,2,2,2,4-2.11,2-2.11,4-3.19,2-3.19,4,3.78,2,3.78,4,1.19,2,1.19,4-1.48,2-1.48,4,.67,2,.67,4-1.9,2-1.9,4,2.24,2,2.24,4-2.47,2-2.47,4,2.24,2,2.24,4-1.06,2-1.06,4,.12,2,.12,4-.95,2-.95,4.05-2.37,2-2.37,4,3.66,2,3.66,4-2.71,2-2.71,4,4.87,2,4.87,4-3.67,2-3.67,4a8.73,8.73,0,0,0,.71,4.16C912,1076.61,914.17,1077.72,912.76,1079.17Z"/><path class="cls-32" d="M1954.56,939.73c-11.93,13.3-12.49,4.47-30.35,4.47s-17.87,7.12-35.74,7.12-17.86-7.13-35.73-7.13-17.87,5.68-35.74,5.68-17.86-6.75-35.73-6.75-17.87,7.93-35.73,7.93-17.87-15.36-35.74-15.36-17.87,4.26-35.73,4.26-17.87,2.81-35.74,2.81-17.87-6.25-35.73-6.25-17.87,15.1-35.74,15.1-17.87-6.74-35.73-6.74-17.87,3.5-35.74,3.5-17.87-5.45-35.73-5.45-17.87-3.32-35.74-3.32-17.87-2.84-35.73-2.84-17.87.33-35.74.33-17.87,11.75-35.73,11.75-17.87-4-35.74-4-17.87.76-35.74.76-17.87-9.53-35.73-9.53-17.87,15.4-35.74,15.4S1155.9,942,1138,942s-17.87-7.51-35.74-7.51-17.87,9.11-35.74,9.11-17.87-3.15-35.74-3.15-17.86,13.28-35.73,13.28-17.87-16.49-35.74-16.49S941.48,948,923.61,948s-17.87,1.62-35.73,1.62-17.87,1.24-35.74,1.24-17.87-.36-35.73-.36-17.87,3.19-35.74,3.19-17.86-4.43-35.73-4.43-17.87,1.33-35.74,1.33-17.86-4.91-35.73-4.91-17.87-13.1-35.74-13.1S619.87,950,602,950s-17.87,1.23-35.74,1.23-17.87-3-35.74-3-17.87-2.83-35.73-2.83-17.87-9.31-35.74-9.31-17.87,17-35.74,17-17.87-2.1-35.74-2.1-17.87-6.39-35.74-6.39-17.87,7.66-35.74,7.66-17.87-9-35.74-9-17.87.71-35.73.71-17.87-9.67-35.74-9.67-17.87,3-35.74,3-17.87,12.45-35.74,12.45-17.87-2.12-35.75-2.12-17.87,3.73-35.74,3.73S48,940.83,30.16,940.83,4.3,959.71-7.64,946.41c-13.3-14.81-1.83-21.75-1.83-41.66s-8.36-24,4.93-38.86c11.94-13.3,16.83-12.35,34.69-12.35S48,873.41,65.89,873.41s17.86,1,35.73,1,17.87-6.53,35.73-6.53,17.87,8.34,35.74,8.34S191,858,208.82,858s17.87,16.45,35.74,16.45,17.86-3.25,35.73-3.25,17.87-13.7,35.74-13.7,17.86,9.79,35.73,9.79,17.87,5.86,35.74,5.86,17.86-17.7,35.73-17.7S441.1,872.55,459,872.55s17.86-10,35.73-10,17.87-8.88,35.74-8.88,17.87,6.05,35.73,6.05,17.87-6.06,35.74-6.06,17.87.53,35.73.53,17.87,8.68,35.74,8.68,17.87-5.53,35.74-5.53,17.86-2.94,35.73-2.94,17.87,1.07,35.74,1.07,17.87,5.84,35.73,5.84,17.87,6.05,35.74,6.05,17.87-2.72,35.74-2.72,17.87-8.54,35.73-8.54,17.87,19.3,35.74,19.3S977.14,854.3,995,854.3s17.87,6,35.74,6,17.86,6.43,35.73,6.43,17.87-9.24,35.74-9.24,17.87,12.3,35.73,12.3,17.87,1.38,35.73,1.38,17.87-15,35.74-15,17.87,15,35.74,15S1263,867,1280.89,867s17.87-5.1,35.74-5.1,17.86,10.35,35.73,10.35,17.87-9.37,35.74-9.37,17.87-5.05,35.74-5.05,17.86-.38,35.73-.38,17.87-2.34,35.74-2.34,17.87,21.77,35.74,21.77,17.87-9.72,35.74-9.72,17.87,1,35.74,1,17.87-1,35.74-1,17.87-11.89,35.74-11.89,17.87,18.64,35.73,18.64,17.87-20,35.74-20,17.87,10.47,35.74,10.47,17.87-8.19,35.74-8.19,17.87,10.38,35.75,10.38,17.87-8.11,35.74-8.11,17.87,17.33,35.74,17.33,31.16-30.82,43.11-17.52c13.29,14.81-10.38,26.74-7.78,46.47C1962,923.22,1967.86,924.92,1954.56,939.73Z"/></g></g></g></g></svg>