<svg xmlns="http://www.w3.org/2000/svg" xmlns:xlink="http://www.w3.org/1999/xlink" width="677.33mm" height="381mm" viewBox="0 0 1920 1080"><defs><style>.cls-1{isolation:isolate;}.cls-2{fill:url(#linear-gradient);}.cls-3{fill:#96a65d;}.cls-4{fill:#6f8c30;}.cls-5{fill:#387404;mix-blend-mode:darken;}.cls-6{fill:#f2e641;}.cls-7{fill:#fff;}.cls-8{opacity:0.92;}.cls-9{opacity:0.77;}.cls-10{fill:#10735a;}.cls-11{fill:#e1ab85;}.cls-12{fill:#a67c52;}.cls-13{fill:#b9121b;}.cls-14{fill:#4c1b1b;}.cls-15{fill:#8c6239;}.cls-16{fill:#ff836a;}.cls-17{fill:#be393a;}.cls-18{fill:#4d4d4d;}.cls-19{fill:#b88d1e;}.cls-20{fill:#8c8c80;}.cls-21{fill:#104639;}.cls-22{fill:#754c24;}.cls-23{fill:url(#linear-gradient-2);}</style><linearGradient id="linear-gradient" x1="106.29" y1="1174.47" x2="2295.26" y2="-452.74" gradientUnits="userSpaceOnUse"><stop offset="0" stop-color="#4cacf7"/><stop offset="1" stop-color="#fff"/></linearGradient><linearGradient id="linear-gradient-2" x1="31.16" y1="1075.11" x2="1988.77" y2="1075.11" gradientTransform="matrix(1.01, 0.04, -0.03, 1.15, -12.47, -370.86)" gradientUnits="userSpaceOnUse"><stop offset="0" stop-color="#8c6239"/><stop offset="0.49" stop-color="#724922"/><stop offset="0.55" stop-color="#6f4721"/><stop offset="1" stop-color="#42210b"/></linearGradient></defs><g class="cls-1"><g id="Layer_1" data-name="Layer 1"><g id="BG5"><rect class="cls-2" x="-0.13" y="0.32" width="1919" height="1080"/><ellipse class="cls-3" cx="1511.41" cy="802.61" rx="474.96" ry="184.79"/><ellipse class="cls-4" cx="535.87" cy="841.48" rx="575.5" ry="223.91"/><ellipse class="cls-5" cx="989.9" cy="1039.36" rx="1105.54" ry="236.29"/><path class="cls-6" d="M1888.08,162.32c0,1.48-84,.9-84.08,2.37s83.59,9.08,83.45,10.54-83.69-7.31-83.91-5.86,82.3,17.21,82,18.65-82.58-15.45-82.94-14,80.25,25.11,79.82,26.52-80.71-23.31-81.2-21.93,77.5,32.62,76.94,34-78.17-30.78-78.79-29.44,74.16,39.62,73.48,40.92-75.08-37.71-75.81-36.43,70.37,46,69.58,47.27-71.54-44.08-72.38-42.87,66.22,51.82,65.33,53S1792,195.18,1791,196.32s61.81,57,60.83,58.09-63.5-55-64.53-54,57.25,61.59,56.18,62.61-59.18-59.65-60.28-58.67S1835.76,270,1834.63,271s-54.74-63.76-55.91-62.86,47.81,69.18,46.61,70-50.21-67.39-51.44-66.57,43,72.25,41.76,73S1770,214,1768.75,214.76s38.2,74.9,36.9,75.6-41-73.36-42.32-72.71,33.4,77.17,32.05,77.78-36.35-75.76-37.71-75.19,28.6,79.07,27.22,79.59-31.7-77.82-33.1-77.34,23.83,80.64,22.42,81.09-27-79.57-28.47-79.16,19.08,81.89,17.65,82.25-22.41-81-23.85-80.67,14.35,82.84,12.9,83.13-17.78-82.14-19.23-81.9,9.67,83.52,8.21,83.72-13.17-83-14.64-82.84,5,83.93,3.56,84.05-8.59-83.6-10.06-83.52.45,84.08-1,84.12-4.07-83.95-5.54-83.95-4.08,84-5.54,83.95.44-84-1-84.12-8.61,83.64-10.07,83.52,5-83.89,3.57-84.05-13.19,83-14.64,82.84,9.65-83.48,8.21-83.72-17.8,82.18-19.24,81.9,14.34-82.81,12.91-83.13-22.43,81-23.85,80.67,19-81.85,17.64-82.25-27.08,79.6-28.47,79.16,23.8-80.6,22.42-81.09-31.73,77.87-33.1,77.34,28.57-79,27.22-79.59-36.38,75.8-37.71,75.19,33.36-77.13,32-77.78-41,73.4-42.32,72.71,38.17-74.87,36.9-75.6-45.66,70.61-46.9,69.83,43-72.21,41.76-73-50.25,67.42-51.44,66.56,47.77-69.13,46.61-70-54.79,63.79-55.91,62.85,52.51-65.59,51.42-66.57-59.23,59.68-60.29,58.67,57.2-61.55,56.18-62.61-63.55,55.05-64.53,54,61.77-57,60.84-58.09-67.7,49.86-68.59,48.7,66.17-51.78,65.34-53-71.6,44.09-72.38,42.85,70.31-46,69.58-47.26-75.14,37.73-75.82,36.43,74.11-39.58,73.49-40.92-78.24,30.79-78.79,29.43,77.43-32.59,76.94-34-80.78,23.33-81.2,21.92,80.17-25.09,79.82-26.51-82.65,15.46-82.94,14,82.24-17.19,82-18.64-83.76,7.32-83.9,5.86,83.51-9.07,83.44-10.54-84.07-.89-84.07-2.37,84-.9,84.07-2.36-83.59-9.08-83.44-10.54,83.69,7.31,83.9,5.86-82.3-17.21-82-18.65,82.57,15.44,82.93,14-80.24-25.12-79.82-26.52,80.71,23.31,81.2,21.93-77.49-32.63-76.94-34,78.18,30.77,78.8,29.44-74.17-39.62-73.49-40.93,75.08,37.71,75.81,36.44S1560,91,1560.8,89.75s71.53,44.07,72.37,42.86-66.22-51.81-65.33-53,67.65,49.84,68.59,48.7-61.82-57-60.84-58.09,63.51,55,64.53,54-57.24-61.59-56.18-62.61,59.18,59.65,60.29,58.67-52.56-65.63-51.43-66.57,54.74,63.75,55.91,62.85-47.8-69.17-46.6-70,50.2,67.39,51.43,66.57-43-72.25-41.76-73,45.62,70.57,46.9,69.84-38.2-74.9-36.9-75.6,41,73.36,42.32,72.7-33.39-77.16-32-77.78,36.36,75.77,37.72,75.2-28.6-79.07-27.23-79.6,31.71,77.83,33.1,77.34-23.83-80.63-22.42-81.08,27,79.57,28.47,79.16S1662.62,18.34,1664.05,18s22.41,81,23.85,80.67S1673.54,15.8,1675,15.52s17.78,82.14,19.24,81.9-9.67-83.52-8.21-83.73,13.17,83,14.63,82.85-5-83.93-3.56-84.05,8.59,83.6,10.07,83.52-.46-84.08,1-84.12,4.06,83.94,5.54,83.94,4.07-84,5.53-83.94-.44,84,1,84.12,8.61-83.64,10.07-83.52-5,83.89-3.56,84.05,13.18-83,14.63-82.85-9.65,83.49-8.2,83.73,17.79-82.18,19.23-81.9-14.33,82.81-12.9,83.13,22.42-81,23.84-80.67-19.05,81.85-17.64,82.25,27.08-79.6,28.48-79.16-23.81,80.6-22.42,81.08,31.73-77.86,33.1-77.34-28.58,79-27.23,79.6,36.39-75.8,37.72-75.19S1762,106.34,1763.33,107s41-73.39,42.33-72.7-38.18,74.87-36.91,75.6,45.66-70.61,46.9-69.84-43,72.22-41.75,73,50.24-67.42,51.43-66.57-47.76,69.14-46.6,70,54.78-63.79,55.91-62.86-52.52,65.6-51.43,66.58,59.24-59.68,60.29-58.67-57.2,61.55-56.18,62.61,63.56-55,64.53-54-61.77,57-60.84,58.09,67.7-49.87,68.59-48.7-66.17,51.78-65.33,53,71.59-44.09,72.38-42.85-70.32,46-69.59,47.25,75.15-37.73,75.82-36.42-74.11,39.58-73.49,40.91,78.24-30.79,78.8-29.43-77.44,32.6-77,34,80.78-23.33,81.21-21.92-80.18,25.08-79.82,26.51,82.64-15.46,82.93-14-82.23,17.19-82,18.65,83.76-7.33,83.91-5.86S1803.93,158.49,1804,160,1888.08,160.85,1888.08,162.32Z"/><circle class="cls-7" cx="1666.95" cy="130.99" r="5.14"/><circle class="cls-7" cx="1729.62" cy="134.73" r="5.14"/><path class="cls-7" d="M1754.4,180.1c-6.3,8.82-18.7,15-43,19.64-23.34,4.48-37.16-10.52-43-19.64-8.42-13.1,19.27,7.9,43,8.41C1735.63,189,1759.08,173.55,1754.4,180.1Z"/><g id="cloud1" class="cls-8"><ellipse class="cls-7" cx="154.87" cy="155.82" rx="88.5" ry="70"/><ellipse class="cls-7" cx="243.87" cy="127.32" rx="66.5" ry="58.5"/><ellipse class="cls-7" cx="215.87" cy="234.82" rx="85.5" ry="67"/><ellipse class="cls-7" cx="108.37" cy="257.82" rx="55" ry="105" transform="translate(-165.15 199.47) rotate(-55.16)"/></g><g id="cloud2"><ellipse class="cls-7" cx="722.87" cy="162.93" rx="96.5" ry="79.11"/><ellipse class="cls-7" cx="806.37" cy="185.82" rx="83" ry="56"/><ellipse class="cls-7" cx="693.87" cy="256.32" rx="96.5" ry="43.5"/><ellipse class="cls-7" cx="887.87" cy="250.32" rx="121.5" ry="49.5"/><ellipse class="cls-7" cx="842.37" cy="163.32" rx="67" ry="49.5"/></g><g id="cloud3" class="cls-9"><ellipse class="cls-7" cx="1257.87" cy="135.82" rx="108.5" ry="64"/><ellipse class="cls-7" cx="1396.87" cy="185.82" rx="74.5" ry="60"/><ellipse class="cls-7" cx="1282.87" cy="208.82" rx="73.5" ry="46"/></g><g id="thinking"><path class="cls-10" d="M986.78,824.7,966.22,957.46c-22.67-20.77-37.77-73.83-37.77-132.76,0-77.82,26.33-141.86,58.33-141.86s58.34,64,58.34,141.86c0,56.7-14,108.19-35.42,130.46Z"/><path d="M1089.74,591.47c-4.57,8.76-30.3-14.87-38.63-9.57s8.24,31.35-.09,36.65-24.9-20.75-33.23-15.45,2,38.72-7.86,39.06-1.77-33.71-10.42-38.43-23.46,22.36-32.11,17.64,6.15-31.83-2.5-36.56-32.77,20.54-37.9,12.12,28.3-18.55,28-28.58-31.18-9-31.5-19.06,30.53-11,30.21-21-34.4-17.81-29.76-26.71c4.57-8.75,30.3,14.87,38.63,9.58s-8.24-31.35.09-36.65,24.9,20.75,33.23,15.44-2-38.72,7.86-39,1.77,33.7,10.42,38.43,23.46-22.37,32.11-17.64-6.15,31.83,2.5,36.55,32.78-20.54,37.9-12.11-28.29,18.55-28,28.57,31.18,9,31.5,19.07-33.09,18.64-28.53,27.58C1069,585.63,1094.38,582.58,1089.74,591.47Z"/><path d="M1048.19,591.39c-4.57,8.75-30.3-14.87-38.63-9.57s8.25,31.35-.08,36.65S984.57,597.72,976.24,603s2,38.72-7.85,39.06-1.77-33.71-10.43-38.44S934.51,626,925.85,621.28s6.15-31.82-2.5-36.55-32.77,20.54-37.9,12.12c-5.21-8.58,28.3-18.55,28-28.58s-31.18-9-31.5-19.06,30.54-11,30.21-21.05-34.4-17.82-29.76-26.71S912.67,516.32,921,511s-8.24-31.35.09-36.65,24.9,20.75,33.23,15.45-2-38.72,7.86-39.05,1.77,33.7,10.42,38.43,23.46-22.37,32.11-17.64-6.15,31.82,2.5,36.55,32.78-20.54,37.9-12.11-28.29,18.54-28,28.57,31.18,9,31.51,19.06-33.1,18.65-28.53,27.59C1027.45,585.55,1052.84,582.5,1048.19,591.39Z"/><ellipse class="cls-11" cx="1060.4" cy="663.97" rx="35.5" ry="8.87" transform="translate(-105.66 1117.43) rotate(-53.3)"/><ellipse class="cls-11" cx="986.71" cy="581.87" rx="76.01" ry="77.14"/><ellipse class="cls-12" cx="960.85" cy="953.34" rx="8.26" ry="24.37"/><ellipse class="cls-12" cx="1014.14" cy="951.11" rx="7.03" ry="20.55"/><rect class="cls-13" x="1008.66" y="961.81" width="10.92" height="17.79" rx="2.84"/><rect class="cls-14" x="1008.51" y="969.94" width="22.6" height="11.34" rx="2.84"/><rect class="cls-13" x="954.23" y="964.52" width="12.7" height="22.56" rx="2.84"/><rect class="cls-14" x="941.99" y="975.35" width="25.87" height="13.17" rx="2.84"/><ellipse class="cls-15" cx="974.09" cy="577.38" rx="6.7" ry="9.56"/><ellipse class="cls-15" cx="1012.72" cy="577.7" rx="7.32" ry="10.83"/><path class="cls-16" d="M997.84,627.26l-24.5,8.09c0-.94,10.75-5.28,24-9.67,11.7-3.88,22-6.7,24.47-6.69Z"/><ellipse class="cls-17" cx="989.98" cy="687.94" rx="45.24" ry="28.99"/><path class="cls-18" d="M961.92,708.24a4.7,4.7,0,1,0,9.39,0V668a4.7,4.7,0,1,0-9.39,0Z"/><ellipse class="cls-17" cx="1040.83" cy="683.74" rx="21.59" ry="11.62" transform="matrix(0.86, -0.52, 0.52, 0.86, -203.5, 634.05)"/><path class="cls-18" d="M1006.46,710a4.24,4.24,0,0,0,8.47,0V666.53a4.24,4.24,0,0,0-8.47,0Z"/><ellipse cx="986.86" cy="522.9" rx="66.67" ry="29.15"/><ellipse cx="933.89" cy="540.71" rx="33.66" ry="13.82" transform="matrix(0.6, -0.8, 0.8, 0.6, -56.47, 969.31)"/><ellipse cx="1042.58" cy="544.16" rx="9.47" ry="33.66" transform="translate(-118.63 730.39) rotate(-36.67)"/><ellipse class="cls-19" cx="1010.85" cy="708.17" rx="4.05" ry="4.14"/><ellipse class="cls-20" cx="1010.85" cy="708.49" rx="0.93" ry="0.96"/><ellipse class="cls-19" cx="966.61" cy="706.74" rx="3.74" ry="3.66"/><ellipse class="cls-20" cx="966.61" cy="707.37" rx="0.62" ry="0.8"/><path class="cls-21" d="M955,758.87l16.41.64c-.14,22.63-7.5,41.06-16.41,41.06s-16.4-18.83-16.4-41.7Z"/><ellipse class="cls-11" cx="1074.42" cy="624.36" rx="5.51" ry="21.68" transform="translate(-137.82 351.11) rotate(-17.46)"/><ellipse class="cls-11" cx="1065.94" cy="597.94" rx="9.34" ry="9.55"/><ellipse class="cls-11" cx="925.95" cy="733.32" rx="44.68" ry="10.36" transform="translate(73.44 1550.87) rotate(-82.18)"/><ellipse class="cls-11" cx="920.58" cy="772.61" rx="21.72" ry="5.45" transform="translate(77.29 1628.9) rotate(-85.44)"/><ellipse class="cls-17" cx="935.58" cy="694.34" rx="20.84" ry="13.38" transform="translate(-122.44 1182.21) rotate(-61.34)"/><ellipse class="cls-11" cx="920.14" cy="790.94" rx="9.34" ry="9.55"/></g><g id="bridge"><path class="cls-22" d="M222.49,1080c-1.31,1.33-2-2.06-3.87-2.06s-1.87-.12-3.75-.12-1.87,2.71-3.74,2.71-1.88-3.5-3.75-3.5-1.88.89-3.75.89-1.88,4.8-3.75,4.8-1.88-2.16-3.75-2.16-1.88-.13-3.75-.13-1.88.78-3.75.78-1.88-1.74-3.75-1.74-1.88,3-3.76,3-2.72-1-4.05-2.32,1.76-2.18,1.76-4.08-3.71-1.9-3.71-3.79,2.06-1.9,2.06-3.8.95-1.89.95-3.79,1.2-1.89,1.2-3.79-.07-1.89-.07-3.79-4.89-1.9-4.89-3.79,4.94-1.9,4.94-3.79-3.34-1.9-3.34-3.8,2.1-1.9,2.1-3.79-.21-1.9-.21-3.8-2.46-1.89-2.46-3.79,2.48-1.89,2.48-3.79-1.42-1.9-1.42-3.79-1-1.9-1-3.8,1.58-1.9,1.58-3.79-.6-1.9-.6-3.8.35-1.89.35-3.79,1.17-1.9,1.17-3.8-.63-1.89-.63-3.79,1-1.9,1-3.8,1.77-1.89,1.77-3.79-.79-1.9-.79-3.8-2.52-1.9-2.52-3.79,3.43-1.9,3.43-3.8-.71-1.9-.71-3.79-.33-1.9-.33-3.8-3.53-1.9-3.53-3.8,3.74-1.9,3.74-3.79-4.93-1.9-4.93-3.8.13-1.9.13-3.8,4.59-1.9,4.59-3.8-1.23-1.89-1.23-3.79-1.53-1.9-1.53-3.8,2.37-1.9,2.37-3.8.18-1.89.18-3.79-.14-1.9-.14-3.8-4-1.89-4-3.79,5.25-1.9,5.25-3.8-.5-1.9-.5-3.8.4-1.9.4-3.8-1.35-1.9-1.35-3.8-1.17-1.9-1.17-3.8,2.69-1.9,2.69-3.8-4-1.89-4-3.79-.76-1.9-.76-3.8-.26-1.9-.26-3.8,4.65-1.91,4.65-3.81-5.32-4-4-5.41,3.5,1.9,5.37,1.9,1.87-.79,3.75-.79,1.87-.37,3.75-.37,1.87,1.18,3.74,1.18,1.88-2.93,3.75-2.93,1.88,1.95,3.75,1.95,1.88-1.74,3.75-1.74,1.88,1.11,3.75,1.11,1.88.85,3.75.85,1.88,3.13,3.75,3.13,1.88-2.32,3.76-2.32.4.32,1.72,1.65,2.5-.12,2.5,1.78,2.24,1.89,2.24,3.79-1.61,1.9-1.61,3.8-.58,1.89-.58,3.79-2.82,1.89-2.82,3.79,4.35,1.89,4.35,3.79-1.15,1.89-1.15,3.79-3.87,1.89-3.87,3.79,1.54,1.9,1.54,3.79,1.82,1.9,1.82,3.8-1,1.9-1,3.79-.54,1.9-.54,3.79,1.65,1.9,1.65,3.8-.3,1.89-.3,3.79-1.59,1.9-1.59,3.8,4.33,1.89,4.33,3.79-1.49,1.9-1.49,3.79-3.74,1.9-3.74,3.8,1.24,1.9,1.24,3.79,3.25,1.9,3.25,3.8-.71,1.9-.71,3.79-3,1.9-3,3.8-.36,1.9-.36,3.79.4,1.9.4,3.8.31,1.9.31,3.8,4.06,1.89,4.06,3.79-1.72,1.9-1.72,3.8-2.18,1.9-2.18,3.79,3.61,1.9,3.61,3.8-5,1.9-5,3.8,1.77,1.9,1.77,3.8-2.23,1.89-2.23,3.79.64,1.9.64,3.8,2.19,1.9,2.19,3.8.17,1.9.17,3.79-.24,1.9-.24,3.8v3.79c0,1.9-.83,1.9-.83,3.8s0,1.9,0,3.8.16,1.9.16,3.79,2.66,1.9,2.66,3.8.71,1.9.71,3.8-2.57,1.9-2.57,3.8-3,1.9-3,3.8,2,1.9,2,3.8-1.52,1.9-1.52,3.8,1.9,1.9,1.9,3.8,1.46,1.65,1.88,3.5A3.71,3.71,0,0,1,222.49,1080Z"/><path class="cls-22" d="M1929.47,1102.93c-1.54,1.54-4.29-1-6.47-1s-2.18-.07-4.36-.07-2.18-3-4.36-3-2.18,4.34-4.36,4.34-2.18.14-4.36.14-2.18-2.62-4.37-2.62-2.18,2.18-4.36,2.18-2.18-5.15-4.36-5.15-2.18,1.37-4.37,1.37-2.18,4.84-4.37,4.84-.57-3.84-2.12-5.38.82.08.82-2.09-3.81-2.17-3.81-4.35-1.88-2.17-1.88-4.34,1.76-2.17,1.76-4.35-.66-2.17-.66-4.34,1.47-2.17,1.47-4.35-1.55-2.17-1.55-4.34,1.58-2.17,1.58-4.34-2.07-2.17-2.07-4.34,3.33-2.17,3.33-4.34-4.62-2.17-4.62-4.34.89-2.17.89-4.35-.21-2.17-.21-4.34.12-2.17.12-4.34,3.87-2.18,3.87-4.35-1.87-2.17-1.87-4.34-.31-2.17-.31-4.34-1.78-2.17-1.78-4.35,2.94-2.17,2.94-4.34.25-2.17.25-4.35,0-2.17,0-4.34-2.3-2.17-2.3-4.34.8-2.18.8-4.35-1.63-2.17-1.63-4.35,2.55-2.17,2.55-4.34,3.47-2.17,3.47-4.34-1.28-2.18-1.28-4.35v-4.35c0-2.17-2.09-2.17-2.09-4.34s-2.38-2.18-2.38-4.35,4.93-2.17,4.93-4.35-.77-2.17-.77-4.34-.9-2.18-.9-4.35.78-2.17.78-4.35-3.11-2.17-3.11-4.35-1.55-2.17-1.55-4.34,5.85-2.18,5.85-4.35-6.24-2.18-6.24-4.35,3.68-2.17,3.68-4.35-3-2.17-3-4.35,2.1-2.17,2.1-4.34-1.86-2.17-1.86-4.35,1.72-2.17,1.72-4.34-1.31-2.18-1.31-4.35,1.42-2.18,1.42-4.35-1.52-2.18-1.52-4.35.7-2.18.7-4.35,2.22-2.18,2.22-4.35-2.45-2.18-2.45-4.35,4.67-2.18,4.67-4.35-.78-2.18-.78-4.36-3.65-2.77-2.11-4.31,2.14-1.14,4.32-1.14,2.18-1.39,4.36-1.39,2.18,2.4,4.36,2.4,2.18-3,4.36-3,2.18,3.76,4.36,3.76,2.18,2.16,4.37,2.16,2.18-.07,4.36-.07,2.18-6,4.36-6,2.18.28,4.37.28,2.18,3.9,4.37,3.9,1.6-1.18,3.15.36,2.09,1,2.09,3.13-4,2.17-4,4.34,4.88,2.18,4.88,4.35S1926,890,1926,892.2s4.69,2.18,4.69,4.35-5.29,2.17-5.29,4.34,3.73,2.18,3.73,4.35-1.34,2.17-1.34,4.34,2.68,2.17,2.68,4.34-5.34,2.17-5.34,4.34,4,2.17,4,4.34,1.21,2.17,1.21,4.34-.15,2.18-.15,4.35-3.33,2.17-3.33,4.34,1.31,2.17,1.31,4.34,1.55,2.17,1.55,4.34-3.58,2.18-3.58,4.35,1,2.17,1,4.34,0,2.18,0,4.35.14,2.17.14,4.34.44,2.17.44,4.35-3.7,2.17-3.7,4.34,2.88,2.17,2.88,4.35,3.24,2.17,3.24,4.34.09,2.17.09,4.35-5.56,2.17-5.56,4.34,2.43,2.18,2.43,4.35,3.48,2.17,3.48,4.34-4.5,2.18-4.5,4.35-.65,2.17-.65,4.35,4.29,2.17,4.29,4.34-.69,2.18-.69,4.35-3,2.17-3,4.35-.4,2.17-.4,4.35,2.69,2.17,2.69,4.34-2.32,2.18-2.32,4.35-1,2.17-1,4.35,3.44,2.17,3.44,4.35-.26,2.17-.26,4.35-.85,2.17-.85,4.34.9,2.18.9,4.35-.64,2.17-.64,4.35,2.73,2.17,2.73,4.34-1.24,2.18-1.24,4.35-4.81,2.17-4.81,4.35,5.65,2.17,5.65,4.35-5.08,2.17-5.08,4.35,1.83,2.17,1.83,4.35.27,2.17.27,4.35,2.59,2.17,2.59,4.35-1.83,1.92-1,4C1929.72,1099.4,1931,1101.39,1929.47,1102.93Z"/><path class="cls-22" d="M563.51,1085c-1.53,1.51-1.3,1.44-3.45,1.44s-2.15-2.8-4.3-2.8-2.15-.35-4.31-.35-2.15,3.3-4.3,3.3-2.16-3-4.31-3-2.15,1.94-4.31,1.94-2.15,1-4.3,1-2.16-4.08-4.31-4.08-2.15.4-4.31.4-2.15,3.79-4.31,3.79-2.15.21-4.31.21-2.15.21-4.31.21-1.47-1.09-3-2.6-1.19-.78-1.19-2.89,2.6-2.11,2.6-4.22-.71-2.11-.71-4.22-4.63-2.11-4.63-4.23,4.94-2.11,4.94-4.22-1.28-2.11-1.28-4.23,1.31-2.11,1.31-4.22-.13-2.11-.13-4.22.66-2.11.66-4.22.44-2.12.44-4.23-2.35-2.11-2.35-4.23-2.05-2.11-2.05-4.22,1.11-2.11,1.11-4.23-1.09-2.11-1.09-4.22-1.43-2.12-1.43-4.23,5-2.11,5-4.22-2-2.12-2-4.23,2.36-2.11,2.36-4.23-5.88-2.11-5.88-4.22,2.95-2.12,2.95-4.23,2.46-2.11,2.46-4.23-2.08-2.11-2.08-4.23-.29-2.11-.29-4.22,1.18-2.12,1.18-4.23,1-2.11,1-4.23-4.61-2.11-4.61-4.23-.86-2.11-.86-4.22,2.21-2.12,2.21-4.23-2.07-2.12-2.07-4.23,3-2.12,3-4.23.33-2.11.33-4.22-3.1-2.12-3.1-4.23,5.91-2.11,5.91-4.23-.48-2.11-.48-4.23-3.15-2.11-3.15-4.22.25-2.12.25-4.23-2.78-2.12-2.78-4.23,1.31-2.12,1.31-4.24,3.69-2.11,3.69-4.23-2.31-2.11-2.31-4.23-1.13-2.11-1.13-4.23-.43-2.11-.43-4.23.45-2.12.45-4.24-.59-3.52.92-5,2.91,2.92,5.06,2.92,2.15,1,4.3,1,2.16-2.63,4.31-2.63,2.15.75,4.3.75,2.16-3.13,4.31-3.13,2.15,1,4.31,1,2.15,3.77,4.3,3.77,2.16-4.66,4.31-4.66,2.16,1.24,4.31,1.24,2.15,1.18,4.31,1.18,2.15.31,4.31.31,2.15-.27,4.31-.27,3.33-2.75,4.88-1.24-1.57,2.68-1.57,4.79,3.59,2.11,3.59,4.22-5.11,2.12-5.11,4.23,1.57,2.11,1.57,4.22.56,2.12.56,4.23.78,2.11.78,4.22.61,2.11.61,4.23,1.53,2.11,1.53,4.22-1.72,2.11-1.72,4.22-2.43,2.12-2.43,4.23-1.59,2.11-1.59,4.22.29,2.12.29,4.23,4.43,2.11,4.43,4.22-2.29,2.12-2.29,4.23-.29,2.11-.29,4.23,1.73,2.11,1.73,4.22-.79,2.11-.79,4.23-1.63,2.11-1.63,4.22-1.14,2.12-1.14,4.23-.23,2.11-.23,4.23,1.21,2.11,1.21,4.22,4.23,2.12,4.23,4.23-.15,2.12-.15,4.23-.7,2.11-.7,4.23-1.68,2.11-1.68,4.22-1.79,2.12-1.79,4.23-.75,2.12-.75,4.23,5.3,2.12,5.3,4.23-4.93,2.11-4.93,4.23,2.34,2.11,2.34,4.23,1.5,2.11,1.5,4.22-.65,2.11-.65,4.23-1.8,2.11-1.8,4.22-.18,2.12-.18,4.23,2.17,2.12,2.17,4.23-3.54,2.12-3.54,4.23,3.19,2.12,3.19,4.23-.86,2.12-.86,4.23,1.9,2.12,1.9,4.23.55,2.12.55,4.23-2.24,2.12-2.24,4.23-2.09,2.12-2.09,4.24a30.17,30.17,0,0,0,0,4.46C562.48,1083.63,565,1083.47,563.51,1085Z"/><path class="cls-22" d="M1241.89,1081.31c-1.23,1.27-3.3,1.26-5.07,1.26s-1.77-4-3.54-4-1.77,1.08-3.54,1.08-1.78.17-3.55.17-1.77-2.21-3.54-2.21-1.77.2-3.54.2-1.78,4.2-3.55,4.2-1.77-4.74-3.54-4.74-1.78,1.6-3.55,1.6-1.78,3.54-3.55,3.54-4.05.36-5.3-.91,2.73-3.52,2.73-5.33-3.6-1.82-3.6-3.63,2.36-1.81,2.36-3.62,1.78-1.81,1.78-3.62-.88-1.82-.88-3.63-1-1.81-1-3.62,1.31-1.82,1.31-3.63.93-1.82.93-3.63-.21-1.82-.21-3.63-.07-1.81-.07-3.62-1.42-1.82-1.42-3.63,2.38-1.81,2.38-3.62-2.89-1.82-2.89-3.63,1.78-1.81,1.78-3.63-.82-1.81-.82-3.63-.6-1.81-.6-3.63.17-1.81.17-3.62,1.52-1.82,1.52-3.63-.58-1.81-.58-3.63-2.54-1.81-2.54-3.63,3.85-1.81,3.85-3.63-1.17-1.81-1.17-3.62-1.71-1.82-1.71-3.63.93-1.82.93-3.63,1.75-1.82,1.75-3.63-3.64-1.82-3.64-3.63.66-1.81.66-3.63.64-1.81.64-3.63-1.59-1.81-1.59-3.63,1.41-1.81,1.41-3.63,1.43-1.81,1.43-3.63.46-1.81.46-3.63-1.36-1.82-1.36-3.63-2.08-1.82-2.08-3.63,3.16-1.82,3.16-3.63.32-1.82.32-3.63-2.37-1.82-2.37-3.64,1.67-1.81,1.67-3.63-1.1-1.81-1.1-3.63,2.38-1.81,2.38-3.63-4.51-1.81-4.51-3.63,1.18-1.81,1.18-3.63,1.4-1.81,1.4-3.63-1.87-1.81-1.87-3.63,2.45-1.82,2.45-3.63.4-1.82.4-3.63-1.25-1.82-1.25-3.64-2.75-1.81-2.75-3.63,1.18-1.82,1.18-3.64.25-1.81.25-3.63,3.74-1.81,3.74-3.63-1.36-1.82-1.36-3.64-1.31-1.82-1.31-3.64,1-.33,2.26-1.64-.28-2.42,1.49-2.42,1.77-1.09,3.54-1.09,1.77,2.37,3.54,2.37,1.78-2.58,3.55-2.58,1.77,3.74,3.54,3.74,1.77-3.85,3.55-3.85,1.77.94,3.54.94,1.77,1.73,3.55,1.73,1.77.73,3.54.73,1.78-1.79,3.55-1.79.32.91,1.56,2.18,1.3-.14,1.3,1.67-.36,1.81-.36,3.62,1.14,1.82,1.14,3.63-1.66,1.81-1.66,3.62.2,1.81.2,3.62-.82,1.82-.82,3.63-.15,1.82-.15,3.63,2.08,1.82,2.08,3.63-1.66,1.81-1.66,3.63,1.91,1.81,1.91,3.62,1.6,1.81,1.6,3.62-3.58,1.82-3.58,3.63.38,1.81.38,3.63.58,1.81.58,3.63-.54,1.81-.54,3.63-.84,1.81-.84,3.62,1.92,1.82,1.92,3.63,1.63,1.81,1.63,3.63.24,1.81.24,3.62-3.31,1.82-3.31,3.63,1.4,1.82,1.4,3.63,1.56,1.82,1.56,3.63-.18,1.81-.18,3.63-.75,1.81-.75,3.63,1.94,1.81,1.94,3.63.29,1.81.29,3.63-2.32,1.81-2.32,3.63-.72,1.81-.72,3.63.33,1.81.33,3.63-.9,1.81-.9,3.63,1.21,1.81,1.21,3.63-1.44,1.81-1.44,3.63,0,1.81,0,3.63-.62,1.81-.62,3.63,4.68,1.81,4.68,3.63.22,1.82.22,3.63-1.73,1.82-1.73,3.63-3.77,1.82-3.77,3.63,2.38,1.82,2.38,3.64-.79,1.81-.79,3.63,1.33,1.81,1.33,3.62.21,1.82.21,3.64-2,1.81-2,3.62-.72,1.82-.72,3.64,1.32,1.81,1.32,3.63.51,1.81.51,3.63.8,1.82.8,3.63-1.62,1.82-1.62,3.64,2.45,1.82,2.45,3.63,1.07,1.82,1.07,3.64-.54,1.81-.54,3.63-.88,1.82-.88,3.63.77,1.11,1.41,2.82C1243.56,1078,1243.16,1080,1241.89,1081.31Z"/><path class="cls-22" d="M1574.32,1084.78c-1.33,1.28-1.8-1.75-3.65-1.75s-1.85,3.5-3.7,3.5-1.85.68-3.7.68-1.85.35-3.7.35-1.85-3.52-3.7-3.52-1.85.19-3.69.19-1.85,1.81-3.7,1.81h-3.7c-1.86,0-1.86.57-3.71.57s-3.3.45-4.63-.84-1-2.75-1-4.54,2.71-1.8,2.71-3.59-1.08-1.79-1.08-3.58-2.36-1.8-2.36-3.59,3.33-1.79,3.33-3.58-.6-1.79-.6-3.58-.47-1.79-.47-3.59-1-1.79-1-3.58,2.51-1.8,2.51-3.59-1.59-1.8-1.59-3.59-1.46-1.79-1.46-3.59,2.07-1.79,2.07-3.58-1.23-1.79-1.23-3.59.63-1.79.63-3.58-.64-1.79-.64-3.59-1.54-1.79-1.54-3.59,1.43-1.79,1.43-3.59,0-1.79,0-3.58-.42-1.8-.42-3.59,2.13-1.79,2.13-3.59-1.19-1.79-1.19-3.58-1.57-1.8-1.57-3.59,3.53-1.8,3.53-3.59,0-1.8,0-3.59-2.77-1.79-2.77-3.59,1.29-1.79,1.29-3.59.74-1.79.74-3.59,1.25-1.79,1.25-3.59.73-1.79.73-3.58-5-1.8-5-3.59,4.55-1.8,4.55-3.6-.3-1.79-.3-3.58-2.53-1.8-2.53-3.59,2.73-1.8,2.73-3.6-4.45-1.79-4.45-3.59,1.8-1.79,1.8-3.59,1.44-1.79,1.44-3.59-.79-1.79-.79-3.59.29-1.79.29-3.59-2.6-1.79-2.6-3.59.38-1.79.38-3.59,1.1-1.79,1.1-3.59,2.62-1.79,2.62-3.59-1.94-1.79-1.94-3.59.08-1.79.08-3.59.86-1.79.86-3.59-2.73-1.8-2.73-3.59,2.09-1.8,2.09-3.59-1.13-1.8-1.13-3.6-1.29-1.79-1.29-3.59,2.28-1.8,2.28-3.6.41-1.79.41-3.59-2.26-1.79-2.26-3.59,3.69-1.8,3.69-3.6-.3-1.8-.3-3.6-1-.5.32-1.76,0-.64,1.9-.64,1.85-1.5,3.7-1.5,1.85.82,3.7.82h3.7c1.85,0,1.85.06,3.7.06s1.85-.58,3.7-.58,1.84,1.5,3.69,1.5,1.85-.31,3.7-.31,1.86-.52,3.71-.52.47,0,1.8,1.31,3.71-.17,3.71,1.62-4.23,1.79-4.23,3.59.06,1.79.06,3.58,4.53,1.79,4.53,3.58-3.67,1.8-3.67,3.59,4.25,1.79,4.25,3.58-2.21,1.79-2.21,3.58.85,1.8.85,3.59,1.1,1.8,1.1,3.59-1.49,1.79-1.49,3.59-2.77,1.79-2.77,3.58-.11,1.8-.11,3.59-.66,1.79-.66,3.58,3.16,1.8,3.16,3.59-1.19,1.79-1.19,3.58.59,1.8.59,3.59,1.25,1.8,1.25,3.59-2.23,1.8-2.23,3.59,2.16,1.79,2.16,3.59.73,1.79.73,3.58-3.38,1.8-3.38,3.59-.44,1.8-.44,3.59,3.16,1.79,3.16,3.59.5,1.79.5,3.59-4.58,1.79-4.58,3.58,1.93,1.8,1.93,3.59-.59,1.8-.59,3.59,1.71,1.8,1.71,3.59-2.87,1.8-2.87,3.59.27,1.8.27,3.59.31,1.8.31,3.59,2.18,1.8,2.18,3.59-1.74,1.8-1.74,3.59,2.76,1.8,2.76,3.59-1.29,1.8-1.29,3.59,1.24,1.8,1.24,3.59.92,1.8.92,3.59-3.47,1.8-3.47,3.6,2.55,1.79,2.55,3.59-1.07,1.79-1.07,3.59,1.51,1.79,1.51,3.59-.58,1.79-.58,3.59-1.7,1.79-1.7,3.58-.66,1.8-.66,3.6,1.59,1.79,1.59,3.58-2.16,1.8-2.16,3.6,1.28,1.79,1.28,3.59.47,1.79.47,3.59-2.37,1.8-2.37,3.59,2.57,1.8,2.57,3.6,2.31,1.8,2.31,3.59-1.76,1.8-1.76,3.6-2.92,1.79-2.92,3.59.77,1.8.77,3.59-.43,2.2-.06,4S1575.61,1083.52,1574.32,1084.78Z"/><path class="cls-22" d="M904,1079.53c-1.35,1.41-.61,2-2.57,2s-2-2.24-3.91-2.24-2,3-3.91,3-2,.4-3.92.4-2-1.83-3.92-1.83-1.95,1.31-3.91,1.31-2-3.29-3.92-3.29-2-.69-3.91-.69-2,1.34-3.92,1.34-2-1-3.92-1-2,1.27-3.92,1.27-2.93,2.78-4.3,1.37,1.71-2.39,1.71-4.4,1-2,1-4,.33-2,.33-4-1.35-2-1.35-4-1.12-2-1.12-4,1.59-2,1.59-4-4.11-2-4.11-4,3.94-2,3.94-4,1.27-2,1.27-4-6-2-6-4,4.36-2,4.36-4,.37-2,.37-4-2.54-2-2.54-4,.9-2,.9-4-2.77-2-2.77-4,4.38-2,4.38-4-2.59-2-2.59-4,.07-2,.07-4-1.32-2-1.32-4,5.14-2,5.14-4,.28-2,.28-4-2.46-2-2.46-4-3-2-3-4,1.39-2,1.39-4-2-2-2-4,2.51-2,2.51-4-2-2-2-4,5.49-2,5.49-4-.58-2-.58-4,.1-2,.1-4,.23-2,.23-4-3.71-2-3.71-4,2.38-2,2.38-4-.25-2-.25-4-1.54-2-1.54-4,.91-2,.91-4,.81-2,.81-4,.1-2,.1-4,.13-2,.13-4-1-2-1-4-1.17-2-1.17-4-.85-2-.85-4,1.4-2,1.4-4,2-2,2-4-2.4-2-2.4-4-.8-2-.8-4,3.29-2,3.29-4-4.77-2-4.77-4,3.49-2,3.49-4.06-.82-1.3.59-2.76.62-4,2.58-4,2,5.5,3.91,5.5,2-2.16,3.92-2.16,1.95,1.35,3.91,1.35,2,.62,3.92.62,2,.49,3.91.49l3.92,0c2,0,2-.84,3.92-.84s1.95-.75,3.91-.75,2-1.09,3.92-1.09,2-2.27,3.92-2.27a4.54,4.54,0,0,1,4.06,1.74c1.4,1.44,1,2.14,1,4.16s-1.46,2-1.46,4,2.26,2,2.26,4-2.44,2-2.44,4,.88,2,.88,4,.7,2,.7,4-3,2-3,4,2.2,2,2.2,4,1.19,2,1.19,4-3.46,2-3.46,4,3.13,2,3.13,4-3.86,2-3.86,4,2,2,2,4,0,2,0,4-2.17,2-2.17,4,2.12,2,2.12,4,.43,2,.43,4,2.29,2,2.29,4-1.93,2-1.93,4-2.5,2-2.5,4,2.16,2,2.16,4,2.9,2,2.9,4-.62,2-.62,4v4c0,2-3.29,2-3.29,4s4.17,2,4.17,4,.27,2,.27,4-3.83,2-3.83,4,2.67,2,2.67,4,0,2,0,4-.34,2-.34,4-.19,2-.19,4-1.17,2-1.17,4,2.85,2,2.85,4-4.76,2-4.76,4,2.72,2,2.72,4.05,0,2,0,4-.23,2-.23,4-2,2-2,4,2.63,2,2.63,4.05-2.11,2-2.11,4,2.41,2,2.41,4,1.19,2,1.19,4-1.29,2-1.29,4,.65,2,.65,4-1.12,2-1.12,4-3.9,2-3.9,4,5,2,5,4-.45,2-.43,4C907.1,1078.32,905.43,1078.07,904,1079.53Z"/><path class="cls-23" d="M1955.58,949c-11.94,13.29-19.39-7.17-37.26-7.17S1900.45,954,1882.59,954s-17.87-18.25-35.74-18.25-17.86,4.54-35.73,4.54-17.87-1.88-35.73-1.88-17.87,2.05-35.74,2.05-17.87,9.47-35.73,9.47-17.87,7.7-35.74,7.7-17.87-21.28-35.73-21.28S1614.58,958,1596.71,958s-17.87-.66-35.73-.66-17.87-2.18-35.74-2.18-17.87-9.92-35.73-9.92-17.87-8.42-35.74-8.42-17.87,3-35.73,3-17.87,2.77-35.74,2.77-17.87,9.81-35.74,9.81-17.86,3.94-35.73,3.94-17.87-5.45-35.74-5.45-17.86,4.27-35.73,4.27S1221.49,942,1203.62,942s-17.87-1.58-35.73-1.58-17.87,7-35.74,7-17.87-9.3-35.74-9.3-17.87,7.25-35.73,7.25-17.87-6.94-35.74-6.94-17.87-.36-35.74-.36-17.87,17.23-35.74,17.23-17.86-14.71-35.73-14.71-17.87,2.86-35.74,2.86-17.87-6.84-35.74-6.84-17.86,6.06-35.73,6.06S792.66,959,774.79,959s-17.87-20.84-35.74-20.84-17.87.68-35.73.68-17.87,4.31-35.74,4.31-17.86,9-35.73,9-17.87,7-35.74,7-17.86-19-35.73-19S542.51,948,524.64,948s-17.87-2.85-35.74-2.85S471,958,453.16,958s-17.87-10.17-35.74-10.17-17.86-3.08-35.73-3.08S363.82,958,346,958s-17.87-10.89-35.74-10.89-17.87,11.36-35.74,11.36-17.87-12.65-35.74-12.65S220.86,957.11,203,957.11s-17.87-14-35.74-14-17.87,5.4-35.74,5.4-17.87,0-35.74,0S77.9,942.33,60,942.33s-17.88,14.76-35.75,14.76-22.62,2.82-34.57-10.48c-13.3-14.81,9-18.85,9-38.75s-25.92-27.23-12.63-42c11.94-13.3,20.36-1.4,38.23-1.4s17.86,8,35.73,8,17.87-9.33,35.73-9.33,17.87,11.09,35.74,11.09,17.86,1.15,35.73,1.15,17.87-16.45,35.74-16.45,17.86,9.48,35.73,9.48,17.87,9.78,35.74,9.78,17.86-3.65,35.73-3.65,17.87-8.58,35.74-8.58,17.86,6.26,35.73,6.26,17.87,4.53,35.74,4.53S435.21,868,453.08,868s17.87,3.82,35.74,3.82,17.86,2.06,35.73,2.06,17.87-15.32,35.74-15.32,17.86,8.75,35.73,8.75,17.87,7.3,35.74,7.3,17.87-8.18,35.73-8.18,17.87,5.28,35.74,5.28,17.87-2.36,35.74-2.36,17.86-12.81,35.73-12.81,17.87,14.26,35.74,14.26,17.87-4.72,35.73-4.72,17.87-1.86,35.74-1.86,17.87,7.43,35.74,7.43,17.87-7.6,35.74-7.6,17.87,10.81,35.73,10.81,17.87-11.48,35.74-11.48,17.87-7.18,35.74-7.18,17.87,19.81,35.73,19.81,17.87-11.81,35.73-11.81,17.87-6.56,35.74-6.56,17.87,20.83,35.74,20.83,17.86-8.53,35.73-8.53,17.87-3.89,35.74-3.89,17.86.25,35.73.25,17.87,9.58,35.73,9.58,17.87-1.51,35.74-1.51S1400.08,868,1418,868s17.87-1.36,35.74-1.36,17.87-6.41,35.74-6.41,17.86,1.3,35.73,1.3,17.87-3.33,35.74-3.33,17.87,2.36,35.74,2.36,17.87,17.79,35.74,17.79,17.87-15.38,35.74-15.38,17.87-2.17,35.74-2.17,17.87,8.19,35.73,8.19,17.87.83,35.74.83,17.88-2.72,35.75-2.72,17.87,11.24,35.74,11.24,17.87-8.95,35.74-8.95,17.88-8.81,35.75-8.81,23.92-5.88,35.86,7.42c13.3,14.81-1.19,19.76,3.16,39.18C1962.11,928.46,1968.88,934.22,1955.58,949Z"/></g></g></g></g></svg>