<svg xmlns="http://www.w3.org/2000/svg" xmlns:xlink="http://www.w3.org/1999/xlink" width="677.33mm" height="381mm" viewBox="0 0 1920 1080"><defs><style>.cls-1{isolation:isolate;}.cls-2{fill:url(#linear-gradient);}.cls-3{fill:#96a65d;}.cls-4{fill:#6f8c30;}.cls-5{fill:#387404;mix-blend-mode:darken;}.cls-6{fill:#f2e641;}.cls-7{fill:#fff;}.cls-8{opacity:0.92;}.cls-9{opacity:0.77;}.cls-10{fill:#754c24;}.cls-11{fill:url(#linear-gradient-2);}.cls-12{fill:#736258;}.cls-13{fill:#f2d0e3;}.cls-14{fill:#f2dde3;}.cls-15{fill:#ed1c24;}.cls-16,.cls-18,.cls-19,.cls-20,.cls-21,.cls-22,.cls-23,.cls-24,.cls-25,.cls-26{fill:none;stroke:#000;stroke-miterlimit:10;}.cls-16{stroke-width:0.31px;}.cls-17{fill:#333;}.cls-18{stroke-width:0.26px;}.cls-19{stroke-width:0.3px;}.cls-20{stroke-width:0.3px;}.cls-21{stroke-width:0.3px;}.cls-22{stroke-width:0.22px;}.cls-23{stroke-width:0.32px;}.cls-24{stroke-width:0.32px;}.cls-25{stroke-width:0.29px;}.cls-26{stroke-width:0.41px;}.cls-27{fill:#e1ab85;}.cls-28{fill:#10735a;}.cls-29{fill:#a67c52;}.cls-30{fill:#b9121b;}.cls-31{fill:#4c1b1b;}.cls-32{fill:#8c6239;}.cls-33{fill:#ff836a;}.cls-34{fill:#be393a;}.cls-35{fill:#4d4d4d;}.cls-36{fill:#b88d1e;}.cls-37{fill:#8c8c80;}.cls-38{fill:#104639;}</style><linearGradient id="linear-gradient" x1="106.93" y1="1173.65" x2="2295.9" y2="-453.56" gradientUnits="userSpaceOnUse"><stop offset="0" stop-color="#4cacf7"/><stop offset="1" stop-color="#fff"/></linearGradient><linearGradient id="linear-gradient-2" x1="-42.37" y1="1375.87" x2="1921.64" y2="1375.87" gradientTransform="matrix(1.01, 0.04, -0.03, 1.15, 64.84, -717.84)" gradientUnits="userSpaceOnUse"><stop offset="0" stop-color="#8c6239"/><stop offset="0.49" stop-color="#724922"/><stop offset="0.55" stop-color="#6f4721"/><stop offset="1" stop-color="#42210b"/></linearGradient></defs><g class="cls-1"><g id="Layer_1" data-name="Layer 1"><g id="BG1"><rect class="cls-2" x="0.5" y="-0.5" width="1919" height="1080"/><ellipse class="cls-3" cx="1512.04" cy="801.79" rx="474.96" ry="184.79"/><ellipse class="cls-4" cx="536.5" cy="840.65" rx="575.5" ry="223.91"/><ellipse class="cls-5" cx="990.54" cy="1038.54" rx="1105.54" ry="236.29"/><path class="cls-6" d="M1888.71,161.5c0,1.48-84,.9-84.07,2.36s83.58,9.09,83.44,10.54-83.69-7.31-83.9-5.86,82.3,17.22,82,18.66-82.58-15.45-82.93-14,80.24,25.11,79.82,26.52-80.71-23.32-81.2-21.93,77.49,32.62,76.94,34S1800.64,181,1800,182.32s74.17,39.61,73.49,40.92-75.08-37.71-75.82-36.43,70.37,46,69.58,47.26-71.53-44.07-72.37-42.86,66.22,51.81,65.32,53-67.64-49.84-68.58-48.71,61.82,57,60.84,58.1-63.51-55-64.53-54,57.24,61.59,56.18,62.61-59.19-59.65-60.29-58.67,52.56,65.64,51.42,66.58-54.73-63.76-55.9-62.86,47.8,69.17,46.6,70-50.2-67.38-51.43-66.56,43,72.25,41.75,73-45.62-70.57-46.89-69.83,38.2,74.9,36.9,75.59-41-73.35-42.32-72.7,33.39,77.17,32,77.78-36.36-75.77-37.72-75.2,28.6,79.07,27.23,79.6-31.71-77.83-33.1-77.34,23.82,80.64,22.42,81.08-27.06-79.56-28.47-79.16,19.07,81.89,17.64,82.26-22.41-81-23.85-80.68,14.35,82.85,12.91,83.13-17.78-82.14-19.24-81.9,9.67,83.53,8.21,83.73-13.17-83-14.64-82.84,5,83.93,3.57,84-8.6-83.61-10.07-83.53.46,84.09-1,84.13-4.06-83.95-5.54-83.95-4.07,84-5.54,83.95.45-84.05-1-84.13-8.61,83.65-10.07,83.53,5-83.9,3.56-84-13.18,83-14.64,82.84,9.66-83.49,8.21-83.73-17.79,82.18-19.23,81.9,14.33-82.81,12.9-83.13-22.43,81-23.85,80.68,19.06-81.86,17.65-82.26-27.08,79.61-28.48,79.16,23.81-80.6,22.42-81.08-31.73,77.86-33.1,77.34,28.58-79,27.23-79.6-36.39,75.8-37.72,75.2,33.37-77.13,32.06-77.78-41,73.39-42.33,72.7,38.17-74.86,36.91-75.6-45.66,70.61-46.91,69.84,43-72.21,41.76-73-50.24,67.42-51.43,66.57,47.76-69.14,46.6-70-54.78,63.79-55.91,62.85,52.52-65.6,51.42-66.57-59.23,59.68-60.29,58.66,57.21-61.55,56.19-62.6-63.56,55-64.54,53.95,61.78-56.95,60.85-58.08-67.71,49.86-68.59,48.69,66.17-51.77,65.33-53-71.59,44.1-72.38,42.86,70.32-46,69.58-47.26-75.14,37.73-75.81,36.43,74.1-39.59,73.49-40.92-78.24,30.79-78.8,29.43,77.43-32.59,76.94-34-80.77,23.34-81.2,21.93,80.18-25.09,79.82-26.52-82.64,15.46-82.93,14,82.23-17.19,82-18.65-83.77,7.33-83.91,5.86,83.52-9.06,83.45-10.54S1540,163,1540,161.5s84-.9,84.08-2.36-83.59-9.09-83.45-10.54,83.69,7.31,83.91,5.86-82.3-17.22-82-18.66,82.58,15.45,82.93,14-80.24-25.11-79.82-26.52,80.72,23.32,81.21,21.93-77.5-32.62-76.94-34,78.17,30.77,78.79,29.43-74.16-39.61-73.49-40.92,75.08,37.71,75.82,36.43-70.37-46-69.58-47.26S1633,133,1633.81,131.79s-66.22-51.81-65.33-53,67.64,49.84,68.58,48.71-61.82-57-60.83-58.1,63.5,55,64.52,54-57.24-61.59-56.17-62.61,59.18,59.65,60.28,58.67-52.56-65.64-51.42-66.58,54.74,63.76,55.9,62.86-47.8-69.17-46.6-70,50.21,67.38,51.43,66.56-43-72.25-41.75-73,45.62,70.57,46.9,69.83-38.21-74.9-36.9-75.59,41,73.35,42.32,72.7-33.4-77.17-32.06-77.78,36.36,75.77,37.72,75.2-28.6-79.07-27.22-79.6,31.7,77.83,33.1,77.34-23.83-80.64-22.42-81.08,27.05,79.56,28.47,79.16-19.08-81.89-17.65-82.26,22.41,81,23.85,80.68S1674.18,15,1675.63,14.7s17.78,82.14,19.23,81.9-9.67-83.53-8.21-83.73,13.17,83,14.64,82.84-5-83.93-3.57-84,8.6,83.61,10.07,83.53-.45-84.09,1-84.13,4.06,84,5.54,84,4.07-84,5.54-83.95-.45,84.05,1,84.13,8.6-83.65,10.06-83.53-5,83.9-3.56,84.05,13.19-83,14.64-82.84-9.66,83.49-8.21,83.73,17.8-82.18,19.23-81.9-14.33,82.81-12.9,83.13,22.43-81,23.85-80.68S1745,99,1746.38,99.41s27.07-79.61,28.47-79.16-23.8,80.6-22.42,81.08,31.73-77.86,33.1-77.34-28.58,79-27.23,79.6,36.39-75.8,37.72-75.2-33.37,77.13-32,77.78,41-73.39,42.32-72.7-38.17,74.86-36.9,75.6,45.65-70.61,46.9-69.84-43,72.21-41.76,73,50.25-67.42,51.44-66.57-47.77,69.14-46.61,70,54.78-63.79,55.91-62.85-52.52,65.6-51.42,66.57,59.23-59.68,60.29-58.66-57.2,61.55-56.19,62.6,63.56-55,64.54-53.95-61.78,56.95-60.84,58.08,67.7-49.86,68.59-48.69-66.18,51.77-65.34,53,71.6-44.1,72.38-42.86-70.31,46-69.58,47.26,75.14-37.73,75.82-36.43-74.11,39.59-73.5,40.92,78.25-30.79,78.8-29.43-77.43,32.59-76.94,34,80.78-23.34,81.2-21.93-80.18,25.09-79.82,26.52,82.65-15.46,82.93-14-82.23,17.19-82,18.65,83.76-7.33,83.9-5.86-83.52,9.06-83.44,10.54S1888.71,160,1888.71,161.5Z"/><circle class="cls-7" cx="1667.58" cy="130.17" r="5.14"/><circle class="cls-7" cx="1730.25" cy="133.91" r="5.14"/><path class="cls-7" d="M1755,179.27c-6.31,8.83-18.71,15-43,19.64-23.33,4.49-37.16-10.51-43-19.64-8.42-13.09,19.27,7.91,43,8.42C1736.27,188.21,1759.72,172.72,1755,179.27Z"/><g id="cloud1" class="cls-8"><ellipse class="cls-7" cx="155.5" cy="155" rx="88.5" ry="70"/><ellipse class="cls-7" cx="244.5" cy="126.5" rx="66.5" ry="58.5"/><ellipse class="cls-7" cx="216.5" cy="234" rx="85.5" ry="67"/><ellipse class="cls-7" cx="109" cy="257" rx="55" ry="105" transform="translate(-164.2 199.63) rotate(-55.16)"/></g><g id="cloud2"><ellipse class="cls-7" cx="723.5" cy="162.11" rx="96.5" ry="79.11"/><ellipse class="cls-7" cx="807" cy="185" rx="83" ry="56"/><ellipse class="cls-7" cx="694.5" cy="255.5" rx="96.5" ry="43.5"/><ellipse class="cls-7" cx="888.5" cy="249.5" rx="121.5" ry="49.5"/><ellipse class="cls-7" cx="843" cy="162.5" rx="67" ry="49.5"/></g><g id="cloud3" class="cls-9"><ellipse class="cls-7" cx="1258.5" cy="135" rx="108.5" ry="64"/><ellipse class="cls-7" cx="1397.5" cy="185" rx="74.5" ry="60"/><ellipse class="cls-7" cx="1283.5" cy="208" rx="73.5" ry="46"/></g><g id="bridge"><path class="cls-10" d="M224.87,1080.84c-1.31,1.34-3.74,0-5.62,0s-1.87-4.39-3.74-4.39-1.88-.23-3.75-.23-1.87.8-3.75.8-1.87,4.61-3.75,4.61-1.87,0-3.75,0-1.87-3.88-3.75-3.88-1.87,4.07-3.75,4.07-1.87-5.34-3.75-5.34-1.87,3.77-3.75,3.77-1.88-3.68-3.75-3.68-2,3.39-3.36,2.06-1.89-1.5-1.89-3.39.45-1.9.45-3.8,1.91-1.89,1.91-3.79.73-1.9.73-3.79-3.83-1.9-3.83-3.79,4.71-1.9,4.71-3.79-.13-1.9-.13-3.79-.63-1.9-.63-3.8-1.22-1.89-1.22-3.79-2.49-1.9-2.49-3.8,2.06-1.89,2.06-3.79-1.5-1.9-1.5-3.79-1.14-1.9-1.14-3.79.41-1.9.41-3.8-.81-1.89-.81-3.79,1.42-1.9,1.42-3.8,2.79-1.89,2.79-3.79-2-1.9-2-3.79-.17-1.9-.17-3.8.57-1.9.57-3.8-1-1.89-1-3.79,2.21-1.9,2.21-3.8.38-1.89.38-3.79-.87-1.9-.87-3.8.79-1.9.79-3.79-.07-1.9-.07-3.8-.81-1.9-.81-3.8-1.49-1.89-1.49-3.79,3.89-1.9,3.89-3.8,0-1.9,0-3.79-1.49-1.9-1.49-3.8.41-1.9.41-3.8-3.75-1.9-3.75-3.8S177,951.88,177,950s-1.94-1.9-1.94-3.8.42-1.9.42-3.79,4.14-1.9,4.14-3.8.7-1.9.7-3.8-4-1.9-4-3.79,3.74-1.9,3.74-3.8-.92-1.9-.92-3.8-1.8-1.9-1.8-3.8.79-1.9.79-3.8-2.17-1.9-2.17-3.8-.52-1.9-.52-3.8,4.88-1.9,4.88-3.8-1.6-1.9-1.6-3.8-3.22-1.9-3.22-3.8,2.45-1.26,3.78-2.62.66,1.73,2.54,1.73,1.87-2.44,3.74-2.44,1.88,2,3.75,2,1.87-3.35,3.75-3.35,1.87-1.22,3.75-1.22,1.87,1.7,3.75,1.7,1.87.07,3.75.07,1.87-2.41,3.75-2.41,1.87,2.86,3.75,2.86,1.87.95,3.75.95,1.88-1.23,3.75-1.23,3.47-2.19,4.79-.85-2.69,2.92-2.69,4.81,0,1.9,0,3.8.57,1.89.57,3.79-.47,1.9-.47,3.79,1.26,1.9,1.26,3.79-1.35,1.9-1.35,3.79,3.09,1.9,3.09,3.79-3.28,1.9-3.28,3.8,1.15,1.89,1.15,3.79,3.52,1.9,3.52,3.8-1.73,1.89-1.73,3.79-3.48,1.9-3.48,3.79,1.07,1.9,1.07,3.79,2.58,1.9,2.58,3.8-1,1.89-1,3.79,2.35,1.9,2.35,3.8-.14,1.89-.14,3.79.32,1.9.32,3.79-3.39,1.9-3.39,3.8.76,1.9.76,3.8-.13,1.89-.13,3.79.4,1.9.4,3.8.24,1.89.24,3.79.84,1.9.84,3.8-4.12,1.9-4.12,3.79,1.9,1.9,1.9,3.8,2,1.9,2,3.8-.08,1.89-.08,3.79-3.08,1.9-3.08,3.8-.55,1.9-.55,3.79,1.23,1.9,1.23,3.8,3.7,1.9,3.7,3.8-3.71,1.9-3.71,3.8,1.62,1.9,1.62,3.79,1.15,1.9,1.15,3.8,1.27,1.9,1.27,3.79-2.89,1.9-2.89,3.8-2.6,1.9-2.6,3.8,3,1.9,3,3.79-1,1.9-1,3.8,2.46,1.9,2.46,3.8-.21,1.9-.21,3.8,1.29,1.9,1.29,3.8-4.06,1.9-4.06,3.8-.42,1.9-.42,3.8-.26,1.9-.26,3.8,4.45,1.9,4.45,3.8-2.47,1.67-1.77,3.44C225.07,1077.75,226.21,1079.48,224.87,1080.84Z"/><path class="cls-10" d="M1926.22,1098.22c-1.55,1.54-.4.61-2.58.61s-2.18-.66-4.36-.66-2.18-.73-4.36-.73-2.18,3.18-4.36,3.18-2.19-.59-4.37-.59-2.18,1.32-4.36,1.32-2.18,1.22-4.36,1.22-2.18.39-4.37.39-2.18-5.37-4.36-5.37-2.19,1.75-4.37,1.75-4.91,4.3-6.46,2.76,3-4.27,3-6.45,2-2.17,2-4.34-4.34-2.17-4.34-4.34,4.23-2.18,4.23-4.35-5.85-2.17-5.85-4.34,3-2.18,3-4.35-1.34-2.17-1.34-4.34-.34-2.17-.34-4.34,4.88-2.17,4.88-4.34-1.31-2.17-1.31-4.34-4.38-2.17-4.38-4.35.09-2.17.09-4.34,5.55-2.17,5.55-4.35-3-2.17-3-4.34-.28-2.17-.28-4.34-.2-2.17-.2-4.34-.29-2.17-.29-4.34,2-2.18,2-4.35-2.25-2.17-2.25-4.35.32-2.17.32-4.34,3.4-2.17,3.4-4.34-2.31-2.17-2.31-4.35,2.89-2.17,2.89-4.34-5.2-2.18-5.2-4.35-.3-2.17-.3-4.34,2.8-2.18,2.8-4.35.24-2.17.24-4.35-.29-2.17-.29-4.34.36-2.17.36-4.35,1.72-2.17,1.72-4.34-2-2.18-2-4.35,1.38-2.17,1.38-4.35-3.92-2.17-3.92-4.34,3.2-2.18,3.2-4.35.32-2.18.32-4.35-.77-2.17-.77-4.35,2-2.17,2-4.34-2.2-2.18-2.2-4.35-1-2.18-1-4.35,0-2.18,0-4.35.28-2.17.28-4.34,3.15-2.18,3.15-4.35-2.2-2.18-2.2-4.35.54-2.17.54-4.35.57-2.17.57-4.35-3.62-2.17-3.62-4.35,2-2.17,2-4.35-.76-2.17-.76-4.35-1.27-2.17-1.27-4.34,4.42-2.18,4.42-4.36-4.74-2.18-4.74-4.35,1.88-1.5,3.42-3,.87,1,3,1,2.18,1,4.36,1,2.18-.24,4.36-.24,2.18-5,4.36-5h4.37c2.18,0,2.18,4.38,4.36,4.38s2.18-5.43,4.36-5.43,2.18,3.12,4.37,3.12,2.18-2,4.36-2,2.19,3.84,4.37,3.84,5.17-5.86,6.72-4.32.65,4.53.65,6.71-3.24,2.17-3.24,4.34.1,2.17.1,4.34,2.82,2.18,2.82,4.35-3.27,2.17-3.27,4.34-.06,2.18-.06,4.35,2,2.17,2,4.34-.22,2.17-.22,4.34,2.32,2.17,2.32,4.34-4.29,2.17-4.29,4.34-1.56,2.17-1.56,4.35-.69,2.17-.69,4.34,4.53,2.17,4.53,4.35-4.16,2.17-4.16,4.34-.64,2.17-.64,4.34,1.89,2.17,1.89,4.34,3.53,2.17,3.53,4.34-5.21,2.18-5.21,4.35,3.42,2.17,3.42,4.35,1,2.17,1,4.34-2.38,2.17-2.38,4.34,3.86,2.17,3.86,4.35-3.4,2.17-3.4,4.34-2,2.18-2,4.35,1.3,2.17,1.3,4.34.18,2.18.18,4.35,2.74,2.17,2.74,4.35.57,2.17.57,4.34-4.37,2.17-4.37,4.35,1,2.17,1,4.34,4.37,2.18,4.37,4.35-1.23,2.17-1.23,4.35-2,2.17-2,4.34,3.11,2.18,3.11,4.35-3.84,2.18-3.84,4.35-2.53,2.17-2.53,4.35.89,2.17.89,4.34,4.86,2.18,4.86,4.35-4.06,2.18-4.06,4.35,3.71,2.18,3.71,4.35.75,2.17.75,4.34-5.77,2.18-5.77,4.35,1.78,2.18,1.78,4.35,1.5,2.17,1.5,4.35-3,2.17-3,4.35,4.17,2.17,4.17,4.35.75,2.17.75,4.35-4.7,2.17-4.7,4.35,4.46,2.17,4.46,4.34-4.78,2.18-4.78,4.36,4.3,2.24,4.2,4.42C1929.35,1097.29,1927.76,1096.68,1926.22,1098.22Z"/><path class="cls-10" d="M563.58,1083.56c-1.53,1.51-.73,1.34-2.88,1.34s-2.16,2-4.31,2-2.15-2-4.3-2-2.16,1.58-4.31,1.58-2.15-1.88-4.3-1.88-2.16,2.21-4.31,2.21-2.16-4.29-4.31-4.29-2.15,1.19-4.31,1.19-2.15.79-4.3.79-2.16-1.75-4.31-1.75-2.16,4.22-4.31,4.22-2.16-1.88-4.32-1.88-3.51,2.18-5,.67,1.2-2.87,1.2-5,.92-2.11.92-4.22.8-2.11.8-4.22-.09-2.12-.09-4.23-3.28-2.11-3.28-4.23,1.1-2.11,1.1-4.22-.21-2.11-.21-4.22,2.66-2.11,2.66-4.22-4.3-2.12-4.3-4.23,2.65-2.11,2.65-4.23,2.1-2.11,2.1-4.22-2.54-2.11-2.54-4.23.87-2.11.87-4.22-3.7-2.11-3.7-4.22,4.6-2.12,4.6-4.23-3-2.12-3-4.23-.46-2.11-.46-4.22-.34-2.12-.34-4.23.1-2.11.1-4.23-.89-2.11-.89-4.22,1.24-2.12,1.24-4.23-.38-2.11-.38-4.23,1.38-2.11,1.38-4.23,3.65-2.11,3.65-4.22-4.87-2.12-4.87-4.23-.34-2.12-.34-4.23.83-2.11.83-4.23.79-2.11.79-4.23,2.6-2.11,2.6-4.22-4.75-2.12-4.75-4.23.58-2.12.58-4.23,1.79-2.11,1.79-4.22-2.14-2.12-2.14-4.23,2.51-2.12,2.51-4.23-.2-2.11-.2-4.23,2.7-2.11,2.7-4.23-.83-2.11-.83-4.23-3.48-2.11-3.48-4.23.6-2.12.6-4.23-1.05-2.12-1.05-4.23,3-2.12,3-4.23-1.81-2.12-1.81-4.24-.32-2.11-.32-4.23-.14-2.47,1.37-4,1.87-3.46,4-3.46,2.16,5.54,4.31,5.54,2.15.27,4.3.27,2.16-1.82,4.31-1.82,2.15,2.33,4.3,2.33,2.16-5.07,4.31-5.07,2.16,4.6,4.31,4.6,2.15-.91,4.31-.91,2.15-3.83,4.3-3.83,2.16,2.73,4.31,2.73,2.16,1.64,4.31,1.64,2.16-4.94,4.32-4.94,1.28,2.65,2.83,4.16,2.16.59,2.16,2.7,2.48,2.11,2.48,4.22-1.69,2.11-1.69,4.22,1.69,2.12,1.69,4.23S568,918,568,920.12s-2.42,2.11-2.42,4.22,1.54,2.11,1.54,4.22.82,2.11.82,4.22-.3,2.12-.3,4.23-1.63,2.11-1.63,4.23-1.69,2.11-1.69,4.22.76,2.11.76,4.23,2.39,2.11,2.39,4.22-5.39,2.11-5.39,4.22,5.88,2.12,5.88,4.23-1.66,2.12-1.66,4.23-1.8,2.11-1.8,4.22,2.58,2.12,2.58,4.23-3.43,2.11-3.43,4.23-.39,2.11-.39,4.22,4.18,2.12,4.18,4.23-4.19,2.11-4.19,4.23,1.17,2.11,1.17,4.23,1.43,2.11,1.43,4.22-2.89,2.12-2.89,4.23,2.61,2.12,2.61,4.23,1.41,2.11,1.41,4.23.11,2.11.11,4.23.65,2.11.65,4.22-6.08,2.12-6.08,4.23,2.72,2.12,2.72,4.23-.29,2.11-.29,4.22.27,2.12.27,4.23,3.32,2.12,3.32,4.23-5.2,2.11-5.2,4.23,5.57,2.11,5.57,4.23-2.92,2.11-2.92,4.23,2.29,2.11,2.29,4.23-2.9,2.12-2.9,4.23,2.26,2.12,2.26,4.23-4.84,2.12-4.84,4.23,5.81,2.12,5.81,4.24-2.91,2.12-2.88,4.23C564.91,1082.37,565.09,1082.08,563.58,1083.56Z"/><path class="cls-10" d="M1240.43,1078.44c-1.24,1.27-1.2,2.6-3,2.6s-1.77-4.15-3.55-4.15-1.77.42-3.54.42-1.77,3.31-3.54,3.31-1.78-3-3.55-3-1.77,2.42-3.54,2.42-1.77,1.24-3.54,1.24-1.78.36-3.55.36-1.77,0-3.55,0-1.77,0-3.55,0-.89-2.81-2.13-4.08.49-.42.49-2.24-1.75-1.81-1.75-3.62,2.69-1.81,2.69-3.62-.12-1.81-.12-3.63-3.71-1.81-3.71-3.62.86-1.81.86-3.63,1-1.81,1-3.63-.79-1.81-.79-3.63.7-1.81.7-3.62-3.46-1.81-3.46-3.63,5.42-1.81,5.42-3.62-5.09-1.81-5.09-3.63-.22-1.81-.22-3.62.14-1.82.14-3.63,4-1.82,4-3.63-4.41-1.82-4.41-3.63,4.12-1.81,4.12-3.63.63-1.81.63-3.62-3.06-1.82-3.06-3.63,1.91-1.81,1.91-3.63-3.1-1.81-3.1-3.63,4.08-1.81,4.08-3.63-4.54-1.81-4.54-3.62,2.94-1.82,2.94-3.63.53-1.82.53-3.64-2.75-1.81-2.75-3.62,3-1.82,3-3.63-3.23-1.82-3.23-3.63,3.82-1.82,3.82-3.63-4-1.82-4-3.63,1.87-1.82,1.87-3.63-1.17-1.82-1.17-3.63,2.89-1.82,2.89-3.63-1.43-1.82-1.43-3.64-1.58-1.81-1.58-3.63,1.22-1.81,1.22-3.63,1.61-1.81,1.61-3.63-3.65-1.81-3.65-3.63.47-1.82.47-3.63,1.52-1.82,1.52-3.63,1-1.82,1-3.63.18-1.82.18-3.63-2.89-1.82-2.89-3.63,1.43-1.82,1.43-3.63.94-1.82.94-3.63-.86-1.82-.86-3.64-1.11-1.81-1.11-3.63,1.5-1.82,1.5-3.63-1.32-1.82-1.32-3.64-.51-1.82-.51-3.63,1.06-1.82,1.06-3.64,1.64-1.81,1.64-3.63.5-1.82.5-3.64-3.2-3.46-1.93-4.77,2.93,2.52,4.7,2.52,1.77-.76,3.55-.76,1.77-2.91,3.54-2.91,1.77-.13,3.54-.13,1.78,4,3.55,4,1.77.12,3.54.12,1.77.08,3.54.08,1.78-4.56,3.55-4.56,1.77,4.76,3.55,4.76,1.77-.09,3.55-.09,2.91-3.78,4.15-2.51,0,2.4,0,4.22,1.89,1.81,1.89,3.62-2.6,1.81-2.6,3.62.84,1.81.84,3.63-3.57,1.81-3.57,3.62,4.09,1.81,4.09,3.63.51,1.81.51,3.63-.28,1.81-.28,3.63.93,1.81.93,3.62-.45,1.81-.45,3.63-4,1.81-4,3.62,1.56,1.81,1.56,3.63.21,1.81.21,3.62-1.88,1.82-1.88,3.63,3.32,1.82,3.32,3.63,1,1.82,1,3.63-1.43,1.81-1.43,3.63-2.25,1.81-2.25,3.62,3.82,1.82,3.82,3.63-4.27,1.81-4.27,3.63-.17,1.81-.17,3.63,2.13,1.81,2.13,3.63-2,1.81-2,3.62-.72,1.82-.72,3.63.05,1.82.05,3.64,4.47,1.81,4.47,3.62-1.2,1.82-1.2,3.63-1.45,1.82-1.45,3.63-1.44,1.82-1.44,3.63,0,1.82,0,3.63,2.11,1.82,2.11,3.63-1.83,1.82-1.83,3.63,1,1.82,1,3.63,3.21,1.82,3.21,3.64-4.5,1.81-4.5,3.63,2.18,1.81,2.18,3.63-.79,1.81-.79,3.63,1.07,1.81,1.07,3.63.24,1.82.24,3.63.93,1.82.93,3.63-1.37,1.82-1.37,3.63.87,1.82.87,3.63.27,1.82.27,3.63-2.79,1.82-2.79,3.63,4.39,1.82,4.39,3.63-4.71,1.82-4.71,3.64,1.27,1.81,1.27,3.63,1.62,1.82,1.62,3.63,1.74,1.82,1.74,3.64-1.66,1.82-1.66,3.63-2.16,1.82-2.16,3.64,2.64,1.81,2.64,3.63-3.52,2.07-3.28,3.87C1239.42,1077.23,1241.7,1077.14,1240.43,1078.44Z"/><path class="cls-10" d="M1576.55,1085.59c-1.32,1.29-3.4-3.81-5.25-3.81s-1.84,2.15-3.69,2.15-1.85-.78-3.7-.78-1.85,1.06-3.7,1.06-1.85.23-3.7.23-1.85.92-3.7.92-1.85-1.35-3.7-1.35-1.85.86-3.7.86-1.85.27-3.7.27-1.25-1-2.58-2.3-3.84-.63-3.84-2.43,4.64-1.79,4.64-3.59-1.25-1.79-1.25-3.58-1.59-1.79-1.59-3.58-1.72-1.79-1.72-3.58,1.64-1.79,1.64-3.59,2.13-1.79,2.13-3.58-2.61-1.79-2.61-3.59,3.25-1.79,3.25-3.59-2.2-1.79-2.2-3.58-.5-1.8-.5-3.59,3.49-1.79,3.49-3.59-4-1.79-4-3.58,1.77-1.79,1.77-3.58,1.73-1.8,1.73-3.59-1.29-1.8-1.29-3.59-2.12-1.8-2.12-3.59,2.71-1.79,2.71-3.59-2.14-1.79-2.14-3.58,1.73-1.8,1.73-3.59-.09-1.79-.09-3.59,1.67-1.79,1.67-3.59-.48-1.79-.48-3.59-4.23-1.79-4.23-3.58,4.26-1.8,4.26-3.59-1.1-1.8-1.1-3.59,1.12-1.8,1.12-3.59-1.6-1.8-1.6-3.59,1.58-1.79,1.58-3.59.55-1.79.55-3.59-5-1.79-5-3.59,2.23-1.79,2.23-3.59.94-1.79.94-3.59-.23-1.79-.23-3.59.14-1.79.14-3.59-3.21-1.79-3.21-3.59,2.57-1.8,2.57-3.59,1.1-1.8,1.1-3.59-.4-1.8-.4-3.59-1.64-1.8-1.64-3.59,2.12-1.8,2.12-3.59-1.79-1.8-1.79-3.59,1-1.8,1-3.59-1.62-1.8-1.62-3.59,1.36-1.8,1.36-3.59,1.83-1.8,1.83-3.59-4.32-1.8-4.32-3.59.49-1.8.49-3.6.8-1.79.8-3.59-.07-1.8-.07-3.59,2.59-1.8,2.59-3.6.1-1.8.1-3.59.23-1.8.23-3.6-2.19-1.79-2.19-3.59,1-1.8,1-3.6-3.26-3.67-2-4.93,3.15-.92,5-.92,1.84,3.06,3.69,3.06,1.85.21,3.7.21l3.7,0c1.85,0,1.85-2.11,3.7-2.11s1.85,1.36,3.7,1.36,1.85-.27,3.7-.27,1.85-2.66,3.7-2.66,1.85,4.95,3.7,4.95,2.54-3.76,3.87-2.47-2.66,1.95-2.66,3.75-.31,1.79-.31,3.59,3.71,1.79,3.71,3.58-3.15,1.79-3.15,3.58,4.85,1.79,4.85,3.58-3.49,1.79-3.49,3.59-1.16,1.79-1.16,3.58,4.64,1.79,4.64,3.59-2,1.79-2,3.59-1.69,1.79-1.69,3.58,1.06,1.8,1.06,3.59,1.52,1.79,1.52,3.59-3.14,1.79-3.14,3.58.89,1.79.89,3.58-1.3,1.8-1.3,3.59,3.39,1.8,3.39,3.59-1.51,1.8-1.51,3.59-.61,1.79-.61,3.59-.74,1.79-.74,3.58.52,1.8.52,3.59,2.65,1.79,2.65,3.59-2.48,1.79-2.48,3.59,1.33,1.79,1.33,3.59-2.36,1.79-2.36,3.58,2.76,1.8,2.76,3.59-.76,1.8-.76,3.59,2.4,1.8,2.4,3.59-4.64,1.8-4.64,3.59,1.12,1.79,1.12,3.59-.54,1.79-.54,3.59-.61,1.79-.61,3.59,2.64,1.79,2.64,3.59-.49,1.79-.49,3.59,1.09,1.79,1.09,3.59,1,1.79,1,3.59.32,1.79.32,3.59-4.44,1.8-4.44,3.59,1.45,1.8,1.45,3.59,3,1.8,3,3.59-3.21,1.8-3.21,3.59-1.64,1.8-1.64,3.59,3.59,1.8,3.59,3.59-3.5,1.8-3.5,3.59,4.85,1.8,4.85,3.59-2.46,1.8-2.46,3.59,1.11,1.8,1.11,3.59.28,1.8.28,3.59-4,1.8-4,3.6,1.08,1.79,1.08,3.59,3.63,1.8,3.63,3.59-.07,1.8-.07,3.6-4.6,1.8-4.6,3.59,2.49,1.8,2.49,3.6.23,1.79.23,3.59-.49,1.79.14,3.47C1576.34,1083,1577.84,1084.33,1576.55,1085.59Z"/><path class="cls-10" d="M907.49,1081.43c-1.36,1.41-3.45-1.46-5.4-1.46s-2-3-3.92-3-1.95,5.62-3.91,5.62-2-.25-3.91-.25-2-5.15-3.92-5.15-2,2.53-3.92,2.53-2-.2-3.91-.2-2,2.17-3.92,2.17-2,.35-3.92.35-2,0-3.91,0-2-3.88-3.93-3.88-1.42,2.12-2.78.72-3-.92-3-2.94,2.66-2,2.66-4,1.56-2,1.56-4-3.25-2-3.25-4-2-2-2-4,4.24-2,4.24-4-3.13-2-3.13-4,.24-2,.24-4,0-2,0-4,4.48-2,4.48-4-4.19-2-4.19-4,.51-2,.51-4-.43-2-.43-4,3.17-2,3.17-4-2.19-2-2.19-4,2.43-2,2.43-4-.78-2-.78-4-1-2-1-4-.17-2-.17-4-1.13-2-1.13-4-.81-2-.81-4,1.77-2,1.77-4-1.66-2-1.66-4,4.14-2,4.14-4,.48-2,.48-4-5.53-2-5.53-4-.47-2-.47-4,1.11-2,1.11-4,4-2,4-4v-4c0-2-3-2-3-4s1.14-2,1.14-4.05-3.36-2-3.36-4,3.38-2,3.38-4-2.47-2-2.47-4,.09-2,.09-4,5.14-2,5.14-4-.67-2-.67-4-2.85-2-2.85-4-2.39-2-2.39-4,4.36-2,4.36-4-.58-2-.58-4,.06-2,.06-4-2.8-2-2.8-4,3.68-2,3.68-4-.3-2-.3-4-4.17-2-4.17-4,.75-2,.75-4,2.14-2,2.14-4.05-2.09-2.95-.69-4.4,2.33.53,4.28.53,2-1.59,3.92-1.59,1.95,1.69,3.91,1.69,2-.45,3.91-.45,2,.7,3.92.7,2-.83,3.92-.83,2-.3,3.91-.3,2-.22,3.92-.22,2-.82,3.92-.82,2,.8,3.91.8,2,2.69,3.93,2.69,1.84-2.57,3.21-1.16.18,1.33.18,3.35-2.22,2-2.22,4,4.73,2,4.73,4-3.07,2-3.07,4,2,2,2,4-1.46,2-1.46,4-2.51,2-2.51,4,5.72,2,5.72,4-3.07,2-3.07,4,.65,2,.65,4,0,2,0,4,2,2,2,4-2.11,2-2.11,4-3.19,2-3.19,4,3.78,2,3.78,4,1.19,2,1.19,4-1.48,2-1.48,4,.67,2,.67,4-1.9,2-1.9,4,2.24,2,2.24,4-2.47,2-2.47,4,2.24,2,2.24,4-1.06,2-1.06,4,.12,2,.12,4-.95,2-.95,4-2.37,2-2.37,4,3.65,2,3.65,4-2.7,2-2.7,4,4.87,2,4.87,4-3.67,2-3.67,4,.69,2,.69,4,.33,2,.33,4.05.71,2,.71,4-1.09,2-1.09,4-1.32,2-1.32,4,.78,2,.78,4,3.17,2,3.17,4-4.63,2-4.63,4,.46,2,.46,4,3.7,2,3.7,4-3.31,2-3.31,4,2.7,2,2.7,4,1.39,2,1.39,4,.39,2,.39,4,0,2,0,4,0,2,0,4-5.21,2-5.21,4,.08,2,.08,4.05,1.28,2.2,2,4.11C906.85,1078.85,908.89,1080,907.49,1081.43Z"/><path class="cls-11" d="M1950,942.63c-11.94,13.3-13.18,6.45-31,6.45s-17.86,0-35.73,0-17.87-8.2-35.73-8.2-17.87,10.35-35.74,10.35-17.86-4.17-35.73-4.17-17.87,3.85-35.74,3.85-17.86,4.1-35.73,4.1-17.87-2.44-35.74-2.44S1651,943,1633.08,943s-17.87,13.27-35.73,13.27-17.87-19.35-35.74-19.35-17.87,19.14-35.74,19.14-17.86,1.06-35.73,1.06-17.87-8.64-35.74-8.64-17.86,4.66-35.73,4.66-17.87-5.91-35.73-5.91-17.87-.12-35.74-.12-17.87-5.58-35.74-5.58-17.86-1.09-35.73-1.09-17.87-3.87-35.74-3.87-17.87-.49-35.73-.49-17.87,2.93-35.74,2.93-17.87,2.17-35.74,2.17-17.86-6-35.73-6-17.87,20.65-35.74,20.65-17.87,2.71-35.74,2.71-17.87-14.43-35.73-14.43-17.87,2.7-35.74,2.7-17.87,5.69-35.74,5.69-17.87,1.69-35.74,1.69-17.86-14-35.73-14-17.87-5.11-35.73-5.11-17.87.16-35.74.16-17.87,2.65-35.73,2.65S721.82,951.57,704,951.57s-17.87.55-35.73.55-17.87-13.46-35.74-13.46-17.86,1.51-35.73,1.51-17.87,6.68-35.74,6.68-17.87,8.8-35.74,8.8S507.4,935.5,489.53,935.5s-17.86,7.8-35.73,7.8-17.87,9.49-35.74,9.49-17.87,4.48-35.74,4.48-17.87-14.44-35.74-14.44-17.87,12.56-35.74,12.56-17.87-15.2-35.74-15.2-17.87,16.5-35.74,16.5S221.5,954,203.63,954s-17.87-3.62-35.74-3.62S150,937.66,132.15,937.66s-17.88,7-35.75,7-17.87-5.13-35.74-5.13-17.87-1-35.75-1-26.79,24.36-38.74,11.06c-13.29-14.81-7.28-22.59-7.28-42.49s-10.81-32,2.48-46.81C-6.69,846.94,7,873.91,24.9,873.91s17.87-9,35.73-9,17.87,13.25,35.74,13.25,17.87-7.39,35.73-7.39,17.87,7.52,35.74,7.52,17.86-17.85,35.73-17.85,17.87-.49,35.74-.49,17.86,11.3,35.73,11.3,17.87-5.62,35.73-5.62,17.87,13.07,35.74,13.07,17.87-1.57,35.73-1.57,17.87-8.94,35.74-8.94,17.87-2,35.74-2S471.58,871,489.45,871s17.87,1.64,35.74,1.64,17.86-1.4,35.73-1.4,17.87-6.54,35.74-6.54,17.87-3,35.73-3,17.87-4.63,35.74-4.63,17.87,17.61,35.74,17.61,17.86-7.36,35.73-7.36,17.87-4.94,35.74-4.94,17.86-2.34,35.73-2.34,17.87,6.56,35.74,6.56S864.68,856,882.55,856s17.86,8.21,35.73,8.21S936.15,878.8,954,878.8,971.89,859,989.76,859s17.87,11.32,35.74,11.32,17.86,4.24,35.73,4.24,17.87-8.95,35.74-8.95,17.86,9.26,35.73,9.26,17.87-5.82,35.73-5.82,17.87-12,35.74-12,17.87,22,35.74,22,17.86-14.43,35.73-14.43,17.87,7.69,35.73,7.69,17.87,3,35.74,3S1365,864,1382.84,864s17.87,7.93,35.74,7.93,17.87-2.17,35.74-2.17,17.87-1.19,35.74-1.19,17.87-10.19,35.74-10.19,17.87,11,35.74,11,17.86,7.73,35.73,7.73,17.87-12.26,35.74-12.26,17.88,10.35,35.75,10.35,17.86-3.12,35.73-3.12,17.87-8,35.74-8,17.87,1,35.74,1,17.87,8.4,35.74,8.4,17.87-3.83,35.74-3.83,17.88-3.87,35.75-3.87,17.87,3.89,35.74,3.89,29.69-21,41.63-7.7c13.3,14.81-14,26.14-11.2,45.84C1952,926.48,1963.3,927.82,1950,942.63Z"/></g><g id="littlecows"><g id="goodcow"><ellipse class="cls-12" cx="1374.71" cy="680.33" rx="1.03" ry="2.75" transform="translate(407.24 1870.57) rotate(-77.23)"/><ellipse class="cls-12" cx="1359.18" cy="680.56" rx="2.28" ry="1.01" transform="translate(-159.52 616.58) rotate(-24.19)"/><path class="cls-13" d="M1386.18,714.51a.42.42,0,1,0,.84,0v-3.46a.42.42,0,1,0-.84,0Z"/><path class="cls-13" d="M1385.24,714.11a.42.42,0,1,0,.83,0v-3.46a.42.42,0,1,0-.83,0Z"/><path class="cls-13" d="M1383.93,714.26a.54.54,0,0,0,1.08,0V711a.54.54,0,0,0-1.08,0Z"/><ellipse class="cls-13" cx="1385.86" cy="711.13" rx="2.34" ry="2.61"/><path class="cls-7" d="M1371.48,716.55a1.39,1.39,0,0,0,2.78,0v-7.18a1.39,1.39,0,0,0-2.78,0Z"/><path class="cls-12" d="M1371.9,717.15a.88.88,0,0,0,.88.88h.92a.88.88,0,0,0,0-1.76h-.92a.87.87,0,0,0-.88.88Z"/><path class="cls-7" d="M1369.88,718.84a1.75,1.75,0,1,0,3.49,0v-11a1.75,1.75,0,1,0-3.49,0Z"/><path class="cls-12" d="M1369.62,719.81a1.23,1.23,0,0,0,1.23,1.23h1.55a1.23,1.23,0,1,0,0-2.46h-1.55a1.23,1.23,0,0,0-1.23,1.23Z"/><path class="cls-7" d="M1389.41,716.79a1.16,1.16,0,0,0,2.31,0v-6.11a1.16,1.16,0,0,0-2.31,0Z"/><path class="cls-12" d="M1389.75,717.31a.7.7,0,0,0,.7.7h.71a.7.7,0,0,0,.7-.7.7.7,0,0,0-.7-.71h-.71a.7.7,0,0,0-.7.71Z"/><path class="cls-7" d="M1387.29,720.12a1.57,1.57,0,1,0,3.13,0v-9a1.57,1.57,0,0,0-3.13,0Z"/><ellipse class="cls-7" cx="1403.78" cy="700.06" rx="1.45" ry="9.09" transform="translate(-159.91 824.72) rotate(-31.06)"/><ellipse class="cls-7" cx="1384.53" cy="699.59" rx="18.89" ry="12.43"/><path class="cls-7" d="M1360.45,686a6.26,6.26,0,1,0,12.51,0v-6.41a6.26,6.26,0,1,0-12.51,0Z"/><path class="cls-14" d="M1358.07,691.26a5.59,5.59,0,0,0,5.59,5.59h6.43a5.59,5.59,0,1,0,0-11.18h-6.43a5.59,5.59,0,0,0-5.59,5.59Z"/><ellipse class="cls-7" cx="1368.97" cy="689.85" rx="0.81" ry="2.26"/><ellipse class="cls-7" cx="1365.23" cy="689.51" rx="1.07" ry="2.55"/><path class="cls-12" d="M1386.86,721.49a1.23,1.23,0,0,0,1.23,1.23h1.55a1.23,1.23,0,1,0,0-2.45h-1.55a1.23,1.23,0,0,0-1.23,1.22Z"/><ellipse cx="1364.34" cy="679.23" rx="1.12" ry="1.26"/><ellipse cx="1368.51" cy="679.26" rx="0.98" ry="1.09"/><ellipse class="cls-7" cx="1408.12" cy="707.23" rx="1.57" ry="2.31" transform="translate(-137.98 1011.48) rotate(-37.8)"/><ellipse class="cls-15" cx="1369.62" cy="694.68" rx="0.53" ry="0.91" transform="translate(-162.36 801.8) rotate(-30.89)"/><path class="cls-16" d="M1370.26,693.11a4,4,0,0,1-2.08,1.27,5.87,5.87,0,0,1-4.85-1"/><ellipse class="cls-17" cx="1393.74" cy="698.9" rx="4.04" ry="2.28" transform="translate(-47.69 1293.23) rotate(-49.04)"/><ellipse class="cls-17" cx="1382.88" cy="691.12" rx="2.29" ry="3.94" transform="translate(-44.28 1285.44) rotate(-49.16)"/><ellipse class="cls-17" cx="1379.86" cy="703.42" rx="1.87" ry="4.45" transform="translate(520.09 1991.67) rotate(-83.29)"/></g><g id="goodcow-2" data-name="goodcow"><ellipse class="cls-12" cx="1406.11" cy="605.49" rx="0.87" ry="2.32" transform="translate(504.69 1842.91) rotate(-77.23)"/><ellipse class="cls-12" cx="1393.02" cy="605.68" rx="1.92" ry="0.86" transform="translate(-125.87 623.87) rotate(-24.19)"/><path class="cls-13" d="M1415.79,634.31a.36.36,0,0,0,.71,0v-2.92a.36.36,0,0,0-.71,0Z"/><path class="cls-13" d="M1415,634a.36.36,0,0,0,.71,0v-2.92a.36.36,0,0,0-.71,0Z"/><path class="cls-13" d="M1413.89,634.1a.46.46,0,0,0,.46.45.45.45,0,0,0,.45-.45v-2.72a.45.45,0,0,0-.45-.45.46.46,0,0,0-.46.45Z"/><ellipse class="cls-13" cx="1415.52" cy="631.46" rx="1.97" ry="2.2"/><path class="cls-7" d="M1403.39,636a1.18,1.18,0,1,0,2.35,0v-6a1.18,1.18,0,0,0-2.35,0Z"/><path class="cls-12" d="M1403.74,636.54a.75.75,0,0,0,.75.74h.78a.74.74,0,0,0,0-1.48h-.78a.75.75,0,0,0-.75.74Z"/><path class="cls-7" d="M1402,638a1.47,1.47,0,0,0,2.94,0v-9.29a1.47,1.47,0,0,0-2.94,0Z"/><path class="cls-12" d="M1401.82,638.78a1,1,0,0,0,1,1h1.31a1,1,0,0,0,0-2.07h-1.31a1,1,0,0,0-1,1Z"/><path class="cls-7" d="M1418.51,636.23a1,1,0,1,0,2,0v-5.14a1,1,0,1,0-2,0Z"/><path class="cls-12" d="M1418.8,636.67a.59.59,0,0,0,.59.6h.59a.6.6,0,0,0,.6-.6.59.59,0,0,0-.6-.59h-.59a.58.58,0,0,0-.59.59Z"/><path class="cls-7" d="M1416.72,639.05a1.32,1.32,0,0,0,2.64,0v-7.63a1.32,1.32,0,0,0-2.64,0Z"/><ellipse class="cls-7" cx="1430.63" cy="622.12" rx="1.22" ry="7.67" transform="translate(-115.85 827.4) rotate(-31.06)"/><ellipse class="cls-7" cx="1414.4" cy="621.73" rx="15.93" ry="10.48"/><path class="cls-7" d="M1394.09,610.27a5.28,5.28,0,1,0,10.55,0v-5.4a5.28,5.28,0,1,0-10.55,0Z"/><path class="cls-14" d="M1392.08,614.71a4.72,4.72,0,0,0,4.72,4.71h5.42a4.72,4.72,0,1,0,0-9.43h-5.42a4.72,4.72,0,0,0-4.72,4.72Z"/><ellipse class="cls-7" cx="1401.28" cy="613.52" rx="0.69" ry="1.91"/><ellipse class="cls-7" cx="1398.12" cy="613.23" rx="0.9" ry="2.15"/><path class="cls-12" d="M1416.36,640.2a1,1,0,0,0,1,1h1.32a1,1,0,0,0,0-2.07h-1.32a1,1,0,0,0-1,1Z"/><ellipse cx="1397.37" cy="604.56" rx="0.95" ry="1.06"/><ellipse cx="1400.89" cy="604.59" rx="0.82" ry="0.92"/><ellipse class="cls-7" cx="1434.29" cy="628.18" rx="1.33" ry="1.95" transform="translate(-84.03 1010.93) rotate(-37.8)"/><ellipse class="cls-15" cx="1401.82" cy="617.59" rx="0.45" ry="0.77" transform="matrix(0.86, -0.51, 0.51, 0.86, -118.21, 807.4)"/><path class="cls-18" d="M1402.36,616.27a3.38,3.38,0,0,1-1.75,1.07,5,5,0,0,1-4.09-.83"/><ellipse class="cls-17" cx="1422.16" cy="621.14" rx="3.41" ry="1.92" transform="translate(20.81 1287.91) rotate(-49.04)"/><ellipse class="cls-17" cx="1413.01" cy="614.59" rx="1.93" ry="3.32" transform="translate(24.05 1281.74) rotate(-49.16)"/><ellipse class="cls-17" cx="1410.46" cy="624.96" rx="1.58" ry="3.76" transform="translate(625.04 1952.77) rotate(-83.29)"/></g><g id="goodcow-3" data-name="goodcow"><ellipse class="cls-12" cx="1551.37" cy="653.65" rx="2.64" ry="0.99" transform="translate(-106.13 359.22) rotate(-12.77)"/><ellipse class="cls-12" cx="1566.25" cy="653.86" rx="0.97" ry="2.19" transform="translate(328.1 1814.75) rotate(-65.81)"/><path class="cls-13" d="M1539.57,686.4a.4.4,0,0,0,.8,0v-3.32a.4.4,0,1,0-.8,0Z"/><path class="cls-13" d="M1540.48,686a.4.4,0,0,0,.8,0V682.7a.4.4,0,1,0-.8,0Z"/><path class="cls-13" d="M1541.5,686.16a.52.52,0,0,0,1,0v-3.09a.52.52,0,1,0-1,0Z"/><ellipse class="cls-13" cx="1540.68" cy="683.16" rx="2.24" ry="2.5"/><path class="cls-7" d="M1551.8,688.36a1.33,1.33,0,1,0,2.66,0v-6.88a1.33,1.33,0,1,0-2.66,0Z"/><path class="cls-12" d="M1551.49,688.93a.85.85,0,0,0,.84.84h.89a.84.84,0,0,0,0-1.68h-.89a.84.84,0,0,0-.84.84Z"/><path class="cls-7" d="M1552.65,690.55a1.68,1.68,0,0,0,3.35,0V680a1.68,1.68,0,0,0-3.35,0Z"/><path class="cls-12" d="M1552.4,691.48a1.18,1.18,0,0,0,1.18,1.18h1.49a1.18,1.18,0,0,0,0-2.36h-1.49a1.18,1.18,0,0,0-1.18,1.18Z"/><path class="cls-7" d="M1535.07,688.58a1.11,1.11,0,1,0,2.21,0v-5.85a1.11,1.11,0,0,0-2.21,0Z"/><path class="cls-12" d="M1534.93,689.08a.68.68,0,0,0,.68.68h.67a.68.68,0,1,0,0-1.36h-.67a.68.68,0,0,0-.68.68Z"/><path class="cls-7" d="M1536.31,691.78a1.51,1.51,0,0,0,3,0v-8.66a1.51,1.51,0,1,0-3,0Z"/><ellipse class="cls-7" cx="1523.51" cy="672.55" rx="8.72" ry="1.39" transform="translate(161.3 1630.56) rotate(-58.94)"/><ellipse class="cls-7" cx="1541.96" cy="672.1" rx="18.1" ry="11.91"/><path class="cls-7" d="M1553,659.08a6,6,0,1,0,12,0v-6.14a6,6,0,1,0-12,0Z"/><path class="cls-14" d="M1550.43,664.12a5.36,5.36,0,0,0,5.36,5.36H1562a5.36,5.36,0,0,0,0-10.72h-6.16a5.36,5.36,0,0,0-5.36,5.36Z"/><ellipse class="cls-7" cx="1556.87" cy="662.77" rx="0.78" ry="2.17"/><ellipse class="cls-7" cx="1560.45" cy="662.44" rx="1.02" ry="2.44"/><path class="cls-12" d="M1535.88,693.09a1.18,1.18,0,0,0,1.18,1.18h1.49a1.18,1.18,0,1,0,0-2.35h-1.49a1.17,1.17,0,0,0-1.18,1.17Z"/><ellipse cx="1561.3" cy="652.59" rx="1.08" ry="1.2"/><ellipse cx="1557.3" cy="652.62" rx="0.94" ry="1.05"/><ellipse class="cls-7" cx="1519.35" cy="679.43" rx="2.22" ry="1.51" transform="translate(51.27 1463.5) rotate(-52.2)"/><ellipse class="cls-15" cx="1556.24" cy="667.4" rx="0.87" ry="0.51" transform="translate(184.48 1660.16) rotate(-59.11)"/><path class="cls-19" d="M1555.63,665.89a3.76,3.76,0,0,0,2,1.22,5.66,5.66,0,0,0,4.65-.94"/><ellipse class="cls-17" cx="1533.13" cy="671.44" rx="2.18" ry="3.87" transform="translate(-64.78 1169.43) rotate(-40.96)"/><ellipse class="cls-17" cx="1543.53" cy="663.98" rx="3.78" ry="2.2" transform="translate(-58.45 1170.97) rotate(-40.84)"/><ellipse class="cls-17" cx="1546.43" cy="675.77" rx="4.27" ry="1.79" transform="translate(-68.34 185.25) rotate(-6.71)"/></g><g id="goodcow-4" data-name="goodcow"><ellipse class="cls-12" cx="1463.16" cy="658.59" rx="2.62" ry="0.98" transform="translate(-109.41 339.84) rotate(-12.77)"/><ellipse class="cls-12" cx="1477.95" cy="658.8" rx="0.97" ry="2.17" transform="translate(271.47 1737.12) rotate(-65.81)"/><path class="cls-13" d="M1451.44,691.14a.39.39,0,0,0,.39.4.4.4,0,0,0,.4-.4v-3.3a.4.4,0,0,0-.4-.4.39.39,0,0,0-.39.4Z"/><path class="cls-13" d="M1452.34,690.76a.4.4,0,0,0,.4.4.39.39,0,0,0,.39-.4v-3.3a.38.38,0,0,0-.39-.39.39.39,0,0,0-.4.39Z"/><path class="cls-13" d="M1453.35,690.9a.51.51,0,0,0,.51.51.51.51,0,0,0,.51-.51v-3.07a.51.51,0,0,0-.51-.51.51.51,0,0,0-.51.51Z"/><ellipse class="cls-13" cx="1452.54" cy="687.92" rx="2.23" ry="2.49"/><path class="cls-7" d="M1463.59,693.09a1.33,1.33,0,0,0,2.65,0v-6.84a1.33,1.33,0,1,0-2.65,0Z"/><path class="cls-12" d="M1463.28,693.65a.84.84,0,0,0,.84.84h.88a.84.84,0,1,0,0-1.67h-.88a.84.84,0,0,0-.84.83Z"/><path class="cls-7" d="M1464.44,695.27a1.66,1.66,0,0,0,3.32,0V684.78a1.66,1.66,0,0,0-3.32,0Z"/><path class="cls-12" d="M1464.19,696.19a1.17,1.17,0,0,0,1.17,1.17h1.48a1.17,1.17,0,0,0,0-2.34h-1.48a1.17,1.17,0,0,0-1.17,1.17Z"/><path class="cls-7" d="M1447,693.31a1.1,1.1,0,0,0,2.2,0V687.5a1.1,1.1,0,0,0-2.2,0Z"/><path class="cls-12" d="M1446.82,693.8a.67.67,0,0,0,.68.68h.66a.68.68,0,1,0,0-1.35h-.66a.67.67,0,0,0-.68.67Z"/><path class="cls-7" d="M1448.2,696.49a1.49,1.49,0,1,0,3,0v-8.61a1.49,1.49,0,1,0-3,0Z"/><ellipse class="cls-7" cx="1435.47" cy="677.38" rx="8.66" ry="1.38" transform="matrix(0.52, -0.86, 0.86, 0.52, 114.55, 1557.48)"/><ellipse class="cls-7" cx="1453.81" cy="676.93" rx="17.99" ry="11.84"/><path class="cls-7" d="M1464.82,664a6,6,0,0,0,11.92,0v-6.11a6,6,0,1,0-11.92,0Z"/><path class="cls-14" d="M1462.23,669a5.32,5.32,0,0,0,5.33,5.32h6.12a5.33,5.33,0,1,0,0-10.65h-6.12a5.32,5.32,0,0,0-5.33,5.33Z"/><ellipse class="cls-7" cx="1468.62" cy="667.66" rx="0.78" ry="2.16"/><ellipse class="cls-7" cx="1472.19" cy="667.33" rx="1.02" ry="2.42"/><path class="cls-12" d="M1447.77,697.79a1.17,1.17,0,0,0,1.17,1.17h1.48a1.17,1.17,0,0,0,0-2.34h-1.48a1.17,1.17,0,0,0-1.17,1.17Z"/><ellipse cx="1473.04" cy="657.54" rx="1.07" ry="1.2"/><ellipse cx="1469.06" cy="657.57" rx="0.93" ry="1.04"/><ellipse class="cls-7" cx="1431.34" cy="684.21" rx="2.2" ry="1.5" transform="translate(13.42 1395.81) rotate(-52.2)"/><ellipse class="cls-15" cx="1468.01" cy="672.26" rx="0.87" ry="0.51" transform="translate(137.38 1586.81) rotate(-59.11)"/><path class="cls-20" d="M1467.4,670.76a3.74,3.74,0,0,0,2,1.21A5.61,5.61,0,0,0,1474,671"/><ellipse class="cls-17" cx="1445.04" cy="676.27" rx="2.17" ry="3.85" transform="translate(-89.52 1112.86) rotate(-40.96)"/><ellipse class="cls-17" cx="1455.38" cy="668.86" rx="3.75" ry="2.18" transform="translate(-83.1 1114.51) rotate(-40.84)"/><ellipse class="cls-17" cx="1458.26" cy="680.57" rx="4.24" ry="1.78" transform="translate(-69.51 174.98) rotate(-6.71)"/></g><g id="goodcow-5" data-name="goodcow"><ellipse class="cls-12" cx="1720.16" cy="657.59" rx="2.62" ry="0.98" transform="translate(-102.83 396.64) rotate(-12.77)"/><ellipse class="cls-12" cx="1734.95" cy="657.8" rx="0.97" ry="2.17" transform="translate(424.09 1970.97) rotate(-65.81)"/><path class="cls-13" d="M1708.44,690.14a.39.39,0,0,0,.39.4.4.4,0,0,0,.4-.4v-3.3a.4.4,0,0,0-.4-.4.39.39,0,0,0-.39.4Z"/><path class="cls-13" d="M1709.34,689.76a.4.4,0,0,0,.4.4.39.39,0,0,0,.39-.4v-3.3a.38.38,0,0,0-.39-.39.39.39,0,0,0-.4.39Z"/><path class="cls-13" d="M1710.35,689.9a.51.51,0,0,0,.51.51.51.51,0,0,0,.51-.51v-3.07a.51.51,0,0,0-.51-.51.51.51,0,0,0-.51.51Z"/><ellipse class="cls-13" cx="1709.54" cy="686.92" rx="2.23" ry="2.49"/><path class="cls-7" d="M1720.59,692.09a1.33,1.33,0,0,0,2.65,0v-6.84a1.33,1.33,0,1,0-2.65,0Z"/><path class="cls-12" d="M1720.28,692.65a.84.84,0,0,0,.84.84h.88a.84.84,0,1,0,0-1.67h-.88a.84.84,0,0,0-.84.83Z"/><path class="cls-7" d="M1721.44,694.27a1.66,1.66,0,0,0,3.32,0V683.78a1.66,1.66,0,0,0-3.32,0Z"/><path class="cls-12" d="M1721.19,695.19a1.17,1.17,0,0,0,1.17,1.17h1.48a1.17,1.17,0,1,0,0-2.34h-1.48a1.17,1.17,0,0,0-1.17,1.17Z"/><path class="cls-7" d="M1704,692.31a1.1,1.1,0,0,0,2.2,0V686.5a1.1,1.1,0,0,0-2.2,0Z"/><path class="cls-12" d="M1703.82,692.8a.67.67,0,0,0,.68.68h.66a.68.68,0,1,0,0-1.35h-.66a.67.67,0,0,0-.68.67Z"/><path class="cls-7" d="M1705.2,695.49a1.49,1.49,0,1,0,3,0v-8.61a1.49,1.49,0,1,0-3,0Z"/><ellipse class="cls-7" cx="1692.47" cy="676.38" rx="8.66" ry="1.38" transform="matrix(0.52, -0.86, 0.86, 0.52, 239.8, 1777.15)"/><ellipse class="cls-7" cx="1710.81" cy="675.93" rx="17.99" ry="11.84"/><path class="cls-7" d="M1721.82,663a6,6,0,0,0,11.92,0v-6.11a6,6,0,1,0-11.92,0Z"/><path class="cls-14" d="M1719.23,668a5.32,5.32,0,0,0,5.33,5.32h6.12a5.33,5.33,0,1,0,0-10.65h-6.12a5.32,5.32,0,0,0-5.33,5.33Z"/><ellipse class="cls-7" cx="1725.62" cy="666.66" rx="0.78" ry="2.16"/><ellipse class="cls-7" cx="1729.19" cy="666.33" rx="1.02" ry="2.42"/><path class="cls-12" d="M1704.77,696.79a1.17,1.17,0,0,0,1.17,1.17h1.48a1.17,1.17,0,0,0,0-2.34h-1.48a1.17,1.17,0,0,0-1.17,1.17Z"/><ellipse cx="1730.04" cy="656.54" rx="1.07" ry="1.2"/><ellipse cx="1726.06" cy="656.57" rx="0.93" ry="1.04"/><ellipse class="cls-7" cx="1688.34" cy="683.21" rx="2.2" ry="1.5" transform="translate(113.69 1598.5) rotate(-52.2)"/><ellipse class="cls-15" cx="1725.01" cy="671.26" rx="0.87" ry="0.51" transform="matrix(0.51, -0.86, 0.86, 0.51, 263.28, 1806.86)"/><path class="cls-21" d="M1724.4,669.76a3.74,3.74,0,0,0,2,1.21A5.61,5.61,0,0,0,1731,670"/><ellipse class="cls-17" cx="1702.04" cy="675.27" rx="2.17" ry="3.85" transform="translate(-25.94 1281.09) rotate(-40.96)"/><ellipse class="cls-17" cx="1712.38" cy="667.86" rx="3.75" ry="2.18" transform="translate(-19.88 1282.32) rotate(-40.84)"/><ellipse class="cls-17" cx="1715.26" cy="679.57" rx="4.24" ry="1.78" transform="translate(-67.63 204.99) rotate(-6.71)"/></g><g id="goodcow-6" data-name="goodcow"><ellipse class="cls-12" cx="1621.36" cy="620.08" rx="1.94" ry="0.72" transform="translate(-96.98 373.86) rotate(-12.77)"/><ellipse class="cls-12" cx="1632.28" cy="620.24" rx="0.71" ry="1.6" transform="translate(397.75 1855.13) rotate(-65.81)"/><path class="cls-13" d="M1612.7,644.1a.3.3,0,1,0,.59,0v-2.43a.3.3,0,0,0-.59,0Z"/><path class="cls-13" d="M1613.37,643.82a.29.29,0,0,0,.29.3.3.3,0,0,0,.3-.3v-2.43a.3.3,0,0,0-.3-.29.29.29,0,0,0-.29.29Z"/><path class="cls-13" d="M1614.12,643.93a.38.38,0,0,0,.75,0v-2.27a.38.38,0,1,0-.75,0Z"/><ellipse class="cls-13" cx="1613.52" cy="641.72" rx="1.64" ry="1.84"/><path class="cls-7" d="M1621.67,645.54a1,1,0,0,0,2,0v-5a1,1,0,0,0-2,0Z"/><path class="cls-12" d="M1621.45,646a.61.61,0,0,0,.61.62h.65a.62.62,0,0,0,0-1.24h-.65a.61.61,0,0,0-.61.62Z"/><path class="cls-7" d="M1622.3,647.15a1.23,1.23,0,1,0,2.45,0v-7.74a1.23,1.23,0,0,0-2.45,0Z"/><path class="cls-12" d="M1622.12,647.83a.85.85,0,0,0,.86.86h1.09a.86.86,0,1,0,0-1.72H1623a.85.85,0,0,0-.86.86Z"/><path class="cls-7" d="M1609.4,645.71a.81.81,0,0,0,1.62,0v-4.3a.81.81,0,1,0-1.62,0Z"/><path class="cls-12" d="M1609.3,646.07a.5.5,0,0,0,.5.5h.49a.5.5,0,0,0,0-1h-.49a.5.5,0,0,0-.5.5Z"/><path class="cls-7" d="M1610.31,648.05a1.11,1.11,0,0,0,2.21,0v-6.36a1.11,1.11,0,0,0-2.21,0Z"/><ellipse class="cls-7" cx="1600.92" cy="633.94" rx="6.39" ry="1.02" transform="translate(231.84 1678.19) rotate(-58.94)"/><ellipse class="cls-7" cx="1614.45" cy="633.62" rx="13.28" ry="8.74"/><path class="cls-7" d="M1622.58,624.06a4.4,4.4,0,0,0,8.8,0v-4.5a4.4,4.4,0,0,0-8.8,0Z"/><path class="cls-14" d="M1620.67,627.76a3.93,3.93,0,0,0,3.93,3.93h4.52a3.93,3.93,0,1,0,0-7.86h-4.52a3.93,3.93,0,0,0-3.93,3.93Z"/><ellipse class="cls-7" cx="1625.39" cy="626.77" rx="0.57" ry="1.59"/><ellipse class="cls-7" cx="1628.02" cy="626.53" rx="0.75" ry="1.79"/><path class="cls-12" d="M1610,649a.86.86,0,0,0,.86.87H1612a.87.87,0,1,0,0-1.73h-1.09a.86.86,0,0,0-.86.86Z"/><ellipse cx="1628.65" cy="619.3" rx="0.79" ry="0.88"/><ellipse cx="1625.71" cy="619.33" rx="0.69" ry="0.77"/><ellipse class="cls-7" cx="1597.87" cy="638.99" rx="1.63" ry="1.1" transform="translate(113.61 1509.89) rotate(-52.2)"/><ellipse class="cls-15" cx="1624.93" cy="630.17" rx="0.64" ry="0.38" transform="translate(249.85 1700.99) rotate(-59.11)"/><path class="cls-22" d="M1624.48,629.06a2.81,2.81,0,0,0,1.46.9,4.16,4.16,0,0,0,3.41-.69"/><ellipse class="cls-17" cx="1607.98" cy="633.13" rx="1.6" ry="2.84" transform="translate(-21.34 1209.12) rotate(-40.96)"/><ellipse class="cls-17" cx="1615.61" cy="627.66" rx="2.77" ry="1.61" transform="translate(-17.15 1209.26) rotate(-40.84)"/><ellipse class="cls-17" cx="1617.74" cy="636.3" rx="3.13" ry="1.32" transform="translate(-63.25 193.3) rotate(-6.71)"/></g><g id="goodcow-7" data-name="goodcow"><ellipse class="cls-12" cx="1513.1" cy="715.42" rx="1.07" ry="2.85" transform="translate(480.82 2032.88) rotate(-77.23)"/><ellipse class="cls-12" cx="1497.03" cy="715.65" rx="2.36" ry="1.05" transform="translate(-161.79 676.14) rotate(-24.19)"/><path class="cls-13" d="M1525,750.79a.44.44,0,0,0,.44.43.43.43,0,0,0,.43-.43v-3.58a.43.43,0,0,0-.43-.43.44.44,0,0,0-.44.43Z"/><path class="cls-13" d="M1524,750.38a.44.44,0,0,0,.87,0V746.8a.44.44,0,0,0-.87,0Z"/><path class="cls-13" d="M1522.66,750.53a.55.55,0,0,0,.55.56.56.56,0,0,0,.56-.56v-3.34a.56.56,0,0,0-.56-.55.55.55,0,0,0-.55.55Z"/><ellipse class="cls-13" cx="1524.65" cy="747.29" rx="2.42" ry="2.7"/><path class="cls-7" d="M1509.76,752.91a1.44,1.44,0,1,0,2.88,0v-7.44a1.44,1.44,0,0,0-2.88,0Z"/><path class="cls-12" d="M1510.2,753.52a.91.91,0,0,0,.91.91h1a.91.91,0,1,0,0-1.82h-1a.91.91,0,0,0-.91.91Z"/><path class="cls-7" d="M1508.11,755.28a1.81,1.81,0,0,0,3.61,0v-11.4a1.81,1.81,0,0,0-3.61,0Z"/><path class="cls-12" d="M1507.84,756.28a1.27,1.27,0,0,0,1.27,1.27h1.61a1.27,1.27,0,0,0,0-2.54h-1.61a1.27,1.27,0,0,0-1.27,1.27Z"/><path class="cls-7" d="M1528.32,753.15a1.2,1.2,0,1,0,2.39,0v-6.32a1.2,1.2,0,0,0-2.39,0Z"/><path class="cls-12" d="M1528.67,753.69a.73.73,0,0,0,.73.73h.73a.73.73,0,1,0,0-1.46h-.73a.73.73,0,0,0-.73.73Z"/><path class="cls-7" d="M1526.12,756.6a1.63,1.63,0,0,0,3.25,0v-9.36a1.63,1.63,0,0,0-3.25,0Z"/><ellipse class="cls-7" cx="1543.2" cy="735.83" rx="1.5" ry="9.41" transform="translate(-158.38 901.78) rotate(-31.06)"/><ellipse class="cls-7" cx="1523.27" cy="735.35" rx="19.55" ry="12.86"/><path class="cls-7" d="M1498.35,721.29a6.48,6.48,0,0,0,13,0v-6.64a6.48,6.48,0,0,0-13,0Z"/><path class="cls-14" d="M1495.89,726.73a5.79,5.79,0,0,0,5.79,5.79h6.65a5.79,5.79,0,0,0,0-11.58h-6.65a5.79,5.79,0,0,0-5.79,5.79Z"/><ellipse class="cls-7" cx="1507.17" cy="725.27" rx="0.84" ry="2.34"/><ellipse class="cls-7" cx="1503.3" cy="724.92" rx="1.1" ry="2.63"/><path class="cls-12" d="M1525.68,758a1.27,1.27,0,0,0,1.27,1.27h1.61a1.27,1.27,0,0,0,0-2.54H1527a1.27,1.27,0,0,0-1.27,1.27Z"/><ellipse cx="1502.38" cy="714.28" rx="1.16" ry="1.3"/><ellipse cx="1506.7" cy="714.31" rx="1.01" ry="1.13"/><ellipse class="cls-7" cx="1547.68" cy="743.26" rx="1.63" ry="2.39" transform="translate(-130.77 1104.58) rotate(-37.8)"/><ellipse class="cls-15" cx="1507.84" cy="730.27" rx="0.55" ry="0.94" transform="translate(-161.02 877.82) rotate(-30.89)"/><path class="cls-23" d="M1508.5,728.64a4,4,0,0,1-2.15,1.32,6.15,6.15,0,0,1-5-1"/><ellipse class="cls-17" cx="1532.8" cy="734.63" rx="4.18" ry="2.36" transform="translate(-26.78 1410.56) rotate(-49.04)"/><ellipse class="cls-17" cx="1521.57" cy="726.58" rx="2.37" ry="4.08" transform="translate(-23.11 1402.64) rotate(-49.16)"/><ellipse class="cls-17" cx="1518.44" cy="739.31" rx="1.94" ry="4.61" transform="translate(606.84 2161) rotate(-83.29)"/></g><g id="goodcow-8" data-name="goodcow"><ellipse class="cls-12" cx="1618.87" cy="690.31" rx="1.06" ry="2.82" transform="translate(587.69 2116.46) rotate(-77.23)"/><ellipse class="cls-12" cx="1602.97" cy="690.54" rx="2.34" ry="1.04" transform="translate(-142.21 717.34) rotate(-24.19)"/><path class="cls-13" d="M1630.62,725.29a.43.43,0,0,0,.43.43.43.43,0,0,0,.43-.43v-3.54a.43.43,0,0,0-.43-.43.43.43,0,0,0-.43.43Z"/><path class="cls-13" d="M1629.65,724.89a.42.42,0,0,0,.43.42.43.43,0,0,0,.43-.42v-3.55a.43.43,0,0,0-.43-.42.42.42,0,0,0-.43.42Z"/><path class="cls-13" d="M1628.32,725a.55.55,0,0,0,1.09,0v-3.31a.55.55,0,0,0-1.09,0Z"/><ellipse class="cls-13" cx="1630.29" cy="721.83" rx="2.39" ry="2.67"/><path class="cls-7" d="M1615.56,727.38a1.43,1.43,0,1,0,2.85,0V720a1.43,1.43,0,0,0-2.85,0Z"/><path class="cls-12" d="M1616,728a.9.9,0,0,0,.9.91h.94a.91.91,0,0,0,0-1.81h-.94a.9.9,0,0,0-.9.9Z"/><path class="cls-7" d="M1613.93,729.73a1.79,1.79,0,1,0,3.57,0V718.46a1.79,1.79,0,0,0-3.57,0Z"/><path class="cls-12" d="M1613.66,730.72a1.26,1.26,0,0,0,1.26,1.26h1.59a1.26,1.26,0,0,0,0-2.52h-1.59a1.26,1.26,0,0,0-1.26,1.26Z"/><path class="cls-7" d="M1633.92,727.63a1.19,1.19,0,0,0,2.37,0v-6.25a1.19,1.19,0,1,0-2.37,0Z"/><path class="cls-12" d="M1634.27,728.16a.72.72,0,0,0,.72.72h.72a.72.72,0,0,0,.72-.72.73.73,0,0,0-.72-.73H1635a.73.73,0,0,0-.72.73Z"/><path class="cls-7" d="M1631.75,731a1.6,1.6,0,0,0,3.2,0v-9.25a1.6,1.6,0,1,0-3.2,0Z"/><ellipse class="cls-7" cx="1648.63" cy="710.5" rx="1.48" ry="9.31" transform="translate(-130.19 952.55) rotate(-31.06)"/><ellipse class="cls-7" cx="1628.93" cy="710.02" rx="19.33" ry="12.72"/><path class="cls-7" d="M1604.27,696.11a6.41,6.41,0,1,0,12.82,0v-6.56a6.41,6.41,0,1,0-12.82,0Z"/><path class="cls-14" d="M1601.84,701.49a5.72,5.72,0,0,0,5.73,5.73h6.58a5.73,5.73,0,0,0,0-11.45h-6.58a5.72,5.72,0,0,0-5.73,5.72Z"/><ellipse class="cls-7" cx="1613" cy="700.05" rx="0.83" ry="2.32"/><ellipse class="cls-7" cx="1609.17" cy="699.7" rx="1.09" ry="2.61"/><path class="cls-12" d="M1631.31,732.44a1.25,1.25,0,0,0,1.26,1.26h1.59a1.26,1.26,0,0,0,0-2.51h-1.59a1.25,1.25,0,0,0-1.26,1.25Z"/><ellipse cx="1608.26" cy="689.18" rx="1.15" ry="1.29"/><ellipse cx="1612.53" cy="689.21" rx="1" ry="1.12"/><ellipse class="cls-7" cx="1653.07" cy="717.84" rx="1.61" ry="2.37" transform="translate(-93.08 1163.84) rotate(-37.8)"/><ellipse class="cls-15" cx="1613.66" cy="705" rx="0.55" ry="0.93" transform="translate(-133.03 928.57) rotate(-30.89)"/><path class="cls-24" d="M1614.32,703.39a4.06,4.06,0,0,1-2.13,1.3,6,6,0,0,1-5-1"/><ellipse class="cls-17" cx="1638.35" cy="709.31" rx="4.14" ry="2.33" transform="translate(28.7 1481.54) rotate(-49.04)"/><ellipse class="cls-17" cx="1627.24" cy="701.35" rx="2.35" ry="4.03" transform="translate(32.55 1473.85) rotate(-49.16)"/><ellipse class="cls-17" cx="1624.14" cy="713.94" rx="1.92" ry="4.56" transform="translate(725.4 2243.58) rotate(-83.29)"/></g><g id="goodcow-9" data-name="goodcow"><ellipse class="cls-12" cx="1508.71" cy="604.26" rx="0.95" ry="2.53" transform="translate(585.8 1942.01) rotate(-77.23)"/><ellipse class="cls-12" cx="1494.42" cy="604.47" rx="2.1" ry="0.93" transform="translate(-116.47 665.31) rotate(-24.19)"/><path class="cls-13" d="M1519.27,635.7a.39.39,0,1,0,.77,0v-3.18a.39.39,0,1,0-.77,0Z"/><path class="cls-13" d="M1518.4,635.34a.38.38,0,0,0,.38.38.39.39,0,0,0,.39-.38v-3.19a.39.39,0,0,0-.39-.38.38.38,0,0,0-.38.38Z"/><path class="cls-13" d="M1517.2,635.47a.5.5,0,0,0,.49.5.51.51,0,0,0,.5-.5v-3a.5.5,0,0,0-.5-.5.49.49,0,0,0-.49.5Z"/><ellipse class="cls-13" cx="1518.97" cy="632.59" rx="2.15" ry="2.4"/><path class="cls-7" d="M1505.74,637.58a1.28,1.28,0,1,0,2.56,0V631a1.28,1.28,0,0,0-2.56,0Z"/><path class="cls-12" d="M1506.13,638.13a.81.81,0,0,0,.81.81h.85a.81.81,0,0,0,0-1.62h-.85a.81.81,0,0,0-.81.81Z"/><path class="cls-7" d="M1504.27,639.69a1.61,1.61,0,1,0,3.21,0V629.56a1.61,1.61,0,0,0-3.21,0Z"/><path class="cls-12" d="M1504,640.58a1.13,1.13,0,0,0,1.13,1.13h1.43a1.13,1.13,0,1,0,0-2.26h-1.43a1.13,1.13,0,0,0-1.13,1.13Z"/><path class="cls-7" d="M1522.24,637.8a1.06,1.06,0,0,0,2.12,0v-5.62a1.06,1.06,0,0,0-2.12,0Z"/><path class="cls-12" d="M1522.55,638.28a.65.65,0,0,0,.65.65h.64a.65.65,0,1,0,0-1.3h-.64a.65.65,0,0,0-.65.65Z"/><path class="cls-7" d="M1520.28,640.87a1.44,1.44,0,1,0,2.88,0v-8.32a1.44,1.44,0,0,0-2.88,0Z"/><ellipse class="cls-7" cx="1535.46" cy="622.41" rx="1.33" ry="8.37" transform="translate(-100.97 881.53) rotate(-31.06)"/><ellipse class="cls-7" cx="1517.75" cy="621.98" rx="17.38" ry="11.43"/><path class="cls-7" d="M1495.59,609.48a5.76,5.76,0,0,0,11.52,0v-5.9a5.76,5.76,0,0,0-11.52,0Z"/><path class="cls-14" d="M1493.41,614.31a5.14,5.14,0,0,0,5.14,5.15h5.92a5.15,5.15,0,0,0,0-10.29h-5.92a5.14,5.14,0,0,0-5.14,5.14Z"/><ellipse class="cls-7" cx="1503.43" cy="613.02" rx="0.75" ry="2.08"/><ellipse class="cls-7" cx="1499.99" cy="612.7" rx="0.98" ry="2.34"/><path class="cls-12" d="M1519.89,642.13a1.13,1.13,0,0,0,1.13,1.13h1.43a1.13,1.13,0,0,0,0-2.26H1521a1.12,1.12,0,0,0-1.13,1.13Z"/><ellipse cx="1499.17" cy="603.25" rx="1.03" ry="1.16"/><ellipse cx="1503.01" cy="603.28" rx="0.9" ry="1"/><ellipse class="cls-7" cx="1539.44" cy="629.01" rx="1.45" ry="2.13" transform="translate(-62.47 1075.55) rotate(-37.8)"/><ellipse class="cls-15" cx="1504.03" cy="617.46" rx="0.49" ry="0.84" transform="translate(-103.64 859.86) rotate(-30.89)"/><path class="cls-25" d="M1504.62,616a3.69,3.69,0,0,1-1.91,1.17,5.44,5.44,0,0,1-4.46-.9"/><ellipse class="cls-17" cx="1526.22" cy="621.34" rx="3.72" ry="2.1" transform="translate(56.51 1366.56) rotate(-49.04)"/><ellipse class="cls-17" cx="1516.23" cy="614.18" rx="2.11" ry="3.63" transform="translate(60.08 1359.7) rotate(-49.16)"/><ellipse class="cls-17" cx="1513.45" cy="625.5" rx="1.72" ry="4.1" transform="translate(715.46 2055.53) rotate(-83.29)"/></g><g id="goodcow-10" data-name="goodcow"><ellipse class="cls-12" cx="1379.59" cy="751.07" rx="1.34" ry="3.57" transform="translate(342.06 1930.43) rotate(-77.23)"/><ellipse class="cls-12" cx="1359.43" cy="751.36" rx="2.96" ry="1.32" transform="translate(-188.5 622.9) rotate(-24.19)"/><path class="cls-13" d="M1394.49,795.44a.54.54,0,1,0,1.08,0v-4.5a.54.54,0,1,0-1.08,0Z"/><path class="cls-13" d="M1393.26,794.92a.54.54,0,1,0,1.08,0v-4.49a.54.54,0,0,0-1.08,0Z"/><path class="cls-13" d="M1391.57,795.11a.7.7,0,1,0,1.39,0v-4.18a.7.7,0,1,0-1.39,0Z"/><ellipse class="cls-13" cx="1394.07" cy="791.05" rx="3.04" ry="3.39"/><path class="cls-7" d="M1375.4,798.09a1.81,1.81,0,1,0,3.61,0v-9.32a1.81,1.81,0,1,0-3.61,0Z"/><path class="cls-12" d="M1375.94,798.86a1.14,1.14,0,0,0,1.15,1.15h1.2a1.15,1.15,0,0,0,0-2.29h-1.2a1.14,1.14,0,0,0-1.15,1.14Z"/><path class="cls-7" d="M1373.32,801.07a2.27,2.27,0,0,0,4.53,0v-14.3a2.27,2.27,0,0,0-4.53,0Z"/><path class="cls-12" d="M1373,802.32a1.6,1.6,0,0,0,1.6,1.59h2a1.59,1.59,0,1,0,0-3.18h-2a1.6,1.6,0,0,0-1.6,1.59Z"/><path class="cls-7" d="M1398.68,798.4a1.5,1.5,0,0,0,3,0v-7.93a1.5,1.5,0,0,0-3,0Z"/><path class="cls-12" d="M1399.12,799.07a.92.92,0,0,0,.91.92h.91a.92.92,0,1,0,0-1.84H1400a.92.92,0,0,0-.91.92Z"/><path class="cls-7" d="M1395.92,802.73a2,2,0,0,0,4.07,0V791a2,2,0,0,0-4.07,0Z"/><ellipse class="cls-7" cx="1417.33" cy="776.68" rx="1.88" ry="11.81" transform="translate(-197.5 842.7) rotate(-31.06)"/><ellipse class="cls-7" cx="1392.34" cy="776.07" rx="24.52" ry="16.13"/><path class="cls-7" d="M1361.08,758.43a8.13,8.13,0,0,0,16.25,0v-8.32a8.13,8.13,0,1,0-16.25,0Z"/><path class="cls-14" d="M1358,765.26a7.26,7.26,0,0,0,7.26,7.26h8.35a7.27,7.27,0,0,0,0-14.53h-8.35a7.26,7.26,0,0,0-7.26,7.27Z"/><ellipse class="cls-7" cx="1372.14" cy="763.43" rx="1.06" ry="2.94"/><ellipse class="cls-7" cx="1367.28" cy="762.98" rx="1.38" ry="3.3"/><path class="cls-12" d="M1395.36,804.5a1.6,1.6,0,0,0,1.6,1.6h2a1.6,1.6,0,0,0,0-3.19h-2a1.6,1.6,0,0,0-1.6,1.59Z"/><ellipse cx="1366.13" cy="749.64" rx="1.46" ry="1.63"/><ellipse cx="1371.55" cy="749.68" rx="1.27" ry="1.42"/><ellipse class="cls-7" cx="1422.96" cy="785.99" rx="2.04" ry="3" transform="translate(-183.13 1037.1) rotate(-37.8)"/><ellipse class="cls-15" cx="1372.99" cy="769.7" rx="0.69" ry="1.18" transform="translate(-200.4 814.17) rotate(-30.89)"/><path class="cls-26" d="M1373.82,767.66a5.18,5.18,0,0,1-2.7,1.65,7.69,7.69,0,0,1-6.3-1.27"/><ellipse class="cls-17" cx="1404.29" cy="775.17" rx="5.25" ry="2.96" transform="translate(-101.65 1327.48) rotate(-49.04)"/><ellipse class="cls-17" cx="1390.2" cy="765.07" rx="2.98" ry="5.12" transform="translate(-97.7 1316.57) rotate(-49.16)"/><ellipse class="cls-17" cx="1386.28" cy="781.04" rx="2.43" ry="5.78" transform="translate(448.67 2066.6) rotate(-83.29)"/></g></g><g id="happy"><ellipse class="cls-27" cx="1231.02" cy="741.33" rx="4.49" ry="14.84" transform="translate(-128.98 1205.43) rotate(-49.9)"/><path class="cls-28" d="M1204.56,787.72l7.81,50.44c8.62-7.89,14.35-28,14.35-50.44,0-29.57-10-53.9-22.16-53.9s-22.17,24.33-22.17,53.9c0,21.54,5.32,41.1,13.46,49.56Z"/><path d="M1175.84,693.67c1.73,3.33-5.19,9.68-2,11.69s9.46-7.88,12.62-5.87-3.13,11.91,0,13.93,5.93-6.91,9.68-6.78,5.9,9.21,9.18,7.42-2.34-12.09,1-13.89,8.92,8.5,12.21,6.7-3.2-8.59-1.25-11.79,11-.57,11.12-4.38-11.6-4.19-11.48-8,11.85-3.43,12-7.24-9-1.72-10.82-5.1,5.19-9.67,2-11.69-9.46,7.89-12.63,5.88,3.13-11.92,0-13.93-5.94,6.91-9.69,6.78-5.89-9.22-9.18-7.42,2.34,12.09-1,13.89-8.91-8.5-12.2-6.7,3.19,8.59,1.24,11.79-11,.57-11.12,4.38,11.61,4.18,11.48,8-12.86,5.6-11.69,9.23C1166.39,693.93,1174.08,690.29,1175.84,693.67Z"/><path d="M1191.63,693.64c1.73,3.33-5.19,9.68-2,11.69s9.46-7.88,12.63-5.87-3.13,11.91,0,13.93,5.94-6.91,9.69-6.78,5.89,9.21,9.18,7.42-2.34-12.1.95-13.89,8.91,8.5,12.2,6.7-3.19-8.59-1.24-11.79,11-.57,11.12-4.38-11.61-4.19-11.48-8,11.84-3.43,12-7.24-9.06-1.72-10.82-5.1,5.19-9.67,2-11.69-9.46,7.89-12.62,5.87,3.13-11.91,0-13.92-5.93,6.91-9.68,6.78-5.9-9.22-9.18-7.42,2.34,12.09-.95,13.88-8.92-8.49-12.21-6.69,3.2,8.58,1.25,11.79-11,.57-11.12,4.38,11.6,4.18,11.48,8-12.86,5.6-11.69,9.23C1182.17,693.9,1189.86,690.26,1191.63,693.64Z"/><ellipse class="cls-27" cx="1183.93" cy="739.67" rx="16.38" ry="4.26" transform="translate(-196.01 950.78) rotate(-40.69)"/><ellipse class="cls-27" cx="1204.59" cy="695.53" rx="28.88" ry="29.26"/><ellipse class="cls-27" cx="1176.64" cy="754.52" rx="2.11" ry="8.18" transform="translate(-211.94 914.55) rotate(-39.24)"/><ellipse class="cls-27" cx="1234.25" cy="755.6" rx="11.88" ry="3.58" transform="translate(-168.1 1112.98) rotate(-45.77)"/><ellipse class="cls-27" cx="1181.71" cy="760.39" rx="3.55" ry="3.63"/><ellipse class="cls-27" cx="1227.37" cy="763.17" rx="2.9" ry="2.97"/><ellipse class="cls-29" cx="1214.3" cy="837.5" rx="3.02" ry="8.35"/><ellipse class="cls-29" cx="1194.29" cy="835.74" rx="2.43" ry="7.81"/><rect class="cls-30" x="1192.1" y="839.81" width="4.15" height="6.76" rx="1.08"/><rect class="cls-31" x="1187.72" y="842.9" width="8.59" height="4.31" rx="1.08"/><rect class="cls-30" x="1212.1" y="840.84" width="4.82" height="8.57" rx="1.08"/><rect class="cls-31" x="1211.75" y="844.95" width="9.83" height="5.01" rx="1.08"/><ellipse class="cls-32" cx="1215.42" cy="693.75" rx="2.54" ry="3.63"/><ellipse class="cls-32" cx="1201.81" cy="693.87" rx="2.78" ry="4.12"/><path class="cls-33" d="M1209.91,706.52H1199.5c0,2.22,4.7,4.05,10.41,4.05s10.42-1.83,10.42-4.05a1.78,1.78,0,0,0-.23-.85Z"/><ellipse class="cls-34" cx="1203.35" cy="735.75" rx="17.19" ry="11.02"/><path class="cls-35" d="M1210.44,743.47a1.79,1.79,0,0,0,3.57,0V728.16a1.79,1.79,0,0,0-3.57,0Z"/><ellipse class="cls-34" cx="1223.85" cy="735.91" rx="5.16" ry="7.8" transform="translate(120.24 1642.22) rotate(-70.41)"/><ellipse class="cls-34" cx="1185.65" cy="737.65" rx="8.23" ry="4.93" transform="translate(-191.89 966.3) rotate(-41.31)"/><path class="cls-35" d="M1193.87,744.13a1.61,1.61,0,1,0,3.21,0V727.62a1.61,1.61,0,1,0-3.21,0Z"/><ellipse cx="1204.53" cy="673.05" rx="25.33" ry="11.08"/><ellipse cx="1224.66" cy="679.81" rx="5.25" ry="12.79" transform="translate(-164.07 862.47) rotate(-36.53)"/><ellipse cx="1183.36" cy="681.13" rx="12.79" ry="3.6" transform="translate(-69.7 1223.45) rotate(-53.33)"/><ellipse class="cls-36" cx="1195.41" cy="743.44" rx="1.54" ry="1.57"/><ellipse class="cls-37" cx="1195.41" cy="743.56" rx="0.36" ry="0.36"/><ellipse class="cls-36" cx="1212.22" cy="742.9" rx="1.42" ry="1.39"/><ellipse class="cls-37" cx="1212.22" cy="743.14" rx="0.24" ry="0.3"/><path class="cls-38" d="M1216.65,762.7l-6.23.25c0,8.6,2.85,15.6,6.23,15.6s6.24-7.16,6.24-15.85Z"/></g></g></g></g></svg>