<svg xmlns="http://www.w3.org/2000/svg" xmlns:xlink="http://www.w3.org/1999/xlink" width="2211.08" height="1275.33" viewBox="0 0 2211.08 1275.33"><defs><style>.cls-1{isolation:isolate;}.cls-2{fill:url(#linear-gradient);}.cls-3{fill:#96a65d;}.cls-4{fill:#6f8c30;}.cls-5{fill:#387404;mix-blend-mode:darken;}.cls-6{fill:#f2e641;}.cls-7{fill:#fff;}.cls-8{opacity:0.92;}.cls-9{opacity:0.77;}.cls-10{fill:#e1ab85;}.cls-11,.cls-12,.cls-16,.cls-17,.cls-18,.cls-19{fill:#0d0d0d;}.cls-12,.cls-16,.cls-17,.cls-18,.cls-19,.cls-30,.cls-33,.cls-34,.cls-35,.cls-36{stroke:#000;stroke-miterlimit:10;}.cls-12{stroke-width:2.34px;}.cls-13{fill:#736258;}.cls-14{fill:#f2d0e3;}.cls-15{fill:#333;}.cls-16{stroke-width:2.24px;}.cls-17{stroke-width:2.61px;}.cls-18{stroke-width:2.57px;}.cls-19{stroke-width:2.51px;}.cls-20{fill:#10735a;}.cls-21{fill:#a67c52;}.cls-22{fill:#b9121b;}.cls-23{fill:#4c1b1b;}.cls-24{fill:#8c6239;}.cls-25{fill:#be393a;}.cls-26{fill:#4d4d4d;}.cls-27{fill:#b88d1e;}.cls-28{fill:#8c8c80;}.cls-29{fill:#104639;}.cls-30{fill:#ff836a;stroke-width:0.87px;}.cls-31{fill:#f2dde3;}.cls-32{fill:#ed1c24;}.cls-33,.cls-34,.cls-35,.cls-36{fill:none;}.cls-33{stroke-width:0.67px;}.cls-34{stroke-width:0.77px;}.cls-35{stroke-width:0.64px;}.cls-36{stroke-width:0.73px;}.cls-37{fill:#754c24;}.cls-38{fill:url(#linear-gradient-2);}</style><linearGradient id="linear-gradient" x1="218.93" y1="1174.15" x2="2407.9" y2="-453.06" gradientUnits="userSpaceOnUse"><stop offset="0" stop-color="#4cacf7"/><stop offset="1" stop-color="#fff"/></linearGradient><linearGradient id="linear-gradient-2" x1="166.84" y1="739.69" x2="2124.45" y2="739.69" gradientTransform="matrix(1.01, 0.04, -0.03, 1.15, -45.55, 10.34)" gradientUnits="userSpaceOnUse"><stop offset="0" stop-color="#8c6239"/><stop offset="0.49" stop-color="#724922"/><stop offset="0.55" stop-color="#6f4721"/><stop offset="1" stop-color="#42210b"/></linearGradient></defs><g class="cls-1"><g id="Layer_2" data-name="Layer 2"><g id="Layer_1-2" data-name="Layer 1"><g id="bg10"><rect class="cls-2" x="112.5" width="1919" height="1080"/><ellipse class="cls-3" cx="1627.05" cy="802.29" rx="474.96" ry="184.79"/><ellipse class="cls-4" cx="651.5" cy="841.15" rx="575.5" ry="223.91"/><ellipse class="cls-5" cx="1105.54" cy="1039.04" rx="1105.54" ry="236.29"/><path class="cls-6" d="M2003.72,162c0,1.48-84,.9-84.08,2.36s83.59,9.09,83.45,10.54-83.69-7.31-83.91-5.86,82.3,17.22,82,18.66-82.58-15.45-82.94-14,80.25,25.11,79.82,26.52-80.71-23.32-81.2-21.93,77.49,32.62,76.94,34-78.18-30.77-78.79-29.43,74.16,39.61,73.48,40.92-75.08-37.71-75.81-36.43,70.37,46,69.58,47.26-71.54-44.07-72.38-42.86,66.22,51.81,65.33,53-67.65-49.84-68.59-48.71,61.82,57,60.84,58.1-63.5-55-64.53-54,57.24,61.59,56.18,62.61-59.18-59.65-60.28-58.67,52.55,65.64,51.42,66.58-54.74-63.76-55.91-62.86,47.8,69.17,46.61,70-50.21-67.38-51.44-66.56,43,72.25,41.76,73-45.62-70.57-46.9-69.83,38.2,74.9,36.9,75.59-41-73.35-42.32-72.7,33.4,77.17,32,77.78-36.35-75.77-37.71-75.2,28.6,79.07,27.22,79.6-31.71-77.83-33.1-77.34,23.83,80.64,22.42,81.08-27-79.56-28.47-79.16S1880.45,306,1879,306.35s-22.41-81-23.85-80.68,14.36,82.85,12.91,83.13-17.78-82.14-19.24-81.9,9.68,83.53,8.21,83.73-13.17-83-14.63-82.84,5,83.93,3.56,84-8.59-83.61-10.07-83.53.46,84.09-1,84.13-4.06-83.95-5.53-83.95-4.08,84-5.54,83.95.44-84.05-1-84.13-8.61,83.65-10.07,83.53,5-83.9,3.57-84-13.19,83-14.64,82.84,9.65-83.49,8.21-83.73-17.8,82.18-19.24,81.9S1805,226,1803.54,225.67s-22.43,81-23.85,80.68,19-81.86,17.64-82.26-27.08,79.61-28.47,79.16,23.8-80.6,22.42-81.08-31.74,77.86-33.1,77.34,28.57-79,27.22-79.6-36.38,75.8-37.72,75.2,33.37-77.13,32.06-77.78-41,73.39-42.32,72.7,38.17-74.86,36.9-75.6-45.66,70.61-46.9,69.84,43-72.21,41.76-73-50.25,67.42-51.44,66.57,47.76-69.14,46.6-70-54.78,63.79-55.91,62.85,52.52-65.6,51.43-66.57-59.24,59.68-60.29,58.66,57.2-61.55,56.18-62.6-63.56,55-64.53,53.95S1753,197.12,1752.06,196s-67.7,49.86-68.59,48.69,66.17-51.77,65.34-53-71.6,44.1-72.39,42.86,70.32-46,69.59-47.26-75.14,37.73-75.82,36.43,74.11-39.59,73.49-40.92-78.24,30.79-78.79,29.43,77.43-32.59,76.94-34-80.78,23.34-81.2,21.93,80.17-25.09,79.82-26.52-82.65,15.46-82.94,14,82.23-17.19,82-18.65-83.76,7.33-83.91,5.86,83.52-9.06,83.45-10.54S1655,163.48,1655,162s84-.9,84.08-2.36-83.59-9.09-83.45-10.54,83.69,7.31,83.91,5.86-82.3-17.22-82-18.66,82.58,15.45,82.94,14-80.25-25.11-79.82-26.52,80.71,23.32,81.2,21.93-77.49-32.62-76.94-34,78.18,30.77,78.79,29.43-74.16-39.61-73.48-40.92S1745.28,138,1746,136.69s-70.37-46-69.58-47.26,71.54,44.07,72.38,42.86-66.22-51.81-65.33-53,67.65,49.84,68.59,48.71-61.82-57-60.84-58.1,63.5,55,64.53,54-57.24-61.59-56.18-62.61,59.18,59.65,60.28,58.67-52.55-65.64-51.42-66.58,54.74,63.76,55.91,62.86-47.8-69.17-46.61-70,50.21,67.38,51.44,66.56-43-72.25-41.76-73,45.62,70.57,46.9,69.83-38.2-74.9-36.9-75.59,41,73.35,42.32,72.7-33.4-77.17-32-77.78,36.35,75.77,37.71,75.2-28.6-79.07-27.22-79.6,31.71,77.83,33.1,77.34-23.83-80.64-22.42-81.08,27.05,79.56,28.47,79.16S1778.26,18,1779.69,17.65s22.41,81,23.85,80.68-14.36-82.85-12.91-83.13,17.78,82.14,19.24,81.9-9.68-83.53-8.21-83.73,13.17,83,14.63,82.84-5-83.93-3.56-84,8.59,83.61,10.07,83.53-.46-84.09,1-84.13,4.06,84,5.54,84,4.07-84,5.53-83.95-.44,84.05,1,84.13S1844.52,12,1846,12.16s-5,83.9-3.57,84.05,13.19-83,14.64-82.84-9.65,83.49-8.21,83.73,17.8-82.18,19.24-81.9S1853.74,98,1855.17,98.33s22.43-81,23.85-80.68-19,81.86-17.64,82.26,27.08-79.61,28.47-79.16-23.8,80.6-22.42,81.08,31.74-77.86,33.1-77.34-28.57,79-27.22,79.6,36.38-75.8,37.72-75.2S1877.66,106,1879,106.67s41-73.39,42.32-72.7-38.17,74.86-36.9,75.6,45.66-70.61,46.9-69.84-43,72.21-41.76,73,50.25-67.42,51.44-66.57-47.76,69.14-46.6,70,54.78-63.79,55.91-62.85-52.52,65.6-51.43,66.57,59.24-59.68,60.29-58.66-57.2,61.55-56.18,62.6,63.56-55,64.53-53.95-61.77,56.95-60.84,58.08,67.7-49.86,68.59-48.69-66.17,51.77-65.34,53,71.6-44.1,72.39-42.86-70.32,46-69.59,47.26,75.14-37.73,75.82-36.43-74.11,39.59-73.49,40.92,78.24-30.79,78.79-29.43-77.43,32.59-76.94,34,80.78-23.34,81.2-21.93-80.17,25.09-79.82,26.52,82.65-15.46,82.94-14-82.23,17.19-82,18.65,83.76-7.33,83.91-5.86-83.52,9.06-83.45,10.54S2003.72,160.52,2003.72,162Z"/><circle class="cls-7" cx="1782.59" cy="130.67" r="5.14"/><circle class="cls-7" cx="1845.26" cy="134.41" r="5.14"/><path class="cls-7" d="M1816.75,192.18l-11.3,3a.83.83,0,0,1,0-.15c-1.19-4.69,3-9.84,9.19-11.41s12.32,1,13.5,5.7c.81,3.23-.87,6.81-4.34,9.22Z"/><g id="cloud1" class="cls-8"><ellipse class="cls-7" cx="270.5" cy="155.5" rx="88.5" ry="70"/><ellipse class="cls-7" cx="359.5" cy="127" rx="66.5" ry="58.5"/><ellipse class="cls-7" cx="331.5" cy="234.5" rx="85.5" ry="67"/><ellipse class="cls-7" cx="224" cy="257.5" rx="55" ry="105" transform="matrix(0.57, -0.82, 0.82, 0.57, -115.31, 294.24)"/></g><g id="cloud2"><ellipse class="cls-7" cx="838.5" cy="162.61" rx="96.5" ry="79.11"/><ellipse class="cls-7" cx="922" cy="185.5" rx="83" ry="56"/><ellipse class="cls-7" cx="809.5" cy="256" rx="96.5" ry="43.5"/><ellipse class="cls-7" cx="1003.5" cy="250" rx="121.5" ry="49.5"/><ellipse class="cls-7" cx="958" cy="163" rx="67" ry="49.5"/></g><g id="cloud3" class="cls-9"><ellipse class="cls-7" cx="1373.5" cy="135.5" rx="108.5" ry="64"/><ellipse class="cls-7" cx="1512.5" cy="185.5" rx="74.5" ry="60"/><ellipse class="cls-7" cx="1398.5" cy="208.5" rx="73.5" ry="46"/></g><ellipse class="cls-10" cx="1343.21" cy="551.3" rx="9.34" ry="9.55"/><g id="devilcow"><polygon class="cls-11" points="1503.83 449.4 1503.81 447.24 1501.9 446.23 1500 447.38 1500.01 449.54 1501.92 450.55 1503.83 449.4"/><polygon class="cls-12" points="1506.19 460.58 1506.05 457.47 1503.41 455.81 1500.91 457.26 1501.05 460.37 1503.69 462.04 1506.19 460.58"/><polygon class="cls-11" points="1461.02 478.74 1460.92 475.41 1458.01 473.77 1455.21 475.47 1455.31 478.81 1458.22 480.44 1461.02 478.74"/><polygon class="cls-12" points="1464 491.1 1463.89 487.76 1460.98 486.13 1458.18 487.83 1458.29 491.16 1461.19 492.8 1464 491.1"/><polygon class="cls-7" points="1517.01 393.23 1514.06 398.74 1478.03 378.47 1480.98 372.96 1517.01 393.23"/><rect class="cls-7" x="1449.16" y="450.51" width="4.75" height="28" transform="translate(-30.55 819.67) rotate(-31.22)"/><rect class="cls-7" x="1447.4" y="453" width="6.62" height="39.07" transform="translate(-34.83 820.41) rotate(-31.22)"/><rect class="cls-7" x="1491.82" y="427.66" width="5.87" height="33.47" transform="translate(-13.86 839.16) rotate(-31.22)"/><rect class="cls-7" x="1494.21" y="425.62" width="3.48" height="24.22" transform="translate(-10.24 838.82) rotate(-31.22)"/><polygon class="cls-13" points="1357.3 419.37 1359.63 419.88 1361.29 411.27 1358.95 410.77 1357.3 419.37"/><polygon class="cls-13" points="1397.51 392.93 1397.4 395.33 1389.95 394.85 1390.05 392.45 1397.51 392.93"/><polygon class="cls-13" points="1380.01 430.17 1384 419.19 1390.93 428.81 1386.77 407.11 1388.97 391.1 1382.41 388.68 1376.84 369.17 1376.95 389.37 1371.31 393.32 1377.93 408.22 1380.01 430.17"/><polygon class="cls-13" points="1408.73 419.45 1393.95 419.3 1399.05 433.43 1378.93 416.98 1360.11 411.92 1362.45 401.9 1345.73 384.65 1367.29 394.92 1375.77 389.31 1386.76 405.67 1408.73 419.45"/><rect class="cls-7" x="1397.37" y="396.28" width="104.38" height="51.99" transform="translate(-8.95 812.53) rotate(-31.22)"/><rect class="cls-7" x="1360.82" y="389.43" width="36.9" height="40.56" transform="translate(-12.62 774.28) rotate(-31.22)"/><rect class="cls-14" x="1382.67" y="412.88" width="28.28" height="46.29" transform="translate(1747.96 1856.55) rotate(-121.22)"/><ellipse class="cls-7" cx="1404.32" cy="429.76" rx="2.05" ry="6.22" transform="translate(-19.38 790.16) rotate(-31.22)"/><ellipse class="cls-7" cx="1389.62" cy="438.67" rx="2.84" ry="6.22" transform="translate(-26.13 783.84) rotate(-31.22)"/><ellipse cx="1369.72" cy="407.37" rx="3" ry="4" transform="translate(-12.78 768.99) rotate(-31.22)"/><ellipse cx="1382.21" cy="401.06" rx="3.23" ry="5.09" transform="matrix(0.86, -0.52, 0.52, 0.86, -7.7, 774.55)"/><polygon points="1371.51 402.65 1363.05 402.74 1363.02 401.78 1371.48 401.69 1371.51 402.65"/><polygon points="1380.04 392.04 1374.64 400.61 1373.65 399.97 1379.06 391.39 1380.04 392.04"/><polygon class="cls-13" points="1520.2 394.26 1516.65 400.89 1511.5 398 1515.06 391.36 1520.2 394.26"/><path class="cls-15" d="M1441.81,423.4c0,.74-7.81-1-7.81-1.53,0,1.83-5.12,6.79-5.12,8.84,0-.62-1.62-8.13-1.62-8.17,0-.73-7.25-2.54-7.25-2.42,0-.34,6.82-4.59,6.82-5.42,0,.33.64-6.28.64-8.73a55.58,55.58,0,0,1,5.82,6.3c0,1.39,7.65-3.08,7.65-.66,0-1.14-3.21,6.17-3.21,6C1437.73,418.76,1441.81,423.21,1441.81,423.4Z"/><path class="cls-15" d="M1475.24,430.36c0,.8-7,2.88-7,2.06,0,.53-4,3.31-4,4.7,0-.42-2.09-7.2-2.09-7.16,0-1.23-6.69-.46-6.69-1.15,0-1.2,5.73-4.89,5.73-6.33,0,2.57-.09-6.77-.09-4.11,0-.46,5.62.91,5.62,3.77,0-.9,6.64-3.67,6.64-3.14,0-.89-2.25,7.56-2.25,6.2C1471.05,426.26,1475.24,432.24,1475.24,430.36Z"/><path class="cls-15" d="M1470,401.14c-.58,0-3-5.51-2.43-5.51a60.13,60.13,0,0,1-6-1.33c-.08,0,4.61-3.78,4-3.78,0,0-.45-5.91.38-5.91-.71,0,6.06,3.17,5.25,3.17-1.27,0,4.85-2.33,5.18-2.33-1.33,0-2.84,5.75-2,5.75s3.8,4.47,4.39,4.47-5,.38-5,.38C1474.26,396.05,1469.52,401.14,1470,401.14Z"/></g><g id="devilcow-2" data-name="devilcow"><polygon class="cls-11" points="1807.88 386.35 1806.82 384.58 1807.88 382.81 1810 382.81 1811.06 384.58 1810 386.35 1807.88 386.35"/><polygon class="cls-16" points="1811.48 396.64 1810.05 394.04 1811.38 391.38 1814.14 391.32 1815.57 393.93 1814.24 396.59 1811.48 396.64"/><polygon class="cls-11" points="1857.31 389.12 1855.75 386.35 1857.31 383.58 1860.44 383.58 1862 386.35 1860.44 389.12 1857.31 389.12"/><polygon class="cls-16" points="1860.99 400.68 1859.43 397.9 1860.99 395.13 1864.12 395.13 1865.68 397.9 1864.12 400.68 1860.99 400.68"/><polygon class="cls-7" points="1769.35 347.05 1774.48 350.08 1793.85 315.73 1788.72 312.69 1769.35 347.05"/><rect class="cls-7" x="1855.75" y="359.47" width="4.53" height="26.71" transform="translate(3716.03 745.65) rotate(180)"/><rect class="cls-7" x="1859.5" y="360.32" width="6.32" height="37.27" transform="translate(3725.32 757.92) rotate(180)"/><rect class="cls-7" x="1810" y="361.82" width="5.6" height="31.93" transform="translate(3625.6 755.56) rotate(180)"/><rect class="cls-7" x="1806.87" y="361.38" width="3.32" height="23.1" transform="translate(3617.07 745.87) rotate(180)"/><polygon class="cls-13" points="1912.58 289.39 1910.92 290.96 1905.32 284.76 1906.97 283.19 1912.58 289.39"/><polygon class="cls-13" points="1866.7 287.7 1867.97 289.61 1873.81 285.54 1872.54 283.63 1866.7 287.7"/><polygon class="cls-13" points="1899.39 309.44 1890.7 302.44 1889.8 313.72 1882.47 293.96 1872.76 281.99 1876.91 276.77 1871.8 258.1 1881.7 274.63 1888.26 275.06 1890.23 290.5 1899.39 309.44"/><polygon class="cls-13" points="1870.66 314.89 1882.64 307.46 1885.46 321.5 1893.74 298.13 1906.59 284.7 1899.73 277.69 1904.85 255.34 1892.33 274.38 1882.64 274 1881.76 292.78 1870.66 314.89"/><rect class="cls-7" x="1788.95" y="312.59" width="99.58" height="49.61" transform="translate(3677.48 674.78) rotate(180)"/><rect class="cls-7" x="1872.28" y="273.03" width="35.2" height="38.7" transform="translate(3779.75 584.75) rotate(180)"/><rect class="cls-14" x="1875.09" y="300.44" width="26.98" height="44.16" transform="translate(1566.06 2211.09) rotate(-90)"/><ellipse class="cls-7" cx="1879.36" cy="321.12" rx="1.96" ry="5.93"/><ellipse class="cls-7" cx="1895.75" cy="321.12" rx="2.71" ry="5.93"/><ellipse cx="1896.5" cy="285.74" rx="2.86" ry="3.82"/><ellipse cx="1883.2" cy="286.77" rx="3.08" ry="4.85"/><polygon points="1892.71 282.78 1899.66 278.67 1899.21 277.87 1892.26 281.98 1892.71 282.78"/><polygon points="1880.5 278.34 1889.15 282.66 1889.64 281.64 1880.98 277.32 1880.5 278.34"/><polygon class="cls-13" points="1767.25 349.46 1773.43 353.12 1776.2 348.21 1770.01 344.56 1767.25 349.46"/><path class="cls-15" d="M1846.18,335.46c0,1.58,5.87-3.51,5.87-4.53,0-.46,7.1,1.87,7.1,1.8,0,.88-2.54-6.14-2.54-5.86,0,.13,4.32-7.9,4.32-8.57,0,2.83-7.44,1.84-7.44,1.89,0-1.38-4.43-6.14-4.43-7.77,0,.59-2.06,9.38-2.06,9s-7.06,2.79-7.06,2.38c0,0,6.17,5,6.17,2.21C1846.11,327,1846.18,335.54,1846.18,335.46Z"/><path class="cls-15" d="M1822.35,358.62c0-1.71,5.61-6.33,5.61-3.69,0-.33,6.12,1.05,6.12,0,0,2.55-1.67-3.79-1.67-3.16,0-2.11,4.35-8.17,4.35-7.23s-6.64,1.08-6.64-.84c0-.93-3.43-4.59-3.43-6.42,0-.22-2.43,8-2.43,5.85,0,1.13-6.48,2.89-6.48,5.24,0-.89,5.14,2.33,5.14,1.49C1822.92,350.19,1822.35,357.17,1822.35,358.62Z"/><path class="cls-15" d="M1811.9,330.27c-.12,0-1.55-5.63-.53-5.63-1.68,0,2.32-3.92,4.09-3.92-1.83,0-5.82-.89-6.9-.89.46,0-2-5.14-1.7-5.14,0,0-3,5.07-3.66,5.07,1.74,0-4.51.74-4.79.74,1.57,0,5.18,4,4.71,4-.18,0-1.68,5.6-1.37,5.6,1.15,0,4.55-2.58,4.44-2.58C1805.48,327.55,1812.4,330.27,1811.9,330.27Z"/></g><g id="devilcow-3" data-name="devilcow"><polygon class="cls-11" points="278.87 350.73 278.45 353.1 280.34 354.59 282.65 353.71 283.07 351.35 281.18 349.86 278.87 350.73"/><polygon class="cls-17" points="278.53 338.03 278.06 341.46 280.61 343.81 283.64 342.73 284.11 339.29 281.56 336.95 278.53 338.03"/><polygon class="cls-11" points="331.56 327.25 331.01 330.91 333.86 333.29 337.26 331.99 337.82 328.32 334.97 325.95 331.56 327.25"/><polygon class="cls-17" points="330.79 313.14 330.23 316.81 333.08 319.18 336.49 317.89 337.04 314.22 334.19 311.85 330.79 313.14"/><polygon class="cls-7" points="253.18 409.49 257.51 404.06 292.83 433.46 288.5 438.89 253.18 409.49"/><rect class="cls-7" x="336.43" y="329.15" width="5.28" height="31.13" transform="translate(778.5 546.43) rotate(159.19)"/><rect class="cls-7" x="337.91" y="314.39" width="7.36" height="43.43" transform="translate(780.32 528.89) rotate(159.19)"/><rect class="cls-7" x="284.51" y="339.43" width="6.53" height="37.2" transform="translate(683.99 590.44) rotate(159.19)"/><rect class="cls-7" x="283.21" y="351.61" width="3.87" height="26.92" transform="translate(681.4 605) rotate(159.19)"/><polygon class="cls-13" points="433.04 412.99 430.59 411.96 427.05 421.04 429.5 422.06 433.04 412.99"/><polygon class="cls-13" points="383.77 433.82 384.37 431.21 392.42 433.24 391.82 435.84 383.77 433.82"/><polygon class="cls-13" points="410.38 396.62 403.81 407.83 398.16 395.92 398.36 420.47 392.74 437.53 399.42 441.49 401.59 463.95 405.52 441.84 412.49 438.66 408.24 421.04 410.38 396.62"/><polygon class="cls-13" points="376.83 402.57 392.95 405.7 390.22 389.24 408.91 411.26 428.46 420.57 423.89 431.05 438.72 453.27 417.2 437.72 406.81 442.14 398.08 422.05 376.83 402.57"/><rect class="cls-7" x="274.74" y="362.38" width="116.03" height="57.8" transform="translate(782.82 638.78) rotate(159.19)"/><rect class="cls-7" x="386.57" y="396.59" width="41.02" height="45.09" transform="translate(936.53 666.26) rotate(159.19)"/><rect class="cls-14" x="377.47" y="361.12" width="31.43" height="51.45" transform="translate(615.07 -118.14) rotate(69.19)"/><ellipse class="cls-7" cx="383.72" cy="392.18" rx="2.28" ry="6.91" transform="translate(-114.32 161.95) rotate(-20.81)"/><ellipse class="cls-7" cx="401.58" cy="385.39" rx="3.15" ry="6.91" transform="translate(-110.74 167.85) rotate(-20.81)"/><ellipse cx="417.05" cy="423.62" rx="3.33" ry="4.45" transform="translate(-123.31 175.84) rotate(-20.81)"/><ellipse cx="402.12" cy="428" rx="3.59" ry="5.65" transform="translate(-125.84 170.82) rotate(-20.81)"/><polygon points="414.14 428.41 423.42 430.01 423.25 431.07 413.98 429.48 414.14 428.41"/><polygon points="402.68 438.31 410.32 430.01 411.26 430.92 403.63 439.21 402.68 438.31"/><polygon class="cls-13" points="249.89 407.73 255.11 401.19 260.16 405.39 254.94 411.93 249.89 407.73"/><path class="cls-15" d="M341.68,391.21c0-1.36,8.34,1.32,8.34,1.74,0-1,6.78-6.26,6.78-6.26,0-1.08.2,10.14.2,11.69,0-.16,7.28,4.21,7.28,3.21,0,.26-8.22.87-8.22,1,0,2.75-2.28,12.08-2.28,8.73,0,2.67-5.28-5.92-5.28-4.63,0-.86-8.69,0-8.69.36,0-1,4.95-6.37,4.95-9.66C344.76,399.26,341.68,389.79,341.68,391.21Z"/><path class="cls-15" d="M306.53,377.58c0,.68,7.62-1.9,7.62.19,0-2.1,5.57-4.66,5.57-7.18,0,1.53.91,9.43.91,7.74,0,2,6.87,5.76,6.87,5.88,0,2-7.06,2.85-7.06,3.79,0-1.36-1.33,8.37-1.33,6.6,0,2-5.27-4.05-5.27-6.62,0-1-7.69-.1-7.69.78,0,3,3.8-7.72,3.8-3.31C310,381.37,306.53,377.46,306.53,377.58Z"/><path class="cls-15" d="M305.43,410.28c-.47,0,.86,6.49,1.52,6.49,1.8,0,7.21,2.6,7.64,2.6-1.93,0-5.39,3.25-5.66,3.25-.5,0-1.15,6.59-2.53,6.59,1.94,0-3.25-4.48-5.17-4.48,2.47,0-4,1.47-4.49,1.47-1.87,0,1.85-6,2.4-6,1.16,0-2.33-5.68-3.58-5.68-.11,0,7.14.76,6.71.76S305.63,410.28,305.43,410.28Z"/></g><g id="devilcow-4" data-name="devilcow"><polygon class="cls-11" points="646.8 37.84 648.02 39.88 646.8 41.92 644.35 41.92 643.13 39.88 644.35 37.84 646.8 37.84"/><polygon class="cls-18" points="642.65 25.99 644.29 28.99 642.76 32.05 639.58 32.11 637.94 29.11 639.47 26.05 642.65 25.99"/><polygon class="cls-11" points="589.88 34.64 591.68 37.84 589.88 41.03 586.28 41.03 584.48 37.84 586.28 34.64 589.88 34.64"/><polygon class="cls-18" points="585.64 21.34 587.44 24.54 585.64 27.73 582.04 27.73 580.24 24.54 582.04 21.34 585.64 21.34"/><polygon class="cls-7" points="691.16 83.09 685.25 79.6 662.95 119.16 668.86 122.65 691.16 83.09"/><rect class="cls-7" x="586.47" y="38.03" width="5.21" height="30.76"/><rect class="cls-7" x="580.09" y="24.89" width="7.27" height="42.92"/><rect class="cls-7" x="637.91" y="29.32" width="6.45" height="36.76"/><rect class="cls-7" x="644.13" y="39.98" width="3.82" height="26.6"/><polygon class="cls-13" points="526.25 149.48 528.15 147.67 534.61 154.81 532.7 156.62 526.25 149.48"/><polygon class="cls-13" points="579.07 151.42 577.61 149.22 570.88 153.91 572.35 156.11 579.07 151.42"/><polygon class="cls-13" points="541.44 126.39 551.44 134.45 552.47 121.47 560.91 144.21 572.1 158 567.32 164 573.2 185.5 561.8 166.47 554.24 165.97 551.99 148.2 541.44 126.39"/><polygon class="cls-13" points="574.51 120.12 560.72 128.67 557.47 112.5 547.94 139.41 533.14 154.87 541.04 162.95 535.15 188.68 549.56 166.76 560.72 167.2 561.73 145.57 574.51 120.12"/><rect class="cls-7" x="553.94" y="65.65" width="114.66" height="57.11"/><rect class="cls-7" x="532.12" y="123.76" width="40.53" height="44.56"/><rect class="cls-14" x="538.35" y="85.91" width="31.06" height="50.84" transform="translate(665.22 -442.55) rotate(90)"/><ellipse class="cls-7" cx="564.5" cy="112.94" rx="2.25" ry="6.83"/><ellipse class="cls-7" cx="545.62" cy="112.94" rx="3.12" ry="6.83"/><ellipse cx="544.76" cy="153.68" rx="3.29" ry="4.4"/><ellipse cx="560.08" cy="152.49" rx="3.55" ry="5.59"/><polygon points="549.12 157.09 541.12 161.82 541.64 162.75 549.64 158.01 549.12 157.09"/><polygon points="563.18 162.2 553.22 157.23 552.66 158.39 562.63 163.37 563.18 162.2"/><polygon class="cls-13" points="693.58 80.31 686.46 76.1 683.28 81.75 690.39 85.96 693.58 80.31"/><path class="cls-15" d="M602.7,95.52c0-.91-6.76,5.3-6.76,5.54,0,1.74-8.18-3.57-8.18-3.69,0,2.31,2.93,9,2.93,12,0-3.17-5,6.16-5,6.86,0-3.49,8.57-2.71,8.57-.77,0-.72,5.11,4.45,5.11,5.63,0-1.48,2.36-9.47,2.36-9.38,0,1.75,8.13-2.22,8.13-1.28,0,.32-7.1-7-7.1-5.19C602.78,103.78,602.7,96.8,602.7,95.52Z"/><path class="cls-15" d="M630.13,72.81c0-2.18-6.45.8-6.45,1.13,0,1.42-7-2.29-7-2.33s1.92,6.14,1.92,9.63c0-1.8-5,3-5,3.32,0,2.22,7.65,2,7.65,1,0,1.36,3.95,5.19,3.95,5.13,0,2.35,2.8-4.94,2.8-6.84,0,.9,7.46-1,7.46.09,0-2.33-5.92-4.27-5.92-6.14C629.48,78.76,630.13,71.07,630.13,72.81Z"/><path class="cls-15" d="M643.62,102.41c-1.19,0-.77,6.48.28,6.48-1.25,0-6.29,4.51-5,4.51,1.48,0,5.21,1,6.71,1-1.07,0,3.11,5.92,2.81,5.92-1.07,0,1.26-5.84,2.32-5.84s8-.86,6-.86c.11,0-3.23-4.64-3.8-4.64s2.19-6.45.8-6.45c1.58,0-4.53,3-4.57,3S642.24,102.41,643.62,102.41Z"/></g><g id="devilcow-5" data-name="devilcow"><polygon class="cls-11" points="1664.91 194.44 1666.11 196.43 1664.91 198.42 1662.53 198.42 1661.34 196.43 1662.53 194.44 1664.91 194.44"/><polygon class="cls-19" points="1660.87 182.88 1662.47 185.81 1660.98 188.8 1657.87 188.86 1656.27 185.93 1657.77 182.94 1660.87 182.88"/><polygon class="cls-11" points="1609.36 191.33 1611.12 194.44 1609.36 197.56 1605.84 197.56 1604.09 194.44 1605.84 191.33 1609.36 191.33"/><polygon class="cls-19" points="1605.22 178.34 1606.98 181.46 1605.22 184.57 1601.71 184.57 1599.95 181.46 1601.71 178.34 1605.22 178.34"/><polygon class="cls-7" points="1708.22 238.62 1702.45 235.21 1680.68 273.82 1686.45 277.23 1708.22 238.62"/><rect class="cls-7" x="1606.03" y="194.63" width="5.09" height="30.02"/><rect class="cls-7" x="1599.8" y="181.81" width="7.1" height="41.89"/><rect class="cls-7" x="1656.24" y="186.13" width="6.3" height="35.88"/><rect class="cls-7" x="1662.31" y="196.54" width="3.73" height="25.97"/><polygon class="cls-13" points="1547.25 303.41 1549.11 301.65 1555.41 308.62 1553.55 310.38 1547.25 303.41"/><polygon class="cls-13" points="1598.81 305.31 1597.38 303.16 1590.82 307.75 1592.24 309.89 1598.81 305.31"/><polygon class="cls-13" points="1562.07 280.88 1571.84 288.75 1572.85 276.07 1581.08 298.28 1592 311.73 1587.33 317.59 1593.07 338.58 1581.95 320 1574.58 319.52 1572.37 302.17 1562.07 280.88"/><polygon class="cls-13" points="1594.36 274.75 1580.9 283.1 1577.72 267.32 1568.42 293.59 1553.97 308.68 1561.69 316.56 1555.94 341.68 1570.01 320.28 1580.9 320.71 1581.88 299.6 1594.36 274.75"/><rect class="cls-7" x="1574.27" y="221.59" width="111.92" height="55.75"/><rect class="cls-7" x="1552.98" y="278.31" width="39.56" height="43.49"/><rect class="cls-14" x="1559.06" y="241.37" width="30.32" height="49.63" transform="translate(1840.41 -1308.04) rotate(90)"/><ellipse class="cls-7" cx="1584.59" cy="267.75" rx="2.2" ry="6.66"/><ellipse class="cls-7" cx="1566.16" cy="267.75" rx="3.04" ry="6.66"/><ellipse cx="1565.31" cy="307.52" rx="3.21" ry="4.29"/><ellipse cx="1580.27" cy="306.36" rx="3.46" ry="5.45"/><polygon points="1569.58 310.85 1561.76 315.46 1562.27 316.37 1570.09 311.75 1569.58 310.85"/><polygon points="1583.3 315.84 1573.57 310.98 1573.03 312.12 1582.76 316.98 1583.3 315.84"/><polygon class="cls-13" points="1710.58 235.9 1703.63 231.79 1700.52 237.31 1707.47 241.41 1710.58 235.9"/><path class="cls-15" d="M1621.87,251.41c0,1.85-6.59,6.71-6.59,5.5,0-1.78-8-3.14-8-2.36,0,.22,2.86,9.66,2.86,6.34,0,2.84-4.86,7.76-4.86,7.09,0,3,8.37.76,8.37-.38,0,1.1,5,6.77,5,8.95,0-1.26,2.31-7.41,2.31-8.56,0-1.48,7.94-2.91,7.94-3.09,0-.54-6.94-4.45-6.94-3.67C1622,259,1621.87,251,1621.87,251.41Z"/><path class="cls-15" d="M1648.65,227.44c0,1.08-6.3,1.44-6.3,3.31,0-1.71-6.88-3.91-6.88-1.31,0-.52,1.88,6.35,1.88,4.33,0,.57-4.89,7.51-4.89,6.66,0,2.34,7.46,1,7.46,2.18,0-2.39,3.86,4.07,3.86,5.1,0,1.68,2.73-6.06,2.73-5.21,0-2,7.28-2.89,7.28-2.48,0-1.47-5.78-6.2-5.78-6.41C1648,235.27,1648.65,226.83,1648.65,227.44Z"/><path class="cls-15" d="M1660.74,257.47c1.25,0,.8,6.33-.11,6.33.5,0-2.72,4.4-3,4.4a49.31,49.31,0,0,1,6.28,1c-1.61,0,1.48,5.77,1.52,5.77,1.25,0,4-5.7,3.19-5.7a53.25,53.25,0,0,0,6.23-.83c.58,0-4.43-4.53-3.41-4.53-.43,0-.8-6.3.59-6.3.51,0-6.79,2.91-5.38,2.91C1666.13,260.53,1661.69,257.47,1660.74,257.47Z"/></g><g id="sad"><ellipse class="cls-10" cx="1269.73" cy="683.46" rx="40.95" ry="9.49" transform="translate(419.84 1848.37) rotate(-82.18)"/><ellipse class="cls-10" cx="1264.81" cy="719.17" rx="19.9" ry="4.99" transform="translate(447.45 1922.85) rotate(-85.44)"/><path class="cls-20" d="M1324.81,768.33,1306,890c-20.78-19-34.62-67.67-34.62-121.68,0-71.32,24.14-130,53.47-130s53.46,58.7,53.46,130c0,52-12.81,99.16-32.46,119.57Z"/><path d="M1419.17,557.5c-4.19,8-27.77-13.64-35.41-8.78s7.56,28.73-.08,33.59-22.82-19-30.46-14.16,1.85,35.49-7.2,35.8-1.62-30.89-9.55-35.23-21.5,20.5-29.43,16.17,5.64-29.17-2.29-33.5-30,18.82-34.74,11.1,25.94-17,25.64-26.19-28.58-8.28-28.87-17.47,28-10.1,27.69-19.29-31.54-16.33-27.28-24.48,27.77,13.63,35.41,8.77-7.56-28.73.07-33.59,22.83,19,30.47,14.16-1.85-35.49,7.19-35.79,1.63,30.89,9.56,35.22,21.5-20.5,29.43-16.16-5.64,29.16,2.29,33.5,30-18.83,34.74-11.11-25.94,17-25.64,26.19,28.58,8.28,28.87,17.47-30.33,17.1-26.14,25.28C1400.16,552.14,1423.42,549.34,1419.17,557.5Z"/><path d="M1381.09,557.42c-4.19,8-27.77-13.63-35.41-8.77s7.56,28.73-.08,33.59-22.82-19-30.46-14.16,1.85,35.49-7.2,35.79-1.62-30.89-9.55-35.22-21.5,20.5-29.43,16.17,5.64-29.17-2.29-33.5-30,18.82-34.74,11.1,25.94-17,25.64-26.19S1229,528,1228.7,518.76s28-10.1,27.69-19.3-31.54-16.32-27.28-24.47,27.77,13.63,35.41,8.77-7.56-28.73.07-33.59,22.83,19,30.47,14.16-1.85-35.49,7.19-35.8,1.63,30.89,9.56,35.23,21.5-20.5,29.43-16.17-5.64,29.17,2.29,33.5,30-18.82,34.74-11.1-25.94,17-25.64,26.19,28.58,8.28,28.87,17.47-30.33,17.09-26.14,25.28C1362.08,552.07,1385.35,549.27,1381.09,557.42Z"/><ellipse class="cls-10" cx="1378.39" cy="676.68" rx="10.14" ry="40.95" transform="translate(-79.24 193.79) rotate(-7.82)"/><ellipse class="cls-10" cx="1325.02" cy="545.67" rx="69.67" ry="70.6"/><ellipse class="cls-10" cx="1383.29" cy="716.28" rx="5.04" ry="19.91"/><ellipse class="cls-10" cx="1384.22" cy="737.17" rx="8.56" ry="8.75"/><ellipse class="cls-21" cx="1301.04" cy="886.24" rx="7.57" ry="22.34"/><ellipse class="cls-21" cx="1349.58" cy="884.19" rx="5.85" ry="18.84"/><rect class="cls-22" x="1344.86" y="894" width="10.01" height="16.3" rx="2.6"/><rect class="cls-23" x="1344.72" y="901.45" width="20.71" height="10.39" rx="2.6"/><rect class="cls-22" x="1294.97" y="896.48" width="11.64" height="20.68" rx="2.6"/><rect class="cls-23" x="1283.76" y="906.4" width="23.71" height="12.07" rx="2.6"/><ellipse class="cls-24" cx="1298.61" cy="544.58" rx="6.14" ry="8.76"/><ellipse class="cls-24" cx="1331.45" cy="544.87" rx="6.71" ry="9.93"/><ellipse class="cls-25" cx="1327.73" cy="642.99" rx="41.46" ry="26.57"/><path class="cls-26" d="M1302,661.6a4.31,4.31,0,0,0,8.61,0V624.67a4.31,4.31,0,1,0-8.61,0Z"/><ellipse class="cls-25" cx="1370.41" cy="647.57" rx="11.9" ry="19.86" transform="translate(-20.68 1249.43) rotate(-48.69)"/><path class="cls-26" d="M1342.84,663.19a3.88,3.88,0,1,0,7.76,0V623.36a3.88,3.88,0,1,0-7.76,0Z"/><ellipse cx="1324.88" cy="494.64" rx="61.1" ry="26.72"/><ellipse cx="1271.32" cy="505.96" rx="30.85" ry="12.67" transform="matrix(0.6, -0.8, 0.8, 0.6, 108.04, 1226.41)"/><ellipse cx="1378.29" cy="513.25" rx="8.68" ry="30.85" transform="translate(-33.71 924.77) rotate(-36.67)"/><ellipse class="cls-27" cx="1346.86" cy="661.53" rx="3.71" ry="3.8"/><ellipse class="cls-28" cx="1346.86" cy="661.82" rx="0.86" ry="0.88"/><ellipse class="cls-27" cx="1306.32" cy="660.21" rx="3.43" ry="3.36"/><ellipse class="cls-28" cx="1306.32" cy="660.8" rx="0.57" ry="0.73"/><path class="cls-29" d="M1295.63,708l15,.6c-.13,20.74-6.88,37.62-15,37.62s-15-17.25-15-38.22Z"/><ellipse class="cls-25" cx="1280.56" cy="647.44" rx="19.1" ry="12.26" transform="translate(98.22 1460.51) rotate(-61.34)"/><ellipse class="cls-10" cx="1263.27" cy="738.89" rx="8.56" ry="8.75"/><ellipse class="cls-30" cx="1319.14" cy="588.68" rx="12" ry="9.5"/></g><g id="goodcow"><ellipse class="cls-13" cx="725.46" cy="576.01" rx="2.2" ry="5.86" transform="translate(3.3 1156.14) rotate(-77.23)"/><ellipse class="cls-13" cx="692.39" cy="576.49" rx="4.86" ry="2.16" transform="translate(-175.41 334.27) rotate(-24.19)"/><path class="cls-14" d="M749.9,648.79a.89.89,0,0,0,1.78,0v-7.38a.89.89,0,1,0-1.78,0Z"/><path class="cls-14" d="M747.88,647.94a.89.89,0,0,0,1.78,0v-7.37a.89.89,0,0,0-1.78,0Z"/><path class="cls-14" d="M745.11,648.25a1.14,1.14,0,0,0,2.28,0v-6.87a1.14,1.14,0,1,0-2.28,0Z"/><ellipse class="cls-14" cx="749.21" cy="641.58" rx="4.98" ry="5.56"/><path class="cls-7" d="M718.58,653.14a3,3,0,0,0,5.93,0V637.85a3,3,0,1,0-5.93,0Z"/><path class="cls-13" d="M719.48,654.41a1.87,1.87,0,0,0,1.87,1.87h2a1.88,1.88,0,1,0,0-3.75h-2a1.88,1.88,0,0,0-1.87,1.88Z"/><path class="cls-7" d="M715.18,658a3.71,3.71,0,0,0,7.42,0V634.57a3.71,3.71,0,0,0-7.42,0Z"/><path class="cls-13" d="M714.62,660.08a2.61,2.61,0,0,0,2.62,2.61h3.31a2.62,2.62,0,0,0,0-5.23h-3.31a2.62,2.62,0,0,0-2.62,2.62Z"/><path class="cls-7" d="M756.77,653.64a2.46,2.46,0,0,0,4.92,0v-13a2.46,2.46,0,1,0-4.92,0Z"/><path class="cls-13" d="M757.49,654.74a1.51,1.51,0,0,0,1.5,1.51h1.5a1.51,1.51,0,0,0,0-3H759a1.5,1.5,0,0,0-1.5,1.5Z"/><path class="cls-7" d="M752.25,660.74a3.34,3.34,0,1,0,6.67,0V641.49a3.34,3.34,0,1,0-6.67,0Z"/><ellipse class="cls-7" cx="787.37" cy="618.01" rx="3.09" ry="19.37" transform="translate(-205.97 494.9) rotate(-31.06)"/><ellipse class="cls-7" cx="746.38" cy="617.01" rx="40.22" ry="26.47"/><path class="cls-7" d="M695.1,588.08a13.33,13.33,0,0,0,26.65,0V574.43a13.33,13.33,0,0,0-26.65,0Z"/><path class="cls-31" d="M690,599.28A11.92,11.92,0,0,0,702,611.19h13.68a11.92,11.92,0,1,0,0-23.83H702A11.92,11.92,0,0,0,690,599.28Z"/><ellipse class="cls-7" cx="713.25" cy="596.28" rx="1.74" ry="4.82"/><ellipse class="cls-7" cx="705.27" cy="595.55" rx="2.27" ry="5.42"/><path class="cls-13" d="M751.34,663.66a2.61,2.61,0,0,0,2.61,2.61h3.31a2.61,2.61,0,1,0,0-5.22H754a2.61,2.61,0,0,0-2.61,2.61Z"/><ellipse cx="703.38" cy="573.65" rx="2.4" ry="2.67"/><ellipse cx="712.27" cy="573.72" rx="2.08" ry="2.32"/><ellipse class="cls-7" cx="796.6" cy="633.29" rx="3.35" ry="4.92" transform="translate(-220.99 621.15) rotate(-37.8)"/><ellipse class="cls-32" cx="714.63" cy="606.56" rx="1.14" ry="1.94" transform="translate(-210.05 452.99) rotate(-30.89)"/><path class="cls-33" d="M716,603.22a8.48,8.48,0,0,1-4.42,2.71,12.54,12.54,0,0,1-10.33-2.09"/><ellipse class="cls-15" cx="765.98" cy="615.54" rx="8.61" ry="4.85" transform="translate(-200.98 790.46) rotate(-49.04)"/><ellipse class="cls-15" cx="742.87" cy="598.97" rx="4.88" ry="8.39" transform="translate(-196.07 769.33) rotate(-49.16)"/><ellipse class="cls-15" cx="736.43" cy="625.16" rx="3.99" ry="9.48" transform="translate(29.53 1283.53) rotate(-83.29)"/></g><g id="goodcow-2" data-name="goodcow"><ellipse class="cls-13" cx="561.43" cy="620.94" rx="2.55" ry="6.8" transform="translate(-168.28 1031.17) rotate(-77.23)"/><ellipse class="cls-13" cx="523.06" cy="621.5" rx="5.64" ry="2.51" transform="matrix(0.91, -0.41, 0.41, 0.91, -208.71, 268.84)"/><path class="cls-14" d="M589.79,705.39a1,1,0,0,0,2.07,0v-8.56a1,1,0,0,0-2.07,0Z"/><path class="cls-14" d="M587.45,704.41a1,1,0,0,0,2.06,0v-8.56a1,1,0,1,0-2.06,0Z"/><path class="cls-14" d="M584.23,704.77a1.33,1.33,0,0,0,2.65,0v-8a1.33,1.33,0,0,0-2.65,0Z"/><ellipse class="cls-14" cx="588.99" cy="697.03" rx="5.78" ry="6.45"/><path class="cls-7" d="M553.45,710.44a3.44,3.44,0,0,0,6.88,0V692.69a3.44,3.44,0,0,0-6.88,0Z"/><path class="cls-13" d="M554.49,711.91a2.18,2.18,0,0,0,2.18,2.17H559a2.17,2.17,0,1,0,0-4.34h-2.28a2.18,2.18,0,0,0-2.18,2.17Z"/><path class="cls-7" d="M549.5,716.1a4.31,4.31,0,1,0,8.62,0V688.9a4.31,4.31,0,0,0-8.62,0Z"/><path class="cls-13" d="M548.86,718.49a3,3,0,0,0,3,3h3.84a3,3,0,0,0,0-6.06h-3.84a3,3,0,0,0-3,3Z"/><path class="cls-7" d="M597.77,711a2.85,2.85,0,1,0,5.7,0V695.94a2.85,2.85,0,1,0-5.7,0Z"/><path class="cls-13" d="M598.6,712.3a1.74,1.74,0,0,0,1.74,1.74h1.74a1.74,1.74,0,1,0,0-3.48h-1.74a1.74,1.74,0,0,0-1.74,1.74Z"/><path class="cls-7" d="M592.51,719.26a3.87,3.87,0,0,0,7.74,0V696.92a3.87,3.87,0,0,0-7.74,0Z"/><ellipse class="cls-7" cx="633.27" cy="669.68" rx="3.58" ry="22.47" transform="translate(-254.73 422.79) rotate(-31.06)"/><ellipse class="cls-7" cx="585.7" cy="668.52" rx="46.67" ry="30.71"/><path class="cls-7" d="M526.2,635a15.47,15.47,0,0,0,30.93,0V619.11a15.47,15.47,0,0,0-30.93,0Z"/><path class="cls-31" d="M520.32,647.94a13.82,13.82,0,0,0,13.83,13.82H550a13.82,13.82,0,0,0,0-27.64H534.15a13.83,13.83,0,0,0-13.83,13.82Z"/><ellipse class="cls-7" cx="547.26" cy="644.47" rx="2.01" ry="5.6"/><ellipse class="cls-7" cx="538.01" cy="643.61" rx="2.63" ry="6.29"/><path class="cls-13" d="M591.46,722.64a3,3,0,0,0,3,3h3.84a3,3,0,0,0,0-6.07h-3.84a3,3,0,0,0-3,3Z"/><ellipse cx="535.82" cy="618.21" rx="2.78" ry="3.1"/><ellipse cx="546.13" cy="618.29" rx="2.41" ry="2.7"/><ellipse class="cls-7" cx="643.98" cy="687.41" rx="3.88" ry="5.71" transform="translate(-286.18 538.96) rotate(-37.8)"/><ellipse class="cls-32" cx="548.86" cy="656.4" rx="1.32" ry="2.25" transform="translate(-259.15 374.95) rotate(-30.89)"/><path class="cls-34" d="M550.45,652.51a9.81,9.81,0,0,1-5.14,3.15,14.58,14.58,0,0,1-12-2.42"/><ellipse class="cls-15" cx="608.45" cy="666.81" rx="9.99" ry="5.63" transform="translate(-293.96 689.16) rotate(-49.04)"/><ellipse class="cls-15" cx="581.63" cy="647.59" rx="5.67" ry="9.74" transform="matrix(0.65, -0.76, 0.76, 0.65, -288.65, 664.17)"/><ellipse class="cls-15" cx="574.16" cy="677.98" rx="4.63" ry="11" transform="translate(-166.24 1169.02) rotate(-83.29)"/></g><g id="goodcow-3" data-name="goodcow"><ellipse class="cls-13" cx="891.52" cy="611.64" rx="2.11" ry="5.63" transform="translate(97.89 1345.85) rotate(-77.23)"/><ellipse class="cls-13" cx="859.79" cy="612.1" rx="4.66" ry="2.07" transform="translate(-175.3 405.98) rotate(-24.19)"/><path class="cls-14" d="M915,681.47a.85.85,0,0,0,1.7,0V674.4a.85.85,0,1,0-1.7,0Z"/><path class="cls-14" d="M913,680.66a.86.86,0,0,0,1.71,0v-7.07a.86.86,0,1,0-1.71,0Z"/><path class="cls-14" d="M910.38,681a1.1,1.1,0,0,0,2.19,0v-6.59a1.1,1.1,0,1,0-2.19,0Z"/><ellipse class="cls-14" cx="914.32" cy="674.56" rx="4.78" ry="5.34"/><path class="cls-7" d="M884.93,685.64a2.84,2.84,0,1,0,5.68,0V671a2.84,2.84,0,0,0-5.68,0Z"/><path class="cls-13" d="M885.79,686.86a1.79,1.79,0,0,0,1.79,1.8h1.89a1.8,1.8,0,1,0,0-3.59h-1.89a1.79,1.79,0,0,0-1.79,1.79Z"/><path class="cls-7" d="M881.66,690.33a3.57,3.57,0,0,0,7.13,0v-22.5a3.57,3.57,0,0,0-7.13,0Z"/><path class="cls-13" d="M881.13,692.3a2.5,2.5,0,0,0,2.5,2.51h3.18a2.51,2.51,0,1,0,0-5h-3.18a2.5,2.5,0,0,0-2.5,2.5Z"/><path class="cls-7" d="M921.57,686.13a2.36,2.36,0,0,0,4.72,0V673.65a2.36,2.36,0,1,0-4.72,0Z"/><path class="cls-13" d="M922.26,687.19a1.45,1.45,0,0,0,1.44,1.44h1.44a1.45,1.45,0,0,0,0-2.89H923.7a1.45,1.45,0,0,0-1.44,1.45Z"/><path class="cls-7" d="M917.23,692.94a3.2,3.2,0,0,0,6.4,0V674.47a3.2,3.2,0,0,0-6.4,0Z"/><ellipse class="cls-7" cx="950.93" cy="651.94" rx="2.96" ry="18.58" transform="translate(-200.03 584.15) rotate(-31.06)"/><ellipse class="cls-7" cx="911.6" cy="650.98" rx="38.59" ry="25.39"/><path class="cls-7" d="M862.39,623.22a12.79,12.79,0,0,0,25.58,0V610.13a12.79,12.79,0,0,0-25.58,0Z"/><path class="cls-31" d="M857.53,634A11.44,11.44,0,0,0,869,645.4H882.1a11.44,11.44,0,0,0,0-22.87H869A11.43,11.43,0,0,0,857.53,634Z"/><ellipse class="cls-7" cx="879.81" cy="631.09" rx="1.67" ry="4.63"/><ellipse class="cls-7" cx="872.16" cy="630.38" rx="2.18" ry="5.2"/><path class="cls-13" d="M916.35,695.74a2.52,2.52,0,0,0,2.51,2.51H922a2.51,2.51,0,0,0,0-5h-3.18a2.52,2.52,0,0,0-2.51,2.51Z"/><ellipse cx="870.34" cy="609.38" rx="2.3" ry="2.57"/><ellipse cx="878.87" cy="609.45" rx="2" ry="2.23"/><ellipse class="cls-7" cx="959.79" cy="666.6" rx="3.21" ry="4.72" transform="translate(-207.16 728.16) rotate(-37.8)"/><ellipse class="cls-32" cx="881.13" cy="640.96" rx="1.09" ry="1.86" transform="translate(-204.08 543.36) rotate(-30.89)"/><path class="cls-35" d="M882.44,637.75a8.07,8.07,0,0,1-4.25,2.6,12.07,12.07,0,0,1-9.9-2"/><ellipse class="cls-15" cx="930.41" cy="649.57" rx="8.26" ry="4.66" transform="translate(-170.04 926.35) rotate(-49.04)"/><ellipse class="cls-15" cx="908.23" cy="633.67" rx="4.68" ry="8.05" transform="translate(-165.09 906.45) rotate(-49.16)"/><ellipse class="cls-15" cx="902.05" cy="658.8" rx="3.83" ry="9.1" transform="translate(142.4 1477.73) rotate(-83.29)"/></g><g id="goodcow-4" data-name="goodcow"><ellipse class="cls-13" cx="832.43" cy="689.94" rx="2.55" ry="6.8" transform="translate(-24.5 1349.2) rotate(-77.23)"/><ellipse class="cls-13" cx="794.06" cy="690.5" rx="5.64" ry="2.51" transform="translate(-213.19 385.93) rotate(-24.19)"/><path class="cls-14" d="M860.79,774.39a1,1,0,0,0,2.07,0v-8.56a1,1,0,0,0-2.07,0Z"/><path class="cls-14" d="M858.45,773.41a1,1,0,0,0,2.06,0v-8.56a1,1,0,1,0-2.06,0Z"/><path class="cls-14" d="M855.23,773.77a1.33,1.33,0,0,0,2.65,0v-8a1.33,1.33,0,0,0-2.65,0Z"/><ellipse class="cls-14" cx="859.99" cy="766.03" rx="5.78" ry="6.45"/><path class="cls-7" d="M824.45,779.44a3.44,3.44,0,1,0,6.88,0V761.69a3.44,3.44,0,0,0-6.88,0Z"/><path class="cls-13" d="M825.49,780.91a2.18,2.18,0,0,0,2.18,2.17H830a2.17,2.17,0,1,0,0-4.34h-2.28a2.18,2.18,0,0,0-2.18,2.17Z"/><path class="cls-7" d="M820.5,785.1a4.31,4.31,0,1,0,8.62,0V757.9a4.31,4.31,0,0,0-8.62,0Z"/><path class="cls-13" d="M819.86,787.49a3,3,0,0,0,3,3h3.84a3,3,0,0,0,0-6.06h-3.84a3,3,0,0,0-3,3Z"/><path class="cls-7" d="M868.77,780a2.85,2.85,0,1,0,5.7,0V764.94a2.85,2.85,0,1,0-5.7,0Z"/><path class="cls-13" d="M869.6,781.3a1.74,1.74,0,0,0,1.74,1.74h1.74a1.74,1.74,0,1,0,0-3.48h-1.74a1.74,1.74,0,0,0-1.74,1.74Z"/><path class="cls-7" d="M863.51,788.26a3.87,3.87,0,0,0,7.74,0V765.92a3.87,3.87,0,0,0-7.74,0Z"/><ellipse class="cls-7" cx="904.27" cy="738.68" rx="3.58" ry="22.47" transform="matrix(0.86, -0.52, 0.52, 0.86, -251.47, 572.52)"/><ellipse class="cls-7" cx="856.7" cy="737.52" rx="46.67" ry="30.71"/><path class="cls-7" d="M797.2,704a15.47,15.47,0,0,0,30.93,0V688.11a15.47,15.47,0,0,0-30.93,0Z"/><path class="cls-31" d="M791.32,716.94a13.82,13.82,0,0,0,13.83,13.82H821a13.82,13.82,0,0,0,0-27.64H805.15a13.83,13.83,0,0,0-13.83,13.82Z"/><ellipse class="cls-7" cx="818.26" cy="713.47" rx="2.01" ry="5.6"/><ellipse class="cls-7" cx="809.01" cy="712.61" rx="2.63" ry="6.29"/><path class="cls-13" d="M862.46,791.64a3,3,0,0,0,3,3h3.84a3,3,0,0,0,0-6.07h-3.84a3,3,0,0,0-3,3Z"/><ellipse cx="806.82" cy="687.21" rx="2.78" ry="3.1"/><ellipse cx="817.13" cy="687.29" rx="2.41" ry="2.7"/><ellipse class="cls-7" cx="914.98" cy="756.41" rx="3.88" ry="5.71" transform="translate(-271.6 719.55) rotate(-37.8)"/><ellipse class="cls-32" cx="819.86" cy="725.4" rx="1.32" ry="2.25" transform="translate(-256.13 523.88) rotate(-30.89)"/><path class="cls-34" d="M821.45,721.51a9.81,9.81,0,0,1-5.14,3.15,14.58,14.58,0,0,1-12-2.42"/><ellipse class="cls-15" cx="879.45" cy="735.81" rx="9.99" ry="5.63" transform="translate(-252.72 917.58) rotate(-49.04)"/><ellipse class="cls-15" cx="852.63" cy="716.59" rx="5.67" ry="9.74" transform="translate(-247.06 893.08) rotate(-49.16)"/><ellipse class="cls-15" cx="845.16" cy="746.98" rx="4.63" ry="11" transform="translate(4.58 1499.1) rotate(-83.29)"/></g><g id="goodcow-5" data-name="goodcow"><ellipse class="cls-13" cx="688.83" cy="684.68" rx="2.42" ry="6.46" transform="translate(-131.22 1205.07) rotate(-77.23)"/><ellipse class="cls-13" cx="652.39" cy="685.21" rx="5.35" ry="2.38" transform="translate(-223.46 327.43) rotate(-24.19)"/><path class="cls-14" d="M715.76,764.87a1,1,0,1,0,2,0v-8.12a1,1,0,0,0-2,0Z"/><path class="cls-14" d="M713.54,763.94a1,1,0,0,0,2,0v-8.12a1,1,0,0,0-2,0Z"/><path class="cls-14" d="M710.48,764.28a1.26,1.26,0,0,0,2.52,0v-7.56a1.26,1.26,0,0,0-2.52,0Z"/><ellipse class="cls-14" cx="715.01" cy="756.93" rx="5.49" ry="6.13"/><path class="cls-7" d="M681.26,769.66a3.27,3.27,0,1,0,6.53,0V752.82a3.27,3.27,0,1,0-6.53,0Z"/><path class="cls-13" d="M682.24,771.06a2.07,2.07,0,0,0,2.07,2.07h2.17a2.07,2.07,0,0,0,0-4.13h-2.17a2.07,2.07,0,0,0-2.07,2.06Z"/><path class="cls-7" d="M677.51,775a4.09,4.09,0,1,0,8.18,0V749.21a4.09,4.09,0,1,0-8.18,0Z"/><path class="cls-13" d="M676.89,777.31a2.88,2.88,0,0,0,2.88,2.88h3.65a2.88,2.88,0,1,0,0-5.76h-3.65a2.88,2.88,0,0,0-2.88,2.88Z"/><path class="cls-7" d="M723.33,770.22a2.71,2.71,0,1,0,5.42,0V755.89a2.71,2.71,0,0,0-5.42,0Z"/><path class="cls-13" d="M724.12,771.43a1.66,1.66,0,0,0,1.66,1.66h1.65a1.66,1.66,0,0,0,0-3.31h-1.65a1.66,1.66,0,0,0-1.66,1.65Z"/><path class="cls-7" d="M718.35,778a3.67,3.67,0,1,0,7.34,0V756.83a3.67,3.67,0,0,0-7.34,0Z"/><ellipse class="cls-7" cx="757.05" cy="730.96" rx="3.4" ry="21.34" transform="translate(-268.6 495.45) rotate(-31.06)"/><ellipse class="cls-7" cx="711.88" cy="729.87" rx="44.31" ry="29.16"/><path class="cls-7" d="M655.38,698a14.69,14.69,0,1,0,29.37,0V683a14.69,14.69,0,0,0-29.37,0Z"/><path class="cls-31" d="M649.8,710.32a13.13,13.13,0,0,0,13.13,13.13H678a13.13,13.13,0,0,0,0-26.25H662.93a13.12,13.12,0,0,0-13.13,13.12Z"/><ellipse class="cls-7" cx="675.38" cy="707.03" rx="1.91" ry="5.31"/><ellipse class="cls-7" cx="666.59" cy="706.21" rx="2.5" ry="5.97"/><path class="cls-13" d="M717.34,781.26a2.87,2.87,0,0,0,2.88,2.87h3.65a2.88,2.88,0,1,0,0-5.75h-3.65a2.88,2.88,0,0,0-2.88,2.88Z"/><ellipse cx="664.51" cy="682.09" rx="2.64" ry="2.95"/><ellipse cx="674.3" cy="682.17" rx="2.29" ry="2.56"/><ellipse class="cls-7" cx="767.22" cy="747.8" rx="3.69" ry="5.42" transform="translate(-297.34 627.17) rotate(-37.8)"/><ellipse class="cls-32" cx="676.9" cy="718.35" rx="1.25" ry="2.13" transform="translate(-272.8 449.48) rotate(-30.89)"/><path class="cls-36" d="M678.4,714.67a9.36,9.36,0,0,1-4.87,3,13.82,13.82,0,0,1-11.38-2.3"/><ellipse class="cls-15" cx="733.48" cy="728.24" rx="9.49" ry="5.35" transform="translate(-297.28 804.74) rotate(-49.04)"/><ellipse class="cls-15" cx="708.02" cy="709.99" rx="5.38" ry="9.25" transform="translate(-292.12 781.38) rotate(-49.16)"/><ellipse class="cls-15" cx="700.92" cy="738.84" rx="4.39" ry="10.45" transform="translate(-114.73 1348.67) rotate(-83.29)"/></g><g id="bridge"><path class="cls-37" d="M338.13,1079.63c-1.31,1.33-2-2.06-3.87-2.06s-1.88-.12-3.75-.12-1.87,2.7-3.75,2.7-1.87-3.5-3.74-3.5-1.88.89-3.75.89-1.88,4.8-3.75,4.8-1.88-2.15-3.75-2.15-1.88-.14-3.75-.14-1.88.79-3.75.79-1.88-1.74-3.75-1.74-1.88,3-3.76,3-2.73-1-4.05-2.31,1.76-2.19,1.76-4.08-3.71-1.9-3.71-3.8,2.06-1.89,2.06-3.79.95-1.9.95-3.79,1.2-1.9,1.2-3.79-.07-1.9-.07-3.79-4.89-1.9-4.89-3.79,4.94-1.9,4.94-3.8-3.34-1.89-3.34-3.79,2.1-1.9,2.1-3.8-.22-1.89-.22-3.79-2.45-1.9-2.45-3.79,2.48-1.9,2.48-3.79-1.42-1.9-1.42-3.8-1-1.89-1-3.79,1.58-1.9,1.58-3.8-.6-1.89-.6-3.79.35-1.9.35-3.79,1.17-1.9,1.17-3.8-.63-1.9-.63-3.8,1-1.89,1-3.79,1.77-1.9,1.77-3.8-.79-1.89-.79-3.79-2.52-1.9-2.52-3.8,3.43-1.9,3.43-3.79-.71-1.9-.71-3.8-.33-1.9-.33-3.8-3.54-1.89-3.54-3.79,3.75-1.9,3.75-3.8-4.93-1.9-4.93-3.79.12-1.9.12-3.8,4.6-1.9,4.6-3.8-1.23-1.9-1.23-3.8-1.53-1.9-1.53-3.79,2.36-1.9,2.36-3.8.18-1.9.18-3.79-.13-1.9-.13-3.8-4-1.9-4-3.8,5.24-1.9,5.24-3.79-.49-1.9-.49-3.8.4-1.9.4-3.8-1.35-1.9-1.35-3.8-1.18-1.9-1.18-3.8,2.7-1.9,2.7-3.8-4-1.9-4-3.8-.76-1.9-.76-3.8-.26-1.9-.26-3.8,4.65-1.9,4.65-3.8-5.32-4-4-5.41,3.5,1.89,5.37,1.89,1.87-.78,3.75-.78,1.87-.38,3.74-.38,1.88,1.19,3.75,1.19,1.88-2.93,3.75-2.93,1.88,1.94,3.75,1.94,1.88-1.74,3.75-1.74,1.88,1.11,3.75,1.11,1.88.86,3.75.86,1.88,3.13,3.75,3.13,1.88-2.32,3.76-2.32.39.31,1.72,1.65,2.5-.12,2.5,1.77,2.24,1.9,2.24,3.8-1.61,1.89-1.61,3.79-.58,1.9-.58,3.79-2.82,1.9-2.82,3.79,4.35,1.9,4.35,3.79-1.16,1.9-1.16,3.79-3.86,1.9-3.86,3.8,1.54,1.89,1.54,3.79,1.81,1.9,1.81,3.8-1,1.89-1,3.79-.54,1.9-.54,3.79,1.65,1.9,1.65,3.79-.3,1.9-.3,3.8-1.59,1.89-1.59,3.79,4.33,1.9,4.33,3.8-1.49,1.89-1.49,3.79-3.74,1.9-3.74,3.79,1.23,1.9,1.23,3.8,3.25,1.9,3.25,3.8-.7,1.89-.7,3.79-3,1.9-3,3.8-.36,1.89-.36,3.79.4,1.9.4,3.8.3,1.9.3,3.79,4.07,1.9,4.07,3.8-1.72,1.9-1.72,3.8-2.19,1.89-2.19,3.79,3.61,1.9,3.61,3.8-4.95,1.9-4.95,3.79,1.77,1.9,1.77,3.8-2.24,1.9-2.24,3.8.65,1.9.65,3.8,2.19,1.9,2.19,3.79.17,1.9.17,3.8-.24,1.9-.24,3.79,0,1.9,0,3.8-.82,1.9-.82,3.8,0,1.9,0,3.79.16,1.9.16,3.8,2.66,1.9,2.66,3.8.7,1.9.7,3.8-2.56,1.9-2.56,3.8-3,1.9-3,3.8,2,1.9,2,3.8-1.52,1.9-1.52,3.8,1.9,1.9,1.9,3.8,1.45,1.64,1.88,3.5A3.71,3.71,0,0,1,338.13,1079.63Z"/><path class="cls-37" d="M2045.11,1102.61c-1.54,1.54-4.29-1-6.47-1s-2.18-.06-4.36-.06-2.18-3-4.36-3-2.18,4.34-4.36,4.34-2.18.14-4.36.14-2.19-2.62-4.37-2.62-2.18,2.17-4.36,2.17-2.18-5.15-4.36-5.15-2.18,1.38-4.37,1.38-2.18,4.84-4.37,4.84-.58-3.84-2.13-5.38.83.08.83-2.1-3.81-2.17-3.81-4.34-1.89-2.17-1.89-4.34,1.77-2.18,1.77-4.35-.66-2.17-.66-4.34,1.47-2.18,1.47-4.35-1.55-2.17-1.55-4.34,1.57-2.17,1.57-4.34-2.07-2.17-2.07-4.34,3.34-2.17,3.34-4.34-4.62-2.17-4.62-4.35.89-2.17.89-4.34-.21-2.17-.21-4.35.12-2.17.12-4.34,3.87-2.17,3.87-4.34-1.87-2.17-1.87-4.34-.31-2.17-.31-4.34-1.78-2.18-1.78-4.35,2.94-2.17,2.94-4.35.25-2.17.25-4.34,0-2.17,0-4.34-2.29-2.17-2.29-4.35.8-2.17.8-4.34-1.63-2.18-1.63-4.35,2.55-2.17,2.55-4.34,3.47-2.18,3.47-4.35-1.28-2.17-1.28-4.35,0-2.17,0-4.34-2.08-2.17-2.08-4.35-2.38-2.17-2.38-4.34,4.93-2.18,4.93-4.35-.77-2.17-.77-4.35-.9-2.17-.9-4.34.78-2.18.78-4.35-3.12-2.18-3.12-4.35-1.54-2.17-1.54-4.35,5.85-2.17,5.85-4.34-6.24-2.18-6.24-4.35,3.68-2.18,3.68-4.35-3-2.18-3-4.35,2.1-2.17,2.1-4.34-1.86-2.18-1.86-4.35,1.72-2.18,1.72-4.35-1.31-2.17-1.31-4.35,1.42-2.17,1.42-4.35-1.52-2.17-1.52-4.35.7-2.17.7-4.35,2.22-2.17,2.22-4.35-2.45-2.17-2.45-4.34,4.67-2.18,4.67-4.36-.78-2.18-.78-4.35-3.65-2.78-2.11-4.32,2.13-1.13,4.32-1.13,2.17-1.39,4.35-1.39,2.18,2.4,4.37,2.4,2.18-3,4.36-3,2.18,3.76,4.36,3.76,2.18,2.16,4.36,2.16,2.19-.07,4.37-.07,2.18-6,4.36-6,2.18.28,4.37.28,2.18,3.9,4.36,3.9,1.61-1.18,3.16.36,2.09.95,2.09,3.13-4,2.17-4,4.34,4.88,2.17,4.88,4.34-3.17,2.18-3.17,4.35,4.7,2.17,4.7,4.34-5.29,2.18-5.29,4.35,3.73,2.17,3.73,4.34-1.34,2.17-1.34,4.34,2.68,2.17,2.68,4.34-5.34,2.17-5.34,4.34,4,2.17,4,4.35,1.21,2.17,1.21,4.34-.15,2.17-.15,4.35-3.33,2.17-3.33,4.34,1.31,2.17,1.31,4.34,1.55,2.17,1.55,4.34-3.58,2.17-3.58,4.34,1,2.18,1,4.35,0,2.17,0,4.35.14,2.17.14,4.34.44,2.17.44,4.34-3.7,2.17-3.7,4.35,2.88,2.17,2.88,4.34,3.23,2.18,3.23,4.35.1,2.17.1,4.34-5.56,2.18-5.56,4.35,2.43,2.17,2.43,4.35,3.48,2.17,3.48,4.34-4.51,2.17-4.51,4.35-.65,2.17-.65,4.34,4.3,2.18,4.3,4.35-.69,2.17-.69,4.35-3,2.17-3,4.34-.4,2.18-.4,4.35,2.68,2.18,2.68,4.35-2.31,2.17-2.31,4.35-1,2.17-1,4.34,3.43,2.18,3.43,4.35-.25,2.18-.25,4.35-.85,2.18-.85,4.35.9,2.17.9,4.34-.64,2.18-.64,4.35,2.73,2.18,2.73,4.35-1.24,2.17-1.24,4.35-4.81,2.17-4.81,4.35,5.65,2.17,5.65,4.35-5.08,2.17-5.08,4.35,1.83,2.17,1.83,4.35.27,2.17.27,4.34,2.59,2.18,2.59,4.36-1.83,1.92-1,3.94C2045.36,1099.08,2046.65,1101.07,2045.11,1102.61Z"/><path class="cls-37" d="M679.15,1084.64c-1.53,1.51-1.3,1.44-3.45,1.44s-2.15-2.81-4.3-2.81-2.16-.34-4.31-.34-2.15,3.29-4.3,3.29-2.16-3-4.31-3-2.15,2-4.31,2-2.15,1-4.31,1-2.15-4.08-4.3-4.08-2.16.39-4.31.39-2.15,3.8-4.31,3.8-2.15.21-4.31.21-2.16.21-4.31.21-1.47-1.09-3-2.6-1.19-.78-1.19-2.89,2.6-2.11,2.6-4.22-.71-2.11-.71-4.22-4.63-2.12-4.63-4.23,4.94-2.11,4.94-4.23-1.28-2.11-1.28-4.22,1.31-2.11,1.31-4.22-.13-2.11-.13-4.22.65-2.12.65-4.23.45-2.11.45-4.23S625,1041.15,625,1039s-2.05-2.11-2.05-4.23,1.11-2.11,1.11-4.22-1.08-2.11-1.08-4.22-1.43-2.12-1.43-4.23,5-2.12,5-4.23-2-2.11-2-4.22,2.36-2.12,2.36-4.23-5.88-2.11-5.88-4.23,2.95-2.11,2.95-4.22,2.45-2.12,2.45-4.23-2.08-2.11-2.08-4.23-.28-2.11-.28-4.23,1.18-2.11,1.18-4.22,1-2.12,1-4.23-4.61-2.12-4.61-4.23-.86-2.11-.86-4.23,2.2-2.11,2.2-4.23-2.07-2.11-2.07-4.22,3-2.12,3-4.23.33-2.12.33-4.23-3.1-2.11-3.1-4.22,5.91-2.12,5.91-4.23-.48-2.12-.48-4.23-3.15-2.11-3.15-4.23.25-2.11.25-4.23-2.78-2.11-2.78-4.23,1.31-2.11,1.31-4.23,3.69-2.12,3.69-4.23-2.32-2.12-2.32-4.23-1.12-2.12-1.12-4.23-.44-2.12-.44-4.24.45-2.11.45-4.23-.58-3.52.93-5,2.91,2.92,5.06,2.92,2.15,1,4.3,1,2.15-2.63,4.31-2.63,2.15.76,4.3.76,2.15-3.13,4.31-3.13,2.15,1,4.31,1,2.15,3.77,4.3,3.77,2.16-4.65,4.31-4.65,2.15,1.24,4.31,1.24,2.15,1.18,4.3,1.18,2.16.31,4.32.31,2.15-.27,4.31-.27,3.33-2.75,4.87-1.24-1.56,2.68-1.56,4.79,3.59,2.11,3.59,4.22-5.11,2.11-5.11,4.22,1.57,2.12,1.57,4.23.55,2.11.55,4.23.78,2.11.78,4.22.62,2.11.62,4.22,1.53,2.11,1.53,4.22-1.73,2.12-1.73,4.23-2.42,2.11-2.42,4.23-1.59,2.11-1.59,4.22.28,2.11.28,4.23,4.44,2.11,4.44,4.22-2.29,2.11-2.29,4.22-.29,2.12-.29,4.23,1.73,2.12,1.73,4.23-.79,2.11-.79,4.22-1.63,2.12-1.63,4.23-1.14,2.11-1.14,4.23-.23,2.11-.23,4.22,1.21,2.12,1.21,4.23,4.22,2.11,4.22,4.23-.14,2.11-.14,4.23-.7,2.11-.7,4.22-1.68,2.12-1.68,4.23-1.79,2.12-1.79,4.23-.75,2.11-.75,4.23,5.3,2.11,5.3,4.23-4.93,2.11-4.93,4.22,2.34,2.12,2.34,4.23,1.5,2.12,1.5,4.23-.65,2.11-.65,4.22-1.8,2.12-1.8,4.23-.18,2.12-.18,4.23,2.17,2.11,2.17,4.23-3.54,2.11-3.54,4.23,3.19,2.11,3.19,4.23-.86,2.11-.86,4.23,1.9,2.12,1.9,4.23.55,2.12.55,4.23-2.24,2.12-2.24,4.23-2.09,2.12-2.09,4.24a28.87,28.87,0,0,0,0,4.46C678.12,1083.31,680.66,1083.15,679.15,1084.64Z"/><path class="cls-37" d="M1357.53,1081c-1.23,1.27-3.3,1.26-5.07,1.26s-1.77-4-3.54-4-1.77,1.09-3.55,1.09-1.77.16-3.54.16-1.77-2.2-3.55-2.2-1.77.2-3.54.2-1.77,4.19-3.54,4.19-1.77-4.73-3.55-4.73-1.77,1.59-3.54,1.59-1.78,3.55-3.55,3.55-4.06.35-5.3-.91,2.73-3.52,2.73-5.34-3.6-1.81-3.6-3.62,2.35-1.81,2.35-3.62,1.78-1.81,1.78-3.63-.87-1.81-.87-3.62-1-1.81-1-3.63,1.31-1.81,1.31-3.63.92-1.81.92-3.63-.2-1.81-.2-3.62-.08-1.81-.08-3.63-1.42-1.81-1.42-3.62,2.39-1.81,2.39-3.63-2.89-1.81-2.89-3.62,1.77-1.82,1.77-3.63-.81-1.82-.81-3.63-.6-1.82-.6-3.63.16-1.81.16-3.63,1.53-1.81,1.53-3.62-.59-1.82-.59-3.63-2.53-1.81-2.53-3.63,3.85-1.81,3.85-3.63-1.18-1.81-1.18-3.63-1.7-1.81-1.7-3.62.93-1.82.93-3.63,1.75-1.82,1.75-3.64-3.64-1.81-3.64-3.62.66-1.82.66-3.63.64-1.82.64-3.63-1.59-1.82-1.59-3.63,1.41-1.82,1.41-3.63,1.42-1.82,1.42-3.63.47-1.82.47-3.63-1.36-1.82-1.36-3.63-2.08-1.82-2.08-3.64,3.15-1.81,3.15-3.63.33-1.81.33-3.63-2.38-1.81-2.38-3.63,1.68-1.81,1.68-3.63-1.1-1.82-1.1-3.63,2.38-1.82,2.38-3.63-4.52-1.82-4.52-3.63,1.19-1.82,1.19-3.63,1.4-1.82,1.4-3.63-1.87-1.82-1.87-3.63,2.45-1.82,2.45-3.63.4-1.82.4-3.64S1317,910.77,1317,909s-2.74-1.82-2.74-3.63,1.18-1.82,1.18-3.64.25-1.82.25-3.63,3.74-1.82,3.74-3.64-1.36-1.81-1.36-3.63-1.31-1.82-1.31-3.64,1-.34,2.26-1.64-.28-2.42,1.49-2.42,1.77-1.09,3.54-1.09,1.77,2.37,3.54,2.37,1.78-2.58,3.55-2.58,1.77,3.73,3.54,3.73,1.77-3.84,3.54-3.84,1.78.94,3.55.94,1.77,1.73,3.54,1.73,1.78.72,3.55.72,1.78-1.78,3.55-1.78.32.9,1.56,2.17,1.3-.14,1.3,1.68-.36,1.81-.36,3.62,1.14,1.81,1.14,3.62-1.66,1.81-1.66,3.63.2,1.81.2,3.62-.82,1.81-.82,3.63-.15,1.81-.15,3.63,2.08,1.81,2.08,3.63-1.66,1.81-1.66,3.62,1.91,1.81,1.91,3.63,1.6,1.81,1.6,3.62S1354,925.19,1354,927s.38,1.81.38,3.62.58,1.82.58,3.63-.54,1.82-.54,3.63-.84,1.82-.84,3.63,1.92,1.81,1.92,3.63,1.63,1.81,1.63,3.62.24,1.82.24,3.63-3.31,1.81-3.31,3.63,1.4,1.81,1.4,3.63,1.56,1.81,1.56,3.63-.18,1.81-.18,3.62-.75,1.82-.75,3.63,1.93,1.82,1.93,3.64.3,1.81.3,3.62-2.32,1.82-2.32,3.63-.73,1.82-.73,3.63.34,1.82.34,3.63-.91,1.82-.91,3.63,1.22,1.82,1.22,3.63-1.45,1.82-1.45,3.63,0,1.82,0,3.63-.62,1.82-.62,3.64,4.68,1.81,4.68,3.63.22,1.81.22,3.63-1.73,1.81-1.73,3.63-3.77,1.81-3.77,3.63,2.38,1.82,2.38,3.63-.79,1.82-.79,3.63,1.33,1.82,1.33,3.63.2,1.82.2,3.63-2,1.82-2,3.63-.72,1.82-.72,3.63,1.32,1.82,1.32,3.63.51,1.82.51,3.64.8,1.81.8,3.63-1.62,1.82-1.62,3.63,2.44,1.82,2.44,3.64,1.08,1.82,1.08,3.63-.54,1.82-.54,3.64-.88,1.81-.88,3.63.77,1.11,1.41,2.81C1359.2,1077.69,1358.8,1079.68,1357.53,1081Z"/><path class="cls-37" d="M1690,1084.45c-1.33,1.29-1.8-1.74-3.65-1.74s-1.85,3.5-3.7,3.5-1.85.68-3.7.68-1.85.35-3.7.35-1.85-3.52-3.7-3.52-1.85.19-3.7.19-1.85,1.8-3.7,1.8h-3.69c-1.86,0-1.86.57-3.71.57s-3.3.45-4.63-.84-1-2.74-1-4.54,2.71-1.79,2.71-3.59-1.09-1.79-1.09-3.58-2.35-1.79-2.35-3.58,3.33-1.79,3.33-3.58-.61-1.79-.61-3.59-.46-1.79-.46-3.58-1-1.79-1-3.59,2.51-1.79,2.51-3.59-1.59-1.79-1.59-3.58-1.46-1.8-1.46-3.59,2.07-1.79,2.07-3.59-1.23-1.79-1.23-3.58.62-1.79.62-3.58-.63-1.8-.63-3.59-1.54-1.8-1.54-3.59,1.43-1.8,1.43-3.59,0-1.79,0-3.59-.42-1.79-.42-3.58,2.13-1.8,2.13-3.59-1.19-1.79-1.19-3.59-1.57-1.79-1.57-3.59,3.53-1.79,3.53-3.59,0-1.79,0-3.58-2.77-1.8-2.77-3.59,1.29-1.8,1.29-3.59.74-1.8.74-3.59,1.25-1.8,1.25-3.59.73-1.79.73-3.59-5-1.79-5-3.59,4.55-1.79,4.55-3.59-.3-1.79-.3-3.59-2.53-1.79-2.53-3.59,2.73-1.79,2.73-3.59-4.45-1.79-4.45-3.59,1.79-1.79,1.79-3.59,1.45-1.8,1.45-3.59-.8-1.8-.8-3.59.3-1.8.3-3.59-2.6-1.8-2.6-3.59.38-1.8.38-3.59,1.1-1.8,1.1-3.59,2.62-1.8,2.62-3.59-1.94-1.8-1.94-3.59.08-1.8.08-3.59.85-1.8.85-3.59-2.73-1.8-2.73-3.59,2.1-1.8,2.1-3.6-1.13-1.79-1.13-3.59-1.29-1.8-1.29-3.59,2.28-1.8,2.28-3.6.41-1.8.41-3.59-2.26-1.8-2.26-3.6,3.68-1.79,3.68-3.59-.29-1.8-.29-3.6-1-.5.32-1.76,0-.65,1.9-.65,1.85-1.49,3.7-1.49,1.85.81,3.7.81h3.7c1.85,0,1.85.06,3.7.06s1.84-.58,3.69-.58,1.85,1.49,3.7,1.49,1.85-.31,3.7-.31,1.86-.51,3.71-.51.46,0,1.8,1.31,3.71-.18,3.71,1.62-4.23,1.79-4.23,3.59.06,1.79.06,3.58,4.53,1.79,4.53,3.58-3.67,1.79-3.67,3.58,4.25,1.79,4.25,3.59-2.22,1.79-2.22,3.58.86,1.79.86,3.59,1.1,1.79,1.1,3.59-1.49,1.79-1.49,3.58-2.77,1.8-2.77,3.59-.11,1.79-.11,3.59-.66,1.79-.66,3.58,3.16,1.79,3.16,3.58-1.19,1.8-1.19,3.59.59,1.8.59,3.59,1.25,1.8,1.25,3.59-2.23,1.79-2.23,3.59,2.15,1.79,2.15,3.58.74,1.8.74,3.59-3.38,1.79-3.38,3.59-.44,1.79-.44,3.59,3.16,1.79,3.16,3.59.5,1.79.5,3.58-4.58,1.8-4.58,3.59,1.93,1.8,1.93,3.59-.59,1.8-.59,3.59,1.71,1.8,1.71,3.59-2.88,1.79-2.88,3.59.28,1.79.28,3.59.31,1.79.31,3.59,2.18,1.79,2.18,3.59-1.74,1.79-1.74,3.59,2.76,1.79,2.76,3.59-1.29,1.79-1.29,3.59,1.24,1.79,1.24,3.59.92,1.8.92,3.59-3.47,1.8-3.47,3.59,2.55,1.8,2.55,3.59-1.07,1.8-1.07,3.59,1.51,1.8,1.51,3.59-.58,1.8-.58,3.59-1.7,1.8-1.7,3.59-.66,1.8-.66,3.59,1.59,1.8,1.59,3.59-2.16,1.8-2.16,3.59,1.27,1.8,1.27,3.59.48,1.8.48,3.6-2.37,1.79-2.37,3.59,2.57,1.8,2.57,3.59,2.3,1.8,2.3,3.6-1.76,1.8-1.76,3.59-2.91,1.8-2.91,3.6.77,1.79.77,3.59-.43,2.19-.06,4S1691.25,1083.2,1690,1084.45Z"/><path class="cls-37" d="M1019.66,1079.2c-1.36,1.41-.61,2-2.57,2s-2-2.24-3.91-2.24-2,3-3.92,3-2,.41-3.91.41-2-1.84-3.92-1.84-2,1.31-3.91,1.31-2-3.28-3.92-3.28-2-.69-3.92-.69-1.95,1.33-3.91,1.33-2-1-3.92-1-2,1.27-3.92,1.27-2.94,2.77-4.3,1.37,1.71-2.39,1.71-4.41,1-2,1-4,.33-2,.33-4-1.35-2-1.35-4-1.12-2-1.12-4,1.58-2,1.58-4-4.1-2-4.1-4,3.94-2,3.94-4,1.27-2,1.27-4-6-2-6-4,4.36-2,4.36-4,.37-2,.37-4-2.54-2-2.54-4,.9-2,.9-4-2.77-2-2.77-4,4.38-2,4.38-4-2.59-2-2.59-4,.07-2,.07-4-1.33-2-1.33-4,5.14-2,5.14-4,.29-2,.29-4-2.47-2-2.47-4-3-2-3-4,1.4-2,1.4-4-2-2-2-4,2.51-2,2.51-4-2-2-2-4,5.49-2,5.49-4-.58-2-.58-4,.1-2,.1-4,.23-2,.23-4-3.71-2-3.71-4.05,2.38-2,2.38-4-.25-2-.25-4-1.54-2-1.54-4,.91-2,.91-4,.81-2,.81-4,.1-2,.1-4,.13-2,.13-4-1-2-1-4-1.17-2-1.17-4-.85-2-.85-4,1.4-2,1.4-4,1.95-2,1.95-4-2.39-2-2.39-4-.8-2-.8-4,3.29-2,3.29-4-4.77-2-4.77-4,3.49-2,3.49-4.05-.82-1.3.59-2.76.62-4,2.58-4,2,5.5,3.91,5.5,2-2.17,3.91-2.17,2,1.35,3.92,1.35,2,.63,3.92.63,1.95.49,3.91.49l3.92,0c2,0,2-.84,3.91-.84s2-.76,3.92-.76,2-1.08,3.92-1.08,2-2.27,3.92-2.27a4.53,4.53,0,0,1,4,1.73c1.41,1.45,1,2.15,1,4.17s-1.46,2-1.46,4,2.26,2,2.26,4-2.44,2-2.44,4,.87,2,.87,4,.71,2,.71,4-3,2-3,4,2.21,2,2.21,4,1.19,2,1.19,4-3.46,2-3.46,4,3.13,2,3.13,4-3.86,2-3.86,4,2,2,2,4,0,2,0,4-2.17,2-2.17,4,2.12,2,2.12,4,.43,2,.43,4,2.29,2,2.29,4-1.93,2-1.93,4-2.5,2-2.5,4,2.16,2,2.16,4,2.9,2,2.9,4-.62,2-.62,4v4c0,2-3.29,2-3.29,4s4.17,2,4.17,4,.26,2,.26,4-3.82,2-3.82,4,2.66,2,2.66,4,0,2,0,4-.35,2-.35,4-.18,2-.18,4.05-1.17,2-1.17,4,2.85,2,2.85,4-4.76,2-4.76,4,2.71,2,2.71,4,0,2,0,4-.23,2-.23,4-2,2-2,4,2.63,2,2.63,4-2.11,2-2.11,4,2.41,2,2.41,4,1.19,2,1.19,4-1.29,2-1.29,4,.65,2,.65,4-1.12,2-1.12,4-3.91,2-3.91,4,5,2,5,4.05-.45,2-.43,4C1022.74,1078,1021.07,1077.75,1019.66,1079.2Z"/><path class="cls-38" d="M2071.22,948.71c-11.94,13.3-19.39-7.16-37.26-7.16s-17.87,12.11-35.73,12.11-17.87-18.26-35.74-18.26-17.87,4.55-35.73,4.55-17.87-1.88-35.74-1.88-17.86,2-35.73,2-17.87,9.46-35.74,9.46-17.86,7.71-35.73,7.71S1766,936,1748.09,936s-17.87,21.68-35.74,21.68-17.87-.67-35.73-.67-17.87-2.17-35.74-2.17-17.87-9.93-35.74-9.93-17.86-8.41-35.73-8.41-17.87,3-35.74,3-17.86,2.76-35.73,2.76-17.87,9.81-35.74,9.81-17.87,3.94-35.73,3.94-17.87-5.44-35.74-5.44-17.87,4.26-35.74,4.26-17.86-13.18-35.73-13.18-17.87-1.58-35.74-1.58-17.86,7-35.73,7-17.87-9.3-35.74-9.3-17.87,7.24-35.74,7.24-17.86-6.94-35.73-6.94-17.87-.35-35.74-.35S1087,955,1069.1,955s-17.87-14.71-35.74-14.71-17.86,2.86-35.73,2.86-17.87-6.85-35.74-6.85-17.86,6.07-35.73,6.07-17.87,16.37-35.73,16.37-17.87-20.85-35.74-20.85-17.87.69-35.74.69-17.86,4.31-35.73,4.31-17.87,9-35.73,9-17.87,7-35.74,7-17.87-19-35.73-19-17.87,7.89-35.74,7.89-17.87-2.86-35.74-2.86S586.67,957.7,568.8,957.7s-17.87-10.16-35.74-10.16-17.87-3.08-35.74-3.08-17.86,13.18-35.73,13.18-17.87-10.88-35.74-10.88S408,958.11,390.1,958.11s-17.86-12.64-35.73-12.64-17.87,11.32-35.74,11.32-17.87-14-35.74-14-17.87,5.41-35.74,5.41-17.87-.06-35.74-.06S193.53,942,175.66,942s-17.87,14.75-35.74,14.75-22.63,2.82-34.57-10.48c-13.3-14.81,9-18.84,9-38.74s-25.92-27.23-12.63-42c11.94-13.3,20.36-1.4,38.23-1.4s17.86,8,35.73,8,17.87-9.33,35.73-9.33,17.87,11.09,35.74,11.09S265,875,282.84,875s17.87-16.45,35.74-16.45,17.86,9.48,35.73,9.48,17.87,9.78,35.74,9.78,17.86-3.66,35.73-3.66,17.87-8.57,35.73-8.57,17.87,6.26,35.74,6.26,17.87,4.53,35.74,4.53,17.86-8.69,35.73-8.69,17.87,3.83,35.74,3.83,17.86,2.05,35.73,2.05,17.87-15.32,35.73-15.32S693.79,867,711.66,867s17.87,7.3,35.74,7.3,17.86-8.19,35.73-8.19,17.87,5.29,35.74,5.29,17.87-2.36,35.73-2.36,17.87-12.82,35.74-12.82,17.87,14.27,35.74,14.27,17.86-4.72,35.73-4.72,17.87-1.86,35.74-1.86,17.87,7.43,35.74,7.43,17.87-7.61,35.73-7.61,17.87,10.81,35.74,10.81,17.87-11.47,35.74-11.47,17.87-7.18,35.74-7.18,17.86,19.81,35.73,19.81,17.87-11.81,35.73-11.81,17.87-6.57,35.74-6.57,17.87,20.83,35.74,20.83,17.86-8.53,35.73-8.53,17.87-3.88,35.73-3.88,17.87.25,35.74.25,17.86,9.57,35.73,9.57,17.87-1.5,35.74-1.5,17.87-6.46,35.74-6.46,17.87-1.36,35.74-1.36,17.86-6.41,35.73-6.41,17.87,1.29,35.74,1.29,17.87-3.33,35.74-3.33,17.87,2.37,35.74,2.37S1730.15,878,1748,878s17.87-15.37,35.74-15.37,17.87-2.17,35.74-2.17,17.86,8.19,35.73,8.19,17.87.82,35.74.82,17.87-2.71,35.74-2.71S1944.59,878,1962.46,878s17.87-9,35.74-9,17.87-8.81,35.75-8.81,23.92-5.87,35.86,7.43c13.3,14.81-1.19,19.75,3.16,39.17C2077.74,928.14,2084.51,933.9,2071.22,948.71Z"/></g></g></g></g></g></svg>