<svg id="Layer_1" data-name="Layer 1" xmlns="http://www.w3.org/2000/svg" xmlns:xlink="http://www.w3.org/1999/xlink" width="780.01mm" height="449.91mm" viewBox="0 0 2211.07 1275.32"><defs><style>.cls-1{fill:url(#linear-gradient);}.cls-2{fill:#96a65d;}.cls-3{fill:#6f8c30;}.cls-4{fill:#387404;}.cls-5{fill:#f2e641;}.cls-6{fill:#fff;}.cls-7{opacity:0.92;}.cls-8{opacity:0.77;}.cls-9{fill:#754c24;}.cls-10{fill:url(#linear-gradient-2);}.cls-11{fill:#e1ab85;}.cls-12,.cls-13,.cls-17,.cls-18,.cls-19,.cls-20{fill:#0d0d0d;}.cls-13,.cls-17,.cls-18,.cls-19,.cls-20,.cls-33,.cls-34,.cls-35,.cls-36,.cls-37{stroke:#000;stroke-miterlimit:10;}.cls-13{stroke-width:2.34px;}.cls-14{fill:#736258;}.cls-15{fill:#f2d0e3;}.cls-16{fill:#333;}.cls-17{stroke-width:2.24px;}.cls-18{stroke-width:2.61px;}.cls-19{stroke-width:2.57px;}.cls-20{stroke-width:2.51px;}.cls-21{fill:#10735a;}.cls-22{fill:#a67c52;}.cls-23{fill:#b9121b;}.cls-24{fill:#4c1b1b;}.cls-25{fill:#8c6239;}.cls-26{fill:#be393a;}.cls-27{fill:#4d4d4d;}.cls-28{fill:#b88d1e;}.cls-29{fill:#8c8c80;}.cls-30{fill:#104639;}.cls-31{fill:#f2dde3;}.cls-32{fill:#ed1c24;}.cls-33,.cls-34,.cls-35,.cls-36{fill:none;}.cls-33{stroke-width:0.67px;}.cls-34{stroke-width:0.77px;}.cls-35{stroke-width:0.64px;}.cls-36{stroke-width:0.73px;}.cls-37{fill:#ff836a;stroke-width:0.87px;}</style><linearGradient id="linear-gradient" x1="109.25" y1="-78.08" x2="2298.22" y2="1549.13" gradientTransform="matrix(1, 0, 0, -1, 112.67, 1096.06)" gradientUnits="userSpaceOnUse"><stop offset="0" stop-color="#4cacf7"/><stop offset="1" stop-color="#fff"/></linearGradient><linearGradient id="linear-gradient-2" x1="65.81" y1="385.78" x2="2023.42" y2="385.78" gradientTransform="matrix(1.01, 0.04, 0.03, -1.15, -89.79, 1309.73)" gradientUnits="userSpaceOnUse"><stop offset="0" stop-color="#8c6239"/><stop offset="0.49" stop-color="#724922"/><stop offset="0.55" stop-color="#6f4721"/><stop offset="1" stop-color="#42210b"/></linearGradient></defs><g id="Layer_1-2" data-name="Layer 1"><g id="bg10"><rect class="cls-1" x="115.5" width="1918.99" height="1079.99"/><ellipse class="cls-2" cx="1627.04" cy="802.28" rx="474.96" ry="184.79"/><ellipse class="cls-3" cx="651.5" cy="841.14" rx="575.5" ry="223.91"/><ellipse class="cls-4" cx="1105.53" cy="1039.03" rx="1105.53" ry="236.29"/><path class="cls-5" d="M1891,161.93c0,1.48-84,.9-84.08,2.36s83.59,9.09,83.45,10.54-83.69-7.31-83.91-5.86,82.3,17.22,82,18.66-82.58-15.45-82.94-14,80.25,25.11,79.82,26.52-80.71-23.32-81.2-21.93,77.49,32.62,76.94,34-78.18-30.77-78.79-29.43,74.16,39.61,73.48,40.92S1800.73,186,1800,187.28s70.37,46,69.58,47.26-71.54-44.07-72.38-42.86,66.22,51.81,65.33,53-67.65-49.84-68.59-48.71,61.82,57,60.84,58.1-63.5-55-64.53-54,57.24,61.59,56.18,62.61S1787.25,203,1786.15,204s52.55,65.64,51.42,66.58-54.74-63.76-55.91-62.86,47.8,69.17,46.61,70-50.21-67.38-51.44-66.56,43,72.25,41.76,73-45.62-70.57-46.9-69.83,38.2,74.9,36.9,75.59-41-73.35-42.32-72.7,33.4,77.17,32,77.78-36.35-75.77-37.71-75.2,28.6,79.07,27.22,79.6-31.71-77.83-33.1-77.34,23.83,80.64,22.42,81.08-27-79.56-28.47-79.16,19.14,81.94,17.69,82.29-22.41-81-23.85-80.68,14.36,82.85,12.91,83.13-17.78-82.14-19.24-81.9,9.68,83.53,8.21,83.73-13.17-83-14.63-82.84,5,83.93,3.56,84-8.59-83.61-10.07-83.53.46,84.09-1,84.13-4.06-83.95-5.53-83.95-4.08,84-5.54,83.95.44-84-1-84.13-8.61,83.65-10.07,83.53,5-83.9,3.57-84-13.19,83-14.64,82.84,9.65-83.49,8.21-83.73-17.8,82.18-19.24,81.9,14.35-82.8,12.89-83.13-22.43,81-23.85,80.68,19-81.86,17.64-82.26-27.08,79.61-28.47,79.16,23.8-80.6,22.42-81.08-31.74,77.86-33.1,77.34,28.57-79,27.22-79.6-36.38,75.8-37.72,75.2,33.37-77.13,32.06-77.78-41,73.39-42.32,72.7,38.17-74.86,36.9-75.6S1616,285,1614.74,284.2s43-72.21,41.76-73-50.25,67.42-51.44,66.57,47.76-69.14,46.6-70-54.78,63.79-55.91,62.85,52.52-65.6,51.43-66.57-59.24,59.68-60.29,58.66,57.2-61.55,56.18-62.6-63.56,55-64.53,53.95,61.78-57,60.84-58.13-67.7,49.86-68.59,48.69,66.17-51.77,65.34-53-71.6,44.1-72.39,42.86,70.32-46,69.59-47.26-75.14,37.73-75.82,36.43,74.11-39.59,73.49-40.92-78.24,30.79-78.79,29.43,77.43-32.59,76.94-34-80.78,23.34-81.2,21.93,80.17-25.09,79.82-26.52-82.65,15.46-82.94,14,82.23-17.19,82-18.65-83.76,7.33-83.91,5.86,83.52-9.06,83.45-10.54-84-.83-84-2.31,84-.9,84.08-2.36S1542.81,150.48,1543,149s83.69,7.31,83.91,5.86-82.3-17.22-82-18.66,82.58,15.45,82.94,14-80.25-25.11-79.82-26.52,80.71,23.32,81.2,21.93-77.49-32.62-76.94-34,78.18,30.77,78.79,29.43-74.16-39.61-73.48-40.92,75,37.78,75.77,36.47-70.37-46-69.58-47.26,71.54,44.07,72.38,42.86-66.22-51.81-65.33-53,67.65,49.84,68.59,48.71-61.82-57-60.84-58.1,63.5,55,64.53,54-57.24-61.59-56.18-62.61,59.18,59.65,60.28,58.67-52.55-65.64-51.42-66.58,54.74,63.76,55.91,62.86-47.8-69.17-46.61-70,50.21,67.38,51.44,66.56-43-72.25-41.76-73,45.62,70.57,46.9,69.83-38.2-74.9-36.9-75.59,41,73.35,42.32,72.7-33.4-77.17-32-77.78,36.35,75.77,37.71,75.2-28.6-79.07-27.22-79.6,31.71,77.83,33.1,77.34-23.83-80.64-22.42-81.08,27,79.56,28.47,79.16-19.11-82-17.68-82.33,22.41,81,23.85,80.68S1676.5,15.41,1678,15.13s17.78,82.14,19.24,81.9S1687.51,13.5,1689,13.3s13.17,83,14.63,82.84-5-83.93-3.56-84,8.59,83.61,10.07,83.53-.46-84.09,1-84.13,4.06,84,5.54,84,4.07-84,5.53-83.95-.44,84.05,1,84.13,8.65-83.79,10.13-83.63-5,83.9-3.57,84.05,13.19-83,14.64-82.84-9.65,83.49-8.21,83.73,17.8-82.18,19.24-81.9-14.36,82.8-12.93,83.13,22.43-81,23.85-80.68-19,81.86-17.64,82.26,27.08-79.61,28.47-79.16-23.8,80.6-22.42,81.08,31.74-77.86,33.1-77.34-28.57,79-27.22,79.6,36.38-75.8,37.72-75.2-33.37,77.11-32,77.78,41-73.39,42.32-72.7-38.17,74.86-36.9,75.6,45.66-70.61,46.9-69.84-43,72.21-41.76,73,50.25-67.42,51.44-66.57-47.76,69.14-46.6,70,54.78-63.79,55.91-62.85-52.52,65.6-51.43,66.57,59.24-59.68,60.29-58.66-57.2,61.55-56.18,62.6,63.56-55,64.53-53.95-61.77,57-60.84,58.08,67.7-49.86,68.59-48.69-66.17,51.77-65.34,53,71.6-44.1,72.39-42.86-70.32,46-69.59,47.26,75.14-37.73,75.82-36.43-74.11,39.59-73.49,40.92,78.24-30.79,78.79-29.43-77.43,32.59-76.94,34,80.78-23.34,81.2-21.93-80.17,25.09-79.82,26.52,82.65-15.46,82.94-14-82.23,17.19-82,18.65,83.76-7.33,83.91-5.86-83.52,9.06-83.45,10.54S1891,160.45,1891,161.93Z" transform="translate(112.67 0.07)"/><circle class="cls-6" cx="1782.58" cy="130.67" r="5.14"/><circle class="cls-6" cx="1845.25" cy="134.41" r="5.14"/><path class="cls-6" d="M1704.07,192.11l-11.3,3a.38.38,0,0,1,0-.15c-1.19-4.69,3-9.84,9.19-11.41s12.32,1,13.5,5.7c.81,3.23-.87,6.81-4.34,9.22Z" transform="translate(112.67 0.07)"/><g id="cloud1" class="cls-7"><ellipse class="cls-6" cx="270.5" cy="155.5" rx="88.5" ry="70"/><ellipse class="cls-6" cx="359.5" cy="127" rx="66.5" ry="58.5"/><ellipse class="cls-6" cx="331.5" cy="234.5" rx="85.5" ry="67"/><ellipse class="cls-6" cx="110.99" cy="257.17" rx="54.93" ry="104.86" transform="translate(-50.86 201.59) rotate(-55.2)"/></g><g id="cloud2"><ellipse class="cls-6" cx="838.49" cy="162.61" rx="96.5" ry="79.11"/><ellipse class="cls-6" cx="921.99" cy="185.5" rx="83" ry="56"/><ellipse class="cls-6" cx="809.49" cy="256" rx="96.5" ry="43.5"/><ellipse class="cls-6" cx="1003.49" cy="250" rx="121.5" ry="49.5"/><ellipse class="cls-6" cx="957.99" cy="163" rx="67" ry="49.5"/></g><g id="cloud3" class="cls-8"><ellipse class="cls-6" cx="1373.49" cy="135.5" rx="108.5" ry="64"/><ellipse class="cls-6" cx="1512.49" cy="185.5" rx="74.5" ry="60"/><ellipse class="cls-6" cx="1398.49" cy="208.5" rx="73.5" ry="46"/></g><g id="bridge"><path class="cls-9" d="M225.46,1079.55c-1.31,1.33-2-2.06-3.87-2.06s-1.88-.12-3.75-.12-1.87,2.7-3.75,2.7-1.87-3.5-3.74-3.5-1.88.89-3.75.89-1.88,4.8-3.75,4.8-1.88-2.15-3.75-2.15-1.88-.14-3.75-.14-1.88.79-3.75.79-1.88-1.74-3.75-1.74-1.88,3-3.76,3-2.73-1-4-2.31,1.76-2.19,1.76-4.08-3.71-1.9-3.71-3.8,2.06-1.89,2.06-3.79,1-1.9,1-3.79,1.2-1.9,1.2-3.79-.07-1.9-.07-3.79-4.89-1.9-4.89-3.79,4.94-1.9,4.94-3.8-3.34-1.89-3.34-3.79,2.1-1.9,2.1-3.8-.22-1.89-.22-3.79-2.45-1.9-2.45-3.79,2.48-1.9,2.48-3.79-1.42-1.9-1.42-3.8-1-1.89-1-3.79,1.58-1.9,1.58-3.8-.6-1.89-.6-3.79.35-1.9.35-3.79,1.17-1.9,1.17-3.8-.63-1.9-.63-3.8.95-1.89.95-3.79,1.77-1.9,1.77-3.8-.79-1.89-.79-3.79-2.52-1.9-2.52-3.8,3.43-1.9,3.43-3.79-.71-1.9-.71-3.8-.33-1.9-.33-3.8-3.54-1.89-3.54-3.79,3.75-1.9,3.75-3.8-4.93-1.9-4.93-3.79.12-1.9.12-3.8,4.6-1.9,4.6-3.8-1.23-1.9-1.23-3.8-1.53-1.9-1.53-3.79,2.36-1.9,2.36-3.8.18-1.9.18-3.79-.13-1.9-.13-3.8-4-1.9-4-3.8,5.24-1.9,5.24-3.79-.49-1.9-.49-3.8.4-1.9.4-3.8-1.35-1.9-1.35-3.8-1.18-1.9-1.18-3.8,2.7-1.9,2.7-3.8-4-1.9-4-3.8-.76-1.9-.76-3.8-.26-1.9-.26-3.8,4.65-1.9,4.65-3.8-5.32-4-4-5.41,3.5,1.89,5.37,1.89,1.87-.78,3.75-.78,1.87-.38,3.74-.38,1.88,1.19,3.75,1.19,1.88-2.93,3.75-2.93,1.88,1.94,3.75,1.94,1.88-1.74,3.75-1.74,1.88,1.11,3.75,1.11,1.88.86,3.75.86,1.88,3.13,3.75,3.13,1.88-2.32,3.76-2.32.39.31,1.72,1.65,2.5-.12,2.5,1.77,2.24,1.9,2.24,3.8-1.61,1.89-1.61,3.79-.58,1.9-.58,3.79-2.82,1.9-2.82,3.79,4.35,1.9,4.35,3.79-1.16,1.9-1.16,3.79-3.86,1.9-3.86,3.8,1.54,1.89,1.54,3.79,1.81,1.9,1.81,3.8-1,1.89-1,3.79-.54,1.9-.54,3.79,1.65,1.9,1.65,3.79-.3,1.9-.3,3.8-1.59,1.89-1.59,3.79,4.33,1.9,4.33,3.8-1.49,1.89-1.49,3.79-3.74,1.9-3.74,3.79,1.23,1.9,1.23,3.8,3.25,1.9,3.25,3.8-.7,1.89-.7,3.79-3,1.9-3,3.8-.36,1.89-.36,3.79.4,1.9.4,3.8.3,1.9.3,3.79,4.07,1.9,4.07,3.8-1.72,1.9-1.72,3.8-2.19,1.89-2.19,3.79,3.61,1.9,3.61,3.8-5,1.9-5,3.79,1.77,1.9,1.77,3.8-2.24,1.9-2.24,3.8.65,1.9.65,3.8,2.19,1.9,2.19,3.79.17,1.9.17,3.8-.24,1.9-.24,3.79v3.8c0,1.9-.82,1.9-.82,3.8v3.79c0,1.89.16,1.9.16,3.8s2.66,1.9,2.66,3.8.7,1.9.7,3.8-2.56,1.9-2.56,3.8-3,1.9-3,3.8,2,1.9,2,3.8-1.52,1.9-1.52,3.8,1.9,1.9,1.9,3.8,1.45,1.64,1.88,3.5A3.72,3.72,0,0,1,225.46,1079.55Z" transform="translate(112.67 0.07)"/><path class="cls-9" d="M1932.43,1102.53c-1.54,1.54-4.29-1-6.47-1s-2.18-.06-4.36-.06-2.18-3-4.36-3-2.18,4.34-4.36,4.34-2.18.14-4.36.14-2.19-2.62-4.37-2.62-2.18,2.17-4.36,2.17-2.18-5.15-4.36-5.15-2.18,1.38-4.37,1.38-2.18,4.84-4.37,4.84-.58-3.84-2.13-5.38.83.08.83-2.1-3.81-2.17-3.81-4.34-1.89-2.17-1.89-4.34,1.77-2.18,1.77-4.35-.66-2.17-.66-4.34,1.47-2.18,1.47-4.35-1.55-2.17-1.55-4.34,1.57-2.17,1.57-4.34-2.07-2.17-2.07-4.34,3.34-2.17,3.34-4.34-4.62-2.17-4.62-4.35.89-2.17.89-4.34-.21-2.17-.21-4.35.12-2.17.12-4.34,3.87-2.17,3.87-4.34-1.87-2.17-1.87-4.34-.31-2.17-.31-4.34-1.78-2.18-1.78-4.35,2.94-2.17,2.94-4.35.25-2.17.25-4.34v-4.34c0-2.17-2.29-2.17-2.29-4.35s.8-2.17.8-4.34-1.63-2.18-1.63-4.35,2.55-2.17,2.55-4.34,3.47-2.18,3.47-4.35-1.28-2.17-1.28-4.35v-4.34c0-2.17-2.08-2.17-2.08-4.35s-2.38-2.17-2.38-4.34,4.93-2.18,4.93-4.35-.77-2.17-.77-4.35-.9-2.17-.9-4.34.78-2.18.78-4.35-3.12-2.18-3.12-4.35-1.54-2.17-1.54-4.35,5.85-2.17,5.85-4.34-6.24-2.18-6.24-4.35,3.68-2.18,3.68-4.35-3-2.18-3-4.35,2.1-2.17,2.1-4.34-1.86-2.18-1.86-4.35,1.72-2.18,1.72-4.35-1.31-2.17-1.31-4.35,1.42-2.17,1.42-4.35-1.52-2.17-1.52-4.35.7-2.17.7-4.35,2.22-2.17,2.22-4.35-2.45-2.17-2.45-4.34,4.67-2.18,4.67-4.36-.78-2.18-.78-4.35-3.65-2.78-2.11-4.32,2.13-1.13,4.32-1.13,2.17-1.39,4.35-1.39,2.18,2.4,4.37,2.4,2.18-3,4.36-3,2.18,3.76,4.36,3.76,2.18,2.16,4.36,2.16,2.19-.07,4.37-.07,2.18-6,4.36-6,2.18.28,4.37.28,2.18,3.9,4.36,3.9,1.61-1.18,3.16.36,2.09,1,2.09,3.13-4,2.17-4,4.34,4.88,2.17,4.88,4.34-3.17,2.18-3.17,4.35,4.7,2.17,4.7,4.34-5.29,2.18-5.29,4.35,3.73,2.17,3.73,4.34-1.34,2.17-1.34,4.34,2.68,2.17,2.68,4.34-5.34,2.17-5.34,4.34,4,2.17,4,4.35,1.21,2.17,1.21,4.34-.15,2.17-.15,4.35-3.33,2.17-3.33,4.34,1.31,2.17,1.31,4.34,1.55,2.17,1.55,4.34-3.58,2.17-3.58,4.34,1,2.18,1,4.35v4.35c0,2.18.14,2.17.14,4.34s.44,2.17.44,4.34-3.7,2.17-3.7,4.35,2.88,2.17,2.88,4.34,3.23,2.18,3.23,4.35.1,2.17.1,4.34-5.56,2.18-5.56,4.35,2.43,2.17,2.43,4.35,3.48,2.17,3.48,4.34-4.51,2.17-4.51,4.35-.65,2.17-.65,4.34,4.3,2.18,4.3,4.35-.69,2.17-.69,4.35-3,2.17-3,4.34-.4,2.18-.4,4.35,2.68,2.18,2.68,4.35-2.31,2.17-2.31,4.35-1,2.17-1,4.34,3.43,2.18,3.43,4.35-.25,2.18-.25,4.35-.85,2.18-.85,4.35.9,2.17.9,4.34-.64,2.18-.64,4.35,2.73,2.18,2.73,4.35-1.24,2.17-1.24,4.35-4.81,2.17-4.81,4.35,5.65,2.17,5.65,4.35-5.08,2.17-5.08,4.35,1.83,2.17,1.83,4.35.27,2.17.27,4.34,2.59,2.18,2.59,4.36-1.83,1.92-1,3.94C1932.68,1099,1934,1101,1932.43,1102.53Z" transform="translate(112.67 0.07)"/><path class="cls-9" d="M566.48,1084.56c-1.53,1.51-1.3,1.44-3.45,1.44s-2.15-2.81-4.3-2.81-2.16-.34-4.31-.34-2.15,3.29-4.3,3.29-2.16-3-4.31-3-2.15,2-4.31,2-2.15,1-4.31,1-2.15-4.08-4.3-4.08-2.16.39-4.31.39-2.15,3.8-4.31,3.8-2.15.21-4.31.21-2.16.21-4.31.21-1.47-1.09-3-2.6-1.19-.78-1.19-2.89,2.6-2.11,2.6-4.22-.71-2.11-.71-4.22-4.63-2.12-4.63-4.23,4.94-2.11,4.94-4.23-1.28-2.11-1.28-4.22,1.31-2.11,1.31-4.22-.13-2.11-.13-4.22.65-2.12.65-4.23.45-2.11.45-4.23-2.33-2.09-2.33-4.24-2.05-2.11-2.05-4.23,1.11-2.11,1.11-4.22-1.08-2.11-1.08-4.22-1.43-2.12-1.43-4.23,5-2.12,5-4.23-2-2.11-2-4.22,2.36-2.12,2.36-4.23-5.88-2.11-5.88-4.23,2.95-2.11,2.95-4.22,2.45-2.12,2.45-4.23-2.08-2.11-2.08-4.23-.28-2.11-.28-4.23,1.18-2.11,1.18-4.22,1-2.12,1-4.23-4.61-2.12-4.61-4.23-.86-2.11-.86-4.23,2.2-2.11,2.2-4.23-2.07-2.11-2.07-4.22,3-2.12,3-4.23.33-2.12.33-4.23-3.1-2.11-3.1-4.22,5.91-2.12,5.91-4.23-.48-2.12-.48-4.23-3.15-2.11-3.15-4.23.25-2.11.25-4.23-2.78-2.11-2.78-4.23,1.31-2.11,1.31-4.23,3.69-2.12,3.69-4.23-2.32-2.12-2.32-4.23-1.12-2.12-1.12-4.23-.44-2.12-.44-4.24.45-2.11.45-4.23-.58-3.52.93-5,2.91,2.92,5.06,2.92,2.15,1,4.3,1,2.15-2.63,4.31-2.63,2.15.76,4.3.76,2.15-3.13,4.31-3.13,2.15,1,4.31,1,2.15,3.77,4.3,3.77,2.16-4.65,4.31-4.65,2.15,1.24,4.31,1.24,2.15,1.18,4.3,1.18,2.16.31,4.32.31,2.15-.27,4.31-.27,3.33-2.75,4.87-1.24-1.56,2.68-1.56,4.79,3.59,2.11,3.59,4.22S565,910,565,912.11s1.57,2.12,1.57,4.23.55,2.11.55,4.23.78,2.11.78,4.22.62,2.11.62,4.22,1.53,2.11,1.53,4.22-1.73,2.12-1.73,4.23-2.42,2.11-2.42,4.23-1.59,2.11-1.59,4.22.28,2.11.28,4.23,4.44,2.11,4.44,4.22-2.29,2.11-2.29,4.22-.29,2.12-.29,4.23,1.73,2.12,1.73,4.23-.79,2.11-.79,4.22-1.63,2.12-1.63,4.23-1.14,2.11-1.14,4.23-.23,2.11-.23,4.22,1.21,2.12,1.21,4.23,4.22,2.11,4.22,4.23-.14,2.11-.14,4.23-.7,2.11-.7,4.22-1.68,2.12-1.68,4.23-1.79,2.12-1.79,4.23-.75,2.11-.75,4.23,5.3,2.11,5.3,4.23-4.93,2.11-4.93,4.22,2.34,2.12,2.34,4.23,1.5,2.12,1.5,4.23-.65,2.11-.65,4.22-1.8,2.12-1.8,4.23-.18,2.12-.18,4.23,2.17,2.11,2.17,4.23-3.54,2.11-3.54,4.23,3.19,2.11,3.19,4.23-.86,2.11-.86,4.23,1.9,2.12,1.9,4.23.55,2.12.55,4.23-2.24,2.12-2.24,4.23-2.09,2.12-2.09,4.24a27.67,27.67,0,0,0,0,4.46C565.45,1083.23,568,1083.07,566.48,1084.56Z" transform="translate(112.67 0.07)"/><path class="cls-9" d="M1244.85,1080.92c-1.23,1.27-3.3,1.26-5.07,1.26s-1.77-4-3.54-4-1.77,1.09-3.55,1.09-1.77.16-3.54.16-1.77-2.2-3.55-2.2-1.77.2-3.54.2-1.77,4.19-3.54,4.19-1.77-4.73-3.55-4.73-1.77,1.59-3.54,1.59-1.78,3.55-3.55,3.55-4.06.35-5.3-.91,2.73-3.52,2.73-5.34-3.6-1.81-3.6-3.62,2.35-1.81,2.35-3.62,1.78-1.81,1.78-3.63-.87-1.81-.87-3.62-1-1.81-1-3.63,1.31-1.81,1.31-3.63.92-1.81.92-3.63-.2-1.81-.2-3.62-.08-1.81-.08-3.63-1.42-1.81-1.42-3.62,2.39-1.81,2.39-3.63-2.89-1.81-2.89-3.62,1.77-1.82,1.77-3.63-.81-1.82-.81-3.63-.6-1.82-.6-3.63.16-1.81.16-3.63,1.53-1.81,1.53-3.62-.59-1.82-.59-3.63-2.53-1.81-2.53-3.63,3.85-1.81,3.85-3.63-1.18-1.81-1.18-3.63-1.7-1.81-1.7-3.62.93-1.82.93-3.63,1.75-1.82,1.75-3.64-3.64-1.81-3.64-3.62.66-1.82.66-3.63.64-1.82.64-3.63-1.59-1.82-1.59-3.63,1.41-1.82,1.41-3.63,1.42-1.82,1.42-3.63.47-1.82.47-3.63-1.36-1.82-1.36-3.63-2.08-1.82-2.08-3.64,3.15-1.81,3.15-3.63.33-1.81.33-3.63-2.38-1.81-2.38-3.63,1.68-1.81,1.68-3.63-1.1-1.82-1.1-3.63,2.38-1.82,2.38-3.63-4.52-1.82-4.52-3.63,1.19-1.82,1.19-3.63,1.4-1.82,1.4-3.63-1.87-1.82-1.87-3.63,2.45-1.82,2.45-3.63.4-1.82.4-3.64-1.3-1.8-1.3-3.57-2.74-1.82-2.74-3.63,1.18-1.82,1.18-3.64.25-1.82.25-3.63,3.74-1.82,3.74-3.64-1.36-1.81-1.36-3.63-1.31-1.82-1.31-3.64,1-.34,2.26-1.64-.28-2.42,1.49-2.42,1.77-1.09,3.54-1.09,1.77,2.37,3.54,2.37,1.78-2.58,3.55-2.58,1.77,3.73,3.54,3.73,1.77-3.84,3.54-3.84,1.78.94,3.55.94,1.77,1.73,3.54,1.73,1.78.72,3.55.72,1.78-1.78,3.55-1.78.32.9,1.56,2.17,1.3-.14,1.3,1.68-.36,1.81-.36,3.62,1.14,1.81,1.14,3.62-1.66,1.81-1.66,3.63.2,1.81.2,3.62-.82,1.81-.82,3.63-.15,1.81-.15,3.63,2.08,1.81,2.08,3.63-1.66,1.81-1.66,3.62,1.91,1.81,1.91,3.63,1.6,1.81,1.6,3.62-3.55,1.76-3.55,3.57.38,1.81.38,3.62.58,1.82.58,3.63-.54,1.82-.54,3.63-.84,1.82-.84,3.63,1.92,1.81,1.92,3.63,1.63,1.81,1.63,3.62.24,1.82.24,3.63-3.31,1.81-3.31,3.63,1.4,1.81,1.4,3.63,1.56,1.81,1.56,3.63-.18,1.81-.18,3.62-.75,1.82-.75,3.63,1.93,1.82,1.93,3.64.3,1.81.3,3.62-2.32,1.82-2.32,3.63-.73,1.82-.73,3.63.34,1.82.34,3.63-.91,1.82-.91,3.63,1.22,1.82,1.22,3.63-1.45,1.82-1.45,3.63v3.63c0,1.81-.62,1.82-.62,3.64s4.68,1.81,4.68,3.63.22,1.81.22,3.63-1.73,1.81-1.73,3.63-3.77,1.81-3.77,3.63,2.38,1.82,2.38,3.63-.79,1.82-.79,3.63,1.33,1.82,1.33,3.63.2,1.82.2,3.63-2,1.82-2,3.63-.72,1.82-.72,3.63,1.32,1.82,1.32,3.63.51,1.82.51,3.64.8,1.81.8,3.63-1.62,1.82-1.62,3.63,2.44,1.82,2.44,3.64,1.08,1.82,1.08,3.63-.54,1.82-.54,3.64-.88,1.81-.88,3.63.77,1.11,1.41,2.81C1246.52,1077.61,1246.12,1079.6,1244.85,1080.92Z" transform="translate(112.67 0.07)"/><path class="cls-9" d="M1577.32,1084.37c-1.33,1.29-1.8-1.74-3.65-1.74s-1.85,3.5-3.7,3.5-1.85.68-3.7.68-1.85.35-3.7.35-1.85-3.52-3.7-3.52-1.85.19-3.7.19-1.85,1.8-3.7,1.8h-3.69c-1.86,0-1.86.57-3.71.57s-3.3.45-4.63-.84-1-2.74-1-4.54,2.71-1.79,2.71-3.59-1.09-1.79-1.09-3.58-2.35-1.79-2.35-3.58,3.33-1.79,3.33-3.58-.61-1.79-.61-3.59-.46-1.79-.46-3.58-1-1.79-1-3.59,2.51-1.79,2.51-3.59-1.59-1.79-1.59-3.58-1.46-1.8-1.46-3.59,2.07-1.79,2.07-3.59-1.23-1.79-1.23-3.58.62-1.79.62-3.58-.63-1.8-.63-3.59-1.54-1.8-1.54-3.59,1.43-1.8,1.43-3.59v-3.59c0-1.8-.42-1.79-.42-3.58s2.13-1.8,2.13-3.59-1.19-1.79-1.19-3.59-1.57-1.79-1.57-3.59,3.53-1.79,3.53-3.59v-3.58c0-1.79-2.77-1.8-2.77-3.59s1.29-1.8,1.29-3.59.74-1.8.74-3.59,1.25-1.8,1.25-3.59.73-1.79.73-3.59-5-1.79-5-3.59,4.55-1.79,4.55-3.59-.3-1.79-.3-3.59-2.53-1.79-2.53-3.59,2.73-1.79,2.73-3.59-4.45-1.79-4.45-3.59,1.79-1.79,1.79-3.59,1.45-1.8,1.45-3.59-.8-1.8-.8-3.59.3-1.8.3-3.59-2.6-1.8-2.6-3.59.38-1.8.38-3.59,1.1-1.8,1.1-3.59,2.62-1.8,2.62-3.59-1.94-1.8-1.94-3.59.08-1.8.08-3.59.85-1.8.85-3.59-2.73-1.8-2.73-3.59,2.1-1.8,2.1-3.6-1.13-1.79-1.13-3.59-1.29-1.8-1.29-3.59,2.28-1.8,2.28-3.6.41-1.8.41-3.59-2.26-1.8-2.26-3.6,3.68-1.79,3.68-3.59-.29-1.8-.29-3.6-1-.5.32-1.76,0-.65,1.9-.65,1.85-1.49,3.7-1.49,1.85.81,3.7.81h3.7c1.85,0,1.85.06,3.7.06s1.84-.58,3.69-.58,1.85,1.49,3.7,1.49,1.85-.31,3.7-.31,1.86-.51,3.71-.51.46,0,1.8,1.31,3.71-.18,3.71,1.62-4.23,1.79-4.23,3.59.06,1.79.06,3.58,4.53,1.79,4.53,3.58-3.67,1.79-3.67,3.58,4.25,1.79,4.25,3.59-2.22,1.79-2.22,3.58.86,1.79.86,3.59,1.1,1.79,1.1,3.59-1.49,1.79-1.49,3.58-2.77,1.8-2.77,3.59-.11,1.79-.11,3.59-.66,1.79-.66,3.58,3.16,1.79,3.16,3.58-1.19,1.8-1.19,3.59.59,1.8.59,3.59,1.25,1.8,1.25,3.59-2.23,1.79-2.23,3.59,2.15,1.79,2.15,3.58.74,1.8.74,3.59-3.38,1.79-3.38,3.59-.44,1.79-.44,3.59,3.16,1.79,3.16,3.59.5,1.79.5,3.58-4.58,1.8-4.58,3.59,1.93,1.8,1.93,3.59-.59,1.8-.59,3.59,1.71,1.8,1.71,3.59-2.88,1.79-2.88,3.59.28,1.79.28,3.59.31,1.79.31,3.59,2.18,1.79,2.18,3.59-1.74,1.79-1.74,3.59,2.76,1.79,2.76,3.59-1.29,1.79-1.29,3.59,1.24,1.79,1.24,3.59.92,1.8.92,3.59-3.47,1.8-3.47,3.59,2.55,1.8,2.55,3.59-1.07,1.8-1.07,3.59,1.51,1.8,1.51,3.59-.58,1.8-.58,3.59-1.7,1.8-1.7,3.59-.66,1.8-.66,3.59,1.59,1.8,1.59,3.59-2.16,1.8-2.16,3.59,1.27,1.8,1.27,3.59.48,1.8.48,3.6-2.37,1.79-2.37,3.59,2.57,1.8,2.57,3.59,2.3,1.8,2.3,3.6-1.76,1.8-1.76,3.59-2.91,1.8-2.91,3.6.77,1.79.77,3.59-.43,2.19-.06,4S1578.57,1083.12,1577.32,1084.37Z" transform="translate(112.67 0.07)"/><path class="cls-9" d="M907,1079.12c-1.36,1.41-.61,2-2.57,2s-2-2.24-3.91-2.24-2,3-3.92,3-2,.41-3.91.41-2-1.84-3.92-1.84-2,1.31-3.91,1.31-2-3.28-3.92-3.28-2-.69-3.92-.69-2,1.33-3.91,1.33-2-1-3.92-1-2,1.27-3.92,1.27-2.94,2.77-4.3,1.37,1.71-2.39,1.71-4.41,1-2,1-4,.33-2,.33-4-1.35-2-1.35-4-1.12-2-1.12-4,1.58-2,1.58-4-4.1-2-4.1-4,3.94-2,3.94-4,1.27-2,1.27-4-6-2-6-4,4.36-2,4.36-4,.37-2,.37-4-2.54-2-2.54-4,.9-2,.9-4-2.77-2-2.77-4,4.38-2,4.38-4-2.59-2-2.59-4,.07-2,.07-4-1.33-2-1.33-4,5.14-2,5.14-4,.29-2,.29-4-2.47-2-2.47-4-3-2-3-4,1.4-2,1.4-4-2-2-2-4,2.51-2,2.51-4-2-2-2-4,5.49-2,5.49-4-.58-2-.58-4,.1-2,.1-4,.23-2,.23-4-3.71-2-3.71-4.05,2.38-2,2.38-4-.25-2-.25-4-1.54-2-1.54-4,.91-2,.91-4,.81-2,.81-4,.1-2,.1-4,.13-2,.13-4-1-2-1-4-1.17-2-1.17-4-.85-2-.85-4,1.4-2,1.4-4,2-2,2-4-2.39-2-2.39-4-.8-2-.8-4,3.29-2,3.29-4-4.77-2-4.77-4,3.49-2,3.49-4-.82-1.3.59-2.76.62-4,2.58-4,2,5.5,3.91,5.5,2-2.17,3.91-2.17,2,1.35,3.92,1.35,2,.63,3.92.63,1.95.49,3.91.49h3.92c2,0,2-.84,3.91-.84s2-.76,3.92-.76,2-1.08,3.92-1.08,2-2.27,3.92-2.27a4.54,4.54,0,0,1,4,1.73c1.41,1.45,1,2.15,1,4.17s-1.46,2-1.46,4,2.26,2,2.26,4-2.44,2-2.44,4,.87,2,.87,4,.71,2,.71,4-3,2-3,4,2.21,2,2.21,4,1.19,2,1.19,4-3.46,2-3.46,4,3.13,2,3.13,4-3.86,2-3.86,4,2,2,2,4v4c0,2-2.17,2-2.17,4s2.12,2,2.12,4,.43,2,.43,4,2.29,2,2.29,4-1.93,2-1.93,4-2.5,2-2.5,4,2.16,2,2.16,4,2.9,2,2.9,4-.62,2-.62,4v4c0,2-3.29,2-3.29,4s4.17,2,4.17,4,.26,2,.26,4-3.82,2-3.82,4,2.66,2,2.66,4v4c0,2-.35,2-.35,4s-.18,2-.18,4-1.17,2-1.17,4,2.85,2,2.85,4-4.76,2-4.76,4,2.71,2,2.71,4v4c0,2-.23,2-.23,4s-2,2-2,4,2.63,2,2.63,4-2.11,2-2.11,4,2.41,2,2.41,4,1.19,2,1.19,4-1.29,2-1.29,4,.65,2,.65,4-1.12,2-1.12,4-3.91,2-3.91,4,5,2,5,4-.45,2-.43,4C910.06,1077.92,908.39,1077.67,907,1079.12Z" transform="translate(112.67 0.07)"/><path class="cls-10" d="M1958.54,948.63c-11.94,13.3-19.39-7.16-37.26-7.16s-17.87,12.11-35.73,12.11-17.87-18.26-35.74-18.26-17.87,4.55-35.73,4.55-17.87-1.88-35.74-1.88-17.86,2-35.73,2-17.87,9.46-35.74,9.46-17.86,7.71-35.73,7.71-17.82-21.24-35.73-21.24-17.87,21.68-35.74,21.68-17.87-.67-35.73-.67-17.87-2.17-35.74-2.17-17.87-9.93-35.74-9.93-17.86-8.41-35.73-8.41-17.87,3-35.74,3-17.86,2.76-35.73,2.76-17.87,9.81-35.74,9.81-17.87,3.94-35.73,3.94-17.87-5.44-35.74-5.44-17.87,4.26-35.74,4.26-17.86-13.18-35.73-13.18-17.87-1.58-35.74-1.58-17.86,7-35.73,7-17.87-9.3-35.74-9.3-17.87,7.24-35.74,7.24S1045.77,938,1027.9,938s-17.87-.35-35.74-.35-17.84,17.28-35.74,17.28-17.87-14.71-35.74-14.71-17.86,2.86-35.73,2.86-17.87-6.85-35.74-6.85-17.86,6.07-35.73,6.07-17.87,16.37-35.73,16.37S759.88,937.81,742,937.81s-17.87.69-35.74.69-17.86,4.31-35.73,4.31-17.87,9-35.73,9-17.87,7-35.74,7-17.87-19-35.73-19-17.87,7.89-35.74,7.89-17.87-2.86-35.74-2.86S474,957.62,456.13,957.62s-17.87-10.16-35.74-10.16-17.87-3.08-35.74-3.08-17.86,13.18-35.73,13.18-17.87-10.88-35.74-10.88S295.33,958,277.43,958s-17.86-12.64-35.73-12.64S223.83,956.71,206,956.71s-17.87-14-35.74-14-17.87,5.41-35.74,5.41-17.87-.06-35.74-.06S80.86,941.92,63,941.92s-17.87,14.75-35.74,14.75S4.62,959.5-7.32,946.2c-13.3-14.81,9-18.84,9-38.74s-25.92-27.23-12.63-42c11.94-13.3,20.36-1.4,38.23-1.4s17.86,8,35.73,8,17.87-9.33,35.73-9.33,17.87,11.09,35.74,11.09,17.85,1.1,35.69,1.1,17.87-16.45,35.74-16.45S223.77,868,241.64,868s17.87,9.78,35.74,9.78,17.86-3.66,35.73-3.66,17.87-8.57,35.73-8.57,17.87,6.26,35.74,6.26,17.87,4.53,35.74,4.53,17.86-8.69,35.73-8.69,17.87,3.83,35.74,3.83,17.86,2.05,35.73,2.05,17.87-15.32,35.73-15.32,17.87,8.76,35.74,8.76,17.87,7.3,35.74,7.3S652.59,866,670.46,866s17.87,5.29,35.74,5.29S724.07,869,741.92,869s17.87-12.82,35.74-12.82,17.87,14.27,35.74,14.27,17.86-4.72,35.73-4.72,17.87-1.86,35.74-1.86,17.87,7.43,35.74,7.43,17.87-7.61,35.73-7.61,17.87,10.81,35.74,10.81S1010,863,1027.82,863s17.87-7.18,35.74-7.18,17.86,19.81,35.73,19.81,17.87-11.81,35.73-11.81,17.87-6.57,35.74-6.57,17.87,20.83,35.74,20.83,17.86-8.53,35.73-8.53,17.87-3.88,35.73-3.88,17.87.25,35.74.25,17.86,9.57,35.73,9.57,17.87-1.5,35.74-1.5,17.87-6.46,35.74-6.46,17.87-1.36,35.74-1.36,17.86-6.41,35.73-6.41,17.87,1.29,35.74,1.29,17.87-3.33,35.74-3.33,17.87,2.37,35.74,2.37,17.87,17.84,35.72,17.84,17.87-15.37,35.74-15.37,17.87-2.17,35.74-2.17,17.86,8.19,35.73,8.19,17.87.82,35.74.82,17.87-2.71,35.74-2.71,17.9,11.24,35.77,11.24,17.87-9,35.74-9,17.87-8.81,35.75-8.81,23.92-5.87,35.86,7.43c13.3,14.81-1.19,19.75,3.16,39.17C1965.06,928.06,1971.83,933.82,1958.54,948.63Z" transform="translate(112.67 0.07)"/></g><ellipse class="cls-11" cx="1343.2" cy="551.3" rx="9.34" ry="9.55"/><g id="devilcow"><polygon class="cls-12" points="1503.82 449.4 1503.8 447.24 1501.89 446.23 1499.99 447.38 1500 449.54 1501.91 450.55 1503.82 449.4"/><polygon class="cls-13" points="1506.18 460.58 1506.04 457.47 1503.4 455.81 1500.9 457.26 1501.04 460.37 1503.68 462.04 1506.18 460.58"/><polygon class="cls-12" points="1461.01 478.74 1460.91 475.41 1458 473.77 1455.2 475.47 1455.3 478.81 1458.21 480.44 1461.01 478.74"/><polygon class="cls-13" points="1463.99 491.1 1463.88 487.76 1460.97 486.13 1458.17 487.83 1458.28 491.16 1461.18 492.8 1463.99 491.1"/><polygon class="cls-6" points="1517 393.23 1514.05 398.74 1478.02 378.47 1480.97 372.96 1517 393.23"/><rect class="cls-6" x="1336.48" y="450.47" width="4.75" height="28" transform="translate(65.81 761.3) rotate(-31.22)"/><rect class="cls-6" x="1334.73" y="452.96" width="6.62" height="39.07" transform="translate(61.53 762.04) rotate(-31.22)"/><rect class="cls-6" x="1379.16" y="427.63" width="5.87" height="33.47" transform="matrix(0.86, -0.52, 0.52, 0.86, 82.5, 780.8)"/><rect class="cls-6" x="1381.54" y="425.58" width="3.48" height="24.22" transform="translate(86.12 780.45) rotate(-31.22)"/><polygon class="cls-14" points="1357.29 419.37 1359.62 419.88 1361.28 411.27 1358.94 410.77 1357.29 419.37"/><polygon class="cls-14" points="1397.5 392.93 1397.39 395.33 1389.94 394.85 1390.04 392.45 1397.5 392.93"/><polygon class="cls-14" points="1380 430.17 1383.99 419.19 1390.92 428.81 1386.76 407.11 1388.96 391.1 1382.4 388.68 1376.83 369.17 1376.94 389.37 1371.3 393.32 1377.92 408.22 1380 430.17"/><polygon class="cls-14" points="1408.72 419.45 1393.94 419.3 1399.04 433.43 1378.92 416.98 1360.1 411.92 1362.44 401.9 1345.72 384.65 1367.28 394.92 1375.76 389.31 1386.75 405.67 1408.72 419.45"/><rect class="cls-6" x="1284.7" y="396.25" width="104.38" height="51.99" transform="translate(87.42 754.16) rotate(-31.22)"/><rect class="cls-6" x="1248.14" y="389.39" width="36.9" height="40.56" transform="translate(83.75 715.91) rotate(-31.22)"/><rect class="cls-15" x="1261.02" y="421.8" width="46.29" height="28.28" transform="translate(72.68 728.82) rotate(-31.22)"/><ellipse class="cls-6" cx="1291.65" cy="429.72" rx="2.05" ry="6.22" transform="matrix(0.86, -0.52, 0.52, 0.86, 76.99, 731.8)"/><ellipse class="cls-6" cx="1276.95" cy="438.63" rx="2.84" ry="6.22" transform="translate(70.24 725.47) rotate(-31.22)"/><ellipse cx="1257.05" cy="407.33" rx="3" ry="4" transform="translate(83.58 710.62) rotate(-31.22)"/><ellipse cx="1276.33" cy="400.82" rx="3.25" ry="5.12" transform="translate(89.41 718.3) rotate(-31.16)"/><polygon points="1371.5 402.65 1363.04 402.74 1363.01 401.78 1371.47 401.69 1371.5 402.65"/><polygon points="1380.03 392.04 1374.63 400.61 1373.64 399.97 1379.05 391.39 1380.03 392.04"/><polygon class="cls-14" points="1520.19 394.26 1516.64 400.89 1511.49 398 1515.05 391.36 1520.19 394.26"/><path class="cls-16" d="M1329.13,423.33c0,.74-7.81-1-7.81-1.53,0,1.83-5.12,6.79-5.12,8.84,0-.62-1.62-8.13-1.62-8.17,0-.73-7.25-2.54-7.25-2.42,0-.34,6.82-4.59,6.82-5.42,0,.33.64-6.28.64-8.73a54.24,54.24,0,0,1,5.82,6.3c0,1.39,7.65-3.08,7.65-.66,0-1.14-3.21,6.17-3.21,6C1325.05,418.69,1329.13,423.14,1329.13,423.33Z" transform="translate(112.67 0.07)"/><path class="cls-16" d="M1362.56,430.29c0,.8-7,2.88-7,2.06,0,.53-4,3.31-4,4.7,0-.42-2.09-7.2-2.09-7.16,0-1.23-6.69-.46-6.69-1.15,0-1.2,5.73-4.89,5.73-6.33,0,2.57-.09-6.77-.09-4.11,0-.46,5.62.91,5.62,3.77,0-.9,6.64-3.67,6.64-3.14,0-.89-2.25,7.56-2.25,6.2C1358.37,426.19,1362.56,432.17,1362.56,430.29Z" transform="translate(112.67 0.07)"/><path class="cls-16" d="M1357.32,401.07c-.58,0-3-5.51-2.43-5.51q-3-.53-6-1.33c-.08,0,4.61-3.78,4-3.78,0,0-.45-5.91.38-5.91-.71,0,6.06,3.17,5.25,3.17-1.27,0,4.85-2.33,5.18-2.33-1.33,0-2.84,5.75-2,5.75s3.8,4.47,4.39,4.47-5,.38-5,.38C1361.58,396,1356.84,401.07,1357.32,401.07Z" transform="translate(112.67 0.07)"/></g><g id="devilcow-2"><polygon class="cls-12" points="1807.87 386.35 1806.81 384.58 1807.87 382.81 1809.99 382.81 1811.05 384.58 1809.99 386.35 1807.87 386.35"/><polygon class="cls-17" points="1811.47 396.64 1810.04 394.04 1811.37 391.38 1814.13 391.32 1815.56 393.93 1814.23 396.59 1811.47 396.64"/><polygon class="cls-12" points="1857.3 389.12 1855.74 386.35 1857.3 383.58 1860.43 383.58 1861.99 386.35 1860.43 389.12 1857.3 389.12"/><polygon class="cls-17" points="1860.98 400.68 1859.42 397.9 1860.98 395.13 1864.11 395.13 1865.67 397.9 1864.11 400.68 1860.98 400.68"/><polygon class="cls-6" points="1769.34 347.05 1774.47 350.08 1793.84 315.73 1788.71 312.69 1769.34 347.05"/><rect class="cls-6" x="1855.74" y="359.47" width="4.53" height="26.71"/><rect class="cls-6" x="1859.49" y="360.33" width="6.32" height="37.27"/><rect class="cls-6" x="1809.99" y="361.81" width="5.6" height="31.93"/><rect class="cls-6" x="1806.87" y="361.39" width="3.32" height="23.1"/><polygon class="cls-14" points="1912.57 289.39 1910.91 290.96 1905.31 284.76 1906.96 283.19 1912.57 289.39"/><polygon class="cls-14" points="1866.69 287.7 1867.96 289.61 1873.8 285.54 1872.53 283.63 1866.69 287.7"/><polygon class="cls-14" points="1899.38 309.44 1890.69 302.44 1889.79 313.72 1882.46 293.96 1872.75 281.99 1876.9 276.77 1871.79 258.1 1881.69 274.63 1888.25 275.06 1890.22 290.5 1899.38 309.44"/><polygon class="cls-14" points="1870.65 314.89 1882.63 307.46 1885.45 321.5 1893.73 298.13 1906.58 284.7 1899.72 277.69 1904.84 255.34 1892.32 274.38 1882.63 274 1881.75 292.78 1870.65 314.89"/><rect class="cls-6" x="1788.94" y="312.58" width="99.58" height="49.61"/><rect class="cls-6" x="1872.26" y="273.02" width="35.2" height="38.7"/><rect class="cls-15" x="1866.49" y="309.02" width="44.16" height="26.98"/><ellipse class="cls-6" cx="1879.35" cy="321.12" rx="1.96" ry="5.93"/><ellipse class="cls-6" cx="1895.74" cy="321.12" rx="2.71" ry="5.93"/><ellipse cx="1896.49" cy="285.74" rx="2.86" ry="3.82"/><ellipse cx="1883.19" cy="286.77" rx="3.08" ry="4.85"/><polygon points="1892.7 282.78 1899.65 278.67 1899.2 277.87 1892.25 281.98 1892.7 282.78"/><polygon points="1880.49 278.34 1889.14 282.66 1889.63 281.64 1880.97 277.32 1880.49 278.34"/><polygon class="cls-14" points="1767.24 349.46 1773.42 353.12 1776.19 348.21 1770 344.56 1767.24 349.46"/><path class="cls-16" d="M1733.5,335.39c0,1.58,5.87-3.51,5.87-4.53,0-.46,7.1,1.87,7.1,1.8,0,.88-2.54-6.14-2.54-5.86,0,.13,4.32-7.9,4.32-8.57,0,2.83-7.44,1.84-7.44,1.89,0-1.38-4.43-6.14-4.43-7.77,0,.59-2.06,9.38-2.06,9s-7.06,2.79-7.06,2.38c0,0,6.17,5,6.17,2.21C1733.43,326.93,1733.5,335.47,1733.5,335.39Z" transform="translate(112.67 0.07)"/><path class="cls-16" d="M1709.67,358.55c0-1.71,5.61-6.33,5.61-3.69,0-.33,6.12,1.05,6.12,0,0,2.55-1.67-3.79-1.67-3.16,0-2.11,4.35-8.17,4.35-7.23s-6.64,1.08-6.64-.84c0-.93-3.43-4.59-3.43-6.42,0-.22-2.43,8-2.43,5.85,0,1.13-6.48,2.89-6.48,5.24,0-.89,5.14,2.33,5.14,1.49C1710.24,350.12,1709.67,357.1,1709.67,358.55Z" transform="translate(112.67 0.07)"/><path class="cls-16" d="M1699.22,330.2c-.12,0-1.55-5.63-.53-5.63-1.68,0,2.32-3.92,4.09-3.92-1.83,0-5.82-.89-6.9-.89.46,0-2-5.14-1.7-5.14,0,0-3,5.07-3.66,5.07,1.74,0-4.51.74-4.79.74,1.57,0,5.18,4,4.71,4-.18,0-1.68,5.6-1.37,5.6,1.15,0,4.55-2.58,4.44-2.58C1692.8,327.48,1699.72,330.2,1699.22,330.2Z" transform="translate(112.67 0.07)"/></g><g id="devilcow-3"><polygon class="cls-12" points="278.87 350.73 278.45 353.1 280.34 354.59 282.65 353.71 283.07 351.35 281.18 349.86 278.87 350.73"/><polygon class="cls-18" points="278.53 338.03 278.06 341.46 280.61 343.81 283.64 342.73 284.11 339.29 281.56 336.95 278.53 338.03"/><polygon class="cls-12" points="331.56 327.25 331.01 330.91 333.86 333.29 337.26 331.99 337.82 328.32 334.97 325.95 331.56 327.25"/><polygon class="cls-18" points="330.79 313.14 330.23 316.81 333.08 319.18 336.49 317.89 337.04 314.22 334.19 311.85 330.79 313.14"/><polygon class="cls-6" points="253.18 409.49 257.51 404.06 292.83 433.46 288.5 438.89 253.18 409.49"/><rect class="cls-6" x="223.78" y="329.04" width="5.28" height="31.13" transform="matrix(0.93, -0.36, 0.36, 0.93, 5.01, 102.99)"/><rect class="cls-6" x="225.26" y="314.29" width="7.36" height="43.43" transform="translate(8.23 103.33) rotate(-20.81)"/><rect class="cls-6" x="171.86" y="339.33" width="6.53" height="37.2" transform="translate(-3.07 85.64) rotate(-20.81)"/><rect class="cls-6" x="170.56" y="351.53" width="3.87" height="26.92" transform="matrix(0.93, -0.36, 0.36, 0.93, -5.75, 85.16)"/><polygon class="cls-14" points="433.04 412.99 430.59 411.96 427.05 421.04 429.5 422.06 433.04 412.99"/><polygon class="cls-14" points="383.77 433.82 384.37 431.21 392.42 433.24 391.82 435.84 383.77 433.82"/><polygon class="cls-14" points="410.38 396.62 403.81 407.83 398.16 395.92 398.36 420.47 392.74 437.53 399.42 441.49 401.59 463.95 405.52 441.84 412.49 438.66 408.24 421.04 410.38 396.62"/><polygon class="cls-14" points="376.83 402.57 392.95 405.7 390.22 389.24 408.91 411.26 428.46 420.57 423.89 431.05 438.72 453.27 417.2 437.72 406.81 442.14 398.08 422.05 376.83 402.57"/><rect class="cls-6" x="162.08" y="362.28" width="116.03" height="57.8" transform="translate(-11.95 103.78) rotate(-20.81)"/><rect class="cls-6" x="273.92" y="396.48" width="41.02" height="45.09" transform="translate(-16.99 132.01) rotate(-20.81)"/><rect class="cls-15" x="254.76" y="371.04" width="51.45" height="31.43" transform="translate(-6.43 124.95) rotate(-20.81)"/><ellipse class="cls-6" cx="271.03" cy="392.14" rx="2.28" ry="6.91" transform="translate(-8.96 121.94) rotate(-20.81)"/><ellipse class="cls-6" cx="288.88" cy="385.34" rx="3.15" ry="6.91" transform="translate(-5.39 127.84) rotate(-20.81)"/><ellipse cx="304.36" cy="423.57" rx="3.33" ry="4.45" transform="translate(-17.96 135.83) rotate(-20.81)"/><ellipse cx="289.43" cy="427.96" rx="3.59" ry="5.65" transform="translate(-20.49 130.82) rotate(-20.81)"/><polygon points="414.14 428.41 423.42 430.01 423.25 431.07 413.98 429.48 414.14 428.41"/><polygon points="402.68 438.31 410.32 430.01 411.26 430.92 403.63 439.21 402.68 438.31"/><polygon class="cls-14" points="249.89 407.73 255.11 401.19 260.16 405.39 254.94 411.93 249.89 407.73"/><path class="cls-16" d="M229,391.14c0-1.36,8.34,1.32,8.34,1.74,0-1,6.78-6.26,6.78-6.26,0-1.08.2,10.14.2,11.69,0-.16,7.28,4.21,7.28,3.21,0,.26-8.22.87-8.22,1,0,2.75-2.28,12.08-2.28,8.73,0,2.67-5.28-5.92-5.28-4.63,0-.86-8.69,0-8.69.36,0-1,5-6.37,5-9.66C232.09,399.19,229,389.72,229,391.14Z" transform="translate(112.67 0.07)"/><path class="cls-16" d="M193.86,377.51c0,.68,7.62-1.9,7.62.19,0-2.1,5.57-4.66,5.57-7.18,0,1.53.91,9.43.91,7.74,0,2,6.87,5.76,6.87,5.88,0,2-7.06,2.85-7.06,3.79,0-1.36-1.33,8.37-1.33,6.6,0,2-5.27-4-5.27-6.62,0-1-7.69-.1-7.69.78,0,3,3.8-7.72,3.8-3.31C197.33,381.3,193.86,377.39,193.86,377.51Z" transform="translate(112.67 0.07)"/><path class="cls-16" d="M192.76,410.21c-.47,0,.86,6.49,1.52,6.49,1.8,0,7.21,2.6,7.64,2.6-1.93,0-5.39,3.25-5.66,3.25-.5,0-1.15,6.59-2.53,6.59,1.94,0-3.25-4.48-5.17-4.48,2.47,0-4,1.47-4.49,1.47-1.87,0,1.85-6,2.4-6,1.16,0-2.33-5.68-3.58-5.68-.11,0,7.14.76,6.71.76S193,410.21,192.76,410.21Z" transform="translate(112.67 0.07)"/></g><g id="devilcow-4"><polygon class="cls-12" points="646.8 37.84 648.02 39.88 646.8 41.92 644.35 41.92 643.13 39.88 644.35 37.84 646.8 37.84"/><polygon class="cls-19" points="642.65 25.99 644.29 28.99 642.76 32.05 639.58 32.11 637.94 29.11 639.47 26.05 642.65 25.99"/><polygon class="cls-12" points="589.88 34.64 591.68 37.84 589.88 41.03 586.28 41.03 584.48 37.84 586.28 34.64 589.88 34.64"/><polygon class="cls-19" points="585.64 21.34 587.44 24.54 585.64 27.73 582.04 27.73 580.24 24.54 582.04 21.34 585.64 21.34"/><polygon class="cls-6" points="691.16 83.09 685.25 79.6 662.95 119.16 668.86 122.65 691.16 83.09"/><rect class="cls-6" x="586.47" y="38.03" width="5.21" height="30.76"/><rect class="cls-6" x="580.09" y="24.89" width="7.27" height="42.92"/><rect class="cls-6" x="637.91" y="29.32" width="6.45" height="36.76"/><rect class="cls-6" x="644.13" y="39.98" width="3.82" height="26.6"/><polygon class="cls-14" points="526.25 149.48 528.15 147.67 534.61 154.81 532.7 156.62 526.25 149.48"/><polygon class="cls-14" points="579.07 151.42 577.61 149.22 570.88 153.91 572.35 156.11 579.07 151.42"/><polygon class="cls-14" points="541.44 126.39 551.44 134.45 552.47 121.47 560.91 144.21 572.1 158 567.32 164 573.19 185.5 561.8 166.47 554.24 165.97 551.99 148.2 541.44 126.39"/><polygon class="cls-14" points="574.51 120.12 560.72 128.67 557.47 112.5 547.94 139.41 533.14 154.87 541.04 162.95 535.15 188.68 549.56 166.76 560.72 167.2 561.73 145.57 574.51 120.12"/><rect class="cls-6" x="553.94" y="65.65" width="114.66" height="57.11"/><rect class="cls-6" x="532.12" y="123.76" width="40.53" height="44.56"/><rect class="cls-15" x="528.47" y="95.8" width="50.84" height="31.06"/><ellipse class="cls-6" cx="564.5" cy="112.94" rx="2.25" ry="6.83"/><ellipse class="cls-6" cx="545.62" cy="112.94" rx="3.12" ry="6.83"/><ellipse cx="544.76" cy="153.68" rx="3.29" ry="4.4"/><ellipse cx="560.08" cy="152.49" rx="3.55" ry="5.59"/><polygon points="549.12 157.09 541.12 161.82 541.64 162.75 549.64 158.01 549.12 157.09"/><polygon points="563.18 162.2 553.22 157.23 552.66 158.39 562.63 163.37 563.18 162.2"/><polygon class="cls-14" points="693.58 80.31 686.46 76.1 683.28 81.75 690.39 85.96 693.58 80.31"/><path class="cls-16" d="M490,95.45c0-.91-6.76,5.3-6.76,5.54,0,1.74-8.18-3.57-8.18-3.69,0,2.31,2.93,9,2.93,12,0-3.17-5,6.16-5,6.86,0-3.49,8.57-2.71,8.57-.77,0-.72,5.11,4.45,5.11,5.63,0-1.48,2.36-9.47,2.36-9.38,0,1.75,8.13-2.22,8.13-1.28,0,.32-7.1-7-7.1-5.19C490.11,103.71,490,96.73,490,95.45Z" transform="translate(112.67 0.07)"/><path class="cls-16" d="M517.46,72.74c0-2.18-6.45.8-6.45,1.13,0,1.42-7-2.29-7-2.33s1.92,6.14,1.92,9.63c0-1.8-5,3-5,3.32,0,2.22,7.65,2,7.65,1,0,1.36,3.95,5.19,3.95,5.13,0,2.35,2.8-4.94,2.8-6.84,0,.9,7.46-1,7.46.09,0-2.33-5.92-4.27-5.92-6.14C516.81,78.69,517.46,71,517.46,72.74Z" transform="translate(112.67 0.07)"/><path class="cls-16" d="M531,102.34c-1.19,0-.77,6.48.28,6.48-1.25,0-6.29,4.51-5,4.51,1.48,0,5.21,1,6.71,1-1.07,0,3.11,5.92,2.81,5.92-1.07,0,1.26-5.84,2.32-5.84s8-.86,6-.86c.11,0-3.23-4.64-3.8-4.64s2.19-6.45.8-6.45c1.58,0-4.53,3-4.57,3S529.57,102.34,531,102.34Z" transform="translate(112.67 0.07)"/></g><g id="devilcow-5"><polygon class="cls-12" points="1664.9 194.44 1666.1 196.43 1664.9 198.42 1662.52 198.42 1661.33 196.43 1662.52 194.44 1664.9 194.44"/><polygon class="cls-20" points="1660.86 182.88 1662.46 185.81 1660.97 188.8 1657.86 188.86 1656.26 185.93 1657.76 182.94 1660.86 182.88"/><polygon class="cls-12" points="1609.35 191.33 1611.11 194.44 1609.35 197.56 1605.83 197.56 1604.08 194.44 1605.83 191.33 1609.35 191.33"/><polygon class="cls-20" points="1605.21 178.34 1606.97 181.46 1605.21 184.57 1601.7 184.57 1599.94 181.46 1601.7 178.34 1605.21 178.34"/><polygon class="cls-6" points="1708.21 238.62 1702.44 235.21 1680.67 273.82 1686.44 277.23 1708.21 238.62"/><rect class="cls-6" x="1606.02" y="194.63" width="5.09" height="30.02"/><rect class="cls-6" x="1599.79" y="181.81" width="7.1" height="41.89"/><rect class="cls-6" x="1656.23" y="186.13" width="6.3" height="35.88"/><rect class="cls-6" x="1662.3" y="196.54" width="3.73" height="25.97"/><polygon class="cls-14" points="1547.24 303.41 1549.1 301.65 1555.4 308.62 1553.54 310.38 1547.24 303.41"/><polygon class="cls-14" points="1598.8 305.31 1597.37 303.16 1590.81 307.75 1592.23 309.89 1598.8 305.31"/><polygon class="cls-14" points="1562.06 280.88 1571.83 288.75 1572.84 276.07 1581.07 298.28 1591.99 311.73 1587.32 317.59 1593.06 338.58 1581.94 320 1574.57 319.52 1572.36 302.17 1562.06 280.88"/><polygon class="cls-14" points="1594.35 274.75 1580.89 283.1 1577.71 267.32 1568.41 293.59 1553.96 308.68 1561.68 316.56 1555.93 341.68 1570 320.28 1580.89 320.71 1581.87 299.6 1594.35 274.75"/><rect class="cls-6" x="1574.26" y="221.59" width="111.92" height="55.75"/><rect class="cls-6" x="1552.97" y="278.31" width="39.56" height="43.49"/><rect class="cls-15" x="1549.4" y="251.02" width="49.63" height="30.32"/><ellipse class="cls-6" cx="1584.58" cy="267.75" rx="2.2" ry="6.66"/><ellipse class="cls-6" cx="1566.15" cy="267.75" rx="3.04" ry="6.66"/><ellipse cx="1565.3" cy="307.52" rx="3.21" ry="4.29"/><ellipse cx="1580.26" cy="306.36" rx="3.46" ry="5.45"/><polygon points="1569.57 310.85 1561.75 315.46 1562.26 316.37 1570.08 311.75 1569.57 310.85"/><polygon points="1583.29 315.84 1573.56 310.98 1573.02 312.12 1582.75 316.98 1583.29 315.84"/><polygon class="cls-14" points="1710.57 235.9 1703.62 231.79 1700.51 237.31 1707.46 241.41 1710.57 235.9"/><path class="cls-16" d="M1509.19,251.34c0,1.85-6.59,6.71-6.59,5.5,0-1.78-8-3.14-8-2.36,0,.22,2.86,9.66,2.86,6.34,0,2.84-4.86,7.76-4.86,7.09,0,3,8.37.76,8.37-.38,0,1.1,5,6.77,5,9,0-1.26,2.31-7.41,2.31-8.56,0-1.48,7.94-2.91,7.94-3.09,0-.54-6.94-4.45-6.94-3.67C1509.32,258.93,1509.19,250.93,1509.19,251.34Z" transform="translate(112.67 0.07)"/><path class="cls-16" d="M1536,227.37c0,1.08-6.3,1.44-6.3,3.31,0-1.71-6.88-3.91-6.88-1.31,0-.52,1.88,6.35,1.88,4.33,0,.57-4.89,7.51-4.89,6.66,0,2.34,7.46,1,7.46,2.18,0-2.39,3.86,4.07,3.86,5.1,0,1.68,2.73-6.06,2.73-5.21,0-2,7.28-2.89,7.28-2.48,0-1.47-5.78-6.2-5.78-6.41C1535.32,235.2,1536,226.76,1536,227.37Z" transform="translate(112.67 0.07)"/><path class="cls-16" d="M1548.06,257.4c1.25,0,.8,6.33-.11,6.33.5,0-2.72,4.4-3,4.4a47.72,47.72,0,0,1,6.28,1c-1.61,0,1.48,5.77,1.52,5.77,1.25,0,4-5.7,3.19-5.7a54.49,54.49,0,0,0,6.23-.83c.58,0-4.43-4.53-3.41-4.53-.43,0-.8-6.3.59-6.3.51,0-6.79,2.91-5.38,2.91C1553.45,260.46,1549,257.4,1548.06,257.4Z" transform="translate(112.67 0.07)"/></g><g id="sad"><ellipse class="cls-11" cx="1172.04" cy="691.36" rx="40.95" ry="9.49" transform="translate(440.31 1758.5) rotate(-82.18)"/><ellipse class="cls-11" cx="1167.21" cy="727.15" rx="19.9" ry="4.99" transform="translate(462.24 1832.93) rotate(-85.44)"/><path class="cls-21" d="M1227.13,776.25l-18.81,121.67c-20.78-19-34.62-67.67-34.62-121.68,0-71.32,24.14-130,53.47-130s53.46,58.7,53.46,130c0,52-12.81,99.16-32.46,119.57Z" transform="translate(112.67 0.07)"/><path d="M1321.49,565.42c-4.19,8-27.77-13.64-35.41-8.78s7.56,28.73-.08,33.59-22.82-19-30.46-14.16,1.85,35.49-7.2,35.8-1.62-30.89-9.55-35.23-21.5,20.5-29.43,16.17,5.64-29.17-2.29-33.5-30,18.82-34.74,11.1,25.94-17,25.64-26.19-28.58-8.28-28.87-17.47,28-10.09,27.69-19.28-31.54-16.33-27.28-24.48,27.77,13.63,35.41,8.77-7.56-28.73.07-33.59,22.83,19,30.47,14.16-1.85-35.49,7.19-35.79,1.63,30.89,9.56,35.22,21.5-20.5,29.43-16.16-5.64,29.16,2.29,33.5,30-18.83,34.74-11.11-25.94,17-25.64,26.19,28.58,8.28,28.87,17.46-30.33,17.1-26.14,25.28C1302.48,560.06,1325.74,557.26,1321.49,565.42Z" transform="translate(112.67 0.07)"/><path d="M1283.41,565.34c-4.19,8-27.77-13.63-35.41-8.77s7.56,28.73-.08,33.59-22.82-19-30.46-14.16,1.85,35.49-7.2,35.79-1.62-30.89-9.55-35.22-21.5,20.5-29.43,16.17,5.64-29.17-2.29-33.5-30,18.82-34.74,11.1,25.94-17,25.64-26.19-28.57-8.23-28.87-17.47,28-10.1,27.69-19.29-31.54-16.32-27.28-24.47,27.77,13.63,35.41,8.77-7.56-28.73.07-33.59,22.83,19,30.47,14.16-1.85-35.49,7.19-35.8,1.63,30.89,9.56,35.23,21.5-20.5,29.43-16.17-5.64,29.17,2.29,33.5,30-18.82,34.74-11.1-25.94,17-25.64,26.19,28.58,8.28,28.87,17.46-30.33,17.09-26.14,25.28C1264.4,560,1287.67,557.19,1283.41,565.34Z" transform="translate(112.67 0.07)"/><ellipse class="cls-11" cx="1280.73" cy="684.56" rx="10.14" ry="40.95" transform="translate(31.44 180.7) rotate(-7.82)"/><ellipse class="cls-11" cx="1340.01" cy="553.67" rx="69.67" ry="70.6"/><ellipse class="cls-11" cx="1398.28" cy="724.28" rx="5.04" ry="19.91"/><ellipse class="cls-11" cx="1399.21" cy="745.17" rx="8.56" ry="8.75"/><ellipse class="cls-22" cx="1316.03" cy="894.23" rx="7.57" ry="22.34"/><ellipse class="cls-22" cx="1364.57" cy="892.18" rx="5.85" ry="18.84"/><rect class="cls-23" x="1359.85" y="901.99" width="10.01" height="16.3" rx="2.6"/><rect class="cls-24" x="1359.71" y="909.44" width="20.71" height="10.39" rx="2.6"/><rect class="cls-23" x="1309.96" y="904.47" width="11.64" height="20.68" rx="2.6"/><rect class="cls-24" x="1298.75" y="914.39" width="23.71" height="12.07" rx="2.6"/><ellipse class="cls-25" cx="1313.6" cy="552.58" rx="6.14" ry="8.76"/><ellipse class="cls-25" cx="1346.44" cy="552.87" rx="6.71" ry="9.93"/><ellipse class="cls-26" cx="1342.72" cy="650.99" rx="41.46" ry="26.57"/><path class="cls-27" d="M1204.32,669.52a4.31,4.31,0,0,0,8.61,0V632.59a4.31,4.31,0,1,0-8.61-.41v37.34Z" transform="translate(112.67 0.07)"/><ellipse class="cls-26" cx="1272.71" cy="655.45" rx="11.9" ry="19.86" transform="translate(52.88 1178.84) rotate(-48.69)"/><path class="cls-27" d="M1245.16,671.11a3.88,3.88,0,0,0,7.76,0h0V631.28a3.88,3.88,0,0,0-7.76,0Z" transform="translate(112.67 0.07)"/><ellipse cx="1339.87" cy="502.64" rx="61.1" ry="26.72"/><ellipse cx="1173.7" cy="516.75" rx="30.85" ry="12.67" transform="translate(168.75 1145.73) rotate(-53.13)"/><ellipse cx="1280.63" cy="521.25" rx="8.68" ry="30.85" transform="translate(54.83 868.03) rotate(-36.67)"/><ellipse class="cls-28" cx="1361.85" cy="669.53" rx="3.71" ry="3.8"/><ellipse class="cls-29" cx="1361.85" cy="669.82" rx="0.86" ry="0.88"/><ellipse class="cls-28" cx="1321.31" cy="668.21" rx="3.43" ry="3.36"/><ellipse class="cls-29" cx="1321.31" cy="668.8" rx="0.57" ry="0.73"/><path class="cls-30" d="M1198,715.92l15,.6c-.13,20.74-6.88,37.62-15,37.62s-15-17.25-15-38.22Z" transform="translate(112.67 0.07)"/><ellipse class="cls-26" cx="1182.84" cy="655.28" rx="19.1" ry="12.26" transform="translate(153.21 1378.99) rotate(-61.34)"/><ellipse class="cls-11" cx="1278.26" cy="746.89" rx="8.56" ry="8.75"/></g><g id="goodcow"><ellipse class="cls-14" cx="612.75" cy="575.87" rx="2.2" ry="5.86" transform="translate(28.35 1046.24) rotate(-77.23)"/><ellipse class="cls-14" cx="579.74" cy="576.35" rx="4.86" ry="2.16" transform="translate(-72.59 288.24) rotate(-24.19)"/><path class="cls-15" d="M637.23,648.71a.89.89,0,0,0,1.78,0v-7.38a.89.89,0,0,0-1.78,0Z" transform="translate(112.67 0.07)"/><path class="cls-15" d="M635.21,647.86a.89.89,0,0,0,1.78,0v-7.37a.89.89,0,0,0-1.78,0Z" transform="translate(112.67 0.07)"/><path class="cls-15" d="M632.44,648.17a1.14,1.14,0,0,0,2.28,0V641.3a1.14,1.14,0,0,0-2.28,0h0Z" transform="translate(112.67 0.07)"/><ellipse class="cls-15" cx="749.21" cy="641.58" rx="4.98" ry="5.56"/><path class="cls-6" d="M605.91,653.06a3,3,0,0,0,5.93,0V637.77a3,3,0,1,0-5.93-.91,2.78,2.78,0,0,0,0,.91Z" transform="translate(112.67 0.07)"/><path class="cls-14" d="M606.81,654.33a1.86,1.86,0,0,0,1.87,1.87h2a1.88,1.88,0,1,0,.27-3.75h-2.27A1.88,1.88,0,0,0,606.81,654.33Z" transform="translate(112.67 0.07)"/><path class="cls-6" d="M602.51,657.92a3.71,3.71,0,1,0,7.42,0V634.49a3.71,3.71,0,0,0-7.42,0Z" transform="translate(112.67 0.07)"/><path class="cls-14" d="M602,660a2.6,2.6,0,0,0,2.61,2.61h3.32a2.62,2.62,0,0,0,0-5.23h-3.31A2.62,2.62,0,0,0,602,660Z" transform="translate(112.67 0.07)"/><path class="cls-6" d="M644.1,653.56a2.46,2.46,0,0,0,4.92,0v-13a2.46,2.46,0,0,0-4.92,0h0Z" transform="translate(112.67 0.07)"/><path class="cls-14" d="M644.82,654.66a1.51,1.51,0,0,0,1.5,1.51h1.5a1.51,1.51,0,0,0,0-3h-1.49a1.5,1.5,0,0,0-1.5,1.5Z" transform="translate(112.67 0.07)"/><path class="cls-6" d="M639.58,660.66a3.34,3.34,0,1,0,6.67.37V641.41a3.34,3.34,0,0,0-6.67-.36,2.16,2.16,0,0,0,0,.36Z" transform="translate(112.67 0.07)"/><ellipse class="cls-6" cx="674.68" cy="617.99" rx="3.09" ry="19.37" transform="translate(-109.44 436.77) rotate(-31.06)"/><ellipse class="cls-6" cx="746.38" cy="617.01" rx="40.22" ry="26.47"/><path class="cls-6" d="M582.43,588a13.33,13.33,0,0,0,26.65,0V574.35a13.33,13.33,0,0,0-26.65,0Z" transform="translate(112.67 0.07)"/><path class="cls-31" d="M577.33,599.2a11.9,11.9,0,0,0,11.93,11.91H603a11.92,11.92,0,1,0,.69-23.83H589.33a11.92,11.92,0,0,0-12,11.84Z" transform="translate(112.67 0.07)"/><ellipse class="cls-6" cx="713.25" cy="596.28" rx="1.74" ry="4.82"/><ellipse class="cls-6" cx="705.27" cy="595.55" rx="2.27" ry="5.42"/><path class="cls-14" d="M638.67,663.58a2.6,2.6,0,0,0,2.61,2.61h3.31a2.61,2.61,0,0,0,0-5.22h-3.27a2.61,2.61,0,0,0-2.61,2.61Z" transform="translate(112.67 0.07)"/><ellipse cx="703.38" cy="573.65" rx="2.4" ry="2.67"/><ellipse cx="712.27" cy="573.72" rx="2.08" ry="2.32"/><ellipse class="cls-6" cx="683.92" cy="633.23" rx="3.35" ry="4.92" transform="translate(-131.92 552.13) rotate(-37.8)"/><ellipse class="cls-32" cx="601.93" cy="606.54" rx="1.14" ry="1.94" transform="translate(-113.34 395.14) rotate(-30.89)"/><path class="cls-33" d="M603.33,603.14a8.46,8.46,0,0,1-4.42,2.71,12.52,12.52,0,0,1-10.33-2.09" transform="translate(112.67 0.07)"/><ellipse class="cls-16" cx="653.31" cy="615.46" rx="8.61" ry="4.85" transform="translate(-127.06 705.43) rotate(-49.04)"/><ellipse class="cls-16" cx="630.19" cy="598.94" rx="4.88" ry="8.39" transform="translate(-122.37 684.1) rotate(-49.16)"/><ellipse class="cls-16" cx="623.78" cy="625.11" rx="3.99" ry="9.48" transform="translate(42.73 1171.65) rotate(-83.29)"/></g><g id="goodcow-2"><ellipse class="cls-14" cx="448.73" cy="620.8" rx="2.55" ry="6.8" transform="translate(-143.23 921.28) rotate(-77.23)"/><ellipse class="cls-14" cx="409.66" cy="619.91" rx="5.63" ry="2.51" transform="translate(-105.82 223.07) rotate(-24.25)"/><path class="cls-15" d="M477.12,705.31a1,1,0,1,0,2.07,0v-8.56a1,1,0,0,0-2.07,0Z" transform="translate(112.67 0.07)"/><path class="cls-15" d="M474.78,704.33a1,1,0,1,0,2.06,0v-8.56a1,1,0,0,0-2.06,0Z" transform="translate(112.67 0.07)"/><path class="cls-15" d="M471.56,704.69a1.33,1.33,0,0,0,2.65,0v-8a1.33,1.33,0,0,0-2.65,0Z" transform="translate(112.67 0.07)"/><ellipse class="cls-15" cx="588.99" cy="697.03" rx="5.78" ry="6.45"/><path class="cls-6" d="M440.78,710.36a3.44,3.44,0,1,0,6.88,0V692.61a3.44,3.44,0,1,0-6.88,0h0Z" transform="translate(112.67 0.07)"/><path class="cls-14" d="M441.82,711.83A2.18,2.18,0,0,0,444,714h2.33a2.17,2.17,0,0,0,0-4.34h-2.28a2.18,2.18,0,0,0-2.18,2.17Z" transform="translate(112.67 0.07)"/><path class="cls-6" d="M436.83,716a4.31,4.31,0,0,0,8.62,0v-27.2a4.31,4.31,0,0,0-8.62,0Z" transform="translate(112.67 0.07)"/><path class="cls-14" d="M436.19,718.41a3,3,0,0,0,3,3H443a3,3,0,1,0,0-6.06h-3.84a3,3,0,0,0-3,3Z" transform="translate(112.67 0.07)"/><path class="cls-6" d="M485.1,710.92a2.85,2.85,0,0,0,5.7,0V695.86a2.85,2.85,0,1,0-5.7,0h0Z" transform="translate(112.67 0.07)"/><path class="cls-14" d="M485.93,712.22a1.74,1.74,0,0,0,1.74,1.74h1.74a1.74,1.74,0,0,0,0-3.48h-1.74A1.74,1.74,0,0,0,485.93,712.22Z" transform="translate(112.67 0.07)"/><path class="cls-6" d="M479.84,719.18a3.87,3.87,0,0,0,7.74,0V696.84a3.87,3.87,0,0,0-7.74,0Z" transform="translate(112.67 0.07)"/><ellipse class="cls-6" cx="520.58" cy="669.65" rx="3.58" ry="22.47" transform="translate(-158.19 364.66) rotate(-31.06)"/><ellipse class="cls-6" cx="585.7" cy="668.52" rx="46.67" ry="30.71"/><path class="cls-6" d="M413.53,634.92a15.47,15.47,0,0,0,30.93,0V619a15.47,15.47,0,0,0-30.93,0Z" transform="translate(112.67 0.07)"/><path class="cls-31" d="M407.65,647.86a13.81,13.81,0,0,0,13.82,13.82h15.86a13.82,13.82,0,1,0,0-27.64H421.48A13.83,13.83,0,0,0,407.65,647.86Z" transform="translate(112.67 0.07)"/><ellipse class="cls-6" cx="547.26" cy="644.47" rx="2.01" ry="5.6"/><ellipse class="cls-6" cx="538.01" cy="643.61" rx="2.63" ry="6.29"/><path class="cls-14" d="M478.79,722.56a3,3,0,0,0,3,3h3.84a3,3,0,0,0,0-6.07h-3.84a3,3,0,0,0-3,3Z" transform="translate(112.67 0.07)"/><ellipse cx="535.82" cy="618.21" rx="2.78" ry="3.1"/><ellipse cx="546.13" cy="618.29" rx="2.41" ry="2.7"/><ellipse class="cls-6" cx="531.3" cy="687.34" rx="3.88" ry="5.71" transform="translate(-197.12 469.95) rotate(-37.8)"/><ellipse class="cls-32" cx="436.17" cy="656.38" rx="1.32" ry="2.25" transform="translate(-162.44 317.1) rotate(-30.89)"/><path class="cls-34" d="M437.78,652.43a9.75,9.75,0,0,1-5.14,3.15,14.55,14.55,0,0,1-12-2.42" transform="translate(112.67 0.07)"/><ellipse class="cls-16" cx="495.78" cy="666.73" rx="9.99" ry="5.63" transform="translate(-220.04 604.13) rotate(-49.04)"/><ellipse class="cls-16" cx="469.33" cy="643.37" rx="5.67" ry="9.74" transform="translate(-211.98 581.95) rotate(-49.46)"/><ellipse class="cls-16" cx="461.51" cy="677.93" rx="4.63" ry="11" transform="translate(-153.04 1057.14) rotate(-83.29)"/></g><g id="goodcow-3"><ellipse class="cls-14" cx="778.8" cy="611.5" rx="2.11" ry="5.63" transform="translate(122.95 1235.95) rotate(-77.23)"/><ellipse class="cls-14" cx="747.13" cy="611.95" rx="4.66" ry="2.07" transform="translate(-72.48 359.95) rotate(-24.19)"/><path class="cls-15" d="M802.32,681.39a.85.85,0,1,0,1.7,0h0v-7.07a.85.85,0,0,0-1.7,0Z" transform="translate(112.67 0.07)"/><path class="cls-15" d="M800.32,680.58a.86.86,0,0,0,1.71,0v-7.07a.85.85,0,0,0-.76-.94.87.87,0,0,0-.95.76v7.25Z" transform="translate(112.67 0.07)"/><path class="cls-15" d="M797.7,680.92a1.1,1.1,0,0,0,2.19,0v-6.59a1.1,1.1,0,0,0-1-1.2,1.11,1.11,0,0,0-1.2,1v6.8Z" transform="translate(112.67 0.07)"/><ellipse class="cls-15" cx="914.31" cy="674.56" rx="4.78" ry="5.34"/><path class="cls-6" d="M772.25,685.56a2.84,2.84,0,1,0,5.68,0h0V670.92a2.84,2.84,0,0,0-5.68,0Z" transform="translate(112.67 0.07)"/><path class="cls-14" d="M773.11,686.78a1.79,1.79,0,0,0,1.78,1.8h1.9a1.8,1.8,0,0,0,.27-3.59H774.9a1.8,1.8,0,0,0-1.79,1.79Z" transform="translate(112.67 0.07)"/><path class="cls-6" d="M769,690.25a3.57,3.57,0,0,0,7.13,0v-22.5a3.57,3.57,0,0,0-7.13,0Z" transform="translate(112.67 0.07)"/><path class="cls-14" d="M768.45,692.22a2.5,2.5,0,0,0,2.49,2.51h3.19a2.5,2.5,0,0,0,2.73-2.27,2.53,2.53,0,0,0-2.28-2.73H771a2.5,2.5,0,0,0-2.5,2.5Z" transform="translate(112.67 0.07)"/><path class="cls-6" d="M808.89,686.05a2.36,2.36,0,1,0,4.72,0V673.57a2.36,2.36,0,0,0-4.72,0h0Z" transform="translate(112.67 0.07)"/><path class="cls-14" d="M809.58,687.11a1.45,1.45,0,0,0,1.44,1.44h1.44a1.44,1.44,0,0,0,1.33-1.56,1.46,1.46,0,0,0-1.33-1.33H811A1.46,1.46,0,0,0,809.58,687.11Z" transform="translate(112.67 0.07)"/><path class="cls-6" d="M804.55,692.86a3.2,3.2,0,1,0,6.4,0V674.39a3.2,3.2,0,0,0-6.4,0h0Z" transform="translate(112.67 0.07)"/><ellipse class="cls-6" cx="838.25" cy="651.93" rx="2.96" ry="18.58" transform="translate(-103.5 526.02) rotate(-31.06)"/><ellipse class="cls-6" cx="911.59" cy="650.98" rx="38.59" ry="25.39"/><path class="cls-6" d="M749.71,623.14a12.79,12.79,0,0,0,25.58,0V610.05a12.79,12.79,0,0,0-25.58,0Z" transform="translate(112.67 0.07)"/><path class="cls-31" d="M744.86,633.92a11.43,11.43,0,0,0,11.46,11.4h13.1a11.44,11.44,0,0,0,0-22.87h-13.1a11.42,11.42,0,0,0-11.46,11.39A.11.11,0,0,0,744.86,633.92Z" transform="translate(112.67 0.07)"/><ellipse class="cls-6" cx="879.8" cy="631.09" rx="1.67" ry="4.63"/><ellipse class="cls-6" cx="872.15" cy="630.38" rx="2.18" ry="5.2"/><path class="cls-14" d="M803.67,695.66a2.52,2.52,0,0,0,2.51,2.51h3.14a2.51,2.51,0,0,0,0-5h-3.18a2.53,2.53,0,0,0-2.51,2.51Z" transform="translate(112.67 0.07)"/><ellipse cx="870.33" cy="609.38" rx="2.3" ry="2.57"/><ellipse cx="878.86" cy="609.45" rx="2" ry="2.23"/><ellipse class="cls-6" cx="847.11" cy="666.54" rx="3.21" ry="4.72" transform="translate(-118.09 659.14) rotate(-37.8)"/><ellipse class="cls-32" cx="768.45" cy="640.96" rx="1.09" ry="1.86" transform="translate(-107.39 485.5) rotate(-30.89)"/><path class="cls-35" d="M769.76,637.67a7.94,7.94,0,0,1-4.25,2.6,12,12,0,0,1-9.9-2" transform="translate(112.67 0.07)"/><ellipse class="cls-16" cx="817.73" cy="649.48" rx="8.26" ry="4.66" transform="translate(-96.11 841.32) rotate(-49.04)"/><ellipse class="cls-16" cx="795.56" cy="633.65" rx="4.68" ry="8.05" transform="translate(-91.41 821.22) rotate(-49.16)"/><ellipse class="cls-16" cx="789.41" cy="658.76" rx="3.83" ry="9.1" transform="translate(155.6 1365.86) rotate(-83.29)"/></g><g id="goodcow-4"><ellipse class="cls-14" cx="719.7" cy="689.8" rx="2.55" ry="6.8" transform="translate(0.56 1239.3) rotate(-77.23)"/><ellipse class="cls-14" cx="681.41" cy="690.35" rx="5.64" ry="2.51" transform="translate(-110.38 339.91) rotate(-24.19)"/><path class="cls-15" d="M748.11,774.31a1,1,0,1,0,2.07,0v-8.56a1,1,0,0,0-2.07,0Z" transform="translate(112.67 0.07)"/><path class="cls-15" d="M745.78,773.33a1,1,0,1,0,2.05,0v-8.56a1,1,0,1,0-2.05,0Z" transform="translate(112.67 0.07)"/><path class="cls-15" d="M742.55,773.69a1.34,1.34,0,0,0,2.66,0v-8a1.34,1.34,0,0,0-2.66,0Z" transform="translate(112.67 0.07)"/><ellipse class="cls-15" cx="859.98" cy="766.03" rx="5.78" ry="6.45"/><path class="cls-6" d="M711.78,779.36a3.44,3.44,0,1,0,6.88,0V761.61a3.44,3.44,0,1,0-6.88,0Z" transform="translate(112.67 0.07)"/><path class="cls-14" d="M712.82,780.83A2.18,2.18,0,0,0,715,783h2.33a2.17,2.17,0,0,0,0-4.34h-2.28a2.18,2.18,0,0,0-2.18,2.17Z" transform="translate(112.67 0.07)"/><path class="cls-6" d="M707.83,785a4.31,4.31,0,1,0,8.62,0h0v-27.2a4.31,4.31,0,0,0-8.62,0Z" transform="translate(112.67 0.07)"/><path class="cls-14" d="M707.19,787.41a3,3,0,0,0,3,3H714a3,3,0,0,0,0-6.06h-3.84a3,3,0,0,0-3,3Z" transform="translate(112.67 0.07)"/><path class="cls-6" d="M756.09,779.92a2.85,2.85,0,1,0,5.7,0V764.86a2.85,2.85,0,1,0-5.7,0Z" transform="translate(112.67 0.07)"/><path class="cls-14" d="M756.92,781.22a1.74,1.74,0,0,0,1.74,1.74h1.74a1.73,1.73,0,0,0,1.75-1.73,1.75,1.75,0,0,0-1.73-1.75h-1.76A1.74,1.74,0,0,0,756.92,781.22Z" transform="translate(112.67 0.07)"/><path class="cls-6" d="M750.83,788.18a3.87,3.87,0,1,0,7.74,0V765.84a3.87,3.87,0,0,0-7.74,0Z" transform="translate(112.67 0.07)"/><ellipse class="cls-6" cx="797.26" cy="737.93" rx="3.6" ry="22.58" transform="translate(-154.13 519.05) rotate(-31.16)"/><ellipse class="cls-6" cx="856.69" cy="737.52" rx="46.67" ry="30.71"/><path class="cls-6" d="M684.53,703.92a15.47,15.47,0,0,0,30.93,0V688a15.47,15.47,0,0,0-30.93,0Z" transform="translate(112.67 0.07)"/><path class="cls-31" d="M678.65,716.86a13.81,13.81,0,0,0,13.82,13.82h15.86a13.82,13.82,0,0,0,0-27.64H692.48A13.83,13.83,0,0,0,678.65,716.86Z" transform="translate(112.67 0.07)"/><ellipse class="cls-6" cx="818.25" cy="713.47" rx="2.01" ry="5.6"/><ellipse class="cls-6" cx="809" cy="712.61" rx="2.63" ry="6.29"/><path class="cls-14" d="M749.78,791.56a3,3,0,0,0,3,3h3.84a3,3,0,1,0,0-6.07h-3.84a3,3,0,0,0-3,3Z" transform="translate(112.67 0.07)"/><ellipse cx="806.81" cy="687.21" rx="2.78" ry="3.1"/><ellipse cx="817.12" cy="687.29" rx="2.41" ry="2.7"/><ellipse class="cls-6" cx="802.3" cy="756.35" rx="3.88" ry="5.71" transform="translate(-182.54 650.52) rotate(-37.8)"/><ellipse class="cls-32" cx="707.17" cy="725.39" rx="1.32" ry="2.25" transform="translate(-159.43 466.02) rotate(-30.89)"/><path class="cls-34" d="M708.78,721.43a9.78,9.78,0,0,1-5.14,3.15,14.54,14.54,0,0,1-12-2.42" transform="translate(112.67 0.07)"/><ellipse class="cls-16" cx="766.77" cy="735.72" rx="9.99" ry="5.63" transform="translate(-178.79 832.55) rotate(-49.04)"/><ellipse class="cls-16" cx="739.97" cy="716.57" rx="5.67" ry="9.74" transform="translate(-173.38 807.85) rotate(-49.16)"/><ellipse class="cls-16" cx="732.52" cy="746.94" rx="4.63" ry="11" transform="translate(17.77 1387.24) rotate(-83.29)"/></g><g id="goodcow-5"><ellipse class="cls-14" cx="576.11" cy="684.54" rx="2.42" ry="6.46" transform="translate(-106.17 1095.17) rotate(-77.23)"/><ellipse class="cls-14" cx="539.74" cy="685.07" rx="5.35" ry="2.38" transform="translate(-120.66 281.39) rotate(-24.19)"/><path class="cls-15" d="M603.09,764.79a1,1,0,0,0,2,0v-8.12a1,1,0,0,0-2,0Z" transform="translate(112.67 0.07)"/><path class="cls-15" d="M600.87,763.86a1,1,0,0,0,2,0v-8.12a1,1,0,0,0-2,0Z" transform="translate(112.67 0.07)"/><path class="cls-15" d="M597.81,764.2a1.26,1.26,0,1,0,2.52,0v-7.56a1.26,1.26,0,1,0-2.52,0Z" transform="translate(112.67 0.07)"/><ellipse class="cls-15" cx="715.01" cy="756.93" rx="5.49" ry="6.13"/><path class="cls-6" d="M568.59,769.58a3.27,3.27,0,1,0,6.53.36v-17.2a3.27,3.27,0,0,0-6.53-.36,2.16,2.16,0,0,0,0,.36Z" transform="translate(112.67 0.07)"/><path class="cls-14" d="M569.57,771a2.06,2.06,0,0,0,2.07,2.07h2.17a2.07,2.07,0,0,0,0-4.13h-2.17A2.07,2.07,0,0,0,569.57,771Z" transform="translate(112.67 0.07)"/><path class="cls-6" d="M564.84,774.92a4.09,4.09,0,1,0,8.18,0h0V749.13a4.09,4.09,0,0,0-8.18,0h0Z" transform="translate(112.67 0.07)"/><path class="cls-14" d="M564.22,777.23a2.88,2.88,0,0,0,2.88,2.88h3.65a2.88,2.88,0,0,0,0-5.76H567.1a2.88,2.88,0,0,0-2.88,2.88Z" transform="translate(112.67 0.07)"/><path class="cls-6" d="M610.66,770.14a2.71,2.71,0,0,0,5.42,0V755.81a2.71,2.71,0,0,0-5.42,0Z" transform="translate(112.67 0.07)"/><path class="cls-14" d="M611.45,771.35a1.66,1.66,0,0,0,1.66,1.66h1.65a1.66,1.66,0,0,0,0-3.31h-1.65A1.65,1.65,0,0,0,611.45,771.35Z" transform="translate(112.67 0.07)"/><path class="cls-6" d="M605.68,777.92a3.67,3.67,0,1,0,7.34,0V756.75a3.67,3.67,0,1,0-7.34,0Z" transform="translate(112.67 0.07)"/><ellipse class="cls-6" cx="644.35" cy="730.94" rx="3.4" ry="21.34" transform="translate(-172.06 437.31) rotate(-31.06)"/><ellipse class="cls-6" cx="711.88" cy="729.87" rx="44.31" ry="29.16"/><path class="cls-6" d="M542.71,697.92a14.69,14.69,0,1,0,29.37.77V682.92a14.69,14.69,0,0,0-29.37,0Z" transform="translate(112.67 0.07)"/><path class="cls-31" d="M537.13,710.24a13.12,13.12,0,0,0,13.13,13.13h15.07a13.13,13.13,0,0,0,0-26.25H550.26a13.12,13.12,0,0,0-13.13,13.11Z" transform="translate(112.67 0.07)"/><ellipse class="cls-6" cx="675.38" cy="707.03" rx="1.91" ry="5.31"/><ellipse class="cls-6" cx="666.59" cy="706.21" rx="2.5" ry="5.97"/><path class="cls-14" d="M604.67,781.18a2.86,2.86,0,0,0,2.87,2.87h3.66a2.88,2.88,0,0,0,.34-5.75h-4a2.88,2.88,0,0,0-2.88,2.88Z" transform="translate(112.67 0.07)"/><ellipse cx="664.51" cy="682.09" rx="2.64" ry="2.95"/><ellipse cx="674.3" cy="682.17" rx="2.29" ry="2.56"/><ellipse class="cls-6" cx="654.54" cy="747.74" rx="3.69" ry="5.42" transform="translate(-208.27 558.15) rotate(-37.8)"/><ellipse class="cls-32" cx="564.2" cy="718.34" rx="1.25" ry="2.13" transform="translate(-176.09 391.62) rotate(-30.89)"/><path class="cls-36" d="M565.73,714.59a9.3,9.3,0,0,1-4.87,3,13.82,13.82,0,0,1-11.38-2.3" transform="translate(112.67 0.07)"/><ellipse class="cls-16" cx="620.81" cy="728.15" rx="9.49" ry="5.35" transform="translate(-223.35 719.71) rotate(-49.04)"/><ellipse class="cls-16" cx="595.35" cy="709.96" rx="5.38" ry="9.25" transform="translate(-218.42 696.15) rotate(-49.16)"/><ellipse class="cls-16" cx="588.27" cy="738.8" rx="4.39" ry="10.45" transform="translate(-101.54 1236.79) rotate(-83.29)"/></g><ellipse class="cls-37" cx="1330.13" cy="597.68" rx="12" ry="9.5"/></g></g></svg>