<svg id="Layer_1" data-name="Layer 1" xmlns="http://www.w3.org/2000/svg" xmlns:xlink="http://www.w3.org/1999/xlink" width="780.02mm" height="449.91mm" viewBox="0 0 2211.08 1275.33"><defs><style>.cls-1{fill:url(#linear-gradient);}.cls-2{fill:#96a65d;}.cls-3{fill:#6f8c30;}.cls-4{fill:#387404;}.cls-5{fill:#f2e641;}.cls-6{fill:#fff;}.cls-7{opacity:0.92;}.cls-8{opacity:0.77;}.cls-9{fill:#e1ab85;}.cls-10,.cls-11,.cls-15,.cls-16,.cls-17,.cls-18,.cls-19,.cls-20,.cls-21{fill:#0d0d0d;}.cls-11,.cls-15,.cls-16,.cls-17,.cls-18,.cls-19,.cls-20,.cls-21,.cls-32{stroke:#000;stroke-miterlimit:10;}.cls-11{stroke-width:2.33px;}.cls-12{fill:#736258;}.cls-13{fill:#f2d0e3;}.cls-14{fill:#333;}.cls-15{stroke-width:2.34px;}.cls-16{stroke-width:2.24px;}.cls-17{stroke-width:2.61px;}.cls-18{stroke-width:2.57px;}.cls-19{stroke-width:2.3px;}.cls-20{stroke-width:2.51px;}.cls-21{stroke-width:2.44px;}.cls-22{fill:#10735a;}.cls-23{fill:#a67c52;}.cls-24{fill:#b9121b;}.cls-25{fill:#4c1b1b;}.cls-26{fill:#8c6239;}.cls-27{fill:#be393a;}.cls-28{fill:#4d4d4d;}.cls-29{fill:#b88d1e;}.cls-30{fill:#8c8c80;}.cls-31{fill:#104639;}.cls-32{fill:none;stroke-width:0.87px;}.cls-33{fill:#754c24;}.cls-34{fill:url(#linear-gradient-2);}</style><linearGradient id="linear-gradient" x1="107.93" y1="-90.15" x2="2296.9" y2="1537.06" gradientTransform="matrix(1, 0, 0, -1, 114, 1084)" gradientUnits="userSpaceOnUse"><stop offset="0" stop-color="#4cacf7"/><stop offset="1" stop-color="#fff"/></linearGradient><linearGradient id="linear-gradient-2" x1="-58.72" y1="293.81" x2="1898.89" y2="293.81" gradientTransform="matrix(1.01, 0.04, 0.03, -1.15, 37.97, 1209.05)" gradientUnits="userSpaceOnUse"><stop offset="0" stop-color="#8c6239"/><stop offset="0.49" stop-color="#724922"/><stop offset="0.55" stop-color="#6f4721"/><stop offset="1" stop-color="#42210b"/></linearGradient></defs><g id="Layer_1-2" data-name="Layer 1"><g id="bg9"><rect class="cls-1" x="115.5" width="1919" height="1080"/><ellipse class="cls-2" cx="1627.05" cy="802.29" rx="474.96" ry="184.79"/><ellipse class="cls-3" cx="651.5" cy="841.15" rx="575.5" ry="223.91"/><ellipse class="cls-4" cx="1105.54" cy="1039.04" rx="1105.54" ry="236.29"/><path class="cls-5" d="M1889.72,162c0,1.48-84,.9-84.08,2.36s83.59,9.09,83.45,10.54-83.69-7.31-83.91-5.86,82.3,17.22,82,18.66-82.58-15.45-82.94-14,80.25,25.11,79.82,26.52-80.71-23.32-81.2-21.93,77.49,32.62,76.94,34-78.18-30.77-78.79-29.43,74.16,39.61,73.48,40.92-75.08-37.71-75.81-36.43,70.37,46,69.58,47.26-71.54-44.07-72.38-42.86,66.22,51.81,65.33,53-67.65-49.84-68.59-48.71,61.82,57,60.84,58.1-63.5-55-64.53-54,57.24,61.59,56.18,62.61-59.18-59.65-60.28-58.67,52.55,65.64,51.42,66.58-54.74-63.76-55.91-62.86,47.8,69.17,46.61,70-50.21-67.38-51.44-66.56,43,72.25,41.76,73-45.62-70.57-46.9-69.83,38.2,74.9,36.9,75.59-41-73.35-42.32-72.7,33.4,77.17,32,77.78-36.35-75.77-37.71-75.2,28.6,79.07,27.22,79.6-31.71-77.83-33.1-77.34,23.83,80.64,22.42,81.08-27-79.56-28.47-79.16S1766.45,306,1765,306.35s-22.41-81-23.85-80.68,14.36,82.85,12.91,83.13-17.78-82.14-19.24-81.9,9.68,83.53,8.21,83.73-13.17-83-14.63-82.84,5,83.93,3.56,84-8.59-83.61-10.07-83.53.46,84.09-1,84.13-4.06-83.95-5.53-83.95-4.08,84-5.54,83.95.44-84-1-84.13-8.61,83.65-10.07,83.53,5-83.9,3.57-84-13.19,83-14.64,82.84,9.65-83.49,8.21-83.73-17.8,82.18-19.24,81.9,14.35-82.8,12.89-83.13-22.43,81-23.85,80.68,19-81.86,17.64-82.26-27.08,79.61-28.47,79.16,23.8-80.6,22.42-81.08-31.74,77.86-33.1,77.34,28.57-79,27.22-79.6-36.38,75.8-37.72,75.2,33.37-77.13,32.06-77.78-41,73.39-42.32,72.7,38.17-74.86,36.9-75.6-45.66,70.61-46.9,69.84,43-72.21,41.76-73-50.25,67.42-51.44,66.57,47.76-69.14,46.6-70-54.78,63.79-55.91,62.85,52.52-65.6,51.43-66.57-59.24,59.68-60.29,58.66,57.2-61.55,56.18-62.6-63.56,55-64.53,53.95,61.78-57,60.84-58.13-67.7,49.86-68.59,48.69,66.17-51.77,65.34-53-71.6,44.1-72.39,42.86,70.32-46,69.59-47.26-75.14,37.73-75.82,36.43,74.11-39.59,73.49-40.92-78.24,30.79-78.79,29.43,77.43-32.59,76.94-34-80.78,23.34-81.2,21.93,80.17-25.09,79.82-26.52-82.65,15.46-82.94,14,82.23-17.19,82-18.65-83.76,7.33-83.91,5.86,83.52-9.06,83.45-10.54-84-.83-84-2.31,84-.9,84.08-2.36-83.59-9.09-83.45-10.54,83.69,7.31,83.91,5.86-82.3-17.22-82-18.66,82.58,15.45,82.94,14-80.25-25.11-79.82-26.52,80.71,23.32,81.2,21.93-77.49-32.62-76.94-34,78.18,30.77,78.79,29.43-74.16-39.61-73.48-40.92,75,37.78,75.77,36.47-70.37-46-69.58-47.26,71.54,44.07,72.38,42.86-66.22-51.81-65.33-53,67.65,49.84,68.59,48.71-61.82-57-60.84-58.1,63.5,55,64.53,54-57.24-61.59-56.18-62.61,59.18,59.65,60.28,58.67-52.55-65.64-51.42-66.58,54.74,63.76,55.91,62.86-47.8-69.17-46.61-70,50.21,67.38,51.44,66.56-43-72.25-41.76-73,45.62,70.57,46.9,69.83-38.2-74.9-36.9-75.59,41,73.35,42.32,72.7-33.4-77.17-32-77.78,36.35,75.77,37.71,75.2-28.6-79.07-27.22-79.6,31.71,77.83,33.1,77.34-23.83-80.64-22.42-81.08,27,79.56,28.47,79.16-19.11-82-17.68-82.33,22.41,81,23.85,80.68-14.36-82.85-12.91-83.13,17.78,82.14,19.24,81.9-9.68-83.53-8.21-83.73,13.17,83,14.63,82.84-5-83.93-3.56-84,8.59,83.61,10.07,83.53-.46-84.09,1-84.13,4.06,84,5.54,84,4.07-84,5.53-83.95-.44,84.05,1,84.13S1730.52,12,1732,12.16s-5,83.9-3.57,84.05,13.19-83,14.64-82.84-9.65,83.49-8.21,83.73,17.8-82.18,19.24-81.9-14.36,82.8-12.93,83.13,22.43-81,23.85-80.68-19,81.86-17.64,82.26,27.08-79.61,28.47-79.16-23.8,80.6-22.42,81.08,31.74-77.86,33.1-77.34-28.57,79-27.22,79.6,36.38-75.8,37.72-75.2-33.37,77.11-32,77.78,41-73.39,42.32-72.7-38.17,74.86-36.9,75.6,45.66-70.61,46.9-69.84-43,72.21-41.76,73,50.25-67.42,51.44-66.57-47.76,69.14-46.6,70,54.78-63.79,55.91-62.85-52.52,65.6-51.43,66.57,59.24-59.68,60.29-58.66-57.2,61.55-56.18,62.6,63.56-55,64.53-53.95-61.77,56.95-60.84,58.08,67.7-49.86,68.59-48.69-66.17,51.77-65.34,53,71.6-44.1,72.39-42.86-70.32,46-69.59,47.26,75.14-37.73,75.82-36.43-74.11,39.59-73.49,40.92,78.24-30.79,78.79-29.43-77.43,32.59-76.94,34,80.78-23.34,81.2-21.93-80.17,25.09-79.82,26.52,82.65-15.46,82.94-14-82.23,17.19-82,18.65,83.76-7.33,83.91-5.86-83.52,9.06-83.45,10.54S1889.72,160.52,1889.72,162Z" transform="translate(114)"/><circle class="cls-6" cx="1782.59" cy="130.67" r="5.14"/><circle class="cls-6" cx="1845.26" cy="134.41" r="5.14"/><path class="cls-6" d="M1702.75,192.18l-11.3,3V195c-1.19-4.69,3-9.84,9.19-11.41s12.32,1,13.5,5.7c.81,3.23-.87,6.81-4.34,9.22Z" transform="translate(114)"/><g id="cloud1" class="cls-7"><ellipse class="cls-6" cx="270.5" cy="155.5" rx="88.5" ry="70"/><ellipse class="cls-6" cx="359.5" cy="127" rx="66.5" ry="58.5"/><ellipse class="cls-6" cx="331.5" cy="234.5" rx="85.5" ry="67"/><ellipse class="cls-6" cx="110.01" cy="257.49" rx="55" ry="105" transform="translate(-50.18 200.68) rotate(-55.16)"/></g><g id="cloud2"><ellipse class="cls-6" cx="838.5" cy="162.61" rx="96.5" ry="79.11"/><ellipse class="cls-6" cx="922" cy="185.5" rx="83" ry="56"/><ellipse class="cls-6" cx="809.5" cy="256" rx="96.5" ry="43.5"/><ellipse class="cls-6" cx="1003.5" cy="250" rx="121.5" ry="49.5"/><ellipse class="cls-6" cx="958" cy="163" rx="67" ry="49.5"/></g><g id="cloud3" class="cls-8"><ellipse class="cls-6" cx="1373.5" cy="135.5" rx="108.5" ry="64"/><ellipse class="cls-6" cx="1512.5" cy="185.5" rx="74.5" ry="60"/><ellipse class="cls-6" cx="1398.5" cy="208.5" rx="73.5" ry="46"/></g><g id="DEVILCOWSBAD"><ellipse class="cls-9" cx="1343.21" cy="551.3" rx="9.34" ry="9.55"/><g id="devilcow"><polygon class="cls-10" points="1277.74 317.12 1279.36 315.71 1278.88 313.61 1276.79 312.93 1275.16 314.34 1275.64 316.43 1277.74 317.12"/><polygon class="cls-11" points="1270.85 326.14 1273.1 324.02 1272.64 320.96 1269.93 320.01 1267.67 322.13 1268.13 325.19 1270.85 326.14"/><polygon class="cls-10" points="1227.92 303.87 1230.36 301.63 1229.71 298.38 1226.62 297.37 1224.17 299.6 1224.82 302.85 1227.92 303.87"/><polygon class="cls-11" points="1220.54 314.11 1222.98 311.87 1222.33 308.62 1219.23 307.61 1216.79 309.85 1217.44 313.1 1220.54 314.11"/><polygon class="cls-6" points="1328.59 290.68 1322.53 292.03 1314.48 251.76 1320.54 250.41 1328.59 290.68"/><rect class="cls-6" x="1104.54" y="285.23" width="27.82" height="4.71" transform="translate(611.45 1261.23) rotate(-71.89)"/><rect class="cls-6" x="1092.46" y="288.87" width="38.81" height="6.58" transform="translate(602.57 1258.13) rotate(-71.89)"/><rect class="cls-6" x="1144.98" y="304.2" width="33.25" height="5.84" transform="translate(622.62 1315.71) rotate(-71.89)"/><rect class="cls-6" x="1155.35" y="301.99" width="24.06" height="3.46" transform="translate(629.84 1318.85) rotate(-71.89)"/><polygon class="cls-12" points="1205.49 187.27 1206.62 189.36 1214.18 185.04 1213.05 182.95 1205.49 187.27"/><polygon class="cls-12" points="1251.45 200.45 1249.57 201.93 1245.11 196 1246.98 194.52 1251.45 200.45"/><polygon class="cls-12" points="1212.06 211.38 1222.92 207.27 1220.16 218.72 1233.81 201.54 1247.3 192.84 1244.88 186.33 1255.97 169.5 1240.83 182.66 1234.19 180.96 1227.26 195.6 1212.06 211.38"/><polygon class="cls-12" points="1238.73 226.08 1229.28 214.85 1221.93 227.83 1221.31 202.02 1212.93 184.57 1221.99 179.85 1224.16 156.08 1230.39 178.97 1240.11 181.73 1234.89 200.6 1238.73 226.08"/><rect class="cls-6" x="1123.17" y="206.91" width="51.65" height="103.7" transform="translate(659.89 1270.4) rotate(-71.89)"/><rect class="cls-6" x="1092.81" y="179.33" width="40.3" height="36.66" transform="translate(693.14 1194.04) rotate(-71.89)"/><rect class="cls-13" x="1090.56" y="204.88" width="28.09" height="45.98" transform="translate(658.67 1206.93) rotate(-71.89)"/><ellipse class="cls-6" cx="1114.19" cy="229.47" rx="6.17" ry="2.04" transform="translate(663.75 1217.13) rotate(-71.89)"/><ellipse class="cls-6" cx="1097.96" cy="224.16" rx="6.17" ry="2.82" transform="translate(657.61 1198.05) rotate(-71.89)"/><ellipse cx="1108.66" cy="188.9" rx="3.97" ry="2.98" transform="translate(698.49 1183.92) rotate(-71.89)"/><ellipse cx="1121.51" cy="194.24" rx="5.05" ry="3.21" transform="translate(702.28 1199.81) rotate(-71.89)"/><polygon points="1227.3 187.16 1221.74 180.84 1222.45 180.19 1228 186.51 1227.3 187.16"/><polygon points="1240.82 186.71 1230.85 188.19 1230.7 187.03 1240.67 185.55 1240.82 186.71"/><polygon class="cls-12" points="1329.89 293.76 1322.59 295.37 1321.44 289.62 1328.74 288 1329.89 293.76"/><path class="cls-14" d="M1142.33,252.78c0,1.12-4.3-4.73-4.3-6.39,0,2.26-7.77.47-7.77,3,0-.37,4.84-9.55,4.84-8,0-.68-2.27-6.74-2.27-6,0-.77,7.28.37,7.28-.37,0,1.65,6.37-1.34,6.37-1.91,0,0-.34,7.89-.34,7.08,0,1.28,6.21,3.7,6.21,3.21,0,1.68-7.49,3.65-7.49,4.27C1144.86,247.08,1142.33,254.18,1142.33,252.78Z" transform="translate(114)"/><path class="cls-14" d="M1158.71,285.8c0-2.68-4.36-6.91-4.36-7.69,0-1.08-6.92,2.16-6.92-.16,0-.17,3.79-3.3,3.79-6.42,0,2.28-2.64-3.48-2.64-4.89,0-.82,6.7,1.37,6.7,2.6,0-.1,5.29-5.49,5.29-5.86,0-.78.35,7.18.35,6.23,0,2,5.91,5.82,5.91,6.74,0-.41-6.48-.45-6.48,1.85C1160.35,277,1158.71,282.44,1158.71,285.8Z" transform="translate(114)"/><path class="cls-14" d="M1177.16,260.41c.4,0,3.72-5.29,2.49-5.29,2.07,0-1.88-5.18-2.52-5.18.89,0,6,.89,7,.89-1.28,0,4.73-4.31,4.52-4.31-.42,0,.2,5.84-.74,5.84.78,0,6.59,2.52,6.6,2.52-1.48,0-6.61,2.72-6.58,2.72,2.09,0,1.17,5.87.41,5.87-1.07,0-3.49-4.17-5.5-4.17C1183.09,259.3,1177.63,260.41,1177.16,260.41Z" transform="translate(114)"/></g><g id="devilcow-2"><polygon class="cls-10" points="1503.83 449.4 1503.81 447.24 1501.9 446.23 1500 447.38 1500.01 449.54 1501.92 450.55 1503.83 449.4"/><polygon class="cls-15" points="1506.19 460.58 1506.05 457.47 1503.41 455.81 1500.91 457.26 1501.05 460.37 1503.69 462.04 1506.19 460.58"/><polygon class="cls-10" points="1461.02 478.74 1460.92 475.41 1458.01 473.77 1455.21 475.47 1455.31 478.81 1458.22 480.44 1461.02 478.74"/><polygon class="cls-15" points="1464 491.1 1463.89 487.76 1460.98 486.13 1458.18 487.83 1458.29 491.16 1461.19 492.8 1464 491.1"/><polygon class="cls-6" points="1517.01 393.23 1514.06 398.74 1478.03 378.47 1480.98 372.96 1517.01 393.23"/><rect class="cls-6" x="1335.17" y="450.54" width="4.75" height="28" transform="matrix(0.86, -0.52, 0.52, 0.86, 66.91, 760.56)"/><rect class="cls-6" x="1333.41" y="453.03" width="6.62" height="39.07" transform="matrix(0.86, -0.52, 0.52, 0.86, 62.64, 761.29)"/><rect class="cls-6" x="1385.22" y="427.44" width="5.9" height="33.64" transform="translate(84.4 782.36) rotate(-31.16)"/><rect class="cls-6" x="1380.22" y="425.65" width="3.48" height="24.22" transform="matrix(0.86, -0.52, 0.52, 0.86, 87.23, 779.7)"/><polygon class="cls-12" points="1357.3 419.37 1359.63 419.88 1361.29 411.27 1358.95 410.77 1357.3 419.37"/><polygon class="cls-12" points="1397.51 392.93 1397.4 395.33 1389.95 394.85 1390.05 392.45 1397.51 392.93"/><polygon class="cls-12" points="1380.01 430.17 1384 419.19 1390.93 428.81 1386.77 407.11 1388.97 391.1 1382.41 388.68 1376.84 369.17 1376.95 389.37 1371.31 393.32 1377.93 408.22 1380.01 430.17"/><polygon class="cls-12" points="1408.73 419.45 1393.95 419.3 1399.05 433.43 1378.93 416.98 1360.11 411.92 1362.45 401.9 1345.73 384.65 1367.29 394.92 1375.77 389.31 1386.76 405.67 1408.73 419.45"/><rect class="cls-6" x="1283.38" y="396.31" width="104.38" height="51.99" transform="matrix(0.86, -0.52, 0.52, 0.86, 88.52, 753.41)"/><rect class="cls-6" x="1246.82" y="389.47" width="36.9" height="40.56" transform="matrix(0.86, -0.52, 0.52, 0.86, 84.85, 715.16)"/><rect class="cls-13" x="1259.69" y="421.88" width="46.29" height="28.28" transform="matrix(0.86, -0.52, 0.52, 0.86, 73.78, 728.07)"/><ellipse class="cls-6" cx="1290.33" cy="429.79" rx="2.05" ry="6.22" transform="matrix(0.86, -0.52, 0.52, 0.86, 78.09, 731.05)"/><ellipse class="cls-6" cx="1275.62" cy="438.71" rx="2.84" ry="6.22" transform="matrix(0.86, -0.52, 0.52, 0.86, 71.34, 724.72)"/><ellipse cx="1255.73" cy="407.4" rx="3" ry="4" transform="matrix(0.86, -0.52, 0.52, 0.86, 84.68, 709.88)"/><ellipse cx="1268.22" cy="401.09" rx="3.23" ry="5.09" transform="translate(89.76 715.44) rotate(-31.22)"/><polygon points="1371.51 402.65 1363.05 402.74 1363.02 401.78 1371.48 401.69 1371.51 402.65"/><polygon points="1380.04 392.04 1374.64 400.61 1373.65 399.97 1379.06 391.39 1380.04 392.04"/><polygon class="cls-12" points="1520.2 394.26 1516.65 400.89 1511.5 398 1515.06 391.36 1520.2 394.26"/><path class="cls-14" d="M1327.81,423.4c0,.74-7.81-1-7.81-1.53,0,1.83-5.12,6.79-5.12,8.84,0-.62-1.62-8.13-1.62-8.17,0-.73-7.25-2.54-7.25-2.42,0-.34,6.82-4.59,6.82-5.42,0,.33.64-6.28.64-8.73a55.07,55.07,0,0,1,5.82,6.3c0,1.39,7.65-3.08,7.65-.66,0-1.14-3.21,6.17-3.21,6C1323.73,418.76,1327.81,423.21,1327.81,423.4Z" transform="translate(114)"/><path class="cls-14" d="M1361.24,430.36c0,.8-7,2.88-7,2.06,0,.53-4,3.31-4,4.7,0-.42-2.09-7.2-2.09-7.16,0-1.23-6.69-.46-6.69-1.15,0-1.2,5.73-4.89,5.73-6.33,0,2.57-.09-6.77-.09-4.11,0-.46,5.62.91,5.62,3.77,0-.9,6.64-3.67,6.64-3.14,0-.89-2.25,7.56-2.25,6.2C1357.05,426.26,1361.24,432.24,1361.24,430.36Z" transform="translate(114)"/><path class="cls-14" d="M1356,401.14c-.58,0-3-5.51-2.43-5.51a59,59,0,0,1-6-1.33c-.08,0,4.61-3.78,4-3.78,0,0-.45-5.91.38-5.91-.71,0,6.06,3.17,5.25,3.17-1.27,0,4.85-2.33,5.18-2.33-1.33,0-2.84,5.75-2,5.75s3.8,4.47,4.39,4.47-5,.38-5,.38C1360.26,396.05,1355.52,401.14,1356,401.14Z" transform="translate(114)"/></g><g id="devilcow-3"><polygon class="cls-10" points="1807.88 386.35 1806.82 384.58 1807.88 382.81 1810 382.81 1811.06 384.58 1810 386.35 1807.88 386.35"/><polygon class="cls-16" points="1811.48 396.64 1810.05 394.04 1811.38 391.38 1814.14 391.32 1815.57 393.93 1814.24 396.59 1811.48 396.64"/><polygon class="cls-10" points="1857.31 389.12 1855.75 386.35 1857.31 383.58 1860.44 383.58 1862 386.35 1860.44 389.12 1857.31 389.12"/><polygon class="cls-16" points="1860.99 400.68 1859.43 397.9 1860.99 395.13 1864.12 395.13 1865.68 397.9 1864.12 400.68 1860.99 400.68"/><polygon class="cls-6" points="1769.35 347.05 1774.48 350.08 1793.85 315.73 1788.72 312.69 1769.35 347.05"/><rect class="cls-6" x="1855.75" y="359.47" width="4.53" height="26.71"/><rect class="cls-6" x="1859.5" y="360.33" width="6.32" height="37.27"/><rect class="cls-6" x="1810" y="361.81" width="5.6" height="31.93"/><rect class="cls-6" x="1806.88" y="361.39" width="3.32" height="23.1"/><polygon class="cls-12" points="1912.58 289.39 1910.92 290.96 1905.32 284.76 1906.97 283.19 1912.58 289.39"/><polygon class="cls-12" points="1866.7 287.7 1867.97 289.61 1873.81 285.54 1872.54 283.63 1866.7 287.7"/><polygon class="cls-12" points="1899.39 309.44 1890.7 302.44 1889.8 313.72 1882.47 293.96 1872.76 281.99 1876.91 276.77 1871.8 258.1 1881.7 274.63 1888.26 275.06 1890.23 290.5 1899.39 309.44"/><polygon class="cls-12" points="1870.66 314.89 1882.64 307.46 1885.46 321.5 1893.74 298.13 1906.59 284.7 1899.73 277.69 1904.85 255.34 1892.33 274.38 1882.64 274 1881.76 292.78 1870.66 314.89"/><rect class="cls-6" x="1788.95" y="312.58" width="99.58" height="49.61"/><rect class="cls-6" x="1872.27" y="273.02" width="35.2" height="38.7"/><rect class="cls-13" x="1866.5" y="309.02" width="44.16" height="26.98"/><ellipse class="cls-6" cx="1879.36" cy="321.12" rx="1.96" ry="5.93"/><ellipse class="cls-6" cx="1895.75" cy="321.12" rx="2.71" ry="5.93"/><ellipse cx="1896.5" cy="285.74" rx="2.86" ry="3.82"/><ellipse cx="1883.2" cy="286.77" rx="3.08" ry="4.85"/><polygon points="1892.71 282.78 1899.66 278.67 1899.21 277.87 1892.26 281.98 1892.71 282.78"/><polygon points="1880.5 278.34 1889.15 282.66 1889.64 281.64 1880.98 277.32 1880.5 278.34"/><polygon class="cls-12" points="1767.25 349.46 1773.43 353.12 1776.2 348.21 1770.01 344.56 1767.25 349.46"/><path class="cls-14" d="M1732.18,335.46c0,1.58,5.87-3.51,5.87-4.53,0-.46,7.1,1.87,7.1,1.8,0,.88-2.54-6.14-2.54-5.86,0,.13,4.32-7.9,4.32-8.57,0,2.83-7.44,1.84-7.44,1.89,0-1.38-4.43-6.14-4.43-7.77,0,.59-2.06,9.38-2.06,9s-7.06,2.79-7.06,2.38c0,0,6.17,5,6.17,2.21C1732.11,327,1732.18,335.54,1732.18,335.46Z" transform="translate(114)"/><path class="cls-14" d="M1708.35,358.62c0-1.71,5.61-6.33,5.61-3.69,0-.33,6.12,1.05,6.12,0,0,2.55-1.67-3.79-1.67-3.16,0-2.11,4.35-8.17,4.35-7.23s-6.64,1.08-6.64-.84c0-.93-3.43-4.59-3.43-6.42,0-.22-2.43,8-2.43,5.85,0,1.13-6.48,2.89-6.48,5.24,0-.89,5.14,2.33,5.14,1.49C1708.92,350.19,1708.35,357.17,1708.35,358.62Z" transform="translate(114)"/><path class="cls-14" d="M1697.9,330.27c-.12,0-1.55-5.63-.53-5.63-1.68,0,2.32-3.92,4.09-3.92-1.83,0-5.82-.89-6.9-.89.46,0-2-5.14-1.7-5.14,0,0-3,5.07-3.66,5.07,1.74,0-4.51.74-4.79.74,1.57,0,5.18,4,4.71,4-.18,0-1.68,5.6-1.37,5.6,1.15,0,4.55-2.58,4.44-2.58C1691.48,327.55,1698.4,330.27,1697.9,330.27Z" transform="translate(114)"/></g><g id="devilcow-4"><polygon class="cls-10" points="278.87 350.73 278.45 353.1 280.34 354.59 282.65 353.71 283.07 351.35 281.18 349.86 278.87 350.73"/><polygon class="cls-17" points="278.53 338.03 278.06 341.46 280.61 343.81 283.64 342.73 284.11 339.29 281.56 336.95 278.53 338.03"/><polygon class="cls-10" points="331.56 327.25 331.01 330.91 333.86 333.29 337.26 331.99 337.82 328.32 334.97 325.95 331.56 327.25"/><polygon class="cls-17" points="330.79 313.14 330.23 316.81 333.08 319.18 336.49 317.89 337.04 314.22 334.19 311.85 330.79 313.14"/><polygon class="cls-6" points="253.18 409.49 257.51 404.06 292.83 433.46 288.5 438.89 253.18 409.49"/><rect class="cls-6" x="222.45" y="329.11" width="5.28" height="31.13" transform="translate(6.23 102.45) rotate(-20.81)"/><rect class="cls-6" x="223.93" y="314.36" width="7.36" height="43.43" transform="translate(9.45 102.79) rotate(-20.81)"/><rect class="cls-6" x="170.53" y="339.41" width="6.53" height="37.2" transform="translate(-1.85 85.1) rotate(-20.81)"/><rect class="cls-6" x="169.23" y="351.6" width="3.87" height="26.92" transform="translate(-4.53 84.62) rotate(-20.81)"/><polygon class="cls-12" points="433.04 412.99 430.59 411.96 427.05 421.04 429.5 422.06 433.04 412.99"/><polygon class="cls-12" points="383.77 433.82 384.37 431.21 392.42 433.24 391.82 435.84 383.77 433.82"/><polygon class="cls-12" points="410.38 396.62 403.81 407.83 398.16 395.92 398.36 420.47 392.74 437.53 399.42 441.49 401.59 463.95 405.52 441.84 412.49 438.66 408.24 421.04 410.38 396.62"/><polygon class="cls-12" points="376.83 402.57 392.95 405.7 390.22 389.24 408.91 411.26 428.46 420.57 423.89 431.05 438.72 453.27 417.2 437.72 406.81 442.14 398.08 422.05 376.83 402.57"/><rect class="cls-6" x="160.75" y="362.35" width="116.03" height="57.8" transform="translate(-10.73 103.24) rotate(-20.81)"/><rect class="cls-6" x="272.59" y="396.56" width="41.02" height="45.09" transform="translate(-15.77 131.47) rotate(-20.81)"/><rect class="cls-13" x="253.43" y="371.11" width="51.45" height="31.43" transform="translate(-5.22 124.41) rotate(-20.81)"/><ellipse class="cls-6" cx="269.69" cy="392.21" rx="2.28" ry="6.91" transform="translate(-7.75 121.4) rotate(-20.81)"/><ellipse class="cls-6" cx="287.56" cy="385.42" rx="3.15" ry="6.91" transform="matrix(0.93, -0.36, 0.36, 0.93, -4.17, 127.3)"/><ellipse cx="303.03" cy="423.65" rx="3.33" ry="4.45" transform="matrix(0.93, -0.36, 0.36, 0.93, -16.74, 135.29)"/><ellipse cx="288.1" cy="428.04" rx="3.59" ry="5.65" transform="matrix(0.93, -0.36, 0.36, 0.93, -19.28, 130.28)"/><polygon points="414.14 428.41 423.42 430.01 423.25 431.07 413.98 429.48 414.14 428.41"/><polygon points="402.68 438.31 410.32 430.01 411.26 430.92 403.63 439.21 402.68 438.31"/><polygon class="cls-12" points="249.89 407.73 255.11 401.19 260.16 405.39 254.94 411.93 249.89 407.73"/><path class="cls-14" d="M227.68,391.21c0-1.36,8.34,1.32,8.34,1.74,0-1,6.78-6.26,6.78-6.26,0-1.08.2,10.14.2,11.69,0-.16,7.28,4.21,7.28,3.21,0,.26-8.22.87-8.22,1,0,2.75-2.28,12.08-2.28,8.73,0,2.67-5.28-5.92-5.28-4.63,0-.86-8.69,0-8.69.36,0-1,4.95-6.37,4.95-9.66C230.76,399.26,227.68,389.79,227.68,391.21Z" transform="translate(114)"/><path class="cls-14" d="M192.53,377.58c0,.68,7.62-1.9,7.62.19,0-2.1,5.57-4.66,5.57-7.18,0,1.53.91,9.43.91,7.74,0,2,6.87,5.76,6.87,5.88,0,2-7.06,2.85-7.06,3.79,0-1.36-1.33,8.37-1.33,6.6,0,2-5.27-4.05-5.27-6.62,0-1-7.69-.1-7.69.78,0,3,3.8-7.72,3.8-3.31C196,381.37,192.53,377.46,192.53,377.58Z" transform="translate(114)"/><path class="cls-14" d="M191.43,410.28c-.47,0,.86,6.49,1.52,6.49,1.8,0,7.21,2.6,7.64,2.6-1.93,0-5.39,3.25-5.66,3.25-.5,0-1.15,6.59-2.53,6.59,1.94,0-3.25-4.48-5.17-4.48,2.47,0-4,1.47-4.49,1.47-1.87,0,1.85-6,2.4-6,1.16,0-2.33-5.68-3.58-5.68-.11,0,7.14.76,6.71.76S191.63,410.28,191.43,410.28Z" transform="translate(114)"/></g><g id="devilcow-5"><polygon class="cls-10" points="646.8 37.84 648.02 39.88 646.8 41.92 644.35 41.92 643.13 39.88 644.35 37.84 646.8 37.84"/><polygon class="cls-18" points="642.65 25.99 644.29 28.99 642.76 32.05 639.58 32.11 637.94 29.11 639.47 26.05 642.65 25.99"/><polygon class="cls-10" points="589.88 34.64 591.68 37.84 589.88 41.03 586.28 41.03 584.48 37.84 586.28 34.64 589.88 34.64"/><polygon class="cls-18" points="585.64 21.34 587.44 24.54 585.64 27.73 582.04 27.73 580.24 24.54 582.04 21.34 585.64 21.34"/><polygon class="cls-6" points="691.16 83.09 685.25 79.6 662.95 119.16 668.86 122.65 691.16 83.09"/><rect class="cls-6" x="586.47" y="38.03" width="5.21" height="30.76"/><rect class="cls-6" x="580.09" y="24.89" width="7.27" height="42.92"/><rect class="cls-6" x="637.91" y="29.32" width="6.45" height="36.76"/><rect class="cls-6" x="644.13" y="39.98" width="3.82" height="26.6"/><polygon class="cls-12" points="526.25 149.48 528.15 147.67 534.61 154.81 532.7 156.62 526.25 149.48"/><polygon class="cls-12" points="579.07 151.42 577.61 149.22 570.88 153.91 572.35 156.11 579.07 151.42"/><polygon class="cls-12" points="541.44 126.39 551.44 134.45 552.47 121.47 560.91 144.21 572.1 158 567.32 164 573.19 185.5 561.8 166.47 554.24 165.97 551.99 148.2 541.44 126.39"/><polygon class="cls-12" points="574.51 120.12 560.72 128.67 557.47 112.5 547.94 139.41 533.14 154.87 541.04 162.95 535.15 188.68 549.56 166.76 560.72 167.2 561.73 145.57 574.51 120.12"/><rect class="cls-6" x="553.94" y="65.65" width="114.66" height="57.11"/><rect class="cls-6" x="532.12" y="123.76" width="40.53" height="44.56"/><rect class="cls-13" x="528.47" y="95.8" width="50.84" height="31.06"/><ellipse class="cls-6" cx="564.5" cy="112.94" rx="2.25" ry="6.83"/><ellipse class="cls-6" cx="545.62" cy="112.94" rx="3.12" ry="6.83"/><ellipse cx="544.76" cy="153.68" rx="3.29" ry="4.4"/><ellipse cx="560.08" cy="152.49" rx="3.55" ry="5.59"/><polygon points="549.12 157.09 541.12 161.82 541.64 162.75 549.64 158.01 549.12 157.09"/><polygon points="563.18 162.2 553.22 157.23 552.66 158.39 562.63 163.37 563.18 162.2"/><polygon class="cls-12" points="693.58 80.31 686.46 76.1 683.28 81.75 690.39 85.96 693.58 80.31"/><path class="cls-14" d="M488.7,95.52c0-.91-6.76,5.3-6.76,5.54,0,1.74-8.18-3.57-8.18-3.69,0,2.31,2.93,9,2.93,12,0-3.17-5,6.16-5,6.86,0-3.49,8.57-2.71,8.57-.77,0-.72,5.11,4.45,5.11,5.63,0-1.48,2.36-9.47,2.36-9.38,0,1.75,8.13-2.22,8.13-1.28,0,.32-7.1-7-7.1-5.19C488.78,103.78,488.7,96.8,488.7,95.52Z" transform="translate(114)"/><path class="cls-14" d="M516.13,72.81c0-2.18-6.45.8-6.45,1.13,0,1.42-7.05-2.29-7.05-2.33s1.92,6.14,1.92,9.63c0-1.8-5,3-5,3.32,0,2.22,7.65,2,7.65,1,0,1.36,3.95,5.19,3.95,5.13,0,2.35,2.8-4.94,2.8-6.84,0,.9,7.46-1,7.46.09,0-2.33-5.92-4.27-5.92-6.14C515.48,78.76,516.13,71.07,516.13,72.81Z" transform="translate(114)"/><path class="cls-14" d="M529.62,102.41c-1.19,0-.77,6.48.28,6.48-1.25,0-6.29,4.51-5,4.51,1.48,0,5.21,1,6.71,1-1.07,0,3.11,5.92,2.81,5.92-1.07,0,1.26-5.84,2.32-5.84s8-.86,6-.86c.11,0-3.23-4.64-3.8-4.64s2.19-6.45.8-6.45c1.58,0-4.53,3-4.57,3S528.24,102.41,529.62,102.41Z" transform="translate(114)"/></g><g id="devilcow-6"><polygon class="cls-10" points="573.11 351.87 573.54 349.79 575.57 349.19 577.18 350.66 576.75 352.74 574.71 353.34 573.11 351.87"/><polygon class="cls-19" points="568.68 362.15 569.41 359.19 572.27 358.1 574.39 359.98 573.66 362.95 570.8 364.03 568.68 362.15"/><polygon class="cls-10" points="608.58 388.34 609.32 385.15 612.43 384.14 614.8 386.32 614.05 389.5 610.94 390.51 608.58 388.34"/><polygon class="cls-19" points="603.33 399.64 604.07 396.45 607.18 395.44 609.55 397.62 608.8 400.8 605.69 401.81 603.33 399.64"/><polygon class="cls-6" points="571.3 295.34 573.07 301.2 611.61 288.69 609.84 282.82 571.3 295.34"/><rect class="cls-6" x="492.69" y="374.19" width="27.45" height="4.65" transform="translate(0.51 494.54) rotate(-47.41)"/><rect class="cls-6" x="486.51" y="381.12" width="38.3" height="6.49" transform="translate(-5.52 496.52) rotate(-47.41)"/><rect class="cls-6" x="452.36" y="345.92" width="32.81" height="5.76" transform="translate(8.74 457.86) rotate(-47.41)"/><rect class="cls-6" x="457.04" y="340.47" width="23.74" height="3.41" transform="translate(13.66 455.83) rotate(-47.41)"/><polygon class="cls-12" points="719.74 351.33 717.39 351.37 717.47 342.77 719.81 342.74 719.74 351.33"/><polygon class="cls-12" points="686.21 318.15 685.84 320.47 693.09 321.45 693.46 319.13 686.21 318.15"/><polygon class="cls-12" points="695.82 357.32 694.11 345.99 685.59 353.89 693.78 333.85 694.76 318.04 701.53 316.98 710.65 299.3 706.64 318.69 711.31 323.58 702.06 336.62 695.82 357.32"/><polygon class="cls-12" points="670.29 341.47 684.52 344.18 676.89 356.77 699.41 344.84 718.47 343.62 718.16 333.54 737.57 320.2 714.86 325.89 707.79 318.87 694.07 332.46 670.29 341.47"/><rect class="cls-6" x="490.99" y="285.13" width="50.97" height="102.32" transform="translate(33.37 488.94) rotate(-47.41)"/><rect class="cls-6" x="566.58" y="319.73" width="39.76" height="36.17" transform="translate(54.87 540.96) rotate(-47.41)"/><rect class="cls-13" x="550.67" y="336.98" width="27.72" height="45.37" transform="translate(31.69 531.88) rotate(-47.41)"/><ellipse class="cls-6" cx="558.54" cy="352.2" rx="6.09" ry="2.01" transform="translate(35.26 525.05) rotate(-47.41)"/><ellipse class="cls-6" cx="570.93" cy="363.6" rx="6.09" ry="2.78" transform="translate(30.87 537.86) rotate(-47.41)"/><ellipse cx="596.11" cy="337.36" rx="3.92" ry="2.94" transform="translate(58.33 547.92) rotate(-47.41)"/><ellipse cx="585.32" cy="328.88" rx="4.99" ry="3.16" transform="translate(61.08 537.23) rotate(-47.41)"/><polygon points="709.31 332.51 717.42 334.24 717.64 333.31 709.52 331.59 709.31 332.51"/><polygon points="703.16 320.66 706.7 329.95 707.77 329.52 704.23 320.23 703.16 320.66"/><polygon class="cls-12" points="568.03 295.7 570.16 302.77 575.67 300.98 573.53 293.92 568.03 295.7"/><path class="cls-14" d="M523.52,339.22c0,2.1,7.7-.21,7.7,3,0-3.25,3.78,3.37,3.78,4.4,0,.52,3.06-7,3.06-5.63,0-.12,7.59-3.29,7.59-1.06,0-1.27-5.81-6.49-5.81-6.36,0-1,.91-7.32.91-7.9,0-.77-6.65,2.57-6.65,5.39,0-2.36-7-4.38-7-3.8a40.18,40.18,0,0,1,1.7,8.35C528.77,334.7,523.52,339.27,523.52,339.22Z" transform="translate(114)"/><path class="cls-14" d="M490,339.85c0-.64,6.79.12,6.79,2.12,0-1.31,2.79,6,2.79,7.43,0-2,3.32-9.1,3.32-6.71,0-.35,6.87-1.77,6.87-1,0-2-4.74-6.79-4.74-7.82,0,.69,1.45-3.26,1.45-3.86,0-3-6.24,3-6.24,2.21,0,1.34-6-3.45-6-5.54,0,1.29.87,9.94.87,8.09C495.18,335.24,490,340.54,490,339.85Z" transform="translate(114)"/><path class="cls-14" d="M501.41,312c-1.13,0,3.42-4.86,2.89-4.86-1.21,0,5.26-.16,5.18-.16s-2.64-4.5-3.68-4.5c-.53,0,3.57-5.56,1.48-5.56,2,0-4.16,2.09-5,2.09,1.54,0-3.37-3.28-3.71-3.28-1.2,0,.65,5.79-1.41,5.79,1.07,0-4.12,3.53-3.56,3.53,0,0,4.54,1.49,6.13,1.49C500,306.56,502.13,312,501.41,312Z" transform="translate(114)"/></g><g id="devilcow-7"><polygon class="cls-10" points="1756.13 476.21 1756.12 474.09 1754.25 473.1 1752.38 474.23 1752.4 476.35 1754.27 477.34 1756.13 476.21"/><polygon class="cls-19" points="1758.45 487.18 1758.32 484.12 1755.73 482.49 1753.28 483.92 1753.41 486.97 1756 488.6 1758.45 487.18"/><polygon class="cls-10" points="1714.17 504.98 1714.07 501.71 1711.22 500.11 1708.47 501.77 1708.58 505.04 1711.43 506.64 1714.17 504.98"/><polygon class="cls-19" points="1717.09 517.09 1716.99 513.82 1714.14 512.22 1711.39 513.88 1711.49 517.15 1714.35 518.76 1717.09 517.09"/><polygon class="cls-6" points="1769.06 421.15 1766.16 426.55 1730.85 406.68 1733.74 401.28 1769.06 421.15"/><rect class="cls-6" x="1588.56" y="477.34" width="4.65" height="27.45" transform="matrix(0.86, -0.52, 0.52, 0.86, 89.85, 895.71)"/><rect class="cls-6" x="1586.83" y="479.78" width="6.49" height="38.3" transform="matrix(0.86, -0.52, 0.52, 0.86, 85.66, 896.43)"/><rect class="cls-6" x="1630.38" y="454.94" width="5.76" height="32.81" transform="matrix(0.86, -0.52, 0.52, 0.86, 106.21, 914.82)"/><rect class="cls-6" x="1632.72" y="452.93" width="3.41" height="23.74" transform="matrix(0.86, -0.52, 0.52, 0.86, 109.77, 914.48)"/><polygon class="cls-12" points="1612.49 446.78 1614.78 447.27 1616.41 438.84 1614.12 438.34 1612.49 446.78"/><polygon class="cls-12" points="1651.91 420.86 1651.81 423.21 1644.5 422.74 1644.6 420.39 1651.91 420.86"/><polygon class="cls-12" points="1634.76 457.37 1638.67 446.59 1645.46 456.02 1641.38 434.76 1643.54 419.06 1637.11 416.69 1631.65 397.56 1631.76 417.36 1626.23 421.24 1632.72 435.84 1634.76 457.37"/><polygon class="cls-12" points="1662.91 446.86 1648.43 446.71 1653.42 460.56 1633.7 444.43 1615.26 439.47 1617.55 429.65 1601.15 412.74 1622.29 422.8 1630.61 417.31 1641.38 433.34 1662.91 446.86"/><rect class="cls-6" x="1537.79" y="424.18" width="102.32" height="50.97" transform="matrix(0.86, -0.52, 0.52, 0.86, 111.03, 888.71)"/><rect class="cls-6" x="1501.96" y="417.47" width="36.17" height="39.76" transform="matrix(0.86, -0.52, 0.52, 0.86, 107.44, 851.21)"/><rect class="cls-13" x="1514.57" y="449.23" width="45.37" height="27.72" transform="matrix(0.86, -0.52, 0.52, 0.86, 96.59, 863.86)"/><ellipse class="cls-6" cx="1544.6" cy="456.99" rx="2.01" ry="6.09" transform="matrix(0.86, -0.52, 0.52, 0.86, 100.81, 866.79)"/><ellipse class="cls-6" cx="1530.19" cy="465.74" rx="2.78" ry="6.09" transform="matrix(0.86, -0.52, 0.52, 0.86, 94.19, 860.58)"/><ellipse cx="1510.69" cy="435.04" rx="2.94" ry="3.92" transform="matrix(0.86, -0.52, 0.52, 0.86, 107.28, 846.03)"/><ellipse cx="1522.93" cy="428.86" rx="3.16" ry="4.99" transform="translate(112.26 851.48) rotate(-31.22)"/><polygon points="1626.43 430.38 1618.13 430.48 1618.1 429.53 1626.4 429.44 1626.43 430.38"/><polygon points="1634.79 419.98 1629.49 428.39 1628.53 427.75 1633.83 419.35 1634.79 419.98"/><polygon class="cls-12" points="1772.19 422.16 1768.7 428.66 1763.66 425.82 1767.15 419.32 1772.19 422.16"/><path class="cls-14" d="M1581.34,453.12c0-.13-7.66-2.33-7.66-1.21,0-.34-5,3.7-5,6,0-.27-1.58-8.77-1.58-9.57,0,2-7.11-1-7.11-2.49,0,1.2,6.68-5.24,6.68-5.2,0,.22.63-7.88.63-6,0,.27,5.71,4.57,5.71,4,0,1.65,7.5.89,7.5.55,0-2.94-3.15,7-3.15,6.8C1577.34,444.2,1581.34,452.77,1581.34,453.12Z" transform="translate(114)"/><path class="cls-14" d="M1614.12,459.48c0,.84-6.88-2.52-6.88-.13,0-2.82-4,5.42-4,5.62,0-.35-2-5.79-2-6.24,0-1.33-6.57-4-6.57-4.31,0,.8,5.62-2.64,5.62-4,0,.53-.09-5.72-.09-7.54,0,1.14,5.51,4.08,5.51,6.58,0-1.19,6.51-3.7,6.51-3.42,0,.07-2.21,5.37-2.21,7.93C1610,452.61,1614.12,458.52,1614.12,459.48Z" transform="translate(114)"/><path class="cls-14" d="M1607.76,428.9c.81,0-2.27-5.4-.86-5.4.3,0-6.1-1.3-6.4-1.3-.52,0,4-3.71,4-3.71,1.8,0,.12-5.79.13-5.79.32,0,5.35,3.11,5.4,3.11-.45,0,4.35-2.28,5.87-2.28.29,0-1.58,5.63-2.65,5.63,1.6,0,4.94,4.38,4.32,4.38,1.08,0-6.3.37-6.91.37C1612.68,423.91,1610.25,428.9,1607.76,428.9Z" transform="translate(114)"/></g><g id="devilcow-8"><polygon class="cls-10" points="1664.91 194.44 1666.11 196.43 1664.91 198.42 1662.53 198.42 1661.34 196.43 1662.53 194.44 1664.91 194.44"/><polygon class="cls-20" points="1660.87 182.88 1662.47 185.81 1660.98 188.8 1657.87 188.86 1656.27 185.93 1657.77 182.94 1660.87 182.88"/><polygon class="cls-10" points="1609.36 191.33 1611.12 194.44 1609.36 197.56 1605.84 197.56 1604.09 194.44 1605.84 191.33 1609.36 191.33"/><polygon class="cls-20" points="1605.22 178.34 1606.98 181.46 1605.22 184.57 1601.71 184.57 1599.95 181.46 1601.71 178.34 1605.22 178.34"/><polygon class="cls-6" points="1708.22 238.62 1702.45 235.21 1680.68 273.82 1686.45 277.23 1708.22 238.62"/><rect class="cls-6" x="1606.03" y="194.63" width="5.09" height="30.02"/><rect class="cls-6" x="1599.8" y="181.81" width="7.1" height="41.89"/><rect class="cls-6" x="1656.24" y="186.13" width="6.3" height="35.88"/><rect class="cls-6" x="1662.31" y="196.54" width="3.73" height="25.97"/><polygon class="cls-12" points="1547.25 303.41 1549.11 301.65 1555.41 308.62 1553.55 310.38 1547.25 303.41"/><polygon class="cls-12" points="1598.81 305.31 1597.38 303.16 1590.82 307.75 1592.24 309.89 1598.81 305.31"/><polygon class="cls-12" points="1562.07 280.88 1571.84 288.75 1572.85 276.07 1581.08 298.28 1592 311.73 1587.33 317.59 1593.07 338.58 1581.95 320 1574.58 319.52 1572.37 302.17 1562.07 280.88"/><polygon class="cls-12" points="1594.36 274.75 1580.9 283.1 1577.72 267.32 1568.42 293.59 1553.97 308.68 1561.69 316.56 1555.94 341.68 1570.01 320.28 1580.9 320.71 1581.88 299.6 1594.36 274.75"/><rect class="cls-6" x="1574.27" y="221.59" width="111.92" height="55.75"/><rect class="cls-6" x="1552.98" y="278.31" width="39.56" height="43.49"/><rect class="cls-13" x="1549.41" y="251.02" width="49.63" height="30.32"/><ellipse class="cls-6" cx="1584.59" cy="267.75" rx="2.2" ry="6.66"/><ellipse class="cls-6" cx="1566.16" cy="267.75" rx="3.04" ry="6.66"/><ellipse cx="1565.31" cy="307.52" rx="3.21" ry="4.29"/><ellipse cx="1580.27" cy="306.36" rx="3.46" ry="5.45"/><polygon points="1569.58 310.85 1561.76 315.46 1562.27 316.37 1570.09 311.75 1569.58 310.85"/><polygon points="1583.3 315.84 1573.57 310.98 1573.03 312.12 1582.76 316.98 1583.3 315.84"/><polygon class="cls-12" points="1710.58 235.9 1703.63 231.79 1700.52 237.31 1707.47 241.41 1710.58 235.9"/><path class="cls-14" d="M1507.87,251.41c0,1.85-6.59,6.71-6.59,5.5,0-1.78-8-3.14-8-2.36,0,.22,2.86,9.66,2.86,6.34,0,2.84-4.86,7.76-4.86,7.09,0,3,8.37.76,8.37-.38,0,1.1,5,6.77,5,8.95,0-1.26,2.31-7.41,2.31-8.56,0-1.48,7.94-2.91,7.94-3.09,0-.54-6.94-4.45-6.94-3.67C1508,259,1507.87,251,1507.87,251.41Z" transform="translate(114)"/><path class="cls-14" d="M1534.65,227.44c0,1.08-6.3,1.44-6.3,3.31,0-1.71-6.88-3.91-6.88-1.31,0-.52,1.88,6.35,1.88,4.33,0,.57-4.89,7.51-4.89,6.66,0,2.34,7.46,1,7.46,2.18,0-2.39,3.86,4.07,3.86,5.1,0,1.68,2.73-6.06,2.73-5.21,0-2,7.28-2.89,7.28-2.48,0-1.47-5.78-6.2-5.78-6.41C1534,235.27,1534.65,226.83,1534.65,227.44Z" transform="translate(114)"/><path class="cls-14" d="M1546.74,257.47c1.25,0,.8,6.33-.11,6.33.5,0-2.72,4.4-3,4.4a49.44,49.44,0,0,1,6.28,1c-1.61,0,1.48,5.77,1.52,5.77,1.25,0,4-5.7,3.19-5.7a52.35,52.35,0,0,0,6.23-.83c.58,0-4.43-4.53-3.41-4.53-.43,0-.8-6.3.59-6.3.51,0-6.79,2.91-5.38,2.91C1552.13,260.53,1547.69,257.47,1546.74,257.47Z" transform="translate(114)"/></g><g id="devilcow-9"><polygon class="cls-10" points="1048.49 141.08 1047.99 138.88 1049.69 137.41 1051.88 138.13 1052.38 140.32 1050.69 141.8 1048.49 141.08"/><polygon class="cls-21" points="1048.73 152.95 1048.14 149.77 1050.42 147.47 1053.29 148.35 1053.89 151.53 1051.61 153.83 1048.73 152.95"/><polygon class="cls-10" points="1098.74 160.69 1098.06 157.28 1100.62 154.94 1103.86 156 1104.53 159.4 1101.98 161.74 1098.74 160.69"/><polygon class="cls-21" points="1098.64 173.89 1097.96 170.49 1100.52 168.15 1103.75 169.21 1104.43 172.61 1101.88 174.95 1098.64 173.89"/><polygon class="cls-6" points="1021.9 87.33 1026.18 92.21 1057.88 63.19 1053.59 58.31 1021.9 87.33"/><rect class="cls-6" x="976.47" y="141.51" width="29.1" height="4.93" transform="translate(660.13 1041.15) rotate(-71.89)"/><rect class="cls-6" x="973.45" y="148.47" width="40.61" height="6.88" transform="translate(654.47 1049.21) rotate(-71.89)"/><rect class="cls-6" x="925.13" y="130.74" width="34.78" height="6.11" transform="translate(636.37 988.03) rotate(-71.89)"/><rect class="cls-6" x="927.16" y="125.53" width="25.17" height="3.62" transform="translate(640.6 980.95) rotate(-71.89)"/><polygon class="cls-12" points="1189.73 76.12 1187.49 77.19 1183.78 68.86 1186.03 67.8 1189.73 76.12"/><polygon class="cls-12" points="1142.8 58.84 1143.46 61.25 1150.89 59 1150.23 56.6 1142.8 58.84"/><polygon class="cls-12" points="1169.29 92.41 1162.66 82.23 1157.91 93.6 1157.01 70.66 1151 54.98 1157.07 50.98 1158.11 29.91 1162.76 50.38 1169.41 53.05 1166.21 69.7 1169.29 92.41"/><polygon class="cls-12" points="1137.69 88.33 1152.61 84.7 1150.78 100.2 1167.27 78.8 1185.12 69.24 1180.39 59.65 1193.26 38.25 1173.85 53.72 1163.94 50.05 1156.68 69.2 1137.69 88.33"/><rect class="cls-6" x="956.04" y="46.5" width="54.04" height="108.49" transform="translate(695.72 1003.79) rotate(-71.89)"/><rect class="cls-6" x="1030.17" y="52.27" width="42.16" height="38.35" transform="translate(770.57 1048.4) rotate(-71.89)"/><rect class="cls-13" x="1025.04" y="78.27" width="29.39" height="48.11" transform="translate(733.29 1058.75) rotate(-71.89)"/><ellipse class="cls-6" cx="1030.67" cy="97.76" rx="6.46" ry="2.13" transform="translate(731.37 1046.99) rotate(-71.89)"/><ellipse class="cls-6" cx="1047.64" cy="103.31" rx="6.46" ry="2.95" transform="translate(737.8 1066.94) rotate(-71.89)"/><ellipse cx="1060.41" cy="66.92" rx="4.16" ry="3.11" transform="translate(781.18 1054) rotate(-71.89)"/><ellipse cx="1046.27" cy="63.49" rx="5.29" ry="3.36" transform="translate(774.69 1038.19) rotate(-71.89)"/><polygon points="1171.4 62.55 1179.99 60.64 1179.79 59.66 1171.2 61.56 1171.4 62.55"/><polygon points="1160.26 53.81 1167.76 61.22 1168.6 60.33 1161.1 52.93 1160.26 53.81"/><polygon class="cls-12" points="1018.9 89.12 1024.07 95 1028.6 90.86 1023.43 84.98 1018.9 89.12"/><path class="cls-14" d="M991.4,102.43c0-3,7.67-3.6,7.67-2.89,0,0,6.58,5.39,6.58,5.43,0-.44-.21-10.79-.21-8.82,0-2.83,6.58-5.86,6.58-5.35,0-1.91-7.8-2.08-7.8-1.75,0-1.5-2.51-10.33-2.51-8.75,0-1.48-4.61,5.43-4.61,7.21,0,1-8.13,0-8.13.86,0-2.22,4.94,6.11,4.94,5.58C993.91,93.88,991.4,100.9,991.4,102.43Z" transform="translate(114)"/><path class="cls-14" d="M959.2,117.31c0-1.07,7-4.1,7-2,0,.13,5.44,5,5.44,2.88,0-.67.5-5.74.5-5.49,0-1.08,6.25-5.42,6.25-6.53,0,.35-6.73-2.24-6.73-.3,0,1.45-1.59-6.37-1.59-9.71,0,3.25-4.66,6.6-4.66,7,0,.68-7.23-1.88-7.23.24,0,1.77,3.86,5.73,3.86,7.64C962.09,110.29,959.2,116.63,959.2,117.31Z" transform="translate(114)"/><path class="cls-14" d="M957.44,84.26c1.1,0,1.88-6.12,1.95-6.12-1.45,0,5.46-2.7,3.29-2.7.77,0-3.14-2.78-3.15-2.78-.85,0-1-6.14-1.68-6.14s-3.85,4.4-5.26,4.4c-.55,0-6.26-1.1-4.79-1.1-.66,0,2.17,5.51,2.18,5.51-.37,0-1.51,5.45-2.45,5.45-.32,0,5.31-1,4.34-1C952.43,79.79,956,84.26,957.44,84.26Z" transform="translate(114)"/></g><g id="devilcow-10"><polygon class="cls-10" points="999.46 292.98 1001.09 294.4 1000.61 296.51 998.49 297.2 996.86 295.77 997.35 293.66 999.46 292.98"/><polygon class="cls-15" points="992.54 283.88 994.81 286.02 994.34 289.1 991.61 290.05 989.34 287.91 989.8 284.83 992.54 283.88"/><polygon class="cls-10" points="949.28 306.22 951.74 308.48 951.08 311.75 947.96 312.76 945.5 310.5 946.16 307.23 949.28 306.22"/><polygon class="cls-15" points="941.87 295.89 944.33 298.15 943.67 301.42 940.55 302.43 938.1 300.17 938.76 296.9 941.87 295.89"/><polygon class="cls-6" points="1050.6 319.69 1044.5 318.33 1036.31 358.85 1042.41 360.21 1050.6 319.69"/><rect class="cls-6" x="837.49" y="308.69" width="4.75" height="28" transform="matrix(0.95, -0.31, 0.31, 0.95, 55.4, 275.17)"/><rect class="cls-6" x="829.93" y="298.56" width="6.62" height="39.07" transform="matrix(0.95, -0.31, 0.31, 0.95, 56.49, 272.9)"/><rect class="cls-6" x="880.4" y="286.38" width="5.87" height="33.47" transform="matrix(0.95, -0.31, 0.31, 0.95, 63.57, 287.64)"/><rect class="cls-6" x="887.41" y="294.47" width="3.48" height="24.22" transform="matrix(0.95, -0.31, 0.31, 0.95, 62.78, 289.6)"/><polygon class="cls-12" points="926.47 423.54 927.62 421.43 935.22 425.8 934.07 427.9 926.47 423.54"/><polygon class="cls-12" points="972.76 410.37 970.88 408.87 966.37 414.83 968.25 416.32 972.76 410.37"/><polygon class="cls-12" points="933.14 399.28 944.06 403.44 941.3 391.91 955.01 409.23 968.57 418.02 966.12 424.57 977.25 441.53 962.03 428.25 955.35 429.95 948.4 415.2 933.14 399.28"/><polygon class="cls-12" points="960.01 384.54 950.47 395.83 943.11 382.74 942.42 408.72 933.96 426.27 943.07 431.04 945.2 454.97 951.52 431.94 961.3 429.19 956.1 410.18 960.01 384.54"/><rect class="cls-6" x="818.36" y="325.78" width="104.38" height="51.99" transform="matrix(0.95, -0.31, 0.31, 0.95, 47.91, 286.07)"/><rect class="cls-6" x="815.69" y="392.93" width="36.9" height="40.56" transform="matrix(0.95, -0.31, 0.31, 0.95, 27.16, 277.83)"/><rect class="cls-13" x="802.52" y="368.6" width="46.29" height="28.28" transform="matrix(0.95, -0.31, 0.31, 0.95, 36.16, 273.72)"/><ellipse class="cls-6" cx="835.32" cy="381.16" rx="2.05" ry="6.22" transform="matrix(0.95, -0.31, 0.31, 0.95, 37.12, 276.62)"/><ellipse class="cls-6" cx="818.98" cy="386.45" rx="2.84" ry="6.22" transform="matrix(0.95, -0.31, 0.31, 0.95, 34.68, 271.84)"/><ellipse cx="829.68" cy="421.97" rx="3" ry="4" transform="matrix(0.95, -0.31, 0.31, 0.95, 24.24, 276.88)"/><ellipse cx="842.61" cy="416.64" rx="3.23" ry="5.09" transform="matrix(0.95, -0.31, 0.31, 0.95, 26.51, 280.61)"/><polygon points="948.42 423.7 942.82 430.04 943.53 430.7 949.13 424.35 948.42 423.7"/><polygon points="962.03 424.17 952 422.66 951.85 423.83 961.88 425.34 962.03 424.17"/><polygon class="cls-12" points="1051.91 316.6 1044.56 314.96 1043.39 320.74 1050.74 322.39 1051.91 316.6"/><path class="cls-14" d="M863.78,356.69c0,1.27-4.33,7-4.33,7.66,0-1.23-7.83-2.6-7.83-2.64,0-.72,4.86,7.69,4.86,6.38,0,.46-2.3,7.83-2.3,8.75,0,1.2,7.33-4.13,7.33-3.24,0,1.58,6.41,3.89,6.41,4.16,0,2.62-.33-5.46-.33-6.41,0-1.33,6.26-4.25,6.26-6.67,0,1.76-7.54-.06-7.54,0C866.31,362.5,863.78,356.54,863.78,356.69Z" transform="translate(114)"/><path class="cls-14" d="M880.34,326.35c0,1.52-4.4,4.48-4.4,6.52,0-2.89-7-2.34-7-.63,0-1.62,3.8,6.74,3.8,5.71,0-2.17-2.67,5.42-2.67,6.06,0-1,6.75-3.59,6.75-3.1,0,2.7,5.31,7.09,5.31,7.19,0-1.64.37-6.61.37-8.79,0,.63,6-3.38,6-3.45,0,1.11-6.52-2.33-6.52-2.36C882,335.17,880.34,326.23,880.34,326.35Z" transform="translate(114)"/><path class="cls-14" d="M901.12,350.09c-.29,0,1.54,5.33,1.26,5.33s-3.22,5.21-2,5.21c.53,0,5.52-.89,5.55-.89-1.3,0,3.69,4.35,2.7,4.35,2.21,0,1.51-5.87,1.45-5.87-.75,0,5.57-2.53,6.06-2.53s-5.2-2.75-6.58-2.75c1.23,0,1.24-5.91.09-5.91.48,0-3.33,4.18-4.1,4.18C905.51,351.21,898.93,350.09,901.12,350.09Z" transform="translate(114)"/></g></g><g id="sad"><ellipse class="cls-9" cx="1127.13" cy="737.55" rx="40.95" ry="9.49" transform="translate(357.08 1753.85) rotate(-82.18)"/><ellipse class="cls-9" cx="1122.3" cy="773.33" rx="19.9" ry="4.99" transform="translate(376.2 1830.6) rotate(-85.44)"/><path class="cls-22" d="M1182.23,822.44l-18.84,121.68c-20.79-19-34.62-67.67-34.62-121.68,0-71.33,24.13-130,53.46-130s53.47,58.69,53.47,130c0,52-12.81,99.16-32.47,119.57Z" transform="translate(114)"/><path d="M1276.64,611.6c-4.19,8-27.77-13.63-35.4-8.77s7.55,28.73-.08,33.59-22.83-19-30.46-14.16,1.84,35.49-7.2,35.79-1.62-30.89-9.55-35.22-21.5,20.5-29.43,16.17,5.63-29.17-2.3-33.5-30,18.82-34.73,11.1,25.93-17,25.64-26.19-28.58-8.28-28.88-17.47,28-10.1,27.69-19.3-31.53-16.32-27.27-24.47,27.77,13.63,35.4,8.77-7.55-28.73.08-33.59,22.83,19,30.46,14.16-1.85-35.49,7.2-35.8,1.62,30.89,9.55,35.23,21.5-20.5,29.43-16.17-5.64,29.17,2.3,33.5,30-18.82,34.73-11.1-25.93,17-25.64,26.19,28.58,8.28,28.88,17.47-30.34,17.09-26.15,25.28C1257.58,606.25,1280.85,603.45,1276.64,611.6Z" transform="translate(114)"/><path d="M1238.51,611.53c-4.19,8-27.77-13.64-35.4-8.78s7.55,28.73-.08,33.59-22.83-19-30.46-14.16,1.84,35.49-7.2,35.8-1.62-30.89-9.55-35.23-21.5,20.5-29.43,16.17,5.63-29.17-2.3-33.5-30,18.82-34.73,11.1,25.93-17,25.64-26.19-28.58-8.28-28.88-17.47,28-10.1,27.69-19.29-31.53-16.33-27.27-24.48,27.77,13.63,35.4,8.77-7.55-28.73.08-33.59,22.83,19,30.46,14.16-1.84-35.49,7.2-35.79,1.62,30.89,9.55,35.22,21.5-20.5,29.43-16.16-5.64,29.16,2.3,33.5,30-18.83,34.73-11.11-25.93,17-25.64,26.19,28.58,8.28,28.88,17.47-30.34,17.1-26.15,25.28C1219.5,606.17,1242.77,603.37,1238.51,611.53Z" transform="translate(114)"/><ellipse class="cls-9" cx="1235.83" cy="730.75" rx="10.14" ry="40.95" transform="translate(26.07 174.95) rotate(-7.82)"/><ellipse class="cls-9" cx="1296.45" cy="599.78" rx="69.67" ry="70.6"/><ellipse class="cls-9" cx="1354.72" cy="770.38" rx="5.04" ry="19.91"/><ellipse class="cls-9" cx="1355.64" cy="791.28" rx="8.56" ry="8.75"/><ellipse class="cls-23" cx="1272.46" cy="940.34" rx="7.57" ry="22.34"/><ellipse class="cls-23" cx="1321" cy="938.3" rx="5.85" ry="18.84"/><rect class="cls-24" x="1316.28" y="948.11" width="10.01" height="16.3" rx="2.6"/><rect class="cls-25" x="1316.14" y="955.55" width="20.71" height="10.39" rx="2.6"/><rect class="cls-24" x="1266.4" y="950.59" width="11.64" height="20.68" rx="2.6"/><rect class="cls-25" x="1255.18" y="960.51" width="23.71" height="12.07" rx="2.6"/><ellipse class="cls-26" cx="1270.03" cy="598.68" rx="6.14" ry="8.76"/><ellipse class="cls-26" cx="1302.87" cy="598.97" rx="6.71" ry="9.93"/><ellipse class="cls-27" cx="1299.16" cy="697.09" rx="41.46" ry="26.57"/><path class="cls-28" d="M1159.44,715.7a4.31,4.31,0,0,0,8.61.42,2.94,2.94,0,0,0,0-.42V678.8a4.31,4.31,0,0,0-8.61,0Z" transform="translate(114)"/><ellipse class="cls-27" cx="1227.81" cy="701.64" rx="11.9" ry="19.86" transform="translate(4.26 1160.73) rotate(-48.69)"/><path class="cls-28" d="M1200.27,717.3a3.88,3.88,0,0,0,7.75.4,2.67,2.67,0,0,0,0-.4V677.47a3.88,3.88,0,1,0-7.75-.39,2.54,2.54,0,0,0,0,.39Z" transform="translate(114)"/><ellipse cx="1296.3" cy="548.75" rx="61.1" ry="26.72"/><ellipse cx="1127.13" cy="567.58" rx="30.85" ry="12.67" transform="translate(110.79 1128.74) rotate(-53.13)"/><ellipse cx="1234.77" cy="562.75" rx="8.68" ry="30.85" transform="translate(23.3 853.41) rotate(-36.87)"/><ellipse class="cls-29" cx="1318.29" cy="715.63" rx="3.71" ry="3.8"/><ellipse class="cls-30" cx="1318.29" cy="715.93" rx="0.86" ry="0.88"/><ellipse class="cls-29" cx="1277.74" cy="714.32" rx="3.43" ry="3.36"/><ellipse class="cls-30" cx="1277.74" cy="714.9" rx="0.57" ry="0.73"/><path class="cls-31" d="M1153.06,762.1l15,.59c-.12,20.74-6.87,37.63-15,37.63s-15-17.26-15-38.22Z" transform="translate(114)"/><path class="cls-32" d="M1165.07,655.47c.47-.87,5.88-10.52,15.78-10.66,9.7-.14,15.24,9,15.77,9.9" transform="translate(114)"/><ellipse class="cls-27" cx="1137.93" cy="701.46" rx="19.1" ry="12.26" transform="translate(90.65 1363.55) rotate(-61.34)"/><ellipse class="cls-9" cx="1234.69" cy="793" rx="8.56" ry="8.75"/></g><g id="bridge"><path class="cls-33" d="M224.13,1079.63c-1.31,1.33-2-2.06-3.87-2.06s-1.88-.12-3.75-.12-1.87,2.7-3.75,2.7-1.87-3.5-3.74-3.5-1.88.89-3.75.89-1.88,4.8-3.75,4.8-1.88-2.15-3.75-2.15-1.88-.14-3.75-.14-1.88.79-3.75.79-1.88-1.74-3.75-1.74-1.88,3-3.76,3-2.73-1-4-2.31,1.76-2.19,1.76-4.08-3.71-1.9-3.71-3.8,2.06-1.89,2.06-3.79,1-1.9,1-3.79,1.2-1.9,1.2-3.79-.07-1.9-.07-3.79-4.89-1.9-4.89-3.79,4.94-1.9,4.94-3.8-3.34-1.89-3.34-3.79,2.1-1.9,2.1-3.8-.22-1.89-.22-3.79-2.45-1.9-2.45-3.79,2.48-1.9,2.48-3.79-1.42-1.9-1.42-3.8-1-1.89-1-3.79,1.58-1.9,1.58-3.8-.6-1.89-.6-3.79.35-1.9.35-3.79,1.17-1.9,1.17-3.8-.63-1.9-.63-3.8,1-1.89,1-3.79,1.77-1.9,1.77-3.8-.79-1.89-.79-3.79-2.52-1.9-2.52-3.8,3.43-1.9,3.43-3.79-.71-1.9-.71-3.8-.33-1.9-.33-3.8-3.54-1.89-3.54-3.79,3.75-1.9,3.75-3.8-4.93-1.9-4.93-3.79.12-1.9.12-3.8,4.6-1.9,4.6-3.8-1.23-1.9-1.23-3.8-1.53-1.9-1.53-3.79,2.36-1.9,2.36-3.8.18-1.9.18-3.79-.13-1.9-.13-3.8-4-1.9-4-3.8,5.24-1.9,5.24-3.79-.49-1.9-.49-3.8.4-1.9.4-3.8-1.35-1.9-1.35-3.8-1.18-1.9-1.18-3.8,2.7-1.9,2.7-3.8-4-1.9-4-3.8-.76-1.9-.76-3.8-.26-1.9-.26-3.8,4.65-1.9,4.65-3.8-5.32-4-4-5.41,3.5,1.89,5.37,1.89,1.87-.78,3.75-.78,1.87-.38,3.74-.38,1.88,1.19,3.75,1.19,1.88-2.93,3.75-2.93,1.88,1.94,3.75,1.94,1.88-1.74,3.75-1.74,1.88,1.11,3.75,1.11,1.88.86,3.75.86,1.88,3.13,3.75,3.13,1.88-2.32,3.76-2.32.39.31,1.72,1.65,2.5-.12,2.5,1.77,2.24,1.9,2.24,3.8-1.61,1.89-1.61,3.79-.58,1.9-.58,3.79-2.82,1.9-2.82,3.79,4.35,1.9,4.35,3.79S225,918.15,225,920s-3.86,1.9-3.86,3.8,1.54,1.89,1.54,3.79,1.81,1.9,1.81,3.8-1,1.89-1,3.79-.54,1.9-.54,3.79,1.65,1.9,1.65,3.79-.3,1.9-.3,3.8-1.59,1.89-1.59,3.79,4.33,1.9,4.33,3.8-1.49,1.89-1.49,3.79-3.74,1.9-3.74,3.79,1.23,1.9,1.23,3.8,3.25,1.9,3.25,3.8-.7,1.89-.7,3.79-3,1.9-3,3.8-.36,1.89-.36,3.79.4,1.9.4,3.8.3,1.9.3,3.79,4.07,1.9,4.07,3.8-1.72,1.9-1.72,3.8-2.19,1.89-2.19,3.79,3.61,1.9,3.61,3.8-5,1.9-5,3.79,1.77,1.9,1.77,3.8-2.24,1.9-2.24,3.8.65,1.9.65,3.8,2.19,1.9,2.19,3.79.17,1.9.17,3.8-.24,1.9-.24,3.79v3.8c0,1.9-.82,1.9-.82,3.8v3.79c0,1.89.16,1.9.16,3.8s2.66,1.9,2.66,3.8.7,1.9.7,3.8-2.56,1.9-2.56,3.8-3,1.9-3,3.8,2,1.9,2,3.8-1.52,1.9-1.52,3.8,1.9,1.9,1.9,3.8,1.45,1.64,1.88,3.5A3.71,3.71,0,0,1,224.13,1079.63Z" transform="translate(114)"/><path class="cls-33" d="M1931.11,1102.61c-1.54,1.54-4.29-1-6.47-1s-2.18-.06-4.36-.06-2.18-3-4.36-3-2.18,4.34-4.36,4.34-2.18.14-4.36.14-2.19-2.62-4.37-2.62-2.18,2.17-4.36,2.17-2.18-5.15-4.36-5.15-2.18,1.38-4.37,1.38-2.18,4.84-4.37,4.84-.58-3.84-2.13-5.38.83.08.83-2.1-3.81-2.17-3.81-4.34-1.89-2.17-1.89-4.34,1.77-2.18,1.77-4.35-.66-2.17-.66-4.34,1.47-2.18,1.47-4.35-1.55-2.17-1.55-4.34,1.57-2.17,1.57-4.34-2.07-2.17-2.07-4.34,3.34-2.17,3.34-4.34-4.62-2.17-4.62-4.35.89-2.17.89-4.34-.21-2.17-.21-4.35.12-2.17.12-4.34,3.87-2.17,3.87-4.34-1.87-2.17-1.87-4.34-.31-2.17-.31-4.34-1.78-2.18-1.78-4.35,2.94-2.17,2.94-4.35.25-2.17.25-4.34v-4.34c0-2.17-2.29-2.17-2.29-4.35s.8-2.17.8-4.34-1.63-2.18-1.63-4.35,2.55-2.17,2.55-4.34,3.47-2.18,3.47-4.35-1.28-2.17-1.28-4.35v-4.34c0-2.17-2.08-2.17-2.08-4.35s-2.38-2.17-2.38-4.34,4.93-2.18,4.93-4.35-.77-2.17-.77-4.35-.9-2.17-.9-4.34.78-2.18.78-4.35-3.12-2.18-3.12-4.35-1.54-2.17-1.54-4.35,5.85-2.17,5.85-4.34-6.24-2.18-6.24-4.35,3.68-2.18,3.68-4.35-3-2.18-3-4.35,2.1-2.17,2.1-4.34-1.86-2.18-1.86-4.35,1.72-2.18,1.72-4.35-1.31-2.17-1.31-4.35,1.42-2.17,1.42-4.35-1.52-2.17-1.52-4.35.7-2.17.7-4.35,2.22-2.17,2.22-4.35-2.45-2.17-2.45-4.34,4.67-2.18,4.67-4.36-.78-2.18-.78-4.35-3.65-2.78-2.11-4.32,2.13-1.13,4.32-1.13,2.17-1.39,4.35-1.39,2.18,2.4,4.37,2.4,2.18-3,4.36-3,2.18,3.76,4.36,3.76,2.18,2.16,4.36,2.16,2.19-.07,4.37-.07,2.18-6,4.36-6,2.18.28,4.37.28,2.18,3.9,4.36,3.9,1.61-1.18,3.16.36,2.09.95,2.09,3.13-4,2.17-4,4.34,4.88,2.17,4.88,4.34-3.17,2.18-3.17,4.35,4.7,2.17,4.7,4.34-5.29,2.18-5.29,4.35,3.73,2.17,3.73,4.34-1.34,2.17-1.34,4.34,2.68,2.17,2.68,4.34-5.34,2.17-5.34,4.34,4,2.17,4,4.35,1.21,2.17,1.21,4.34-.15,2.17-.15,4.35-3.33,2.17-3.33,4.34,1.31,2.17,1.31,4.34,1.55,2.17,1.55,4.34-3.58,2.17-3.58,4.34,1,2.18,1,4.35v4.35c0,2.18.14,2.17.14,4.34s.44,2.17.44,4.34-3.7,2.17-3.7,4.35,2.88,2.17,2.88,4.34,3.23,2.18,3.23,4.35.1,2.17.1,4.34-5.56,2.18-5.56,4.35,2.43,2.17,2.43,4.35,3.48,2.17,3.48,4.34-4.51,2.17-4.51,4.35-.65,2.17-.65,4.34,4.3,2.18,4.3,4.35-.69,2.17-.69,4.35-3,2.17-3,4.34-.4,2.18-.4,4.35,2.68,2.18,2.68,4.35-2.31,2.17-2.31,4.35-1,2.17-1,4.34,3.43,2.18,3.43,4.35-.25,2.18-.25,4.35-.85,2.18-.85,4.35.9,2.17.9,4.34-.64,2.18-.64,4.35,2.73,2.18,2.73,4.35-1.24,2.17-1.24,4.35-4.81,2.17-4.81,4.35,5.65,2.17,5.65,4.35-5.08,2.17-5.08,4.35,1.83,2.17,1.83,4.35.27,2.17.27,4.34,2.59,2.18,2.59,4.36-1.83,1.92-1,3.94C1931.36,1099.08,1932.65,1101.07,1931.11,1102.61Z" transform="translate(114)"/><path class="cls-33" d="M565.15,1084.64c-1.53,1.51-1.3,1.44-3.45,1.44s-2.15-2.81-4.3-2.81-2.16-.34-4.31-.34-2.15,3.29-4.3,3.29-2.16-3-4.31-3-2.15,2-4.31,2-2.15,1-4.31,1-2.15-4.08-4.3-4.08-2.16.39-4.31.39-2.15,3.8-4.31,3.8-2.15.21-4.31.21-2.16.21-4.31.21-1.47-1.09-3-2.6-1.19-.78-1.19-2.89,2.6-2.11,2.6-4.22-.71-2.11-.71-4.22-4.63-2.12-4.63-4.23,4.94-2.11,4.94-4.23-1.28-2.11-1.28-4.22,1.31-2.11,1.31-4.22-.13-2.11-.13-4.22.65-2.12.65-4.23.45-2.11.45-4.23S511,1041.15,511,1039s-2-2.11-2-4.23,1.11-2.11,1.11-4.22-1.08-2.11-1.08-4.22-1.43-2.12-1.43-4.23,5-2.12,5-4.23-2-2.11-2-4.22,2.36-2.12,2.36-4.23-5.88-2.11-5.88-4.23,3-2.11,3-4.22,2.45-2.12,2.45-4.23-2.08-2.11-2.08-4.23-.28-2.11-.28-4.23,1.18-2.11,1.18-4.22,1-2.12,1-4.23-4.61-2.12-4.61-4.23-.86-2.11-.86-4.23,2.2-2.11,2.2-4.23S507,965,507,962.92s3-2.12,3-4.23.33-2.12.33-4.23-3.1-2.11-3.1-4.22,5.91-2.12,5.91-4.23-.48-2.12-.48-4.23-3.15-2.11-3.15-4.23.25-2.11.25-4.23-2.78-2.11-2.78-4.23,1.31-2.11,1.31-4.23,3.69-2.12,3.69-4.23-2.32-2.12-2.32-4.23-1.12-2.12-1.12-4.23-.44-2.12-.44-4.24.45-2.11.45-4.23-.58-3.52.93-5,2.91,2.92,5.06,2.92,2.15,1,4.3,1S521,900,523.16,900s2.15.76,4.3.76,2.15-3.13,4.31-3.13,2.15,1,4.31,1,2.15,3.77,4.3,3.77,2.16-4.65,4.31-4.65S546.84,899,549,899s2.15,1.18,4.3,1.18,2.16.31,4.32.31,2.15-.27,4.31-.27,3.33-2.75,4.87-1.24-1.56,2.68-1.56,4.79,3.59,2.11,3.59,4.22-5.11,2.11-5.11,4.22,1.57,2.12,1.57,4.23.55,2.11.55,4.23.78,2.11.78,4.22.62,2.11.62,4.22,1.53,2.11,1.53,4.22-1.73,2.12-1.73,4.23-2.42,2.11-2.42,4.23S563,943.88,563,946s.28,2.11.28,4.23,4.44,2.11,4.44,4.22-2.29,2.11-2.29,4.22-.29,2.12-.29,4.23,1.73,2.12,1.73,4.23-.79,2.11-.79,4.22-1.63,2.12-1.63,4.23-1.14,2.11-1.14,4.23-.23,2.11-.23,4.22,1.21,2.12,1.21,4.23,4.22,2.11,4.22,4.23-.14,2.11-.14,4.23-.7,2.11-.7,4.22-1.68,2.12-1.68,4.23-1.79,2.12-1.79,4.23-.75,2.11-.75,4.23,5.3,2.11,5.3,4.23-4.93,2.11-4.93,4.22,2.34,2.12,2.34,4.23,1.5,2.12,1.5,4.23-.65,2.11-.65,4.22-1.8,2.12-1.8,4.23-.18,2.12-.18,4.23,2.17,2.11,2.17,4.23-3.54,2.11-3.54,4.23,3.19,2.11,3.19,4.23-.86,2.11-.86,4.23,1.9,2.12,1.9,4.23.55,2.12.55,4.23-2.24,2.12-2.24,4.23-2.09,2.12-2.09,4.24a30.18,30.18,0,0,0,0,4.46C564.12,1083.31,566.66,1083.15,565.15,1084.64Z" transform="translate(114)"/><path class="cls-33" d="M1243.53,1081c-1.23,1.27-3.3,1.26-5.07,1.26s-1.77-4-3.54-4-1.77,1.09-3.55,1.09-1.77.16-3.54.16-1.77-2.2-3.55-2.2-1.77.2-3.54.2-1.77,4.19-3.54,4.19-1.77-4.73-3.55-4.73-1.77,1.59-3.54,1.59-1.78,3.55-3.55,3.55-4.06.35-5.3-.91,2.73-3.52,2.73-5.34-3.6-1.81-3.6-3.62,2.35-1.81,2.35-3.62,1.78-1.81,1.78-3.63-.87-1.81-.87-3.62-1-1.81-1-3.63,1.31-1.81,1.31-3.63.92-1.81.92-3.63-.2-1.81-.2-3.62-.08-1.81-.08-3.63-1.42-1.81-1.42-3.62,2.39-1.81,2.39-3.63-2.89-1.81-2.89-3.62,1.77-1.82,1.77-3.63-.81-1.82-.81-3.63-.6-1.82-.6-3.63.16-1.81.16-3.63,1.53-1.81,1.53-3.62-.59-1.82-.59-3.63-2.53-1.81-2.53-3.63,3.85-1.81,3.85-3.63-1.18-1.81-1.18-3.63-1.7-1.81-1.7-3.62.93-1.82.93-3.63,1.75-1.82,1.75-3.64-3.64-1.81-3.64-3.62.66-1.82.66-3.63.64-1.82.64-3.63-1.59-1.82-1.59-3.63,1.41-1.82,1.41-3.63,1.42-1.82,1.42-3.63.47-1.82.47-3.63-1.36-1.82-1.36-3.63-2.08-1.82-2.08-3.64,3.15-1.81,3.15-3.63.33-1.81.33-3.63-2.38-1.81-2.38-3.63,1.68-1.81,1.68-3.63-1.1-1.82-1.1-3.63,2.38-1.82,2.38-3.63-4.52-1.82-4.52-3.63,1.19-1.82,1.19-3.63,1.4-1.82,1.4-3.63-1.87-1.82-1.87-3.63,2.45-1.82,2.45-3.63.4-1.82.4-3.64-1.3-1.8-1.3-3.57-2.74-1.82-2.74-3.63,1.18-1.82,1.18-3.64.25-1.82.25-3.63,3.74-1.82,3.74-3.64-1.36-1.81-1.36-3.63-1.31-1.82-1.31-3.64,1-.34,2.26-1.64-.28-2.42,1.49-2.42,1.77-1.09,3.54-1.09,1.77,2.37,3.54,2.37,1.78-2.58,3.55-2.58,1.77,3.73,3.54,3.73,1.77-3.84,3.54-3.84,1.78.94,3.55.94,1.77,1.73,3.54,1.73,1.78.72,3.55.72,1.78-1.78,3.55-1.78.32.9,1.56,2.17,1.3-.14,1.3,1.68-.36,1.81-.36,3.62,1.14,1.81,1.14,3.62-1.66,1.81-1.66,3.63.2,1.81.2,3.62-.82,1.81-.82,3.63-.15,1.81-.15,3.63,2.08,1.81,2.08,3.63-1.66,1.81-1.66,3.62,1.91,1.81,1.91,3.63,1.6,1.81,1.6,3.62S1240,925.19,1240,927s.38,1.81.38,3.62.58,1.82.58,3.63-.54,1.82-.54,3.63-.84,1.82-.84,3.63,1.92,1.81,1.92,3.63,1.63,1.81,1.63,3.62.24,1.82.24,3.63-3.31,1.81-3.31,3.63,1.4,1.81,1.4,3.63,1.56,1.81,1.56,3.63-.18,1.81-.18,3.62-.75,1.82-.75,3.63,1.93,1.82,1.93,3.64.3,1.81.3,3.62-2.32,1.82-2.32,3.63-.73,1.82-.73,3.63.34,1.82.34,3.63-.91,1.82-.91,3.63,1.22,1.82,1.22,3.63-1.45,1.82-1.45,3.63v3.63c0,1.81-.62,1.82-.62,3.64s4.68,1.81,4.68,3.63.22,1.81.22,3.63-1.73,1.81-1.73,3.63-3.77,1.81-3.77,3.63,2.38,1.82,2.38,3.63-.79,1.82-.79,3.63,1.33,1.82,1.33,3.63.2,1.82.2,3.63-2,1.82-2,3.63-.72,1.82-.72,3.63,1.32,1.82,1.32,3.63.51,1.82.51,3.64.8,1.81.8,3.63-1.62,1.82-1.62,3.63,2.44,1.82,2.44,3.64,1.08,1.82,1.08,3.63-.54,1.82-.54,3.64-.88,1.81-.88,3.63.77,1.11,1.41,2.81C1245.2,1077.69,1244.8,1079.68,1243.53,1081Z" transform="translate(114)"/><path class="cls-33" d="M1576,1084.45c-1.33,1.29-1.8-1.74-3.65-1.74s-1.85,3.5-3.7,3.5-1.85.68-3.7.68-1.85.35-3.7.35-1.85-3.52-3.7-3.52-1.85.19-3.7.19-1.85,1.8-3.7,1.8h-3.69c-1.86,0-1.86.57-3.71.57s-3.3.45-4.63-.84-1-2.74-1-4.54,2.71-1.79,2.71-3.59-1.09-1.79-1.09-3.58-2.35-1.79-2.35-3.58,3.33-1.79,3.33-3.58-.61-1.79-.61-3.59-.46-1.79-.46-3.58-1-1.79-1-3.59,2.51-1.79,2.51-3.59-1.59-1.79-1.59-3.58-1.46-1.8-1.46-3.59,2.07-1.79,2.07-3.59-1.23-1.79-1.23-3.58.62-1.79.62-3.58-.63-1.8-.63-3.59-1.54-1.8-1.54-3.59,1.43-1.8,1.43-3.59v-3.59c0-1.8-.42-1.79-.42-3.58s2.13-1.8,2.13-3.59-1.19-1.79-1.19-3.59-1.57-1.79-1.57-3.59,3.53-1.79,3.53-3.59v-3.58c0-1.79-2.77-1.8-2.77-3.59s1.29-1.8,1.29-3.59.74-1.8.74-3.59,1.25-1.8,1.25-3.59.73-1.79.73-3.59-5-1.79-5-3.59,4.55-1.79,4.55-3.59-.3-1.79-.3-3.59-2.53-1.79-2.53-3.59,2.73-1.79,2.73-3.59-4.45-1.79-4.45-3.59,1.79-1.79,1.79-3.59,1.45-1.8,1.45-3.59-.8-1.8-.8-3.59.3-1.8.3-3.59-2.6-1.8-2.6-3.59.38-1.8.38-3.59,1.1-1.8,1.1-3.59,2.62-1.8,2.62-3.59-1.94-1.8-1.94-3.59.08-1.8.08-3.59.85-1.8.85-3.59-2.73-1.8-2.73-3.59,2.1-1.8,2.1-3.6-1.13-1.79-1.13-3.59-1.29-1.8-1.29-3.59,2.28-1.8,2.28-3.6.41-1.8.41-3.59-2.26-1.8-2.26-3.6,3.68-1.79,3.68-3.59-.29-1.8-.29-3.6-1-.5.32-1.76,0-.65,1.9-.65,1.85-1.49,3.7-1.49,1.85.81,3.7.81h3.7c1.85,0,1.85.06,3.7.06s1.84-.58,3.69-.58,1.85,1.49,3.7,1.49,1.85-.31,3.7-.31,1.86-.51,3.71-.51.46,0,1.8,1.31,3.71-.18,3.71,1.62-4.23,1.79-4.23,3.59.06,1.79.06,3.58,4.53,1.79,4.53,3.58-3.67,1.79-3.67,3.58,4.25,1.79,4.25,3.59-2.22,1.79-2.22,3.58.86,1.79.86,3.59,1.1,1.79,1.1,3.59-1.49,1.79-1.49,3.58-2.77,1.8-2.77,3.59-.11,1.79-.11,3.59-.66,1.79-.66,3.58,3.16,1.79,3.16,3.58-1.19,1.8-1.19,3.59.59,1.8.59,3.59,1.25,1.8,1.25,3.59-2.23,1.79-2.23,3.59,2.15,1.79,2.15,3.58.74,1.8.74,3.59-3.38,1.79-3.38,3.59-.44,1.79-.44,3.59,3.16,1.79,3.16,3.59.5,1.79.5,3.58-4.58,1.8-4.58,3.59,1.93,1.8,1.93,3.59-.59,1.8-.59,3.59,1.71,1.8,1.71,3.59-2.88,1.79-2.88,3.59.28,1.79.28,3.59.31,1.79.31,3.59,2.18,1.79,2.18,3.59-1.74,1.79-1.74,3.59,2.76,1.79,2.76,3.59-1.29,1.79-1.29,3.59,1.24,1.79,1.24,3.59.92,1.8.92,3.59-3.47,1.8-3.47,3.59,2.55,1.8,2.55,3.59-1.07,1.8-1.07,3.59,1.51,1.8,1.51,3.59-.58,1.8-.58,3.59-1.7,1.8-1.7,3.59-.66,1.8-.66,3.59,1.59,1.8,1.59,3.59-2.16,1.8-2.16,3.59,1.27,1.8,1.27,3.59.48,1.8.48,3.6-2.37,1.79-2.37,3.59,2.57,1.8,2.57,3.59,2.3,1.8,2.3,3.6-1.76,1.8-1.76,3.59-2.91,1.8-2.91,3.6.77,1.79.77,3.59-.43,2.19-.06,4S1577.25,1083.2,1576,1084.45Z" transform="translate(114)"/><path class="cls-33" d="M905.66,1079.2c-1.36,1.41-.61,2-2.57,2s-2-2.24-3.91-2.24-2,3-3.92,3-2,.41-3.91.41-2-1.84-3.92-1.84-2,1.31-3.91,1.31-2-3.28-3.92-3.28-2-.69-3.92-.69-1.95,1.33-3.91,1.33-2-1-3.92-1-2,1.27-3.92,1.27-2.94,2.77-4.3,1.37,1.71-2.39,1.71-4.41,1-2,1-4,.33-2,.33-4-1.35-2-1.35-4-1.12-2-1.12-4,1.58-2,1.58-4-4.1-2-4.1-4,3.94-2,3.94-4,1.27-2,1.27-4-6-2-6-4,4.36-2,4.36-4,.37-2,.37-4-2.54-2-2.54-4,.9-2,.9-4-2.77-2-2.77-4,4.38-2,4.38-4-2.59-2-2.59-4,.07-2,.07-4-1.33-2-1.33-4,5.14-2,5.14-4,.29-2,.29-4-2.47-2-2.47-4-3-2-3-4,1.4-2,1.4-4-2-2-2-4,2.51-2,2.51-4-2-2-2-4,5.49-2,5.49-4-.58-2-.58-4,.1-2,.1-4,.23-2,.23-4-3.71-2-3.71-4,2.38-2,2.38-4-.25-2-.25-4-1.54-2-1.54-4,.91-2,.91-4,.81-2,.81-4,.1-2,.1-4,.13-2,.13-4-1-2-1-4-1.17-2-1.17-4-.85-2-.85-4,1.4-2,1.4-4,2-2,2-4-2.39-2-2.39-4-.8-2-.8-4,3.29-2,3.29-4-4.77-2-4.77-4,3.49-2,3.49-4-.82-1.3.59-2.76.62-4,2.58-4,2,5.5,3.91,5.5,2-2.17,3.91-2.17,2,1.35,3.92,1.35,2,.63,3.92.63,2,.49,3.91.49h3.92c2,0,2-.84,3.91-.84s2-.76,3.92-.76,2-1.08,3.92-1.08,2-2.27,3.92-2.27a4.55,4.55,0,0,1,4,1.73c1.41,1.45,1,2.15,1,4.17s-1.46,2-1.46,4,2.26,2,2.26,4-2.44,2-2.44,4,.87,2,.87,4,.71,2,.71,4-3,2-3,4,2.21,2,2.21,4,1.19,2,1.19,4-3.46,2-3.46,4,3.13,2,3.13,4-3.86,2-3.86,4,2,2,2,4v4c0,2-2.17,2-2.17,4s2.12,2,2.12,4,.43,2,.43,4,2.29,2,2.29,4-1.93,2-1.93,4-2.5,2-2.5,4,2.16,2,2.16,4,2.9,2,2.9,4-.62,2-.62,4v4c0,2-3.29,2-3.29,4s4.17,2,4.17,4,.26,2,.26,4-3.82,2-3.82,4,2.66,2,2.66,4v4c0,2-.35,2-.35,4s-.18,2-.18,4-1.17,2-1.17,4,2.85,2,2.85,4-4.76,2-4.76,4,2.71,2,2.71,4v4c0,2-.23,2-.23,4s-2,2-2,4,2.63,2,2.63,4-2.11,2-2.11,4,2.41,2,2.41,4,1.19,2,1.19,4-1.29,2-1.29,4,.65,2,.65,4-1.12,2-1.12,4-3.91,2-3.91,4,5,2,5,4.05-.45,2-.43,4C908.74,1078,907.07,1077.75,905.66,1079.2Z" transform="translate(114)"/><path class="cls-34" d="M1957.22,948.71c-11.94,13.3-19.39-7.16-37.26-7.16s-17.87,12.11-35.73,12.11-17.87-18.26-35.74-18.26-17.87,4.55-35.73,4.55-17.87-1.88-35.74-1.88-17.86,2-35.73,2-17.87,9.46-35.74,9.46-17.86,7.71-35.73,7.71S1652,936,1634.09,936s-17.87,21.68-35.74,21.68-17.87-.67-35.73-.67-17.87-2.17-35.74-2.17-17.87-9.93-35.74-9.93-17.86-8.41-35.73-8.41-17.87,3-35.74,3-17.86,2.76-35.73,2.76-17.87,9.81-35.74,9.81-17.87,3.94-35.73,3.94-17.87-5.44-35.74-5.44-17.87,4.26-35.74,4.26-17.86-13.18-35.73-13.18-17.87-1.58-35.74-1.58-17.86,7-35.73,7-17.87-9.3-35.74-9.3-17.87,7.24-35.74,7.24-17.86-6.94-35.73-6.94-17.87-.35-35.74-.35S973,955,955.1,955s-17.87-14.71-35.74-14.71-17.86,2.86-35.73,2.86-17.87-6.85-35.74-6.85-17.86,6.07-35.73,6.07-17.87,16.37-35.73,16.37-17.87-20.85-35.74-20.85-17.87.69-35.74.69-17.86,4.31-35.73,4.31-17.87,9-35.73,9-17.87,7-35.74,7-17.87-19-35.73-19-17.87,7.89-35.74,7.89-17.87-2.86-35.74-2.86S472.67,957.7,454.8,957.7s-17.87-10.16-35.74-10.16-17.87-3.08-35.74-3.08-17.86,13.18-35.73,13.18-17.87-10.88-35.74-10.88S294,958.11,276.1,958.11s-17.86-12.64-35.73-12.64-17.87,11.32-35.74,11.32-17.87-14-35.74-14S151,948.2,133.15,948.2s-17.87-.06-35.74-.06S79.53,942,61.66,942s-17.87,14.75-35.74,14.75S3.29,959.58-8.65,946.28c-13.3-14.81,9-18.84,9-38.74s-25.92-27.23-12.63-42C-.38,852.2,8,864.1,25.91,864.1s17.86,8,35.73,8,17.87-9.33,35.73-9.33,17.87,11.09,35.74,11.09S151,875,168.84,875s17.87-16.45,35.74-16.45S222.44,868,240.31,868s17.87,9.78,35.74,9.78,17.86-3.66,35.73-3.66,17.87-8.57,35.73-8.57,17.87,6.26,35.74,6.26,17.87,4.53,35.74,4.53,17.86-8.69,35.73-8.69,17.87,3.83,35.74,3.83,17.86,2,35.73,2,17.87-15.32,35.73-15.32S579.79,867,597.66,867s17.87,7.3,35.74,7.3,17.86-8.19,35.73-8.19,17.87,5.29,35.74,5.29S722.74,869,740.6,869s17.87-12.82,35.74-12.82,17.87,14.27,35.74,14.27,17.86-4.72,35.73-4.72,17.87-1.86,35.74-1.86,17.87,7.43,35.74,7.43,17.87-7.61,35.73-7.61,17.87,10.81,35.74,10.81,17.87-11.47,35.74-11.47,17.87-7.18,35.74-7.18S1080.1,875.7,1098,875.7s17.87-11.81,35.73-11.81,17.87-6.57,35.74-6.57,17.87,20.83,35.74,20.83,17.86-8.53,35.73-8.53,17.87-3.88,35.73-3.88,17.87.25,35.74.25,17.86,9.57,35.73,9.57,17.87-1.5,35.74-1.5,17.87-6.46,35.74-6.46,17.87-1.36,35.74-1.36,17.86-6.41,35.73-6.41,17.87,1.29,35.74,1.29,17.87-3.33,35.74-3.33,17.87,2.37,35.74,2.37S1616.15,878,1634,878s17.87-15.37,35.74-15.37,17.87-2.17,35.74-2.17,17.86,8.19,35.73,8.19,17.87.82,35.74.82,17.87-2.71,35.74-2.71,17.9,11.24,35.77,11.24,17.87-9,35.74-9,17.87-8.81,35.75-8.81,23.92-5.87,35.86,7.43c13.3,14.81-1.19,19.75,3.16,39.17C1963.74,928.14,1970.51,933.9,1957.22,948.71Z" transform="translate(114)"/></g></g></g></svg>