<svg xmlns="http://www.w3.org/2000/svg" xmlns:xlink="http://www.w3.org/1999/xlink" width="680.18mm" height="385.7mm" viewBox="0 0 1928.08 1093.33"><defs><style>.cls-1{isolation:isolate;}.cls-2{fill:url(#linear-gradient);}.cls-3{fill:#96a65d;}.cls-4{fill:#6f8c30;}.cls-5{fill:#387404;mix-blend-mode:darken;}.cls-6{fill:#f2e641;}.cls-7{fill:#fff;}.cls-8{opacity:0.92;}.cls-9{opacity:0.77;}.cls-10{fill:#e1ab85;}.cls-11,.cls-12,.cls-16,.cls-17,.cls-18,.cls-19{fill:#0d0d0d;}.cls-12,.cls-16,.cls-17,.cls-18,.cls-19,.cls-30,.cls-33,.cls-34,.cls-35,.cls-36{stroke:#000;stroke-miterlimit:10;}.cls-12{stroke-width:2.34px;}.cls-13{fill:#736258;}.cls-14{fill:#f2d0e3;}.cls-15{fill:#333;}.cls-16{stroke-width:2.24px;}.cls-17{stroke-width:2.61px;}.cls-18{stroke-width:2.57px;}.cls-19{stroke-width:2.51px;}.cls-20{fill:#10735a;}.cls-21{fill:#a67c52;}.cls-22{fill:#b9121b;}.cls-23{fill:#4c1b1b;}.cls-24{fill:#8c6239;}.cls-25{fill:#be393a;}.cls-26{fill:#4d4d4d;}.cls-27{fill:#b88d1e;}.cls-28{fill:#8c8c80;}.cls-29{fill:#104639;}.cls-30{fill:#ff836a;stroke-width:0.87px;}.cls-31{fill:#f2dde3;}.cls-32{fill:#ed1c24;}.cls-33,.cls-34,.cls-35,.cls-36{fill:none;}.cls-33{stroke-width:0.67px;}.cls-34{stroke-width:0.77px;}.cls-35{stroke-width:0.64px;}.cls-36{stroke-width:0.73px;}.cls-37{fill:#754c24;}.cls-38{fill:url(#linear-gradient-2);}</style><linearGradient id="linear-gradient" x1="111.93" y1="1174.15" x2="2300.9" y2="-453.06" gradientUnits="userSpaceOnUse"><stop offset="0" stop-color="#4cacf7"/><stop offset="1" stop-color="#fff"/></linearGradient><linearGradient id="linear-gradient-2" x1="56.85" y1="739.72" x2="2014.46" y2="739.72" gradientTransform="matrix(1.01, 0.04, -0.03, 1.15, -44.27, 14.58)" gradientUnits="userSpaceOnUse"><stop offset="0" stop-color="#8c6239"/><stop offset="0.49" stop-color="#724922"/><stop offset="0.55" stop-color="#6f4721"/><stop offset="1" stop-color="#42210b"/></linearGradient></defs><g class="cls-1"><g id="Layer_1" data-name="Layer 1"><g id="bg10"><rect class="cls-2" x="5.5" width="1919" height="1080"/><ellipse class="cls-3" cx="1517.05" cy="802.29" rx="474.96" ry="184.79"/><ellipse class="cls-4" cx="541.5" cy="841.15" rx="575.5" ry="223.91"/><ellipse class="cls-5" cx="995.54" cy="1039.04" rx="1105.54" ry="236.29"/><path class="cls-6" d="M1893.72,162c0,1.48-84,.9-84.08,2.36s83.59,9.09,83.45,10.54-83.69-7.31-83.91-5.86,82.3,17.22,82,18.66-82.58-15.45-82.94-14,80.25,25.11,79.82,26.52-80.71-23.32-81.2-21.93,77.49,32.62,76.94,34-78.18-30.77-78.79-29.43,74.16,39.61,73.48,40.92-75.08-37.71-75.81-36.43,70.37,46,69.58,47.26-71.54-44.07-72.38-42.86,66.22,51.81,65.33,53-67.65-49.84-68.59-48.71,61.82,57,60.84,58.1-63.5-55-64.53-54,57.24,61.59,56.18,62.61-59.18-59.65-60.28-58.67,52.55,65.64,51.42,66.58-54.74-63.76-55.91-62.86,47.8,69.17,46.61,70-50.21-67.38-51.44-66.56,43,72.25,41.76,73-45.62-70.57-46.9-69.83,38.2,74.9,36.9,75.59-41-73.35-42.32-72.7,33.4,77.17,32,77.78-36.35-75.77-37.71-75.2,28.6,79.07,27.22,79.6-31.71-77.83-33.1-77.34,23.83,80.64,22.42,81.08-27-79.56-28.47-79.16S1770.45,306,1769,306.35s-22.41-81-23.85-80.68,14.36,82.85,12.91,83.13-17.78-82.14-19.24-81.9,9.68,83.53,8.21,83.73-13.17-83-14.63-82.84,5,83.93,3.56,84-8.59-83.61-10.07-83.53.46,84.09-1,84.13-4.06-83.95-5.53-83.95-4.08,84-5.54,83.95.44-84.05-1-84.13-8.61,83.65-10.07,83.53,5-83.9,3.57-84-13.19,83-14.64,82.84,9.65-83.49,8.21-83.73-17.8,82.18-19.24,81.9S1695,226,1693.54,225.67s-22.43,81-23.85,80.68,19-81.86,17.64-82.26-27.08,79.61-28.47,79.16,23.8-80.6,22.42-81.08-31.74,77.86-33.1,77.34,28.57-79,27.22-79.6-36.38,75.8-37.72,75.2,33.37-77.13,32.06-77.78-41,73.39-42.32,72.7,38.17-74.86,36.9-75.6-45.66,70.61-46.9,69.84,43-72.21,41.76-73-50.25,67.42-51.44,66.57,47.76-69.14,46.6-70-54.78,63.79-55.91,62.85,52.52-65.6,51.43-66.57-59.24,59.68-60.29,58.66,57.2-61.55,56.18-62.6-63.56,55-64.53,53.95S1643,197.12,1642.06,196s-67.7,49.86-68.59,48.69,66.17-51.77,65.34-53-71.6,44.1-72.39,42.86,70.32-46,69.59-47.26-75.14,37.73-75.82,36.43,74.11-39.59,73.49-40.92-78.24,30.79-78.79,29.43,77.43-32.59,76.94-34-80.78,23.34-81.2,21.93,80.17-25.09,79.82-26.52-82.65,15.46-82.94,14,82.23-17.19,82-18.65-83.76,7.33-83.91,5.86,83.52-9.06,83.45-10.54S1545,163.48,1545,162s84-.9,84.08-2.36-83.59-9.09-83.45-10.54,83.69,7.31,83.91,5.86-82.3-17.22-82-18.66,82.58,15.45,82.94,14-80.25-25.11-79.82-26.52,80.71,23.32,81.2,21.93-77.49-32.62-76.94-34,78.18,30.77,78.79,29.43-74.16-39.61-73.48-40.92S1635.28,138,1636,136.69s-70.37-46-69.58-47.26,71.54,44.07,72.38,42.86-66.22-51.81-65.33-53,67.65,49.84,68.59,48.71-61.82-57-60.84-58.1,63.5,55,64.53,54-57.24-61.59-56.18-62.61,59.18,59.65,60.28,58.67-52.55-65.64-51.42-66.58,54.74,63.76,55.91,62.86-47.8-69.17-46.61-70,50.21,67.38,51.44,66.56-43-72.25-41.76-73,45.62,70.57,46.9,69.83-38.2-74.9-36.9-75.59,41,73.35,42.32,72.7-33.4-77.17-32-77.78,36.35,75.77,37.71,75.2-28.6-79.07-27.22-79.6,31.71,77.83,33.1,77.34-23.83-80.64-22.42-81.08,27.05,79.56,28.47,79.16S1668.26,18,1669.69,17.65s22.41,81,23.85,80.68-14.36-82.85-12.91-83.13,17.78,82.14,19.24,81.9-9.68-83.53-8.21-83.73,13.17,83,14.63,82.84-5-83.93-3.56-84,8.59,83.61,10.07,83.53-.46-84.09,1-84.13,4.06,84,5.54,84,4.07-84,5.53-83.95-.44,84.05,1,84.13S1734.52,12,1736,12.16s-5,83.9-3.57,84.05,13.19-83,14.64-82.84-9.65,83.49-8.21,83.73,17.8-82.18,19.24-81.9S1743.74,98,1745.17,98.33s22.43-81,23.85-80.68-19,81.86-17.64,82.26,27.08-79.61,28.47-79.16-23.8,80.6-22.42,81.08,31.74-77.86,33.1-77.34-28.57,79-27.22,79.6,36.38-75.8,37.72-75.2S1767.66,106,1769,106.67s41-73.39,42.32-72.7-38.17,74.86-36.9,75.6,45.66-70.61,46.9-69.84-43,72.21-41.76,73,50.25-67.42,51.44-66.57-47.76,69.14-46.6,70,54.78-63.79,55.91-62.85-52.52,65.6-51.43,66.57,59.24-59.68,60.29-58.66-57.2,61.55-56.18,62.6,63.56-55,64.53-53.95-61.77,56.95-60.84,58.08,67.7-49.86,68.59-48.69-66.17,51.77-65.34,53,71.6-44.1,72.39-42.86-70.32,46-69.59,47.26,75.14-37.73,75.82-36.43-74.11,39.59-73.49,40.92,78.24-30.79,78.79-29.43-77.43,32.59-76.94,34,80.78-23.34,81.2-21.93-80.17,25.09-79.82,26.52,82.65-15.46,82.94-14-82.23,17.19-82,18.65,83.76-7.33,83.91-5.86-83.52,9.06-83.45,10.54S1893.72,160.52,1893.72,162Z"/><circle class="cls-7" cx="1672.59" cy="130.67" r="5.14"/><circle class="cls-7" cx="1735.26" cy="134.41" r="5.14"/><path class="cls-7" d="M1706.75,192.18l-11.3,3a.83.83,0,0,1,0-.15c-1.19-4.69,3-9.84,9.19-11.41s12.32,1,13.5,5.7c.81,3.23-.87,6.81-4.34,9.22Z"/><g id="cloud1" class="cls-8"><ellipse class="cls-7" cx="160.5" cy="155.5" rx="88.5" ry="70"/><ellipse class="cls-7" cx="249.5" cy="127" rx="66.5" ry="58.5"/><ellipse class="cls-7" cx="221.5" cy="234.5" rx="85.5" ry="67"/><ellipse class="cls-7" cx="114" cy="257.5" rx="55" ry="105" transform="matrix(0.57, -0.82, 0.82, 0.57, -162.47, 203.95)"/></g><g id="cloud2"><ellipse class="cls-7" cx="728.5" cy="162.61" rx="96.5" ry="79.11"/><ellipse class="cls-7" cx="812" cy="185.5" rx="83" ry="56"/><ellipse class="cls-7" cx="699.5" cy="256" rx="96.5" ry="43.5"/><ellipse class="cls-7" cx="893.5" cy="250" rx="121.5" ry="49.5"/><ellipse class="cls-7" cx="848" cy="163" rx="67" ry="49.5"/></g><g id="cloud3" class="cls-9"><ellipse class="cls-7" cx="1263.5" cy="135.5" rx="108.5" ry="64"/><ellipse class="cls-7" cx="1402.5" cy="185.5" rx="74.5" ry="60"/><ellipse class="cls-7" cx="1288.5" cy="208.5" rx="73.5" ry="46"/></g><ellipse class="cls-10" cx="1233.21" cy="551.3" rx="9.34" ry="9.55"/><g id="devilcow"><polygon class="cls-11" points="1393.83 449.4 1393.81 447.24 1391.9 446.23 1390 447.38 1390.01 449.54 1391.92 450.55 1393.83 449.4"/><polygon class="cls-12" points="1396.19 460.58 1396.05 457.47 1393.41 455.81 1390.91 457.26 1391.05 460.37 1393.69 462.04 1396.19 460.58"/><polygon class="cls-11" points="1351.02 478.74 1350.92 475.41 1348.01 473.77 1345.21 475.47 1345.31 478.81 1348.22 480.44 1351.02 478.74"/><polygon class="cls-12" points="1354 491.1 1353.89 487.76 1350.98 486.13 1348.18 487.83 1348.29 491.16 1351.19 492.8 1354 491.1"/><polygon class="cls-7" points="1407.01 393.23 1404.06 398.74 1368.03 378.47 1370.98 372.96 1407.01 393.23"/><rect class="cls-7" x="1339.16" y="450.51" width="4.75" height="28" transform="translate(-46.49 762.66) rotate(-31.22)"/><rect class="cls-7" x="1337.4" y="453" width="6.62" height="39.07" transform="translate(-50.76 763.39) rotate(-31.22)"/><rect class="cls-7" x="1381.82" y="427.66" width="5.87" height="33.47" transform="translate(-29.79 782.15) rotate(-31.22)"/><rect class="cls-7" x="1384.21" y="425.62" width="3.48" height="24.22" transform="translate(-26.17 781.8) rotate(-31.22)"/><polygon class="cls-13" points="1247.3 419.37 1249.63 419.88 1251.29 411.27 1248.95 410.77 1247.3 419.37"/><polygon class="cls-13" points="1287.51 392.93 1287.4 395.33 1279.95 394.85 1280.05 392.45 1287.51 392.93"/><polygon class="cls-13" points="1270.01 430.17 1274 419.19 1280.93 428.81 1276.77 407.11 1278.97 391.1 1272.41 388.68 1266.84 369.17 1266.95 389.37 1261.31 393.32 1267.93 408.22 1270.01 430.17"/><polygon class="cls-13" points="1298.73 419.45 1283.95 419.3 1289.05 433.43 1268.93 416.98 1250.11 411.92 1252.45 401.9 1235.73 384.65 1257.29 394.92 1265.77 389.31 1276.76 405.67 1298.73 419.45"/><rect class="cls-7" x="1287.37" y="396.28" width="104.38" height="51.99" transform="translate(-24.88 755.52) rotate(-31.22)"/><rect class="cls-7" x="1250.82" y="389.43" width="36.9" height="40.56" transform="translate(-28.55 717.26) rotate(-31.22)"/><rect class="cls-14" x="1272.67" y="412.88" width="28.28" height="46.29" transform="translate(1580.95 1762.48) rotate(-121.22)"/><ellipse class="cls-7" cx="1294.32" cy="429.76" rx="2.05" ry="6.22" transform="translate(-35.31 733.15) rotate(-31.22)"/><ellipse class="cls-7" cx="1279.62" cy="438.67" rx="2.84" ry="6.22" transform="translate(-42.06 726.82) rotate(-31.22)"/><ellipse cx="1259.72" cy="407.37" rx="3" ry="4" transform="translate(-28.71 711.97) rotate(-31.22)"/><ellipse cx="1272.21" cy="401.06" rx="3.23" ry="5.09" transform="matrix(0.86, -0.52, 0.52, 0.86, -23.64, 717.53)"/><polygon points="1261.51 402.65 1253.05 402.74 1253.02 401.78 1261.48 401.69 1261.51 402.65"/><polygon points="1270.04 392.04 1264.64 400.61 1263.65 399.97 1269.06 391.39 1270.04 392.04"/><polygon class="cls-13" points="1410.2 394.26 1406.65 400.89 1401.5 398 1405.06 391.36 1410.2 394.26"/><path class="cls-15" d="M1331.81,423.4c0,.74-7.81-1-7.81-1.53,0,1.83-5.12,6.79-5.12,8.84,0-.62-1.62-8.13-1.62-8.17,0-.73-7.25-2.54-7.25-2.42,0-.34,6.82-4.59,6.82-5.42,0,.33.64-6.28.64-8.73a55.58,55.58,0,0,1,5.82,6.3c0,1.39,7.65-3.08,7.65-.66,0-1.14-3.21,6.17-3.21,6C1327.73,418.76,1331.81,423.21,1331.81,423.4Z"/><path class="cls-15" d="M1365.24,430.36c0,.8-7,2.88-7,2.06,0,.53-4,3.31-4,4.7,0-.42-2.09-7.2-2.09-7.16,0-1.23-6.69-.46-6.69-1.15,0-1.2,5.73-4.89,5.73-6.33,0,2.57-.09-6.77-.09-4.11,0-.46,5.62.91,5.62,3.77,0-.9,6.64-3.67,6.64-3.14,0-.89-2.25,7.56-2.25,6.2C1361.05,426.26,1365.24,432.24,1365.24,430.36Z"/><path class="cls-15" d="M1360,401.14c-.58,0-3-5.51-2.43-5.51a60.13,60.13,0,0,1-6-1.33c-.08,0,4.61-3.78,4-3.78,0,0-.45-5.91.38-5.91-.71,0,6.06,3.17,5.25,3.17-1.27,0,4.85-2.33,5.18-2.33-1.33,0-2.84,5.75-2,5.75s3.8,4.47,4.39,4.47-5,.38-5,.38C1364.26,396.05,1359.52,401.14,1360,401.14Z"/></g><g id="devilcow-2" data-name="devilcow"><polygon class="cls-11" points="1697.88 386.35 1696.82 384.58 1697.88 382.81 1700 382.81 1701.06 384.58 1700 386.35 1697.88 386.35"/><polygon class="cls-16" points="1701.48 396.64 1700.05 394.04 1701.38 391.38 1704.14 391.32 1705.57 393.93 1704.24 396.59 1701.48 396.64"/><polygon class="cls-11" points="1747.31 389.12 1745.75 386.35 1747.31 383.58 1750.44 383.58 1752 386.35 1750.44 389.12 1747.31 389.12"/><polygon class="cls-16" points="1750.99 400.68 1749.43 397.9 1750.99 395.13 1754.12 395.13 1755.68 397.9 1754.12 400.68 1750.99 400.68"/><polygon class="cls-7" points="1659.35 347.05 1664.48 350.08 1683.85 315.73 1678.72 312.69 1659.35 347.05"/><rect class="cls-7" x="1745.75" y="359.47" width="4.53" height="26.71" transform="translate(3496.03 745.65) rotate(180)"/><rect class="cls-7" x="1749.5" y="360.32" width="6.32" height="37.27" transform="translate(3505.32 757.92) rotate(180)"/><rect class="cls-7" x="1700" y="361.82" width="5.6" height="31.93" transform="translate(3405.6 755.56) rotate(180)"/><rect class="cls-7" x="1696.87" y="361.38" width="3.32" height="23.1" transform="translate(3397.07 745.87) rotate(180)"/><polygon class="cls-13" points="1802.58 289.39 1800.92 290.96 1795.32 284.76 1796.97 283.19 1802.58 289.39"/><polygon class="cls-13" points="1756.7 287.7 1757.97 289.61 1763.81 285.54 1762.54 283.63 1756.7 287.7"/><polygon class="cls-13" points="1789.39 309.44 1780.7 302.44 1779.8 313.72 1772.47 293.96 1762.76 281.99 1766.91 276.77 1761.8 258.1 1771.7 274.63 1778.26 275.06 1780.23 290.5 1789.39 309.44"/><polygon class="cls-13" points="1760.66 314.89 1772.64 307.46 1775.46 321.5 1783.74 298.13 1796.59 284.7 1789.73 277.69 1794.85 255.34 1782.33 274.38 1772.64 274 1771.76 292.78 1760.66 314.89"/><rect class="cls-7" x="1678.95" y="312.59" width="99.58" height="49.61" transform="translate(3457.48 674.78) rotate(180)"/><rect class="cls-7" x="1762.28" y="273.03" width="35.2" height="38.7" transform="translate(3559.75 584.75) rotate(180)"/><rect class="cls-14" x="1765.09" y="300.44" width="26.98" height="44.16" transform="translate(1456.06 2101.09) rotate(-90)"/><ellipse class="cls-7" cx="1769.36" cy="321.12" rx="1.96" ry="5.93"/><ellipse class="cls-7" cx="1785.75" cy="321.12" rx="2.71" ry="5.93"/><ellipse cx="1786.5" cy="285.74" rx="2.86" ry="3.82"/><ellipse cx="1773.2" cy="286.77" rx="3.08" ry="4.85"/><polygon points="1782.71 282.78 1789.66 278.67 1789.21 277.87 1782.26 281.98 1782.71 282.78"/><polygon points="1770.5 278.34 1779.15 282.66 1779.64 281.64 1770.98 277.32 1770.5 278.34"/><polygon class="cls-13" points="1657.25 349.46 1663.43 353.12 1666.2 348.21 1660.01 344.56 1657.25 349.46"/><path class="cls-15" d="M1736.18,335.46c0,1.58,5.87-3.51,5.87-4.53,0-.46,7.1,1.87,7.1,1.8,0,.88-2.54-6.14-2.54-5.86,0,.13,4.32-7.9,4.32-8.57,0,2.83-7.44,1.84-7.44,1.89,0-1.38-4.43-6.14-4.43-7.77,0,.59-2.06,9.38-2.06,9s-7.06,2.79-7.06,2.38c0,0,6.17,5,6.17,2.21C1736.11,327,1736.18,335.54,1736.18,335.46Z"/><path class="cls-15" d="M1712.35,358.62c0-1.71,5.61-6.33,5.61-3.69,0-.33,6.12,1.05,6.12,0,0,2.55-1.67-3.79-1.67-3.16,0-2.11,4.35-8.17,4.35-7.23s-6.64,1.08-6.64-.84c0-.93-3.43-4.59-3.43-6.42,0-.22-2.43,8-2.43,5.85,0,1.13-6.48,2.89-6.48,5.24,0-.89,5.14,2.33,5.14,1.49C1712.92,350.19,1712.35,357.17,1712.35,358.62Z"/><path class="cls-15" d="M1701.9,330.27c-.12,0-1.55-5.63-.53-5.63-1.68,0,2.32-3.92,4.09-3.92-1.83,0-5.82-.89-6.9-.89.46,0-2-5.14-1.7-5.14,0,0-3,5.07-3.66,5.07,1.74,0-4.51.74-4.79.74,1.57,0,5.18,4,4.71,4-.18,0-1.68,5.6-1.37,5.6,1.15,0,4.55-2.58,4.44-2.58C1695.48,327.55,1702.4,330.27,1701.9,330.27Z"/></g><g id="devilcow-3" data-name="devilcow"><polygon class="cls-11" points="168.87 350.73 168.45 353.1 170.34 354.59 172.65 353.71 173.07 351.35 171.18 349.86 168.87 350.73"/><polygon class="cls-17" points="168.53 338.03 168.06 341.46 170.61 343.81 173.64 342.73 174.11 339.29 171.56 336.95 168.53 338.03"/><polygon class="cls-11" points="221.56 327.25 221.01 330.91 223.86 333.29 227.26 331.99 227.82 328.32 224.97 325.95 221.56 327.25"/><polygon class="cls-17" points="220.79 313.14 220.23 316.81 223.08 319.18 226.49 317.89 227.04 314.22 224.19 311.85 220.79 313.14"/><polygon class="cls-7" points="143.18 409.49 147.51 404.06 182.83 433.46 178.5 438.89 143.18 409.49"/><rect class="cls-7" x="226.43" y="329.15" width="5.28" height="31.13" transform="translate(565.68 585.52) rotate(159.19)"/><rect class="cls-7" x="227.91" y="314.39" width="7.36" height="43.43" transform="translate(567.5 567.98) rotate(159.19)"/><rect class="cls-7" x="174.51" y="339.43" width="6.53" height="37.2" transform="translate(471.17 629.52) rotate(159.19)"/><rect class="cls-7" x="173.21" y="351.61" width="3.87" height="26.92" transform="translate(468.58 644.09) rotate(159.19)"/><polygon class="cls-13" points="323.04 412.99 320.59 411.96 317.05 421.04 319.5 422.06 323.04 412.99"/><polygon class="cls-13" points="273.77 433.82 274.37 431.21 282.42 433.24 281.82 435.84 273.77 433.82"/><polygon class="cls-13" points="300.38 396.62 293.81 407.83 288.16 395.92 288.36 420.47 282.74 437.53 289.42 441.49 291.59 463.95 295.52 441.84 302.49 438.66 298.24 421.04 300.38 396.62"/><polygon class="cls-13" points="266.83 402.57 282.95 405.7 280.22 389.24 298.91 411.26 318.46 420.57 313.89 431.05 328.72 453.27 307.2 437.72 296.81 442.14 288.08 422.05 266.83 402.57"/><rect class="cls-7" x="164.74" y="362.38" width="116.03" height="57.8" transform="translate(570 677.87) rotate(159.19)"/><rect class="cls-7" x="276.57" y="396.59" width="41.02" height="45.09" transform="translate(723.71 705.35) rotate(159.19)"/><rect class="cls-14" x="267.47" y="361.12" width="31.43" height="51.45" transform="translate(544.16 -15.32) rotate(69.19)"/><ellipse class="cls-7" cx="273.72" cy="392.18" rx="2.28" ry="6.91" transform="translate(-121.49 122.86) rotate(-20.81)"/><ellipse class="cls-7" cx="291.58" cy="385.39" rx="3.15" ry="6.91" transform="translate(-117.92 128.76) rotate(-20.81)"/><ellipse cx="307.05" cy="423.62" rx="3.33" ry="4.45" transform="translate(-130.49 136.75) rotate(-20.81)"/><ellipse cx="292.12" cy="428" rx="3.59" ry="5.65" transform="translate(-133.02 131.74) rotate(-20.81)"/><polygon points="304.14 428.41 313.42 430.01 313.25 431.07 303.98 429.48 304.14 428.41"/><polygon points="292.68 438.31 300.32 430.01 301.26 430.92 293.63 439.21 292.68 438.31"/><polygon class="cls-13" points="139.89 407.73 145.11 401.19 150.16 405.39 144.94 411.93 139.89 407.73"/><path class="cls-15" d="M231.68,391.21c0-1.36,8.34,1.32,8.34,1.74,0-1,6.78-6.26,6.78-6.26,0-1.08.2,10.14.2,11.69,0-.16,7.28,4.21,7.28,3.21,0,.26-8.22.87-8.22,1,0,2.75-2.28,12.08-2.28,8.73,0,2.67-5.28-5.92-5.28-4.63,0-.86-8.69,0-8.69.36,0-1,4.95-6.37,4.95-9.66C234.76,399.26,231.68,389.79,231.68,391.21Z"/><path class="cls-15" d="M196.53,377.58c0,.68,7.62-1.9,7.62.19,0-2.1,5.57-4.66,5.57-7.18,0,1.53.91,9.43.91,7.74,0,2,6.87,5.76,6.87,5.88,0,2-7.06,2.85-7.06,3.79,0-1.36-1.33,8.37-1.33,6.6,0,2-5.27-4.05-5.27-6.62,0-1-7.69-.1-7.69.78,0,3,3.8-7.72,3.8-3.31C200,381.37,196.53,377.46,196.53,377.58Z"/><path class="cls-15" d="M195.43,410.28c-.47,0,.86,6.49,1.52,6.49,1.8,0,7.21,2.6,7.64,2.6-1.93,0-5.39,3.25-5.66,3.25-.5,0-1.15,6.59-2.53,6.59,1.94,0-3.25-4.48-5.17-4.48,2.47,0-4,1.47-4.49,1.47-1.87,0,1.85-6,2.4-6,1.16,0-2.33-5.68-3.58-5.68-.11,0,7.14.76,6.71.76S195.63,410.28,195.43,410.28Z"/></g><g id="devilcow-4" data-name="devilcow"><polygon class="cls-11" points="536.8 37.84 538.02 39.88 536.8 41.92 534.35 41.92 533.13 39.88 534.35 37.84 536.8 37.84"/><polygon class="cls-18" points="532.65 25.99 534.29 28.99 532.76 32.05 529.58 32.11 527.94 29.11 529.47 26.05 532.65 25.99"/><polygon class="cls-11" points="479.88 34.64 481.68 37.84 479.88 41.03 476.28 41.03 474.48 37.84 476.28 34.64 479.88 34.64"/><polygon class="cls-18" points="475.64 21.34 477.44 24.54 475.64 27.73 472.04 27.73 470.24 24.54 472.04 21.34 475.64 21.34"/><polygon class="cls-7" points="581.16 83.09 575.25 79.6 552.95 119.16 558.86 122.65 581.16 83.09"/><rect class="cls-7" x="476.47" y="38.03" width="5.21" height="30.76"/><rect class="cls-7" x="470.09" y="24.89" width="7.27" height="42.92"/><rect class="cls-7" x="527.91" y="29.32" width="6.45" height="36.76"/><rect class="cls-7" x="534.13" y="39.98" width="3.82" height="26.6"/><polygon class="cls-13" points="416.25 149.48 418.15 147.67 424.61 154.81 422.7 156.62 416.25 149.48"/><polygon class="cls-13" points="469.07 151.42 467.61 149.22 460.88 153.91 462.35 156.11 469.07 151.42"/><polygon class="cls-13" points="431.44 126.39 441.44 134.45 442.47 121.47 450.91 144.21 462.1 158 457.32 164 463.19 185.5 451.8 166.47 444.24 165.97 441.99 148.2 431.44 126.39"/><polygon class="cls-13" points="464.51 120.12 450.72 128.67 447.47 112.5 437.94 139.41 423.14 154.87 431.04 162.95 425.15 188.68 439.56 166.76 450.72 167.2 451.73 145.57 464.51 120.12"/><rect class="cls-7" x="443.94" y="65.65" width="114.66" height="57.11"/><rect class="cls-7" x="422.12" y="123.76" width="40.53" height="44.56"/><rect class="cls-14" x="428.35" y="85.91" width="31.06" height="50.84" transform="translate(555.22 -332.55) rotate(90)"/><ellipse class="cls-7" cx="454.5" cy="112.94" rx="2.25" ry="6.83"/><ellipse class="cls-7" cx="435.62" cy="112.94" rx="3.12" ry="6.83"/><ellipse cx="434.76" cy="153.68" rx="3.29" ry="4.4"/><ellipse cx="450.08" cy="152.49" rx="3.55" ry="5.59"/><polygon points="439.12 157.09 431.12 161.82 431.64 162.75 439.64 158.01 439.12 157.09"/><polygon points="453.18 162.2 443.22 157.23 442.66 158.39 452.63 163.37 453.18 162.2"/><polygon class="cls-13" points="583.58 80.31 576.46 76.1 573.28 81.75 580.39 85.96 583.58 80.31"/><path class="cls-15" d="M492.7,95.52c0-.91-6.76,5.3-6.76,5.54,0,1.74-8.18-3.57-8.18-3.69,0,2.31,2.93,9,2.93,12,0-3.17-5,6.16-5,6.86,0-3.49,8.57-2.71,8.57-.77,0-.72,5.11,4.45,5.11,5.63,0-1.48,2.36-9.47,2.36-9.38,0,1.75,8.13-2.22,8.13-1.28,0,.32-7.1-7-7.1-5.19C492.78,103.78,492.7,96.8,492.7,95.52Z"/><path class="cls-15" d="M520.13,72.81c0-2.18-6.45.8-6.45,1.13,0,1.42-7-2.29-7-2.33s1.92,6.14,1.92,9.63c0-1.8-5,3-5,3.32,0,2.22,7.65,2,7.65,1,0,1.36,3.95,5.19,3.95,5.13,0,2.35,2.8-4.94,2.8-6.84,0,.9,7.46-1,7.46.09,0-2.33-5.92-4.27-5.92-6.14C519.48,78.76,520.13,71.07,520.13,72.81Z"/><path class="cls-15" d="M533.62,102.41c-1.19,0-.77,6.48.28,6.48-1.25,0-6.29,4.51-5,4.51,1.48,0,5.21,1,6.71,1-1.07,0,3.11,5.92,2.81,5.92-1.07,0,1.26-5.84,2.32-5.84s8-.86,6-.86c.11,0-3.23-4.64-3.8-4.64s2.19-6.45.8-6.45c1.58,0-4.53,3-4.57,3S532.24,102.41,533.62,102.41Z"/></g><g id="devilcow-5" data-name="devilcow"><polygon class="cls-11" points="1554.91 194.44 1556.11 196.43 1554.91 198.42 1552.53 198.42 1551.34 196.43 1552.53 194.44 1554.91 194.44"/><polygon class="cls-19" points="1550.87 182.88 1552.47 185.81 1550.98 188.8 1547.87 188.86 1546.27 185.93 1547.77 182.94 1550.87 182.88"/><polygon class="cls-11" points="1499.36 191.33 1501.12 194.44 1499.36 197.56 1495.84 197.56 1494.09 194.44 1495.84 191.33 1499.36 191.33"/><polygon class="cls-19" points="1495.22 178.34 1496.98 181.46 1495.22 184.57 1491.71 184.57 1489.95 181.46 1491.71 178.34 1495.22 178.34"/><polygon class="cls-7" points="1598.22 238.62 1592.45 235.21 1570.68 273.82 1576.45 277.23 1598.22 238.62"/><rect class="cls-7" x="1496.03" y="194.63" width="5.09" height="30.02"/><rect class="cls-7" x="1489.8" y="181.81" width="7.1" height="41.89"/><rect class="cls-7" x="1546.24" y="186.13" width="6.3" height="35.88"/><rect class="cls-7" x="1552.31" y="196.54" width="3.73" height="25.97"/><polygon class="cls-13" points="1437.25 303.41 1439.11 301.65 1445.41 308.62 1443.55 310.38 1437.25 303.41"/><polygon class="cls-13" points="1488.81 305.31 1487.38 303.16 1480.82 307.75 1482.24 309.89 1488.81 305.31"/><polygon class="cls-13" points="1452.07 280.88 1461.84 288.75 1462.85 276.07 1471.08 298.28 1482 311.73 1477.33 317.59 1483.07 338.58 1471.95 320 1464.58 319.52 1462.37 302.17 1452.07 280.88"/><polygon class="cls-13" points="1484.36 274.75 1470.9 283.1 1467.72 267.32 1458.42 293.59 1443.97 308.68 1451.69 316.56 1445.94 341.68 1460.01 320.28 1470.9 320.71 1471.88 299.6 1484.36 274.75"/><rect class="cls-7" x="1464.27" y="221.59" width="111.92" height="55.75"/><rect class="cls-7" x="1442.98" y="278.31" width="39.56" height="43.49"/><rect class="cls-14" x="1449.06" y="241.37" width="30.32" height="49.63" transform="translate(1730.41 -1198.04) rotate(90)"/><ellipse class="cls-7" cx="1474.59" cy="267.75" rx="2.2" ry="6.66"/><ellipse class="cls-7" cx="1456.16" cy="267.75" rx="3.04" ry="6.66"/><ellipse cx="1455.31" cy="307.52" rx="3.21" ry="4.29"/><ellipse cx="1470.27" cy="306.36" rx="3.46" ry="5.45"/><polygon points="1459.58 310.85 1451.76 315.46 1452.27 316.37 1460.09 311.75 1459.58 310.85"/><polygon points="1473.3 315.84 1463.57 310.98 1463.03 312.12 1472.76 316.98 1473.3 315.84"/><polygon class="cls-13" points="1600.58 235.9 1593.63 231.79 1590.52 237.31 1597.47 241.41 1600.58 235.9"/><path class="cls-15" d="M1511.87,251.41c0,1.85-6.59,6.71-6.59,5.5,0-1.78-8-3.14-8-2.36,0,.22,2.86,9.66,2.86,6.34,0,2.84-4.86,7.76-4.86,7.09,0,3,8.37.76,8.37-.38,0,1.1,5,6.77,5,8.95,0-1.26,2.31-7.41,2.31-8.56,0-1.48,7.94-2.91,7.94-3.09,0-.54-6.94-4.45-6.94-3.67C1512,259,1511.87,251,1511.87,251.41Z"/><path class="cls-15" d="M1538.65,227.44c0,1.08-6.3,1.44-6.3,3.31,0-1.71-6.88-3.91-6.88-1.31,0-.52,1.88,6.35,1.88,4.33,0,.57-4.89,7.51-4.89,6.66,0,2.34,7.46,1,7.46,2.18,0-2.39,3.86,4.07,3.86,5.1,0,1.68,2.73-6.06,2.73-5.21,0-2,7.28-2.89,7.28-2.48,0-1.47-5.78-6.2-5.78-6.41C1538,235.27,1538.65,226.83,1538.65,227.44Z"/><path class="cls-15" d="M1550.74,257.47c1.25,0,.8,6.33-.11,6.33.5,0-2.72,4.4-3,4.4a49.31,49.31,0,0,1,6.28,1c-1.61,0,1.48,5.77,1.52,5.77,1.25,0,4-5.7,3.19-5.7a53.25,53.25,0,0,0,6.23-.83c.58,0-4.43-4.53-3.41-4.53-.43,0-.8-6.3.59-6.3.51,0-6.79,2.91-5.38,2.91C1556.13,260.53,1551.69,257.47,1550.74,257.47Z"/></g><g id="sad"><ellipse class="cls-10" cx="1159.73" cy="683.46" rx="40.95" ry="9.49" transform="translate(324.81 1739.39) rotate(-82.18)"/><ellipse class="cls-10" cx="1154.81" cy="719.17" rx="19.9" ry="4.99" transform="translate(346.18 1813.2) rotate(-85.44)"/><path class="cls-20" d="M1214.81,768.33,1196,890c-20.78-19-34.62-67.67-34.62-121.68,0-71.32,24.14-130,53.47-130s53.46,58.7,53.46,130c0,52-12.81,99.16-32.46,119.57Z"/><path d="M1309.17,557.5c-4.19,8-27.77-13.64-35.41-8.78s7.56,28.73-.08,33.59-22.82-19-30.46-14.16,1.85,35.49-7.2,35.8-1.62-30.89-9.55-35.23-21.5,20.5-29.43,16.17,5.64-29.17-2.29-33.5-30,18.82-34.74,11.1,25.94-17,25.64-26.19-28.58-8.28-28.87-17.47,28-10.1,27.69-19.29-31.54-16.33-27.28-24.48,27.77,13.63,35.41,8.77-7.56-28.73.07-33.59,22.83,19,30.47,14.16-1.85-35.49,7.19-35.79,1.63,30.89,9.56,35.22,21.5-20.5,29.43-16.16-5.64,29.16,2.29,33.5,30-18.83,34.74-11.11-25.94,17-25.64,26.19,28.58,8.28,28.87,17.47-30.33,17.1-26.14,25.28C1290.16,552.14,1313.42,549.34,1309.17,557.5Z"/><path d="M1271.09,557.42c-4.19,8-27.77-13.63-35.41-8.77s7.56,28.73-.08,33.59-22.82-19-30.46-14.16,1.85,35.49-7.2,35.79-1.62-30.89-9.55-35.22-21.5,20.5-29.43,16.17,5.64-29.17-2.29-33.5-30,18.82-34.74,11.1,25.94-17,25.64-26.19S1119,528,1118.7,518.76s28-10.1,27.69-19.3-31.54-16.32-27.28-24.47,27.77,13.63,35.41,8.77-7.56-28.73.07-33.59,22.83,19,30.47,14.16-1.85-35.49,7.19-35.8,1.63,30.89,9.56,35.23,21.5-20.5,29.43-16.17-5.64,29.17,2.29,33.5,30-18.82,34.74-11.1-25.94,17-25.64,26.19,28.58,8.28,28.87,17.47-30.33,17.09-26.14,25.28C1252.08,552.07,1275.35,549.27,1271.09,557.42Z"/><ellipse class="cls-10" cx="1268.39" cy="676.68" rx="10.14" ry="40.95" transform="translate(-80.26 178.83) rotate(-7.82)"/><ellipse class="cls-10" cx="1215.02" cy="545.67" rx="69.67" ry="70.6"/><ellipse class="cls-10" cx="1273.29" cy="716.28" rx="5.04" ry="19.91"/><ellipse class="cls-10" cx="1274.22" cy="737.17" rx="8.56" ry="8.75"/><ellipse class="cls-21" cx="1191.04" cy="886.24" rx="7.57" ry="22.34"/><ellipse class="cls-21" cx="1239.58" cy="884.19" rx="5.85" ry="18.84"/><rect class="cls-22" x="1234.86" y="894" width="10.01" height="16.3" rx="2.6"/><rect class="cls-23" x="1234.72" y="901.45" width="20.71" height="10.39" rx="2.6"/><rect class="cls-22" x="1184.97" y="896.48" width="11.64" height="20.68" rx="2.6"/><rect class="cls-23" x="1173.76" y="906.4" width="23.71" height="12.07" rx="2.6"/><ellipse class="cls-24" cx="1188.61" cy="544.58" rx="6.14" ry="8.76"/><ellipse class="cls-24" cx="1221.45" cy="544.87" rx="6.71" ry="9.93"/><ellipse class="cls-25" cx="1217.73" cy="642.99" rx="41.46" ry="26.57"/><path class="cls-26" d="M1192,661.6a4.31,4.31,0,0,0,8.61,0V624.67a4.31,4.31,0,1,0-8.61,0Z"/><ellipse class="cls-25" cx="1260.41" cy="647.57" rx="11.9" ry="19.86" transform="translate(-58.06 1166.8) rotate(-48.69)"/><path class="cls-26" d="M1232.84,663.19a3.88,3.88,0,1,0,7.76,0V623.36a3.88,3.88,0,1,0-7.76,0Z"/><ellipse cx="1214.88" cy="494.64" rx="61.1" ry="26.72"/><ellipse cx="1166.32" cy="510.96" rx="30.85" ry="12.67" transform="matrix(0.6, -0.8, 0.8, 0.6, 61.52, 1144.06)"/><ellipse cx="1268.29" cy="513.25" rx="8.68" ry="30.85" transform="translate(-55.49 859.07) rotate(-36.67)"/><ellipse class="cls-27" cx="1236.86" cy="661.53" rx="3.71" ry="3.8"/><ellipse class="cls-28" cx="1236.86" cy="661.82" rx="0.86" ry="0.88"/><ellipse class="cls-27" cx="1196.32" cy="660.21" rx="3.43" ry="3.36"/><ellipse class="cls-28" cx="1196.32" cy="660.8" rx="0.57" ry="0.73"/><path class="cls-29" d="M1185.63,708l15,.6c-.13,20.74-6.88,37.62-15,37.62s-15-17.25-15-38.22Z"/><ellipse class="cls-25" cx="1170.56" cy="647.44" rx="19.1" ry="12.26" transform="translate(40.98 1363.99) rotate(-61.34)"/><ellipse class="cls-10" cx="1153.27" cy="738.89" rx="8.56" ry="8.75"/><ellipse class="cls-30" cx="1209.14" cy="588.68" rx="12" ry="9.5"/></g><g id="goodcow"><ellipse class="cls-13" cx="615.46" cy="576.01" rx="2.2" ry="5.86" transform="translate(-82.38 1048.86) rotate(-77.23)"/><ellipse class="cls-13" cx="582.39" cy="576.49" rx="4.86" ry="2.16" transform="translate(-185.06 289.2) rotate(-24.19)"/><path class="cls-14" d="M639.9,648.79a.89.89,0,0,0,1.78,0v-7.38a.89.89,0,1,0-1.78,0Z"/><path class="cls-14" d="M637.88,647.94a.89.89,0,0,0,1.78,0v-7.37a.89.89,0,0,0-1.78,0Z"/><path class="cls-14" d="M635.11,648.25a1.14,1.14,0,0,0,2.28,0v-6.87a1.14,1.14,0,1,0-2.28,0Z"/><ellipse class="cls-14" cx="639.21" cy="641.58" rx="4.98" ry="5.56"/><path class="cls-7" d="M608.58,653.14a3,3,0,0,0,5.93,0V637.85a3,3,0,1,0-5.93,0Z"/><path class="cls-13" d="M609.48,654.41a1.87,1.87,0,0,0,1.87,1.87h2a1.88,1.88,0,1,0,0-3.75h-2a1.88,1.88,0,0,0-1.87,1.88Z"/><path class="cls-7" d="M605.18,658a3.71,3.71,0,0,0,7.42,0V634.57a3.71,3.71,0,0,0-7.42,0Z"/><path class="cls-13" d="M604.62,660.08a2.61,2.61,0,0,0,2.62,2.61h3.31a2.62,2.62,0,0,0,0-5.23h-3.31a2.62,2.62,0,0,0-2.62,2.62Z"/><path class="cls-7" d="M646.77,653.64a2.46,2.46,0,0,0,4.92,0v-13a2.46,2.46,0,1,0-4.92,0Z"/><path class="cls-13" d="M647.49,654.74a1.51,1.51,0,0,0,1.5,1.51h1.5a1.51,1.51,0,0,0,0-3H649a1.5,1.5,0,0,0-1.5,1.5Z"/><path class="cls-7" d="M642.25,660.74a3.34,3.34,0,1,0,6.67,0V641.49a3.34,3.34,0,1,0-6.67,0Z"/><ellipse class="cls-7" cx="677.37" cy="618.01" rx="3.09" ry="19.37" transform="translate(-221.75 438.14) rotate(-31.06)"/><ellipse class="cls-7" cx="636.38" cy="617.01" rx="40.22" ry="26.47"/><path class="cls-7" d="M585.1,588.08a13.33,13.33,0,0,0,26.65,0V574.43a13.33,13.33,0,0,0-26.65,0Z"/><path class="cls-31" d="M580,599.28A11.92,11.92,0,0,0,592,611.19h13.68a11.92,11.92,0,1,0,0-23.83H592A11.92,11.92,0,0,0,580,599.28Z"/><ellipse class="cls-7" cx="603.25" cy="596.28" rx="1.74" ry="4.82"/><ellipse class="cls-7" cx="595.27" cy="595.55" rx="2.27" ry="5.42"/><path class="cls-13" d="M641.34,663.66a2.61,2.61,0,0,0,2.61,2.61h3.31a2.61,2.61,0,1,0,0-5.22H644a2.61,2.61,0,0,0-2.61,2.61Z"/><ellipse cx="593.38" cy="573.65" rx="2.4" ry="2.67"/><ellipse cx="602.27" cy="573.72" rx="2.08" ry="2.32"/><ellipse class="cls-7" cx="686.6" cy="633.29" rx="3.35" ry="4.92" transform="translate(-244.07 553.73) rotate(-37.8)"/><ellipse class="cls-32" cx="604.63" cy="606.56" rx="1.14" ry="1.94" transform="translate(-225.66 396.51) rotate(-30.89)"/><path class="cls-33" d="M606,603.22a8.48,8.48,0,0,1-4.42,2.71,12.54,12.54,0,0,1-10.33-2.09"/><ellipse class="cls-15" cx="655.98" cy="615.54" rx="8.61" ry="4.85" transform="translate(-238.87 707.4) rotate(-49.04)"/><ellipse class="cls-15" cx="632.87" cy="598.97" rx="4.88" ry="8.39" transform="translate(-234.14 686.11) rotate(-49.16)"/><ellipse class="cls-15" cx="626.43" cy="625.16" rx="3.99" ry="9.48" transform="translate(-67.62 1174.28) rotate(-83.29)"/></g><g id="goodcow-2" data-name="goodcow"><ellipse class="cls-13" cx="451.43" cy="620.94" rx="2.55" ry="6.8" transform="translate(-253.96 923.89) rotate(-77.23)"/><ellipse class="cls-13" cx="413.06" cy="621.5" rx="5.64" ry="2.51" transform="matrix(0.91, -0.41, 0.41, 0.91, -218.37, 223.78)"/><path class="cls-14" d="M479.79,705.39a1,1,0,0,0,2.07,0v-8.56a1,1,0,0,0-2.07,0Z"/><path class="cls-14" d="M477.45,704.41a1,1,0,0,0,2.06,0v-8.56a1,1,0,0,0-2.06,0Z"/><path class="cls-14" d="M474.23,704.77a1.33,1.33,0,0,0,2.65,0v-8a1.33,1.33,0,0,0-2.65,0Z"/><ellipse class="cls-14" cx="478.99" cy="697.03" rx="5.78" ry="6.45"/><path class="cls-7" d="M443.45,710.44a3.44,3.44,0,0,0,6.88,0V692.69a3.44,3.44,0,1,0-6.88,0Z"/><path class="cls-13" d="M444.49,711.91a2.18,2.18,0,0,0,2.18,2.17H449a2.17,2.17,0,1,0,0-4.34h-2.28a2.18,2.18,0,0,0-2.18,2.17Z"/><path class="cls-7" d="M439.5,716.1a4.31,4.31,0,0,0,8.62,0V688.9a4.31,4.31,0,0,0-8.62,0Z"/><path class="cls-13" d="M438.86,718.49a3,3,0,0,0,3,3h3.84a3,3,0,0,0,0-6.06h-3.84a3,3,0,0,0-3,3Z"/><path class="cls-7" d="M487.77,711a2.85,2.85,0,1,0,5.7,0V695.94a2.85,2.85,0,1,0-5.7,0Z"/><path class="cls-13" d="M488.6,712.3a1.74,1.74,0,0,0,1.74,1.74h1.74a1.74,1.74,0,0,0,0-3.48h-1.74a1.74,1.74,0,0,0-1.74,1.74Z"/><path class="cls-7" d="M482.51,719.26a3.87,3.87,0,0,0,7.74,0V696.92a3.87,3.87,0,0,0-7.74,0Z"/><ellipse class="cls-7" cx="523.27" cy="669.68" rx="3.58" ry="22.47" transform="translate(-270.51 366.03) rotate(-31.06)"/><ellipse class="cls-7" cx="475.7" cy="668.52" rx="46.67" ry="30.71"/><path class="cls-7" d="M416.2,635a15.47,15.47,0,0,0,30.93,0V619.11a15.47,15.47,0,0,0-30.93,0Z"/><path class="cls-31" d="M410.32,647.94a13.82,13.82,0,0,0,13.83,13.82H440a13.82,13.82,0,1,0,0-27.64H424.15a13.83,13.83,0,0,0-13.83,13.82Z"/><ellipse class="cls-7" cx="437.26" cy="644.47" rx="2.01" ry="5.6"/><ellipse class="cls-7" cx="428.01" cy="643.61" rx="2.63" ry="6.29"/><path class="cls-13" d="M481.46,722.64a3,3,0,0,0,3,3h3.84a3,3,0,0,0,0-6.07h-3.84a3,3,0,0,0-3,3Z"/><ellipse cx="425.82" cy="618.21" rx="2.78" ry="3.1"/><ellipse cx="436.13" cy="618.29" rx="2.41" ry="2.7"/><ellipse class="cls-7" cx="533.98" cy="687.41" rx="3.88" ry="5.71" transform="translate(-309.27 471.54) rotate(-37.8)"/><ellipse class="cls-32" cx="438.86" cy="656.4" rx="1.32" ry="2.25" transform="translate(-274.76 318.47) rotate(-30.89)"/><path class="cls-34" d="M440.45,652.51a9.81,9.81,0,0,1-5.14,3.15,14.58,14.58,0,0,1-12-2.42"/><ellipse class="cls-15" cx="498.45" cy="666.81" rx="9.99" ry="5.63" transform="translate(-331.85 606.1) rotate(-49.04)"/><ellipse class="cls-15" cx="471.63" cy="647.59" rx="5.67" ry="9.74" transform="matrix(0.65, -0.76, 0.76, 0.65, -326.72, 580.95)"/><ellipse class="cls-15" cx="464.16" cy="677.98" rx="4.63" ry="11" transform="translate(-263.39 1059.77) rotate(-83.29)"/></g><g id="goodcow-3" data-name="goodcow"><ellipse class="cls-13" cx="781.52" cy="611.64" rx="2.11" ry="5.63" transform="translate(12.22 1238.57) rotate(-77.23)"/><ellipse class="cls-13" cx="749.79" cy="612.1" rx="4.66" ry="2.07" transform="translate(-184.96 360.91) rotate(-24.19)"/><path class="cls-14" d="M805,681.47a.85.85,0,1,0,1.7,0V674.4a.85.85,0,1,0-1.7,0Z"/><path class="cls-14" d="M803,680.66a.86.86,0,0,0,1.71,0v-7.07a.86.86,0,1,0-1.71,0Z"/><path class="cls-14" d="M800.38,681a1.1,1.1,0,0,0,2.19,0v-6.59a1.1,1.1,0,1,0-2.19,0Z"/><ellipse class="cls-14" cx="804.32" cy="674.56" rx="4.78" ry="5.34"/><path class="cls-7" d="M774.93,685.64a2.84,2.84,0,1,0,5.68,0V671a2.84,2.84,0,0,0-5.68,0Z"/><path class="cls-13" d="M775.79,686.86a1.79,1.79,0,0,0,1.79,1.8h1.89a1.8,1.8,0,1,0,0-3.59h-1.89a1.79,1.79,0,0,0-1.79,1.79Z"/><path class="cls-7" d="M771.66,690.33a3.57,3.57,0,0,0,7.13,0v-22.5a3.57,3.57,0,0,0-7.13,0Z"/><path class="cls-13" d="M771.13,692.3a2.5,2.5,0,0,0,2.5,2.51h3.18a2.51,2.51,0,1,0,0-5h-3.18a2.5,2.5,0,0,0-2.5,2.5Z"/><path class="cls-7" d="M811.57,686.13a2.36,2.36,0,0,0,4.72,0V673.65a2.36,2.36,0,1,0-4.72,0Z"/><path class="cls-13" d="M812.26,687.19a1.45,1.45,0,0,0,1.44,1.44h1.44a1.45,1.45,0,0,0,0-2.89H813.7a1.45,1.45,0,0,0-1.44,1.45Z"/><path class="cls-7" d="M807.23,692.94a3.2,3.2,0,0,0,6.4,0V674.47a3.2,3.2,0,0,0-6.4,0Z"/><ellipse class="cls-7" cx="840.93" cy="651.94" rx="2.96" ry="18.58" transform="translate(-215.8 527.4) rotate(-31.06)"/><ellipse class="cls-7" cx="801.6" cy="650.98" rx="38.59" ry="25.39"/><path class="cls-7" d="M752.39,623.22a12.79,12.79,0,0,0,25.58,0V610.13a12.79,12.79,0,0,0-25.58,0Z"/><path class="cls-31" d="M747.53,634A11.44,11.44,0,0,0,759,645.4H772.1a11.44,11.44,0,0,0,0-22.87H759A11.43,11.43,0,0,0,747.53,634Z"/><ellipse class="cls-7" cx="769.81" cy="631.09" rx="1.67" ry="4.63"/><ellipse class="cls-7" cx="762.16" cy="630.38" rx="2.18" ry="5.2"/><path class="cls-13" d="M806.35,695.74a2.52,2.52,0,0,0,2.51,2.51H812a2.51,2.51,0,0,0,0-5h-3.18a2.52,2.52,0,0,0-2.51,2.51Z"/><ellipse cx="760.34" cy="609.38" rx="2.3" ry="2.57"/><ellipse cx="768.87" cy="609.45" rx="2" ry="2.23"/><ellipse class="cls-7" cx="849.79" cy="666.6" rx="3.21" ry="4.72" transform="translate(-230.24 660.74) rotate(-37.8)"/><ellipse class="cls-32" cx="771.13" cy="640.96" rx="1.09" ry="1.86" transform="translate(-219.69 486.88) rotate(-30.89)"/><path class="cls-35" d="M772.44,637.75a8.07,8.07,0,0,1-4.25,2.6,12.07,12.07,0,0,1-9.9-2"/><ellipse class="cls-15" cx="820.41" cy="649.57" rx="8.26" ry="4.66" transform="translate(-207.93 843.29) rotate(-49.04)"/><ellipse class="cls-15" cx="798.23" cy="633.67" rx="4.68" ry="8.05" transform="translate(-203.16 823.23) rotate(-49.16)"/><ellipse class="cls-15" cx="792.05" cy="658.8" rx="3.83" ry="9.1" transform="translate(45.25 1368.48) rotate(-83.29)"/></g><g id="goodcow-4" data-name="goodcow"><ellipse class="cls-13" cx="722.43" cy="689.94" rx="2.55" ry="6.8" transform="translate(-110.18 1241.93) rotate(-77.23)"/><ellipse class="cls-13" cx="684.06" cy="690.5" rx="5.64" ry="2.51" transform="translate(-222.85 340.86) rotate(-24.19)"/><path class="cls-14" d="M750.79,774.39a1,1,0,0,0,2.07,0v-8.56a1,1,0,0,0-2.07,0Z"/><path class="cls-14" d="M748.45,773.41a1,1,0,0,0,2.06,0v-8.56a1,1,0,1,0-2.06,0Z"/><path class="cls-14" d="M745.23,773.77a1.33,1.33,0,0,0,2.65,0v-8a1.33,1.33,0,0,0-2.65,0Z"/><ellipse class="cls-14" cx="749.99" cy="766.03" rx="5.78" ry="6.45"/><path class="cls-7" d="M714.45,779.44a3.44,3.44,0,1,0,6.88,0V761.69a3.44,3.44,0,1,0-6.88,0Z"/><path class="cls-13" d="M715.49,780.91a2.18,2.18,0,0,0,2.18,2.17H720a2.17,2.17,0,1,0,0-4.34h-2.28a2.18,2.18,0,0,0-2.18,2.17Z"/><path class="cls-7" d="M710.5,785.1a4.31,4.31,0,1,0,8.62,0V757.9a4.31,4.31,0,0,0-8.62,0Z"/><path class="cls-13" d="M709.86,787.49a3,3,0,0,0,3,3h3.84a3,3,0,0,0,0-6.06h-3.84a3,3,0,0,0-3,3Z"/><path class="cls-7" d="M758.77,780a2.85,2.85,0,1,0,5.7,0V764.94a2.85,2.85,0,1,0-5.7,0Z"/><path class="cls-13" d="M759.6,781.3a1.74,1.74,0,0,0,1.74,1.74h1.74a1.74,1.74,0,1,0,0-3.48h-1.74a1.74,1.74,0,0,0-1.74,1.74Z"/><path class="cls-7" d="M753.51,788.26a3.87,3.87,0,0,0,7.74,0V765.92a3.87,3.87,0,0,0-7.74,0Z"/><ellipse class="cls-7" cx="794.27" cy="738.68" rx="3.58" ry="22.47" transform="matrix(0.86, -0.52, 0.52, 0.86, -267.25, 515.76)"/><ellipse class="cls-7" cx="746.7" cy="737.52" rx="46.67" ry="30.71"/><path class="cls-7" d="M687.2,704a15.47,15.47,0,0,0,30.93,0V688.11a15.47,15.47,0,0,0-30.93,0Z"/><path class="cls-31" d="M681.32,716.94a13.82,13.82,0,0,0,13.83,13.82H711a13.82,13.82,0,1,0,0-27.64H695.15a13.83,13.83,0,0,0-13.83,13.82Z"/><ellipse class="cls-7" cx="708.26" cy="713.47" rx="2.01" ry="5.6"/><ellipse class="cls-7" cx="699.01" cy="712.61" rx="2.63" ry="6.29"/><path class="cls-13" d="M752.46,791.64a3,3,0,0,0,3,3h3.84a3,3,0,0,0,0-6.07h-3.84a3,3,0,0,0-3,3Z"/><ellipse cx="696.82" cy="687.21" rx="2.78" ry="3.1"/><ellipse cx="707.13" cy="687.29" rx="2.41" ry="2.7"/><ellipse class="cls-7" cx="804.98" cy="756.41" rx="3.88" ry="5.71" transform="translate(-294.69 652.12) rotate(-37.8)"/><ellipse class="cls-32" cx="709.86" cy="725.4" rx="1.32" ry="2.25" transform="translate(-271.74 467.4) rotate(-30.89)"/><path class="cls-34" d="M711.45,721.51a9.81,9.81,0,0,1-5.14,3.15,14.58,14.58,0,0,1-12-2.42"/><ellipse class="cls-15" cx="769.45" cy="735.81" rx="9.99" ry="5.63" transform="translate(-290.61 834.51) rotate(-49.04)"/><ellipse class="cls-15" cx="742.63" cy="716.59" rx="5.67" ry="9.74" transform="translate(-285.13 809.86) rotate(-49.16)"/><ellipse class="cls-15" cx="735.16" cy="746.98" rx="4.63" ry="11" transform="translate(-92.57 1389.86) rotate(-83.29)"/></g><g id="goodcow-5" data-name="goodcow"><ellipse class="cls-13" cx="578.83" cy="684.68" rx="2.42" ry="6.46" transform="translate(-216.9 1097.79) rotate(-77.23)"/><ellipse class="cls-13" cx="542.39" cy="685.21" rx="5.35" ry="2.38" transform="translate(-233.12 282.36) rotate(-24.19)"/><path class="cls-14" d="M605.76,764.87a1,1,0,1,0,2,0v-8.12a1,1,0,0,0-2,0Z"/><path class="cls-14" d="M603.54,763.94a1,1,0,0,0,2,0v-8.12a1,1,0,0,0-2,0Z"/><path class="cls-14" d="M600.48,764.28a1.26,1.26,0,0,0,2.52,0v-7.56a1.26,1.26,0,0,0-2.52,0Z"/><ellipse class="cls-14" cx="605.01" cy="756.93" rx="5.49" ry="6.13"/><path class="cls-7" d="M571.26,769.66a3.27,3.27,0,1,0,6.53,0V752.82a3.27,3.27,0,1,0-6.53,0Z"/><path class="cls-13" d="M572.24,771.06a2.07,2.07,0,0,0,2.07,2.07h2.17a2.07,2.07,0,0,0,0-4.13h-2.17a2.07,2.07,0,0,0-2.07,2.06Z"/><path class="cls-7" d="M567.51,775a4.09,4.09,0,1,0,8.18,0V749.21a4.09,4.09,0,1,0-8.18,0Z"/><path class="cls-13" d="M566.89,777.31a2.88,2.88,0,0,0,2.88,2.88h3.65a2.88,2.88,0,0,0,0-5.76h-3.65a2.88,2.88,0,0,0-2.88,2.88Z"/><path class="cls-7" d="M613.33,770.22a2.71,2.71,0,0,0,5.42,0V755.89a2.71,2.71,0,0,0-5.42,0Z"/><path class="cls-13" d="M614.12,771.43a1.66,1.66,0,0,0,1.66,1.66h1.65a1.66,1.66,0,0,0,0-3.31h-1.65a1.66,1.66,0,0,0-1.66,1.65Z"/><path class="cls-7" d="M608.35,778a3.67,3.67,0,1,0,7.34,0V756.83a3.67,3.67,0,0,0-7.34,0Z"/><ellipse class="cls-7" cx="647.05" cy="730.96" rx="3.4" ry="21.34" transform="translate(-284.38 438.69) rotate(-31.06)"/><ellipse class="cls-7" cx="601.88" cy="729.87" rx="44.31" ry="29.16"/><path class="cls-7" d="M545.38,698a14.69,14.69,0,1,0,29.37,0V683a14.69,14.69,0,0,0-29.37,0Z"/><path class="cls-31" d="M539.8,710.32a13.13,13.13,0,0,0,13.13,13.13H568a13.13,13.13,0,0,0,0-26.25H552.93a13.12,13.12,0,0,0-13.13,13.12Z"/><ellipse class="cls-7" cx="565.38" cy="707.03" rx="1.91" ry="5.31"/><ellipse class="cls-7" cx="556.59" cy="706.21" rx="2.5" ry="5.97"/><path class="cls-13" d="M607.34,781.26a2.87,2.87,0,0,0,2.88,2.87h3.65a2.88,2.88,0,1,0,0-5.75h-3.65a2.88,2.88,0,0,0-2.88,2.88Z"/><ellipse cx="554.51" cy="682.09" rx="2.64" ry="2.95"/><ellipse cx="564.3" cy="682.17" rx="2.29" ry="2.56"/><ellipse class="cls-7" cx="657.22" cy="747.8" rx="3.69" ry="5.42" transform="translate(-320.42 559.75) rotate(-37.8)"/><ellipse class="cls-32" cx="566.9" cy="718.35" rx="1.25" ry="2.13" transform="translate(-288.41 393) rotate(-30.89)"/><path class="cls-36" d="M568.4,714.67a9.36,9.36,0,0,1-4.87,3,13.82,13.82,0,0,1-11.38-2.3"/><ellipse class="cls-15" cx="623.48" cy="728.24" rx="9.49" ry="5.35" transform="translate(-335.17 721.67) rotate(-49.04)"/><ellipse class="cls-15" cx="598.02" cy="709.99" rx="5.38" ry="9.25" transform="translate(-330.19 698.16) rotate(-49.16)"/><ellipse class="cls-15" cx="590.92" cy="738.84" rx="4.39" ry="10.45" transform="translate(-211.88 1239.42) rotate(-83.29)"/></g><g id="bridge"><path class="cls-37" d="M228.13,1079.63c-1.31,1.33-2-2.06-3.87-2.06s-1.88-.12-3.75-.12-1.87,2.7-3.75,2.7-1.87-3.5-3.74-3.5-1.88.89-3.75.89-1.88,4.8-3.75,4.8-1.88-2.15-3.75-2.15-1.88-.14-3.75-.14-1.88.79-3.75.79-1.88-1.74-3.75-1.74-1.88,3-3.76,3-2.73-1-4-2.31,1.76-2.19,1.76-4.08-3.71-1.9-3.71-3.8,2.06-1.89,2.06-3.79,1-1.9,1-3.79,1.2-1.9,1.2-3.79-.07-1.9-.07-3.79-4.89-1.9-4.89-3.79,4.94-1.9,4.94-3.8-3.34-1.89-3.34-3.79,2.1-1.9,2.1-3.8-.22-1.89-.22-3.79-2.45-1.9-2.45-3.79,2.48-1.9,2.48-3.79-1.42-1.9-1.42-3.8-1-1.89-1-3.79,1.58-1.9,1.58-3.8-.6-1.89-.6-3.79.35-1.9.35-3.79,1.17-1.9,1.17-3.8-.63-1.9-.63-3.8.95-1.89.95-3.79,1.77-1.9,1.77-3.8-.79-1.89-.79-3.79-2.52-1.9-2.52-3.8,3.43-1.9,3.43-3.79-.71-1.9-.71-3.8-.33-1.9-.33-3.8-3.54-1.89-3.54-3.79,3.75-1.9,3.75-3.8-4.93-1.9-4.93-3.79.12-1.9.12-3.8,4.6-1.9,4.6-3.8-1.23-1.9-1.23-3.8-1.53-1.9-1.53-3.79,2.36-1.9,2.36-3.8.18-1.9.18-3.79-.13-1.9-.13-3.8-4-1.9-4-3.8,5.24-1.9,5.24-3.79-.49-1.9-.49-3.8.4-1.9.4-3.8-1.35-1.9-1.35-3.8-1.18-1.9-1.18-3.8,2.7-1.9,2.7-3.8-4-1.9-4-3.8-.76-1.9-.76-3.8-.26-1.9-.26-3.8,4.65-1.9,4.65-3.8-5.32-4-4-5.41,3.5,1.89,5.37,1.89,1.87-.78,3.75-.78,1.87-.38,3.74-.38,1.88,1.19,3.75,1.19,1.88-2.93,3.75-2.93,1.88,1.94,3.75,1.94,1.88-1.74,3.75-1.74,1.88,1.11,3.75,1.11,1.88.86,3.75.86,1.88,3.13,3.75,3.13,1.88-2.32,3.76-2.32.39.31,1.72,1.65,2.5-.12,2.5,1.77,2.24,1.9,2.24,3.8-1.61,1.89-1.61,3.79-.58,1.9-.58,3.79-2.82,1.9-2.82,3.79,4.35,1.9,4.35,3.79-1.16,1.9-1.16,3.79-3.86,1.9-3.86,3.8,1.54,1.89,1.54,3.79,1.81,1.9,1.81,3.8-1,1.89-1,3.79-.54,1.9-.54,3.79,1.65,1.9,1.65,3.79-.3,1.9-.3,3.8-1.59,1.89-1.59,3.79,4.33,1.9,4.33,3.8-1.49,1.89-1.49,3.79-3.74,1.9-3.74,3.79,1.23,1.9,1.23,3.8,3.25,1.9,3.25,3.8-.7,1.89-.7,3.79-3,1.9-3,3.8-.36,1.89-.36,3.79.4,1.9.4,3.8.3,1.9.3,3.79,4.07,1.9,4.07,3.8-1.72,1.9-1.72,3.8-2.19,1.89-2.19,3.79,3.61,1.9,3.61,3.8-5,1.9-5,3.79,1.77,1.9,1.77,3.8-2.24,1.9-2.24,3.8.65,1.9.65,3.8,2.19,1.9,2.19,3.79.17,1.9.17,3.8-.24,1.9-.24,3.79,0,1.9,0,3.8-.82,1.9-.82,3.8,0,1.9,0,3.79.16,1.9.16,3.8,2.66,1.9,2.66,3.8.7,1.9.7,3.8-2.56,1.9-2.56,3.8-3,1.9-3,3.8,2,1.9,2,3.8-1.52,1.9-1.52,3.8,1.9,1.9,1.9,3.8,1.45,1.64,1.88,3.5A3.71,3.71,0,0,1,228.13,1079.63Z"/><path class="cls-37" d="M1935.11,1102.61c-1.54,1.54-4.29-1-6.47-1s-2.18-.06-4.36-.06-2.18-3-4.36-3-2.18,4.34-4.36,4.34-2.18.14-4.36.14-2.19-2.62-4.37-2.62-2.18,2.17-4.36,2.17-2.18-5.15-4.36-5.15-2.18,1.38-4.37,1.38-2.18,4.84-4.37,4.84-.58-3.84-2.13-5.38.83.08.83-2.1-3.81-2.17-3.81-4.34-1.89-2.17-1.89-4.34,1.77-2.18,1.77-4.35-.66-2.17-.66-4.34,1.47-2.18,1.47-4.35-1.55-2.17-1.55-4.34,1.57-2.17,1.57-4.34-2.07-2.17-2.07-4.34,3.34-2.17,3.34-4.34-4.62-2.17-4.62-4.35.89-2.17.89-4.34-.21-2.17-.21-4.35.12-2.17.12-4.34,3.87-2.17,3.87-4.34-1.87-2.17-1.87-4.34-.31-2.17-.31-4.34-1.78-2.18-1.78-4.35,2.94-2.17,2.94-4.35.25-2.17.25-4.34,0-2.17,0-4.34-2.29-2.17-2.29-4.35.8-2.17.8-4.34-1.63-2.18-1.63-4.35,2.55-2.17,2.55-4.34,3.47-2.18,3.47-4.35-1.28-2.17-1.28-4.35,0-2.17,0-4.34-2.08-2.17-2.08-4.35-2.38-2.17-2.38-4.34,4.93-2.18,4.93-4.35-.77-2.17-.77-4.35-.9-2.17-.9-4.34.78-2.18.78-4.35-3.12-2.18-3.12-4.35-1.54-2.17-1.54-4.35,5.85-2.17,5.85-4.34-6.24-2.18-6.24-4.35,3.68-2.18,3.68-4.35-3-2.18-3-4.35,2.1-2.17,2.1-4.34-1.86-2.18-1.86-4.35,1.72-2.18,1.72-4.35-1.31-2.17-1.31-4.35,1.42-2.17,1.42-4.35-1.52-2.17-1.52-4.35.7-2.17.7-4.35,2.22-2.17,2.22-4.35-2.45-2.17-2.45-4.34,4.67-2.18,4.67-4.36-.78-2.18-.78-4.35-3.65-2.78-2.11-4.32,2.13-1.13,4.32-1.13,2.17-1.39,4.35-1.39,2.18,2.4,4.37,2.4,2.18-3,4.36-3,2.18,3.76,4.36,3.76,2.18,2.16,4.36,2.16,2.19-.07,4.37-.07,2.18-6,4.36-6,2.18.28,4.37.28,2.18,3.9,4.36,3.9,1.61-1.18,3.16.36,2.09.95,2.09,3.13-4,2.17-4,4.34,4.88,2.17,4.88,4.34-3.17,2.18-3.17,4.35,4.7,2.17,4.7,4.34-5.29,2.18-5.29,4.35,3.73,2.17,3.73,4.34-1.34,2.17-1.34,4.34,2.68,2.17,2.68,4.34-5.34,2.17-5.34,4.34,4,2.17,4,4.35,1.21,2.17,1.21,4.34-.15,2.17-.15,4.35-3.33,2.17-3.33,4.34,1.31,2.17,1.31,4.34,1.55,2.17,1.55,4.34-3.58,2.17-3.58,4.34,1,2.18,1,4.35,0,2.17,0,4.35.14,2.17.14,4.34.44,2.17.44,4.34-3.7,2.17-3.7,4.35,2.88,2.17,2.88,4.34,3.23,2.18,3.23,4.35.1,2.17.1,4.34-5.56,2.18-5.56,4.35,2.43,2.17,2.43,4.35,3.48,2.17,3.48,4.34-4.51,2.17-4.51,4.35-.65,2.17-.65,4.34,4.3,2.18,4.3,4.35-.69,2.17-.69,4.35-3,2.17-3,4.34-.4,2.18-.4,4.35,2.68,2.18,2.68,4.35-2.31,2.17-2.31,4.35-1,2.17-1,4.34,3.43,2.18,3.43,4.35-.25,2.18-.25,4.35-.85,2.18-.85,4.35.9,2.17.9,4.34-.64,2.18-.64,4.35,2.73,2.18,2.73,4.35-1.24,2.17-1.24,4.35-4.81,2.17-4.81,4.35,5.65,2.17,5.65,4.35-5.08,2.17-5.08,4.35,1.83,2.17,1.83,4.35.27,2.17.27,4.34,2.59,2.18,2.59,4.36-1.83,1.92-1,3.94C1935.36,1099.08,1936.65,1101.07,1935.11,1102.61Z"/><path class="cls-37" d="M569.15,1084.64c-1.53,1.51-1.3,1.44-3.45,1.44s-2.15-2.81-4.3-2.81-2.16-.34-4.31-.34-2.15,3.29-4.3,3.29-2.16-3-4.31-3-2.15,2-4.31,2-2.15,1-4.31,1-2.15-4.08-4.3-4.08-2.16.39-4.31.39-2.15,3.8-4.31,3.8-2.15.21-4.31.21-2.16.21-4.31.21-1.47-1.09-3-2.6-1.19-.78-1.19-2.89,2.6-2.11,2.6-4.22-.71-2.11-.71-4.22-4.63-2.12-4.63-4.23,4.94-2.11,4.94-4.23-1.28-2.11-1.28-4.22,1.31-2.11,1.31-4.22-.13-2.11-.13-4.22.65-2.12.65-4.23.45-2.11.45-4.23S515,1041.15,515,1039s-2.05-2.11-2.05-4.23,1.11-2.11,1.11-4.22-1.08-2.11-1.08-4.22-1.43-2.12-1.43-4.23,5-2.12,5-4.23-2-2.11-2-4.22,2.36-2.12,2.36-4.23-5.88-2.11-5.88-4.23,2.95-2.11,2.95-4.22,2.45-2.12,2.45-4.23-2.08-2.11-2.08-4.23-.28-2.11-.28-4.23,1.18-2.11,1.18-4.22,1-2.12,1-4.23-4.61-2.12-4.61-4.23-.86-2.11-.86-4.23,2.2-2.11,2.2-4.23-2.07-2.11-2.07-4.22,3-2.12,3-4.23.33-2.12.33-4.23-3.1-2.11-3.1-4.22,5.91-2.12,5.91-4.23-.48-2.12-.48-4.23-3.15-2.11-3.15-4.23.25-2.11.25-4.23-2.78-2.11-2.78-4.23,1.31-2.11,1.31-4.23,3.69-2.12,3.69-4.23-2.32-2.12-2.32-4.23-1.12-2.12-1.12-4.23-.44-2.12-.44-4.24.45-2.11.45-4.23-.58-3.52.93-5,2.91,2.92,5.06,2.92,2.15,1,4.3,1,2.15-2.63,4.31-2.63,2.15.76,4.3.76,2.15-3.13,4.31-3.13,2.15,1,4.31,1,2.15,3.77,4.3,3.77,2.16-4.65,4.31-4.65,2.15,1.24,4.31,1.24,2.15,1.18,4.3,1.18,2.16.31,4.32.31,2.15-.27,4.31-.27,3.33-2.75,4.87-1.24-1.56,2.68-1.56,4.79,3.59,2.11,3.59,4.22-5.11,2.11-5.11,4.22,1.57,2.12,1.57,4.23.55,2.11.55,4.23.78,2.11.78,4.22.62,2.11.62,4.22,1.53,2.11,1.53,4.22-1.73,2.12-1.73,4.23-2.42,2.11-2.42,4.23-1.59,2.11-1.59,4.22.28,2.11.28,4.23,4.44,2.11,4.44,4.22-2.29,2.11-2.29,4.22-.29,2.12-.29,4.23,1.73,2.12,1.73,4.23-.79,2.11-.79,4.22-1.63,2.12-1.63,4.23-1.14,2.11-1.14,4.23-.23,2.11-.23,4.22,1.21,2.12,1.21,4.23,4.22,2.11,4.22,4.23-.14,2.11-.14,4.23-.7,2.11-.7,4.22-1.68,2.12-1.68,4.23-1.79,2.12-1.79,4.23-.75,2.11-.75,4.23,5.3,2.11,5.3,4.23-4.93,2.11-4.93,4.22,2.34,2.12,2.34,4.23,1.5,2.12,1.5,4.23-.65,2.11-.65,4.22-1.8,2.12-1.8,4.23-.18,2.12-.18,4.23,2.17,2.11,2.17,4.23-3.54,2.11-3.54,4.23,3.19,2.11,3.19,4.23-.86,2.11-.86,4.23,1.9,2.12,1.9,4.23.55,2.12.55,4.23-2.24,2.12-2.24,4.23-2.09,2.12-2.09,4.24a28.87,28.87,0,0,0,0,4.46C568.12,1083.31,570.66,1083.15,569.15,1084.64Z"/><path class="cls-37" d="M1247.53,1081c-1.23,1.27-3.3,1.26-5.07,1.26s-1.77-4-3.54-4-1.77,1.09-3.55,1.09-1.77.16-3.54.16-1.77-2.2-3.55-2.2-1.77.2-3.54.2-1.77,4.19-3.54,4.19-1.77-4.73-3.55-4.73-1.77,1.59-3.54,1.59-1.78,3.55-3.55,3.55-4.06.35-5.3-.91,2.73-3.52,2.73-5.34-3.6-1.81-3.6-3.62,2.35-1.81,2.35-3.62,1.78-1.81,1.78-3.63-.87-1.81-.87-3.62-1-1.81-1-3.63,1.31-1.81,1.31-3.63.92-1.81.92-3.63-.2-1.81-.2-3.62-.08-1.81-.08-3.63-1.42-1.81-1.42-3.62,2.39-1.81,2.39-3.63-2.89-1.81-2.89-3.62,1.77-1.82,1.77-3.63-.81-1.82-.81-3.63-.6-1.82-.6-3.63.16-1.81.16-3.63,1.53-1.81,1.53-3.62-.59-1.82-.59-3.63-2.53-1.81-2.53-3.63,3.85-1.81,3.85-3.63-1.18-1.81-1.18-3.63-1.7-1.81-1.7-3.62.93-1.82.93-3.63,1.75-1.82,1.75-3.64-3.64-1.81-3.64-3.62.66-1.82.66-3.63.64-1.82.64-3.63-1.59-1.82-1.59-3.63,1.41-1.82,1.41-3.63,1.42-1.82,1.42-3.63.47-1.82.47-3.63-1.36-1.82-1.36-3.63-2.08-1.82-2.08-3.64,3.15-1.81,3.15-3.63.33-1.81.33-3.63-2.38-1.81-2.38-3.63,1.68-1.81,1.68-3.63-1.1-1.82-1.1-3.63,2.38-1.82,2.38-3.63-4.52-1.82-4.52-3.63,1.19-1.82,1.19-3.63,1.4-1.82,1.4-3.63-1.87-1.82-1.87-3.63,2.45-1.82,2.45-3.63.4-1.82.4-3.64S1207,910.77,1207,909s-2.74-1.82-2.74-3.63,1.18-1.82,1.18-3.64.25-1.82.25-3.63,3.74-1.82,3.74-3.64-1.36-1.81-1.36-3.63-1.31-1.82-1.31-3.64,1-.34,2.26-1.64-.28-2.42,1.49-2.42,1.77-1.09,3.54-1.09,1.77,2.37,3.54,2.37,1.78-2.58,3.55-2.58,1.77,3.73,3.54,3.73,1.77-3.84,3.54-3.84,1.78.94,3.55.94,1.77,1.73,3.54,1.73,1.78.72,3.55.72,1.78-1.78,3.55-1.78.32.9,1.56,2.17,1.3-.14,1.3,1.68-.36,1.81-.36,3.62,1.14,1.81,1.14,3.62-1.66,1.81-1.66,3.63.2,1.81.2,3.62-.82,1.81-.82,3.63-.15,1.81-.15,3.63,2.08,1.81,2.08,3.63-1.66,1.81-1.66,3.62,1.91,1.81,1.91,3.63,1.6,1.81,1.6,3.62S1244,925.19,1244,927s.38,1.81.38,3.62.58,1.82.58,3.63-.54,1.82-.54,3.63-.84,1.82-.84,3.63,1.92,1.81,1.92,3.63,1.63,1.81,1.63,3.62.24,1.82.24,3.63-3.31,1.81-3.31,3.63,1.4,1.81,1.4,3.63,1.56,1.81,1.56,3.63-.18,1.81-.18,3.62-.75,1.82-.75,3.63,1.93,1.82,1.93,3.64.3,1.81.3,3.62-2.32,1.82-2.32,3.63-.73,1.82-.73,3.63.34,1.82.34,3.63-.91,1.82-.91,3.63,1.22,1.82,1.22,3.63-1.45,1.82-1.45,3.63,0,1.82,0,3.63-.62,1.82-.62,3.64,4.68,1.81,4.68,3.63.22,1.81.22,3.63-1.73,1.81-1.73,3.63-3.77,1.81-3.77,3.63,2.38,1.82,2.38,3.63-.79,1.82-.79,3.63,1.33,1.82,1.33,3.63.2,1.82.2,3.63-2,1.82-2,3.63-.72,1.82-.72,3.63,1.32,1.82,1.32,3.63.51,1.82.51,3.64.8,1.81.8,3.63-1.62,1.82-1.62,3.63,2.44,1.82,2.44,3.64,1.08,1.82,1.08,3.63-.54,1.82-.54,3.64-.88,1.81-.88,3.63.77,1.11,1.41,2.81C1249.2,1077.69,1248.8,1079.68,1247.53,1081Z"/><path class="cls-37" d="M1580,1084.45c-1.33,1.29-1.8-1.74-3.65-1.74s-1.85,3.5-3.7,3.5-1.85.68-3.7.68-1.85.35-3.7.35-1.85-3.52-3.7-3.52-1.85.19-3.7.19-1.85,1.8-3.7,1.8h-3.69c-1.86,0-1.86.57-3.71.57s-3.3.45-4.63-.84-1-2.74-1-4.54,2.71-1.79,2.71-3.59-1.09-1.79-1.09-3.58-2.35-1.79-2.35-3.58,3.33-1.79,3.33-3.58-.61-1.79-.61-3.59-.46-1.79-.46-3.58-1-1.79-1-3.59,2.51-1.79,2.51-3.59-1.59-1.79-1.59-3.58-1.46-1.8-1.46-3.59,2.07-1.79,2.07-3.59-1.23-1.79-1.23-3.58.62-1.79.62-3.58-.63-1.8-.63-3.59-1.54-1.8-1.54-3.59,1.43-1.8,1.43-3.59,0-1.79,0-3.59-.42-1.79-.42-3.58,2.13-1.8,2.13-3.59-1.19-1.79-1.19-3.59-1.57-1.79-1.57-3.59,3.53-1.79,3.53-3.59,0-1.79,0-3.58-2.77-1.8-2.77-3.59,1.29-1.8,1.29-3.59.74-1.8.74-3.59,1.25-1.8,1.25-3.59.73-1.79.73-3.59-5-1.79-5-3.59,4.55-1.79,4.55-3.59-.3-1.79-.3-3.59-2.53-1.79-2.53-3.59,2.73-1.79,2.73-3.59-4.45-1.79-4.45-3.59,1.79-1.79,1.79-3.59,1.45-1.8,1.45-3.59-.8-1.8-.8-3.59.3-1.8.3-3.59-2.6-1.8-2.6-3.59.38-1.8.38-3.59,1.1-1.8,1.1-3.59,2.62-1.8,2.62-3.59-1.94-1.8-1.94-3.59.08-1.8.08-3.59.85-1.8.85-3.59-2.73-1.8-2.73-3.59,2.1-1.8,2.1-3.6-1.13-1.79-1.13-3.59-1.29-1.8-1.29-3.59,2.28-1.8,2.28-3.6.41-1.8.41-3.59-2.26-1.8-2.26-3.6,3.68-1.79,3.68-3.59-.29-1.8-.29-3.6-1-.5.32-1.76,0-.65,1.9-.65,1.85-1.49,3.7-1.49,1.85.81,3.7.81h3.7c1.85,0,1.85.06,3.7.06s1.84-.58,3.69-.58,1.85,1.49,3.7,1.49,1.85-.31,3.7-.31,1.86-.51,3.71-.51.46,0,1.8,1.31,3.71-.18,3.71,1.62-4.23,1.79-4.23,3.59.06,1.79.06,3.58,4.53,1.79,4.53,3.58-3.67,1.79-3.67,3.58,4.25,1.79,4.25,3.59-2.22,1.79-2.22,3.58.86,1.79.86,3.59,1.1,1.79,1.1,3.59-1.49,1.79-1.49,3.58-2.77,1.8-2.77,3.59-.11,1.79-.11,3.59-.66,1.79-.66,3.58,3.16,1.79,3.16,3.58-1.19,1.8-1.19,3.59.59,1.8.59,3.59,1.25,1.8,1.25,3.59-2.23,1.79-2.23,3.59,2.15,1.79,2.15,3.58.74,1.8.74,3.59-3.38,1.79-3.38,3.59-.44,1.79-.44,3.59,3.16,1.79,3.16,3.59.5,1.79.5,3.58-4.58,1.8-4.58,3.59,1.93,1.8,1.93,3.59-.59,1.8-.59,3.59,1.71,1.8,1.71,3.59-2.88,1.79-2.88,3.59.28,1.79.28,3.59.31,1.79.31,3.59,2.18,1.79,2.18,3.59-1.74,1.79-1.74,3.59,2.76,1.79,2.76,3.59-1.29,1.79-1.29,3.59,1.24,1.79,1.24,3.59.92,1.8.92,3.59-3.47,1.8-3.47,3.59,2.55,1.8,2.55,3.59-1.07,1.8-1.07,3.59,1.51,1.8,1.51,3.59-.58,1.8-.58,3.59-1.7,1.8-1.7,3.59-.66,1.8-.66,3.59,1.59,1.8,1.59,3.59-2.16,1.8-2.16,3.59,1.27,1.8,1.27,3.59.48,1.8.48,3.6-2.37,1.79-2.37,3.59,2.57,1.8,2.57,3.59,2.3,1.8,2.3,3.6-1.76,1.8-1.76,3.59-2.91,1.8-2.91,3.6.77,1.79.77,3.59-.43,2.19-.06,4S1581.25,1083.2,1580,1084.45Z"/><path class="cls-37" d="M909.66,1079.2c-1.36,1.41-.61,2-2.57,2s-2-2.24-3.91-2.24-2,3-3.92,3-2,.41-3.91.41-2-1.84-3.92-1.84-2,1.31-3.91,1.31-2-3.28-3.92-3.28-2-.69-3.92-.69-1.95,1.33-3.91,1.33-2-1-3.92-1-2,1.27-3.92,1.27-2.94,2.77-4.3,1.37,1.71-2.39,1.71-4.41,1-2,1-4,.33-2,.33-4-1.35-2-1.35-4-1.12-2-1.12-4,1.58-2,1.58-4-4.1-2-4.1-4,3.94-2,3.94-4,1.27-2,1.27-4-6-2-6-4,4.36-2,4.36-4,.37-2,.37-4-2.54-2-2.54-4,.9-2,.9-4-2.77-2-2.77-4,4.38-2,4.38-4-2.59-2-2.59-4,.07-2,.07-4-1.33-2-1.33-4,5.14-2,5.14-4,.29-2,.29-4-2.47-2-2.47-4-3-2-3-4,1.4-2,1.4-4-2-2-2-4,2.51-2,2.51-4-2-2-2-4,5.49-2,5.49-4-.58-2-.58-4,.1-2,.1-4,.23-2,.23-4-3.71-2-3.71-4.05,2.38-2,2.38-4-.25-2-.25-4-1.54-2-1.54-4,.91-2,.91-4,.81-2,.81-4,.1-2,.1-4,.13-2,.13-4-1-2-1-4-1.17-2-1.17-4-.85-2-.85-4,1.4-2,1.4-4,1.95-2,1.95-4-2.39-2-2.39-4-.8-2-.8-4,3.29-2,3.29-4-4.77-2-4.77-4,3.49-2,3.49-4.05-.82-1.3.59-2.76.62-4,2.58-4,2,5.5,3.91,5.5,2-2.17,3.91-2.17,2,1.35,3.92,1.35,2,.63,3.92.63,1.95.49,3.91.49l3.92,0c2,0,2-.84,3.91-.84s2-.76,3.92-.76,2-1.08,3.92-1.08,2-2.27,3.92-2.27a4.53,4.53,0,0,1,4,1.73c1.41,1.45,1,2.15,1,4.17s-1.46,2-1.46,4,2.26,2,2.26,4-2.44,2-2.44,4,.87,2,.87,4,.71,2,.71,4-3,2-3,4,2.21,2,2.21,4,1.19,2,1.19,4-3.46,2-3.46,4,3.13,2,3.13,4-3.86,2-3.86,4,2,2,2,4,0,2,0,4-2.17,2-2.17,4,2.12,2,2.12,4,.43,2,.43,4,2.29,2,2.29,4-1.93,2-1.93,4-2.5,2-2.5,4,2.16,2,2.16,4,2.9,2,2.9,4-.62,2-.62,4v4c0,2-3.29,2-3.29,4s4.17,2,4.17,4,.26,2,.26,4-3.82,2-3.82,4,2.66,2,2.66,4,0,2,0,4-.35,2-.35,4-.18,2-.18,4.05-1.17,2-1.17,4,2.85,2,2.85,4-4.76,2-4.76,4,2.71,2,2.71,4,0,2,0,4-.23,2-.23,4-2,2-2,4,2.63,2,2.63,4-2.11,2-2.11,4,2.41,2,2.41,4,1.19,2,1.19,4-1.29,2-1.29,4,.65,2,.65,4-1.12,2-1.12,4-3.91,2-3.91,4,5,2,5,4.05-.45,2-.43,4C912.74,1078,911.07,1077.75,909.66,1079.2Z"/><path class="cls-38" d="M1961.22,948.71c-11.94,13.3-19.39-7.16-37.26-7.16s-17.87,12.11-35.73,12.11-17.87-18.26-35.74-18.26-17.87,4.55-35.73,4.55-17.87-1.88-35.74-1.88-17.86,2-35.73,2-17.87,9.46-35.74,9.46-17.86,7.71-35.73,7.71S1656,936,1638.09,936s-17.87,21.68-35.74,21.68-17.87-.67-35.73-.67-17.87-2.17-35.74-2.17-17.87-9.93-35.74-9.93-17.86-8.41-35.73-8.41-17.87,3-35.74,3-17.86,2.76-35.73,2.76-17.87,9.81-35.74,9.81-17.87,3.94-35.73,3.94-17.87-5.44-35.74-5.44-17.87,4.26-35.74,4.26-17.86-13.18-35.73-13.18-17.87-1.58-35.74-1.58-17.86,7-35.73,7-17.87-9.3-35.74-9.3-17.87,7.24-35.74,7.24-17.86-6.94-35.73-6.94-17.87-.35-35.74-.35S977,955,959.1,955s-17.87-14.71-35.74-14.71-17.86,2.86-35.73,2.86-17.87-6.85-35.74-6.85-17.86,6.07-35.73,6.07-17.87,16.37-35.73,16.37-17.87-20.85-35.74-20.85-17.87.69-35.74.69-17.86,4.31-35.73,4.31-17.87,9-35.73,9-17.87,7-35.74,7-17.87-19-35.73-19-17.87,7.89-35.74,7.89-17.87-2.86-35.74-2.86S476.67,957.7,458.8,957.7s-17.87-10.16-35.74-10.16-17.87-3.08-35.74-3.08-17.86,13.18-35.73,13.18-17.87-10.88-35.74-10.88S298,958.11,280.1,958.11s-17.86-12.64-35.73-12.64-17.87,11.32-35.74,11.32-17.87-14-35.74-14-17.87,5.41-35.74,5.41-17.87-.06-35.74-.06S83.53,942,65.66,942s-17.87,14.75-35.74,14.75S7.29,959.58-4.65,946.28c-13.3-14.81,9-18.84,9-38.74s-25.92-27.23-12.63-42c11.94-13.3,20.36-1.4,38.23-1.4s17.86,8,35.73,8,17.87-9.33,35.73-9.33,17.87,11.09,35.74,11.09S155,875,172.84,875s17.87-16.45,35.74-16.45,17.86,9.48,35.73,9.48,17.87,9.78,35.74,9.78,17.86-3.66,35.73-3.66,17.87-8.57,35.73-8.57,17.87,6.26,35.74,6.26,17.87,4.53,35.74,4.53,17.86-8.69,35.73-8.69,17.87,3.83,35.74,3.83,17.86,2.05,35.73,2.05,17.87-15.32,35.73-15.32S583.79,867,601.66,867s17.87,7.3,35.74,7.3,17.86-8.19,35.73-8.19,17.87,5.29,35.74,5.29,17.87-2.36,35.73-2.36,17.87-12.82,35.74-12.82,17.87,14.27,35.74,14.27,17.86-4.72,35.73-4.72,17.87-1.86,35.74-1.86,17.87,7.43,35.74,7.43,17.87-7.61,35.73-7.61,17.87,10.81,35.74,10.81,17.87-11.47,35.74-11.47,17.87-7.18,35.74-7.18,17.86,19.81,35.73,19.81,17.87-11.81,35.73-11.81,17.87-6.57,35.74-6.57,17.87,20.83,35.74,20.83,17.86-8.53,35.73-8.53,17.87-3.88,35.73-3.88,17.87.25,35.74.25,17.86,9.57,35.73,9.57,17.87-1.5,35.74-1.5,17.87-6.46,35.74-6.46,17.87-1.36,35.74-1.36,17.86-6.41,35.73-6.41,17.87,1.29,35.74,1.29,17.87-3.33,35.74-3.33,17.87,2.37,35.74,2.37S1620.15,878,1638,878s17.87-15.37,35.74-15.37,17.87-2.17,35.74-2.17,17.86,8.19,35.73,8.19,17.87.82,35.74.82,17.87-2.71,35.74-2.71S1834.59,878,1852.46,878s17.87-9,35.74-9,17.87-8.81,35.75-8.81,23.92-5.87,35.86,7.43c13.3,14.81-1.19,19.75,3.16,39.17C1967.74,928.14,1974.51,933.9,1961.22,948.71Z"/></g></g></g></g></svg>