<svg xmlns="http://www.w3.org/2000/svg" xmlns:xlink="http://www.w3.org/1999/xlink" width="680.86mm" height="382.41mm" viewBox="0 0 1930 1084"><defs><style>.cls-1{isolation:isolate;}.cls-2{fill:url(#linear-gradient);}.cls-3{fill:#96a65d;}.cls-4{fill:#6f8c30;}.cls-5{fill:#387404;mix-blend-mode:darken;}.cls-6{fill:#f2e641;}.cls-7{fill:#fff;}.cls-8{opacity:0.92;}.cls-9{opacity:0.77;}.cls-10{fill:#e1ab85;}.cls-11{fill:#736258;}.cls-12{fill:#f2d0e3;}.cls-13{fill:#f2dde3;}.cls-14{fill:#ed1c24;}.cls-15,.cls-17,.cls-18,.cls-19{fill:none;}.cls-15,.cls-17,.cls-18,.cls-19,.cls-20{stroke:#000;stroke-miterlimit:10;}.cls-15{stroke-width:0.67px;}.cls-16{fill:#333;}.cls-17{stroke-width:0.77px;}.cls-18{stroke-width:0.64px;}.cls-19{stroke-width:0.73px;}.cls-20,.cls-26{fill:#ff836a;}.cls-20{stroke-width:0.87px;}.cls-21{fill:#10735a;}.cls-22{fill:#a67c52;}.cls-23{fill:#b9121b;}.cls-24{fill:#4c1b1b;}.cls-25{fill:#8c6239;}.cls-27{fill:#be393a;}.cls-28{fill:#4d4d4d;}.cls-29{fill:#b88d1e;}.cls-30{fill:#8c8c80;}.cls-31{fill:#104639;}.cls-32{fill:#754c24;}.cls-33{fill:url(#linear-gradient-2);}</style><linearGradient id="linear-gradient" x1="110.37" y1="1173.98" x2="2299.34" y2="-453.23" gradientUnits="userSpaceOnUse"><stop offset="0" stop-color="#4cacf7"/><stop offset="1" stop-color="#fff"/></linearGradient><linearGradient id="linear-gradient-2" x1="-5.41" y1="639.97" x2="1958.57" y2="639.97" gradientTransform="matrix(1.01, 0.04, -0.03, 1.15, 11.79, 128.03)" gradientUnits="userSpaceOnUse"><stop offset="0" stop-color="#8c6239"/><stop offset="0.49" stop-color="#724922"/><stop offset="0.55" stop-color="#6f4721"/><stop offset="1" stop-color="#42210b"/></linearGradient></defs><g class="cls-1"><g id="Layer_1" data-name="Layer 1"><g id="bg11"><rect class="cls-2" x="3.95" y="-0.17" width="1919" height="1080"/><ellipse class="cls-3" cx="1515.49" cy="802.12" rx="474.96" ry="184.79"/><ellipse class="cls-4" cx="539.95" cy="840.99" rx="575.5" ry="223.91"/><ellipse class="cls-5" cx="993.98" cy="1038.87" rx="1105.54" ry="236.29"/><path class="cls-6" d="M1892.16,161.83c0,1.48-84,.91-84.08,2.37s83.59,9.08,83.45,10.54-83.69-7.31-83.9-5.86,82.3,17.21,82,18.65-82.58-15.44-82.93-14S1887,198.63,1886.53,200s-80.71-23.31-81.2-21.93,77.49,32.63,76.93,34-78.17-30.78-78.79-29.44,74.16,39.62,73.49,40.92-75.08-37.71-75.82-36.43,70.37,46,69.58,47.27-71.53-44.08-72.37-42.87,66.22,51.82,65.32,53-67.64-49.84-68.58-48.7,61.82,57,60.84,58.09-63.51-55-64.53-54,57.24,61.59,56.18,62.61-59.19-59.65-60.29-58.67,52.56,65.63,51.42,66.57-54.73-63.76-55.9-62.86,47.8,69.18,46.6,70-50.21-67.39-51.43-66.57,43,72.25,41.75,73-45.62-70.58-46.9-69.84,38.21,74.9,36.91,75.6-41-73.36-42.33-72.71,33.4,77.17,32.06,77.78-36.36-75.76-37.72-75.19,28.6,79.07,27.22,79.6-31.7-77.83-33.09-77.35,23.82,80.64,22.42,81.09-27.06-79.57-28.48-79.16,19.08,81.89,17.65,82.25-22.41-81-23.85-80.67,14.35,82.84,12.9,83.13-17.77-82.14-19.23-81.9,9.67,83.52,8.21,83.72-13.17-83-14.64-82.84,5,83.93,3.57,84.05-8.6-83.6-10.07-83.52.46,84.08-1,84.12-4.06-83.95-5.54-83.95-4.07,84-5.54,83.95.45-84-1-84.12-8.6,83.64-10.06,83.52,5-83.89,3.56-84.05-13.18,83-14.64,82.84,9.66-83.48,8.21-83.72-17.79,82.18-19.23,81.9,14.33-82.81,12.9-83.13-22.43,81-23.85,80.67,19-81.85,17.65-82.25-27.08,79.6-28.48,79.16,23.8-80.6,22.42-81.09-31.73,77.87-33.1,77.34,28.58-79,27.23-79.59-36.39,75.8-37.72,75.19,33.37-77.13,32-77.78-41,73.4-42.32,72.71,38.17-74.87,36.9-75.6-45.65,70.61-46.9,69.84,43-72.22,41.76-73-50.25,67.42-51.44,66.56,47.77-69.13,46.61-70-54.78,63.79-55.91,62.86,52.52-65.6,51.42-66.58-59.23,59.68-60.29,58.67S1645.22,201,1644.2,200s-63.56,55.05-64.54,54,61.78-57,60.85-58.09-67.71,49.87-68.59,48.7,66.17-51.78,65.33-53-71.59,44.09-72.38,42.85,70.32-46,69.58-47.26-75.14,37.73-75.81,36.43,74.1-39.58,73.49-40.91-78.25,30.78-78.8,29.42,77.43-32.59,76.94-34-80.78,23.33-81.2,21.92,80.18-25.09,79.82-26.51-82.65,15.46-82.93,14,82.23-17.19,82-18.64-83.76,7.32-83.9,5.86,83.52-9.07,83.45-10.54-84.08-.89-84.08-2.37,84-.9,84.08-2.36-83.59-9.08-83.45-10.54,83.69,7.31,83.9,5.86-82.3-17.21-82-18.65,82.58,15.44,82.93,14-80.24-25.12-79.82-26.52,80.71,23.31,81.21,21.93-77.5-32.63-76.94-34,78.17,30.77,78.79,29.44-74.16-39.62-73.49-40.93,75.08,37.71,75.82,36.44-70.37-46-69.58-47.27,71.53,44.07,72.37,42.87-66.22-51.82-65.32-53,67.64,49.84,68.58,48.7-61.82-57-60.84-58.09,63.51,55,64.53,54S1587,62.12,1588,61.1s59.19,59.65,60.29,58.67-52.56-65.63-51.42-66.57,54.73,63.76,55.9,62.85-47.8-69.17-46.6-70,50.21,67.39,51.43,66.57-43-72.25-41.75-73,45.62,70.58,46.9,69.84-38.21-74.9-36.91-75.6,41,73.36,42.33,72.7-33.4-77.16-32.06-77.77,36.36,75.76,37.72,75.19-28.6-79.07-27.22-79.6,31.7,77.83,33.09,77.34S1655.9,21,1657.3,20.58s27.06,79.57,28.48,79.16-19.08-81.89-17.65-82.25,22.41,81,23.85,80.67-14.35-82.85-12.9-83.13,17.77,82.14,19.23,81.9-9.67-83.52-8.21-83.72,13.17,83,14.64,82.84-5-83.93-3.57-84,8.6,83.6,10.07,83.52-.46-84.08,1-84.12,4.06,83.94,5.54,83.94,4.07-84,5.54-83.94-.45,84,1,84.12S1733,11.88,1734.42,12s-5,83.89-3.56,84.05S1744,13,1745.5,13.2s-9.66,83.49-8.21,83.73,17.79-82.18,19.23-81.9-14.33,82.81-12.9,83.13,22.43-81,23.85-80.67-19,81.85-17.65,82.25,27.08-79.6,28.48-79.16-23.8,80.6-22.42,81.08,31.73-77.86,33.1-77.34-28.58,79-27.23,79.6,36.39-75.8,37.72-75.19-33.37,77.13-32,77.77,41-73.39,42.32-72.7-38.17,74.87-36.9,75.6,45.65-70.61,46.9-69.84-43,72.22-41.76,73,50.25-67.42,51.44-66.56-47.77,69.13-46.61,70,54.78-63.79,55.91-62.86-52.52,65.6-51.42,66.58,59.23-59.68,60.29-58.67-57.21,61.55-56.19,62.61,63.56-55,64.54-54-61.78,57-60.85,58.09,67.71-49.87,68.59-48.7-66.17,51.78-65.33,53,71.59-44.09,72.38-42.85-70.32,46-69.58,47.25,75.14-37.72,75.81-36.42-74.1,39.58-73.49,40.91,78.25-30.79,78.8-29.43-77.43,32.6-76.94,34,80.78-23.33,81.2-21.92-80.18,25.08-79.82,26.51,82.65-15.46,82.93-14-82.23,17.2-82,18.65,83.76-7.32,83.9-5.86S1808,158,1808.08,159.47,1892.16,160.36,1892.16,161.83Z"/><circle class="cls-7" cx="1671.03" cy="130.5" r="5.14"/><circle class="cls-7" cx="1733.7" cy="134.24" r="5.14"/><path class="cls-7" d="M1705.2,192l-11.31,3c0-.05,0-.11,0-.16-1.18-4.69,3-9.84,9.19-11.41s12.32,1,13.5,5.7c.82,3.23-.87,6.81-4.34,9.23Z"/><g id="cloud1" class="cls-8"><ellipse class="cls-7" cx="158.95" cy="155.33" rx="88.5" ry="70"/><ellipse class="cls-7" cx="247.95" cy="126.83" rx="66.5" ry="58.5"/><ellipse class="cls-7" cx="219.95" cy="234.33" rx="85.5" ry="67"/><ellipse class="cls-7" cx="112.45" cy="257.33" rx="55" ry="105" transform="translate(-163 202.61) rotate(-55.16)"/></g><g id="cloud2"><ellipse class="cls-7" cx="726.95" cy="162.44" rx="96.5" ry="79.11"/><ellipse class="cls-7" cx="810.45" cy="185.33" rx="83" ry="56"/><ellipse class="cls-7" cx="697.95" cy="255.83" rx="96.5" ry="43.5"/><ellipse class="cls-7" cx="891.95" cy="249.83" rx="121.5" ry="49.5"/><ellipse class="cls-7" cx="846.45" cy="162.83" rx="67" ry="49.5"/></g><g id="cloud3" class="cls-9"><ellipse class="cls-7" cx="1261.95" cy="135.33" rx="108.5" ry="64"/><ellipse class="cls-7" cx="1400.95" cy="185.33" rx="74.5" ry="60"/><ellipse class="cls-7" cx="1286.95" cy="208.33" rx="73.5" ry="46"/></g><ellipse class="cls-10" cx="1231.65" cy="551.13" rx="9.34" ry="9.55"/><g id="goodcow"><ellipse class="cls-11" cx="613.9" cy="575.84" rx="2.2" ry="5.86" transform="translate(-83.43 1047.22) rotate(-77.23)"/><ellipse class="cls-11" cx="580.83" cy="576.32" rx="4.86" ry="2.16" transform="matrix(0.91, -0.41, 0.41, 0.91, -185.13, 288.55)"/><path class="cls-12" d="M638.35,648.62a.89.89,0,1,0,1.77,0v-7.37a.89.89,0,1,0-1.77,0Z"/><path class="cls-12" d="M636.33,647.77a.89.89,0,0,0,1.78,0V640.4a.89.89,0,1,0-1.78,0Z"/><path class="cls-12" d="M633.55,648.09a1.15,1.15,0,0,0,2.29,0v-6.87a1.15,1.15,0,0,0-2.29,0Z"/><ellipse class="cls-12" cx="637.66" cy="641.41" rx="4.98" ry="5.56"/><path class="cls-7" d="M607,653a3,3,0,1,0,5.92,0V637.68a3,3,0,0,0-5.92,0Z"/><path class="cls-11" d="M607.92,654.24a1.88,1.88,0,0,0,1.88,1.88h2a1.88,1.88,0,0,0,0-3.75h-2a1.88,1.88,0,0,0-1.88,1.87Z"/><path class="cls-7" d="M603.62,657.85a3.72,3.72,0,1,0,7.43,0V634.41a3.72,3.72,0,0,0-7.43,0Z"/><path class="cls-11" d="M603.07,659.91a2.61,2.61,0,0,0,2.61,2.61H609a2.61,2.61,0,1,0,0-5.22h-3.31a2.61,2.61,0,0,0-2.61,2.61Z"/><path class="cls-7" d="M645.22,653.48a2.46,2.46,0,0,0,4.91,0v-13a2.46,2.46,0,0,0-4.91,0Z"/><path class="cls-11" d="M645.94,654.58a1.5,1.5,0,0,0,1.5,1.5h1.49a1.51,1.51,0,1,0,0-3h-1.49a1.51,1.51,0,0,0-1.5,1.51Z"/><path class="cls-7" d="M640.69,660.58a3.34,3.34,0,0,0,6.67,0V641.32a3.34,3.34,0,0,0-6.67,0Z"/><ellipse class="cls-7" cx="675.82" cy="617.85" rx="3.09" ry="19.37" transform="translate(-221.89 437.31) rotate(-31.06)"/><ellipse class="cls-7" cx="634.82" cy="616.85" rx="40.22" ry="26.47"/><path class="cls-7" d="M583.54,587.91a13.33,13.33,0,1,0,26.65,0V574.27a13.33,13.33,0,1,0-26.65,0Z"/><path class="cls-13" d="M578.48,599.11A11.91,11.91,0,0,0,590.39,611h13.69a11.91,11.91,0,0,0,0-23.82H590.39a11.91,11.91,0,0,0-11.91,11.91Z"/><ellipse class="cls-7" cx="601.69" cy="596.12" rx="1.74" ry="4.82"/><ellipse class="cls-7" cx="593.72" cy="595.38" rx="2.27" ry="5.42"/><path class="cls-11" d="M639.78,663.49a2.61,2.61,0,0,0,2.61,2.62h3.31a2.62,2.62,0,1,0,0-5.23h-3.31a2.61,2.61,0,0,0-2.61,2.61Z"/><ellipse cx="591.83" cy="573.49" rx="2.4" ry="2.67"/><ellipse cx="600.72" cy="573.56" rx="2.08" ry="2.32"/><ellipse class="cls-7" cx="685.05" cy="633.13" rx="3.35" ry="4.92" transform="translate(-244.29 552.74) rotate(-37.8)"/><ellipse class="cls-14" cx="603.07" cy="606.4" rx="1.14" ry="1.94" transform="translate(-225.79 395.69) rotate(-30.89)"/><path class="cls-15" d="M604.44,603.05a8.46,8.46,0,0,1-4.43,2.71,12.59,12.59,0,0,1-10.33-2.08"/><ellipse class="cls-16" cx="654.43" cy="615.37" rx="8.61" ry="4.85" transform="translate(-239.28 706.17) rotate(-49.04)"/><ellipse class="cls-16" cx="631.32" cy="598.81" rx="4.88" ry="8.39" transform="translate(-234.55 684.88) rotate(-49.16)"/><ellipse class="cls-16" cx="624.87" cy="625" rx="3.99" ry="9.48" transform="translate(-68.83 1172.59) rotate(-83.29)"/></g><g id="goodcow-2" data-name="goodcow"><ellipse class="cls-11" cx="449.87" cy="620.77" rx="2.55" ry="6.8" transform="translate(-255.01 922.25) rotate(-77.23)"/><ellipse class="cls-11" cx="411.5" cy="621.33" rx="5.64" ry="2.51" transform="translate(-218.43 223.13) rotate(-24.19)"/><path class="cls-12" d="M478.24,705.22a1,1,0,1,0,2.06,0v-8.55a1,1,0,0,0-2.06,0Z"/><path class="cls-12" d="M475.9,704.24a1,1,0,1,0,2.06,0v-8.55a1,1,0,1,0-2.06,0Z"/><path class="cls-12" d="M472.68,704.6a1.33,1.33,0,1,0,2.65,0v-8a1.33,1.33,0,0,0-2.65,0Z"/><ellipse class="cls-12" cx="477.44" cy="696.86" rx="5.78" ry="6.45"/><path class="cls-7" d="M441.9,710.27a3.44,3.44,0,1,0,6.87,0V692.53a3.44,3.44,0,1,0-6.87,0Z"/><path class="cls-11" d="M442.94,711.74a2.17,2.17,0,0,0,2.17,2.18h2.29a2.18,2.18,0,0,0,0-4.35h-2.29a2.17,2.17,0,0,0-2.17,2.17Z"/><path class="cls-7" d="M438,715.93a4.31,4.31,0,1,0,8.61,0v-27.2a4.31,4.31,0,1,0-8.61,0Z"/><path class="cls-11" d="M437.3,718.32a3,3,0,0,0,3,3h3.84a3,3,0,0,0,0-6.06h-3.84a3,3,0,0,0-3,3Z"/><path class="cls-7" d="M486.21,710.86a2.86,2.86,0,0,0,5.71,0V695.77a2.86,2.86,0,0,0-5.71,0Z"/><path class="cls-11" d="M487,712.13a1.75,1.75,0,0,0,1.75,1.75h1.73a1.75,1.75,0,1,0,0-3.49h-1.73a1.74,1.74,0,0,0-1.75,1.74Z"/><path class="cls-7" d="M481,719.1a3.87,3.87,0,1,0,7.74,0V696.76a3.87,3.87,0,0,0-7.74,0Z"/><ellipse class="cls-7" cx="521.72" cy="669.51" rx="3.58" ry="22.47" transform="translate(-270.64 365.21) rotate(-31.06)"/><ellipse class="cls-7" cx="474.15" cy="668.36" rx="46.67" ry="30.71"/><path class="cls-7" d="M414.64,634.78a15.47,15.47,0,0,0,30.93,0V619a15.47,15.47,0,1,0-30.93,0Z"/><path class="cls-13" d="M408.77,647.77a13.83,13.83,0,0,0,13.82,13.83h15.89a13.83,13.83,0,0,0,0-27.65H422.59a13.82,13.82,0,0,0-13.82,13.82Z"/><ellipse class="cls-7" cx="435.71" cy="644.3" rx="2.01" ry="5.6"/><ellipse class="cls-7" cx="426.46" cy="643.45" rx="2.63" ry="6.29"/><path class="cls-11" d="M479.9,722.48a3,3,0,0,0,3,3h3.84a3,3,0,1,0,0-6.06h-3.84a3,3,0,0,0-3,3Z"/><ellipse cx="424.26" cy="618.04" rx="2.78" ry="3.1"/><ellipse cx="434.57" cy="618.13" rx="2.41" ry="2.7"/><ellipse class="cls-7" cx="532.43" cy="687.24" rx="3.88" ry="5.71" transform="translate(-309.49 470.56) rotate(-37.8)"/><ellipse class="cls-14" cx="437.31" cy="656.23" rx="1.32" ry="2.25" transform="translate(-274.9 317.65) rotate(-30.89)"/><path class="cls-17" d="M438.89,652.35a9.77,9.77,0,0,1-5.13,3.14,14.61,14.61,0,0,1-12-2.42"/><ellipse class="cls-16" cx="496.9" cy="666.64" rx="9.99" ry="5.63" transform="translate(-332.26 604.87) rotate(-49.04)"/><ellipse class="cls-16" cx="470.08" cy="647.42" rx="5.67" ry="9.74" transform="translate(-327.13 579.71) rotate(-49.16)"/><ellipse class="cls-16" cx="462.6" cy="677.81" rx="4.63" ry="11" transform="translate(-264.6 1058.08) rotate(-83.29)"/></g><g id="goodcow-3" data-name="goodcow"><ellipse class="cls-11" cx="779.97" cy="611.47" rx="2.11" ry="5.63" transform="translate(11.17 1236.92) rotate(-77.23)"/><ellipse class="cls-11" cx="748.23" cy="611.93" rx="4.66" ry="2.07" transform="translate(-185.03 360.26) rotate(-24.19)"/><path class="cls-12" d="M803.42,681.3a.86.86,0,1,0,1.71,0v-7.07a.86.86,0,0,0-1.71,0Z"/><path class="cls-12" d="M801.49,680.49a.85.85,0,1,0,1.7,0v-7.07a.85.85,0,1,0-1.7,0Z"/><path class="cls-12" d="M798.82,680.79a1.1,1.1,0,0,0,2.2,0V674.2a1.1,1.1,0,0,0-2.2,0Z"/><ellipse class="cls-12" cx="802.76" cy="674.39" rx="4.78" ry="5.34"/><path class="cls-7" d="M773.37,685.48a2.85,2.85,0,0,0,5.69,0V670.81a2.85,2.85,0,1,0-5.69,0Z"/><path class="cls-11" d="M774.23,686.7a1.81,1.81,0,0,0,1.8,1.8h1.89a1.8,1.8,0,1,0,0-3.6H776a1.8,1.8,0,0,0-1.8,1.8Z"/><path class="cls-7" d="M770.1,690.16a3.57,3.57,0,1,0,7.13,0V667.67a3.57,3.57,0,1,0-7.13,0Z"/><path class="cls-11" d="M769.57,692.14a2.5,2.5,0,0,0,2.51,2.5h3.18a2.51,2.51,0,0,0,0-5h-3.18a2.51,2.51,0,0,0-2.51,2.51Z"/><path class="cls-7" d="M810,686a2.36,2.36,0,1,0,4.71,0V673.49a2.36,2.36,0,1,0-4.71,0Z"/><path class="cls-11" d="M810.7,687a1.44,1.44,0,0,0,1.45,1.44h1.43a1.44,1.44,0,1,0,0-2.88h-1.43A1.44,1.44,0,0,0,810.7,687Z"/><path class="cls-7" d="M805.67,692.78a3.2,3.2,0,0,0,6.4,0V674.3a3.2,3.2,0,0,0-6.4,0Z"/><ellipse class="cls-7" cx="839.38" cy="651.78" rx="2.96" ry="18.58" transform="translate(-215.94 526.57) rotate(-31.06)"/><ellipse class="cls-7" cx="800.04" cy="650.82" rx="38.59" ry="25.39"/><path class="cls-7" d="M750.84,623.05a12.79,12.79,0,1,0,25.57,0V610a12.79,12.79,0,1,0-25.57,0Z"/><path class="cls-13" d="M746,633.8a11.43,11.43,0,0,0,11.43,11.43h13.13a11.43,11.43,0,1,0,0-22.86H757.41A11.43,11.43,0,0,0,746,633.8Z"/><ellipse class="cls-7" cx="768.25" cy="630.93" rx="1.67" ry="4.63"/><ellipse class="cls-7" cx="760.6" cy="630.22" rx="2.18" ry="5.2"/><path class="cls-11" d="M804.8,695.57a2.51,2.51,0,0,0,2.51,2.51h3.17a2.51,2.51,0,1,0,0-5h-3.17a2.5,2.5,0,0,0-2.51,2.5Z"/><ellipse cx="758.79" cy="609.21" rx="2.3" ry="2.57"/><ellipse cx="767.32" cy="609.28" rx="2" ry="2.23"/><ellipse class="cls-7" cx="848.23" cy="666.44" rx="3.21" ry="4.72" transform="translate(-230.47 659.75) rotate(-37.8)"/><ellipse class="cls-14" cx="769.58" cy="640.79" rx="1.09" ry="1.86" transform="translate(-219.83 486.06) rotate(-30.89)"/><path class="cls-18" d="M770.88,637.58a8.07,8.07,0,0,1-4.24,2.6,12.06,12.06,0,0,1-9.91-2"/><ellipse class="cls-16" cx="818.85" cy="649.4" rx="8.26" ry="4.66" transform="translate(-208.34 842.05) rotate(-49.04)"/><ellipse class="cls-16" cx="796.68" cy="633.51" rx="4.68" ry="8.05" transform="translate(-203.57 821.99) rotate(-49.16)"/><ellipse class="cls-16" cx="790.49" cy="658.64" rx="3.83" ry="9.1" transform="translate(44.04 1366.79) rotate(-83.29)"/></g><g id="goodcow-4" data-name="goodcow"><ellipse class="cls-11" cx="720.87" cy="689.77" rx="2.55" ry="6.8" transform="translate(-111.23 1240.28) rotate(-77.23)"/><ellipse class="cls-11" cx="682.5" cy="690.33" rx="5.64" ry="2.51" transform="translate(-222.92 340.21) rotate(-24.19)"/><path class="cls-12" d="M749.24,774.22a1,1,0,0,0,2.06,0v-8.55a1,1,0,0,0-2.06,0Z"/><path class="cls-12" d="M746.9,773.24a1,1,0,0,0,2.06,0v-8.55a1,1,0,1,0-2.06,0Z"/><path class="cls-12" d="M743.68,773.6a1.33,1.33,0,1,0,2.65,0v-8a1.33,1.33,0,0,0-2.65,0Z"/><ellipse class="cls-12" cx="748.44" cy="765.86" rx="5.78" ry="6.45"/><path class="cls-7" d="M712.9,779.27a3.44,3.44,0,1,0,6.87,0V761.53a3.44,3.44,0,1,0-6.87,0Z"/><path class="cls-11" d="M713.94,780.74a2.17,2.17,0,0,0,2.17,2.18h2.29a2.18,2.18,0,0,0,0-4.35h-2.29a2.17,2.17,0,0,0-2.17,2.17Z"/><path class="cls-7" d="M709,784.93a4.31,4.31,0,1,0,8.61,0v-27.2a4.31,4.31,0,1,0-8.61,0Z"/><path class="cls-11" d="M708.3,787.32a3,3,0,0,0,3,3h3.84a3,3,0,0,0,0-6.06h-3.84a3,3,0,0,0-3,3Z"/><path class="cls-7" d="M757.21,779.86a2.86,2.86,0,0,0,5.71,0V764.77a2.86,2.86,0,0,0-5.71,0Z"/><path class="cls-11" d="M758,781.13a1.75,1.75,0,0,0,1.75,1.75h1.73a1.75,1.75,0,1,0,0-3.49h-1.73a1.74,1.74,0,0,0-1.75,1.74Z"/><path class="cls-7" d="M752,788.1a3.87,3.87,0,0,0,7.74,0V765.76a3.87,3.87,0,0,0-7.74,0Z"/><ellipse class="cls-7" cx="792.72" cy="738.51" rx="3.58" ry="22.47" transform="translate(-267.38 514.93) rotate(-31.06)"/><ellipse class="cls-7" cx="745.15" cy="737.36" rx="46.67" ry="30.71"/><path class="cls-7" d="M685.64,703.78a15.47,15.47,0,0,0,30.93,0V688a15.47,15.47,0,1,0-30.93,0Z"/><path class="cls-13" d="M679.77,716.77a13.83,13.83,0,0,0,13.82,13.83h15.89a13.83,13.83,0,0,0,0-27.65H693.59a13.82,13.82,0,0,0-13.82,13.82Z"/><ellipse class="cls-7" cx="706.71" cy="713.3" rx="2.01" ry="5.6"/><ellipse class="cls-7" cx="697.46" cy="712.45" rx="2.63" ry="6.29"/><path class="cls-11" d="M750.9,791.48a3,3,0,0,0,3,3h3.84a3,3,0,1,0,0-6.06h-3.84a3,3,0,0,0-3,3Z"/><ellipse cx="695.26" cy="687.04" rx="2.78" ry="3.1"/><ellipse cx="705.57" cy="687.13" rx="2.41" ry="2.7"/><ellipse class="cls-7" cx="803.43" cy="756.24" rx="3.88" ry="5.71" transform="translate(-294.91 651.14) rotate(-37.8)"/><ellipse class="cls-14" cx="708.31" cy="725.23" rx="1.32" ry="2.25" transform="translate(-271.88 466.58) rotate(-30.89)"/><path class="cls-17" d="M709.89,721.35a9.77,9.77,0,0,1-5.13,3.14,14.61,14.61,0,0,1-12-2.42"/><ellipse class="cls-16" cx="767.9" cy="735.64" rx="9.99" ry="5.63" transform="translate(-291.02 833.28) rotate(-49.04)"/><ellipse class="cls-16" cx="741.08" cy="716.42" rx="5.67" ry="9.74" transform="translate(-285.55 808.63) rotate(-49.16)"/><ellipse class="cls-16" cx="733.6" cy="746.81" rx="4.63" ry="11" transform="translate(-93.78 1388.17) rotate(-83.29)"/></g><g id="goodcow-5" data-name="goodcow"><ellipse class="cls-11" cx="577.27" cy="684.52" rx="2.42" ry="6.46" transform="translate(-217.95 1096.14) rotate(-77.23)"/><ellipse class="cls-11" cx="540.84" cy="685.05" rx="5.35" ry="2.38" transform="translate(-233.19 281.71) rotate(-24.19)"/><path class="cls-12" d="M604.21,764.7a1,1,0,0,0,2,0v-8.12a1,1,0,0,0-2,0Z"/><path class="cls-12" d="M602,763.77a1,1,0,0,0,2,0v-8.12a1,1,0,0,0-2,0Z"/><path class="cls-12" d="M598.93,764.12a1.26,1.26,0,0,0,2.51,0v-7.57a1.26,1.26,0,1,0-2.51,0Z"/><ellipse class="cls-12" cx="603.45" cy="756.77" rx="5.49" ry="6.13"/><path class="cls-7" d="M569.7,769.5a3.27,3.27,0,0,0,6.53,0V752.65a3.27,3.27,0,0,0-6.53,0Z"/><path class="cls-11" d="M570.69,770.9a2.06,2.06,0,0,0,2.06,2.06h2.17a2.07,2.07,0,1,0,0-4.13h-2.17a2.07,2.07,0,0,0-2.06,2.07Z"/><path class="cls-7" d="M566,774.88a4.09,4.09,0,0,0,8.18,0V749.05a4.09,4.09,0,0,0-8.18,0Z"/><path class="cls-11" d="M565.34,777.14a2.88,2.88,0,0,0,2.88,2.88h3.65a2.88,2.88,0,0,0,0-5.76h-3.65a2.88,2.88,0,0,0-2.88,2.88Z"/><path class="cls-7" d="M611.78,770.06a2.71,2.71,0,0,0,5.42,0V755.73a2.71,2.71,0,0,0-5.42,0Z"/><path class="cls-11" d="M612.57,771.27a1.65,1.65,0,0,0,1.66,1.65h1.64a1.66,1.66,0,1,0,0-3.31h-1.64a1.66,1.66,0,0,0-1.66,1.66Z"/><path class="cls-7" d="M606.79,777.88a3.68,3.68,0,0,0,7.35,0V756.67a3.68,3.68,0,1,0-7.35,0Z"/><ellipse class="cls-7" cx="645.49" cy="730.8" rx="3.4" ry="21.34" transform="translate(-284.52 437.86) rotate(-31.06)"/><ellipse class="cls-7" cx="600.32" cy="729.7" rx="44.31" ry="29.16"/><path class="cls-7" d="M543.82,697.82a14.69,14.69,0,0,0,29.37,0v-15a14.69,14.69,0,0,0-29.37,0Z"/><path class="cls-13" d="M538.25,710.16a13.11,13.11,0,0,0,13.12,13.12h15.08a13.13,13.13,0,1,0,0-26.25H551.37a13.12,13.12,0,0,0-13.12,13.13Z"/><ellipse class="cls-7" cx="563.82" cy="706.86" rx="1.91" ry="5.31"/><ellipse class="cls-7" cx="555.04" cy="706.05" rx="2.5" ry="5.97"/><path class="cls-11" d="M605.79,781.09a2.88,2.88,0,0,0,2.88,2.88h3.64a2.88,2.88,0,1,0,0-5.76h-3.64a2.88,2.88,0,0,0-2.88,2.88Z"/><ellipse cx="552.96" cy="681.93" rx="2.64" ry="2.95"/><ellipse cx="562.75" cy="682.01" rx="2.29" ry="2.56"/><ellipse class="cls-7" cx="655.66" cy="747.63" rx="3.69" ry="5.42" transform="translate(-320.64 558.76) rotate(-37.8)"/><ellipse class="cls-14" cx="565.35" cy="718.19" rx="1.25" ry="2.13" transform="translate(-288.54 392.18) rotate(-30.89)"/><path class="cls-19" d="M566.85,714.5a9.33,9.33,0,0,1-4.88,3,13.86,13.86,0,0,1-11.38-2.3"/><ellipse class="cls-16" cx="621.93" cy="728.07" rx="9.49" ry="5.35" transform="translate(-335.58 720.44) rotate(-49.04)"/><ellipse class="cls-16" cx="596.46" cy="709.82" rx="5.38" ry="9.25" transform="translate(-330.6 696.93) rotate(-49.16)"/><ellipse class="cls-16" cx="589.36" cy="738.68" rx="4.39" ry="10.45" transform="translate(-213.09 1237.73) rotate(-83.29)"/></g><ellipse class="cls-20" cx="1218.58" cy="597.51" rx="12" ry="9.5"/><g id="happy"><ellipse class="cls-10" cx="1157.91" cy="598.93" rx="35.81" ry="10.84" transform="translate(-113.58 886.66) rotate(-40.1)"/><path class="cls-21" d="M1221.74,710.83,1202.89,832.5c-20.78-19-34.62-67.67-34.62-121.67,0-71.33,24.14-130,53.47-130s53.46,58.69,53.46,130c0,52-12.81,99.15-32.46,119.57Z"/><path d="M1316.1,497.07c-4.19,8-27.77-13.63-35.41-8.78s7.56,28.74-.08,33.59-22.82-19-30.46-14.15,1.85,35.48-7.2,35.79-1.62-30.89-9.55-35.22-21.5,20.5-29.43,16.16,5.64-29.16-2.29-33.5-30,18.83-34.74,11.11,25.94-17,25.64-26.19-28.58-8.28-28.88-17.47,28-10.11,27.7-19.3-31.54-16.32-27.28-24.48,27.77,13.63,35.41,8.78-7.56-28.73.07-33.59,22.83,19,30.47,14.16-1.85-35.49,7.19-35.8,1.63,30.89,9.56,35.23,21.5-20.5,29.43-16.17-5.64,29.17,2.29,33.5,30-18.83,34.74-11.1-25.94,17-25.64,26.19,28.58,8.28,28.87,17.47-30.33,17.09-26.14,25.28C1297.09,491.72,1320.35,488.92,1316.1,497.07Z"/><path d="M1278,497c-4.19,8-27.77-13.63-35.41-8.77s7.56,28.73-.08,33.59-22.82-19-30.46-14.16,1.85,35.49-7.2,35.79-1.62-30.89-9.55-35.22-21.5,20.5-29.43,16.17,5.64-29.17-2.29-33.5-30,18.82-34.74,11.1,25.94-17,25.64-26.19-28.58-8.28-28.88-17.47,28-10.1,27.7-19.29-31.54-16.33-27.28-24.48,27.77,13.63,35.41,8.77-7.56-28.73.07-33.59,22.83,19,30.47,14.16-1.85-35.49,7.19-35.79,1.63,30.89,9.56,35.22,21.5-20.5,29.43-16.17-5.64,29.17,2.29,33.5,30-18.82,34.74-11.1-25.94,17-25.64,26.19,28.58,8.28,28.87,17.47-30.33,17.09-26.14,25.28C1259,491.64,1282.27,488.84,1278,497Z"/><ellipse class="cls-10" cx="1271.49" cy="594.92" rx="10.27" ry="39.52" transform="translate(-8.61 1171.08) rotate(-49.31)"/><ellipse class="cls-10" cx="1221.67" cy="488.46" rx="69.67" ry="70.6"/><ellipse class="cls-10" cx="1289.07" cy="630.74" rx="19.73" ry="5.09" transform="translate(-14.91 1230.05) rotate(-50.76)"/><ellipse class="cls-10" cx="1150.12" cy="633.34" rx="8.64" ry="28.67" transform="translate(-115.79 981.73) rotate(-44.23)"/><ellipse class="cls-10" cx="1276.86" cy="644.91" rx="8.56" ry="8.75"/><ellipse class="cls-10" cx="1166.7" cy="651.62" rx="7" ry="7.15"/><ellipse class="cls-22" cx="1198.25" cy="830.92" rx="7.29" ry="20.15"/><ellipse class="cls-22" cx="1246.51" cy="826.68" rx="5.85" ry="18.84"/><rect class="cls-23" x="1241.79" y="836.49" width="10.01" height="16.3" rx="2.6"/><rect class="cls-24" x="1241.65" y="843.94" width="20.71" height="10.39" rx="2.6"/><rect class="cls-23" x="1191.9" y="838.98" width="11.64" height="20.68" rx="2.6"/><rect class="cls-24" x="1180.69" y="848.9" width="23.71" height="12.07" rx="2.6"/><ellipse class="cls-25" cx="1195.54" cy="484.15" rx="6.14" ry="8.76"/><ellipse class="cls-25" cx="1228.38" cy="484.44" rx="6.71" ry="9.93"/><path class="cls-26" d="M1208.82,515h25.12c0,5.36-11.34,9.78-25.12,9.78s-25.13-4.42-25.13-9.78a4.29,4.29,0,0,1,.56-2.06Z"/><ellipse class="cls-27" cx="1224.66" cy="585.48" rx="41.46" ry="26.57"/><path class="cls-28" d="M1198.94,604.09a4.31,4.31,0,1,0,8.61,0V567.16a4.31,4.31,0,1,0-8.61,0Z"/><ellipse class="cls-27" cx="1175.2" cy="585.84" rx="18.82" ry="12.44" transform="translate(-128.39 427.88) rotate(-19.59)"/><ellipse class="cls-27" cx="1267.34" cy="590.06" rx="11.9" ry="19.86" transform="translate(-12.51 1152.47) rotate(-48.69)"/><path class="cls-28" d="M1239.77,605.69a3.88,3.88,0,0,0,7.76,0V565.85a3.88,3.88,0,0,0-7.76,0Z"/><ellipse cx="1221.81" cy="434.21" rx="61.1" ry="26.72"/><ellipse cx="1173.25" cy="450.54" rx="30.85" ry="12.67" transform="translate(112.88 1125.16) rotate(-53.47)"/><ellipse cx="1272.88" cy="453.71" rx="8.68" ry="30.85" transform="translate(-19.02 850.03) rotate(-36.67)"/><ellipse class="cls-29" cx="1243.79" cy="604.02" rx="3.71" ry="3.8"/><ellipse class="cls-30" cx="1243.79" cy="604.31" rx="0.86" ry="0.88"/><ellipse class="cls-29" cx="1203.25" cy="602.71" rx="3.43" ry="3.36"/><ellipse class="cls-30" cx="1203.25" cy="603.29" rx="0.57" ry="0.73"/><path class="cls-31" d="M1192.56,650.49l15,.59c-.13,20.74-6.88,37.63-15,37.63s-15-17.26-15-38.22Z"/></g><g id="bridge"><path class="cls-32" d="M226.66,1079.55c-1.31,1.33-2.08-2.47-4-2.47s-1.87,4.12-3.75,4.12-1.87-.66-3.74-.66-1.88-3.22-3.75-3.22-1.87,4.62-3.75,4.62-1.87-2.85-3.75-2.85-1.87-.48-3.75-.48-1.87,3.54-3.75,3.54-1.87-1.52-3.75-1.52-1.87-2.43-3.75-2.43-1.88,3.73-3.75,3.73-1.24-2.45-2.56-3.79-2.68-.7-2.68-2.6,2-1.9,2-3.79-1.82-1.9-1.82-3.8-.86-1.89-.86-3.79,4.31-1.89,4.31-3.79-.12-1.89-.12-3.79-4.44-1.89-4.44-3.79-.06-1.9-.06-3.79,3.66-1.9,3.66-3.8-1.66-1.89-1.66-3.79-1.28-1.9-1.28-3.8,3.79-1.89,3.79-3.79-.51-1.89-.51-3.79-.21-1.9-.21-3.79-.62-1.9-.62-3.8,1.45-1.9,1.45-3.79-.41-1.9-.41-3.8-1.71-1.89-1.71-3.79-2.16-1.9-2.16-3.79-.78-1.9-.78-3.8,3.38-1.9,3.38-3.8-2.59-1.89-2.59-3.79,4.46-1.9,4.46-3.8,0-1.89,0-3.79-2.17-1.9-2.17-3.8,1.15-1.9,1.15-3.79,1.25-1.9,1.25-3.8-1.9-1.9-1.9-3.8,1.19-1.9,1.19-3.79-3.38-1.9-3.38-3.8-.66-1.9-.66-3.8,1.19-1.9,1.19-3.79,1.71-1.9,1.71-3.8,1.31-1.9,1.31-3.8-1.92-1.9-1.92-3.8,1-1.89,1-3.79-.65-1.9-.65-3.8,1.68-1.89,1.68-3.79-.6-1.9-.6-3.8-3.1-1.9-3.1-3.8,4.47-1.9,4.47-3.79-.36-1.9-.36-3.8-2.59-1.9-2.59-3.8-.34-1.9-.34-3.8,2.61-1.9,2.61-3.8.12-1.9.12-3.8-5.23-1.9-5.23-3.8,5.61-1.91,5.61-3.81-3.6-2-2.26-3.32,1.37,0,3.24,0,1.88,1.7,3.75,1.7,1.88.71,3.75.71,1.87-5.69,3.75-5.69,1.87,2.62,3.75,2.62,1.87-2.66,3.75-2.66,1.87,2.06,3.75,2.06,1.87,2.32,3.75,2.32,1.87-4.3,3.75-4.3,1.87,1.24,3.75,1.24,1.87-.86,3.75-.86,1.49,1.94,2.81,3.27,3.85,1,3.85,2.86-.69,1.89-.69,3.79.08,1.9.08,3.8-2.84,1.89-2.84,3.79,2.38,1.89,2.38,3.79-1.65,1.89-1.65,3.79-2.22,1.89-2.22,3.79,4.18,1.89,4.18,3.79,0,1.9,0,3.8-3.08,1.89-3.08,3.79.65,1.9.65,3.79,2.55,1.9,2.55,3.8-1.78,1.89-1.78,3.79-.32,1.89-.32,3.79-2.63,1.9-2.63,3.8.73,1.89.73,3.79,1.6,1.9,1.6,3.8,2.58,1.89,2.58,3.79-3.57,1.9-3.57,3.79.35,1.9.35,3.8,1.47,1.9,1.47,3.8-2,1.89-2,3.79,3.49,1.9,3.49,3.8-1.91,1.89-1.91,3.79-.46,1.9-.46,3.8S226,990.07,226,992s-2.44,1.9-2.44,3.8,3.9,1.9,3.9,3.8-1.84,1.89-1.84,3.79-.88,1.9-.88,3.8,1.36,1.9,1.36,3.8-.35,1.89-.35,3.79-1.08,1.9-1.08,3.8.31,1.9.31,3.8-1.13,1.9-1.13,3.8,2.61,1.89,2.61,3.79,2.55,1.9,2.55,3.8-2.73,1.89-2.73,3.79-.44,1.9-.44,3.8,1.9,1.9,1.9,3.8-2.31,1.89-2.31,3.79,3.61,1.9,3.61,3.8-3.63,1.9-3.63,3.8-1.76,1.9-1.76,3.8,3.58,1.9,3.58,3.8-.73,1.9-.73,3.8,2.88,1.9,2.88,3.8-1.3,1.45-.85,3.3C229.06,1077.11,228,1078.19,226.66,1079.55Z"/><path class="cls-32" d="M1931.16,1100.05c-1.54,1.54-1.89,3.43-4.07,3.43s-2.18-2.6-4.36-2.6-2.18-3.15-4.36-3.15-2.18,2.69-4.37,2.69-2.18,1.21-4.36,1.21-2.18,1.43-4.36,1.43-2.18-3.28-4.36-3.28-2.19,0-4.37,0-2.18,3.81-4.36,3.81-2.19-6.63-4.37-6.63-3.84,5.91-5.39,4.37,2.68-3.2,2.68-5.37-4.87-2.17-4.87-4.35,1.7-2.17,1.7-4.34,4.3-2.17,4.3-4.34-.8-2.18-.8-4.35-5-2.17-5-4.35,4.65-2.17,4.65-4.34-5-2.17-5-4.34,1.54-2.17,1.54-4.34-.21-2.17-.21-4.34,2.88-2.17,2.88-4.34,1.29-2.17,1.29-4.35-3.12-2.17-3.12-4.34-1.57-2.17-1.57-4.34.42-2.17.42-4.35,5-2.17,5-4.34-4.3-2.17-4.3-4.34,1.2-2.17,1.2-4.35,0-2.17,0-4.34,2.3-2.17,2.3-4.34-3.88-2.18-3.88-4.35-1.5-2.17-1.5-4.34.52-2.18.52-4.35,4.92-2.17,4.92-4.34-.79-2.18-.79-4.35-2.51-2.17-2.51-4.34,2.84-2.18,2.84-4.35-1.22-2.17-1.22-4.35,1.24-2.17,1.24-4.34-3.06-2.18-3.06-4.35-1-2.17-1-4.35,2.66-2.17,2.66-4.34-2.05-2.18-2.05-4.35.4-2.17.4-4.35-1.34-2.17-1.34-4.34,4.6-2.18,4.6-4.35-5.14-2.18-5.14-4.35,3.68-2.17,3.68-4.35-.41-2.17-.41-4.35-.4-2.17-.4-4.34-2.87-2.18-2.87-4.35,1.62-2.17,1.62-4.35,4-2.17,4-4.34-4.16-2.18-4.16-4.35.33-2.18.33-4.35-1.73-2.18-1.73-4.35.77-2.18.77-4.35.73-2.18.73-4.35,3.45-2.18,3.45-4.35-2.76-2.18-2.76-4.35,2.94-2.18,2.94-4.36-3.69-3.1-2.15-4.64,2.47-2.87,4.65-2.87,2.18,3.8,4.36,3.8,2.18-2.79,4.36-2.79,2.18.56,4.36.56,2.19,3.86,4.37,3.86,2.18-4.8,4.36-4.8,2.18,5.53,4.36,5.53,2.18-2.9,4.36-2.9,2.19-2.32,4.37-2.32,2.18.3,4.37.3,5-1.78,6.51-.24,1,4.33,1,6.5-2.4,2.17-2.4,4.34,1.38,2.18,1.38,4.35.1,2.17.1,4.34-1.89,2.18-1.89,4.35-2.6,2.17-2.6,4.34,1.23,2.18,1.23,4.35,1.39,2.17,1.39,4.34,1.16,2.17,1.16,4.34,1,2.17,1,4.34.42,2.17.42,4.34-3.73,2.17-3.73,4.34-1.5,2.18-1.5,4.35,3.94,2.17,3.94,4.34-2.41,2.17-2.41,4.34,2.12,2.17,2.12,4.35.43,2.17.43,4.34,1.24,2.17,1.24,4.34-3.56,2.18-3.56,4.35-2.74,2.17-2.74,4.34,1,2.17,1,4.35,2.55,2.17,2.55,4.34,1.41,2.17,1.41,4.35-1.79,2.17-1.79,4.34.54,2.17.54,4.35,2,2.17,2,4.34-2.61,2.18-2.61,4.35-2.17,2.17-2.17,4.34,1.23,2.18,1.23,4.35-.88,2.17-.88,4.35,4.71,2.17,4.71,4.34-3.74,2.18-3.74,4.35-.91,2.18-.91,4.35.05,2.17.05,4.35.16,2.17.16,4.34.54,2.18.54,4.35,2.25,2.18,2.25,4.35,0,2.17,0,4.35.56,2.17.56,4.35-1,2.17-1,4.34,2.62,2.18,2.62,4.35-1,2.17-1,4.35-3.11,2.17-3.11,4.34-1.48,2.18-1.48,4.35-.38,2.18-.38,4.35,3.86,2.18,3.86,4.35,1.43,2.18,1.43,4.35.22,2.17.22,4.35-3.81,2.17-3.81,4.35.25,2.18.25,4.35-1.94,2.63-1.55,4.77S1932.7,1098.51,1931.16,1100.05Z"/><path class="cls-32" d="M568.53,1085.42c-1.53,1.51-2.23-2.05-4.39-2.05s-2.15.54-4.3.54-2.15-1.44-4.3-1.44-2.16,5.78-4.31,5.78-2.15-5.72-4.3-5.72-2.16.29-4.31.29-2.16,3.29-4.31,3.29-2.15-.21-4.31-.21-2.15,1.87-4.3,1.87-2.16-3.22-4.31-3.22-2.16,1.09-4.31,1.09-2.16-.21-4.32-.21-4,2.65-5.53,1.15-.25-3.36-.25-5.47,4.37-2.11,4.37-4.22-4-2.11-4-4.22,3.23-2.11,3.23-4.23,0-2.11,0-4.22-.59-2.11-.59-4.23-1.28-2.11-1.28-4.22-.25-2.11-.25-4.22,3.36-2.11,3.36-4.22-5.31-2.12-5.31-4.23-.18-2.11-.18-4.23,3.71-2.11,3.71-4.22.7-2.11.7-4.22-1.18-2.12-1.18-4.23-1.49-2.11-1.49-4.23,1.38-2.11,1.38-4.22,1-2.12,1-4.23-3.9-2.11-3.9-4.23-.32-2.11-.32-4.22-.5-2.12-.5-4.23-.05-2.11-.05-4.23-.46-2.11-.46-4.22,2.9-2.12,2.9-4.23.19-2.11.19-4.23,2.27-2.11,2.27-4.23-4.41-2.11-4.41-4.22,3.72-2.12,3.72-4.23-1.26-2.12-1.26-4.23-2.88-2.12-2.88-4.23,6-2.11,6-4.23-5.31-2.11-5.31-4.22,1.65-2.12,1.65-4.23,3-2.11,3-4.23-3.82-2.11-3.82-4.23.11-2.11.11-4.22,2.42-2.12,2.42-4.23.69-2.12.69-4.23-3.53-2.12-3.53-4.24-1.59-2.11-1.59-4.23,6-2.11,6-4.23-2.29-2.11-2.29-4.23-2.58-2.11-2.58-4.23.69-2.12.69-4.24-1.76-4.44-.25-5.93,3.82,1.61,6,1.61,2.15-.6,4.31-.6,2.15-1.78,4.3-1.78,2.15,4.51,4.31,4.51,2.15-3.69,4.3-3.69,2.16-.81,4.31-.81,2.15.91,4.31.91,2.15,2.84,4.31,2.84,2.15,1.14,4.3,1.14,2.16-1.94,4.31-1.94,2.16,0,4.31,0,2.16-.48,4.31-.48.82.45,2.36,2,3.6.1,3.6,2.21-3.38,2.12-3.38,4.23-1.49,2.11-1.49,4.22,1.65,2.11,1.65,4.22.09,2.12.09,4.23,3.56,2.11,3.56,4.22-.49,2.11-.49,4.23-4.54,2.11-4.54,4.22,1.24,2.11,1.24,4.22,2.18,2.12,2.18,4.23-1.09,2.11-1.09,4.23-1.09,2.11-1.09,4.22,4.74,2.11,4.74,4.22-2,2.12-2,4.23-3.75,2.11-3.75,4.23,1.34,2.11,1.34,4.22.52,2.12.52,4.23,1.89,2.11,1.89,4.22-.67,2.12-.67,4.23-3.56,2.11-3.56,4.23.38,2.11.38,4.22,1.88,2.12,1.88,4.23-2.15,2.12-2.15,4.23,5.7,2.11,5.7,4.23-4.26,2.11-4.26,4.23,4.58,2.11,4.58,4.22-3.62,2.12-3.62,4.23,2.12,2.12,2.12,4.23,1,2.11,1,4.23-1.66,2.11-1.66,4.23,1.76,2.11,1.76,4.22-5.31,2.12-5.31,4.23,4.16,2.11,4.16,4.23-1.88,2.11-1.88,4.22,1,2.12,1,4.23-1.9,2.12-1.9,4.23,1.11,2.12,1.11,4.23,3.43,2.12,3.43,4.23-.52,2.12-.52,4.23-6,2.12-6,4.24,2.73,2.11,2.73,4.23,2.9,2.11,2.9,4.23a9.67,9.67,0,0,0,.39,3.63C571.63,1082.75,570,1083.93,568.53,1085.42Z"/><path class="cls-32" d="M1244.23,1079.12c-1.24,1.27-1.55-2.19-3.32-2.19s-1.78,3-3.55,3-1.77.29-3.54.29-1.77-3-3.55-3-1.77,1.33-3.54,1.33-1.77-1.76-3.54-1.76-1.77,2.49-3.55,2.49-1.77-2-3.54-2-1.77-.54-3.55-.54-1.77,3.45-3.55,3.45-4.11,2.24-5.35,1,.47-3.58.47-5.39-1.19-1.81-1.19-3.63.5-1.81.5-3.62,1.2-1.81,1.2-3.62.93-1.81.93-3.63-1.41-1.81-1.41-3.62,0-1.82,0-3.63,1.07-1.82,1.07-3.63-1.69-1.81-1.69-3.63,4.71-1.81,4.71-3.62-5-1.81-5-3.63,3.19-1.81,3.19-3.62-3-1.82-3-3.63,3.55-1.81,3.55-3.63-4-1.81-4-3.63,3.35-1.81,3.35-3.62-2.07-1.82-2.07-3.63,2.26-1.81,2.26-3.63-.4-1.81-.4-3.63-.44-1.81-.44-3.63-.12-1.81-.12-3.62,2.57-1.82,2.57-3.63-2.55-1.82-2.55-3.63-.92-1.81-.92-3.63-.31-1.81-.31-3.63S1203,986.84,1203,985s5.15-1.81,5.15-3.63-4.63-1.81-4.63-3.63,3.76-1.81,3.76-3.63-2.47-1.81-2.47-3.63-1.14-1.81-1.14-3.63-.69-1.81-.69-3.63.17-1.81.17-3.63,1.41-1.82,1.41-3.63.89-1.82.89-3.63,1.52-1.82,1.52-3.63,1.27-1.82,1.27-3.63-3-1.82-3-3.64-1-1.81-1-3.63,1.8-1.81,1.8-3.63,2.25-1.81,2.25-3.63,0-1.81,0-3.63-1.21-1.81-1.21-3.63,0-1.81,0-3.63,0-1.81,0-3.63-.88-1.82-.88-3.63-1.86-1.82-1.86-3.64,3.68-1.81,3.68-3.63-1.3-1.82-1.3-3.63-3.41-1.82-3.41-3.64,3.54-1.81,3.54-3.63-1.65-1.82-1.65-3.64,1.91-1.82,1.91-3.64-.88-.37.39-1.67-.24-.55,1.53-.55,1.77-.36,3.54-.36,1.78-1.08,3.55-1.08,1.77-.74,3.54-.74,1.78,2.59,3.55,2.59,1.77.33,3.54.33,1.77-3.33,3.54-3.33,1.78-.34,3.55-.34,1.77,1.43,3.54,1.43,1.78.46,3.56.46,1.4-.76,2.64.51-1.29.93-1.29,2.74.78,1.81.78,3.62,2.63,1.82,2.63,3.63,1.33,1.81,1.33,3.62-5.13,1.81-5.13,3.63,4.72,1.81,4.72,3.62-2.53,1.82-2.53,3.63-.69,1.82-.69,3.63-1.3,1.81-1.3,3.63,3.08,1.81,3.08,3.62-2.6,1.81-2.6,3.63-.25,1.81-.25,3.62,3.14,1.81,3.14,3.63.47,1.81.47,3.63-.47,1.81-.47,3.63,1,1.81,1,3.62-3,1.82-3,3.63,2.05,1.81,2.05,3.63-1.81,1.81-1.81,3.62,3,1.82,3,3.63-.68,1.82-.68,3.63-1.16,1.82-1.16,3.63-2.72,1.81-2.72,3.63.84,1.81.84,3.63.7,1.81.7,3.63.81,1.81.81,3.63.92,1.81.92,3.63,1.3,1.81,1.3,3.63-3.36,1.81-3.36,3.63,2,1.81,2,3.63,1.78,1.81,1.78,3.63-2,1.81-2,3.63,1.45,1.81,1.45,3.63-2.25,1.81-2.25,3.63-2.2,1.82-2.2,3.63,3.16,1.82,3.16,3.63-1.82,1.82-1.82,3.63,1.32,1.82,1.32,3.64-.6,1.81-.6,3.63,1.81,1.81,1.81,3.63-.68,1.81-.68,3.62-3.5,1.82-3.5,3.64.58,1.81.58,3.63,1.3,1.81,1.3,3.63,2.1,1.81,2.1,3.63-2.78,1.81-2.78,3.63,2.23,1.82,2.23,3.64,2.15,1.81,2.15,3.63-4.51,1.82-4.51,3.63,1.47,1.82,1.47,3.64-2.22,1.81-2.22,3.63,4.93,1.82,4.93,3.63-2,1.69-1.63,3.48S1245.5,1077.81,1244.23,1079.12Z"/><path class="cls-32" d="M1578.39,1084.27c-1.33,1.29-1.79-.45-3.64-.45s-1.85,2.32-3.69,2.32-1.85-.53-3.7-.53-1.85.18-3.7.18-1.85-1.27-3.7-1.27-1.85-1.07-3.7-1.07-1.85,1.5-3.7,1.5-1.85-.8-3.7-.8-1.85,2.11-3.71,2.11-3.24.27-4.57-1,3-2.7,3-4.49-.81-1.8-.81-3.59-3.32-1.79-3.32-3.58,2.61-1.79,2.61-3.59,1.76-1.79,1.76-3.58-4.71-1.79-4.71-3.58,1.8-1.79,1.8-3.59,1-1.79,1-3.58,1.56-1.8,1.56-3.59-4.7-1.8-4.7-3.59,1-1.79,1-3.59,4.12-1.79,4.12-3.58-2-1.79-2-3.59,0-1.79,0-3.58,1.12-1.79,1.12-3.59-.08-1.79-.08-3.59-1.77-1.79-1.77-3.59,1.46-1.79,1.46-3.58-2.54-1.8-2.54-3.59,1.81-1.79,1.81-3.58.56-1.8.56-3.59,1.27-1.8,1.27-3.59-.27-1.8-.27-3.59-4.32-1.8-4.32-3.59,4.14-1.79,4.14-3.59-2-1.79-2-3.59-1-1.79-1-3.59,3.15-1.79,3.15-3.59-2.26-1.79-2.26-3.58,3.11-1.8,3.11-3.59-1.49-1.8-1.49-3.59,1.55-1.8,1.55-3.59-2.14-1.8-2.14-3.59-.21-1.8-.21-3.59-2.2-1.8-2.2-3.59,1.47-1.8,1.47-3.6-1.23-1.79-1.23-3.59-.8-1.79-.8-3.59,2.84-1.79,2.84-3.59-.61-1.79-.61-3.59,2-1.79,2-3.59-4.08-1.79-4.08-3.59,2.28-1.79,2.28-3.59-1.3-1.79-1.3-3.59,4.07-1.79,4.07-3.59-.59-1.79-.59-3.59-1-1.79-1-3.59-2.21-1.8-2.21-3.59,3.46-1.8,3.46-3.6.24-1.79.24-3.59-1.83-1.8-1.83-3.59-3-1.8-3-3.6.61-1.79.61-3.59,2.28-1.8,2.28-3.6,1.21-1.8,1.21-3.6-4.16-3.3-2.87-4.56,2.79,1.28,4.63,1.28,1.85,2.51,3.7,2.51,1.85-3,3.7-3,1.85-1.2,3.7-1.2h3.7c1.85,0,1.85,4.21,3.7,4.21s1.85,0,3.7,0,1.85-5.25,3.7-5.25,1.85,2.28,3.7,2.28,1.27.05,2.6,1.34,2.73.65,2.73,2.44-4.09,1.8-4.09,3.59.13,1.79.13,3.58-.39,1.79-.39,3.58,2.46,1.8,2.46,3.59,1,1.79,1,3.58-3,1.79-3,3.59,2.67,1.79,2.67,3.58-2.52,1.8-2.52,3.59.85,1.8.85,3.59.74,1.79.74,3.59.36,1.79.36,3.58-1.6,1.79-1.6,3.58,1.78,1.8,1.78,3.59,1.17,1.79,1.17,3.59.76,1.79.76,3.58-3.76,1.8-3.76,3.59.85,1.8.85,3.59.25,1.79.25,3.59,3.06,1.79,3.06,3.58-4.29,1.8-4.29,3.59,4.22,1.8,4.22,3.59-1.73,1.8-1.73,3.59-2.45,1.79-2.45,3.59-.64,1.79-.64,3.59,2.77,1.79,2.77,3.58,1.9,1.8,1.9,3.6.27,1.79.27,3.58-3.93,1.8-3.93,3.59.5,1.8.5,3.59-.65,1.8-.65,3.59,2.65,1.8,2.65,3.59,1.37,1.8,1.37,3.59-1.46,1.8-1.46,3.59,1.26,1.8,1.26,3.59-.33,1.8-.33,3.59-1.23,1.8-1.23,3.59,2.17,1.8,2.17,3.6-3.74,1.79-3.74,3.59-.36,1.79-.36,3.59-.53,1.79-.53,3.59-.87,1.79-.87,3.59,4.9,1.79,4.9,3.58-2.28,1.8-2.28,3.6,1.68,1.79,1.68,3.59-.94,1.79-.94,3.59,1.5,1.79,1.5,3.59-2.33,1.79-2.33,3.59-1.16,1.8-1.16,3.59,3.25,1.8,3.25,3.6.92,1.8.92,3.59-4.11,1.8-4.11,3.6-.58,1.79-.58,3.59.17,1.8.17,3.59a13.61,13.61,0,0,0,.46,3.86C1577.61,1082.84,1579.68,1083,1578.39,1084.27Z"/><path class="cls-32" d="M911.09,1081.92c-1.36,1.41-3.6-2.82-5.55-2.82s-2-1.38-3.92-1.38-2,1-3.91,1-2-1.29-3.92-1.29-1.95,3.36-3.91,3.36-2-3.3-3.92-3.3-2,5.68-3.92,5.68-1.95-5.76-3.91-5.76-2,5.4-3.92,5.4-2-1-3.91-1-2,1.64-3.93,1.64-1.11-3.07-2.48-4.48,1.22-.61,1.22-2.63-5-2-5-4,.89-2,.89-4,3.25-2,3.25-4-2.56-2-2.56-4,3.4-2,3.4-4,.16-2,.16-4-4.53-2-4.53-4,4.65-2,4.65-4-4.45-2-4.45-4,3.48-2,3.48-4-4.66-2-4.66-4,4.45-2,4.45-4-.1-2-.1-4-4.57-2-4.57-4,1.91-2,1.91-4,1.17-2,1.17-4-2.3-2-2.3-4,5.21-2,5.21-4-2.6-2-2.6-4,1.62-2,1.62-4-.73-2-.73-4-3.85-2-3.85-4,1.53-2,1.53-4,3.34-2,3.34-4-3.21-2-3.21-4,3.22-2,3.22-4-1.88-2-1.88-4,1-2,1-4-.88-2-.88-4-1.84-2-1.84-4,3.18-2,3.18-4-4.2-2-4.2-4,2.28-2,2.28-4-2-2-2-4,.36-2,.36-4-.54-2-.54-4,5.2-2,5.2-4-1.54-2-1.54-4,.37-2,.37-4.05-2.43-2-2.43-4,1-2,1-4-.69-2-.69-4,1.32-2,1.32-4-1.3-2-1.3-4,2.68-2,2.68-4.05-3.49-2-3.49-4,4.2-2,4.2-4-6.25-2-6.25-4.05-.12-4.38,1.29-5.83,3.79,3.07,5.75,3.07,2,1.37,3.92,1.37,2-4.17,3.91-4.17,2,1.06,3.91,1.06,2-1.26,3.92-1.26,2,2.57,3.92,2.57,2-1.55,3.91-1.55,2-1.21,3.92-1.21,2,1,3.92,1,1.95,3.41,3.91,3.41,2-3.18,3.93-3.18,3.7-1.84,5.07-.43-.2,3.13-.2,5.15.44,2,.44,4,.73,2,.73,4-1.67,2-1.67,4-1.41,2-1.41,4,3.86,2,3.86,4-1,2-1,4-4,2-4,4,2.31,2,2.31,4-.32,2-.32,4-1,2-1,4,.61,2,.61,4,1.52,2,1.52,4,1.87,2,1.87,4-1.55,2-1.55,4-2.89,2-2.89,4,.59,2,.59,4,.89,2,.89,4-2,2-2,4,3.24,2,3.24,4-3,2-3,4,3.61,2,3.61,4-2,2-2,4-1.17,2-1.17,4,4.5,2,4.5,4-2.68,2-2.68,4,.11,2,.11,4-2.22,2-2.22,4,1.64,2,1.64,4,3.18,2,3.18,4-3.77,2-3.77,4-.3,2-.3,4-1.89,2-1.89,4,.88,2,.88,4,.44,2,.44,4-.63,2-.63,4.05-.62,2-.62,4,5.27,2,5.27,4-3.88,2-3.88,4,2.19,2,2.19,4.05-1.35,2-1.35,4-.35,2-.35,4,.45,2,.45,4,.09,2,.09,4-1,2-1,4,.28,2,.28,4-1.42,2-1.42,4,2.86,2,2.86,4-2.82,2.78-2.11,4.68C908.85,1079.82,912.5,1080.46,911.09,1081.92Z"/><path class="cls-33" d="M1963,951.57c-11.94,13.3-22.77,2.38-40.64,2.38s-17.86-14.57-35.73-14.57-17.87,6.84-35.73,6.84-17.87-8.33-35.74-8.33-17.86,11.26-35.73,11.26S1761.6,948,1743.73,948s-17.86-2.35-35.73-2.35-17.87-.66-35.74-.66-17.86-7.53-35.73-7.53-17.87,1-35.74,1-17.86,6.3-35.73,6.3-17.87-5.44-35.74-5.44-17.86,16-35.73,16-17.87-7.19-35.74-7.19-17.86,5.43-35.73,5.43-17.87-1.82-35.74-1.82-17.86-8.67-35.73-8.67-17.87-5.9-35.74-5.9-17.86,14.19-35.73,14.19-17.87-11.62-35.74-11.62-17.87,13.94-35.74,13.94-17.86-10.85-35.73-10.85-17.87,4.49-35.74,4.49-17.86,11.79-35.73,11.79-17.87-.57-35.74-.57S1046.89,951,1029,951s-17.87,2.87-35.74,2.87-17.86-13.23-35.73-13.23-17.87,3.53-35.74,3.53-17.87,14.88-35.74,14.88S868.21,948,850.34,948s-17.87-11.69-35.73-11.69-17.87,13-35.74,13-17.87.33-35.74.33-17.86,7.18-35.73,7.18-17.87-21.13-35.73-21.13-17.87,9-35.74,9-17.87-7.57-35.73-7.57-17.87,21.81-35.74,21.81-17.87-9.19-35.74-9.19-17.87-1-35.74-1-17.87,1.58-35.73,1.58-17.87,2.54-35.74,2.54-17.87-11-35.74-11-17.87,3.31-35.74,3.31-17.87.53-35.74.53-17.87,11.45-35.74,11.45-17.87-13.29-35.74-13.29S225,948,207.08,948s-17.87-2.06-35.74-2.06S153.47,957,135.59,957s-17.87-19.88-35.74-19.88S82,948.4,64.11,948.4,46.24,943,28.36,943,5.12,960-6.82,946.67c-13.3-14.81-9.41-19.39-9.41-39.3s-2.18-23,11.11-37.77c11.94-13.3,15.6-10.73,33.47-10.73S46.22,879,64.08,879s17.87-9.77,35.74-9.77,17.86-8.66,35.73-8.66S153.42,865,171.28,865s17.87-4.64,35.74-4.64,17.87,3.3,35.73,3.3S260.62,859,278.49,859s17.87,19.42,35.73,19.42,17.87-6.82,35.74-6.82,17.87-13.4,35.73-13.4,17.87-1.49,35.74-1.49,17.87,21.56,35.73,21.56S475,866.56,492.9,866.56s17.87,1.38,35.74,1.38,17.86-10.73,35.73-10.73,17.87.08,35.74.08,17.86,21,35.73,21,17.87-8.1,35.74-8.1,17.87,3.05,35.73,3.05,17.87-12.75,35.74-12.75,17.87-2.65,35.74-2.65,17.86,7.1,35.73,7.1,17.87.44,35.74.44,17.87-1.72,35.73-1.72,17.87,9.24,35.74,9.24,17.87,3.72,35.74,3.72S975.34,866,993.21,866s17.87-7.44,35.73-7.44S1046.81,869,1064.68,869s17.87,2.33,35.74,2.33,17.86-1.88,35.73-1.88,17.87,3,35.73,3,17.87-5.7,35.74-5.7,17.87-1.21,35.73-1.21,17.87,10.38,35.74,10.38,17.87-19.38,35.73-19.38,17.87,13.82,35.74,13.82,17.87-5.28,35.73-5.28,17.87-2.93,35.74-2.93,17.87,5.39,35.74,5.39,17.87-10.92,35.74-10.92,17.87,5.31,35.74,5.31,17.87,12.36,35.73,12.36,17.87,2.05,35.74,2.05,17.87-12.5,35.74-12.5,17.87.12,35.74.12,17.87,8.33,35.74,8.33,17.87-3.67,35.74-3.67,17.87,8.85,35.74,8.85,17.87-4.66,35.74-4.66,17.87-16.18,35.74-16.18,17.87,2.26,35.75,2.26,17.87,9.47,35.74,9.47,31.49-21,43.43-7.67c13.3,14.81-4.8,25.36.26,44.61C1972.09,928.13,1976.33,936.76,1963,951.57Z"/></g></g><g id="goodcow-6" data-name="goodcow"><ellipse class="cls-11" cx="946.24" cy="661.11" rx="2.42" ry="6.46" transform="translate(92.27 1437.75) rotate(-77.23)"/><ellipse class="cls-11" cx="909.81" cy="661.64" rx="5.35" ry="2.38" transform="translate(-191.21 430.82) rotate(-24.19)"/><path class="cls-12" d="M973.18,741.29a1,1,0,0,0,2,0v-8.12a1,1,0,1,0-2,0Z"/><path class="cls-12" d="M971,740.36a1,1,0,1,0,2,0v-8.12a1,1,0,0,0-2,0Z"/><path class="cls-12" d="M967.9,740.71a1.26,1.26,0,0,0,2.51,0v-7.57a1.26,1.26,0,1,0-2.51,0Z"/><ellipse class="cls-12" cx="972.42" cy="733.36" rx="5.49" ry="6.13"/><path class="cls-7" d="M938.67,746.09a3.27,3.27,0,0,0,6.53,0V729.24a3.27,3.27,0,0,0-6.53,0Z"/><path class="cls-11" d="M939.66,747.49a2.06,2.06,0,0,0,2.06,2.06h2.17a2.07,2.07,0,1,0,0-4.13h-2.17a2.07,2.07,0,0,0-2.06,2.07Z"/><path class="cls-7" d="M934.92,751.47a4.09,4.09,0,1,0,8.18,0V725.64a4.09,4.09,0,1,0-8.18,0Z"/><path class="cls-11" d="M934.31,753.73a2.88,2.88,0,0,0,2.88,2.88h3.65a2.88,2.88,0,0,0,0-5.76h-3.65a2.88,2.88,0,0,0-2.88,2.88Z"/><path class="cls-7" d="M980.75,746.65a2.71,2.71,0,0,0,5.42,0V732.32a2.71,2.71,0,1,0-5.42,0Z"/><path class="cls-11" d="M981.54,747.86a1.65,1.65,0,0,0,1.66,1.65h1.64a1.66,1.66,0,1,0,0-3.31H983.2a1.66,1.66,0,0,0-1.66,1.66Z"/><path class="cls-7" d="M975.76,754.47a3.68,3.68,0,0,0,7.35,0V733.25a3.68,3.68,0,0,0-7.35,0Z"/><ellipse class="cls-7" cx="1014.46" cy="707.39" rx="3.4" ry="21.34" transform="matrix(0.86, -0.52, 0.52, 0.86, -219.53, 624.89)"/><ellipse class="cls-7" cx="969.29" cy="706.29" rx="44.31" ry="29.16"/><path class="cls-7" d="M912.79,674.41a14.69,14.69,0,0,0,29.37,0v-15a14.69,14.69,0,0,0-29.37,0Z"/><path class="cls-13" d="M907.22,686.75a13.11,13.11,0,0,0,13.12,13.12h15.08a13.13,13.13,0,1,0,0-26.25H920.34a13.12,13.12,0,0,0-13.12,13.13Z"/><ellipse class="cls-7" cx="932.79" cy="683.45" rx="1.91" ry="5.31"/><ellipse class="cls-7" cx="924.01" cy="682.64" rx="2.5" ry="5.97"/><path class="cls-11" d="M974.76,757.68a2.88,2.88,0,0,0,2.88,2.88h3.64a2.88,2.88,0,1,0,0-5.76h-3.64a2.88,2.88,0,0,0-2.88,2.88Z"/><ellipse cx="921.93" cy="658.52" rx="2.64" ry="2.95"/><ellipse cx="931.72" cy="658.59" rx="2.29" ry="2.56"/><ellipse class="cls-7" cx="1024.63" cy="724.22" rx="3.69" ry="5.42" transform="translate(-228.87 780) rotate(-37.8)"/><ellipse class="cls-14" cx="934.32" cy="694.78" rx="1.25" ry="2.13" transform="translate(-224.17 578.3) rotate(-30.89)"/><path class="cls-19" d="M935.82,691.09a9.33,9.33,0,0,1-4.88,3,13.9,13.9,0,0,1-11.38-2.3"/><ellipse class="cls-16" cx="990.9" cy="704.66" rx="9.49" ry="5.35" transform="translate(-190.81 991.01) rotate(-49.04)"/><ellipse class="cls-16" cx="965.43" cy="686.41" rx="5.38" ry="9.25" transform="translate(-185.2 967.98) rotate(-49.16)"/><ellipse class="cls-16" cx="958.33" cy="715.27" rx="4.39" ry="10.45" transform="translate(136.03 1583.5) rotate(-83.29)"/></g><g id="goodcow-7" data-name="goodcow"><ellipse class="cls-11" cx="387.24" cy="704.11" rx="2.42" ry="6.46" transform="translate(-385.06 926.08) rotate(-77.23)"/><ellipse class="cls-11" cx="350.81" cy="704.64" rx="5.35" ry="2.38" transform="translate(-257.89 205.57) rotate(-24.19)"/><path class="cls-12" d="M414.18,784.29a1,1,0,1,0,2,0v-8.12a1,1,0,0,0-2,0Z"/><path class="cls-12" d="M412,783.36a1,1,0,0,0,2,0v-8.12a1,1,0,0,0-2,0Z"/><path class="cls-12" d="M408.9,783.71a1.26,1.26,0,0,0,2.51,0v-7.57a1.26,1.26,0,1,0-2.51,0Z"/><ellipse class="cls-12" cx="413.42" cy="776.36" rx="5.49" ry="6.13"/><path class="cls-7" d="M379.67,789.09a3.27,3.27,0,0,0,6.53,0V772.24a3.27,3.27,0,0,0-6.53,0Z"/><path class="cls-11" d="M380.66,790.49a2.06,2.06,0,0,0,2.06,2.06h2.17a2.07,2.07,0,1,0,0-4.13h-2.17a2.07,2.07,0,0,0-2.06,2.07Z"/><path class="cls-7" d="M375.92,794.47a4.09,4.09,0,0,0,8.18,0V768.64a4.09,4.09,0,1,0-8.18,0Z"/><path class="cls-11" d="M375.31,796.73a2.88,2.88,0,0,0,2.88,2.88h3.65a2.88,2.88,0,0,0,0-5.76h-3.65a2.88,2.88,0,0,0-2.88,2.88Z"/><path class="cls-7" d="M421.75,789.65a2.71,2.71,0,0,0,5.42,0V775.32a2.71,2.71,0,0,0-5.42,0Z"/><path class="cls-11" d="M422.54,790.86a1.65,1.65,0,0,0,1.66,1.65h1.64a1.66,1.66,0,1,0,0-3.31H424.2a1.66,1.66,0,0,0-1.66,1.66Z"/><path class="cls-7" d="M416.76,797.47a3.68,3.68,0,0,0,7.35,0V776.25a3.68,3.68,0,0,0-7.35,0Z"/><ellipse class="cls-7" cx="455.46" cy="750.39" rx="3.4" ry="21.34" transform="matrix(0.86, -0.52, 0.52, 0.86, -321.87, 342.62)"/><ellipse class="cls-7" cx="410.29" cy="749.29" rx="44.31" ry="29.16"/><path class="cls-7" d="M353.79,717.41a14.69,14.69,0,0,0,29.37,0v-15a14.69,14.69,0,0,0-29.37,0Z"/><path class="cls-13" d="M348.22,729.75a13.11,13.11,0,0,0,13.12,13.12h15.08a13.13,13.13,0,1,0,0-26.25H361.34a13.12,13.12,0,0,0-13.12,13.13Z"/><ellipse class="cls-7" cx="373.79" cy="726.45" rx="1.91" ry="5.31"/><ellipse class="cls-7" cx="365.01" cy="725.64" rx="2.5" ry="5.97"/><path class="cls-11" d="M415.76,800.68a2.88,2.88,0,0,0,2.88,2.88h3.64a2.88,2.88,0,1,0,0-5.76h-3.64a2.88,2.88,0,0,0-2.88,2.88Z"/><ellipse cx="362.93" cy="701.52" rx="2.64" ry="2.95"/><ellipse cx="372.72" cy="701.59" rx="2.29" ry="2.56"/><ellipse class="cls-7" cx="465.63" cy="767.22" rx="3.69" ry="5.42" transform="translate(-372.53 446.4) rotate(-37.8)"/><ellipse class="cls-14" cx="375.32" cy="737.78" rx="1.25" ry="2.13" transform="translate(-325.56 297.38) rotate(-30.89)"/><path class="cls-19" d="M376.82,734.09a9.33,9.33,0,0,1-4.88,3,13.9,13.9,0,0,1-11.38-2.3"/><ellipse class="cls-16" cx="431.9" cy="747.66" rx="9.49" ry="5.35" transform="translate(-415.83 583.69) rotate(-49.04)"/><ellipse class="cls-16" cx="406.43" cy="729.41" rx="5.38" ry="9.25" transform="translate(-411.19 559.94) rotate(-49.16)"/><ellipse class="cls-16" cx="399.33" cy="758.27" rx="4.39" ry="10.45" transform="translate(-400.38 1066.3) rotate(-83.29)"/></g><g id="goodcow-8" data-name="goodcow"><ellipse class="cls-11" cx="885.24" cy="721.11" rx="2.42" ry="6.46" transform="translate(-13.76 1424.99) rotate(-77.23)"/><ellipse class="cls-11" cx="848.81" cy="721.64" rx="5.35" ry="2.38" transform="translate(-221.14 411.09) rotate(-24.19)"/><path class="cls-12" d="M912.18,801.29a1,1,0,0,0,2,0v-8.12a1,1,0,1,0-2,0Z"/><path class="cls-12" d="M910,800.36a1,1,0,1,0,2,0v-8.12a1,1,0,0,0-2,0Z"/><path class="cls-12" d="M906.9,800.71a1.26,1.26,0,0,0,2.51,0v-7.57a1.26,1.26,0,1,0-2.51,0Z"/><ellipse class="cls-12" cx="911.42" cy="793.36" rx="5.49" ry="6.13"/><path class="cls-7" d="M877.67,806.09a3.27,3.27,0,0,0,6.53,0V789.24a3.27,3.27,0,0,0-6.53,0Z"/><path class="cls-11" d="M878.66,807.49a2.06,2.06,0,0,0,2.06,2.06h2.17a2.07,2.07,0,1,0,0-4.13h-2.17a2.07,2.07,0,0,0-2.06,2.07Z"/><path class="cls-7" d="M873.92,811.47a4.09,4.09,0,1,0,8.18,0V785.64a4.09,4.09,0,1,0-8.18,0Z"/><path class="cls-11" d="M873.31,813.73a2.88,2.88,0,0,0,2.88,2.88h3.65a2.88,2.88,0,0,0,0-5.76h-3.65a2.88,2.88,0,0,0-2.88,2.88Z"/><path class="cls-7" d="M919.75,806.65a2.71,2.71,0,0,0,5.42,0V792.32a2.71,2.71,0,1,0-5.42,0Z"/><path class="cls-11" d="M920.54,807.86a1.65,1.65,0,0,0,1.66,1.65h1.64a1.66,1.66,0,1,0,0-3.31H922.2a1.66,1.66,0,0,0-1.66,1.66Z"/><path class="cls-7" d="M914.76,814.47a3.68,3.68,0,0,0,7.35,0V793.25a3.68,3.68,0,0,0-7.35,0Z"/><ellipse class="cls-7" cx="953.46" cy="767.39" rx="3.4" ry="21.34" transform="matrix(0.86, -0.52, 0.52, 0.86, -259.23, 602.02)"/><ellipse class="cls-7" cx="908.29" cy="766.29" rx="44.31" ry="29.16"/><path class="cls-7" d="M851.79,734.41a14.69,14.69,0,0,0,29.37,0v-15a14.69,14.69,0,0,0-29.37,0Z"/><path class="cls-13" d="M846.22,746.75a13.11,13.11,0,0,0,13.12,13.12h15.08a13.13,13.13,0,1,0,0-26.25H859.34a13.12,13.12,0,0,0-13.12,13.13Z"/><ellipse class="cls-7" cx="871.79" cy="743.45" rx="1.91" ry="5.31"/><ellipse class="cls-7" cx="863.01" cy="742.64" rx="2.5" ry="5.97"/><path class="cls-11" d="M913.76,817.68a2.88,2.88,0,0,0,2.88,2.88h3.64a2.88,2.88,0,1,0,0-5.76h-3.64a2.88,2.88,0,0,0-2.88,2.88Z"/><ellipse cx="860.93" cy="718.52" rx="2.64" ry="2.95"/><ellipse cx="870.72" cy="718.59" rx="2.29" ry="2.56"/><ellipse class="cls-7" cx="963.63" cy="784.22" rx="3.69" ry="5.42" transform="translate(-278.44 755.2) rotate(-37.8)"/><ellipse class="cls-14" cx="873.32" cy="754.78" rx="1.25" ry="2.13" transform="translate(-263.63 555.5) rotate(-30.89)"/><path class="cls-19" d="M874.82,751.09a9.33,9.33,0,0,1-4.88,3,13.9,13.9,0,0,1-11.38-2.3"/><ellipse class="cls-16" cx="929.9" cy="764.66" rx="9.49" ry="5.35" transform="translate(-257.13 965.61) rotate(-49.04)"/><ellipse class="cls-16" cx="904.43" cy="746.41" rx="5.38" ry="9.25" transform="translate(-251.7 942.59) rotate(-49.16)"/><ellipse class="cls-16" cx="897.33" cy="775.27" rx="4.39" ry="10.45" transform="translate(22.57 1575.91) rotate(-83.29)"/></g><g id="goodcow-9" data-name="goodcow"><ellipse class="cls-11" cx="308.24" cy="610.11" rx="2.42" ry="6.46" transform="translate(-354.92 775.82) rotate(-77.23)"/><ellipse class="cls-11" cx="271.81" cy="610.64" rx="5.35" ry="2.38" transform="translate(-226.32 164.96) rotate(-24.19)"/><path class="cls-12" d="M335.18,690.29a1,1,0,1,0,2,0v-8.12a1,1,0,1,0-2,0Z"/><path class="cls-12" d="M333,689.36a1,1,0,0,0,2,0v-8.12a1,1,0,0,0-2,0Z"/><path class="cls-12" d="M329.9,689.71a1.26,1.26,0,0,0,2.51,0v-7.57a1.26,1.26,0,1,0-2.51,0Z"/><ellipse class="cls-12" cx="334.42" cy="682.36" rx="5.49" ry="6.13"/><path class="cls-7" d="M300.67,695.09a3.27,3.27,0,0,0,6.53,0V678.24a3.27,3.27,0,0,0-6.53,0Z"/><path class="cls-11" d="M301.66,696.49a2.06,2.06,0,0,0,2.06,2.06h2.17a2.07,2.07,0,1,0,0-4.13h-2.17a2.07,2.07,0,0,0-2.06,2.07Z"/><path class="cls-7" d="M296.92,700.47a4.09,4.09,0,0,0,8.18,0V674.64a4.09,4.09,0,1,0-8.18,0Z"/><path class="cls-11" d="M296.31,702.73a2.88,2.88,0,0,0,2.88,2.88h3.65a2.88,2.88,0,0,0,0-5.76h-3.65a2.88,2.88,0,0,0-2.88,2.88Z"/><path class="cls-7" d="M342.75,695.65a2.71,2.71,0,0,0,5.42,0V681.32a2.71,2.71,0,0,0-5.42,0Z"/><path class="cls-11" d="M343.54,696.86a1.65,1.65,0,0,0,1.66,1.65h1.64a1.66,1.66,0,1,0,0-3.31H345.2a1.66,1.66,0,0,0-1.66,1.66Z"/><path class="cls-7" d="M337.76,703.47a3.68,3.68,0,0,0,7.35,0V682.25a3.68,3.68,0,0,0-7.35,0Z"/><ellipse class="cls-7" cx="376.46" cy="656.39" rx="3.4" ry="21.34" transform="translate(-284.7 288.38) rotate(-31.06)"/><ellipse class="cls-7" cx="331.29" cy="655.29" rx="44.31" ry="29.16"/><path class="cls-7" d="M274.79,623.41a14.69,14.69,0,0,0,29.37,0v-15a14.69,14.69,0,0,0-29.37,0Z"/><path class="cls-13" d="M269.22,635.75a13.11,13.11,0,0,0,13.12,13.12h15.08a13.13,13.13,0,1,0,0-26.25H282.34a13.12,13.12,0,0,0-13.12,13.13Z"/><ellipse class="cls-7" cx="294.79" cy="632.45" rx="1.91" ry="5.31"/><ellipse class="cls-7" cx="286.01" cy="631.64" rx="2.5" ry="5.97"/><path class="cls-11" d="M336.76,706.68a2.88,2.88,0,0,0,2.88,2.88h3.64a2.88,2.88,0,1,0,0-5.76h-3.64a2.88,2.88,0,0,0-2.88,2.88Z"/><ellipse cx="283.93" cy="607.52" rx="2.64" ry="2.95"/><ellipse cx="293.72" cy="607.59" rx="2.29" ry="2.56"/><ellipse class="cls-7" cx="386.63" cy="673.22" rx="3.69" ry="5.42" transform="translate(-331.49 378.25) rotate(-37.8)"/><ellipse class="cls-14" cx="296.32" cy="643.78" rx="1.25" ry="2.13" transform="translate(-288.51 243.48) rotate(-30.89)"/><path class="cls-19" d="M297.82,640.09a9.33,9.33,0,0,1-4.88,3,13.9,13.9,0,0,1-11.38-2.3"/><ellipse class="cls-16" cx="352.9" cy="653.66" rx="9.49" ry="5.35" transform="translate(-372.06 491.65) rotate(-49.04)"/><ellipse class="cls-16" cx="327.43" cy="635.41" rx="5.38" ry="9.25" transform="translate(-367.42 467.63) rotate(-49.16)"/><ellipse class="cls-16" cx="320.33" cy="664.27" rx="4.39" ry="10.45" transform="translate(-376.8 904.82) rotate(-83.29)"/></g><g id="goodcow-10" data-name="goodcow"><ellipse class="cls-11" cx="187.24" cy="685.11" rx="2.42" ry="6.46" transform="translate(-522.31 716.23) rotate(-77.23)"/><ellipse class="cls-11" cx="150.81" cy="685.64" rx="5.35" ry="2.38" transform="translate(-267.66 121.97) rotate(-24.19)"/><path class="cls-12" d="M214.18,765.29a1,1,0,0,0,2,0v-8.12a1,1,0,0,0-2,0Z"/><path class="cls-12" d="M212,764.36a1,1,0,1,0,2,0v-8.12a1,1,0,1,0-2,0Z"/><path class="cls-12" d="M208.9,764.71a1.26,1.26,0,0,0,2.51,0v-7.57a1.26,1.26,0,1,0-2.51,0Z"/><ellipse class="cls-12" cx="213.42" cy="757.36" rx="5.49" ry="6.13"/><path class="cls-7" d="M179.67,770.09a3.27,3.27,0,0,0,6.53,0V753.24a3.27,3.27,0,0,0-6.53,0Z"/><path class="cls-11" d="M180.66,771.49a2.06,2.06,0,0,0,2.06,2.06h2.17a2.07,2.07,0,1,0,0-4.13h-2.17a2.07,2.07,0,0,0-2.06,2.07Z"/><path class="cls-7" d="M175.92,775.47a4.09,4.09,0,0,0,8.18,0V749.64a4.09,4.09,0,1,0-8.18,0Z"/><path class="cls-11" d="M175.31,777.73a2.88,2.88,0,0,0,2.88,2.88h3.65a2.88,2.88,0,0,0,0-5.76h-3.65a2.88,2.88,0,0,0-2.88,2.88Z"/><path class="cls-7" d="M221.75,770.65a2.71,2.71,0,0,0,5.42,0V756.32a2.71,2.71,0,1,0-5.42,0Z"/><path class="cls-11" d="M222.54,771.86a1.65,1.65,0,0,0,1.66,1.65h1.64a1.66,1.66,0,1,0,0-3.31H224.2a1.66,1.66,0,0,0-1.66,1.66Z"/><path class="cls-7" d="M216.76,778.47a3.68,3.68,0,0,0,7.35,0V757.25a3.68,3.68,0,0,0-7.35,0Z"/><ellipse class="cls-7" cx="255.46" cy="731.39" rx="3.4" ry="21.34" transform="matrix(0.86, -0.52, 0.52, 0.86, -340.75, 236.7)"/><ellipse class="cls-7" cx="210.29" cy="730.29" rx="44.31" ry="29.16"/><path class="cls-7" d="M153.79,698.41a14.69,14.69,0,0,0,29.37,0v-15a14.69,14.69,0,0,0-29.37,0Z"/><path class="cls-13" d="M148.22,710.75a13.11,13.11,0,0,0,13.12,13.12h15.08a13.13,13.13,0,1,0,0-26.25H161.34a13.12,13.12,0,0,0-13.12,13.13Z"/><ellipse class="cls-7" cx="173.79" cy="707.45" rx="1.91" ry="5.31"/><ellipse class="cls-7" cx="165.01" cy="706.64" rx="2.5" ry="5.97"/><path class="cls-11" d="M215.76,781.68a2.88,2.88,0,0,0,2.88,2.88h3.64a2.88,2.88,0,1,0,0-5.76h-3.64a2.88,2.88,0,0,0-2.88,2.88Z"/><ellipse cx="162.93" cy="682.52" rx="2.64" ry="2.95"/><ellipse cx="172.72" cy="682.59" rx="2.29" ry="2.56"/><ellipse class="cls-7" cx="265.63" cy="748.22" rx="3.69" ry="5.42" transform="translate(-402.86 319.83) rotate(-37.8)"/><ellipse class="cls-14" cx="175.32" cy="718.78" rx="1.25" ry="2.13" transform="translate(-344.18 192) rotate(-30.89)"/><path class="cls-19" d="M176.82,715.09a9.33,9.33,0,0,1-4.88,3,13.9,13.9,0,0,1-11.38-2.3"/><ellipse class="cls-16" cx="231.9" cy="728.66" rx="9.49" ry="5.35" transform="translate(-470.38 426.11) rotate(-49.04)"/><ellipse class="cls-16" cx="206.43" cy="710.41" rx="5.38" ry="9.25" transform="translate(-466.03 402.05) rotate(-49.16)"/><ellipse class="cls-16" cx="199.33" cy="739.27" rx="4.39" ry="10.45" transform="translate(-558.15 850.89) rotate(-83.29)"/></g></g></g></svg>